<svg width="62" height="62" viewBox="0 0 62 62" fill="none" xmlns="http://www.w3.org/2000/svg">
<g id="06edfa96bb32a48f7e1f9aec08e74be9_1650384657">
<path id="Vector" fill-rule="evenodd" clip-rule="evenodd" d="M16.9512 38.5534L15.9629 37.3552H19.7001L26.254 46.8876H22.8426L21.9086 45.3982H15.6582L14.7613 46.8876H11.493L16.9512 38.5534ZM16.8274 43.5101L18.6218 40.3698L20.5799 43.5101H16.8274ZM42.0975 16.9839C43.7323 15.7362 45.7413 15.0774 47.7981 15.1145C51.0717 15.1609 54.0737 16.9151 55.6702 19.7178C56.4541 21.0903 56.8554 22.6476 56.8324 24.2279C56.8093 25.808 56.3626 27.3531 55.5389 28.7019C53.8617 31.4598 50.8107 33.1293 47.5371 33.0829C45.578 33.0617 43.6774 32.4129 42.1146 31.2321C40.4766 32.4745 38.4689 33.1324 36.4127 33.1001C34.4498 33.0724 32.5461 32.4245 30.9743 31.2492C29.3721 32.4576 27.4194 33.1113 25.4121 33.1113C23.4047 33.1113 21.4521 32.4576 19.8498 31.2492C18.226 32.4929 16.2291 33.1512 14.1836 33.1174C10.2158 33.0617 6.73688 30.5052 5.57105 26.7863C4.40521 23.066 5.81746 19.0347 9.06855 16.8025C10.6612 15.7145 12.5532 15.149 14.4822 15.1843C16.411 15.2197 18.2809 15.8541 19.8326 16.9998C21.4395 15.8027 23.39 15.1561 25.3942 15.1561C27.3983 15.1561 29.349 15.8027 30.9558 16.9998C32.5794 15.7529 34.5757 15.0884 36.6233 15.1132C38.6003 15.1414 40.5171 15.7965 42.0975 16.9839ZM42.096 29.8776C43.5838 31.2503 45.5296 32.0201 47.5544 32.037L47.5557 32.0383C48.6272 32.0789 49.6962 31.9063 50.7005 31.5306C51.7049 31.1549 52.6244 30.5836 53.406 29.8498C54.1783 29.1252 54.7944 28.2506 55.2168 27.2797C55.6392 26.3087 55.8588 25.262 55.8622 24.2033C55.8989 23.1549 55.7191 22.1102 55.3338 21.1345C54.9486 20.1586 54.3664 19.2725 53.6233 18.5316C52.871 17.7814 51.9759 17.1897 50.9908 16.7914C50.0753 16.421 49.0993 16.2247 48.113 16.2118C51.0371 16.505 53.5846 18.3151 54.724 20.9607C54.5303 21.1191 54.3816 21.3268 54.2961 21.5619C54.5077 22.2858 54.6038 23.0388 54.581 23.7927C54.5121 27.6373 51.2359 30.7049 47.2481 30.6558C46.8362 30.6533 46.4255 30.6122 46.02 30.5368L45.6293 31.0001C44.3052 30.7039 43.08 30.0715 42.0721 29.1638C42.177 29.0595 42.2788 28.9521 42.3774 28.8422C40.8018 27.385 39.9343 25.4454 39.9632 23.4381C39.9797 21.6033 40.7584 19.8401 42.1475 18.4748C42.1215 18.4502 42.0953 18.4258 42.069 18.4015H40.9421C40.0281 19.5511 39.4223 20.9146 39.1822 22.3631C38.9421 23.8117 39.0754 25.2974 39.5695 26.6801C39.8239 26.7066 40.0796 26.7066 40.334 26.6801C40.7419 27.6308 41.3319 28.4926 42.0707 29.2168H41.0971C39.807 30.1313 38.267 30.6281 36.6854 30.64C36.2841 30.6255 35.8839 30.5857 35.4878 30.5196L35.1222 31.0001C33.8241 30.6925 32.6275 30.055 31.6485 29.1492C32.9855 27.688 33.7286 25.7806 33.7324 23.8006C33.7496 22.7727 33.5636 21.7514 33.1851 20.7954C32.8065 19.8394 32.243 18.9674 31.5266 18.2295C32.9711 16.8829 34.88 16.1459 36.8551 16.172C36.778 16.1671 36.7008 16.1632 36.6233 16.1604C36.5849 15.9513 36.5332 15.7447 36.4657 15.5435C34.5567 15.5954 32.7158 16.2633 31.218 17.4473V18.5276C30.1692 17.5582 28.9017 16.8747 27.5368 16.5263C28.6216 16.867 29.6267 17.4475 30.4723 18.2363H29.3727C28.1508 19.7528 27.4744 21.6356 27.4518 23.5824C27.4469 24.6289 27.6245 25.6682 27.9763 26.6539C28.2008 26.6969 28.4287 26.72 28.6573 26.7227C29.0776 27.6528 29.6696 28.4954 30.4021 29.2065H29.3727C28.1223 30.1772 26.5729 30.6831 24.9902 30.6376C24.5928 30.6389 24.1954 30.6046 23.8032 30.5343L23.4189 31.0003C22.1155 30.7053 20.9121 30.0746 19.9281 29.1707C20.0235 29.0717 20.1163 28.9706 20.2062 28.8674C19.9593 28.6451 19.7343 28.4063 19.5321 28.151C18.4073 26.8085 17.8044 25.1788 17.8178 23.5066C17.8464 21.6744 18.6071 19.9131 19.9588 18.5295C19.8822 18.4549 19.8042 18.382 19.725 18.3107H18.8059C17.611 19.8226 16.9583 21.6917 16.9525 23.6183C16.9394 24.6513 17.1121 25.6783 17.4625 26.6501C17.7133 26.7086 17.9711 26.7318 18.2282 26.719C18.6269 27.655 19.2042 28.5046 19.9279 29.2199H18.8906C17.6855 30.1551 16.1996 30.6556 14.6738 30.6405C14.2803 30.6445 13.8855 30.6047 13.5014 30.5213C13.4227 30.634 13.3371 30.7398 13.2536 30.8427C13.2106 30.8958 13.1683 30.9484 13.1277 31.0006C11.6155 30.6624 10.2456 29.8634 9.20719 28.714C8.16874 27.5645 7.51296 26.1213 7.33036 24.5835C7.141 23.0447 7.43251 21.4851 8.16492 20.1184C8.89732 18.7518 10.0348 17.645 11.4214 16.9497C12.3454 16.4896 13.3503 16.2303 14.3704 16.1817C14.2628 15.9436 14.135 15.7132 13.9916 15.4918C9.27256 15.6653 5.52732 19.4371 5.47433 24.0642C5.45906 25.1052 5.63694 26.1398 5.99896 27.1159C6.26651 27.139 6.53556 27.139 6.80312 27.1159C7.27459 28.2356 7.99384 29.2341 8.90684 30.0362C9.81986 30.8384 10.9029 31.4232 12.0746 31.747C13.2527 32.0776 14.4899 32.1414 15.6958 31.9336C16.9018 31.7259 18.0462 31.2519 19.0457 30.5462C19.3233 30.3407 19.5916 30.1229 19.8498 29.8935C22.9804 32.7797 27.861 32.7797 30.9916 29.8935C32.4687 31.2712 34.4108 32.0426 36.4312 32.0542C38.5282 32.0775 40.5548 31.2988 42.096 29.8776ZM20.2222 28.8488C21.4458 27.4346 22.1412 25.6341 22.1802 23.7558C22.1891 22.8317 22.0354 21.9224 21.7345 21.0664C21.667 21.1558 21.61 21.2512 21.5642 21.3513H21.5629C21.8466 22.0825 21.9808 22.8631 21.9577 23.647C21.9577 25.2026 21.3457 26.7093 20.2222 27.9074V28.8488ZM20.1212 18.368C20.0808 18.3237 20.0398 18.2797 19.9983 18.2363C21.4194 16.9106 23.2912 16.1733 25.2353 16.1733C25.3575 16.1733 25.4794 16.1761 25.6008 16.1819C25.495 15.9642 25.3666 15.7563 25.2194 15.5619C23.3164 15.6117 21.4787 16.266 19.973 17.4301V18.515C20.0217 18.4655 20.0711 18.4164 20.1212 18.368ZM42.2193 18.4052C42.223 18.4015 42.2268 18.3979 42.2305 18.3944C42.2268 18.3904 42.223 18.3866 42.2193 18.3826V18.4052ZM43.8825 21.0681C43.8111 21.1576 43.75 21.2534 43.7006 21.3542C43.9736 22.081 44.1028 22.8539 44.0807 23.6301C44.1139 25.1856 43.527 26.7015 42.4208 27.9196V28.7934C42.9785 28.1601 43.4294 27.4387 43.7543 26.6575C44.1444 25.7195 44.3451 24.7138 44.3451 23.698C44.3451 22.8002 44.1883 21.9104 43.8825 21.0681ZM47.517 16.1734C47.6365 16.1769 47.7554 16.1828 47.8738 16.1912C47.7232 15.9739 47.5876 15.7464 47.4669 15.5104C45.5582 15.5616 43.7174 16.2286 42.2193 17.4115V18.1007C43.6832 16.8258 45.5709 16.1374 47.517 16.1734ZM38.3762 37.3723L40.5197 39.8042H39.9884C37.0739 39.8042 34.6892 40.9402 34.6892 43.3895C34.6892 45.3489 37.0739 46.8873 39.9884 46.8873C42.9031 46.8873 45.2348 45.2787 45.2348 43.302C45.2348 41.6576 43.5731 39.6978 42.3028 38.1997C42.0466 37.8974 41.8057 37.6133 41.5981 37.3549L38.3762 37.3723ZM42.5096 43.302C42.5096 44.3163 41.3768 45.0497 39.9884 45.0497C38.5987 45.0497 37.4502 44.2288 37.4502 43.302C37.4502 42.3754 38.5987 41.4486 39.9884 41.4486C41.3768 41.4486 42.5096 42.2165 42.5096 43.302ZM29.452 44.9704C30.2549 44.9704 30.9279 44.3215 31.0115 43.4676V39.4734H33.6359V43.7417C33.6359 47.9545 25.1995 47.9174 25.1995 43.7417V39.4734H27.8928V43.4676C27.9763 44.3215 28.6493 44.9704 29.452 44.9704ZM49.453 39.4734H46.2893V46.8873H49.453V39.4734ZM14.6579 30.2645C13.2699 30.2633 11.918 29.8227 10.7962 29.0059C9.67447 28.189 8.8405 27.038 8.41406 25.7181C7.98144 24.3958 7.9753 22.9711 8.39652 21.645C8.81773 20.319 9.64503 19.1587 10.7616 18.3279C11.8738 17.5027 13.2199 17.0529 14.6051 17.0436C15.9902 17.0343 17.3423 17.4661 18.4654 18.2763C17.2751 19.8394 16.6306 21.7494 16.6306 23.7137C16.6306 25.6779 17.2751 27.5879 18.4654 29.1511C17.333 29.8873 16.0088 30.2753 14.6579 30.2645ZM20.2023 27.3514C18.3887 25.0649 18.3887 22.0212 20.2023 19.7335C21.9882 22.0292 21.9882 25.0557 20.2023 27.3514ZM32.5814 20.7966C32.3679 20.9395 32.2011 21.1422 32.1018 21.3791H32.1005C32.3655 22.1201 32.4807 22.9062 32.4397 23.692C32.3615 25.241 31.7786 26.7358 30.7612 27.9988V28.8819C27.563 25.9162 27.563 21.256 30.7612 18.2903C31.5469 18.9801 32.1687 19.8363 32.5814 20.7966ZM30.7524 27.4034L30.7624 27.4162H30.7426L30.7524 27.4034ZM30.7426 19.756C32.5132 22.0646 32.5165 25.0921 30.7524 27.4034C29.8501 26.2595 29.3848 24.8915 29.423 23.4974C29.4452 22.1403 29.9084 20.8272 30.7426 19.756ZM36.6854 30.2813C35.3499 30.2699 34.0487 29.8575 32.9508 29.0976C34.1168 27.5752 34.7624 25.7187 34.7923 23.8019C34.8254 21.7977 34.1692 19.8428 32.9336 18.2639C34.057 17.4879 35.3901 17.0724 36.7556 17.0724C38.1212 17.0724 39.4543 17.4879 40.5777 18.2639C39.4042 19.7822 38.7577 21.6413 38.7363 23.5597C38.7043 25.5584 39.3606 27.5074 40.595 29.0804C39.4359 29.85 38.0782 30.2667 36.6868 30.2798L36.6854 30.2813ZM47.321 30.2984C45.9625 30.286 44.6377 29.874 43.5122 29.1135C44.7396 27.5721 45.4079 25.6606 45.4079 23.6907C45.4079 21.7209 44.7396 19.8092 43.5122 18.2679C44.7069 17.4644 46.1192 17.0457 47.5592 17.0679C48.9991 17.0901 50.3977 17.5523 51.5671 18.3924C53.9397 20.1134 54.8949 23.1095 53.9318 25.8183C52.9687 28.5258 50.3072 30.3275 47.3383 30.2798L47.321 30.2984ZM41.0019 23.454C40.9847 24.8441 41.4523 26.2077 42.3399 27.3595V27.341C43.1862 26.2921 43.6639 24.9942 43.6993 23.6473C43.7151 22.2545 43.2409 20.8921 42.3399 19.7444C41.4996 20.8012 41.0295 22.1044 41.0019 23.454ZM21.3417 29.1204C22.438 29.8701 23.732 30.2783 25.0604 30.2934C26.4668 30.2938 27.8408 29.8732 29.0058 29.086C27.7948 27.5267 27.1375 25.609 27.1375 23.6354C27.1375 21.6616 27.7948 19.744 29.0058 18.1847C27.9027 17.42 26.5949 17.0049 25.2526 16.9932C23.8593 16.973 22.4936 17.3825 21.3417 18.1662C22.5601 19.7323 23.2216 21.6595 23.2216 23.6433C23.2216 25.627 22.5601 27.5543 21.3417 29.1204Z" fill="#333333"/>
</g>
</svg>
