<svg width="62" height="62" viewBox="0 0 62 62" fill="none" xmlns="http://www.w3.org/2000/svg">
<g id="7b59261984575a73a507ed02fa57faed_1650383116">
<path id="Vector" fill-rule="evenodd" clip-rule="evenodd" d="M5.09869 35.9833C2.1914 35.3855 0 33.3803 0 30.9996C0 30.4251 0.12319 29.8736 0.353143 29.3582C3.8134 29.9616 5.18081 33.4322 5.09869 35.9847V35.9833ZM6.85756 36.1666L7.03961 36.1651C6.89315 32.2528 7.40507 27.5767 7.69662 25.8717C7.13831 25.8204 6.57682 25.8204 6.0185 25.8717C6.31142 27.5767 6.82198 32.2528 6.67551 36.1651L6.85756 36.1666ZM7.36811 36.1565C7.50224 36.1492 7.53511 36.1406 7.66651 36.1275C7.51868 31.2191 9.33641 28.1152 10.3657 26.5589C9.92576 26.3622 9.47056 26.2056 9.00516 26.0912C8.09766 27.7701 7.4037 31.8457 7.36811 36.1565ZM7.98132 36.0915C8.08095 36.0932 8.18036 36.081 8.27697 36.0553C8.27424 30.7673 11.343 29.0001 12.6352 28.2162C12.3271 27.8574 11.9792 27.5389 11.599 27.2677C8.24276 30.2692 7.91014 33.1854 7.98132 36.0915ZM8.61644 35.9833C11.5237 35.3855 13.7165 33.3803 13.7165 30.9996C13.7165 30.4251 13.5919 29.8736 13.362 29.3582C9.90308 29.9616 8.53568 33.4322 8.61644 35.9847V35.9833ZM6.347 36.1565C6.21286 36.1492 6.18002 36.1406 6.04862 36.1275C6.19643 31.2191 4.37871 28.1152 3.3494 26.5589C3.78936 26.3622 4.24456 26.2056 4.70995 26.0912C5.61744 27.7701 6.31142 31.8457 6.347 36.1565ZM5.7338 36.0915C5.63416 36.0933 5.53475 36.0812 5.43814 36.0553C5.44224 30.7673 2.37208 29.0001 1.07996 28.2162C1.37424 27.8698 1.72329 27.5507 2.11612 27.2677C5.47237 30.2692 5.80634 33.1854 5.7338 36.0915ZM22.2439 33.6921L24.9062 27.9231H27.8956L30.5948 33.6921H25.8548L25.2717 32.4996H28.0421L26.4378 29.0781L24.2505 33.6921H22.2439ZM15.682 33.8452L20.2948 33.848C20.6594 33.8567 21.0219 33.7883 21.3611 33.6472C21.7003 33.5058 22.0092 33.2947 22.27 33.0257C22.5307 32.7568 22.7379 32.4357 22.8793 32.0813C23.0207 31.7267 23.0936 31.3459 23.0936 30.9614C23.0936 30.5767 23.0207 30.1961 22.8793 29.8415C22.7379 29.4871 22.5307 29.1658 22.27 28.8971C22.0092 28.6281 21.7003 28.4168 21.3611 28.2756C21.0219 28.1345 20.6594 28.0661 20.2948 28.0748L15.682 28.0776V33.8452ZM17.6504 32.6469V29.2658H19.4188C19.8452 29.2658 20.2541 29.4445 20.5556 29.7625C20.8571 30.0803 21.0264 30.5116 21.0264 30.9614C21.0264 31.411 20.8571 31.8423 20.5556 32.1603C20.2541 32.4783 19.8452 32.657 19.4188 32.657H17.6504V32.6469ZM45.1065 27.9231L43.6475 31.5757L42.5538 29.1156L43.0644 27.8841H40.3665L40.9141 29.0766L39.782 31.5771L38.3243 27.9231H30.8139V33.6921H36.7571V32.4996H32.8916V31.4601H36.2821V30.1926H32.9286V29.1922H37.0841L38.8349 33.6921H40.4391L41.7148 30.9232L42.9918 33.7296H44.5961L46.8928 27.9231H45.1065ZM57.9772 27.3746C56.0377 27.3746 54.4183 28.5079 54.0392 30.0165C53.6601 28.5079 52.0407 27.3746 50.1013 27.3746C47.8798 27.3746 46.0798 28.8601 46.0798 30.6921C46.0798 32.5256 47.8798 34.0097 50.1013 34.0097C52.0422 34.0097 53.6601 32.8764 54.0392 31.3678C54.4183 32.8764 56.0377 34.0097 57.9772 34.0097C60.1986 34.0097 62 32.5242 62 30.6921C62 28.8601 60.1986 27.3746 57.9772 27.3746ZM57.9772 32.8678C56.9519 32.8678 56.1211 31.8933 56.1211 30.6921C56.1211 29.491 56.9519 28.5165 57.9772 28.5165C59.0037 28.5165 59.8332 29.491 59.8332 30.6921C59.8332 31.8933 59.0024 32.8678 57.9772 32.8678ZM50.1013 32.8678C49.076 32.8678 48.2452 31.8933 48.2452 30.6921C48.2452 29.491 49.076 28.5165 50.1013 28.5165C51.1278 28.5165 51.9587 29.491 51.9587 30.6921C51.9587 31.8933 51.1265 32.8678 50.1013 32.8678Z" fill="#333333"/>
</g>
</svg>
