<svg width="62" height="62" viewBox="0 0 62 62" fill="none" xmlns="http://www.w3.org/2000/svg">
<g id="8b447ab6ab7cffa2e9bff1a64ce6a897_1650384598">
<path id="Vector" fill-rule="evenodd" clip-rule="evenodd" d="M30.9658 50.3457H30.9982H31.0019H31.0344C36.5056 50.0822 41.6628 47.8663 45.5575 44.1043C49.5229 40.2734 51.6913 35.2714 51.6667 30.0204C51.6437 25.3134 50.2758 21.2952 47.6027 18.076C45.1958 15.178 41.8043 12.9918 37.3934 11.625L37.3063 11.6335L37.1698 11.6552C36.8443 11.7137 36.4794 11.8294 36.185 11.9752C35.9267 12.1014 35.6902 12.269 35.4847 12.4727C35.4112 12.5502 35.344 12.6337 35.2842 12.7224L35.2793 12.7303C35.2523 12.7703 35.2287 12.8124 35.2085 12.8564L35.2068 12.861C39.3777 14.3455 42.1693 16.2228 44.3853 18.7975C46.7758 21.5751 48.0811 24.9329 48.16 28.5063C48.2603 32.9636 46.488 37.1928 43.1737 40.416C39.989 43.5116 35.666 45.4446 31.0009 45.8577C26.3359 45.4446 22.0128 43.5116 18.8266 40.416C15.5106 37.1928 13.74 32.9636 13.8402 28.5063C13.9208 24.9329 15.2262 21.5751 17.6148 18.7975C19.831 16.2215 22.6225 14.3455 26.7933 12.861L26.7917 12.8564C26.7715 12.8131 26.7478 12.7717 26.721 12.7322L26.7161 12.7237C26.6566 12.635 26.5901 12.5515 26.5171 12.474C26.312 12.2703 26.0754 12.1027 25.8168 11.9766C25.5036 11.8248 25.1719 11.717 24.8304 11.6552L24.6956 11.6335L24.6084 11.625C20.1975 12.9905 16.8043 15.178 14.3976 18.076C11.7244 21.2952 10.3566 25.3134 10.3336 30.0204C10.3073 35.2714 12.4773 40.2753 16.4427 44.1043C20.3373 47.8644 25.4945 50.0808 30.9658 50.3457ZM31.0457 48.1358V46.2532H31.1018C35.8299 45.8194 40.2145 43.8494 43.4466 40.707C46.8431 37.4056 48.6581 33.0687 48.5545 28.4978C48.4724 24.8291 47.1325 21.3819 44.6829 18.5326C42.4044 15.8844 39.524 13.9952 35.6178 12.585L35.5965 12.5778L35.6129 12.5614C35.7593 12.4155 35.9482 12.2782 36.1605 12.1625L36.1654 12.1592L36.1703 12.1612L36.4349 12.2414L36.4498 12.2447C37.0679 12.4392 37.6827 12.66 38.2713 12.8998L38.2615 12.9162V12.9267L38.2549 12.9248V12.9267C37.7918 12.7993 37.3155 12.7289 36.836 12.7171H36.7883H36.5747C36.9264 12.8545 37.3244 13.0568 37.5693 13.183L37.6235 13.2113L37.6403 13.2198C37.935 13.3709 38.306 13.5611 39.095 13.8815C39.8116 14.1726 40.3641 14.3119 40.9475 14.459L41.6564 14.6365C42.6756 15.2799 43.6241 16.0087 44.4807 16.8024L44.8588 17.1744C44.8637 17.1678 44.9032 17.2066 44.9032 17.2066L44.9295 17.2329L44.9131 17.2532C44.4018 16.9318 44.0976 16.836 43.7475 16.7255L43.7228 16.7177C43.5298 16.6564 43.327 16.5921 43.0684 16.4824L42.9205 16.4088C43.4121 17.018 43.9667 17.572 44.5744 18.0609C45.1645 18.526 45.5591 18.7075 45.9389 18.8816C46.2003 19.0018 46.4305 19.1378 46.7873 19.3856C47.7037 20.6439 48.4369 22.0304 48.9639 23.503L48.9376 23.5143L48.7766 23.2717C48.3477 22.6684 47.9158 22.3027 47.5672 22.0077L47.5583 22.0002C47.425 21.8912 47.2955 21.7775 47.1702 21.6585L46.9994 21.4844C47.3445 22.5042 47.7129 23.3204 48.1205 23.9683C48.52 24.603 48.7879 24.9165 49.023 25.1912L49.0323 25.2021C49.2503 25.459 49.4406 25.6832 49.6691 26.1342C49.9866 27.8946 50.0408 29.6937 49.8303 31.4712H49.8007C49.7869 31.3241 49.7683 31.1775 49.7448 31.0323C49.6208 30.3004 49.163 29.1847 48.9135 28.5763L48.9081 28.5629L48.8439 28.4137L48.8274 28.5214C48.7075 29.2751 48.6449 30.042 48.6449 30.6801C48.6449 30.8897 48.6515 31.0842 48.6647 31.2583C48.7189 31.9365 48.8736 32.5226 49.0395 33.1409L49.2417 33.9348L49.2959 34.1845C48.8455 35.7931 48.1659 37.3262 47.2787 38.7337L47.2525 38.7225C47.3265 38.4998 47.3857 38.2685 47.4317 38.0188C47.4916 37.6331 47.518 37.2434 47.5106 36.8531C47.5106 36.4418 47.4929 36.0259 47.4784 35.6864L47.4761 35.6315L47.458 35.228L47.3938 35.3607C47.1194 35.8561 46.4667 37.0889 46.2957 37.8611C46.1493 38.5247 46.0803 39.0892 46.008 39.6872L45.8781 40.6735C45.2679 41.4154 44.6041 42.11 43.8921 42.7507C43.4285 43.1693 42.9303 43.578 42.4125 43.965L42.3929 43.9433C42.6229 43.6805 42.845 43.3788 43.0915 42.9905C43.4696 42.3972 43.7277 41.4758 43.9151 40.803L44.0466 40.3502L43.9415 40.4507C43.5157 40.8345 42.4833 41.7978 42.0804 42.4608C41.7483 43.0069 41.5166 43.5162 41.2716 44.0571L41.2677 44.0657C41.1225 44.385 40.9724 44.7153 40.7997 45.0539C39.2311 46.0165 37.549 46.7723 35.7938 47.3038L35.7823 47.2749C36.2147 47.0305 36.647 46.7138 37.2274 46.2151C37.8784 45.6551 38.6708 44.6366 38.9995 44.109L38.8285 44.1931C37.4542 44.8344 36.6026 45.2969 36.2261 45.6066C35.5545 46.1576 35.2349 46.5679 34.9294 46.9604L34.9126 46.9818L34.8995 46.9988C34.7327 47.2151 34.5597 47.439 34.329 47.6824C33.2488 47.9268 32.1655 48.0773 31.1018 48.1358H31.0457ZM31.0457 50.1905V48.3052L31.1067 48.3086C31.2909 48.3756 31.4733 48.4557 31.6739 48.5464C32.1802 48.7758 32.7556 49.034 33.6287 49.1563C34.94 49.3349 36.2744 49.1938 37.5216 48.7443L37.3622 48.7087H37.3655L37.2964 48.6956L37.0646 48.6404C36.815 48.5747 36.5676 48.4998 36.3231 48.4157L36.3059 48.4101C35.732 48.2228 35.1876 48.0453 34.2452 48.0036C34.0496 47.9951 33.8539 47.9919 33.6582 47.9951L33.655 47.9668C34.7048 47.7684 35.7383 47.4904 36.7473 47.1343C36.9864 47.1249 37.2163 47.1612 37.4588 47.1994L37.492 47.2046L37.6335 47.2282L37.6383 47.229C38.1388 47.3078 38.7593 47.4053 39.6868 47.2953C40.711 47.1731 41.5824 46.8143 42.6789 46.0691L42.5555 46.0842C42.0707 46.1484 41.7747 46.1199 41.4655 46.09L41.4524 46.0889C40.9518 46.0316 40.446 46.0369 39.9465 46.1059C39.5172 46.1611 39.0932 46.2532 38.6791 46.3806L38.6691 46.3537C40.0902 45.6958 41.4373 44.883 42.687 43.9302C42.808 43.8884 42.9856 43.8681 43.1733 43.8465L43.1771 43.8461L43.2839 43.8343C43.81 43.7725 44.4642 43.6957 45.2073 43.352C46.4058 42.7973 47.0289 42.2328 47.7474 41.0488L47.4251 41.2065C47.1365 41.3353 46.8387 41.4411 46.5341 41.5232L46.5265 41.5254C46.057 41.6653 45.5717 41.81 44.8424 42.2328L44.4035 42.4997L44.387 42.4759C45.5274 41.393 46.5309 40.1689 47.3742 38.8329C47.4885 38.7541 47.6077 38.6831 47.7308 38.6201L47.8559 38.5497C48.3688 38.2619 49.0742 37.8661 49.6199 37.1395C50.4156 36.079 50.7279 35.2819 50.8808 33.9197C50.8494 33.9814 50.8143 34.0406 50.7755 34.0978L50.6902 34.2081C50.6862 34.2121 50.6823 34.2166 50.6785 34.2213L50.6572 34.2483C50.4345 34.5217 50.2279 34.7099 50.0118 34.9065L50.0045 34.9132L49.9909 34.9258C49.6514 35.2367 49.2979 35.5605 48.8324 36.2446L48.594 36.6034L48.5694 36.5902C49.3814 34.764 49.8714 32.8157 50.0309 30.7977C50.0309 30.7967 50.038 30.7821 50.0495 30.7588L50.0489 30.7675L50.0554 30.747C50.1097 30.6386 50.2347 30.3942 50.2347 30.3942L50.237 30.3898C50.5145 29.8557 50.8598 29.1908 51.0091 28.3822C51.0846 27.9701 51.1208 27.6113 51.1208 27.265C51.1208 26.6284 50.9991 26.0388 50.787 25.2483L50.7115 24.9599C50.6411 25.22 50.5637 25.4784 50.4796 25.734C50.2621 26.3464 50.1137 26.9819 50.0375 27.6285H50.0095C49.8519 25.9002 49.4314 24.2069 48.7634 22.61C48.7567 22.5095 48.7533 22.409 48.7534 22.3084C48.7534 22.1894 48.7568 22.0706 48.7617 21.9483L48.7643 21.8485C48.7671 21.7475 48.77 21.6459 48.77 21.5415C48.77 21.1663 48.7386 20.7655 48.5891 20.3002C48.2299 19.1893 47.7431 18.6961 47.1272 18.0721L47.1226 18.0673L46.9779 17.9215L46.9713 17.9149L46.95 17.8945L46.8679 17.8091L46.7461 17.662C46.8924 18.4308 47.047 19.1444 47.4136 20.002L47.3874 20.0171C47.0114 19.4401 46.6013 18.8868 46.1593 18.3604C45.7202 17.8393 45.2532 17.3432 44.7601 16.8747L44.6007 16.5448L44.5992 16.5415C44.3481 16.0061 44.0635 15.3996 43.4747 14.8659C43.0241 14.4579 42.5638 14.2081 41.9802 13.8947L41.4392 13.5983L41.3686 13.5595L41.2633 13.4925C41.5626 14.032 41.87 14.4355 42.314 14.8659L42.2959 14.8896C40.5024 13.6825 38.5464 12.7467 36.4892 12.1126L36.3479 12.0672L36.3839 12.0521C36.6913 11.9181 37.0613 11.8175 37.377 11.7827C46.4535 14.5952 51.4743 21.0724 51.5186 30.0223C51.545 35.2195 49.3995 40.1728 45.4819 43.9703C41.63 47.702 36.5254 49.9113 31.105 50.1899L31.0457 50.1905ZM50.0554 30.747L50.0884 30.6432C50.0778 30.6761 50.0658 30.7055 50.0536 30.7352L50.0505 30.7426L50.0495 30.7588L50.0554 30.747ZM30.9224 50.1884V48.3069L30.8934 48.3086C30.7092 48.3756 30.5284 48.4557 30.3263 48.5464L30.319 48.5497C29.8128 48.7769 29.2387 49.0346 28.3699 49.1563C27.0591 49.3349 25.7252 49.1938 24.4785 48.7443L24.6363 48.7087H24.6331L24.7022 48.6956L24.9339 48.6417C25.1835 48.576 25.4308 48.501 25.6754 48.4176L25.6902 48.4128C26.2635 48.2253 26.8096 48.0466 27.7534 48.0057C27.949 47.9964 28.1446 47.9938 28.3403 47.997L28.3419 47.9689C27.3079 47.7744 26.2689 47.4945 25.2513 47.1363C24.9997 47.1258 24.7597 47.1646 24.5065 47.2065L24.3651 47.2295L24.3564 47.231C23.8564 47.3096 23.237 47.407 22.3117 47.2966C21.2892 47.1744 20.4179 46.8162 19.3213 46.0704L19.4429 46.0855C19.8089 46.1361 20.1797 46.1381 20.5462 46.0908C21.0473 46.0329 21.5537 46.0389 22.0537 46.1072C22.4831 46.1617 22.9072 46.2538 23.3212 46.3826L23.3294 46.3556C21.9083 45.6985 20.5617 44.8857 19.3131 43.9315C19.1987 43.8907 19.0332 43.872 18.8554 43.8518L18.8215 43.8481L18.7164 43.8362C18.1903 43.7745 17.5342 43.697 16.7911 43.3539C15.5927 42.7992 14.9696 42.2348 14.2512 41.0507L14.5735 41.2078C14.8928 41.355 15.1697 41.4371 15.461 41.5235L15.4645 41.5245C16.0566 41.6841 16.6254 41.9234 17.1562 42.2348L17.5951 42.501L17.6116 42.478C16.4707 41.3951 15.4672 40.1708 14.6244 38.8342C14.5323 38.7659 14.4041 38.6956 14.2693 38.622L14.1444 38.5517C13.6298 38.2632 12.9261 37.8683 12.3804 37.1408C11.583 36.0809 11.2707 35.2851 11.121 33.9269C11.1525 33.988 11.1876 34.0472 11.2263 34.1043L11.3117 34.2147L11.3233 34.2279L11.3446 34.2547C11.5642 34.5246 11.7695 34.7119 11.9854 34.909L11.9973 34.9198L12.0051 34.9269C12.3463 35.2395 12.6996 35.5631 13.1694 36.2518L13.4062 36.61L13.4309 36.5968C12.6204 34.7706 12.1272 32.8229 11.9694 30.8043L11.7655 30.4008L11.7585 30.3874C11.4819 29.8535 11.1395 29.1928 10.9912 28.3888C10.9139 27.9754 10.8794 27.6166 10.8794 27.2716C10.8794 26.6348 10.9994 26.0454 11.2131 25.2549L11.2904 24.9665C11.3597 25.2266 11.4364 25.485 11.5205 25.7406C11.6833 26.2367 11.8674 26.7979 11.9628 27.635H11.9907C12.1535 25.8832 12.5743 24.1943 13.2369 22.6166C13.2451 22.5148 13.2467 22.4122 13.2467 22.3084C13.2467 22.1946 13.2437 22.0807 13.2406 21.9621L13.2402 21.9463C13.2352 21.8129 13.232 21.6789 13.232 21.5396C13.2247 21.119 13.2863 20.6997 13.4145 20.3002C13.7728 19.1864 14.261 18.6924 14.8792 18.0673L15.0256 17.9196L15.0305 17.913L15.0518 17.8945L15.1341 17.8091L15.2557 17.662C15.1094 18.4308 14.9549 19.1424 14.5882 20.002L14.6146 20.0171C14.9899 19.4395 15.4 18.8861 15.8427 18.3604C16.275 17.8459 16.7452 17.3472 17.24 16.8747L17.3994 16.5448L17.4012 16.5411C17.6523 16.0058 17.9369 15.3995 18.5239 14.8659C18.9704 14.4615 19.4282 14.2139 20.0029 13.903L20.0184 13.8947L20.5609 13.5983L20.6315 13.5595L20.7368 13.4925C20.4377 14.032 20.1302 14.4355 19.6863 14.8659L19.7044 14.8896C21.4322 13.714 23.3869 12.7776 25.5094 12.1126L25.6524 12.0653L25.6179 12.0502C25.3103 11.9181 24.9389 11.8162 24.6248 11.7807C15.5468 14.5933 10.5259 21.0704 10.4832 30.0204C10.4569 35.2182 12.6023 40.1715 16.5199 43.9683C20.3719 47.7007 25.4764 49.9079 30.8967 50.188L30.9224 50.1884ZM30.9224 48.1358V46.2532H30.8983C26.1702 45.8194 21.7856 43.8494 18.5536 40.707C15.1571 37.4056 13.3421 33.0687 13.4441 28.4958C13.5262 24.8278 14.866 21.3806 17.3172 18.5313C19.5959 15.8831 22.4762 13.9933 26.3823 12.5831L26.4053 12.5765L26.3889 12.5594C26.2425 12.4142 26.0534 12.2769 25.8415 12.1612L25.8349 12.1579L25.8298 12.1592L25.5652 12.2401L25.5488 12.2433C24.9307 12.4372 24.3174 12.6567 23.7273 12.8978L23.7388 12.9149V12.9248L23.7454 12.9235V12.9248C24.3174 12.7809 24.7284 12.7204 25.1641 12.7138H25.2118H25.4256C25.0877 12.8451 24.7109 13.0376 24.4657 13.1627L24.4325 13.1798L24.3766 13.2079L24.3542 13.2194C24.0588 13.3699 23.6876 13.5591 22.9053 13.8783C22.1901 14.1693 21.6377 14.3087 21.0525 14.4558L20.3422 14.6352C19.3381 15.268 18.3927 15.9929 17.5178 16.8011L17.1398 17.1731C17.1347 17.1659 17.097 17.2046 17.097 17.2046L17.069 17.2315L17.0871 17.2532C17.5871 16.939 17.8889 16.8422 18.2294 16.733L18.2527 16.7255C18.4834 16.6578 18.71 16.577 18.9317 16.4824L19.0813 16.4088C18.588 17.0167 18.0337 17.5699 17.4274 18.0609C16.8356 18.526 16.4427 18.7075 16.0629 18.8816C15.8015 19.0018 15.5713 19.1391 15.2147 19.3856C14.2976 20.6433 13.5643 22.0304 13.038 23.503L13.0626 23.5143L13.2237 23.2731C13.6501 22.6737 14.0814 22.3088 14.4291 22.0145L14.4435 22.0022L14.4711 21.9787C14.5993 21.8696 14.7225 21.7647 14.8299 21.6605C14.8867 21.6013 14.9443 21.5436 15.0026 21.4857C14.6573 22.5063 14.2907 23.3204 13.8813 23.9702C13.4876 24.5972 13.2215 24.9095 12.9889 25.1826L12.9788 25.1945C12.7218 25.4771 12.5049 25.7945 12.3343 26.1374C12.0135 27.8965 11.9586 29.695 12.1716 31.4712H12.1946C12.2081 31.3241 12.2273 31.1775 12.2521 31.0323C12.3761 30.3006 12.8338 29.1848 13.0833 28.5764L13.089 28.5629L13.153 28.4137L13.1694 28.5214C13.2879 29.2751 13.352 30.042 13.352 30.6801C13.352 30.8878 13.3437 31.0842 13.3305 31.2583C13.2765 31.9347 13.121 32.5194 12.9571 33.1359L12.9558 33.1409L12.7552 33.9348L12.7009 34.1845C13.1514 35.7931 13.831 37.3262 14.7182 38.7337L14.7444 38.7225C14.6705 38.4998 14.6129 38.2685 14.5669 38.0188C14.5061 37.6935 14.488 37.2749 14.488 36.8531C14.488 36.4193 14.5077 35.9804 14.5241 35.6315L14.5422 35.228L14.6047 35.3607C14.8775 35.8561 15.5319 37.0889 15.7029 37.8611C15.8473 38.5161 15.9149 39.0746 15.9861 39.6639L15.9889 39.6872L16.1188 40.6735C16.7239 41.4089 17.3897 42.106 18.1048 42.7507C18.5802 43.1778 19.0746 43.5833 19.5859 43.965L19.6057 43.9433C19.3755 43.6805 19.1536 43.3769 18.907 42.9905C18.529 42.3959 18.2709 41.4745 18.0835 40.803L17.9518 40.3502L18.0571 40.4507C18.4828 40.8345 19.5153 41.7978 19.918 42.4608C20.2201 42.9754 20.4904 43.5084 20.727 44.0571C20.8764 44.3934 21.0338 44.7253 21.1988 45.0539C22.7678 46.0165 24.4505 46.7729 26.2064 47.3038L26.2195 47.2749C25.7872 47.0305 25.3548 46.7125 24.7744 46.2151C24.1234 45.6551 23.331 44.6366 23.0023 44.109L23.1731 44.1931C24.5476 44.8344 25.3992 45.2969 25.7756 45.6066C26.458 46.1696 26.7786 46.5829 27.0875 46.9818L27.1184 47.0214C27.2799 47.2289 27.4486 47.4458 27.6712 47.6824C28.7329 47.9235 29.8123 48.0753 30.8983 48.1358H30.9224ZM11.9118 30.6432L11.9513 30.7675C11.9517 30.759 11.9511 30.7504 11.9496 30.7426L11.9118 30.6432ZM28.3485 49.0071C29.2002 48.8882 29.764 48.6351 30.2622 48.4104C28.566 48.6536 26.8556 48.7804 25.1427 48.7896C26.1857 49.0833 27.2765 49.1576 28.3485 49.0071ZM27.3424 47.5864C26.4021 46.9569 25.5126 46.2262 24.6544 45.5093C24.2583 45.1794 23.8785 44.8678 23.4986 44.565C23.8669 45.0591 24.3914 45.6887 24.8682 46.0993C25.7166 46.8281 26.425 47.3223 27.3424 47.5864ZM24.3438 47.0791L24.5789 47.0437C24.0906 46.972 23.6713 46.93 23.2636 46.8898C22.3545 46.7991 21.4898 46.7125 19.9773 46.307C20.8206 46.8077 21.5012 47.0475 22.3298 47.1461C23.0006 47.2269 23.6796 47.2046 24.3438 47.0791ZM18.3543 41.1046L18.3481 41.0941L18.2954 41.0034C18.4746 41.6335 18.7098 42.4004 19.0336 42.9097C19.5729 43.754 20.0316 44.2535 20.7746 44.7588C19.9207 43.7573 19 42.1981 18.3543 41.1046ZM16.8537 43.2132C17.5146 43.5195 18.108 43.6069 18.5996 43.6667C17.3517 43.1442 15.6553 42.1994 14.7329 41.5062C15.2951 42.2999 15.8838 42.7645 16.8537 43.2132ZM12.4987 37.0489C12.9739 37.6823 13.5805 38.0588 14.0638 38.3336C13.1333 37.3807 12.0417 35.9404 11.3808 34.6234C11.5633 35.5762 11.8559 36.1926 12.4987 37.0489ZM15.8295 40.2832C15.3034 38.994 14.9137 37.2585 14.659 36.0066C14.649 36.2801 14.6392 36.5797 14.6392 36.878C14.6324 37.2506 14.6577 37.6238 14.7148 37.9918C14.9039 39.017 15.2804 39.6051 15.8295 40.2832ZM12.6072 33.5517C12.6072 31.9213 12.7996 30.6387 12.959 29.5801L13.0248 29.126C12.7831 29.7305 12.4971 30.5079 12.4034 31.0553C12.3524 31.3602 12.3294 31.6421 12.3294 31.9096C12.3294 32.5345 12.451 33.0826 12.6089 33.6515L12.6072 33.5517ZM11.3233 25.615C11.343 26.9134 11.5814 29.0958 11.9184 30.3673C11.9005 29.9947 11.8917 29.6222 11.8921 29.2495L11.8919 29.2386C11.887 28.8923 11.8819 28.528 11.8526 28.0923C11.7819 27.0206 11.5682 26.3655 11.3792 25.7892L11.3233 25.615ZM13.7547 23.8881C14.0621 23.4006 14.317 22.8762 14.5882 22.1796L14.2727 22.6337C13.7136 23.4222 13.1399 24.2397 12.6171 25.3935C12.7009 25.2884 12.7831 25.1912 12.8653 25.094C13.0971 24.8226 13.3602 24.5144 13.7547 23.8881ZM14.9877 18.2047C14.2972 19.3671 13.7958 20.6118 13.467 21.9733C13.61 21.6519 13.7827 21.3004 14.0786 20.7287C14.5084 19.9409 14.8152 19.0892 14.9877 18.2047ZM17.3338 17.94C17.7131 17.635 18.0717 17.3045 18.4073 16.9503L18.1886 17.0876C17.5392 17.4943 16.6103 18.0792 15.6996 18.8861C15.8015 18.8362 15.9018 18.7888 16.0004 18.7441L16.0123 18.7387C16.3818 18.5676 16.7644 18.3905 17.3338 17.94ZM17.651 16.4693C17.9354 16.2077 18.256 15.9265 18.7345 15.5164C19.4299 14.9166 19.8408 14.5511 20.2107 14.0386L19.946 14.2495C19.318 14.747 18.4286 15.4572 17.651 16.4693ZM24.3076 13.0719L24.4589 12.997C23.6007 13.2132 22.8657 13.5497 22.0438 13.9282C21.8531 14.0169 21.6575 14.1056 21.4585 14.1944C21.9322 14.0734 22.3974 13.9203 22.851 13.7357C23.3474 13.5399 23.8336 13.3184 24.3076 13.0719ZM44.9411 22.1172L45.3658 22.1791L42.8818 26.5108C42.862 27.0936 42.7157 31.0318 42.3112 34.4507C42.0795 36.4037 41.6619 37.4353 38.8408 38.4506C36.2843 39.3705 35.2173 39.6721 34.1865 39.9633C33.7591 40.0855 33.4664 40.1795 33.1837 40.2715L33.178 40.2733C32.6705 40.4381 32.1896 40.5944 31.0431 40.8563L30.9823 40.8695L30.915 40.8563C29.7701 40.5944 29.2893 40.4382 28.7818 40.2733L28.7761 40.2715L28.7717 40.27C28.4903 40.1785 28.1985 40.0835 27.7732 39.9633C26.7409 39.6721 25.6738 39.3705 23.119 38.4506C20.2994 37.434 19.882 36.4037 19.6501 34.4507C19.244 31.0318 19.0994 27.0936 19.0796 26.5108L16.5955 22.1778L17.0164 22.1173C17.1185 22.103 23.3062 21.2334 30.9774 20.4541C38.6533 21.2337 44.8438 22.1035 44.9411 22.1172ZM35.9342 23.6884V26.9063H31.0646V23.6884H30.8968V25.9568L21.087 25.9615C21.0985 25.9798 21.1067 26.1277 21.1067 26.1277L30.8968 26.1224V27.8658L21.1429 27.8677C21.1448 27.9222 21.1459 27.9775 21.1461 28.032L30.8985 28.0301V30.3701H21.1922C21.1942 30.4252 21.1952 30.481 21.1955 30.5363H25.8596V33.8409H21.2646C21.2688 34.18 21.2962 34.5177 21.3467 34.8529C21.3677 34.9581 21.3912 35.0625 21.4174 35.1656H25.8612V36.1612H22.2181C22.5929 36.3852 23.1486 36.6185 23.9919 36.886C24.661 37.0865 25.3385 37.2553 26.0223 37.3939V34.0065H30.8952L30.8968 38.3652H31.0612V34.9685L40.5933 34.9666C40.6015 34.9298 40.6245 34.8206 40.6261 34.8042H31.0597V33.0589H40.7166L40.7199 32.8946H31.0646V30.5429H40.7659L40.7691 30.3773L36.1001 30.3786V27.074H40.835L40.858 25.9896L40.9895 25.7604H36.1001V24.7675H41.5616L42.1798 23.6884H35.9342ZM31.1912 35.1092V38.3652C32.0399 38.1573 33.1026 37.9541 34.2603 37.7327L34.4546 37.6956C35.6711 37.4623 37.0405 37.1863 37.976 36.8892C40.0607 36.2283 40.4174 35.7505 40.5802 35.1092H31.1912ZM31.201 32.7403H40.7231L40.7642 30.6953H31.201V32.7403ZM30.7604 23.6884H19.7833L20.9949 25.8089C22.4497 25.805 28.4593 25.8079 30.2577 25.8088L30.7604 25.8089V23.6884ZM21.1889 30.2215H30.7621V28.1844L21.1495 28.1857L21.1889 30.2215ZM23.2554 38.057C25.7955 38.9716 26.8558 39.2713 27.8817 39.5612C28.2738 39.6707 28.5522 39.7602 28.8093 39.8429L28.8977 39.8713C29.56 40.0907 30.2333 40.274 30.915 40.4206V38.5761C29.9663 38.3382 28.7645 38.1043 27.4789 37.8591C26.1834 37.6114 24.8633 37.3421 23.9394 37.049C21.5588 36.2966 21.3682 35.7807 21.184 34.8877C21.1067 34.4658 21.0936 33.7804 21.0804 32.9748L21.0294 30.4588L20.9621 26.9918L20.9406 26.037L19.4972 23.5209H30.9182V20.8812C26.3565 21.3465 21.8024 21.8879 17.2581 22.5056L19.484 26.3906L19.4889 26.4957C19.5038 26.9431 19.6484 30.9647 20.0562 34.4008C20.2765 36.2598 20.6283 37.1107 23.2554 38.057ZM42.4691 26.4957L42.4725 26.3906L44.6984 22.5056C43.6149 22.3551 37.9184 21.5797 31.0382 20.8812V23.5228H42.4642L41.0207 26.0383L40.9993 26.9931L40.932 30.4607H40.9303L40.8793 32.9768C40.8661 33.7838 40.853 34.4671 40.7757 34.8897C40.59 35.7827 40.4009 36.2985 38.0203 37.0503C37.0964 37.3421 35.7763 37.6135 34.4808 37.8612C33.192 38.1056 31.9902 38.3422 31.0382 38.58V40.4226C32.1117 40.1795 32.5738 40.0303 33.0571 39.8726L33.0885 39.8625C33.3648 39.7736 33.6535 39.6808 34.0747 39.5612L34.0806 39.5595C35.103 39.2702 36.1642 38.97 38.701 38.057C41.3298 37.1088 41.68 36.2577 41.9002 34.4008C42.308 30.9647 42.4544 26.9431 42.4691 26.4957ZM30.8949 31.704H26.0204V32.6969H30.8949V31.704ZM35.9336 28.2363H31.0576V29.2299H35.9336V28.2363ZM36.8574 48.7896C35.8148 49.0853 34.7236 49.1589 33.6517 49.0071C32.8023 48.8884 32.2375 48.6351 31.7402 48.4122L31.7364 48.4104C33.2686 48.6417 35.0985 48.7758 36.8574 48.7896ZM38.5015 44.565C38.1315 45.0591 37.6088 45.6887 37.1321 46.0993C36.2837 46.8281 35.5751 47.3223 34.6577 47.5864C35.5965 46.9569 36.486 46.2262 37.3457 45.5093C37.742 45.1794 38.1217 44.8678 38.5015 44.565ZM38.7366 46.8879C39.8473 46.7972 40.9474 46.602 42.023 46.3051C41.1795 46.8057 40.5006 47.0456 39.6703 47.1442C38.7612 47.2519 38.1743 47.1593 37.6581 47.0771L37.4231 47.0422C37.8842 46.9757 38.2847 46.9344 38.6724 46.8945L38.7366 46.8879ZM43.7047 41.0054C43.5255 41.6349 43.2905 42.4024 42.9666 42.9116C42.4274 43.7561 41.9687 44.2548 41.2256 44.7608C42.0707 43.7694 42.9814 42.2299 43.6262 41.14L43.6521 41.0961L43.7047 41.0054ZM47.2673 41.5062C46.705 42.2999 46.1182 42.7645 45.1466 43.2132C44.4856 43.5195 43.8921 43.6069 43.4005 43.6667C44.6501 43.1442 46.345 42.1994 47.2673 41.5062ZM50.6194 34.6234C50.4369 35.5762 50.1426 36.1946 49.5014 37.0489C49.0264 37.6823 48.4197 38.0588 47.9365 38.3336C48.8685 37.3807 49.9601 35.9404 50.6194 34.6234ZM47.361 36.878C47.361 37.2834 47.3413 37.6823 47.2853 37.9918C47.0964 39.017 46.7198 39.6051 46.1707 40.2832C46.6968 38.994 47.0864 37.2585 47.3413 36.0066C47.3528 36.2801 47.361 36.5797 47.361 36.878ZM48.9753 29.1273C49.217 29.7325 49.5048 30.5093 49.5968 31.0572C49.6478 31.3622 49.6708 31.6434 49.6708 31.9115C49.6708 32.5345 49.5491 33.0838 49.3913 33.6536L49.3929 33.553C49.3929 31.9213 49.2006 30.6387 49.0412 29.5814C49.0196 29.4302 48.9977 29.2791 48.9753 29.1273ZM50.1048 29.5867L50.1065 29.2482C50.1098 28.9 50.118 28.5314 50.1459 28.091C50.2146 27.0242 50.4281 26.3723 50.6164 25.797L50.6194 25.7879L50.6753 25.6131C50.6539 26.9095 50.4171 29.0938 50.0802 30.3653C50.0966 30.0992 50.1032 29.8429 50.1048 29.5867ZM47.7293 22.6337C48.2865 23.4242 48.8604 24.2397 49.3831 25.3935C49.3005 25.2898 49.2193 25.1938 49.1382 25.0979L49.1349 25.094C48.3928 24.2364 47.8091 23.2487 47.4119 22.1796C47.5124 22.3263 47.6142 22.4706 47.7147 22.6131L47.7293 22.6337ZM47.9216 20.7287C47.4928 19.9409 47.1861 19.0898 47.0125 18.206C47.7029 19.3684 48.206 20.6118 48.5332 21.9753C48.3428 21.5527 48.1389 21.1375 47.9216 20.7287ZM43.8115 17.0876C44.4626 17.4943 45.3898 18.0792 46.3006 18.8861C46.2011 18.8369 46.1009 18.7895 45.9997 18.7441C45.5219 18.5392 45.0734 18.2691 44.6665 17.9419C44.2876 17.6369 43.9295 17.3058 43.5945 16.9516L43.8115 17.0876ZM41.7894 14.0386L42.0558 14.2495C42.6838 14.7457 43.5715 15.4572 44.3508 16.4693C43.9951 16.1453 43.6338 15.8273 43.2675 15.5164C42.5704 14.9166 42.1593 14.5511 41.7894 14.0386ZM39.9564 13.9282C40.1471 14.0169 40.3428 14.1056 40.5417 14.1944C40.0685 14.0734 39.6039 13.9196 39.1508 13.7357C38.3563 13.4128 37.9879 13.2237 37.6939 13.0727L37.6926 13.0719C37.6433 13.0464 37.5933 13.0208 37.5431 12.997C38.3996 13.2132 39.1361 13.5497 39.9564 13.9282ZM42.3614 48.9451H42.8824V50.375H43.0881V48.9451H43.6042V48.7604H42.3614V48.9451ZM44.0152 49.064L44.4475 50.3736H44.6564L45.0887 49.064V50.3736H45.2975V48.7604H45.0081L44.5511 50.1324L44.0957 48.7604H43.8064V50.3736H44.0152V49.064Z" fill="#333333"/>
</g>
</svg>
