<svg width="62" height="62" viewBox="0 0 62 62" fill="none" xmlns="http://www.w3.org/2000/svg">
<g id="2f6c87ff213896992b1a05f07beb1c58_1650381565">
<path id="Vector" fill-rule="evenodd" clip-rule="evenodd" d="M10.7181 45.0826C10.604 44.0353 7.73899 42.7586 7.73899 42.7586C6.99485 42.305 7.3072 41.7476 7.3072 41.7476C7.77048 40.7484 10.1761 41.6855 10.1761 41.6855L10.6355 40.6096C9.35717 39.6622 7.72849 39.8618 7.72849 39.8618C5.72576 40.0847 5.4344 41.4211 5.4344 41.4211C4.97507 43.4676 6.56963 43.9575 6.56963 43.9575C8.02771 44.6315 8.46737 44.9037 8.46737 44.9037C9.66165 45.671 8.60517 46.1739 8.60517 46.1739C7.3072 46.7779 5.67589 45.9471 5.67589 45.9471L5.16667 47.1291C6.52107 48.0286 8.60517 47.645 8.60517 47.645C11.2615 47.2678 10.7181 45.0826 10.7181 45.0826Z" fill="#333333"/>
<path id="Vector_2" fill-rule="evenodd" clip-rule="evenodd" d="M14.9939 45.4987C14.9021 44.6524 12.5791 43.6193 12.5791 43.6193C11.978 43.2563 12.2326 42.7949 12.2326 42.7949C12.604 41.9966 14.5555 42.7483 14.5555 42.7483L14.923 41.8748C13.8902 41.11 12.5738 41.2759 12.5738 41.2759C10.9517 41.4523 10.7102 42.5357 10.7102 42.5357C10.3428 44.1896 11.6342 44.5836 11.6342 44.5836C12.8153 45.1344 13.1697 45.3561 13.1697 45.3561C14.1369 45.9783 13.2826 46.3826 13.2826 46.3826C12.2326 46.8752 10.9084 46.2038 10.9084 46.2038L10.4976 47.1512C11.5909 47.8835 13.2826 47.5789 13.2826 47.5789C15.4323 47.2679 14.9939 45.4987 14.9939 45.4987Z" fill="#333333"/>
<path id="Vector_3" fill-rule="evenodd" clip-rule="evenodd" d="M17.0085 45.1052L17.876 42.9926L18.8275 45.1052H17.0085ZM16.935 41.4165L14.6422 47.4939L15.9638 47.5134L16.5597 46.1875H19.3236L19.9207 47.3929H21.1938L18.8 41.4178H16.9363L16.935 41.4165Z" fill="#333333"/>
<path id="Vector_4" fill-rule="evenodd" clip-rule="evenodd" d="M25.4485 45.4226L22.8815 41.4682H21.1911V47.3915L22.4326 47.4148V43.5355L25.1703 47.5885H26.7412V41.489H25.4485V45.4226ZM32.315 44.1459H30.2178V45.0843H31.6404V46.5062C30.6706 46.8756 29.6521 46.4841 29.6521 46.4841C27.6337 45.1543 28.7295 43.5082 28.7295 43.5082C29.9764 41.5913 32.9384 42.7695 32.9384 42.7695V41.6652C29.3294 40.5065 27.7832 42.4519 27.7832 42.4519C25.7425 45.2321 28.2781 47.0479 28.2781 47.0479C30.7703 48.567 33.1602 47.2437 33.1602 47.2437V45.0532C33.1077 44.0449 32.315 44.1459 32.315 44.1459Z" fill="#333333"/>
<path id="Vector_5" fill-rule="evenodd" clip-rule="evenodd" d="M55.9867 44.1468H53.8921V45.0851H55.3121V46.5069C54.3397 46.8763 53.3212 46.4836 53.3212 46.4836C51.308 45.1537 52.3987 43.5078 52.3987 43.5078C53.6454 41.5921 56.6088 42.7689 56.6088 42.7689V41.6647C52.9997 40.5072 51.4576 42.4514 51.4576 42.4514C49.4128 45.2315 51.9563 47.0474 51.9563 47.0474C54.442 48.5677 56.8345 47.2444 56.8345 47.2444V45.054C56.7821 44.0443 55.9867 44.1468 55.9867 44.1468Z" fill="#333333"/>
<path id="Vector_6" fill-rule="evenodd" clip-rule="evenodd" d="M37.9111 40.1182L35.9949 43.2639L34.0828 40.1946H32.4133L35.2744 44.7893L33.6798 47.7316H35.1996L39.6053 40.1182H37.9111Z" fill="#333333"/>
<path id="Vector_7" fill-rule="evenodd" clip-rule="evenodd" d="M41.1476 46.5252C40.886 46.5257 40.627 46.4752 40.3852 46.3768C40.1436 46.2784 39.9237 46.1338 39.7386 45.9515C39.5534 45.7691 39.4065 45.5525 39.3062 45.314C39.2059 45.0755 39.1542 44.8198 39.154 44.5616C39.1673 44.0479 39.3833 43.5598 39.7558 43.2012C40.1283 42.8427 40.6281 42.642 41.1482 42.642C41.6684 42.642 42.168 42.8427 42.5406 43.2012C42.9132 43.5598 43.1291 44.0479 43.1424 44.5616C43.1424 45.6502 42.246 46.5252 41.1476 46.5252ZM41.1476 41.3291C40.718 41.3292 40.2926 41.4129 39.8958 41.5756C39.499 41.738 39.1385 41.9762 38.8349 42.2764C38.5313 42.5766 38.2905 42.933 38.1265 43.325C37.9623 43.7171 37.878 44.1373 37.8784 44.5616C37.878 44.9857 37.9623 45.4057 38.1265 45.7978C38.2907 46.1896 38.5314 46.5458 38.835 46.8458C39.1387 47.1457 39.4992 47.3837 39.896 47.5459C40.2928 47.7083 40.7181 47.7917 41.1476 47.7914C42.0153 47.7914 42.8475 47.4511 43.4611 46.845C44.0746 46.2391 44.4194 45.4172 44.4194 44.5602C44.4194 43.7033 44.0746 42.8814 43.4611 42.2755C42.8475 41.6695 42.0153 41.3291 41.1476 41.3291Z" fill="#333333"/>
<path id="Vector_8" fill-rule="evenodd" clip-rule="evenodd" d="M49.1624 45.3514L46.5993 41.441H44.8564V47.5134L46.1754 47.4926V43.5538L48.8867 47.5665H50.4748V41.4165H49.1624V45.3514Z" fill="#333333"/>
<path id="Vector_9" fill-rule="evenodd" clip-rule="evenodd" d="M27.3228 30.7935C27.3228 30.7935 26.076 31.7397 27.8609 32.5406C27.8609 32.5406 28.9528 32.9126 29.7192 33.72C29.7192 33.72 30.2153 34.1867 31.05 34.2074V34.2139H31.1918V34.21C32.0408 34.1893 32.5435 33.7213 32.5435 33.7213C33.31 32.9126 34.4019 32.5406 34.4019 32.5406C36.1868 31.741 34.9374 30.7935 34.9374 30.7935L34.083 30.0676C33.8914 29.859 34.1577 29.7437 34.1577 29.7437L34.5239 29.6607C40.7185 28.4384 42.2671 27.8111 42.2671 27.8111C45.6688 26.7223 47.0101 24.7808 47.5207 23.6104C47.9406 22.6565 47.6558 21.3423 47.6558 21.3423C46.7018 17.8712 42.1503 16.1228 42.1503 16.1228C40.9324 15.6821 41.4207 16.3717 41.4207 16.3717C41.4207 16.3717 46.6558 18.7526 46.6558 22.0655C46.6558 26.1715 40.9469 27.4002 40.9469 27.4002C46.1413 25.7671 46.1558 22.2884 46.1558 22.2884C46.0665 18.8057 41.4207 16.3717 41.4207 16.3717C39.6265 15.3646 38.654 15.1144 38.654 15.1144C36.3181 14.3471 37.0765 15.244 37.0765 15.244C37.0765 15.244 44.1294 17.437 44.1294 22.282C44.1294 27.224 34.2969 28.8143 34.2969 28.8143C43.5414 27.119 43.5454 22.3182 43.5454 22.3182C43.5454 17.9931 37.0765 15.244 37.0765 15.244C36.1053 14.7217 34.4557 14.2965 34.4557 14.2965C32.9307 13.9751 33.7956 14.6375 33.7956 14.6375C39.9888 18.212 39.9888 22.1639 39.9888 22.1639C39.9888 26.5552 35.9151 27.6517 35.9151 27.6517C34.7287 28.104 32.4372 28.4734 32.4372 28.4734C32.0672 28.5797 31.8073 28.8298 31.8073 29.1279C31.8073 29.2446 31.8335 29.3665 31.9241 29.4572C32.1458 29.6904 32.9006 30.2452 32.9006 30.2452C33.1709 30.5019 33.3309 30.8116 33.3309 31.1473C33.3309 31.9665 32.369 32.6418 31.1773 32.656H31.0881C29.899 32.6418 28.9358 31.9665 28.9358 31.1473C28.9358 30.8103 29.092 30.4993 29.3636 30.2452C29.3636 30.2452 30.1143 29.6917 30.3387 29.4572C30.4204 29.3671 30.4629 29.2488 30.4569 29.1279C30.4569 28.8298 30.1983 28.5797 29.8269 28.4734C29.8269 28.4734 27.5302 28.104 26.3477 27.6517C26.3477 27.6517 22.2727 26.5552 22.2727 22.1639C22.2727 22.1639 22.2727 18.2107 28.4672 14.6375C28.4672 14.6375 29.3334 13.9751 27.8071 14.2965C27.8071 14.2965 26.1587 14.7217 25.1928 15.2428C25.1928 15.2428 18.716 17.9931 18.716 22.3182C18.716 22.3182 18.716 27.119 27.9685 28.8143C27.9685 28.8143 18.136 27.224 18.136 22.282C18.136 17.437 25.1928 15.2428 25.1928 15.2428C25.1928 15.2428 25.9487 14.3471 23.61 15.1144C23.61 15.1144 22.6362 15.3646 20.8435 16.3717C20.8435 16.3717 16.1962 18.8057 16.1044 22.2884C16.1044 22.2884 16.1227 25.7684 21.3146 27.4002C21.3146 27.4002 15.6031 26.1715 15.6031 22.0655C15.6031 18.7526 20.8435 16.3717 20.8435 16.3717C20.8435 16.3717 21.333 15.6833 20.1164 16.1228C20.1164 16.1228 15.5624 17.8712 14.6082 21.3436C14.6082 21.3436 14.3183 22.6565 14.7448 23.6104C15.2539 24.7808 16.5926 26.721 19.9944 27.8098C19.9944 27.8098 21.5429 28.4384 27.7375 29.6607L28.105 29.7437C28.105 29.7437 28.3728 29.859 28.1811 30.0676L27.3228 30.7935Z" fill="#333333"/>
</g>
</svg>
