<svg width="62" height="62" viewBox="0 0 62 62" fill="none" xmlns="http://www.w3.org/2000/svg">
<g id="27159cdf2e768a3ca24fd74c4c780b87_1650381690">
<path id="Vector" fill-rule="evenodd" clip-rule="evenodd" d="M31.0008 11.8479C41.5618 11.8479 50.1727 20.4467 50.1727 31.0093C50.1727 41.5524 41.5618 50.1543 31.0008 50.1543C20.443 50.1543 11.8288 41.5524 11.8288 31.0093C11.8288 20.4467 20.443 11.8479 31.0008 11.8479ZM31.0008 51.667C42.416 51.667 51.6684 42.4191 51.6684 31.0093C51.6684 19.5864 42.416 10.332 31.0008 10.332C19.5872 10.3337 10.3333 19.5881 10.3333 31.0108C10.3333 42.4191 19.5872 51.667 31.0008 51.667Z" fill="#333333"/>
<path id="Vector_2" fill-rule="evenodd" clip-rule="evenodd" d="M21.5344 41.3263C19.9755 41.3263 18.8828 41.0732 18.8828 39.825C18.8828 38.4179 20.5276 38.1143 21.8315 38.1143C23.4553 38.1143 24.9962 38.3904 24.9962 39.7374H22.7603C22.7603 39.1661 22.3836 39.0769 21.8315 39.0769C21.3655 39.0769 21.0229 39.2132 21.0229 39.5556C21.0229 39.9322 21.3217 40.0669 22.1221 40.0669C24.113 40.0669 24.9962 40.4141 25.1262 41.3377L26.4365 38.202H29.2782L30.6714 41.5617L32.0678 38.202H34.9061L36.4537 41.9285V38.202H40.997C42.1532 38.202 42.4421 39.0006 42.4421 39.468C42.4421 39.9192 42.2521 40.5051 41.3785 40.6366C42.3739 40.7258 42.5915 41.5016 42.5915 41.9496C42.5915 42.4576 42.218 43.3161 41.2211 43.3161H35.0669L34.7373 42.4998H32.2285L31.8956 43.3161H29.4454L29.1011 42.4998H26.5875L26.2579 43.3161H24.3077L24.4864 42.8617C24.1973 43.1376 23.6615 43.4558 21.9029 43.4558C20.2272 43.4558 18.7123 43.0954 18.6814 41.7078H20.9173C20.9173 42.0437 21.1414 42.3943 21.8624 42.3943C22.7424 42.3943 22.8367 42.0956 22.8367 41.8912C22.8367 41.5747 22.5931 41.3263 21.5344 41.3263ZM23.0396 24.3577C23.9944 24.3642 24.7251 24.0217 25.3616 24.0217C25.8536 24.0217 26.6915 24.2652 27.0746 25.1092C26.8588 24.9453 26.4074 24.7067 25.6814 24.7067C25.1603 24.7067 24.2136 25.2293 23.4342 25.2293C22.2098 25.2293 21.4954 24.2279 21.0991 23.3303C21.484 23.7117 22.1221 24.3448 23.0396 24.3577ZM25.4655 20.456C25.9624 20.456 26.5161 20.628 27.1331 20.9738C27.2273 20.4998 27.5261 19.9821 27.8915 19.8539C27.8589 19.8685 27.8265 19.8701 27.7941 19.8831L25.6132 14.7803C26.5161 14.7803 27.4514 15.1683 27.4514 15.9083C27.4514 16.1241 27.3702 16.3789 27.1656 16.6647C27.1656 16.6922 27.1803 16.7052 27.2046 16.7052C27.2192 16.7052 27.2273 16.7052 27.2451 16.6922C27.3228 16.599 27.4205 16.5248 27.5311 16.475C27.6417 16.4252 27.7622 16.4013 27.8833 16.4049C28.1107 16.4062 28.3283 16.4974 28.4887 16.6586C28.649 16.8198 28.7391 17.0378 28.7391 17.2652C28.7391 17.7196 28.3558 18.1075 27.8833 18.1075C27.8184 18.1075 27.76 18.1075 27.7178 18.0913C27.7388 18.286 28.3721 18.6204 29.0541 18.6204C29.6126 18.6204 30.2069 18.398 30.5577 17.7196C30.4162 17.8286 30.2427 17.8879 30.0641 17.8884C29.5639 17.8884 29.1759 17.5151 29.1759 17.0444C29.1759 16.5656 29.5639 16.1842 30.0641 16.1842C30.2224 16.1824 30.3777 16.2287 30.509 16.3173C30.3402 16.1539 30.2408 15.9319 30.2313 15.6973C30.2313 15.2234 30.6259 14.8371 31.1081 14.8371C31.205 14.7366 31.325 14.6617 31.4578 14.6187C31.5906 14.5758 31.7319 14.5662 31.8692 14.591C32.0065 14.6157 32.1355 14.6739 32.2449 14.7605C32.3543 14.847 32.4406 14.9593 32.4961 15.0872C32.5518 15.2152 32.5749 15.3548 32.5636 15.4938C32.5522 15.6328 32.5066 15.7668 32.431 15.884C32.3554 16.0011 32.252 16.0979 32.13 16.1656C32.008 16.2332 31.8712 16.2697 31.7317 16.2719C31.8548 16.2097 31.9917 16.18 32.1296 16.1858C32.6036 16.1858 32.9868 16.5656 32.9868 17.0461C32.9868 17.5168 32.6036 17.8884 32.1296 17.8884C31.9233 17.8905 31.7227 17.8217 31.5612 17.6936C31.6732 18.0701 32.3194 18.6901 33.1427 18.6901C33.565 18.6901 34.031 18.5213 34.5003 18.0929C34.4386 18.1075 34.3866 18.1075 34.3459 18.1075C34.1164 18.1128 33.8941 18.0269 33.7276 17.8688C33.5611 17.7105 33.4641 17.493 33.4578 17.2635C33.4578 16.7912 33.8475 16.4034 34.3459 16.4034C34.4632 16.4032 34.5791 16.4292 34.6853 16.4791C34.7913 16.529 34.8851 16.6019 34.9597 16.6922C34.9728 16.7052 34.9874 16.7052 35.0037 16.7052C35.0247 16.7052 35.0458 16.6922 35.0458 16.6647C34.8428 16.3789 34.7536 16.1241 34.7536 15.9018C34.7536 15.1683 35.6889 14.7803 36.5819 14.7803L34.4386 19.8278C34.5799 19.9545 34.7178 20.1232 34.8218 20.3051C35.2186 20.1546 35.6394 20.0771 36.064 20.0762C36.3855 20.0762 36.5949 20.1232 36.6437 20.1346C36.6437 20.1346 36.9034 20.1979 36.9424 20.271C36.6647 20.9526 36.4455 21.3551 36.1824 21.7414C37.2818 22.8596 37.704 24.2669 37.4977 26.0976C37.1011 25.8478 36.6676 25.6616 36.2133 25.5458C36.7816 26.4384 36.9652 27.2013 36.9652 28.0842C36.9652 28.7398 36.8303 29.3907 36.5673 30.0107L36.3643 30.4976C36.0526 30.0107 35.7473 29.6618 35.364 29.3566C35.4566 29.6552 35.5735 30.311 35.5735 30.7589C35.5735 31.9437 35.1092 33.0035 33.9936 33.6835C33.7274 32.9968 33.3583 32.3543 32.8991 31.7782C32.948 32.8737 32.8911 34.1267 32.4803 34.995C31.644 36.0986 30.4814 36.7527 28.6936 37.1601C28.994 36.4199 29.2684 34.4659 29.1288 32.0524C28.7715 32.5848 28.3461 33.5992 28.2113 34.896C27.7778 34.5535 26.4869 33.5488 26.4869 31.8593C26.4869 31.1614 26.7272 30.4603 27.1981 29.7461C26.5421 29.9864 26.1329 30.4084 25.688 31.2539C25.5354 30.0416 25.7432 28.7123 26.3992 27.7612C24.8143 27.6963 24.3451 26.763 24.4296 25.3786C24.8891 25.7502 25.3794 26.0407 26.0338 26.0407C26.6769 26.0407 27.5115 25.7487 28.3558 24.6677C27.9906 24.4502 27.6122 24.335 27.3637 24.2506C27.0471 24.1532 26.5421 24.0363 26.0793 23.4504C25.904 23.2378 25.6132 23.1567 25.2398 23.1567C24.8062 23.1567 24.1486 23.2784 23.111 23.7686C23.2459 21.2416 24.4669 20.4576 25.4655 20.4576V20.456ZM31.001 49.4609C41.1902 49.4609 49.4698 41.1835 49.4698 31.0104C49.4698 20.8114 41.1885 12.5454 31.001 12.5454C20.8134 12.5454 12.5419 20.8114 12.5419 31.0104C12.5419 41.1851 20.8134 49.4625 31.001 49.4625" fill="#333333"/>
</g>
</svg>
