<svg width="62" height="62" viewBox="0 0 62 62" fill="none" xmlns="http://www.w3.org/2000/svg">
<g id="a577488d650b0dd5c1d00daf14510ee3_1650382388 (1)">
<path id="Vector" fill-rule="evenodd" clip-rule="evenodd" d="M38.3364 30.1425C38.3059 23.6425 37.9229 16.305 36.8509 9.55157C36.8509 9.55157 34.6222 9.29817 31.7198 9.25778C31.5208 6.61366 31.36 5.16675 31.36 5.16675H30.64C30.64 5.16675 30.4792 6.61366 30.2802 9.25778C27.3778 9.2982 25.1493 9.55157 25.1493 9.55157C24.0694 16.305 23.6865 23.6425 23.6597 30.1425C21.2743 30.4069 19.375 30.6677 19.375 30.6677V31.336C19.375 31.336 21.2743 31.5932 23.6597 31.8612C23.6865 38.3614 24.0694 45.6951 25.1493 52.4486C25.1493 52.4486 27.3778 52.7056 30.2802 52.7461C30.4792 55.3901 30.64 56.8334 30.64 56.8334H31.36C31.36 56.8334 31.5208 55.3901 31.7198 52.7461C34.6222 52.7056 36.8509 52.4486 36.8509 52.4486C37.9229 45.6951 38.3058 38.3614 38.3364 31.8612C40.722 31.5932 42.625 31.336 42.625 31.336V30.6677C42.625 30.6677 40.722 30.4069 38.3364 30.1425ZM35.2465 11.5457C36.1845 17.8731 36.4258 25.8165 36.4526 29.9443C35.0894 29.8084 33.6918 29.6946 32.4818 29.6394C32.4512 21.9973 32.1602 15.7946 31.8807 11.5457H35.2465ZM26.7498 11.5457H30.1155C29.8436 15.7946 29.5449 21.9973 29.5182 29.6394C28.3082 29.6946 26.903 29.8084 25.5475 29.9443C25.5742 25.8165 25.8078 17.8731 26.7498 11.5457ZM26.7498 50.4581C25.8078 44.127 25.5742 36.1873 25.5475 32.0595C26.903 32.1918 28.3082 32.3056 29.5182 32.3643C29.5449 40.0066 29.8436 46.2056 30.1155 50.4581H26.7498H35.2465H31.8807C32.1602 46.2056 32.4512 40.0066 32.4818 32.3643C33.6918 32.3056 35.0894 32.1918 36.4526 32.0595C36.4258 36.1873 36.1845 44.127 35.2465 50.4581H26.7498Z" fill="#333333"/>
</g>
</svg>
