<svg width="62" height="62" viewBox="0 0 62 62" fill="none" xmlns="http://www.w3.org/2000/svg">
<g id="acura_1650382478875">
<path id="Vector" fill-rule="evenodd" clip-rule="evenodd" d="M5.74065 31.0006C5.74065 37.7016 17.0869 43.1652 31.0006 43.1652C44.9159 43.1652 56.2621 37.7016 56.2621 31.002C56.2621 24.3024 44.9159 18.8416 31.0006 18.8416C17.0869 18.8416 5.74065 24.3038 5.74065 31.0006ZM5.16666 31.002C5.16666 23.889 16.7732 18.0847 31.0006 18.0847V18.0833C45.2296 18.0833 56.8333 23.8905 56.8333 31.002C56.8333 38.1164 45.2296 43.9166 31.0006 43.9166C16.7732 43.9166 5.16666 38.1164 5.16666 31.002ZM48.3118 34.7197C48.5229 34.4586 48.6876 34.1527 48.8043 33.7938H48.8029C48.9338 33.3859 48.9717 33.0367 48.8985 32.7532C48.8282 32.4656 48.6776 32.2686 48.4483 32.1695C48.2162 32.0578 47.8476 32.0088 47.3411 32.0088H44.6288L42.517 38.4487H44.1532L45.0113 35.8314H45.1521C45.2185 35.8278 45.285 35.8393 45.3463 35.8652C45.4075 35.8911 45.4619 35.9307 45.5052 35.9808C45.5699 36.0618 45.6107 36.2239 45.636 36.478L45.864 38.4487H47.7098L47.5297 36.5815C47.524 36.4878 47.4889 36.351 47.4354 36.1805C47.3763 36.0075 47.3242 35.897 47.2862 35.8384C47.185 35.7398 47.0669 35.6599 46.9374 35.6024C47.1671 35.5525 47.3875 35.4666 47.5902 35.3482C47.8681 35.1852 48.1129 34.9721 48.3118 34.7197ZM39.2096 35.7225H41.7419L42.1752 34.4068H39.6372L39.9763 33.3859H42.7056L43.1572 32.0088H38.7903L36.68 38.4487H41.1285L41.6041 36.9864H38.7931L39.2096 35.7225ZM32.0528 32.0088L31.9319 38.4487H33.6989L37.7676 32.0088H36.1131L33.4203 36.6415L33.7594 32.0088H32.0528ZM30.155 26.9866L30.8204 30.5536H32.323L34.619 24.0566H33.1206L31.8503 27.65L31.1834 24.0566H29.6979L27.4018 30.5536H28.8959L30.155 26.9866ZM29.5613 37.0297C29.9286 36.5493 30.2352 35.9292 30.4828 35.1764C30.8204 34.1415 30.8458 33.3385 30.5588 32.7602C30.276 32.1862 29.6922 31.9 28.8144 31.9C27.9677 31.897 27.151 32.2106 26.5268 32.7784C25.8557 33.3635 25.3464 34.1821 25.0003 35.2323C24.7527 35.9851 24.6655 36.6094 24.7499 37.1121C24.8272 37.6094 25.0228 37.9809 25.3337 38.214C25.6475 38.4417 26.1019 38.559 26.6984 38.559C27.2573 38.5637 27.8079 38.4261 28.298 38.1596C28.7791 37.8859 29.1955 37.5157 29.5613 37.0297ZM23.8692 34.7197C24.0898 34.444 24.2567 34.13 24.3616 33.7938C24.4981 33.3859 24.5276 33.0367 24.4573 32.7532C24.3869 32.4656 24.2393 32.2686 24.007 32.1695C23.7721 32.0578 23.4064 32.0088 22.9055 32.0088H20.1874L18.0744 38.4487H19.7134L20.5687 35.8314H20.7151C20.7807 35.8279 20.8462 35.8397 20.9065 35.8656C20.9668 35.8915 21.0202 35.931 21.0626 35.9808C21.1258 36.0618 21.1681 36.2239 21.1977 36.478L21.4255 38.4487H23.2629L23.0884 36.5815C23.08 36.4878 23.0462 36.351 22.9927 36.1805C22.9337 36.0075 22.883 35.897 22.8422 35.8384C22.7426 35.739 22.6252 35.659 22.4962 35.6024C22.7261 35.5518 22.9468 35.466 23.1503 35.3482C23.4267 35.1843 23.6704 34.9711 23.8692 34.7197ZM12.8747 35.7043L17.3273 35.6289L17.7831 34.2881L15.8192 34.3594L18.1588 32.2686L13.7652 34.3385L12.8747 35.7043ZM19.9314 24.0566H18.3431H18.3417L16.0415 30.5536H20.1172L20.6813 28.9503H18.1996L19.9314 24.0566ZM26.7645 24.0566H25.0313L20.7966 30.5536H22.4244L23.0504 29.481H24.8666L24.7401 30.5536H26.4015L26.7645 24.0566ZM39.5852 24.2981C39.3517 24.1388 39.0069 24.0566 38.5357 24.0566H36.1778L33.8804 30.5536H36.2453C36.587 30.542 36.9251 30.4822 37.2499 30.3762C37.5382 30.2925 37.8378 30.1137 38.153 29.8567C38.4837 29.5786 38.7726 29.255 39.0112 28.8958C39.27 28.5188 39.5219 27.9768 39.7709 27.2828C39.9201 26.8751 40.0271 26.4535 40.0902 26.0243C40.1451 25.6277 40.1296 25.2827 40.048 24.9769C39.9838 24.7015 39.8188 24.4597 39.5852 24.2981ZM42.5423 26.5187L42.0852 27.8638L44.0519 27.791L41.7082 29.8819L46.1018 27.8134L46.9922 26.4461L42.5423 26.5187ZM6.53538 31.0019C6.53538 24.6766 17.5314 19.5133 31.0019 19.5133C44.4769 19.5133 55.4686 24.6766 55.4686 31.0019C55.4686 37.3286 44.4769 42.4919 31.0005 42.4919C17.5314 42.4919 6.53538 37.3286 6.53538 31.0019ZM45.8375 33.3079H46.5564V33.3064C46.8533 33.3064 47.039 33.3637 47.1093 33.4727C47.1811 33.5858 47.1811 33.7435 47.1135 33.9531C47.0664 34.092 46.9897 34.2191 46.8884 34.326C46.8012 34.4248 46.6868 34.4962 46.5593 34.5313C46.3257 34.5886 46.1737 34.615 46.0978 34.615H45.4112L45.8375 33.3079ZM37.1362 28.9365C36.9659 29.0356 36.7126 29.0788 36.3764 29.0788H35.9896L37.2444 25.5314H37.6384C38.0534 25.5314 38.3024 25.6544 38.3939 25.9086C38.4811 26.1613 38.4009 26.6306 38.1618 27.3219C37.9746 27.8414 37.8015 28.2172 37.6384 28.449C37.478 28.6809 37.3106 28.8457 37.1362 28.9365ZM21.3976 33.3079H22.1151V33.3064C22.4107 33.3064 22.5934 33.3637 22.6722 33.4727C22.7398 33.5858 22.7398 33.7435 22.6737 33.9531C22.6265 34.0917 22.5503 34.2188 22.4499 34.326C22.3608 34.4239 22.2458 34.495 22.118 34.5313C21.8816 34.5886 21.7297 34.615 21.6566 34.615H20.9728L21.3976 33.3079ZM23.8948 28.0747L25.2848 25.7382L25.0302 28.0747H23.8948ZM28.3164 33.4045C27.9929 33.4045 27.6834 33.547 27.388 33.836C27.0939 34.114 26.8421 34.5861 26.6241 35.2424C26.413 35.8918 26.361 36.357 26.4637 36.6419C26.5706 36.9267 26.7929 37.0692 27.1291 37.0692C27.4808 37.0692 27.8001 36.9296 28.0829 36.6503C28.3643 36.3738 28.6232 35.8738 28.8582 35.153C29.0593 34.5455 29.1043 34.1056 28.9931 33.8263C28.882 33.547 28.6612 33.4045 28.3178 33.4045H28.3164Z" fill="#333333"/>
</g>
</svg>
