<svg width="62" height="62" viewBox="0 0 62 62" fill="none" xmlns="http://www.w3.org/2000/svg">
<g id="acura_1650384406700">
<path id="Vector" fill-rule="evenodd" clip-rule="evenodd" d="M16.4803 29.1586C16.4126 29.1812 16.3404 29.1881 16.2696 29.1787C15.9812 29.1504 15.9691 28.7091 15.9691 28.7091C15.9691 28.7091 15.9 27.7014 15.9 26.6879C15.9 25.4126 16.9093 24.298 16.9093 24.298C16.9093 24.298 27.3469 12.9167 31.0008 12.9167C34.6562 12.9167 45.0938 24.298 45.0938 24.298C45.0938 24.298 46.1 25.4126 46.1 26.6879C46.1 27.7014 46.0293 28.7091 46.0293 28.7091C46.0293 28.7091 46.0234 29.1504 45.7304 29.1787C45.6598 29.1889 45.5877 29.1824 45.52 29.1597C45.4525 29.137 45.3912 29.0986 45.3415 29.0479C44.1731 28.0462 34.8589 20.1277 30.9992 20.1277C27.1412 20.1277 17.8269 28.0462 16.6601 29.0479C16.6095 29.098 16.5479 29.1358 16.4803 29.1586ZM37.0591 48.3594C37.406 48.3743 37.8715 48.3594 37.8715 48.3594V48.3579C38.7665 48.3579 39.7292 47.6981 39.7292 46.619C39.7292 45.552 38.7831 44.9144 37.8715 44.9144C37.5066 44.8891 37.065 44.91 37.056 44.9144C36.1474 44.9144 35.2028 45.552 35.2028 46.619C35.2028 47.6981 36.1669 48.3594 37.0591 48.3594ZM36.173 44.2412C37.0294 44.2206 37.8861 44.2206 38.7425 44.2412H38.7441C40.327 44.2694 41.563 45.3142 41.5644 46.6117C41.5644 47.9389 40.3 49.0164 38.7441 49.0164C37.5525 49.0414 36.3449 49.0195 36.1897 49.0166C36.1793 49.0164 36.1738 49.0164 36.173 49.0164C34.6202 49.0164 33.3586 47.9389 33.3586 46.6117C33.3586 45.3009 34.6216 44.2412 36.173 44.2412ZM50.0902 44.3052H54.0941C55.6289 44.3052 56.8333 45.3499 56.8333 46.68V48.9539H55.252C55.0643 48.9539 55.0612 48.7726 55.0612 48.7726V46.5656C55.0612 45.5743 54.3058 45.121 53.7997 45.121H51.9525C51.8368 45.121 51.7121 45.1998 51.7121 45.3573V48.9539H50.0437C49.9565 48.9539 49.874 48.8974 49.874 48.7786V44.479C49.874 44.32 50.0242 44.3052 50.0902 44.3052ZM24.16 44.3052C24.1839 44.3052 24.2076 44.3098 24.2297 44.319C24.2517 44.3281 24.2717 44.3414 24.2885 44.3584C24.3053 44.3753 24.3185 44.3953 24.3274 44.4173C24.3363 44.4392 24.3407 44.4627 24.3403 44.4864V45.2265H21.8713C21.7362 45.2265 21.6265 45.3336 21.6265 45.4643V48.9598H19.9595C19.8528 48.9598 19.7793 48.8602 19.7793 48.78V46.2387C19.7793 45.7512 19.3633 45.2251 18.7475 45.2251H17.1V44.4864C17.0996 44.4626 17.104 44.439 17.113 44.4169C17.122 44.3948 17.1354 44.3748 17.1523 44.3579C17.1692 44.3409 17.1894 44.3276 17.2116 44.3186C17.2338 44.3094 17.2577 44.3049 17.2817 44.3052H24.16ZM14.4433 44.3052H15.9301H15.9317C15.9786 44.3054 16.0235 44.3238 16.0571 44.3562C16.0907 44.3886 16.1103 44.4326 16.1119 44.479V48.9598H14.4448C14.3578 48.9598 14.2647 48.8841 14.2647 48.7786V44.479C14.2658 44.4328 14.2851 44.3887 14.3184 44.3563C14.3518 44.3239 14.3965 44.3054 14.4433 44.3052ZM27.1681 46.4838H30.0606H30.0621C30.1531 46.4837 30.2431 46.4657 30.3269 46.4311C30.4109 46.3965 30.4871 46.3459 30.5513 46.2822C30.6153 46.2184 30.6662 46.1427 30.7009 46.0595C30.7355 45.9763 30.7532 45.8872 30.7529 45.7973C30.751 45.618 30.678 45.4467 30.5496 45.3201C30.4212 45.1937 30.2477 45.1221 30.0666 45.121H27.6112C27.3499 45.121 27.1681 45.3009 27.1681 45.555V46.4838ZM31.2306 47.2552L31.229 47.2567V47.2582C31.229 47.2582 32.5432 47.7516 32.5926 48.9598H30.759C30.7155 48.3089 30.1387 47.3072 28.742 47.3072H27.1697V48.9598H25.5027C25.3991 48.9598 25.3284 48.8811 25.3284 48.777V45.2548C25.3266 45.1299 25.3501 45.0058 25.3975 44.8899C25.4449 44.7742 25.5152 44.6689 25.6045 44.5803C25.6936 44.4918 25.7998 44.4219 25.9167 44.3746C26.0335 44.3274 26.1588 44.3037 26.285 44.3052H30.7244C31.8778 44.3052 32.5912 45.0839 32.5912 45.8062C32.5912 46.4824 32.0566 47.0665 31.2306 47.2552ZM8.91759 44.8877C8.89847 44.8883 8.88249 44.8889 8.87013 44.8891H8.87314C7.95853 44.8891 7.01089 45.552 7.01089 46.6236C7.01089 47.7203 7.93451 48.3668 8.86562 48.3788C9.15397 48.3788 9.46635 48.3788 9.70213 48.3758C10.0254 48.3751 10.3431 48.2919 10.6246 48.1344C10.906 47.977 11.1417 47.7504 11.3091 47.4766C11.3235 47.4497 11.3452 47.4271 11.3716 47.4114C11.3981 47.3957 11.4284 47.3875 11.4592 47.3875H13.2524C12.8454 48.4218 11.8993 49.0089 10.5777 49.0534C9.21235 49.0948 9.04472 49.0897 8.08107 49.0604C8.03881 49.0591 7.99501 49.0578 7.94952 49.0564C6.36211 48.9986 5.16667 47.9567 5.16667 46.6265C5.16667 45.9815 5.46103 45.3781 5.99267 44.919C6.54082 44.4434 7.09499 44.2442 7.97805 44.1996C8.50821 44.1747 9.23204 44.1845 9.84182 44.1926C10.1078 44.1963 10.3521 44.1996 10.5492 44.1996C11.7401 44.1996 12.8679 44.8936 13.2569 45.8641H11.4622C11.4311 45.8652 11.4003 45.858 11.373 45.843C11.3457 45.8282 11.3231 45.8061 11.3076 45.7795C10.9832 45.237 10.3449 44.8891 9.6811 44.8891C9.38161 44.8721 9.06107 44.8828 8.91759 44.8877ZM44.2888 47.001V47.8824H44.2873C44.2873 48.028 44.3879 48.1231 44.535 48.1231H48.8843V48.78C48.8843 48.8231 48.8392 48.9539 48.7041 48.9539H43.4057C42.802 48.9539 42.4415 48.4769 42.4415 48.0102V44.4864C42.4415 44.3095 42.6067 44.3052 42.6218 44.3052H48.671C48.688 44.3048 48.8843 44.2988 48.8843 44.4864V45.1403H44.5635C44.2827 45.1403 44.2827 45.3736 44.2827 45.3766V46.1792H48.0553V47.001H44.2888ZM44.6071 42.4563C44.8318 42.4536 45.0531 42.5099 45.2484 42.6198C45.3007 42.6498 45.3478 42.6832 45.3933 42.7155C45.5035 42.7935 45.6041 42.8649 45.7455 42.8649C45.8982 42.8649 46.0109 42.785 46.1289 42.7009C46.1677 42.6734 46.2071 42.6455 46.2486 42.6198C46.444 42.5087 46.6661 42.4521 46.8914 42.4563C47.1154 42.4512 47.3362 42.5079 47.5296 42.6198C47.7099 42.7238 47.794 42.8531 47.794 43.0061C47.794 43.1548 47.7099 43.2841 47.5341 43.3926C47.3389 43.5055 47.1159 43.5621 46.8898 43.5561C46.6651 43.5597 46.4436 43.5033 46.2486 43.3926C46.2206 43.3743 46.1923 43.3546 46.1638 43.3347C46.0327 43.2435 45.8943 43.1473 45.744 43.1473C45.6155 43.1473 45.4894 43.2333 45.3685 43.3157C45.3227 43.3469 45.2776 43.3776 45.2334 43.4029C45.0727 43.4995 44.8534 43.5561 44.6071 43.5561C44.3578 43.5561 44.1445 43.4966 43.9673 43.3926C43.7901 43.2841 43.7015 43.1548 43.7015 43.0061C43.7015 42.8531 43.7901 42.7238 43.9673 42.6198C44.1613 42.5081 44.3827 42.4515 44.6071 42.4563ZM45.7317 39.6519C45.5305 39.6743 45.4179 39.5895 45.3413 39.5151V39.5167C44.1729 38.5105 34.8587 30.5995 30.9976 30.5995C27.1424 30.5995 17.8267 38.5105 16.6598 39.5151C16.6103 39.5671 16.5491 39.6065 16.4813 39.6302C16.4133 39.654 16.3408 39.6615 16.2693 39.6519C15.9765 39.6163 15.9659 39.1749 15.9659 39.1749C15.9659 39.1749 15.8999 38.1703 15.8999 37.1581C15.8999 35.8889 16.9061 34.7698 16.9061 34.7698C16.9061 34.7698 27.3451 23.3885 30.9976 23.3885C34.6544 23.3885 45.0951 34.7698 45.0951 34.7698C45.0951 34.7698 46.0997 35.8889 46.0997 37.1581C46.0997 38.1732 46.0291 39.1763 46.0291 39.1763C46.0291 39.1763 46.0216 39.6163 45.7317 39.6519Z" fill="#333333"/>
</g>
</svg>
