<svg width="62" height="62" viewBox="0 0 62 62" fill="none" xmlns="http://www.w3.org/2000/svg">
<g id="3c8aaa836e04064ecae3b6449d4b66a8_1650384682">
<path id="Vector" fill-rule="evenodd" clip-rule="evenodd" d="M31.0006 34.7123C36.5682 34.7123 41.082 30.266 41.082 24.7826C41.082 19.2993 36.5682 14.8542 31.0006 14.8542C25.4329 14.8542 20.9193 19.3006 20.9193 24.7826C20.9193 30.266 25.4329 34.7123 31.0006 34.7123ZM31.0006 34.3273C36.3525 34.3273 40.6914 30.0548 40.6914 24.7826C40.6914 19.5116 36.3525 15.2393 31.0006 15.2393C25.6488 15.2393 21.3099 19.5116 21.3099 24.7826C21.3099 30.0535 25.6488 34.3273 31.0006 34.3273ZM24.7273 40.638C24.5933 40.4901 24.4742 40.4292 24.3726 40.4553C24.3305 40.4666 24.0862 40.6367 23.8394 41.0863C23.8099 41.1404 23.8254 41.1548 23.8396 41.168C23.8477 41.1753 23.8551 41.1823 23.8542 41.1956C24.9157 41.4254 24.2474 42.9281 22.0513 43.0064C21.2031 43.0349 21.0295 42.7034 21.5974 42.0463L23.5356 39.8046H21.5367L21.2577 40.1313L20.872 39.9201C19.539 39.2121 17.0801 40.3846 16.3485 41.6216L16.1302 41.9942C16.0049 42.2053 15.6714 42.2749 15.1307 42.2066C14.8431 42.1693 14.6497 42.1395 14.5107 42.0177C14.4636 41.9805 14.4698 41.8724 14.5269 41.8104L16.1537 40.0505L16.5456 39.8865C18.3586 39.1276 20.5545 37.2498 20.6191 36.4512C20.6971 35.4986 19.1905 36.0836 17.4645 37.5019C16.9995 37.8832 16.4377 38.4037 16.0881 38.7277L13.2732 41.3533C13.2571 41.366 13.0842 41.2238 12.9602 41.1217L12.9322 41.0987C12.3792 40.6429 11.5905 41.3819 12.3593 41.9631C12.5203 42.0852 12.3524 42.1562 12.2072 42.2177C12.1589 42.2381 12.1131 42.2575 12.0828 42.2774C12.0667 42.2885 10.4038 42.8312 10.0777 42.6003C9.90903 42.4811 9.95863 42.2028 10.2761 41.8339L12.0171 39.7971L12.5255 39.5959C13.4907 39.2085 14.3923 38.678 15.2002 38.0224C16.31 37.1194 16.7787 36.3531 16.3956 36.0986C15.7471 35.6675 13.4902 36.7878 12.125 37.9428C11.531 38.4459 10.8477 39.1338 10.0727 40.007L8.24989 42.0327C7.85309 42.4736 6.67134 42.7344 6.73087 42.1829C6.74327 42.0712 6.99127 41.7806 7.26035 41.4663L11.9948 35.9333H10.0616L9.81727 36.2178C9.80818 36.2285 9.7987 36.2401 9.78886 36.2521C9.70731 36.3522 9.60018 36.4837 9.47627 36.383C8.6839 35.7396 7.47363 35.7147 5.84549 36.3121C4.61292 36.763 -0.264079 39.2817 0.0112049 41.9631C0.172408 43.5193 1.74724 43.677 3.47086 42.902L3.9805 42.6724C4.16526 42.5903 4.2868 42.7009 4.27564 42.8312C4.23472 43.3691 4.76916 43.4958 5.81325 43.2672C6.37622 43.1455 6.91811 42.994 7.39799 42.8325C7.46991 42.8077 7.56913 42.8201 7.58401 42.9046C7.66089 43.2884 8.05893 43.4474 8.75334 43.3691C9.58167 43.2747 10.4584 43.071 11.0809 42.8723C11.562 42.7195 11.6984 42.7667 11.3747 43.1455L10.3083 44.3912C8.9009 45.9164 7.91509 46.3076 7.06815 46.407C6.18774 46.5087 5.59129 46.2628 5.27509 45.6655C5.06429 45.6269 4.82124 45.7536 4.5472 46.0505C4.54536 46.0687 4.54536 46.087 4.5472 46.1051C5.47969 46.9086 6.59074 47.2477 7.88037 47.1198C8.7893 47.0292 10.0268 46.7348 11.1912 45.4879L13.8052 42.6474C13.8821 42.5642 14.0023 42.5481 14.1115 42.5605C14.7067 42.6288 15.1927 42.676 15.9021 42.5841C15.929 42.5827 15.9556 42.5892 15.9788 42.6029C16.0019 42.6166 16.0205 42.6368 16.0323 42.6611C16.2269 43.0958 16.5704 43.3392 17.0639 43.3901C17.6666 43.451 18.247 43.2473 18.7937 43.0126C18.8811 42.9741 18.941 43.0614 18.9675 43.1L18.9724 43.107C19.1212 43.328 19.2736 43.3678 19.5514 43.3678H20.4666C21.7971 43.3678 22.6441 43.3218 23.0954 43.1853C24.2324 42.8412 24.8537 42.2787 24.9604 41.4973C25.0063 41.1496 24.9294 40.8616 24.7273 40.638ZM19.4646 36.6661C20.1094 36.6438 18.9636 37.964 18.3325 38.503C17.3578 39.3339 16.8246 39.6617 16.754 39.4729C16.6473 39.1886 19.0654 36.6798 19.4646 36.6661ZM12.6631 39.0569C12.7747 38.7538 15.0601 36.3518 15.5053 36.5555C16.0521 36.8052 13.856 39.0991 12.7239 39.2532C12.7053 39.2556 12.5986 39.2333 12.6631 39.0569ZM2.72933 40.4343C3.15093 38.4037 6.31546 36.5381 7.86797 36.3481C8.8699 36.224 9.1861 36.9543 8.7087 37.5156L5.96578 40.7199C4.41948 42.527 2.39452 42.0376 2.72933 40.4343ZM20.2793 41.275L19.725 41.9222C19.3765 42.3307 18.9091 42.681 18.4627 42.7083C18.0026 42.7369 17.7596 42.5642 17.7348 42.1867C17.6554 41.0006 20.2693 39.2481 20.6736 40.3821C20.7818 40.6896 20.5835 40.9206 20.3303 41.2156L20.2793 41.275ZM61.8336 39.8964L60.9569 40.2194C60.6481 40.6367 60.1632 40.9671 59.6214 40.8552C59.4589 40.8224 59.457 40.7752 59.4528 40.6726C59.4483 40.5615 59.4412 40.3858 59.2246 40.0939C58.4744 39.0917 55.5542 39.894 55.0656 42.06C55.0135 42.2873 52.7096 43.2585 52.1454 42.1854C52.1217 42.1407 52.1082 42.0774 52.1589 42.0489C52.2261 42.0097 52.3394 41.9671 52.4904 41.9101C52.6321 41.8568 52.8073 41.7907 53.0083 41.7036C54.0748 41.244 54.8436 40.3784 54.5683 39.9313C54.0587 39.1041 51.1186 40.2777 50.5482 42.296C50.4763 42.553 48.3187 42.8288 48.8902 42.1606L49.9294 40.9459C50.4205 40.3722 50.4353 39.4382 49.0664 39.7748C48.4348 39.9295 47.9945 40.0766 47.7135 40.1704C47.4534 40.2573 47.3299 40.2985 47.3179 40.2578C47.3112 40.2354 47.3097 40.2045 47.3079 40.169C47.2979 39.9569 47.28 39.5805 46.0854 39.8517C45.6355 39.9543 45.2539 40.0495 44.9556 40.1239C44.4988 40.2378 44.2374 40.3031 44.2254 40.2715C44.2145 40.2412 44.2198 40.1944 44.2259 40.1407C44.2548 39.8873 44.3011 39.4806 42.7434 39.9276C42.1823 40.088 41.6507 40.2625 41.2589 40.3911C40.9325 40.4982 40.7031 40.5735 40.6354 40.5821C40.0836 39.7648 39.4636 39.5438 38.36 39.7872C37.1783 40.043 36.2632 40.9335 36.0449 42.127C35.9904 42.4276 33.932 43.0064 34.2829 42.3295C34.3205 42.2575 34.3582 42.187 34.3963 42.1159C34.5563 41.8173 34.7222 41.5078 34.9116 41.0193C34.9396 40.9477 34.984 40.7805 35.025 40.6264C35.0637 40.4805 35.0992 40.3465 35.1149 40.3162C35.1369 40.2752 35.2739 40.225 35.3976 40.1798C35.4271 40.1691 35.4557 40.1586 35.482 40.1486C36.2855 39.8393 36.8522 39.4134 37.1783 38.8693C37.4009 38.4952 37.5303 38.073 37.5555 37.6383C37.5808 37.2036 37.5011 36.7692 37.3234 36.3717C37.2823 36.2811 37.2404 36.2086 37.2054 36.1483C37.0968 35.9606 37.0557 35.8896 37.3184 35.7495L37.6247 35.5855C38.143 35.3099 37.5751 35.3371 36.8844 35.66C36.7422 35.7259 36.5723 35.6317 36.3983 35.5355C36.3521 35.5099 36.3056 35.4842 36.2594 35.4614C33.6045 34.1598 28.7462 35.1124 27.5868 38.2968C26.808 40.4343 28.7338 41.1881 29.8883 40.8143C31.6156 40.2529 32.4774 38.2707 31.5647 37.1952L30.1363 38.4011C30.1374 38.4011 30.2293 38.6558 30.2552 38.7837C30.5318 40.1313 28.8429 41.1956 28.0642 39.9387C27.3747 38.8246 28.7858 36.6064 31.6726 36.0053C32.9958 35.7321 34.7453 35.8663 35.3728 36.5916C35.4462 36.6764 35.0903 37.0147 34.7252 37.3618C34.6147 37.4667 34.5035 37.5723 34.4032 37.6721C34.2391 37.832 34.0674 37.9837 33.8886 38.1266C33.3888 37.8534 31.6726 38.0397 32.2319 39.2904L32.3918 39.6307C32.4662 39.8033 30.4735 41.4626 30.1126 41.6625C29.2745 42.1321 28.4758 42.1681 27.6649 41.7433L27.252 41.5272L25.8532 42.7903C26.8576 43.5317 28.5936 43.7205 29.892 42.871C30.321 42.5853 31.318 41.6017 32.1402 40.69C32.1779 40.6479 32.2196 40.5995 32.2631 40.5489C32.4297 40.3552 32.625 40.1283 32.744 40.084C32.7952 40.0653 32.8648 40.1034 32.9611 40.1559C33.0376 40.1978 33.1309 40.2487 33.2449 40.2877C33.3649 40.3324 33.5025 40.3556 33.618 40.3751C33.7532 40.398 33.8579 40.4157 33.8687 40.4566C33.9145 40.6267 33.1991 41.5595 32.7899 42.0562C31.9653 43.0535 32.0917 43.5156 33.1694 43.4436C33.6778 43.41 34.5582 43.2238 35.5588 42.835C35.7026 42.7774 35.7923 42.736 35.8521 42.7085C35.9313 42.672 35.9582 42.6597 35.9879 42.666C36.0233 42.6735 36.1017 42.7555 36.1975 42.8559C36.2628 42.9241 36.3363 43.0012 36.4095 43.0685C37.2217 43.8349 39.4314 43.2983 40.2448 41.5856L40.4308 41.1906C40.5227 40.9956 42.6778 40.2268 41.7292 41.3347L39.9882 43.3691H41.7242L43.671 41.0963C44.0381 40.6652 45.4567 40.5449 44.9756 41.1098L43.041 43.3702H44.7845L46.7041 41.1335C47.0464 40.736 48.5306 40.5522 48.0397 41.126L46.8777 42.4835C46.1771 43.3032 47.5163 43.7714 49.8762 42.8436L50.2978 42.6797C50.4267 42.6288 50.5631 42.6127 50.5954 42.6972C50.9127 43.4249 51.8515 43.5293 52.9786 43.266C53.3433 43.1827 54.0946 42.8971 54.6526 42.5928C55.0258 42.3914 55.0442 42.4326 55.0914 42.5379C55.0982 42.5534 55.1059 42.5702 55.1152 42.5879C55.7624 43.8745 58.0329 43.5442 59.2159 41.6625C59.2827 41.5564 59.3339 41.4705 59.3743 41.4025C59.4645 41.2511 59.5014 41.1889 59.5408 41.1906C60.5228 41.2192 61.2024 40.8864 61.4293 40.7223C61.7021 40.5312 61.9749 40.2777 61.9997 39.9101C62.0049 39.841 61.9253 39.867 61.8662 39.8864C61.8542 39.8904 61.8431 39.894 61.8336 39.8964ZM54.0078 40.1213C54.3178 40.5411 52.433 42.0998 52.2619 41.557C52.1689 41.2589 53.673 39.6717 54.0078 40.1213ZM35.6853 37.0561C35.9854 37.1666 36.2136 38.457 35.4398 39.1625C35.2414 39.3437 35.0889 39.4282 34.986 39.4146C34.9765 39.4137 34.9599 39.3676 34.9335 39.2952C34.8871 39.1674 34.8112 38.9578 34.6933 38.77C34.5791 38.5899 34.4367 38.4292 34.2717 38.2944C34.2431 38.2695 35.5874 37.02 35.6853 37.0561ZM32.7427 39.237C32.6699 39.1976 32.6116 39.1358 32.5766 39.0606C32.3745 38.5738 33.1966 38.4818 33.2661 38.7228C33.2847 38.7923 32.8333 39.2842 32.7427 39.237ZM33.8029 39.7412C33.6231 39.7661 33.2635 39.6418 33.2549 39.5425C33.2475 39.4717 33.3963 39.2891 33.5091 39.1798C33.5797 39.109 33.6665 39.0221 33.7757 39.0557C33.9295 39.1028 34.18 39.6865 33.8029 39.7412ZM40.013 40.7075L39.8034 40.895C39.5827 41.0974 39.4698 41.2453 39.4661 41.3372C39.4626 41.405 39.474 41.4727 39.4996 41.5356C39.525 41.5985 39.564 41.6549 39.6137 41.701C39.9869 42.0662 38.3675 42.9555 38.0934 41.9109C37.8926 41.1472 39.2342 39.7673 39.9076 40.3709C40.065 40.5137 40.1022 40.6267 40.013 40.7075ZM59.0658 40.7274C58.982 40.7936 58.8829 40.8506 58.7832 40.9079C58.5336 41.0514 58.2803 41.197 58.2537 41.4962C58.2507 41.5986 58.2778 41.6997 58.3318 41.7868L58.421 41.9073C58.6157 42.1693 57.243 42.789 57.0496 41.9073C56.8909 41.1869 58.1297 39.786 58.8973 40.3175C58.9741 40.3697 59.0262 40.4292 59.0534 40.4963C59.103 40.6181 59.1068 40.6951 59.0658 40.7274ZM38.0686 24.783C38.0686 28.617 34.893 31.743 31.0005 31.743C27.1081 31.743 23.9324 28.617 23.9324 24.783C23.9324 20.9503 27.1081 17.8242 31.0005 17.8242C34.893 17.8242 38.0686 20.9503 38.0686 24.783ZM37.6756 24.783C37.6756 28.3823 34.7205 31.3245 31.0774 31.3741V18.1918C34.7205 18.2428 37.6756 21.1838 37.6756 24.783ZM28.5874 18.6315C29.133 18.3545 29.9974 18.1955 30.7873 18.1918V23.8851H28.5874V18.6315ZM30.7873 31.373C29.949 31.3493 29.2856 31.1804 28.5874 30.9247L28.5887 25.7405H30.7873V31.373ZM24.3478 23.8864C24.5537 22.1873 25.5977 20.6026 26.6889 19.738L26.6667 23.8864H24.3478ZM26.6889 29.8279C25.392 28.7773 24.7149 27.5092 24.3378 25.7443L26.6927 25.7405L26.6889 29.8279ZM32.5974 22.0059C32.5961 22.1027 32.5948 22.2037 32.6669 22.2616C32.7191 22.305 32.9955 22.5472 32.9782 22.5472C32.9286 22.5882 32.8756 22.6435 32.8225 22.6988C32.7696 22.754 32.7165 22.8092 32.6669 22.8503C32.5971 22.9083 32.5973 23.006 32.5975 23.101V23.1148C32.5975 23.1709 32.5983 23.2298 32.5991 23.2893C32.6008 23.4105 32.6024 23.5344 32.5975 23.6426C32.5962 23.6799 32.5615 23.7209 32.5318 23.7419C32.4505 23.7998 32.369 23.856 32.2875 23.9122C32.206 23.9684 32.1244 24.0246 32.0433 24.0823C31.8721 24.2413 31.7096 23.9905 31.8126 23.8811C31.8537 23.8501 31.9026 23.8151 31.9531 23.7791C32.0887 23.6824 32.2343 23.5784 32.2614 23.5259C32.3024 23.4472 32.2966 23.1956 32.2919 22.9924L32.29 22.9037C32.2565 22.7769 32.0643 22.7124 31.8907 22.7497C31.8612 22.7556 31.8393 22.7711 31.8162 22.7875C31.7866 22.8085 31.7548 22.8309 31.7023 22.8378C31.1045 22.9087 31.1839 22.2032 31.7023 22.274C31.7548 22.2824 31.7866 22.3046 31.8159 22.3252C31.8393 22.3415 31.8612 22.3568 31.8907 22.3634C32.0643 22.3994 32.2565 22.3348 32.29 22.2081L32.2919 22.1195C32.2966 21.9163 32.3024 21.6646 32.2614 21.5859C32.2343 21.5335 32.0887 21.4295 31.9531 21.3327C31.9027 21.2968 31.8535 21.2617 31.8126 21.2307C31.7085 21.1227 31.8721 20.8706 32.0433 21.0296C32.1301 21.092 32.2171 21.1518 32.3043 21.2117C32.38 21.2638 32.4562 21.3161 32.5318 21.3698C32.5615 21.391 32.5975 21.4332 32.5975 21.468C32.6024 21.5779 32.6008 21.7018 32.5991 21.8228C32.5983 21.8821 32.5975 21.9411 32.5975 21.997L32.5974 22.0059ZM32.9499 21.9854C33.1178 21.9884 33.2746 21.9943 33.4278 22.0001C33.7221 22.0111 34.0033 22.0217 34.325 22.0102C34.4776 22.004 34.7367 21.9071 34.7045 21.7408C34.6722 21.5707 34.7156 21.5271 34.8744 21.5234C35.003 21.5202 35.1317 21.5217 35.26 21.5231C35.3793 21.5244 35.4984 21.5258 35.6172 21.5234C35.8218 21.5185 35.8825 21.4477 35.9396 21.3807C35.9945 21.3141 36.0615 21.3675 36.1204 21.4144C36.1319 21.4235 36.1433 21.4324 36.154 21.4402C37.0915 22.1022 37.2453 22.9431 37.0506 23.6347C36.8125 24.4818 36.0052 24.9699 35.4609 24.9885H33.1173L33.1049 25.463H35.4733C36.0586 25.4581 36.4976 25.8071 36.4901 26.531C36.4467 27.2527 35.9817 27.6241 35.4485 27.6228C35.2436 27.6225 35.0387 27.6217 34.8337 27.6211C34.2693 27.6191 33.7045 27.6173 33.1395 27.6228C32.9039 27.6252 32.8556 28.0612 33.1395 28.0612L33.4819 28.063C33.9382 28.0655 34.3945 28.0681 34.8508 28.0612C35.1658 28.0575 35.4224 28.3482 35.3989 28.7592C35.3816 29.0622 35.2005 29.3305 34.8037 29.3305C34.4515 29.3329 34.1006 29.3329 33.7497 29.3305C33.4991 29.3305 33.5228 29.7527 33.7794 29.754C33.8632 29.754 33.9437 29.7523 34.023 29.7507C34.1781 29.7473 34.3288 29.7442 34.4912 29.754C34.7094 29.7677 34.759 29.9776 34.6474 30.1627C34.5619 30.3043 34.4168 30.2806 34.3846 30.1378C34.3585 30.0298 34.3176 30.0185 34.2407 30.0198C34.1651 30.021 34.0895 30.0205 34.0137 30.0198C33.9379 30.0192 33.8619 30.0185 33.7856 30.0198C33.4422 30.026 33.2276 29.8385 33.2263 29.5565C33.2239 29.2113 33.4247 29.0126 33.7026 29.0113C33.8421 29.0101 33.9814 29.0109 34.1209 29.0117C34.2803 29.0125 34.4397 29.0134 34.5991 29.0113C34.8533 29.0076 34.9934 28.9281 34.9822 28.7853C34.9674 28.6002 34.8334 28.5581 34.6722 28.5605C34.1696 28.5667 33.667 28.5667 33.1643 28.5605C32.6287 28.5543 32.3224 28.2748 32.3149 27.7408C32.3087 27.2279 32.6213 26.8925 33.0093 26.8875C33.4412 26.8815 33.8734 26.8838 34.3058 26.8863C34.663 26.8883 35.0204 26.8904 35.3778 26.8875C35.7213 26.8838 35.7337 26.4069 35.4126 26.4118C34.6798 26.4229 33.9471 26.4183 33.2134 26.4136L32.9375 26.4118C32.6535 26.4158 32.3795 26.3071 32.1754 26.1092C31.9715 25.9113 31.8539 25.6406 31.8488 25.3561C31.8401 24.6643 32.3324 24.0049 32.9845 24.0023C33.2438 24.0023 33.4905 24.0016 33.7333 24.0007C34.2072 23.9991 34.666 23.9974 35.172 24.0023C35.4026 24.0061 35.6432 23.8769 35.596 23.5404C35.5638 23.3007 35.3816 23.2014 35.1434 23.2076H32.9734C32.9672 22.9057 33.1731 22.8002 33.4397 22.8163H34.5755C34.7814 22.8325 34.738 22.3717 34.5755 22.3654H33.2723C33.0553 22.3643 32.9251 22.1991 32.9499 21.9854ZM35.0653 20.9211C35.162 20.9211 35.2402 20.6429 35.2402 20.3C35.2402 19.9572 35.162 19.6791 35.0666 19.6791C34.9748 19.6791 34.9006 19.9226 34.8914 20.2348H34.7072C34.698 19.9226 34.6239 19.6791 34.5334 19.6791C34.4428 19.6791 34.3687 19.9226 34.3595 20.2348H34.174C34.1648 19.9226 34.0907 19.6791 34.0014 19.6791C33.9097 19.6791 33.8355 19.9226 33.8263 20.2348H33.6718C33.6626 19.9226 33.5885 19.6791 33.4991 19.6791C33.4075 19.6791 33.3333 19.9226 33.3241 20.2348H33.1399C33.1307 19.9226 33.0565 19.6791 32.9659 19.6791C32.8755 19.6791 32.8012 19.9226 32.7921 20.2348L32.7913 20.2771C32.7912 20.2847 32.7912 20.2923 32.7912 20.3C32.7912 20.3078 32.7912 20.3155 32.7913 20.3232V20.9775H35.0518V20.9193C35.0562 20.9204 35.0607 20.9211 35.0653 20.9211ZM23.3858 24.0948L23.4799 23.3311L23.8594 23.2391L23.9338 22.6467L21.7464 23.1807L21.672 23.7856L23.6586 24.8749L23.7304 24.2899L23.3858 24.0948ZM22.3577 23.5682L23.0484 23.4279L22.9914 23.8887L22.3577 23.5682ZM23.9834 21.4358L22.4656 20.7924L22.2375 21.2656L24.1843 22.0916L24.6878 21.0483L24.2587 20.8657L23.9834 21.4358ZM24.2425 19.1592L24.6605 18.6749L24.322 18.3792L23.5568 19.2648L25.0945 20.6062L25.4417 20.205L24.8366 19.6784L25.2172 19.2375L24.8787 18.9419L24.498 19.3828L24.2425 19.1592ZM26.668 18.6413L27.2918 18.2538L27.5968 18.4774L28.0792 18.1768L26.3109 16.8951L25.8186 17.2019L26.265 19.3083L26.7424 19.0102L26.668 18.6413ZM26.4089 17.5732L26.9483 17.9955L26.5726 18.229L26.4089 17.5732ZM30.9445 16.855C30.9442 16.8552 30.9447 16.855 30.9445 16.855V16.855ZM31.6603 17.6862L30.9445 16.855C31.0738 16.8156 31.1854 16.7323 31.2599 16.6194C31.3335 16.5025 31.3658 16.3643 31.3516 16.2269C31.3354 16.0071 31.261 15.8431 31.1246 15.735C30.9882 15.6282 30.8196 15.5824 30.6162 15.5985L29.7755 15.6655L29.9355 17.8229L30.4749 17.7794L30.4129 16.9522L30.9907 17.7384L31.6603 17.6862ZM30.4414 16.5846L30.3856 16.5896L30.3472 16.0568C30.3679 16.055 30.3885 16.0537 30.4092 16.053C30.5049 16.0439 30.6013 16.0592 30.6894 16.0977C30.7551 16.1263 30.7911 16.1897 30.7985 16.2877C30.806 16.3908 30.7787 16.4616 30.7142 16.4989C30.6316 16.5493 30.538 16.5786 30.4414 16.5846ZM32.6498 16.1942C32.5602 16.3097 32.4956 16.4426 32.4601 16.5846C32.4173 16.7247 32.404 16.8723 32.4211 17.0179C32.4381 17.1635 32.4853 17.304 32.5593 17.4303C32.6337 17.5594 32.733 17.6723 32.8513 17.7624C32.9698 17.8527 33.1049 17.9183 33.2488 17.9558C33.3901 18.0014 33.5392 18.0179 33.6871 18.0045C33.8349 17.9911 33.9786 17.9479 34.1094 17.8775C34.2379 17.8091 34.3508 17.7144 34.4406 17.5994C34.5303 17.4846 34.5948 17.3521 34.6302 17.2105C34.673 17.0697 34.6863 16.9216 34.6692 16.7755C34.6522 16.6293 34.605 16.4882 34.531 16.3611C34.4571 16.2314 34.3579 16.1179 34.2396 16.0272C34.1212 15.9365 33.9858 15.8707 33.8415 15.8332C33.7001 15.7876 33.5509 15.7712 33.403 15.7852C33.2551 15.799 33.1115 15.8429 32.981 15.9139C32.8524 15.9833 32.7395 16.0787 32.6498 16.1942ZM32.9734 16.9639C32.9644 16.888 32.9707 16.8109 32.9921 16.7374C33.0114 16.6635 33.0456 16.5943 33.0925 16.5341C33.1394 16.4739 33.198 16.4239 33.2649 16.3871C33.33 16.3486 33.4025 16.324 33.4777 16.3151C33.5528 16.3061 33.6291 16.3129 33.7014 16.335C33.775 16.355 33.8439 16.39 33.9033 16.438C33.9628 16.4859 34.0119 16.5454 34.0474 16.6131C34.0853 16.68 34.1093 16.7539 34.1181 16.8302C34.1269 16.9067 34.12 16.9841 34.0982 17.0578C34.0788 17.1313 34.0446 17.2 33.9976 17.2598C33.9507 17.3197 33.8922 17.3693 33.8254 17.4055C33.7602 17.4439 33.6877 17.4682 33.6125 17.477C33.5373 17.4858 33.4613 17.4788 33.3889 17.4564C33.3158 17.4362 33.2478 17.4012 33.1886 17.3535C33.1296 17.3058 33.0809 17.2467 33.0455 17.1795C33.0071 17.1132 32.9826 17.0399 32.9734 16.9639ZM36.5485 17.2664L34.8645 18.5755L35.2837 18.9171L36.2336 18.147L35.7996 19.3368L35.9681 19.4735L37.1722 18.9096L36.4816 19.8907L36.9032 20.2348L38.0675 18.5022L37.6447 18.1595L36.5447 18.6935L36.9663 17.6055L36.5485 17.2664ZM38.8389 20.5527L39.1686 21.1005L39.5754 20.8744L38.9678 19.8646L37.1251 20.8955L37.7327 21.9052L38.1383 21.678L37.8084 21.129L38.1259 20.9514L38.4383 21.4706L38.8451 21.2432L38.5325 20.7241L38.8389 20.5527ZM39.6167 22.2984C39.471 22.2684 39.3208 22.2678 39.1748 22.2964C39.0296 22.3172 38.8891 22.3677 38.7642 22.4446C38.6393 22.5216 38.5316 22.6235 38.4476 22.7439C38.3637 22.8643 38.3053 23.0008 38.2762 23.1447C38.247 23.2886 38.2478 23.437 38.2783 23.5806C38.3033 23.7275 38.3575 23.8678 38.4375 23.9932C38.5176 24.1186 38.6221 24.2266 38.7447 24.3108C38.8673 24.395 39.0055 24.4538 39.1512 24.4834C39.2969 24.5131 39.447 24.5132 39.5928 24.4836C39.739 24.463 39.8794 24.4126 40.0055 24.3355C40.1316 24.2584 40.2405 24.1562 40.3256 24.0353C40.4104 23.9154 40.4693 23.7791 40.4984 23.6353C40.5275 23.4912 40.526 23.3428 40.4943 23.1994C40.4679 23.0528 40.4128 22.913 40.3319 22.7879C40.251 22.6629 40.1462 22.5552 40.0233 22.4711C39.9006 22.3871 39.7623 22.3283 39.6167 22.2984ZM39.0634 22.9121C39.1288 22.8716 39.2017 22.8446 39.2778 22.833C39.4329 22.8036 39.592 22.8365 39.723 22.925C39.7873 22.9649 39.8426 23.018 39.8854 23.0806C39.9281 23.1433 39.9572 23.2142 39.971 23.2888C39.9863 23.3625 39.9855 23.4384 39.9688 23.5118C39.952 23.585 39.9199 23.6539 39.8743 23.7135C39.8289 23.7762 39.7717 23.8291 39.7056 23.8693C39.6396 23.9093 39.5662 23.9358 39.4899 23.9471C39.3363 23.9756 39.1778 23.9425 39.0484 23.8551C38.912 23.7657 38.8301 23.6452 38.8004 23.4912C38.7856 23.418 38.7866 23.3424 38.8032 23.2697C38.8199 23.1969 38.8519 23.1284 38.8971 23.069C38.9414 23.006 38.998 22.9526 39.0634 22.9121Z" fill="#333333"/>
</g>
</svg>
