<svg width="62" height="62" viewBox="0 0 62 62" fill="none" xmlns="http://www.w3.org/2000/svg">
<g id="c87263427f9a9e5c86b36ed7ab2b8668_1650382246">
<path id="Vector" fill-rule="evenodd" clip-rule="evenodd" d="M31.0363 21.1095C33.6597 21.1502 36.1616 22.2097 38.0023 24.0594C39.8429 25.909 40.8745 28.4004 40.8745 30.996C40.8745 33.5915 39.8429 36.083 38.0023 37.9325C36.1616 39.7822 33.6597 40.8417 31.0363 40.8826C28.3858 40.8826 25.8438 39.8408 23.9696 37.9868C22.0954 36.1327 21.0424 33.618 21.0424 30.996C21.0424 28.3739 22.0954 25.8592 23.9696 24.0051C25.8438 22.1511 28.3858 21.1095 31.0363 21.1095ZM31.0363 41.6775C32.4542 41.678 33.8583 41.4021 35.1685 40.8656C36.4786 40.3292 37.6691 39.5426 38.6719 38.551C39.6747 37.5592 40.4702 36.3819 41.0129 35.086C41.5556 33.79 41.835 32.4011 41.835 30.9983C41.8355 29.5955 41.5565 28.2062 41.0142 26.9098C40.4717 25.6135 39.6764 24.4356 38.6737 23.4435C37.6711 22.4514 36.4805 21.6644 35.1703 21.1274C33.86 20.5905 32.4557 20.3143 31.0375 20.3145C29.6195 20.3145 28.2152 20.5909 26.9052 21.1278C25.595 21.6648 24.4046 22.4518 23.4022 23.4439C22.3996 24.436 21.6044 25.6139 21.062 26.9101C20.5197 28.2063 20.2408 29.5956 20.2413 30.9983C20.24 36.8967 25.074 41.6775 31.0363 41.6775Z" fill="#333333"/>
<path id="Vector_2" fill-rule="evenodd" clip-rule="evenodd" d="M18.7054 26.7417C18.4719 27.406 18.2932 28.0878 18.1714 28.7808H3.90845C3.29777 28.1134 2.7012 27.4336 2.11913 26.7417H18.7054ZM19.7035 37.4183H13.4716C12.5807 36.7609 11.7067 36.0813 10.8504 35.3803H18.751C19.0095 36.0865 19.3294 36.7669 19.7035 37.4183ZM31.0376 19.8182C37.278 19.8182 42.3384 24.8242 42.3384 31.0002C42.3384 37.1688 37.278 42.1735 31.0376 42.1735C24.7983 42.1735 19.7367 37.1688 19.7367 31.0002C19.7367 24.8242 24.797 19.8182 31.0376 19.8182ZM43.3253 35.3803H51.1545C50.2984 36.0816 49.4245 36.7611 48.5333 37.4183H42.3727C42.7469 36.7669 43.0656 36.0865 43.3253 35.3803ZM59.8845 26.7417C59.3018 27.4331 58.7053 28.1129 58.0953 28.7808H43.9025C43.7826 28.0877 43.6047 27.4057 43.3708 26.7417H59.8845ZM53.7807 33.099H43.9234C44.0341 32.4366 44.0919 31.7549 44.0957 31.0646H55.9097C55.2131 31.7557 54.5033 32.4347 53.7807 33.099ZM8.22302 33.099C7.50068 32.4339 6.7909 31.7558 6.09404 31.0646H17.9818C17.9843 31.7549 18.041 32.4366 18.1505 33.0977L8.22302 33.099ZM1.68349 26.7417C2.17573 27.3309 2.76891 28.0223 3.45805 28.7808H3.45436C4.09429 29.4868 4.81789 30.2563 5.62025 31.0646H5.62394C6.27741 31.7172 6.98009 32.4038 7.73201 33.0977H7.72831C8.57508 33.8793 9.44087 34.6403 10.3249 35.3803H10.3286C11.1482 36.0645 12.0109 36.7438 12.9129 37.4183H12.9092C13.9433 38.1879 15.0043 38.9212 16.0904 39.6169H21.3156C22.5382 40.971 24.0362 42.0542 25.7118 42.7953C27.3872 43.5364 29.2023 43.9185 31.0376 43.9168C34.898 43.9168 38.3696 42.2563 40.7594 39.6169H45.9109C55.7521 33.3108 62 24.6185 62 24.6185H42.395C41.2548 22.6331 39.6028 20.9825 37.6073 19.8349C35.6119 18.6872 33.3445 18.0837 31.0363 18.0859C28.7287 18.0839 26.4619 18.6875 24.467 19.8351C22.4722 20.9828 20.8208 22.6334 19.6814 24.6185H0C0 24.6185 0.585776 25.4305 1.6798 26.7417H1.68349Z" fill="#333333"/>
<path id="Vector_3" fill-rule="evenodd" clip-rule="evenodd" d="M29.6716 33.7951H31.0364V28.262H29.6716V33.7951ZM25.6672 33.7939L27.0701 30.541V33.7939H28.4484V28.262H26.9347L25.3473 31.9094L23.8951 28.262H22.3532V33.7939H23.5247V30.4655L24.8624 33.7951L25.6672 33.7939ZM33.4164 30.4582L36.0131 33.7939H37.0702V28.262H35.8826V31.6269L33.2675 28.262H32.2449V33.7939H33.4164V30.4582ZM38.2958 33.7951H39.6606V28.262H38.2958V33.7951Z" fill="#333333"/>
</g>
</svg>
