<svg width="62" height="62" viewBox="0 0 62 62" fill="none" xmlns="http://www.w3.org/2000/svg">
<g id="cb822749b4995afc3c8285247a5f6d98_1650382916">
<path id="Vector" d="M24.1636 25.8662C24.1636 25.8662 25.0723 25.8662 25.2225 25.9535C25.2463 25.9667 25.2685 25.9795 25.2897 25.9918C25.4089 26.061 25.4993 26.1134 25.6876 26.1134C25.9308 26.1134 26.0382 26.1353 25.9308 26.3388C25.8235 26.5424 25.5087 26.9641 25.5087 26.9641L24.0706 26.1571C23.8989 26.0262 24.0348 25.9099 24.1636 25.8662Z" fill="#333333"/>
<path id="Vector_2" fill-rule="evenodd" clip-rule="evenodd" d="M18.0248 16.574H43.9825L47.2737 20.973C44.9984 23.5107 42.9022 28.2951 41.7717 32.8904H19.8994C18.9478 28.2878 17.0089 23.438 14.798 20.9439L18.0248 16.574ZM19.6132 17.5193L26.8824 17.432C24.3327 17.7057 23.0803 17.9607 22.104 18.1594C21.4721 18.288 20.956 18.3932 20.2785 18.4646L20.1845 18.5602C19.2594 19.501 18.5526 20.2198 16.5867 21.6057L19.6132 17.5193ZM34.6811 23.1033C33.586 23.1173 32.7307 23.1495 31.8066 23.1841C31.2938 23.2033 30.7599 23.2233 30.1521 23.2414C30.1521 23.2414 28.8929 23.1542 29.4224 22.1872C29.9518 21.2201 30.1736 20.9947 30.1736 20.9947C30.1736 20.9947 30.7889 20.253 30.7675 20.0931C30.7461 19.9331 30.7675 19.8022 31.0107 19.8677C31.2541 19.9331 32.2056 19.8459 32.2056 19.8459C32.2056 19.8459 32.4917 19.6205 32.2914 19.555L32.2386 19.5413C32.1497 19.5182 32.0249 19.4856 31.9194 19.4677C31.7906 19.446 31.6762 19.4242 31.6762 19.4242C31.6208 19.4101 31.5625 19.387 31.5108 19.3664C31.4823 19.3552 31.4557 19.3446 31.4328 19.3368C31.3434 19.3478 31.2612 19.3587 31.1789 19.3697C31.0966 19.3805 31.0143 19.3914 30.9249 19.4023C30.9249 19.4023 30.703 19.4242 30.6816 19.1769C30.6729 19.0774 30.6144 18.9741 30.5663 18.8894C30.4948 18.7637 30.4464 18.6782 30.6173 18.7043C30.7552 18.7148 30.893 18.7675 31.0287 18.8194C31.1744 18.8751 31.3172 18.9297 31.4544 18.9297C31.5213 18.9297 31.6719 18.9309 31.8673 18.9324C32.5063 18.9375 33.6244 18.9464 33.8656 18.9297C34.1803 18.9079 36.4914 17.7881 36.4698 17.4027C36.4484 17.0246 36.3339 16.9956 36.1193 17.0901C35.9965 17.1441 35.7898 17.4071 35.5937 17.6565C35.4467 17.8436 35.3056 18.0228 35.2106 18.1007C34.9888 18.3044 34.259 18.5733 33.9513 18.5516C33.775 18.5391 33.5822 18.4238 33.4214 18.3278C33.3017 18.2562 33.1998 18.1953 33.1358 18.1953C33.0739 18.1953 33.0739 18.1953 33.0594 18.2103C33.037 18.2335 32.9799 18.2924 32.6063 18.4425C31.991 18.6897 30.8819 18.5298 30.8819 18.5298C30.8819 18.5298 30.3096 18.079 30.1521 18.079C29.7515 18.2826 28.1631 17.9699 28.2991 17.8535C28.2991 17.8535 27.9914 18.0135 28.3634 18.079C28.6497 18.2171 29.73 18.5298 29.8445 18.4571C29.8445 18.4571 30.1307 18.5225 29.9805 18.6607C29.823 18.7989 28.6353 18.9515 28.6353 18.9515L28.5983 18.9701C28.5236 19.0077 28.4473 19.046 28.3921 19.0896C28.3921 19.0896 27.3547 19.1115 27.3975 19.3805C27.3975 19.6496 27.462 19.7876 27.7481 19.7367C27.8138 19.7367 28.089 19.8132 28.3022 19.8724C28.4371 19.9098 28.5471 19.9403 28.5638 19.9403C28.5638 19.9403 28.7212 20.1004 28.5423 20.3476C28.342 20.5948 26.954 21.8745 26.954 21.8745C26.954 21.8745 25.8522 23.2197 25.8951 23.4451C25.905 23.5497 25.7963 23.6449 25.6834 23.7439C25.5529 23.8581 25.4169 23.9772 25.4515 24.1213C25.3442 24.3685 25.4085 25.2192 25.5373 25.2192H23.5268C23.5268 25.2192 22.8615 25.401 23.1261 25.7355C23.212 26.1426 23.4767 26.2953 23.5697 26.2735C24.0741 26.6273 24.5785 26.9667 25.1038 27.3201L25.1152 27.3279L23.6127 29.3929C23.1433 29.9086 22.5839 30.3557 22.0343 30.795C21.964 30.8513 21.8937 30.9073 21.824 30.9634C21.824 30.9634 20.4073 32.1559 20.6076 32.265C20.808 32.3522 21.7096 32.0614 21.7096 32.0614C21.7096 32.0614 21.5092 32.0831 21.9313 31.5233C22.332 30.9634 22.5466 30.9634 22.5466 30.9634C22.8113 30.738 23.0761 30.5126 23.3194 30.2872C23.72 29.8146 24.1349 29.342 24.5356 28.8984C24.5356 28.8984 24.693 28.6948 24.8433 28.673C24.9177 28.6627 25.0495 28.456 25.1868 28.2408C25.3402 28.0004 25.5002 27.7496 25.5945 27.7496C25.7948 27.7496 26.768 28.3531 26.768 28.3531C26.768 28.3531 27.9842 28.3531 28.0915 28.1495C28.1774 27.9459 27.5621 27.5679 27.5621 27.5679C27.5621 27.5679 27.3189 27.9459 27.0971 27.8805C26.8753 27.8151 26.1025 27.3642 26.1025 27.3642L26.2631 27.2213C26.5618 26.9557 26.8642 26.6868 27.1614 26.3971C27.1614 26.3971 27.8912 26.6443 28.113 26.6443C28.219 26.6443 28.7482 26.558 29.3008 26.4679C29.9045 26.3693 30.5363 26.2663 30.6745 26.2663H32.9068C32.9068 26.2663 33.7224 27.168 33.794 27.4078C33.8583 27.6551 33.8154 27.9241 33.658 28.084C33.6385 28.104 33.6068 28.1394 33.5655 28.1861C33.4254 28.3435 33.1722 28.6282 32.8853 28.8694C32.313 29.3856 31.8264 29.8364 31.3613 30.2872C30.7461 30.3527 29.6799 32.374 29.7945 32.2868C29.7086 32.2214 30.7889 31.996 30.7889 31.996C30.7889 31.6179 30.9249 31.2543 31.1395 30.9199C31.1919 30.8417 31.2818 30.807 31.3734 30.7715C31.4695 30.7344 31.5674 30.6964 31.6261 30.6072C32.1341 29.7783 32.8853 29.1238 33.6151 28.8548C33.6151 28.8548 34.9602 28.1132 34.8743 27.9313C34.867 27.914 34.8567 27.8903 34.844 27.8615C34.7086 27.5528 34.3178 26.661 34.7169 26.7607C35.1176 26.5135 37.4787 27.5896 37.5216 27.8151C37.8078 28.2186 38.0958 28.6221 38.3837 29.0256C38.6717 29.4292 38.9598 29.8328 39.246 30.2363C39.618 31.3124 40.3979 32.1196 41.5641 32.7303C41.4783 32.4832 41.3853 32.2141 41.3208 31.9669C41.3208 31.9669 41.3422 31.4943 41.0561 31.4506C40.2771 31.3305 40.2686 31.2883 40.2007 30.9515C40.1781 30.8398 40.149 30.6955 40.083 30.5054C39.4678 29.7637 38.738 28.6876 38.5162 27.9459C38.5162 27.9459 38.6521 27.6551 38.4946 27.4733C38.3511 27.2876 38.1004 27.1806 37.9435 27.1135L37.9009 27.0952C37.7434 27.0298 37.1711 26.579 37.0852 26.3536C36.9993 26.1282 36.248 23.9977 36.4914 23.9031C36.7346 23.816 36.7775 23.8595 36.7775 23.8595C36.8205 23.6487 34.7885 22.8852 34.6811 23.1033Z" fill="#333333"/>
<path id="Vector_3" d="M29.3793 38.7292H30.2163L29.7942 37.2896L29.3793 38.7292Z" fill="#333333"/>
<path id="Vector_4" fill-rule="evenodd" clip-rule="evenodd" d="M41.6143 33.6319C41.0634 36.1259 40.82 38.5254 40.9989 40.4087L30.7962 45.1204L20.5219 40.2342C20.7222 38.4164 20.5433 36.0605 20.0783 33.6101H41.6143V33.6319ZM38.2584 36.6424V37.0496L37.643 37.7259L38.3514 38.242V40.1471H30.617L30.4597 39.5655H29.1574L28.9787 40.1471H28.2059L29.2336 36.6206H25.8019V40.1253H23.1046V35.8136H31.9407L32.948 39.3399H35.9473V38.1258L35.5038 37.9221L36.1692 36.6424H34.359V35.8136H38.2727V36.6424H38.2584Z" fill="#333333"/>
<path id="Vector_5" fill-rule="evenodd" clip-rule="evenodd" d="M45.6351 12.9167H16.3863L10.3333 21.1113L10.4693 21.2204L10.9343 21.7148L11.3779 22.2311L11.8144 22.791L12.2365 23.3508L12.6586 23.9617L13.0522 24.587L13.4314 25.2413L13.8034 25.9103L14.1612 26.6083L14.5117 27.3063L14.8194 28.0261L15.1271 28.7678L15.4204 29.5023L15.7065 30.2656L16.1931 31.7926L16.4149 32.578L16.5867 33.3414L16.7654 34.1267L16.9229 34.8902L17.1376 36.4171L17.2306 37.1806L17.2735 37.9441L17.2949 38.6639V39.4055L17.252 40.1253L17.2091 40.8233L17.1161 41.4923L16.9873 42.1686L16.9443 42.3431L30.7461 49.0834L44.3974 42.5685L44.3544 42.3431L44.2471 41.6523L44.1541 40.9543L44.1112 40.2345V38.7511L44.1541 37.9876L44.2471 37.2315L44.333 36.468L44.469 35.6754L44.6192 34.8902L44.7981 34.1049L44.9984 33.3195L45.2202 32.5343L45.4634 31.749L45.7282 30.9638L45.9929 30.2003L46.6082 28.6733L46.9659 27.9316L47.3166 27.1901L47.6671 26.4774L48.0678 25.7794L48.4398 25.1032L48.8619 24.4561L49.284 23.8016L49.7277 23.1982L50.1642 22.6164L50.6077 22.0493L51.0728 21.5112L51.5379 21.0168L51.6667 20.8859L45.6351 12.9167ZM17.6741 15.8105H44.3544L48.1536 20.9075L48.2395 21.0106L48.1536 21.1111L47.5168 21.8528L47.1806 22.2527L46.8729 22.7034L46.5652 23.1761L46.2575 23.6705L45.95 24.1868L45.6351 24.7249L45.349 25.2847L45.0628 25.8665L44.7765 26.4772L44.4904 27.1025L44.2256 27.7278L43.7391 29.0366L43.4958 29.6837L43.2741 30.3599L43.0523 31.0289L42.8519 31.7269L42.6801 32.4032L42.5014 33.0722L42.3439 33.7484L42.2151 34.4245L42.0791 35.0717L41.9718 35.726L41.8788 36.3515L41.793 36.984L41.75 37.6093L41.7071 38.191L41.6857 38.7509V39.318L41.7071 39.8343L41.7716 40.8886L30.796 45.9639L19.7491 40.7068L19.8348 39.6743L19.8564 39.1581V38.0601L19.8348 37.4712L19.7919 36.8676L19.7276 36.2423L19.6561 35.6098L19.5487 34.9627L19.4414 34.3082L19.3269 33.632L19.1982 32.963L19.0407 32.2868L18.8618 31.6179L18.6902 30.9417L18.5113 30.2655L18.2895 29.5966L18.0891 28.9202L17.8674 28.2731L17.624 27.6406L17.3808 27.0153L17.116 26.3826L16.8728 25.7792L16.5865 25.1975L16.3219 24.6304L16.0356 24.0922L15.7495 23.576L15.4633 23.1033L15.1556 22.6381L14.8623 22.209L14.5546 21.8237L13.8463 20.9947L17.6741 15.8105Z" fill="#333333"/>
</g>
</svg>
