<svg width="62" height="62" viewBox="0 0 62 62" fill="none" xmlns="http://www.w3.org/2000/svg">
<g id="Clip path group">
<mask id="mask0_254_6726" style="mask-type:luminance" maskUnits="userSpaceOnUse" x="0" y="0" width="62" height="62">
<g id="clip0">
<path id="Vector" d="M62 0H0V62H62V0Z" fill="white"/>
</g>
</mask>
<g mask="url(#mask0_254_6726)">
<g id="Group">
<path id="Vector_2" fill-rule="evenodd" clip-rule="evenodd" d="M15.9146 24.9274L17.379 22.0312C17.4344 21.9209 17.5268 21.8564 17.7467 21.8564H25.1491C25.401 21.8564 25.5639 21.7545 25.5639 21.4353V19.7768C25.5639 19.4764 25.6915 19.3609 25.9704 19.3609H33.5943C33.8681 19.3609 34.0025 19.4865 34.0025 19.7819V21.4439C34.0025 21.7257 34.1351 21.8547 34.4223 21.8547H43.1782C43.4553 21.8547 43.551 22.0397 43.551 22.1857C43.5514 22.2397 43.5368 22.2925 43.509 22.3385L42.048 25.2397C41.9557 25.401 41.7961 25.4044 41.682 25.4044H34.4223C34.12 25.4044 34.0075 25.5436 34.0075 25.8255L34.0058 27.4925C34.0058 27.7641 33.8883 27.8948 33.596 27.8948H25.9704C25.715 27.8948 25.5605 27.8065 25.5605 27.4874V25.8203C25.5605 25.5182 25.4212 25.4044 25.1491 25.4044H16.2454C16.0254 25.4044 15.8794 25.2686 15.8794 25.0768C15.8798 25.024 15.8912 24.9719 15.9129 24.924L15.9146 24.9274ZM13.4947 27.3414H23.2515C23.5521 27.3414 23.6545 27.4823 23.6545 27.7489V29.1968C23.6545 29.6298 23.9064 29.8283 24.2809 29.8283H35.2888C35.6633 29.8283 35.9152 29.6383 35.9152 29.1968V27.7556C35.9152 27.4619 36.0361 27.3397 36.3215 27.3397H42.4409C42.859 27.3397 43.1631 27.2242 43.378 26.8253L46.4092 20.8328L46.4243 20.8046C46.4835 20.6947 46.5251 20.6177 46.5251 20.4813C46.5251 20.0706 46.1775 19.928 45.9355 19.928H36.3215C36.0697 19.928 35.9152 19.86 35.9152 19.5171V18.0742C35.9152 17.6599 35.6902 17.4375 35.2888 17.4375H24.2792C23.8695 17.4375 23.6545 17.6666 23.6545 18.0742V19.5137C23.6545 19.8227 23.5118 19.9245 23.2515 19.9245L16.9491 19.928C16.4654 19.928 16.1833 20.1621 16.0389 20.4677L12.9691 26.5316C12.9279 26.6126 12.9061 26.7021 12.9053 26.793C12.9053 27.0307 13.0615 27.3397 13.493 27.3397L13.4947 27.3414ZM36.9481 18.5667H37.1295C37.2 18.5667 37.2924 18.5769 37.2924 18.6652C37.2924 18.7297 37.2621 18.7874 37.1278 18.7874H36.9481V18.5667ZM36.9498 18.8672H37.0791L37.2739 19.1677H37.378L37.1799 18.8587C37.2991 18.8554 37.3931 18.8027 37.3931 18.6652C37.3931 18.5226 37.2688 18.4818 37.153 18.4818H36.8556V19.1677H36.9498V18.8672ZM37.4355 18.4645C37.341 18.3689 37.2129 18.3153 37.0792 18.3153C36.7988 18.3153 36.5721 18.5461 36.5721 18.8246C36.5721 18.9601 36.6253 19.0901 36.7201 19.1859C36.815 19.2817 36.9436 19.3356 37.0775 19.3356C37.2116 19.3356 37.3403 19.2817 37.4351 19.1859C37.5298 19.0901 37.5831 18.9601 37.5831 18.8246C37.5831 18.6895 37.53 18.56 37.4355 18.4645ZM37.5026 19.2568C37.3904 19.3702 37.2381 19.434 37.0792 19.434C36.926 19.4258 36.7816 19.3585 36.676 19.2458C36.5704 19.1333 36.5115 18.984 36.5115 18.8289C36.5115 18.6736 36.5704 18.5243 36.676 18.4118C36.7816 18.2992 36.926 18.2319 37.0792 18.2236C37.2381 18.2236 37.3904 18.2874 37.5026 18.4008C37.6149 18.5144 37.6779 18.6683 37.6779 18.8289C37.6779 18.9893 37.6149 19.1433 37.5026 19.2568ZM10.474 40.6423H7.88454V44.5554H6.07928V35.8126H7.88454V39.313H10.474V35.8126H12.2793V44.5571H10.474V40.6423ZM57.8137 44.5571H56.0051V37.1486H53.5566V35.8143H60.2654V37.1486H57.8137V44.5571ZM42.2146 35.8126H44.0199V43.221H47.3785V44.5554H42.2146V35.8126ZM23.7674 44.5621H22.0999C21.6128 44.5621 21.2619 44.3194 21.1594 43.788L18.9764 35.8126H21.0788L22.9815 43.1005C23.0117 43.182 23.0789 43.2227 23.1729 43.2227C23.267 43.2227 23.3342 43.1955 23.3611 43.1038L25.2335 35.816H26.8271L24.6943 43.8067C24.5701 44.3058 24.2578 44.5621 23.7674 44.5621ZM1.34849 44.5625L5.38722 44.5575V43.223H2.46522C1.96647 43.223 1.80526 43.0975 1.80526 42.5525V37.8144C1.80526 37.2865 1.92784 37.149 2.46522 37.149H5.38722V35.818H1.35352C0.429903 35.818 0 36.2969 0 37.1744V43.1926C0 44.167 0.490358 44.5625 1.34849 44.5625ZM18.7948 37.147H15.8291C15.2783 37.147 15.1709 37.3067 15.1709 37.8143V39.3116H18.7545V40.6425H15.1692V42.5558C15.1692 43.1074 15.327 43.2212 15.8274 43.2212H19.1676V44.5606H14.7108C13.8073 44.5606 13.3623 44.1124 13.3623 43.1923V37.1743C13.3623 36.2814 13.7804 35.8161 14.7141 35.8161H18.7948V37.147ZM33.4451 37.1743V39.4932L33.4468 39.4949C33.4468 40.4812 32.9312 40.8632 32.0966 40.8632H31.6936L34.0782 44.5555H31.8447L29.5608 40.6205L29.5373 40.5798C29.4674 40.4594 29.3929 40.3313 29.3929 40.1621C29.3929 39.7851 29.6078 39.5458 29.9924 39.5458H30.9798C31.4987 39.5458 31.6398 39.3896 31.6398 38.8753L31.6365 37.8143C31.6365 37.3067 31.534 37.147 30.9765 37.147H28.869V44.5606H27.0638V35.8161H32.0933C33.0151 35.8161 33.4451 36.2626 33.4451 37.1743ZM36.2464 37.8143C36.2464 37.3559 36.3068 37.147 36.9046 37.147H38.6561C39.1264 37.147 39.3161 37.2285 39.3161 37.8143L39.3178 42.5558C39.3178 43.1125 39.1465 43.2229 38.6561 43.2229H36.9046C36.3891 43.2229 36.2464 43.0785 36.2464 42.5558V37.8143ZM37.7913 44.5622H39.7712C40.6361 44.5622 41.1231 44.143 41.1231 43.1923L41.1197 37.1743C41.1197 36.283 40.7033 35.8161 39.7712 35.8161H35.7912C34.8408 35.8161 34.4411 36.3016 34.4411 37.1743V43.1923C34.4411 44.182 34.9667 44.5622 35.7912 44.5622H37.7913ZM49.0813 44.5621H49.0798C48.1757 44.5616 47.7311 44.1117 47.7311 43.1938L47.7344 37.1757C47.7344 36.2845 48.1493 35.8193 49.0829 35.8193L53.162 35.8143V37.1486H50.1997C49.6488 37.1486 49.5397 37.3099 49.5397 37.8157V39.313H53.1234V40.6423H49.5346V42.5503C49.5346 43.1072 49.6942 43.221 50.198 43.221H53.5365V44.5569L49.0813 44.5621ZM61.2662 36.1897H61.4459C61.5181 36.1897 61.6138 36.1982 61.6138 36.2864C61.6138 36.3629 61.5802 36.4086 61.4459 36.4086H61.2644V36.1897H61.2662ZM61.2662 36.4901H61.4005L61.592 36.7907H61.6944L61.4963 36.4817C61.6155 36.4782 61.7061 36.4307 61.7061 36.2864C61.7061 36.1455 61.5886 36.1082 61.4643 36.1082H61.1687V36.7907H61.2662V36.4901ZM61.7554 36.083C61.6599 35.9865 61.5305 35.9324 61.3955 35.9324C61.1151 35.9324 60.8867 36.1665 60.8867 36.4433C60.8861 36.5112 60.8987 36.5786 60.924 36.6415C60.9492 36.7044 60.9867 36.7616 61.034 36.8098C61.0814 36.8578 61.1377 36.8961 61.1997 36.922C61.2618 36.948 61.3283 36.9613 61.3955 36.961C61.5305 36.961 61.6599 36.9069 61.7554 36.8104C61.8507 36.7139 61.9043 36.5831 61.9043 36.4467C61.9043 36.3103 61.8507 36.1795 61.7554 36.083ZM61.6268 37.0113C61.5533 37.0411 61.4747 37.0558 61.3955 37.0544C61.3168 37.0544 61.2388 37.0388 61.1661 37.0083C61.0934 36.9778 61.0272 36.9333 60.9716 36.877C60.9159 36.8206 60.8717 36.7539 60.8416 36.6804C60.8115 36.6067 60.796 36.5279 60.796 36.4484C60.796 36.3688 60.8115 36.29 60.8416 36.2165C60.8717 36.1429 60.9159 36.0761 60.9716 36.0198C61.0272 35.9636 61.0934 35.9189 61.1661 35.8884C61.2388 35.8581 61.3168 35.8423 61.3955 35.8423C61.4748 35.8414 61.5536 35.8565 61.6271 35.8868C61.7007 35.9169 61.7675 35.9615 61.8238 36.0181C61.88 36.0747 61.9247 36.142 61.9549 36.2161C61.9851 36.2904 62.0005 36.3698 62 36.4501C62.0005 36.5301 61.9851 36.6096 61.9548 36.6835C61.9246 36.7575 61.8799 36.8246 61.8236 36.8808C61.7672 36.9371 61.7005 36.9816 61.6268 37.0113Z" fill="#333333"/>
</g>
</g>
</g>
</svg>
