<svg width="62" height="62" viewBox="0 0 62 62" fill="none" xmlns="http://www.w3.org/2000/svg">
<g id="d9878b8884f025b657d825e8a2801c1d_1650383142">
<path id="Vector" fill-rule="evenodd" clip-rule="evenodd" d="M34.7341 17.5715L34.983 16.2549C28.2409 14.2746 26.4209 21.5285 34.8337 20.1183V19.1549C29.0581 20.4041 30.7355 15.5688 34.14 17.0552V17.5715H34.7341ZM37.8502 20.2707V15.9083H35.323L35.9789 16.6516V20.2707H37.8502ZM42.1579 15.9083H40.2951V15.91L40.8204 16.6551L38.173 20.2759H39.986L40.4891 19.5829H42.9785L43.4988 20.2777H45.3907L42.1579 15.9083ZM39.5104 39.418H42.7983V36.012L39.5104 39.418ZM42.7949 35.3779V31.9684L39.5071 35.3779H42.7949ZM42.7914 31.329V27.9282L39.495 31.329H42.7914ZM42.7794 23.8881L39.4864 27.2873H42.7794V23.8881ZM35.5772 43.6833H38.8666V40.279L35.5772 43.6833ZM38.858 36.0138V36.012H38.8598L38.858 36.0138ZM38.858 39.418V36.0138L35.5702 39.418H38.858ZM38.8546 35.3779V31.9684L35.5582 35.3779H38.8546ZM38.8443 31.329V27.9282L35.553 31.329H38.8443ZM38.834 23.8881L35.5462 27.2873H38.834V23.8881ZM31.6386 47.7287H34.9349V44.3295L31.6386 47.7287ZM34.9247 40.2808V40.279H34.9264L34.9247 40.2808ZM34.9247 43.6833V40.2808L31.6334 43.6833H34.9247ZM34.9212 36.0138V36.012H34.9229L34.9212 36.0138ZM34.9212 39.418V36.0138L31.63 39.418H34.9212ZM34.9109 35.3779V31.9684L31.6146 35.3779H34.9109ZM34.9006 27.93V27.9265L34.9024 27.9282L34.9006 27.93ZM34.9006 31.329V27.93L31.6146 31.329H34.9006ZM34.8972 23.8881L31.6042 27.2873H34.8972V23.8881ZM27.7001 47.7287H30.9914H30.993V44.3295L27.7001 47.7287ZM30.9879 40.2808V40.279H30.9895L30.9879 40.2808ZM30.9879 43.6833V40.2808L27.6966 43.6833H30.9879ZM30.9775 36.0138V36.012H30.9793L30.9775 36.0138ZM30.9775 39.418V36.0138L27.6864 39.418H30.9775ZM30.969 35.3779V31.9684L27.6777 35.3779H30.969ZM30.9604 27.93V27.9265L30.9622 27.9282L30.9604 27.93ZM30.9604 31.329V27.93L27.6692 31.329H30.9604ZM30.957 27.289V23.8899L27.6657 27.289H30.957ZM24.3127 20.2742L24.8123 19.5812H27.3017L27.8202 20.2742H29.7209L26.4828 15.9083H24.6216L25.1436 16.6532L22.4995 20.2742H24.3127ZM23.7478 43.6833H27.0441V43.6816V40.2773L23.7478 43.6833ZM27.039 39.4163V36.0103L23.7392 39.4163H27.039ZM27.0305 35.3761V31.9666L23.734 35.3761H27.0305ZM27.0201 31.3274V27.9265L23.7323 31.3274H27.0201ZM27.0116 23.8863L23.722 27.2855H27.0116V23.8863ZM19.8024 39.4163H23.0937V36.0103L19.8024 39.4163ZM23.0885 35.3761V31.9684L19.7956 35.3761H23.0885ZM23.0799 31.3274V27.9265L19.7904 31.3274H23.0799ZM23.0731 27.2873V23.8881L23.0714 23.8863L19.7749 27.2873H23.0731ZM17.2236 16.6532V20.2672V20.2707H20.3174C23.7855 20.0802 23.8696 15.9672 20.3174 15.9083H16.5678L17.2236 16.6532ZM15.8382 27.2855H19.1345V23.8863L15.8382 27.2855ZM15.4999 27.1746V10.3333H46.4999V24.1151L46.3402 24.2814L43.4301 27.289H46.4914C46.4775 27.6043 46.4553 27.9196 46.4261 28.2348L46.2543 28.415L43.4388 31.3308H46.0089C45.8903 31.932 45.753 32.5418 45.5986 33.1447L45.389 33.3682L43.449 35.3779H44.9221C44.2878 37.2048 43.4709 38.962 42.4841 40.6221L42.0051 41.1194L39.5156 43.6833H40.3844C39.9122 44.2897 39.4075 44.8787 38.877 45.4591V44.3295L35.5822 47.7287H36.5522C36.522 47.7554 36.4918 47.7824 36.4617 47.8093C36.3553 47.9043 36.2492 47.9992 36.1368 48.0856C35.7573 48.413 35.3505 48.7318 34.9384 49.0541V48.3749L33.3588 50.0016L32.8352 50.5492C32.2428 50.9355 31.6334 51.3097 31.0034 51.6666V48.3749L29.1147 50.3171L28.9997 50.4314C28.3233 49.9896 27.6777 49.5166 27.0596 49.0368V48.3749L26.8038 48.6261L26.6888 48.7474C26.3797 48.503 26.0793 48.2623 25.7875 48.0007C25.7397 47.9596 25.6935 47.9182 25.6471 47.8768C25.5918 47.8272 25.5364 47.7778 25.4784 47.7287H27.0511V44.3279L24.6869 46.7706L24.5719 46.8919C24.0636 46.3965 23.5727 45.9043 23.1057 45.3915V44.3295L22.7331 44.7124L22.6181 44.8372L22.5871 44.8009C22.2714 44.4304 21.9594 44.0642 21.6635 43.6833H23.1006V40.279L20.9802 42.4759L20.86 42.5971C20.4222 41.9734 20.0033 41.3428 19.6153 40.6983C19.3613 40.2795 19.1208 39.8525 18.8941 39.418H19.1568V36.0137L17.9945 37.2091L17.8777 37.3355C17.5963 36.6825 17.3439 36.031 17.1103 35.3779H19.1465V31.9701L16.9078 34.2829L16.7875 34.4112C16.4682 33.3873 16.2022 32.3634 16.0012 31.329H19.1413V27.923L16.1094 31.064L15.9755 31.1974C15.7196 29.8512 15.5617 28.5017 15.4999 27.1746ZM41.3335 42.396C41.3061 42.441 41.2762 42.4843 41.2442 42.526C41.2353 42.5385 41.2264 42.551 41.2175 42.5637C41.256 42.5076 41.2945 42.4516 41.3335 42.396ZM41.2175 42.5637C41.1906 42.6018 41.1641 42.6399 41.1375 42.678C41.0786 42.7625 41.0197 42.847 40.9575 42.9313C41.0445 42.8158 41.1269 42.6957 41.2093 42.5756C41.212 42.5716 41.2148 42.5676 41.2175 42.5637ZM38.4993 45.8625C38.4904 45.8705 38.4811 45.8781 38.4714 45.8852H38.4732C38.4614 45.9007 38.4492 45.9157 38.4364 45.9303C38.4576 45.9077 38.4784 45.8851 38.4993 45.8625ZM38.4993 45.8625C38.5188 45.8448 38.5369 45.8251 38.555 45.8055C38.5609 45.7992 38.5668 45.7929 38.5728 45.7865L38.6654 45.686C38.6119 45.74 38.5595 45.797 38.5065 45.8545C38.5041 45.8571 38.5016 45.8598 38.4993 45.8625ZM40.8477 19.0458L41.7163 17.8434L42.6091 19.0458H40.8477ZM18.9934 16.7103L20.0527 16.726C21.5259 16.6792 21.7079 19.3541 20.0527 19.4684H18.9934V16.7103ZM26.9323 19.0475H25.1707L26.043 17.8434L26.9323 19.0475Z" fill="#333333"/>
</g>
</svg>
