<svg width="62" height="62" viewBox="0 0 62 62" fill="none" xmlns="http://www.w3.org/2000/svg">
<g id="dbb192ba8d47cec546ac317f5fff1ad9_1650382941">
<path id="Vector" fill-rule="evenodd" clip-rule="evenodd" d="M31.0083 40.6875C45.2701 40.6875 56.8333 36.3596 56.8333 31.0083C56.8333 25.6568 45.2701 21.3125 31.0083 21.3125C16.7299 21.3125 5.16667 25.6568 5.16667 31.0083C5.16667 36.3599 16.7299 40.6875 31.0083 40.6875ZM6.18336 31.0089C6.18336 35.832 17.313 39.6972 31.0084 39.6972C44.7373 39.6972 55.8501 35.832 55.8501 31.0089C55.8501 26.2026 44.7373 22.2878 31.0084 22.2878C17.313 22.2878 6.18336 26.2026 6.18336 31.0089ZM55.0672 31.0085C55.0672 35.4355 44.2878 39.0197 31.0088 39.0197C17.7133 39.0197 6.96696 35.4355 6.96667 31.0085C6.96667 26.5986 17.7133 23.0144 31.0088 23.0144C44.2878 23.0144 55.0672 26.5986 55.0672 31.0085ZM37.9635 31.9548C37.7574 32.1687 37.5432 32.3909 37.3073 32.6111L37.263 32.6506C36.9379 32.9424 36.5336 33.305 35.6572 33.3047C35.1243 33.3047 34.7075 32.8752 34.8077 32.3302C34.8746 31.9008 35.0243 31.6863 35.3408 31.5704C35.4907 31.9998 35.7737 32.2311 36.2576 32.2311C36.8072 32.2146 37.1232 31.7191 37.1399 31.2898C37.1399 30.9265 36.9068 30.4638 36.2402 30.4308C35.6238 30.3978 35.1571 30.6788 34.491 31.4385C34.491 31.4385 34.6575 30.3152 33.4079 30.3484C33.2748 30.3484 33.1415 30.3484 33.0083 30.4142C32.3528 30.6201 31.5137 31.6314 30.8289 32.457L30.7421 32.5615C30.7755 32.3962 30.7755 32.2311 30.7755 32.0656C30.7755 31.5868 30.5921 30.9591 30.2589 30.6286C30.1923 30.5626 30.1254 30.5626 30.0589 30.5626C29.8424 30.5626 29.6593 30.7445 29.6593 31.0251C29.8258 31.1904 30.0426 31.6033 30.0426 31.9998C30.0426 32.3962 29.9261 33.123 29.7592 33.4039C29.1261 34.4773 28.3263 35.171 27.36 35.0224C26.8436 34.9066 26.4936 34.4113 26.5936 33.6681C26.6436 33.2388 26.9103 32.6442 27.16 32.2808C27.5767 31.7191 28.2597 31.1412 29.2594 30.9925C29.2594 30.9925 29.3091 30.7942 29.176 30.6952C29.1261 30.6125 29.0594 30.5134 28.8261 30.5134C27.4099 30.5629 26.5439 31.5704 26.0438 32.5615L25.9287 32.7788C25.761 33.0946 25.5644 33.465 25.4439 33.7177C25.4439 33.7177 25.3106 34.0814 24.6942 34.5438L24.6295 34.5946C24.3637 34.8029 24.2742 34.8731 24.2278 34.8576C24.2446 34.9734 24.3276 35.1388 24.478 35.2708C24.5196 35.2983 24.6433 35.233 24.7215 35.192C24.7318 35.1865 24.7414 35.1815 24.7498 35.1771C24.7536 35.1752 24.7574 35.1732 24.7607 35.1716C25.5439 34.7257 25.6273 34.511 25.6273 34.511C25.7938 35.4361 26.5936 35.9149 27.4767 35.9149C28.693 35.9149 29.809 34.825 30.4591 33.8669C31.1422 32.8594 32.0752 31.8683 32.0752 31.8683C32.4422 31.5217 32.8249 31.2904 33.058 31.2904C33.2748 31.3065 33.4247 31.4882 33.3745 31.6868C33.2917 32.0333 33.175 32.3635 32.9415 32.7767L31.1254 35.8323H32.5416C33.1712 34.6598 33.3351 34.3626 33.7443 33.6204C33.8653 33.4007 34.0086 33.1412 34.1911 32.8095C34.4073 33.6191 34.8406 33.9329 35.5407 33.9495C36.1405 33.9659 36.557 33.9331 37.0068 33.7018C36.8903 34.1642 36.9572 34.6265 37.1071 34.9402C37.2734 35.32 37.6066 35.7991 38.4232 35.8156C39.4062 35.8156 40.3727 35.386 40.6557 35.1385C40.7389 35.6173 40.9724 35.8651 41.589 35.8651C42.8385 35.832 43.938 34.5603 44.6046 33.7343C44.7211 33.5857 44.8711 33.3382 44.8711 33.2719C44.8711 33.1728 44.7377 33.1068 44.6709 33.1068C44.6059 33.1068 44.4924 33.2491 44.4255 33.3329L44.4212 33.3382C44.1045 33.6683 42.7885 35.0226 42.0722 35.0558C42.2221 35.0558 41.8225 35.1382 41.7885 34.8245C41.7748 34.663 41.8829 34.4686 41.9597 34.3308C41.9771 34.2994 41.993 34.271 42.0054 34.2466L45.5707 27.9865H44.2544L42.105 31.5871C42.0879 31.5532 42.07 31.5146 42.0505 31.4726C41.8796 31.1054 41.5879 30.4786 40.706 30.4638C39.4129 30.4508 38.747 31.1418 37.9635 31.9548ZM34.8574 27.0285C36.4404 27.0285 38.3067 26.021 38.3067 25.4925C38.3067 25.3602 38.3067 25.2279 37.9737 25.2279C37.7822 25.2279 37.7452 25.237 37.6232 25.2668C37.5114 25.2941 37.3284 25.3388 36.8905 25.4098C36.1645 25.5206 35.2979 25.5152 34.5456 25.5105C34.4004 25.5098 34.2594 25.5089 34.1245 25.5089C31.8586 25.4757 29.0763 25.0133 27.9603 24.8151C26.9938 24.6498 26.1107 24.5838 25.3277 24.5838C21.1792 24.5838 19.4963 26.2354 19.4798 27.8707C19.4631 28.7462 20.1129 29.6382 21.0792 29.6382C22.8119 29.6382 23.8116 27.8543 23.8949 27.2101C23.8949 27.2101 23.9284 27.0945 23.8284 27.0118C23.7784 26.9788 23.645 26.9954 23.595 27.1109C23.3617 27.656 22.4288 28.2838 21.7621 28.3994C21.1455 28.5151 20.7293 28.1847 20.6959 27.6728C20.6291 26.4176 22.0621 25.0465 25.2777 25.0465C26.1942 25.0465 27.3605 25.2942 28.6436 25.5915L28.6763 25.599C28.1616 25.7111 26.3397 27.1033 24.911 29.2752C24.8763 29.2796 24.8318 29.2848 24.779 29.2909C24.2474 29.3523 22.8802 29.5105 22.3953 30.0514C22.3451 30.1175 22.2951 30.2331 22.2951 30.2662C22.3285 30.3985 22.4285 30.4645 22.5782 30.3489C22.9115 29.9692 24.2611 29.8203 24.5776 29.8038C22.6115 32.5457 20.7956 34.3461 19.1794 34.3461C19.1461 34.3461 19.1129 34.3467 19.0795 34.3474C18.9455 34.3501 18.8095 34.3528 18.6628 34.3129C18.0132 34.1646 17.6298 33.4872 17.6298 32.8761C17.6298 32.0667 18.4128 31.1913 18.8627 31.026C19.013 30.96 19.0795 30.8776 19.0795 30.8113C19.0795 30.7122 19.013 30.646 18.8295 30.646C17.2799 31.026 16.4468 32.2815 16.4636 33.3055C16.497 34.9902 17.7798 35.9317 19.2294 35.9317C21.2623 35.9317 22.2951 35.0562 25.6107 29.7377C26.9271 29.6054 27.577 29.5227 28.2431 29.4071C28.2431 29.4071 28.443 29.8862 28.9429 29.8862C29.0028 29.8981 29.011 29.8584 29.0296 29.7672C29.0367 29.732 29.0455 29.6891 29.0594 29.6385C28.8427 29.6218 28.593 29.4731 28.593 29.2914C28.7927 29.1922 28.9594 29.0764 29.1097 28.9611C29.3265 28.763 29.543 28.3501 29.543 28.0692C29.543 27.8051 29.3433 27.5572 29.0431 27.5077C28.5098 27.4251 28.0934 27.8545 28.0434 28.5647C28.0434 28.7466 28.11 28.9611 28.11 28.9611C28.11 28.9611 26.9438 29.1594 25.944 29.209C26.9997 27.4411 27.9823 26.6541 28.4521 26.2777C28.5309 26.2145 28.5953 26.1628 28.6432 26.1202C28.7095 26.0706 28.876 25.8891 28.8929 25.8559C28.9314 25.7609 28.8978 25.6876 28.8498 25.6427C29.1536 25.7243 29.5254 25.8475 29.9477 25.9874C31.2716 26.4261 33.0903 27.0285 34.8574 27.0285ZM28.926 28.6634C28.6763 28.9443 28.5095 28.9275 28.5095 28.9275C28.4598 28.7296 28.4264 28.5478 28.5095 28.2835C28.5761 28.0358 28.726 27.9202 28.9762 27.8704C29.0929 27.8539 29.1425 27.9695 29.1594 28.0686C29.1928 28.2668 29.026 28.5642 28.926 28.6634ZM38.8561 32.3962C39.4556 31.6693 40.1888 31.1737 40.7724 31.2397C41.4878 31.3221 41.555 32.0162 41.2051 32.6602L41.3885 32.71C41.3885 32.71 40.8221 33.6515 40.239 34.2298C39.2062 35.2702 38.5396 34.9233 38.3896 34.8078C38.2397 34.6922 38.1232 34.2794 38.1894 33.8662C38.2397 33.4534 38.5561 32.7595 38.8561 32.3962Z" fill="#333333"/>
</g>
</svg>
