<svg width="62" height="62" viewBox="0 0 62 62" fill="none" xmlns="http://www.w3.org/2000/svg">
<g id="eab79bcf85e9f000d1fd6c4884225143_1650382220">
<path id="Vector" fill-rule="evenodd" clip-rule="evenodd" d="M30.9745 7.75L23.6662 20.0772L30.9745 32.3431L38.3377 20.0772L30.9745 7.75ZM30.9745 32.3431L38.3377 44.6263H52.9583L45.652 32.3431H30.9745ZM16.3539 32.3431L9.04166 44.6226V44.6263H23.6662L30.9745 32.3431H16.3539ZM15.7105 48.1819L14.4474 50.8729L13.2627 48.1819H12.0623V54.0926H13.1489V50.2393L14.4493 53.0352L15.8164 50.2393V54.0926H16.907V48.1819H15.7105ZM17.8779 54.0926H18.9646V48.1819H17.8779V54.0926ZM19.4609 48.1819V49.0827H20.7633V54.0926H21.8519V49.0827H23.1601V48.1819H19.4609Z" fill="#333333"/>
<path id="Vector_2" fill-rule="evenodd" clip-rule="evenodd" d="M25.5529 50.6621C24.684 50.2402 24.3545 50.0304 24.3545 49.6106C24.3545 49.2346 24.6193 49.0284 25.1116 49.0284C25.6608 49.0284 25.9294 49.5036 25.9294 49.9827H27.024C26.9691 48.9788 26.4787 48.1313 25.1135 48.1313C23.8621 48.1313 23.264 48.767 23.264 49.6639C23.264 50.5036 23.8131 50.9808 24.6193 51.4542C25.7726 52.0877 26.0374 52.25 26.0374 52.6127C26.0374 53.0381 25.7176 53.2997 25.1665 53.2997C24.5153 53.2997 24.2446 52.7748 24.2446 52.25H23.207C23.2659 53.355 23.7562 54.2501 25.1645 54.2501C26.2061 54.2501 27.126 53.6718 27.126 52.5649C27.126 51.6106 26.5277 51.1908 25.551 50.664L25.5529 50.6621ZM30.6213 52.248C30.6213 52.8817 30.3035 53.2443 29.7072 53.2443C28.9933 53.2443 28.6677 52.8817 28.6677 52.248V48.1829H27.583V52.248C27.583 53.8245 28.7266 54.1966 29.7093 54.1966C30.6194 54.1966 31.7157 53.7768 31.7157 52.25V48.1848H30.6194V52.25L30.6213 52.248ZM34.3794 53.1966H33.5086V49.0856H34.3284C34.8227 49.0856 35.1973 49.2918 35.1973 49.8224C35.1973 50.3491 34.8697 50.559 34.3264 50.559H33.8968V51.5075H34.3284C34.9796 51.5075 35.3621 51.7232 35.3621 52.2977C35.3621 52.9352 34.9777 53.1947 34.3813 53.1947L34.3794 53.1966ZM35.4151 50.9808C35.6877 50.9235 36.2859 50.454 36.2859 49.6639C36.2859 48.7135 35.572 48.1829 34.4362 48.1829H32.4278V54.0955H34.6579C35.7386 54.0955 36.5037 53.4085 36.5037 52.4542C36.5131 52.127 36.412 51.8057 36.2156 51.5399C36.0193 51.2741 35.7388 51.0783 35.417 50.9827L35.4151 50.9808ZM46.6718 50.5036H44.4984V48.1829H43.3628V54.0935H44.5004V51.5057H46.7286V54.0935H47.8094V48.1829H46.6718V50.5036Z" fill="#333333"/>
<path id="Vector_3" fill-rule="evenodd" clip-rule="evenodd" d="M37.102 54.0919H38.1906V48.1813H37.102V54.0919ZM48.853 54.0919H49.9396V48.1813H48.853V54.0919ZM41.2465 50.609C40.3659 50.1357 40.0422 49.9219 40.0422 49.5535C40.0422 49.1834 40.3638 48.9772 40.7954 48.9772C41.3446 48.9772 41.6172 49.397 41.6721 49.9219H42.6999C42.6489 48.9218 42.1645 48.0745 40.7973 48.0745C39.5459 48.0745 38.9477 48.7119 38.9477 49.607C38.9477 50.4487 39.4968 50.9239 40.3129 51.3495C41.4564 51.9793 41.7191 52.1892 41.7191 52.5613C41.7191 52.9812 41.3995 53.2446 40.8601 53.2446C40.2049 53.2446 39.9284 52.6626 39.9284 52.1377H38.9006C38.9478 53.2981 39.4381 54.1454 40.862 54.1454C41.8899 54.1454 42.8195 53.5615 42.8195 52.5098C42.8137 51.506 42.2154 51.1396 41.2465 50.609Z" fill="#333333"/>
</g>
</svg>
