<svg width="62" height="62" viewBox="0 0 62 62" fill="none" xmlns="http://www.w3.org/2000/svg">
<g id="ec7569ae707a127bb2143595455d0647_1650382174">
<path id="Vector" fill-rule="evenodd" clip-rule="evenodd" d="M50.4298 30.9177C50.4298 31.448 50.4047 31.9804 50.3608 32.5129C50.3608 32.5129 50.3638 32.5131 50.368 32.5134C50.4167 32.517 50.6997 32.5352 51.1116 32.5614C52.0932 32.624 53.8064 32.7322 54.826 32.7965C55.2731 32.8248 55.5869 32.8446 55.6468 32.8484C55.9687 32.8691 56.2091 33.2069 56.0063 33.4679L54.9006 34.9761C54.8306 35.0666 54.7405 35.14 54.6371 35.1904C54.5338 35.2406 54.42 35.2666 54.3049 35.2661H50.0075C48.9388 39.8948 46.1875 43.9712 42.2791 46.7171C38.3706 49.4629 33.5787 50.6858 28.8183 50.1524C24.0578 49.6191 19.6624 47.3665 16.4711 43.825C13.2799 40.2835 11.5163 35.7012 11.5172 30.9529C11.5189 30.4197 11.5426 29.8869 11.5882 29.3557C11.5595 29.3533 11.2683 29.3351 10.8372 29.3085C9.43202 29.2217 6.52975 29.0451 6.30013 29.0325C5.99079 29.0449 5.80267 28.6637 5.99915 28.4317L7.07349 26.9193C7.14381 26.8292 7.23407 26.756 7.33734 26.7058C7.44061 26.6554 7.55414 26.6293 7.66918 26.6293H11.9687C12.9672 22.4097 15.3685 18.6455 18.7866 15.9423C22.2048 13.2391 26.4408 11.754 30.8136 11.7258C41.5779 11.6554 50.3587 20.2486 50.4298 30.9177ZM30.8087 10.9797C41.9885 10.9066 51.1084 19.8315 51.1822 30.9128V30.9177C51.1822 31.2177 51.1745 31.5176 51.1602 31.8169L51.2108 31.8202C51.6873 31.8505 52.3227 31.8908 52.9654 31.9314L55.6953 32.1039C56.102 32.1299 56.4609 32.3528 56.6623 32.6742C56.877 33.0168 56.9209 33.504 56.6103 33.913L55.5037 35.4224L55.498 35.4297C55.3574 35.6117 55.1763 35.7591 54.9687 35.8601C54.7618 35.9608 54.5342 36.0129 54.3037 36.0123M30.8087 10.9797C26.2672 11.009 21.8675 12.5515 18.3175 15.359C14.9235 18.0431 12.4947 21.7343 11.3814 25.8833H7.66929C7.43925 25.8833 7.21219 25.9354 7.00571 26.0359C6.7992 26.1366 6.61867 26.2826 6.47801 26.4632L6.4679 26.4763L5.3977 27.9827C5.10027 28.3598 5.12111 28.8245 5.28532 29.1542C5.44945 29.4837 5.80637 29.7793 6.2846 29.7789C6.52036 29.7925 7.75719 29.8675 8.97555 29.9418C9.6118 29.9807 10.2415 30.0193 10.7179 30.0486L10.7877 30.053C10.7734 30.3519 10.7657 30.6512 10.7647 30.9505V30.9528C10.7638 35.8846 12.5955 40.6439 15.9101 44.3222C19.2245 48.0005 23.7897 50.3398 28.7338 50.8938C33.6779 51.4479 38.6547 50.1777 42.714 47.3258C46.6094 44.5892 49.3981 40.5799 50.5979 36.0123H54.3037M33.7001 31.4708L48.1097 32.3761C48.1258 32.1606 48.1402 31.9444 48.1511 31.727C48.1527 31.6951 48.1542 31.6633 48.1557 31.6314C48.1661 31.4017 48.1723 31.1707 48.1723 30.9383C48.1668 26.4092 46.3489 22.0672 43.1173 18.865C39.8856 15.6628 35.5044 13.8619 30.9348 13.8576C27.1232 13.8617 23.4202 15.1167 20.4039 17.4265C17.5947 19.5777 15.5283 22.5313 14.4773 25.8791C14.3998 26.1257 14.3278 26.3745 14.2616 26.6252H39.772C40.0813 26.6149 40.2131 27.0478 39.9538 27.2115L33.7001 31.4708ZM40.3718 27.8319L35.9218 30.8628L47.4047 31.5842C47.4142 31.3687 47.4199 31.154 47.4199 30.9392C47.4146 26.6079 45.676 22.4553 42.5854 19.3928C39.4949 16.3304 35.305 14.6081 30.9348 14.6037C27.2896 14.6079 23.7483 15.8081 20.8639 18.017C18.2392 20.0268 16.2927 22.7687 15.267 25.8791H39.7625C40.3227 25.8679 40.6819 26.2651 40.7959 26.6354C40.909 27.0035 40.8367 27.5291 40.3718 27.8319ZM28.1778 30.3914L13.7662 29.5007C13.7014 29.9751 13.7014 30.4536 13.7014 30.9383C13.7064 35.4674 15.5235 39.8095 18.7542 43.0124C21.9848 46.2153 26.3654 48.0174 30.9348 48.0233C34.7493 48.0182 38.4547 46.761 41.4722 44.4481C44.283 42.2938 46.3494 39.3366 47.3991 35.9853C47.4764 35.7387 47.5482 35.4899 47.6143 35.2392H22.1247C21.8112 35.2495 21.6774 34.8186 21.9366 34.6488L28.1778 30.3914ZM21.5145 34.0311L25.9557 31.0016L14.46 30.2911C14.4541 30.4962 14.4539 30.71 14.4539 30.9376C14.4585 35.2689 16.1963 39.4216 19.2861 42.4848C22.3757 45.5477 26.5648 47.2712 30.9348 47.2773C34.5828 47.272 38.1264 46.0696 41.0121 43.8577C43.6382 41.8449 45.5851 39.0992 46.6095 35.9853H22.134C21.5799 35.9961 21.2159 35.6091 21.0977 35.2342C20.9799 34.8602 21.0553 34.337 21.5145 34.0311Z" fill="#333333"/>
</g>
</svg>
