<svg width="62" height="62" viewBox="0 0 62 62" fill="none" xmlns="http://www.w3.org/2000/svg">
<g id="fa85a2efba087a35806ca52a84f50a5b_1650384578">
<path id="Vector" fill-rule="evenodd" clip-rule="evenodd" d="M27.9461 25.6863C28.9522 25.7396 29.9805 25.7693 31.0358 25.7693H31.0373C31.8911 25.7693 33.515 25.7426 34.336 25.7099L35.5152 28.7271C34.025 28.8445 32.5308 28.9039 31.0358 28.9052C29.6014 28.9052 28.2043 28.8474 26.8596 28.7479L25.9594 31.2902H20.9786L22.5787 28.2537C21.0473 28.0102 19.6069 27.6942 18.3009 27.3276L18.286 27.3499C13.4455 25.9964 10.3333 23.9023 10.3333 21.5396C10.3333 19.1874 13.4321 17.0904 18.2531 15.7443C18.2741 15.7408 18.2943 15.7337 18.3129 15.7235C18.4255 15.6964 18.535 15.6653 18.6441 15.6343C18.6665 15.6279 18.6889 15.6215 18.7114 15.6151C18.7569 15.6033 18.8025 15.5916 18.8481 15.58C18.9564 15.5525 19.0649 15.5249 19.174 15.4935C19.2 15.4914 19.2281 15.4846 19.2548 15.4781C19.265 15.4756 19.275 15.4733 19.2845 15.4712C21.4186 14.9514 23.5889 14.5927 25.7774 14.3983L25.767 14.4131C26.4501 14.3516 27.1343 14.3022 27.8193 14.2647C28.1986 14.2269 28.5798 14.208 28.9611 14.2083L27.8446 15.587C26.3004 15.7142 24.7587 15.871 23.2206 16.0574C17.5814 16.8974 13.7096 18.6159 13.6648 20.6077C13.7156 22.2654 16.365 23.7331 20.4607 24.6741L20.4338 24.6948C21.6505 24.9698 22.8799 25.1863 24.1176 25.3433L29.9372 14.324H33.1553L39.7826 25.0659C40.8497 24.8804 41.8454 24.6682 42.7528 24.4247L42.7259 24.3862C46.2067 23.4438 48.3889 22.077 48.3889 20.5617C48.3901 20.4415 48.375 20.3217 48.3441 20.2055C47.8516 18.4572 44.3961 16.9612 39.4706 16.1539C37.6645 15.9179 35.4733 15.7309 35.4733 15.7309L34.4285 14.3478H34.436L34.3718 14.278C35.122 14.3197 35.8709 14.379 36.6182 14.4561L36.6003 14.4264C45.2948 15.2931 51.6667 18.1471 51.6667 21.5263C51.6667 24.2318 47.6023 26.593 41.5364 27.8782L41.2423 27.4389L43.6126 31.2678H38.784L31.518 15.5959L27.9461 25.6863ZM16.5565 45.8241C16.2028 45.918 15.838 45.9647 15.472 45.963C14.9966 45.963 14.5732 45.8626 14.1959 45.6705C13.8397 45.4919 13.5373 45.2228 13.3195 44.8906C13.1094 44.568 12.9993 44.1909 13.0031 43.8065C13.0031 43.3634 13.1249 42.9704 13.3626 42.6426C13.6077 42.3073 13.9226 42.0488 14.3237 41.8746C14.7174 41.6885 15.1452 41.5999 15.5997 41.5999C16.1198 41.5999 16.5609 41.6796 16.9427 41.842C17.3215 41.9986 17.7063 42.198 18.0925 42.4402V40.371C16.9635 39.9751 15.9564 39.7712 15.062 39.7712C14.4678 39.7712 13.9003 39.8539 13.3626 40.012C12.8392 40.1665 12.3501 40.4186 11.9216 40.755C11.4985 41.0918 11.1623 41.5243 10.9412 42.0163C10.7064 42.5185 10.5891 43.1093 10.5891 43.7799C10.5891 44.3663 10.6916 44.9069 10.8892 45.3899C11.0832 45.8817 11.3899 46.3217 11.7849 46.6749C12.1786 47.0486 12.6495 47.319 13.1903 47.5109C13.7384 47.6941 14.349 47.7916 15.0279 47.7916C15.3993 47.7916 15.7572 47.7665 16.1004 47.7251C16.8081 47.6366 17.4946 47.4246 18.1282 47.0989V45.1151C17.8977 45.2622 17.6592 45.3964 17.4136 45.517C17.1372 45.6442 16.8504 45.7479 16.5565 45.8271V45.8241ZM25.1844 42.7445H21.6235V39.8879H19.2541V47.6882H21.6235V44.6469H25.1844V47.6897H27.5612V39.8879H25.1844V42.7445ZM31.4326 44.4593H34.7303V42.8745H31.4326V41.4728H34.8864V39.8879H29.0542V47.6882H34.983V46.1137H31.4326V44.4593ZM40.1883 43.068C39.9713 43.1935 39.5732 43.2571 38.9939 43.2571H38.4799V41.3931H38.982C39.5167 41.3931 39.9134 41.4654 40.1495 41.6042C40.3873 41.7461 40.5091 41.9942 40.5091 42.3486C40.5091 42.7076 40.4022 42.944 40.1883 43.068ZM42.2605 44.7754C42.0851 44.5649 41.8727 44.3878 41.6337 44.2525C41.834 44.1491 42.0262 44.0305 42.2086 43.8981C42.3809 43.7785 42.5398 43.5761 42.6899 43.3058C42.8443 43.037 42.9216 42.6987 42.9216 42.3103C42.9216 41.9706 42.8265 41.6146 42.6453 41.232C42.4386 40.838 42.1266 40.5083 41.7436 40.2794C41.3277 40.0208 40.7928 39.8894 40.1451 39.8894H36.1045V47.6882H38.4799V44.6455H38.7457C39.0206 44.6455 39.2405 44.6794 39.4143 44.746C39.5896 44.8139 39.7678 44.9645 39.9445 45.1934C40.1318 45.4298 40.3353 45.802 40.5626 46.3042L41.1821 47.6882H43.7253L42.9335 45.9955C42.6512 45.3855 42.4269 44.9764 42.2605 44.7754ZM47.1291 42.342L45.3286 39.8858H42.8641L45.9986 44.1559V47.6861H48.3755V44.1146L51.455 39.8888H48.9384L47.1291 42.342Z" fill="#333333"/>
</g>
</svg>
