<svg width="63" height="62" viewBox="0 0 63 62" fill="none" xmlns="http://www.w3.org/2000/svg">
<g id="Infiniti">
<path id="Vector" fill-rule="evenodd" clip-rule="evenodd" d="M31.0291 22.4984L40.0928 33.0073C44.5999 31.7734 47.5794 29.5885 47.5794 26.9013C47.5794 22.6737 40.1149 18.7057 31.0152 18.7057C21.9114 18.7057 14.6232 22.6737 14.6232 26.9013C14.6232 29.5691 17.5572 31.7389 22.0009 32.9782L31.0291 22.4984ZM11.2924 28.0206C11.2924 22.533 20.1289 18.0833 31.0291 18.0833C41.9332 18.0833 50.7683 22.533 50.7683 28.0206C50.7683 32.4635 44.9774 36.2259 36.9798 37.497L31.0291 23.3017L25.0782 37.497C17.0862 36.2259 11.2924 32.4635 11.2924 28.0206ZM19.8838 43.8962V41.1909H21.3164V41.5885H20.3879V42.2731H21.2557V42.6691H20.3879V43.8962H19.8838ZM42.6825 43.9168H42.181V41.2144H42.6825V43.9168ZM48.7434 41.5953V41.1992H50.4336V41.5953H49.8413V43.9044H49.3357V41.5953H48.7434ZM5.70667 43.9168H5.20114V41.2144H5.70667V43.9168ZM35.4645 43.2267L35.4672 41.1882H35.9025V43.892H35.313L34.6117 41.8548V43.8933H34.1876V41.1882H34.7812L35.4645 43.2267ZM56.8678 43.9168H56.3637V41.2144H56.8678V43.9168ZM27.8801 43.9168H27.3758V41.2144H27.8801V43.9168ZM13.2057 43.2267L13.2112 41.1882H13.6452V43.892H13.0569L12.3489 41.8548V43.8933H11.9274V41.1882H12.5225L13.2057 43.2267Z" fill="#333333"/>
</g>
</svg>
