<svg width="63" height="62" viewBox="0 0 63 62" fill="none" xmlns="http://www.w3.org/2000/svg">
<g id="Clip path group">
<mask id="mask0_254_6670" style="mask-type:luminance" maskUnits="userSpaceOnUse" x="0" y="0" width="63" height="62">
<g id="clip0_505_5105">
<path id="Vector" d="M62.1667 0H0.166672V62H62.1667V0Z" fill="white"/>
</g>
</mask>
<g mask="url(#mask0_254_6670)">
<g id="Group" filter="url(#filter0_d_254_6670)">
<path id="Vector_2" fill-rule="evenodd" clip-rule="evenodd" d="M24.0417 16.6488C22.7175 17.6844 21.9225 19.0562 21.4863 20.6527C21.1507 21.8679 21.059 23.1116 21.0926 24.3654C21.1262 25.7321 21.3545 27.0641 21.9031 28.3243C22.4607 29.5909 23.2596 30.6599 24.4419 31.421C24.5767 31.5087 24.7198 31.5814 24.8713 31.6584C24.9459 31.6962 25.0226 31.7354 25.1014 31.7777C25.1595 31.4145 25.2111 31.0937 25.2653 30.7728C25.4344 29.7395 25.6017 28.7073 25.7689 27.6755L25.7697 27.6706C25.9175 26.759 26.0651 25.8477 26.2139 24.9364C26.2384 24.794 26.2582 24.6503 26.278 24.5068C26.3251 24.1654 26.3721 23.8246 26.4811 23.5029C27.0136 21.9417 27.5637 20.3861 28.1137 18.8305C28.3505 18.1611 28.5871 17.4918 28.8224 16.822L29.4949 14.9099C29.3193 14.9265 29.1472 14.9406 28.9777 14.9546C28.5963 14.9859 28.2288 15.0162 27.8685 15.0703C26.4605 15.2795 25.1647 15.7684 24.0417 16.6488ZM29.855 23.1192C29.6949 23.109 29.6291 23.1706 29.5684 23.304C28.4016 25.8514 27.231 28.3987 26.0603 30.9436C25.9707 31.1408 25.8797 31.3377 25.7853 31.5424L25.7846 31.5439C25.7133 31.6983 25.6399 31.8572 25.5634 32.0241C27.2542 32.6337 28.9708 32.9699 30.7455 32.9032C32.1678 32.8519 33.5617 32.6119 34.904 32.069L34.8775 32.011C34.8417 31.933 34.8139 31.8727 34.793 31.8124C34.6733 31.5486 34.5532 31.2847 34.433 31.0208C34.1197 30.3321 33.8064 29.6435 33.4985 28.957C32.7692 27.353 32.0437 25.7471 31.3188 24.1426L31.3177 24.1402L30.9184 23.2565C30.8745 23.1552 30.8165 23.1179 30.7067 23.1192C30.4267 23.1256 30.1363 23.1321 29.855 23.1192ZM30.708 21.8603H29.8175V14.9535H30.708V21.8603ZM38.838 20.0329C38.1617 18.1118 36.9355 16.6705 35.0705 15.7928H35.0692C33.8005 15.1961 32.4543 14.9522 31.0295 14.9407C31.0387 14.9695 31.0464 14.9958 31.0536 15.0203C31.0646 15.0578 31.0744 15.0911 31.0862 15.123C31.3512 15.8528 31.6177 16.5826 31.8842 17.3125C32.4289 18.8041 32.9737 20.2965 33.5076 21.7923C33.5675 21.9589 33.6296 22.1246 33.6917 22.2904C33.9512 22.9823 34.2109 23.675 34.3077 24.4244C34.4545 25.5665 34.6276 26.7041 34.8008 27.842C34.8898 28.4264 34.9786 29.0109 35.064 29.5961C35.105 29.8679 35.1454 30.1396 35.1862 30.4139C35.2552 30.8765 35.3251 31.3465 35.3996 31.8355C35.4886 31.7842 35.5762 31.7359 35.6621 31.6886C35.849 31.5855 36.028 31.487 36.196 31.3709C37.5202 30.4366 38.3514 29.1533 38.8677 27.6493C39.3633 26.1992 39.4807 24.7029 39.4124 23.1885C39.3607 22.1105 39.193 21.0556 38.838 20.0329ZM30.8204 33.5358C28.9528 33.5974 27.1148 33.4063 25.3478 32.7799C23.6507 32.1794 22.2684 31.1694 21.3107 29.6294C20.6267 28.5322 20.2562 27.3285 20.0716 26.0619C19.8264 24.3038 19.8535 22.5494 20.2433 20.8132C20.5246 19.517 21.0422 18.3222 21.8992 17.2865C22.9137 16.0571 24.2315 15.2846 25.7415 14.8136C26.9755 14.4287 28.2416 14.2733 29.5233 14.2233C31.0823 14.1656 32.6247 14.267 34.1387 14.6417C35.6539 15.0138 37.0221 15.6645 38.1397 16.7758C39.1852 17.8128 39.8189 19.0755 40.1816 20.482C40.4558 21.5498 40.5895 22.6486 40.5792 23.7507C40.5818 25.3535 40.4153 26.7613 39.9208 28.1215C39.0497 30.506 37.3525 32.042 34.9582 32.8506C33.6146 33.3023 32.2271 33.4909 30.8204 33.5358ZM45.4149 37.4904C47.3342 37.4841 48.2596 39.0419 48.2222 40.4253C48.199 41.3224 47.8634 42.0616 47.1057 42.6186C47.6814 42.965 47.9679 43.4925 48.0943 44.1085C48.142 44.3384 48.1704 44.572 48.1796 44.8065C48.187 45.204 48.1858 45.6008 48.1845 46.0035C48.184 46.1598 48.1835 46.3176 48.1835 46.4761H46.0177C46.0131 46.2894 46.0056 46.103 45.9981 45.9167C45.9932 45.7935 45.9883 45.6703 45.9842 45.547C45.9743 45.415 45.9694 45.2826 45.9646 45.1504C45.9555 44.9011 45.9463 44.6517 45.9041 44.4087C45.7815 43.7131 45.2936 43.3282 44.5837 43.3282L44.0184 43.3281H44.0168C42.8867 43.328 41.7563 43.3278 40.624 43.3334C40.4291 43.3358 40.3465 43.2949 40.3078 43.0934C40.2348 42.7179 40.1497 42.3453 40.0628 41.9654C40.0205 41.7808 39.9778 41.5936 39.9361 41.4045C39.9663 41.403 39.9956 41.4007 40.0239 41.3983C40.0668 41.395 40.1076 41.3916 40.1465 41.3916H44.7528C44.891 41.3916 45.0343 41.3916 45.1762 41.3724C45.8913 41.2659 46.0964 40.7937 45.9945 40.1598C45.9247 39.7247 45.5892 39.477 45.091 39.4449C44.998 39.4394 44.9029 39.4395 44.8126 39.4397L44.7683 39.4398H39.3952V46.48H37.1754V37.5058L37.2106 37.5029C37.2628 37.4985 37.3142 37.4943 37.3637 37.4943C38.1291 37.4943 38.8948 37.4949 39.6608 37.4956H39.6625C41.58 37.4971 43.499 37.4987 45.4149 37.4904ZM8.14556 37.6041C8.09143 37.5143 8.02427 37.4912 7.9301 37.4938C7.19867 37.495 6.46731 37.4963 5.74366 37.4938C5.64557 37.4912 5.58878 37.5245 5.53586 37.6105L0.21055 46.3755C0.197775 46.3971 0.188734 46.4245 0.177742 46.4579L0.166672 46.491L0.589861 46.4911C1.29036 46.4912 1.98233 46.4915 2.67315 46.4871C2.72478 46.4871 2.79706 46.4269 2.83062 46.3768C3.1076 45.9606 3.37995 45.5414 3.64761 45.1191C3.71731 45.0101 3.7883 44.9716 3.91736 44.9742C5.62104 44.9768 7.32731 44.9768 9.03487 44.9768H9.26724L9.24683 44.9423C9.19258 44.8503 9.1506 44.7794 9.10462 44.7085C9.02324 44.5784 8.94109 44.4483 8.85894 44.3183C8.67139 44.0211 8.48345 43.7235 8.30301 43.4226C8.22822 43.3033 8.15201 43.2557 8.00618 43.257C7.2153 43.2621 6.42126 43.2617 5.62895 43.2612L4.94989 43.2609H4.68402C4.95098 42.8152 5.2143 42.3744 5.47627 41.9361L5.47777 41.9335C5.9309 41.1751 6.38 40.4236 6.83686 39.6638C7.09044 40.0828 7.33297 40.4877 7.57279 40.8883L7.80486 41.2756L10.8599 46.3768C10.9115 46.4667 10.9721 46.4923 11.0729 46.4923C11.5925 46.4897 12.1145 46.4894 12.636 46.4892C12.897 46.4891 13.1576 46.4889 13.418 46.4884C13.4529 46.4884 13.4885 46.4841 13.5308 46.4791L13.56 46.4756C13.5514 46.4602 13.5441 46.4466 13.5375 46.4342C13.5233 46.4075 13.5122 46.3868 13.498 46.3666C12.6249 44.9358 11.7506 43.5058 10.8761 42.0754C9.96538 40.5856 9.05437 39.0956 8.14426 37.6041H8.14556ZM56.7626 37.6251C58.2298 40.0368 59.7013 42.446 61.1767 44.8528L61.4361 45.2786C61.635 45.6045 61.8339 45.9303 62.0336 46.2541L62.168 46.485L62.1166 46.4875C62.0558 46.4903 62.0059 46.4928 61.955 46.4928C61.7334 46.4932 61.5119 46.4932 61.2903 46.4933C60.7732 46.4933 60.2554 46.4934 59.735 46.498C59.5879 46.4993 59.5026 46.4556 59.4278 46.3272C58.3327 44.4883 57.2339 42.6547 56.1338 40.819L55.5325 39.8158L55.4397 39.6681C54.7194 40.8668 54.0147 42.0461 53.2894 43.2627H53.5346C53.7903 43.2627 54.0462 43.263 54.3021 43.2632C55.0705 43.2639 55.84 43.2647 56.6077 43.2589C56.7458 43.2589 56.8232 43.2961 56.8968 43.4128C57.0864 43.7277 57.2831 44.0402 57.4793 44.352C57.5742 44.5026 57.6691 44.6536 57.7629 44.8039C57.7887 44.8392 57.8082 44.8767 57.8335 44.9251C57.8389 44.9357 57.8447 44.9469 57.851 44.9587C57.8546 44.9655 57.8583 44.9725 57.8622 44.9797H57.6338C55.9288 44.9797 54.2225 44.9797 52.5111 44.9772C52.395 44.9772 52.3213 45.008 52.253 45.1107C51.9922 45.5341 51.7173 45.9525 51.4347 46.3683C51.3986 46.4234 51.3133 46.4876 51.2501 46.4876C50.6614 46.4942 50.0698 46.4932 49.4786 46.4923C49.2637 46.4919 49.0486 46.4915 48.834 46.4915C48.8219 46.4915 48.812 46.4896 48.7951 46.4862C48.7847 46.4843 48.7714 46.4816 48.754 46.4787C48.792 46.4162 48.8276 46.355 48.8624 46.2952C48.8983 46.2333 48.9334 46.1729 48.9695 46.1142L50.2565 43.9965C51.5478 41.8721 52.8395 39.7468 54.1271 37.62C54.1851 37.5289 54.2445 37.4917 54.3503 37.4917C55.077 37.4969 55.7998 37.498 56.5225 37.4917C56.6387 37.4917 56.7045 37.5276 56.7626 37.6251ZM35.6447 37.5049H33.4404V37.7193C33.4404 39.6313 33.4404 41.5448 33.4365 43.4594C33.4365 43.5699 33.4365 43.6828 33.4236 43.7905C33.3848 44.2218 33.1525 44.5144 32.7279 44.6285C32.5125 44.6876 32.2904 44.7199 32.0671 44.7248C30.9829 44.7377 29.8988 44.7414 28.8107 44.7325C28.5153 44.7263 28.2214 44.688 27.9343 44.6183C27.5897 44.5349 27.3884 44.2884 27.3096 43.9433C27.2803 43.8006 27.2656 43.6551 27.2657 43.5096C27.2631 42.2185 27.264 40.9271 27.2649 39.6355C27.2653 38.9895 27.2657 38.3434 27.2657 37.6975V37.5049H25.0071V37.7359C25.0071 38.2493 25.0067 38.7624 25.0062 39.2757C25.0052 40.5591 25.0041 41.8424 25.0097 43.1258C25.0097 43.4313 25.0252 43.7366 25.0767 44.037C25.2201 44.9301 25.6537 45.6437 26.4797 46.0774C26.991 46.3445 27.5594 46.4853 28.1369 46.488C29.4844 46.5022 30.828 46.5022 32.1768 46.4958C32.5069 46.4953 32.8364 46.4664 33.1615 46.4097C33.9591 46.275 34.6458 45.9349 35.1131 45.2458C35.5067 44.6594 35.6447 43.9959 35.6447 43.3042C35.6473 42.067 35.6466 40.8297 35.6457 39.593V39.5821C35.6453 38.9674 35.6447 38.3528 35.6447 37.7385V37.5049ZM16.3387 37.5071C16.5143 37.4941 16.695 37.4941 16.8679 37.4941H23.7149V39.3512H16.9338C16.8451 39.3499 16.7563 39.3534 16.6678 39.3614C16.0871 39.4243 15.789 39.7002 15.696 40.2649C15.665 40.4304 15.6508 40.6011 15.6508 40.7705C15.6505 40.8392 15.6501 40.9078 15.6499 40.9763C15.6461 41.7139 15.6425 42.4468 15.6508 43.1819C15.658 43.4337 15.6926 43.6842 15.7541 43.9287C15.8534 44.3393 16.1425 44.5588 16.5582 44.6191C16.6601 44.6319 16.757 44.6319 16.8602 44.6319H23.7162V46.4902H23.5033C22.79 46.4902 22.0766 46.4907 21.3629 46.4911C19.7557 46.4923 18.1469 46.4933 16.5336 46.4889C15.8547 46.4889 15.2017 46.3387 14.6363 45.9538C13.8955 45.452 13.5729 44.7127 13.4529 43.8697C13.4051 43.5732 13.3922 43.2755 13.3922 42.9752C13.3919 42.8307 13.3914 42.6861 13.3909 42.5415C13.3884 41.8358 13.3858 41.129 13.418 40.424C13.4529 39.6822 13.6722 38.9892 14.1924 38.4245C14.7629 37.7996 15.5114 37.5661 16.3387 37.5071Z" fill="#333333"/>
</g>
</g>
</g>
<defs>
<filter id="filter0_d_254_6670" x="-3.83333" y="14.2083" width="70.0013" height="40.2917" filterUnits="userSpaceOnUse" color-interpolation-filters="sRGB">
<feFlood flood-opacity="0" result="BackgroundImageFix"/>
<feColorMatrix in="SourceAlpha" type="matrix" values="0 0 0 0 0 0 0 0 0 0 0 0 0 0 0 0 0 0 127 0" result="hardAlpha"/>
<feOffset dy="4"/>
<feGaussianBlur stdDeviation="2"/>
<feComposite in2="hardAlpha" operator="out"/>
<feColorMatrix type="matrix" values="0 0 0 0 0 0 0 0 0 0 0 0 0 0 0 0 0 0 0.25 0"/>
<feBlend mode="normal" in2="BackgroundImageFix" result="effect1_dropShadow_254_6670"/>
<feBlend mode="normal" in="SourceGraphic" in2="effect1_dropShadow_254_6670" result="shape"/>
</filter>
</defs>
</svg>
