<svg width="62" height="62" viewBox="0 0 62 62" fill="none" xmlns="http://www.w3.org/2000/svg">
<g id="270b1b1bcdd8ce3dc39fd25dc47df4ce_1650384633">
<path id="Vector" fill-rule="evenodd" clip-rule="evenodd" d="M10.3333 30.9999C10.3333 19.587 19.5871 10.3333 31 10.3333C42.4097 10.343 51.657 19.5902 51.6667 30.9999C51.6667 42.4128 42.4129 51.6666 31 51.6666C19.5871 51.6666 10.3333 42.4128 10.3333 30.9999ZM10.9016 30.9999C10.9016 42.0995 19.9005 51.0984 31 51.0984C42.0931 51.0806 51.0806 42.093 51.0985 30.9999C51.0985 19.9004 42.0996 10.9015 31 10.9015C19.9005 10.9015 10.9016 19.9004 10.9016 30.9999ZM20.4313 21.3729L19.2137 22.8827L18.889 22.5742L18.3208 22.1197L19.4247 20.7398C19.5387 20.6052 19.6459 20.4641 19.755 20.3204C19.817 20.2389 19.8795 20.1565 19.9442 20.0741C20.0475 19.9377 20.1981 19.845 20.3664 19.8143C20.4852 19.8096 20.6029 19.839 20.7052 19.8995C20.8076 19.9599 20.8904 20.0485 20.9436 20.155C20.9967 20.2613 21.018 20.3807 21.005 20.4988C20.9918 20.617 20.9448 20.7288 20.8696 20.8209L20.4313 21.3729ZM30.9999 11.2579C20.0967 11.2579 11.2586 20.0959 11.2586 30.9991C11.2586 41.9024 20.0967 50.7405 30.9999 50.7405C41.9031 50.7405 50.7412 41.9024 50.7412 30.9991C50.7314 20.1008 41.8982 11.2676 30.9999 11.2579ZM27.7529 12.4917L29.6037 12.2969L30.9349 16.1932L32.2662 12.2969L34.1169 12.4917L34.328 18.044L32.8831 17.8329L32.7532 14.1477L31.4544 17.8329H30.4154L29.1166 14.1477L28.9868 17.8329L27.542 18.044L27.7529 12.4917ZM15.3497 21.6967L14.9114 21.3395L14.9925 21.2422L16.1452 19.8134L17.4927 18.1901L17.7524 17.8653C17.8663 17.7182 18.0102 17.5969 18.1745 17.5095C18.3387 17.4222 18.5197 17.3706 18.7054 17.3584C18.891 17.3461 19.0773 17.3734 19.2515 17.4383C19.4259 17.5033 19.5845 17.6046 19.7168 17.7354C19.8956 17.9159 20.0243 18.1396 20.0902 18.3849C20.1251 18.5326 20.139 18.6841 20.1319 18.8349C20.1124 18.8468 20.093 18.8592 20.0739 18.8719L20.0902 19.1317C20.1133 19.0339 20.1271 18.9346 20.1319 18.8349C20.3352 18.7111 20.5636 18.6334 20.8009 18.6075C21.0609 18.5793 21.3239 18.6143 21.5676 18.7096C21.7988 18.8254 21.999 18.9949 22.1516 19.2039C22.304 19.4129 22.4044 19.6553 22.4443 19.911C22.4767 20.1057 22.4767 20.3005 22.4443 20.4953C22.3046 20.8478 22.0947 21.1683 21.8274 21.4369C21.6881 21.6111 21.5489 21.7866 21.4091 21.9628C21.0929 22.3615 20.7738 22.7639 20.4474 23.1578L19.3109 24.5865L19.2136 24.7001L18.7752 24.3592L17.1518 23.0117L15.3497 21.6967ZM30.9999 43.4024C28.5595 43.4024 26.1741 42.6788 24.1451 41.323C22.1161 39.9673 20.5347 38.0403 19.6008 35.7858C18.6669 33.5312 18.4225 31.0504 18.8986 28.657C19.3748 26.2636 20.5498 24.0651 22.2753 22.3396C24.0009 20.614 26.1994 19.439 28.5927 18.9629C30.9862 18.4868 33.467 18.7312 35.7216 19.665C37.976 20.5988 39.9031 22.1803 41.2588 24.2092C42.6145 26.2383 43.3381 28.6238 43.3381 31.0641C43.321 34.3252 42.0135 37.4468 39.7015 39.7467C37.3895 42.0465 34.261 43.3375 30.9999 43.3374V43.4024ZM42.8025 24.619L42.0881 23.4013L44.5232 20.1544L40.8705 21.7779L39.8315 20.8363L43.1758 16.4529L44.1986 17.4108L42.2343 20.0732L45.3188 18.6609L46.2117 19.781L44.1499 22.4435L47.0397 21.1122L47.754 22.3299L42.8025 24.619ZM19.1743 19.0588C19.1996 19.1573 19.2021 19.2603 19.1814 19.3599C19.1153 19.5294 19.0159 19.6839 18.8892 19.8145L18.2073 20.6587C17.98 20.9509 17.7527 21.2431 17.5092 21.5191L16.8273 20.9672L16.5514 20.7561L16.6488 20.6262L17.9476 19.0027C18.0439 18.8515 18.1783 18.7284 18.3372 18.6455C18.4551 18.5991 18.584 18.5883 18.7081 18.6143C18.8321 18.6402 18.9459 18.7018 19.0353 18.7916C19.1014 18.869 19.149 18.9603 19.1743 19.0588ZM31.0001 31H19.2951C19.3732 27.9203 20.6314 24.9882 22.8099 22.8098C24.9883 20.6313 27.9204 19.3731 31.0001 19.295V31ZM31.0001 31V42.7053C34.08 42.6271 37.0121 41.3689 39.1905 39.1904C41.369 37.012 42.6272 34.0799 42.7053 31H31.0001Z" fill="#333333"/>
</g>
</svg>
