<svg width="62" height="62" viewBox="0 0 62 62" fill="none" xmlns="http://www.w3.org/2000/svg">
<path d="M29.9294 13.0028C25.8732 13.0911 20.9907 13.9084 18.1541 15.8601C16.9316 16.7248 15.8773 17.8704 15.0568 19.2252C14.2364 20.5801 13.6675 22.1152 13.3858 23.7345C12.6953 27.7351 13.014 31.6315 13.6946 35.6344C14.3752 39.6373 15.7385 44.1224 19.5154 46.4295C23.2923 48.7366 25.826 49.0151 31.0015 48.9992C36.177 49.0173 38.7107 48.7434 42.4857 46.434C46.2606 44.1247 47.6258 39.6418 48.3064 35.6389C48.987 31.6361 49.3057 27.7396 48.6153 23.739C48.3335 22.1197 47.7647 20.5847 46.9442 19.2298C46.1238 17.8749 45.0694 16.7293 43.8469 15.8646C40.1625 13.5326 36.1082 13.0843 32.0716 13.0073C31.3379 13.0096 30.6081 12.9938 29.9294 13.0028ZM35.2092 14.0805C36.7062 14.2458 40.4536 14.5786 43.2587 16.5031C46.0639 18.4275 47.3169 20.875 47.8402 23.8432C48.3635 26.8114 48.3182 30.5652 47.5924 35.3152C46.8665 40.0652 44.8384 44.0183 42.0844 45.6846C39.3304 47.351 35.8328 48.2317 31.0015 48.1456C26.1702 48.2317 22.6746 47.351 19.9206 45.6869C17.1666 44.0228 15.1365 40.0697 14.4126 35.3175C13.6887 30.5652 13.6415 26.8136 14.1648 23.8454C14.688 20.8772 15.9352 18.4298 18.7462 16.5053C21.5573 14.5809 25.2968 14.2413 26.7958 14.0828C29.5957 13.8046 32.4112 13.8038 35.2112 14.0805H35.2092ZM30.071 14.9069C27.9068 14.9372 25.7497 15.1964 23.6267 15.6812C21.7028 16.1567 21.0438 16.3265 19.3836 17.4676C18.2784 18.2357 17.3233 19.2589 16.5785 20.4726C15.8337 21.6864 15.3153 23.0645 15.0559 24.5201C14.4303 28.1019 14.7195 31.5931 15.3372 35.1793C15.9548 38.7656 17.1922 42.7798 20.6189 44.8492C26.3236 48.2634 35.8249 48.1275 41.3782 44.8492C44.8049 42.7821 46.0422 38.7656 46.6599 35.1793C47.2776 31.5931 47.5668 28.1041 46.9412 24.5201C46.6818 23.0645 46.1634 21.6864 45.4186 20.4726C44.6738 19.2589 43.7187 18.2357 42.6135 17.4676C40.9533 16.3355 40.2962 16.1567 38.3704 15.6812C36.2474 15.1964 34.0902 14.9372 31.9261 14.9069C31.2926 14.9114 30.6632 14.8978 30.073 14.9069H30.071ZM34.5955 16.6299C35.577 16.7197 36.554 16.8671 37.5226 17.0713C37.7035 17.1144 37.8058 17.1823 37.7645 17.3793C35.7974 22.8606 33.7024 28.3464 31.5149 33.8277C31.2198 34.5545 30.8481 34.5816 30.5451 33.9613C28.338 28.4347 26.2174 22.9036 24.2503 17.377C24.2109 17.18 24.3132 17.1121 24.4922 17.0691C25.4608 16.8648 26.4378 16.7175 27.4193 16.6276C29.8065 16.3954 32.2064 16.3961 34.5935 16.6299H34.5955ZM22.5094 17.6668C22.6215 17.6668 22.6589 17.7483 22.6549 17.909V27.1283C22.6549 30.0399 23.068 31.4052 24.1873 33.7802L29.5497 45.1458C29.7327 45.5465 29.4357 45.5216 29.113 45.5261C25.9164 45.3676 23.4674 44.6522 21.4727 43.4681C19.0944 42.0553 17.3417 38.6977 16.7122 34.6631C16.0827 30.6286 16.0453 27.4408 16.4978 24.9277C16.9502 22.4145 18.0322 20.3293 20.4557 18.6947C21.0656 18.291 21.7095 17.9595 22.3776 17.7053C22.4191 17.6855 22.4628 17.6726 22.5074 17.6668H22.5094ZM39.4956 17.6668C39.5399 17.6704 39.5836 17.6811 39.6254 17.6985C40.2935 17.9527 40.9374 18.2842 41.5473 18.6879C43.9689 20.3225 45.0528 22.401 45.5052 24.9209C45.9577 27.4408 45.9183 30.6286 45.2908 34.6564C44.6633 38.6841 42.9106 42.0463 40.5303 43.4613C38.5356 44.6454 36.0885 45.3609 32.8899 45.5193C32.5673 45.5193 32.2703 45.542 32.4532 45.139L37.8157 33.7734C38.935 31.3984 39.3481 30.0331 39.3481 27.1215V17.909C39.3461 17.7483 39.3835 17.6645 39.4956 17.6668Z" fill="#333333"/>
</svg>
