<svg width="62" height="62" viewBox="0 0 62 62" fill="none" xmlns="http://www.w3.org/2000/svg">
<g id="5ecd2a55ad27e032890d1e6cfc14334b_1650383089">
<path id="Vector" d="M47.4666 32.6955H41.7768V23.896H56.8333V26.4606H47.4666V28.028H56.6741V30.5145H47.4666V32.6955ZM31.2993 26.1072L27.3575 32.7192H21.8722L27.0691 23.896H35.5166L40.7349 32.7192H29.1874L30.5651 30.4214H33.8675L31.2993 26.1072ZM5.17528 32.7019V23.935H15.9176C19.4051 23.935 21.8873 25.5349 21.8873 28.2578C21.8873 30.8506 19.9197 32.7019 15.8165 32.7019H5.17528ZM13.8037 30.4604C15.1405 30.4604 15.9241 29.3114 15.9241 28.4334C15.9241 27.5381 15.2245 26.491 13.8424 26.491H10.9167V30.4604H13.8037ZM5.16666 34.7527H56.6741V38.1043H5.16666V34.7527Z" fill="#333333"/>
</g>
</svg>
