<svg width="62" height="62" viewBox="0 0 62 62" fill="none" xmlns="http://www.w3.org/2000/svg">
<g id="873295d6b44134d710cd29facdff7b65_1650383065">
<path id="Vector" fill-rule="evenodd" clip-rule="evenodd" d="M24.7757 29.3365L15.3459 20.0648H15.3445L13.0085 20.1741L22.858 29.7599L20.2879 33.7061C20.2879 33.7061 49.0246 29.3365 49.0246 24.8713C49.0246 23.1918 43.1437 21.5943 32.5273 20.652C21.9135 19.7111 16.0812 20.0648 16.0812 20.0648L25.0125 28.8436L30.0044 28.3424L23.0006 21.4576C23.0006 21.4576 28.0007 21.4331 32.5273 21.799C37.587 22.2073 47.9279 23.4785 47.9279 24.9233C47.9279 27.3265 24.7757 29.3365 24.7757 29.3365ZM51.6667 38.3352H10.3333V38.3325V14.2083H51.6667V38.3352ZM12.546 46.9213C12.1846 46.9213 11.754 46.898 11.754 46.898V42.1188C11.754 41.9757 11.8694 41.9771 11.9536 41.9781L11.9728 41.9782H12.474C13.2467 41.9782 14.1689 41.9959 14.1689 44.3937C14.1689 46.7943 13.3381 46.9213 12.546 46.9213ZM12.7482 41.2804H10.6158C10.4399 41.2818 10.3333 41.2913 10.3333 41.4866C10.3333 41.5457 10.3339 41.7537 10.3348 42.0444C10.3368 42.7199 10.3402 43.8418 10.3402 44.5836C10.3402 45.3551 10.3542 46.3793 10.3618 46.9342C10.3646 47.1403 10.3665 47.2818 10.3665 47.3214C10.3665 47.4688 10.3707 47.5384 10.7362 47.5617C11.0183 47.5741 11.9008 47.5701 12.5004 47.5674C12.6952 47.5666 12.861 47.5658 12.9656 47.5658C14.7048 47.5658 15.5911 46.3368 15.5911 44.5699C15.5911 41.6478 13.9335 41.2818 12.7482 41.2818V41.2804ZM17.8205 45.2597C17.8205 45.2597 18.1792 45.2761 18.7164 45.2761C19.2578 45.2761 19.5708 45.2719 19.5708 45.2719C19.5708 45.2719 19.5292 45.119 19.183 44.0539C18.83 42.9846 18.6914 42.6365 18.6914 42.6365C18.6914 42.6365 18.5779 42.9424 18.2401 43.9664C17.9008 44.9906 17.8205 45.2597 17.8205 45.2597ZM21.0242 45.2067L21.112 45.4548L21.6838 47.0853C21.6838 47.0853 21.7904 47.3351 21.7904 47.4417C21.7904 47.5468 21.7489 47.6014 21.6105 47.6014H20.6149C20.37 47.6014 20.2941 47.3607 20.1517 46.909C20.1291 46.837 20.1047 46.7595 20.0775 46.677C19.8879 46.0775 19.8049 45.9327 19.8049 45.9327C19.8049 45.9327 19.161 45.9396 18.6914 45.9396H17.6059C17.6059 45.9396 17.1337 47.3407 17.0729 47.4799C17.0256 47.5897 16.9636 47.5896 16.8305 47.5892H16.8069C16.7334 47.5892 16.6697 47.5865 16.6055 47.5838C16.5406 47.581 16.4751 47.5782 16.3985 47.5782C16.2503 47.5782 16.2627 47.514 16.3334 47.2833C16.3803 47.1501 16.5544 46.6385 16.7051 46.1959C16.8126 45.8803 16.9083 45.5992 16.9371 45.5163C17.1859 44.7882 17.437 44.0609 17.6904 43.3343C17.9021 42.7084 18.1098 42.0811 18.3135 41.4526C18.3578 41.3229 18.4398 41.315 18.4826 41.311L18.4866 41.3106C18.8258 41.2986 19.1654 41.3096 19.503 41.3433C19.6939 41.3672 19.7162 41.4396 19.766 41.5995L19.7799 41.6438C19.9845 42.2773 20.2001 42.9074 20.4265 43.5336C20.6028 44.0146 20.871 44.7732 21.0242 45.2067ZM33.5009 45.2597C33.5009 45.2597 33.8539 45.2761 34.3954 45.2761C34.9354 45.2761 35.2525 45.2719 35.2525 45.2719C35.2525 45.2719 35.2097 45.119 34.8592 44.0539C34.5118 42.9846 34.369 42.6365 34.369 42.6365C34.369 42.6365 34.2569 42.9424 33.919 43.9664C33.5813 44.9906 33.5009 45.2597 33.5009 45.2597ZM36.1027 43.5336C36.3271 44.1304 36.6871 45.1545 36.7895 45.4548L37.3614 47.0853C37.3614 47.0853 37.4694 47.3351 37.4694 47.4417C37.4694 47.5468 37.4278 47.6014 37.2894 47.6014H36.2939C36.0463 47.6014 35.9716 47.3622 35.8315 46.9135C35.8086 46.8403 35.7839 46.7612 35.7566 46.677C35.5655 46.0775 35.481 45.9327 35.481 45.9327C35.481 45.9327 34.8371 45.9396 34.3663 45.9396H33.2848C33.2848 45.9396 32.8113 47.3407 32.7503 47.4799C32.7059 47.5897 32.6403 47.5896 32.5079 47.5892H32.4845C32.4113 47.5892 32.3478 47.5865 32.284 47.5838C32.22 47.5809 32.1558 47.5782 32.0815 47.5782C31.9306 47.5782 31.9403 47.514 32.0165 47.2833C32.0913 47.0552 32.5455 45.7157 32.6147 45.5163C32.6505 45.3983 32.845 44.84 33.0344 44.2966L33.0353 44.294C33.1674 43.9149 33.2968 43.5434 33.368 43.3343C33.5785 42.7077 33.7873 42.0805 33.9938 41.4526C34.037 41.3224 34.1156 41.315 34.1593 41.3109L34.1628 41.3106C34.502 41.2986 34.8415 41.3096 35.1792 41.3433C35.3711 41.3666 35.3936 41.4357 35.4428 41.5868C35.4486 41.6046 35.4548 41.6236 35.4617 41.6438C35.6645 42.2773 35.8782 42.9073 36.1027 43.5336ZM23.8169 41.3283C23.9939 41.3278 24.2704 41.3272 24.2704 41.4963L24.2691 41.495C24.2691 41.5632 24.2731 41.9328 24.2782 42.3883C24.2863 43.1181 24.2968 44.0681 24.2968 44.3488C24.2968 44.6017 24.3015 45.3627 24.3057 46.0383V46.0402C24.309 46.5786 24.312 47.062 24.312 47.1904C24.312 47.4785 24.2815 47.6042 24.0544 47.6042C23.9498 47.6042 23.8228 47.6075 23.6933 47.611C23.5365 47.6151 23.3761 47.6193 23.2471 47.6179C23.0159 47.6151 22.8692 47.5919 22.8692 47.271C22.8692 47.1284 22.8656 46.491 22.8616 45.7825C22.8567 44.8958 22.8511 43.8976 22.8511 43.6183C22.8511 43.3259 22.8465 42.8088 22.8426 42.3764C22.8398 42.0656 22.8373 41.7986 22.8373 41.6903C22.8373 41.4308 22.901 41.3229 23.1433 41.3229C23.2709 41.3229 23.399 41.3245 23.5171 41.3259C23.6179 41.3272 23.7118 41.3283 23.7913 41.3283H23.8169ZM30.3662 41.3252C30.4797 41.3241 30.6047 41.3229 30.7287 41.3229C30.9558 41.3229 31.0222 41.4308 31.0222 41.6888C31.0222 41.7971 31.0188 42.0632 31.015 42.373C31.0094 42.8058 31.0028 43.3249 31.0028 43.6183C31.0028 43.8975 30.9995 44.8955 30.9964 45.7819V45.7851V45.7878C30.9939 46.4944 30.9919 47.1287 30.9919 47.2696C30.9919 47.5919 30.8478 47.6137 30.6262 47.6191C30.5155 47.6191 30.3766 47.6158 30.2387 47.6123C30.1025 47.6089 29.967 47.6056 29.8605 47.6056C29.6417 47.6056 29.614 47.4785 29.614 47.189C29.614 47.1029 29.6155 46.8503 29.6173 46.5273V46.5259C29.6206 45.9533 29.6251 45.1605 29.6251 44.6806L28.5146 44.6766L27.5342 44.6806L27.548 47.1904C27.548 47.4785 27.5162 47.6042 27.3016 47.6042C27.2042 47.6042 27.0833 47.6075 26.9597 47.6109C26.8094 47.615 26.6552 47.6193 26.5344 47.6179C26.3143 47.6137 26.1675 47.5905 26.1675 47.2696C26.1675 47.1278 26.1648 46.4915 26.1618 45.7837V45.781L26.1617 45.778C26.1579 44.8922 26.1537 43.8964 26.1537 43.6183C26.1537 43.325 26.149 42.8074 26.145 42.3747V42.371C26.1422 42.0619 26.1398 41.7968 26.1398 41.6888C26.1398 41.4322 26.2021 41.3229 26.4306 41.3229C26.5534 41.3229 26.6779 41.3241 26.7923 41.3252C26.8891 41.3261 26.9788 41.327 27.0537 41.327L27.0714 41.3269C27.2362 41.3268 27.5107 41.3264 27.5107 41.495C27.5178 42.3271 27.5261 43.159 27.5356 43.9911C27.5356 43.9911 27.8568 43.9993 28.5228 43.9993C29.1875 43.9993 29.6334 43.9911 29.6334 43.9911C29.6334 43.4455 29.6422 42.5189 29.6475 41.9578C29.6498 41.7143 29.6514 41.5397 29.6514 41.495C29.6514 41.3264 29.9271 41.3268 30.0934 41.3269L30.1112 41.327C30.1835 41.327 30.2711 41.3261 30.3662 41.3252ZM40.0755 41.372C40.6299 41.3809 41.1843 41.3941 41.7385 41.4117L41.7398 41.4102C41.9199 41.4226 41.9281 41.4977 41.9254 41.6001C41.9184 41.7065 41.9046 41.9168 41.8908 42.0207C41.8836 42.1099 41.8236 42.1079 41.7654 42.1059C41.7567 42.1057 41.7482 42.1053 41.7398 42.1053H41.3009C41.1199 42.1053 40.7488 42.0987 40.5015 42.0942C40.3778 42.092 40.285 42.0903 40.2624 42.0903C40.189 42.0903 40.1751 42.1067 40.1751 42.1668V44.2615L40.1835 45.7089L40.1862 47.387C40.1862 47.714 39.9055 47.6994 39.6589 47.6864C39.6378 47.6853 39.6168 47.6842 39.5963 47.6833C39.3443 47.6711 38.987 47.6356 38.8916 47.6151C38.8116 47.5996 38.8101 47.5653 38.8035 47.4266C38.8026 47.4065 38.8015 47.3843 38.8001 47.3598C38.7836 47.1631 38.7807 46.8013 38.7807 46.6552C38.7807 46.5961 38.7775 46.3782 38.7736 46.1136C38.7677 45.7041 38.7599 45.1828 38.7599 44.9646C38.7599 44.7828 38.7636 44.4612 38.767 44.145C38.7705 43.8391 38.7739 43.5384 38.7739 43.3738C38.7739 43.1238 38.7601 42.5764 38.7531 42.2933C38.7506 42.1954 38.749 42.1281 38.749 42.1177C38.749 42.0841 38.7098 42.0845 38.6757 42.0847L38.6658 42.0849H38.4457C38.1908 42.0794 37.2409 42.0766 37.1206 42.0766C36.9972 42.0766 36.9792 41.9401 36.9792 41.7161C36.9792 41.495 37.0221 41.3911 37.1107 41.3911C37.1506 41.3911 37.3798 41.3879 37.6495 41.3841H37.6541L37.6561 41.384C38.0414 41.3786 38.5065 41.372 38.6202 41.372C39.1052 41.3686 39.5903 41.3686 40.0755 41.372ZM44.1852 41.9852C43.5553 41.9852 43.2893 42.2924 43.2893 42.6542L43.2907 42.6529C43.2907 43.1148 43.7992 43.4664 44.3787 43.867C45.1455 44.3972 46.0365 45.0133 46.0365 46.0844C46.0365 47.4103 44.8859 47.7558 43.99 47.7558C43.3904 47.7558 42.5942 47.54 42.4364 47.4909C42.2771 47.4417 42.2743 47.3407 42.2743 47.2586V47.0061C42.2743 46.8777 42.2883 46.7316 42.3685 46.7316C42.4509 46.7316 42.5356 46.7717 42.651 46.8265C42.8983 46.9436 43.2867 47.1277 44.0966 47.1277C44.7737 47.1277 44.8789 46.7453 44.8789 46.4995C44.8789 45.8875 44.3241 45.4977 43.7219 45.0747C43.0072 44.5726 42.2259 44.0237 42.2259 43.001C42.2259 41.6165 43.2741 41.3666 44.1188 41.3666C44.7945 41.3666 45.2972 41.5249 45.473 41.6055C45.6419 41.6874 45.6696 41.7435 45.6696 41.8376V42.2993C45.6696 42.3662 45.6295 42.414 45.5754 42.414C45.5221 42.414 45.4615 42.3751 45.3768 42.3207C45.1799 42.1947 44.853 41.9852 44.1852 41.9852ZM51.1377 41.4892C51.2289 41.4914 51.3319 41.4939 51.4091 41.4939C51.5531 41.4939 51.6403 41.4952 51.6403 41.5909C51.6403 41.6089 51.6413 41.6465 51.6428 41.7076C51.6493 41.9698 51.6667 42.6643 51.6667 44.0965V45.9741V45.9963C51.6674 46.4148 51.6698 47.7929 49.7447 47.7916C47.7812 47.7916 47.1097 46.7701 47.1097 45.7297C47.1097 44.9542 47.0973 43.1492 47.0911 42.2332C47.0889 41.9216 47.0874 41.7129 47.0874 41.6824C47.0874 41.5594 47.1068 41.4665 47.2924 41.4665C47.393 41.4665 47.4751 41.4629 47.5539 41.4594C47.6268 41.4561 47.6971 41.453 47.7771 41.453C47.9234 41.4521 48.0698 41.4534 48.216 41.457C48.3462 41.4598 48.4749 41.479 48.4749 41.976C48.4749 42.2662 48.4711 42.8307 48.468 43.2948C48.4657 43.6187 48.4638 43.894 48.4638 43.9928C48.4638 44.0995 48.465 44.3182 48.4662 44.5579C48.4677 44.8492 48.4694 45.1714 48.4694 45.3623C48.4694 45.405 48.4689 45.45 48.4684 45.4971C48.4613 46.1522 48.4501 47.184 49.6838 47.184C49.9398 47.184 50.894 47.184 50.894 45.925C50.894 45.6146 50.884 44.7602 50.875 43.9808V43.9791C50.8697 43.5248 50.8647 43.0961 50.8621 42.8157C50.8621 42.5559 50.8576 42.2081 50.8543 41.9583C50.8525 41.8188 50.8511 41.7087 50.8511 41.6633C50.8511 41.543 50.8719 41.4857 50.9618 41.4857C51.0004 41.4857 51.0654 41.4873 51.1377 41.4892Z" fill="#333333"/>
</g>
</svg>
