<svg width="62" height="62" viewBox="0 0 62 62" fill="none" xmlns="http://www.w3.org/2000/svg">
<g clip-path="url(#clip0_1301_20187)">
<path fill-rule="evenodd" clip-rule="evenodd" d="M31.0921 7C39.6173 7 46.0947 7.55408 49.6379 7.88621C51.6307 8.10655 54.2326 9.32491 54.1776 12.758C54.2343 15.1931 54.0123 30.9166 53.57 35.7883C53.4598 39.2214 53.0159 42.2657 49.6395 44.5922C45.3883 47.5198 40.5602 50.9594 31.0937 55C21.6272 50.9594 16.7992 47.5198 12.548 44.5922C9.17158 42.2657 8.72766 39.223 8.61749 35.7883C8.17357 30.9166 7.95323 15.1947 8.00832 12.758C7.95161 9.32491 10.5536 8.10817 12.5463 7.88621C16.0896 7.55408 22.5669 7 31.0921 7Z" fill="#333333"/>
<path fill-rule="evenodd" clip-rule="evenodd" d="M31.0919 8.77148C38.7876 8.88165 45.8174 9.21379 48.8082 9.65771C50.2469 9.76788 52.1295 9.98984 52.2396 12.8688C52.4616 17.5203 51.9075 32.7982 51.6321 36.8389C51.3 40.3287 50.7329 41.2943 48.9183 42.8188C46.4833 44.8667 36.4076 51.0119 31.0935 53.0047C25.7795 51.0119 15.7022 44.8667 13.2671 42.8188C11.4541 41.2943 10.8871 40.3287 10.555 36.8389C10.2779 32.7982 9.72383 17.5203 9.94579 12.8688C10.056 9.98984 11.9386 9.76788 13.3789 9.65771C16.3664 9.21379 23.3962 8.88165 31.0919 8.77148Z" fill="#F8F8F8"/>
<path fill-rule="evenodd" clip-rule="evenodd" d="M13.4871 26.819C12.9347 26.6521 12.3806 26.7088 12.1586 27.8154C11.9367 28.9219 11.9918 29.5862 12.2688 30.2504C11.9918 30.6911 12.2121 32.5754 12.656 32.9075C12.4908 33.4616 12.9331 35.1222 13.4871 35.3976C13.377 36.0619 14.3717 37.4487 14.9825 37.7242C14.5386 37.9461 16.0583 38.9166 16.7534 39.1645C17.6947 39.4966 19.3553 39.4966 20.0196 39.3864C20.5737 39.3864 20.7389 38.5002 20.2415 38.1146C19.7441 37.7258 14.4852 33.4632 14.3183 28.039C14.3717 27.54 14.0396 26.9308 13.4871 26.819ZM30.1503 18.5708C29.708 18.1285 29.3208 17.6846 28.5448 17.6846C28.2126 17.0754 27.2162 16.3561 26.6071 16.301C26.2749 15.7485 25.0566 14.9725 24.3372 15.0276C24.0602 14.5286 21.4583 14.4184 20.9042 14.7505C20.4052 14.4735 18.3022 14.9174 18.0803 15.5817C17.3609 15.7485 15.9206 16.9102 15.2013 18.6259C14.9242 19.1233 15.4783 19.2902 15.7553 18.958C16.0324 18.6259 18.0803 17.6846 19.2419 18.0734C20.4052 18.4607 23.3943 19.8993 26.9376 24.8262C27.5468 25.7124 29.5946 26.3216 29.9818 24.439C30.463 22.1092 30.9248 19.4571 30.1503 18.5708ZM48.6961 26.819C49.2502 26.6521 49.8043 26.7088 50.0246 27.8154C50.2466 28.9219 50.1915 29.5862 49.9145 30.2504C50.1915 30.6911 49.9695 32.5754 49.5272 32.9075C49.6941 33.4616 49.2502 35.1222 48.6961 35.3976C48.8079 36.0619 47.8099 37.4487 47.2023 37.7242C47.6446 37.9461 46.1266 38.9166 45.4315 39.1645C44.4902 39.4966 42.8296 39.4966 42.1653 39.3864C41.6112 39.3864 41.4443 38.5002 41.9434 38.1146C42.4424 37.7258 47.7013 33.4632 47.8666 28.039C47.8099 27.54 48.142 26.9308 48.6961 26.819Z" fill="#333333"/>
<path fill-rule="evenodd" clip-rule="evenodd" d="M31.092 43.7604C31.6461 43.9823 32.1435 43.8171 32.5307 43.5384C31.8665 43.5384 31.4242 43.0961 31.4242 42.3768C31.4242 41.6558 31.6461 41.2119 32.3655 41.3269C33.0848 41.4338 33.5287 41.2135 33.3068 40.0518C33.0848 38.8902 32.9746 38.3361 33.0848 37.7837L34.1363 34.2971C34.9658 34.1869 35.9071 33.9083 35.7969 32.8001C35.2979 32.6899 34.4684 33.1322 34.3015 33.5761C34.1347 33.8548 33.6373 33.5761 33.8025 33.244L34.0796 32.468C34.1898 32.1358 34.577 31.9706 34.7989 31.8604C35.0209 31.7502 35.353 31.5283 36.2943 31.4181C36.5714 30.5854 36.9586 28.5942 36.1841 27.985C35.9071 27.8198 36.1274 27.6529 36.4061 27.6529C36.6831 27.6529 37.0704 27.486 37.3474 26.9886C37.6228 26.4896 39.8943 21.5077 41.7769 19.847C43.6579 18.1864 46.9808 19.2395 47.8103 20.6782C48.6414 22.1185 49.0837 24.2765 48.9185 25.827C48.9185 26.2693 48.6965 26.3811 48.4211 26.4362C48.1378 26.5086 47.8733 26.6406 47.645 26.8234C47.368 27.0453 47.368 27.3224 47.368 27.5427C47.368 27.7631 46.7037 32.5798 43.2156 35.2919C42.5513 35.7374 41.8871 35.3486 41.8871 34.7945C41.8871 34.2404 41.8871 33.1905 42.4411 32.9119C42.1074 32.6365 42.2743 30.9207 42.6631 30.5854C42.3861 30.1981 42.5529 28.3172 43.1054 28.0401C42.8284 27.8732 42.642 27.0421 42.6631 26.8218C42.7733 25.6034 41.5015 24.8841 41.0025 26.1024C41.3897 26.2693 41.8887 26.7116 41.6116 28.8696L38.6225 30.6955C38.7893 31.2496 38.4556 33.0221 38.1235 34.0751C37.7913 35.125 37.4592 36.7873 36.6281 37.7269C35.7986 38.6699 35.2445 39.7197 34.7471 42.3217C34.6369 43.2646 33.8609 43.4298 33.3635 43.54C34.1395 43.8187 33.7507 44.4262 33.2533 44.7049C32.7543 44.9803 32.0366 45.4226 31.0937 45.4226C30.1507 45.4226 29.433 44.9803 28.934 44.7049C28.4366 44.4262 28.0494 43.8187 28.8238 43.54C28.3248 43.4298 27.5504 43.2646 27.4402 42.3217C26.9412 39.7213 26.3888 38.6699 25.5576 37.7269C24.7265 36.7873 24.3944 35.1266 24.0622 34.0751C23.7301 33.0221 23.398 31.2496 23.5648 30.6955L20.5741 28.8696C20.2986 26.71 20.796 26.2677 21.1832 26.1024C20.6842 24.8841 19.4124 25.6034 19.5226 26.8218C19.542 27.0421 19.3557 27.8732 19.0803 28.0401C19.6328 28.3172 19.7996 30.1981 19.5226 30.5854C19.9098 30.9191 20.0751 32.6365 19.7445 32.9119C20.2986 33.1905 20.2986 34.2404 20.2986 34.7945C20.2986 35.3486 19.6328 35.7374 18.9701 35.2919C15.4819 32.5798 14.8177 27.7647 14.8177 27.5427C14.8177 27.3208 14.8177 27.0437 14.5406 26.8234C14.3132 26.6394 14.0484 26.5073 13.7646 26.4362C13.4892 26.3811 13.2672 26.2693 13.2672 25.827C13.1003 24.2765 13.5443 22.1185 14.3738 20.6782C15.2049 19.2395 18.5262 18.1864 20.4088 19.847C22.2914 21.5077 24.5612 26.4913 24.8383 26.9886C25.1153 27.486 25.5025 27.6529 25.7796 27.6529C26.055 27.6529 26.277 27.8198 25.9999 27.985C25.2255 28.5942 25.6127 30.5854 25.8898 31.4181C26.8311 31.5283 27.1632 31.7502 27.3835 31.8604C27.6039 31.9706 27.9927 32.1358 28.1029 32.468L28.3799 33.244C28.5468 33.5761 28.0478 33.8548 27.8809 33.5761C27.714 33.1338 26.8845 32.6899 26.3855 32.8001C26.2753 33.9083 27.2167 34.1853 28.0462 34.2971L29.0976 37.7837C29.2094 38.3377 29.0976 38.8918 28.8773 40.0518C28.6553 41.2135 29.0976 41.4355 29.8186 41.3269C30.5379 41.2135 30.7599 41.6558 30.7599 42.3768C30.7599 43.0945 30.3176 43.5384 29.6517 43.5384C30.0389 43.8171 30.5379 43.9823 31.092 43.7604Z" fill="#333333"/>
<path fill-rule="evenodd" clip-rule="evenodd" d="M32.0328 18.5708C32.4751 18.1285 32.8623 17.6846 33.6384 17.6846C33.9705 17.0754 34.9669 16.3561 35.5761 16.301C35.9082 15.7485 37.1266 14.9725 37.8459 15.0276C38.123 14.5286 40.7249 14.4184 41.279 14.7505C41.778 14.4735 43.8793 14.9174 44.1013 15.5817C44.8206 15.7485 46.2609 16.9102 46.9803 18.6259C47.2557 19.1233 46.7032 19.2902 46.4262 18.958C46.1492 18.6259 44.0997 17.6846 42.938 18.0734C41.7764 18.4623 38.7856 19.8993 35.2423 24.8262C34.6332 25.7124 32.5837 26.3216 32.1965 24.439C31.7185 22.1092 31.2568 19.4571 32.0328 18.5708Z" fill="#333333"/>
</g>
<defs>
<clipPath id="clip0_1301_20187">
<rect width="62" height="62" fill="white"/>
</clipPath>
</defs>
</svg>
