<svg width="62" height="62" viewBox="0 0 62 62" fill="none" xmlns="http://www.w3.org/2000/svg">
<g id="acura_1650383042614">
<path id="Vector" fill-rule="evenodd" clip-rule="evenodd" d="M12.122 29.3333C11.6737 29.5967 11.2656 30.0065 10.9783 30.5908C11.1958 19.7208 20.0761 10.9742 31 10.9742C42.0373 10.9742 50.9884 19.9035 51.0256 30.9302C50.8109 30.633 50.5354 30.3667 50.1942 30.1204C49.1344 29.3567 48.5855 26.6987 48.4804 25.6759L48.4716 25.6643C48.5461 26.3844 48.5796 27.1307 48.5796 27.9163C48.5796 29.345 48.4628 30.8682 48.2205 32.5717C47.5111 37.5573 45.101 42.8907 43.6777 44.5303L43.5873 44.6278L43.2676 44.9653L43.253 44.9755C39.7904 47.8064 36.6082 48.8103 31.0887 48.8103H31.0522C25.5329 48.8103 22.3477 47.8064 18.8881 44.9755L18.8735 44.9667L18.5436 44.6176L18.4632 44.5303C17.0443 42.8966 14.6299 37.5573 13.919 32.5717C13.6781 30.8682 13.5613 29.345 13.5613 27.9163C13.5613 27.1802 13.6139 26.4994 13.6781 25.8215L13.6591 25.9291C13.557 26.9518 13.2489 28.6656 12.122 29.3333ZM31 10.3333C19.5858 10.3333 10.3333 19.5868 10.3333 30.9991C10.3333 42.4131 19.5857 51.6666 31 51.6666C42.4143 51.6666 51.6667 42.4131 51.6667 30.9991C51.6667 19.5868 42.4142 10.3333 31 10.3333ZM42.8052 43.3591C43.0241 43.4915 43.7233 43.2718 44.4255 42.4397C45.7028 40.0873 47.1743 36.2015 47.7027 32.4975C47.9406 30.8201 48.0574 29.3202 48.0574 27.9149C48.0574 25.3122 47.6501 23.0892 46.8064 21.1151C46.1746 19.6376 45.1037 18.3887 43.7379 17.5362C40.3149 15.389 36.4275 14.1262 32.4934 13.8877C32.0321 13.8585 31.5562 13.844 31.0891 13.844H31.0526C30.5825 13.844 30.1125 13.8585 29.6483 13.8877C25.7171 14.1262 21.8283 15.389 18.4037 17.5378C17.0381 18.3903 15.9672 19.6392 15.3353 21.1166C14.4916 23.0892 14.0828 25.3108 14.0828 27.9149C14.0931 29.4489 14.2121 30.9803 14.439 32.4975C14.9557 36.1287 16.3834 39.9403 17.6475 42.3117C18.3847 43.25 19.1438 43.4973 19.3773 43.3591C19.5715 43.2441 19.6504 42.4978 19.5015 41.4751C18.4285 38.2135 17.6461 34.6491 17.1615 31.3031C16.4973 26.7219 16.5235 22.6049 17.5089 20.0939C17.6065 19.8355 17.7338 19.5896 17.8884 19.3606C17.995 19.2049 18.0724 19.1278 18.0724 19.1278C20.1043 17.094 25.5989 16.0728 31.0949 16.0728C36.588 16.0728 42.0826 17.094 44.116 19.1264C44.116 19.1264 44.1934 19.2049 44.2999 19.3592C44.4526 19.5897 44.5798 19.836 44.6795 20.0939C45.6648 22.6033 45.6896 26.7219 45.0254 31.3031C44.5408 34.6651 43.7525 38.2425 42.6723 41.5159C42.5307 42.5168 42.6125 43.2457 42.8052 43.3591ZM39.8608 45.9763C39.9236 46.2018 39.2477 46.7867 38.6201 47.1576H38.6215C36.5457 47.9607 34.1999 48.2851 31.0891 48.2851H31.0526C27.9608 48.2851 25.6251 47.9651 23.564 47.178C22.929 46.8055 22.2283 46.2048 22.2911 45.9763C22.3426 45.7865 23.5674 46.0822 24.5302 46.3146L24.5873 46.3284C24.9553 46.4361 25.3278 46.5274 25.704 46.6018C27.3185 46.9147 29.1447 47.0921 31.0701 47.0921H31.1183C32.9185 47.0985 34.7152 46.9343 36.4844 46.6018C36.9049 46.5185 37.321 46.414 37.731 46.2891C38.6741 46.0607 39.8112 45.7944 39.8608 45.9763ZM41.3426 42.778C42.6884 39.205 43.6505 35.0864 44.2052 31.2573C44.8077 27.0846 44.8074 23.3768 44.0396 21.0128C44.0642 21.09 44.0872 21.1676 44.1089 21.2458C44.2008 24.8318 44.1307 29.4974 43.6169 34.6329C43.4637 35.3924 43.2987 36.1489 43.1192 36.9053C43.9103 30.494 43.9789 24.6543 43.8432 20.479L43.8505 20.4962C43.7493 20.2557 43.643 20.0794 43.5629 19.9622C43.4855 19.8488 43.4286 19.7906 43.4286 19.7906C43.1932 19.5548 42.9035 19.3329 42.566 19.1251C42.7424 25.1062 42.637 34.6352 41.2259 43.0519C41.1309 43.2613 41.0288 43.4199 40.8974 43.5669C41.9398 37.6038 42.3086 31.0265 42.3761 25.5231H42.5891V23.0354H42.3871C42.3822 21.5599 42.3571 20.1951 42.3208 18.9812C41.9475 18.7724 41.5246 18.5789 41.0591 18.401L41.0609 18.4016C41.091 19.7916 41.1107 21.358 41.1121 23.0402L40.8731 23.0412C40.8718 21.3225 40.8514 19.7246 40.82 18.3123C40.3924 18.1584 39.932 18.017 39.444 17.8885L39.5617 17.9215V17.9201C39.5846 19.4631 39.5984 21.1977 39.5967 23.0464L39.3586 23.0473C39.3606 21.1734 39.3468 19.4165 39.3238 17.8572C38.0494 17.5298 36.5932 17.2881 35.0452 17.1365C35.0487 18.9772 35.0489 20.9923 35.0438 23.0919L35.0261 23.0572H34.8118C34.8171 20.9617 34.8175 18.951 34.8146 17.1146C34.3941 17.0761 33.9672 17.0442 33.5358 17.0189C33.5349 18.9023 33.5322 20.9431 33.5272 23.0572H33.2972C33.3024 20.9384 33.3054 18.893 33.3065 17.0061C32.8539 16.9822 32.3967 16.9656 31.9367 16.9564L31.9972 16.9585L31.9841 23.0572H31.7578L31.7724 16.9541L31.8245 16.9543C31.5814 16.9501 31.3377 16.948 31.0935 16.9479C30.292 16.9481 29.4946 16.9707 28.7121 17.0154L28.8791 17.0079C28.8806 18.8878 28.8837 20.9249 28.8893 23.0354L28.6613 23.0359C28.6564 20.9294 28.6537 18.896 28.6529 17.0189C28.1673 17.0473 27.6875 17.0841 27.2161 17.1294L27.3712 17.1155H27.3726C27.3691 18.9463 27.3691 20.9502 27.3742 23.0387L27.1437 23.0392C27.1388 20.9586 27.1387 18.9618 27.1421 17.1366C26.1052 17.2381 25.1096 17.3801 24.1822 17.561L24.3641 17.5273C24.3483 19.2042 24.34 21.0782 24.3438 23.0603L24.1091 23.0589C24.1056 21.0948 24.1137 19.2367 24.129 17.5715C23.6914 17.6579 23.269 17.753 22.8648 17.8568C22.8412 19.4173 22.827 21.1756 22.8288 23.0511L22.5909 23.0496C22.5893 21.1997 22.6029 19.4639 22.6255 17.9201L22.6828 17.9044C22.2173 18.0286 21.7773 18.1646 21.3671 18.312C21.3361 19.7246 21.3159 21.3228 21.3147 23.0418L21.0747 23.0404C21.0761 21.3581 21.0959 19.7916 21.1264 18.4016L21.1486 18.3929C20.6758 18.5724 20.2464 18.768 19.868 18.9794C19.6841 25.0692 19.7833 34.9603 21.2927 43.5684C21.1598 43.4214 21.0562 43.2629 20.9613 43.0534C19.5498 34.6344 19.4476 25.1024 19.6228 19.1232L19.6729 19.0931C19.7059 19.0732 19.7393 19.0532 19.773 19.0334C19.3688 19.2672 19.0265 19.5198 18.7557 19.7906C18.7557 19.7906 18.7031 19.8473 18.6243 19.9622C18.5349 20.0928 18.4144 20.2972 18.3018 20.5821L18.3454 20.4806C18.1673 25.9659 18.4097 31.4568 19.071 36.9053C18.8884 36.1517 18.7235 35.3924 18.5717 34.6358C18.1309 30.1873 17.9661 25.716 18.0783 21.2472C18.12 21.1052 18.1629 20.9656 18.209 20.8313C17.3816 23.1844 17.3653 26.9762 17.9849 31.2573C18.5396 35.0864 19.5002 39.205 20.846 42.778C21.0679 43.3773 21.2708 43.6028 21.7554 43.9812C23.0094 44.8626 24.4386 45.4654 25.9465 45.7487C27.6355 46.0673 29.3512 46.2241 31.0701 46.2172H31.1183C32.9577 46.2172 34.6978 46.0499 36.2421 45.7487C37.7504 45.4652 39.1801 44.8623 40.4346 43.9812C40.9178 43.6014 41.1178 43.3773 41.3426 42.778ZM40.8871 25.5231H41.1008C41.0556 30.0235 40.8695 35.0782 40.4148 39.7014L40.6135 33.738C40.737 31.3872 40.8092 29.0318 40.845 26.7871L40.8871 25.5231ZM40.1712 39.7249H40.4125C40.2531 41.3418 40.0609 42.9057 39.8304 44.3744L39.5647 44.53C39.8059 43.0163 40.0062 41.399 40.1712 39.7249ZM38.0596 17.5724C38.075 19.2355 38.0831 21.0912 38.0796 23.0526L37.8442 23.0535C37.848 21.074 37.84 19.2022 37.8245 17.5273L38.0596 17.5724ZM37.9325 25.5231H37.8331C37.7838 32.5552 37.5729 40.4274 37.0174 45.5644C37.0995 45.5443 37.1813 45.5225 37.2625 45.4989C37.5579 42.743 37.7548 39.211 37.8811 35.4478C37.9016 31.3957 37.9297 25.876 37.9325 25.5231ZM36.5531 17.3178C36.5622 19.0763 36.5658 21.0199 36.5612 23.0586L36.3285 23.0597C36.3334 21.008 36.3301 19.0529 36.321 17.286L36.5531 17.3178ZM36.5517 25.5231H36.3187C36.3165 25.9058 36.3141 26.2906 36.3112 26.6767C36.3943 27.0421 36.4689 27.4145 36.5358 27.7923C36.5424 27.031 36.5477 26.2732 36.5517 25.5231ZM34.6381 39.7249H34.8723C34.8202 42.1011 34.7542 44.2471 34.6714 45.9935L34.6109 46.0016C34.5527 46.0093 34.4946 46.0172 34.4349 46.0226C34.5188 44.2714 34.5855 42.1148 34.6381 39.7249ZM33.5022 30.0083C33.508 28.8103 33.5131 27.6072 33.5172 26.413C33.4437 26.1675 33.3678 25.9432 33.2894 25.7399C33.2846 27.1544 33.2788 28.585 33.2718 30.0083H33.5022ZM33.4889 32.4567H33.2584C33.2263 37.7323 33.176 42.7117 33.0994 46.1463C33.1318 46.1445 33.1636 46.1421 33.1953 46.1399C33.2407 46.1367 33.2859 46.1335 33.3315 46.1317C33.4073 42.6956 33.4573 37.7236 33.4889 32.4567ZM31.7179 39.7162H31.9484L31.9344 46.203C31.8959 46.203 31.8578 46.2041 31.8194 46.2052C31.7808 46.2063 31.7419 46.2074 31.7023 46.2074L31.7179 39.7162ZM30.4163 16.9555L30.4305 23.0572H30.2034L30.19 16.9599C30.266 16.957 30.3404 16.9555 30.4163 16.9555ZM30.4697 39.7162H30.24L30.2542 46.2045L30.4849 46.2088L30.4697 39.7162ZM36.2962 39.7249H36.0605C35.9778 42.0247 35.8727 44.1152 35.74 45.8394L35.9794 45.7957C36.1106 44.08 36.2146 42.0053 36.2962 39.7249ZM39.0712 39.7249H38.8324C38.6879 41.6759 38.5076 43.5126 38.2844 45.1468C38.3464 45.123 38.4108 45.0951 38.4736 45.068L38.5369 45.0406C38.7539 43.4331 38.9298 41.6338 39.0712 39.7249ZM28.7585 39.7249H28.9898C29.0169 42.1656 29.0502 44.3648 29.0908 46.1477L28.8573 46.1317C28.8175 44.3512 28.7849 42.158 28.7585 39.7249ZM27.3157 39.7249H27.5487C27.6015 42.1154 27.6684 44.2726 27.7522 46.0241C27.6908 46.0185 27.631 46.0104 27.5717 46.0022L27.5172 45.995C27.434 44.2482 27.3678 42.1018 27.3157 39.7249ZM24.1199 25.5638H24.3549C24.365 26.9919 24.3816 28.4542 24.4066 29.921H24.171C24.1463 28.4542 24.1298 26.9919 24.1199 25.5638ZM24.2213 32.4188H24.4573C24.5737 37.3159 24.7921 42.0722 25.1698 45.5644C25.1427 45.5571 25.1154 45.5502 25.0882 45.5432C25.0337 45.5292 24.979 45.5153 24.9247 45.4989C24.5518 42.0125 24.3362 37.2852 24.2213 32.4188ZM23.1153 39.722L23.3554 39.7247C23.5001 41.6759 23.6808 43.5126 23.9042 45.1468C23.8452 45.1239 23.7868 45.0988 23.7291 45.0742L23.6976 45.0606L23.6503 45.0406C23.4329 43.4323 23.2569 41.632 23.1153 39.722ZM21.7749 39.7067L22.0145 39.7094C22.1799 41.3891 22.3805 43.0116 22.6225 44.53C22.5875 44.5091 22.5525 44.4885 22.5175 44.468C22.4649 44.4374 22.4124 44.4066 22.3598 44.3744C22.1281 42.9 21.935 41.33 21.7749 39.7067ZM25.8686 25.5638H25.6358C25.6767 32.839 25.8279 40.8241 26.2092 45.7957L26.4486 45.8378C26.0644 40.8704 25.9107 32.8599 25.8686 25.5638ZM25.6259 23.0682L25.8584 23.0696C25.8532 21.0143 25.8563 19.0559 25.8647 17.286L25.6326 17.3178C25.6242 19.079 25.621 21.0258 25.6259 23.0682ZM36.506 25.2309V23.3499L42.2969 23.3265V25.2309H40.6065L40.1321 39.4327H38.1512L38.2242 25.2309H36.506ZM23.4514 39.4342L21.4909 39.4138L21.0296 23.3309L25.6818 23.36V25.2746H23.4265V30.2121H25.171V32.1282H23.425L23.4514 39.4342ZM28.8671 39.4327H26.8408L26.5285 23.3309L28.9109 23.3265L28.8671 39.4327ZM32.1705 25.1741L32.1238 30.298H34.5471C34.5471 30.298 34.4535 29.4121 34.2638 28.3601C34.0886 27.3913 33.804 26.0863 33.3733 25.1843H33.3471L32.1705 25.1741ZM30.3034 39.4255L30.1151 23.3499H34.8478C36.9828 27.4598 36.8445 34.3678 36.7601 38.5877C36.7541 38.8832 36.7486 39.1654 36.7439 39.4327H34.8842V39.3934C34.8842 38.9672 34.8594 33.4913 34.6463 32.166H32.2289L32.2143 39.4255H30.3034Z" fill="#333333"/>
<path id="Vector_2" fill-rule="evenodd" clip-rule="evenodd" d="M23.6499 17.8691C21.4688 18.3482 19.7588 19.0508 18.872 19.9373C18.6672 20.1422 18.5646 20.3917 18.4496 20.6855C17.5519 22.9747 17.5063 26.8437 18.1466 31.2678C18.7001 35.0883 19.6581 39.1952 20.9991 42.755C21.1691 43.2064 21.5227 43.6528 21.8507 43.8835C23.0858 44.7518 24.4937 45.3456 25.9792 45.6247C27.6582 45.9414 29.3638 46.0973 31.0727 46.0903H31.1215C32.9515 46.0903 34.6811 45.9238 36.2146 45.625C37.699 45.3458 39.1071 44.7527 40.3421 43.886C40.5794 43.6993 40.7366 43.5587 40.862 43.3971C40.9872 43.236 41.0865 43.0463 41.1956 42.7551C42.5366 39.1953 43.4964 35.0882 44.0497 31.2678C44.6886 26.8436 44.6428 22.9749 43.7438 20.6856C43.6311 20.3937 43.5303 20.1495 43.3184 19.9372C42.4331 19.0507 40.7243 18.3482 38.5436 17.8691C36.3711 17.3917 33.7591 17.1423 31.0967 17.1415M31.0967 16.821C33.7771 16.8218 36.4129 17.0728 38.6124 17.556C40.8037 18.0375 42.591 18.7554 43.5451 19.7108C43.81 19.9761 43.9302 20.279 44.0422 20.5688C44.9736 22.9408 45.0068 26.8812 44.3669 31.3137C43.8109 35.1515 42.8465 39.2817 41.4957 42.8679C41.3801 43.1761 41.2671 43.398 41.1152 43.5937C40.9643 43.7881 40.7808 43.9488 40.5368 44.1406L40.5299 44.1459C39.2569 45.0402 37.8059 45.6517 36.2753 45.9396C34.7201 46.2428 32.9701 46.4108 31.1215 46.4108H31.074C29.3449 46.4179 27.6189 46.2601 25.9199 45.9396C24.3895 45.6521 22.9391 45.0402 21.6664 44.1456C21.2836 43.8764 20.891 43.3771 20.6992 42.8679C19.3484 39.2817 18.3855 35.1515 17.8294 31.3138C17.1879 26.8812 17.2213 22.9406 18.1511 20.5687C18.2639 20.2805 18.3867 19.9694 18.6455 19.7108C19.6009 18.7554 21.3894 18.0375 23.5812 17.556C25.7813 17.0728 28.4172 16.8218 31.0967 16.821ZM23.6499 17.8691C25.823 17.3917 28.4351 17.1423 31.0967 17.1415L23.6499 17.8691Z" fill="#333333"/>
</g>
</svg>
