<svg width="62" height="62" viewBox="0 0 62 62" fill="none" xmlns="http://www.w3.org/2000/svg">
<g id="bcb1cc1fe548f18eeba15a25e8780ac1_1650382843">
<path id="Vector" fill-rule="evenodd" clip-rule="evenodd" d="M31 51.518C19.6876 51.518 10.4829 42.3151 10.4829 31.0009C10.4812 19.6868 19.6859 10.4855 30.9983 10.4855C42.3141 10.4855 51.5204 19.6868 51.5204 31.0025C51.5204 42.3151 42.3141 51.5196 30.9983 51.5196L31 51.518ZM30.9983 10.3342C19.6076 10.3342 10.3333 19.6068 10.3333 31.0009C10.3333 42.3949 19.6076 51.6658 31 51.6658C42.3957 51.6658 51.6667 42.3966 51.6667 31.0009C51.6667 19.6051 42.3957 10.3342 31 10.3342H30.9983ZM42.9346 20.004L41.6768 21.012L41.6241 21.0597L41.568 21.1038L41.1906 20.6381L41.0631 20.4731L41.0954 20.4443L42.4263 19.3734L42.7748 17.0106L43.2848 17.6413L43.0961 19.3513L44.8062 19.5315L45.3162 20.1671L42.9346 20.004ZM40.9807 40.8304C40.955 40.8587 40.9288 40.8875 40.9017 40.9154C39.815 41.998 38.5672 42.9056 37.2028 43.6064C35.3583 44.5645 33.3209 45.0928 31.2431 45.1515C31.1941 45.1515 31.145 45.1527 31.0967 45.154C31.0496 45.1553 31.0028 45.1566 30.9576 45.1566C30.5018 45.1566 30.0462 45.1345 29.5926 45.0902C28.9992 45.0229 28.4101 44.9219 27.8282 44.7877C25.2287 44.1655 22.8466 42.8502 20.9353 40.9817C18.1527 38.2757 16.6228 34.7688 16.6228 31.1108C16.6228 27.4799 18.1935 23.8321 20.937 21.0885C22.8077 19.1995 25.154 17.8512 27.7278 17.1857C28.3594 17.0267 29.0013 16.912 29.6487 16.8423C30.0855 16.7998 30.519 16.776 30.9576 16.776L31.2499 16.7777C34.7771 16.8643 38.2771 18.3925 40.9033 21.0154C43.6027 23.7165 45.1529 27.3439 45.1529 30.9697C45.1529 34.5054 43.6707 38.0444 41.0852 40.7217H41.0835C41.0479 40.7563 41.0144 40.7932 40.9807 40.8304ZM16.5276 19.0826C16.5563 18.8689 16.6577 18.6714 16.8149 18.5235L19.0416 16.2202L19.4768 16.64L17.2211 18.9689L18.87 20.5718L20.5596 18.8277L19.9477 18.2327L18.9108 19.3003L18.4808 18.8804L20.0888 17.2282L21.5659 18.6612L19.3307 20.9662C19.1863 21.1245 18.9929 21.2299 18.7816 21.2653C18.5776 21.2959 18.4127 21.2534 18.2869 21.1293L16.6823 19.5705C16.6181 19.5084 16.5704 19.4313 16.5434 19.3461C16.5163 19.261 16.511 19.1705 16.5276 19.0826ZM22.8783 13.9356C23.0004 13.7596 23.1801 13.6316 23.3865 13.5736L26.4206 12.5298L26.6162 13.0993L23.5513 14.1566L23.8234 14.9503L26.8898 13.8998L27.0853 14.471L24.024 15.5249L24.2993 16.3289L27.3658 15.2734L27.5578 15.8444L24.5237 16.8866C24.3254 16.963 24.107 16.9691 23.9049 16.9035C23.7009 16.8423 23.5803 16.7285 23.5242 16.5652L22.7933 14.4439C22.7655 14.3585 22.7586 14.2678 22.7735 14.1794C22.7882 14.0909 22.8243 14.0072 22.8783 13.9356ZM30.2896 12.6641C30.302 12.5763 30.3349 12.4927 30.3858 12.4201C30.4366 12.3474 30.5037 12.2878 30.5819 12.2459C30.7707 12.1431 30.9884 12.106 31.2006 12.1405L34.3861 12.5162L34.3182 13.1163L31.097 12.7321L30.9983 13.5736L34.2161 13.9525L34.1413 14.5543L30.927 14.1719L30.8233 15.0133L34.0411 15.3992L33.9765 15.9992L30.7875 15.6184C30.5763 15.5993 30.3773 15.5108 30.2215 15.3668C30.0719 15.219 30.0057 15.0643 30.0226 14.8909L30.2913 12.6641H30.2896ZM36.5773 16.2456L38.0697 13.7911L38.8737 14.2806L37.4204 16.6706L39.4941 17.9404L39.1287 18.5456L36.9614 17.2197C36.7777 17.1138 36.6342 16.95 36.5534 16.7539C36.4769 16.5618 36.4821 16.3918 36.5773 16.2456ZM30.9321 11.1869C20.0819 11.1869 11.2513 20.0176 11.2513 30.8694C11.2513 41.7212 20.0819 50.5553 30.9321 50.5553C41.7889 50.5553 50.6196 41.7212 50.6196 30.8694C50.6196 20.0176 41.7889 11.1869 30.9321 11.1869ZM36.7467 42.5389C38.4713 41.6792 39.9842 40.4486 41.177 38.9352C41.1549 38.6581 41.0716 38.3913 40.9186 38.1346H41.0733L39.9786 36.637L39.727 36.2937L39.4516 36.6643C39.1923 36.4686 38.9202 36.2904 38.6375 36.1305L39.1235 35.4726L38.4861 34.6091L38.238 34.2623L37.3166 35.4948C37.1364 35.4234 36.9512 35.3571 36.7677 35.2942L36.3563 35.1565L37.6397 33.438L37.0549 32.6475L36.8033 32.3042L34.9471 34.7945C34.7448 34.7537 34.5375 34.7179 34.3232 34.6839C34.2731 34.6751 34.2222 34.6651 34.1708 34.6549C34.074 34.6357 33.9756 34.6162 33.8778 34.6041L36.1982 31.4797L35.9772 31.1805L35.4214 30.4208L35.1731 30.0808L31.9434 34.4154C31.7601 34.4045 31.5736 34.4023 31.3881 34.4001C31.3414 34.3996 31.2948 34.3991 31.2483 34.3983C31.2006 34.3983 31.1522 34.3959 31.1037 34.3933C31.0553 34.3907 31.0068 34.3881 30.9593 34.3881C30.9206 34.3881 30.8845 34.3899 30.8489 34.3916C30.814 34.3933 30.7795 34.395 30.7433 34.395L34.5715 29.2547L33.402 27.6602L33.147 27.3151L27.6836 34.6585C27.3997 34.7043 27.1278 34.7604 26.861 34.8183C26.6468 34.8624 26.4411 34.9083 26.2388 34.9593L32.5503 26.4941L31.1326 24.5682L30.8827 24.2248L25.7832 31.1772L20.6939 38.1346H20.8468C20.8164 38.1925 20.7891 38.2502 20.7619 38.3114C21.9386 40.0004 23.4975 41.3875 25.3118 42.36C27.126 43.3324 29.1444 43.8626 31.2023 43.9073C33.1288 43.8659 35.0222 43.3985 36.7467 42.5389ZM31.2023 17.5615C32.3159 17.5798 33.4224 17.7445 34.4932 18.051C40.0653 19.6165 44.1653 24.7416 44.1653 30.8083C44.1651 33.7302 43.1954 36.5694 41.4081 38.8808L41.3953 38.8976C41.3279 38.9861 41.2575 39.0782 41.1872 39.1614C39.092 41.7406 36.1049 43.4391 32.8172 43.9209C32.2902 43.994 31.7497 44.0365 31.2023 44.05C31.1037 44.0552 31.0137 44.0586 30.9133 44.0586C29.0058 44.0594 27.1205 43.6476 25.3871 42.8513C23.6535 42.0549 22.1128 40.893 20.8707 39.4451C20.8386 39.4059 20.8062 39.3671 20.7737 39.3285C20.7068 39.2485 20.6402 39.1691 20.5783 39.0866C18.6883 36.7417 17.6589 33.8201 17.6613 30.8083C17.6613 23.5007 23.604 17.5563 30.9133 17.5563C30.9637 17.5563 31.0115 17.5576 31.059 17.5589C31.1063 17.5602 31.1532 17.5615 31.2023 17.5615Z" fill="#333333"/>
</g>
</svg>
