<svg width="62" height="62" viewBox="0 0 62 62" fill="none" xmlns="http://www.w3.org/2000/svg">
<g id="ff93164e24b74625106945ece155b4de_1650382866" clip-path="url(#clip0_254_6819)">
<path id="Vector" fill-rule="evenodd" clip-rule="evenodd" d="M20.7018 33.0674C23.2873 31.6737 27.1815 31.0189 31.0129 31.0648C34.9783 31.1068 38.9137 31.8941 41.3302 33.3541C38.5092 36.0675 34.7417 37.4255 31.0129 37.414C27.1815 37.4012 23.3825 35.9553 20.7018 33.0674ZM18.5782 29.6405L18.6335 29.7861C18.7987 30.2255 18.9419 30.6064 19.1867 31.0266C22.0026 29.1412 26.4552 28.1768 31.0129 28.2468C35.23 28.3169 39.5459 29.2724 42.7364 31.2342C43.0214 30.7366 43.2636 30.2149 43.4601 29.6749C40.4488 28.0392 36.9679 27.0047 32.538 26.8035V23.7588H29.509V26.8035C25.336 27.0493 21.5043 27.6827 18.5782 29.6405ZM31.0141 16.7892C31.058 16.7764 31.1068 16.7764 31.1519 16.7764C36.6336 16.6631 44.1488 20.5855 43.8682 27.2774C41.4154 25.8187 38.6432 24.885 35.195 24.4289V20.9854H26.9761V24.406C23.5391 24.8672 20.6704 25.7398 18.2138 27.1997C18.2138 19.8822 25.6977 16.8364 31.0129 16.7918L31.0141 16.7892ZM31.058 38.391C39.1153 38.3427 45.8991 33.275 45.8991 26.9347C45.898 20.6173 39.3218 15.5 31.0567 15.5H31.0129C22.7815 15.5254 16.1015 20.6301 16.1015 26.936C16.1015 33.2496 22.6676 38.3682 31.0141 38.3923H31.0567L31.058 38.391ZM0.00440198 43.7773C-0.029405 44.4729 0.128361 45.2091 0.660507 45.7073C1.6532 46.6285 3.51046 46.5124 5.00397 46.419C5.31134 46.3998 5.60344 46.3816 5.86928 46.3735V43.7123H2.1981C2.24567 43.967 2.37966 44.2308 2.60753 44.4639H4.28036V45.8753C3.7199 45.9212 3.25049 45.7539 2.76211 45.5799C2.70712 45.5604 2.65189 45.5407 2.59627 45.5213C1.07746 45.004 0.909677 42.9785 2.67515 42.3951C3.62299 42.0727 4.75616 42.2307 5.87178 42.5568V41.4714C5.62665 41.4677 5.38305 41.4622 5.14233 41.4568C2.44056 41.3965 0.0986752 41.3443 0.00440198 43.7773ZM10.5271 43.7976H8.80797V42.3479H10.5972C11.2709 42.6193 11.1519 43.6448 10.5271 43.7976ZM11.7479 41.4268H7.09133V46.4996H8.78419V44.441H9.92861L11.0129 46.4996H12.7546L11.51 44.3594C12.2575 44.0588 12.7333 43.3964 12.7546 42.753V42.6435C12.7333 42.1402 12.4278 41.6676 11.7479 41.4268ZM15.2339 44.254L17.8997 44.2808C18.1831 44.2808 18.2873 43.8487 18.3546 43.5696C18.362 43.5392 18.3688 43.5106 18.3755 43.4846H15.2326V42.2234H17.8997C18.2277 42.2234 18.3967 41.6897 18.4756 41.4259H13.5373V46.0287C13.5461 46.2962 13.6713 46.5 13.9442 46.5H18.7023V45.714H15.2339V44.254ZM21.9011 44.5916H22.8377H22.839H23.7655L23.0668 42.8386H22.7038L21.9011 44.5916ZM21.6182 41.4271H22.8377H24.0247L26.2522 46.4999H24.478L24.0472 45.5444H21.6394L21.2338 46.4999H19.4596L21.6182 41.4271ZM46.4212 44.5673H47.349H48.2731L47.5844 42.8195H47.2138L46.4212 44.5673ZM46.127 41.4041H47.349H48.5473L50.7635 46.4808H48.9867L48.5561 45.5227H46.1483L45.7439 46.4808H43.9683L46.127 41.4041ZM27.8149 42.3711H25.7677V41.4271H31.9844C31.8692 41.8398 31.5875 42.3711 31.2043 42.3711H29.5427V46.4986H27.8149V42.3711ZM42.0125 45.0616L42.7663 41.4271H44.2388L42.8589 46.4999H40.9721L39.9541 44.0921L39.0388 46.4999H37.0968L35.6468 41.4271H37.1505L37.8868 45.0616H38.3363L39.646 41.4271H40.3147L41.5467 45.0616H42.0125ZM51.5185 41.4271H53.2364V45.5673H56.5144V46.4999H52.0069C51.6438 46.4999 51.5185 46.2132 51.5185 45.9036V41.4271ZM57.004 41.4271H58.7094V45.5571H62V46.4999H57.4862C57.1229 46.4999 57.004 46.2132 57.004 45.8897V41.4271Z" fill="#333333"/>
</g>
<defs>
<clipPath id="clip0_254_6819">
<rect width="62" height="62" fill="white"/>
</clipPath>
</defs>
</svg>
