<svg width="62" height="62" viewBox="0 0 62 62" fill="none" xmlns="http://www.w3.org/2000/svg">
<path opacity="0.992" fill-rule="evenodd" clip-rule="evenodd" d="M0 25C1.1597 25 2.31939 25 3.47909 25C3.47909 26.1947 3.47909 27.3894 3.47909 28.5841C4.79195 28.5841 6.10482 28.5841 7.41768 28.5841C7.41768 27.3894 7.41768 26.1947 7.41768 25C8.57737 25 9.73709 25 10.8968 25C10.8968 28.9996 10.8968 32.9993 10.8968 36.9989C9.73709 36.9989 8.57737 36.9989 7.41768 36.9989C7.41768 35.683 7.41768 34.3671 7.41768 33.0512C6.10482 33.0512 4.79195 33.0512 3.47909 33.0512C3.47909 34.3671 3.47909 35.683 3.47909 36.9989C2.31939 36.9989 1.1597 36.9989 0 36.9989C0 32.9993 0 28.9996 0 25Z" fill="#333333"/>
<path opacity="0.986" fill-rule="evenodd" clip-rule="evenodd" d="M17.7227 25C18.9918 25 20.2608 25 21.53 25C23.0812 28.9924 24.6238 32.9921 26.1578 36.9989C24.8887 36.9989 23.6196 36.9989 22.3505 36.9989C20.8165 32.9921 19.2739 28.9924 17.7227 25Z" fill="#333333"/>
<path opacity="0.987" fill-rule="evenodd" clip-rule="evenodd" d="M24.9434 25C26.2672 25 27.591 25 28.9148 25C29.7612 27.1854 30.6036 29.3756 31.442 31.5708C30.8057 33.2963 30.1492 35.0018 29.4727 36.6873C27.9543 32.7987 26.4446 28.903 24.9434 25Z" fill="#333333"/>
<path opacity="0.986" fill-rule="evenodd" clip-rule="evenodd" d="M34.3642 25C35.6334 25 36.9023 25 38.1715 25C36.6203 28.9924 35.0777 32.9921 33.5436 36.9989C32.2745 36.9989 31.0054 36.9989 29.7363 36.9989C31.265 32.9865 32.8076 28.9868 34.3642 25Z" fill="#333333"/>
<path opacity="0.986" fill-rule="evenodd" clip-rule="evenodd" d="M41.748 25C43.0173 25 44.2861 25 45.5554 25C47.1065 28.9924 48.6491 32.9921 50.1832 36.9989C48.914 36.9989 47.6451 36.9989 46.3759 36.9989C44.8415 32.9906 43.2989 28.991 41.748 25Z" fill="#333333"/>
<path opacity="0.992" fill-rule="evenodd" clip-rule="evenodd" d="M52.2188 25C53.3783 25 54.5383 25 55.6978 25C55.6978 27.5106 55.6978 30.0212 55.6978 32.5318C57.7984 32.5318 59.899 32.5318 61.9996 32.5318C61.9996 34.0209 61.9996 35.5099 61.9996 36.9989C58.7394 36.9989 55.4789 36.9989 52.2188 36.9989C52.2188 32.9993 52.2188 28.9996 52.2188 25Z" fill="#333333"/>
<path opacity="0.983" fill-rule="evenodd" clip-rule="evenodd" d="M16.9031 36.999C15.5793 36.999 14.2554 36.999 12.9316 36.999C14.4242 33.0715 15.934 29.1584 17.461 25.2598C18.1375 26.9452 18.7939 28.6507 19.4303 30.3762C18.5801 32.5782 17.7377 34.7858 16.9031 36.999Z" fill="#333333"/>
<path opacity="0.983" fill-rule="evenodd" clip-rule="evenodd" d="M40.8956 36.999C39.5828 36.999 38.2699 36.999 36.957 36.999C38.4524 33.0802 39.9566 29.1671 41.47 25.2598C42.1445 26.9531 42.8065 28.6585 43.4557 30.3762C42.6086 32.591 41.7552 34.7986 40.8956 36.999Z" fill="#333333"/>
</svg>
