<svg width="63" height="62" viewBox="0 0 63 62" fill="none" xmlns="http://www.w3.org/2000/svg">
<g id="Honda">
<path id="Vector" fill-rule="evenodd" clip-rule="evenodd" d="M18.4531 22.9407C18.4704 22.1758 18.4976 21.4123 18.5433 20.6499C18.5804 19.9754 18.6545 19.3072 18.8497 18.6544C19.1016 17.826 19.529 17.126 20.2231 16.6118C20.6159 16.323 21.0507 16.1155 21.5101 15.9616C22.0166 15.7922 22.5378 15.6746 23.0665 15.6102C23.8005 15.5136 24.536 15.4278 25.2725 15.3532C25.7886 15.3059 26.306 15.2716 26.8238 15.2501C26.9957 15.242 27.1676 15.2335 27.3394 15.2248C28.0258 15.1906 28.7123 15.1565 29.3979 15.1483C30.6615 15.1355 31.9225 15.1381 33.1861 15.161C34.1433 15.1859 35.0999 15.2292 36.0553 15.2908C37.0792 15.3479 38.0999 15.4557 39.1136 15.6141C39.7707 15.7146 40.4217 15.852 41.0343 16.1155C41.7853 16.4337 42.4103 16.9122 42.8451 17.6299C43.0994 18.0448 43.2613 18.4953 43.3737 18.9662C43.486 19.4422 43.5429 19.9258 43.5812 20.4132C43.6985 21.864 43.7109 23.3186 43.6849 24.772C43.6636 25.6345 43.61 26.4959 43.5244 27.3542L43.5022 27.5929C43.4444 28.2165 43.3868 28.8383 43.3157 29.4578C43.1798 30.5969 42.997 31.7295 42.6511 32.8278C42.5374 33.2045 42.392 33.5703 42.2163 33.921C41.7779 34.8017 41.1072 35.4177 40.2203 35.7982C39.6769 36.0298 39.1062 36.1659 38.5294 36.2614C37.5375 36.4269 36.5358 36.5069 35.5317 36.5656C34.1607 36.6419 32.781 36.68 31.4 36.68H31.0727V36.7004C30.7092 36.6915 30.3459 36.6839 29.9827 36.6763C29.1552 36.6588 28.3272 36.6415 27.4982 36.6089C26.6321 36.5695 25.7668 36.5109 24.9032 36.4332C24.1848 36.3761 23.4719 36.2604 22.7713 36.087C22.4264 35.9993 22.0902 35.8787 21.767 35.7269C20.9267 35.3406 20.2508 34.6533 19.8649 33.7925C19.6001 33.2115 19.3961 32.6031 19.256 31.9777C19.0567 31.125 18.9108 30.2598 18.8188 29.3879C18.72 28.413 18.6223 27.4356 18.5446 26.4607C18.4533 25.29 18.4234 24.1149 18.4531 22.9407ZM17.785 31.6124C17.927 32.3684 18.1023 33.1141 18.3827 33.8306C18.552 34.2405 18.7298 34.6451 18.9794 35.0117C19.4488 35.7078 20.0761 36.2168 20.8321 36.5554C21.1408 36.6941 21.4559 36.8124 21.7757 36.9105C22.6688 37.1879 23.5927 37.3291 24.5215 37.4067C25.4119 37.4873 26.3039 37.5466 27.1968 37.585C28.1512 37.6207 29.1049 37.6397 29.9442 37.6565L29.9459 37.6567C30.24 37.6625 30.5202 37.668 30.7813 37.674L31.3373 37.6662C32.1465 37.655 32.7985 37.6458 33.448 37.6333C34.562 37.6078 35.6811 37.5646 36.7989 37.4793C37.6331 37.4273 38.4636 37.3262 39.2866 37.1764C39.9622 37.0573 40.6224 36.8588 41.2542 36.5847C42.3016 36.1112 43.0921 35.3603 43.5664 34.2811C43.7697 33.8287 43.9386 33.3607 44.0715 32.8812C44.3186 31.9636 44.4841 31.0283 44.6113 30.0877C44.7311 29.1549 44.8299 28.217 44.9238 27.2816C45.0177 26.35 45.0721 25.4135 45.0918 24.478C45.1276 22.9738 45.1387 21.4708 45.0139 19.9715C44.9735 19.3955 44.8679 18.8261 44.699 18.2752C44.4063 17.3398 43.911 16.5469 43.1427 15.9501C42.6494 15.5781 42.0992 15.2936 41.5148 15.1088C40.7366 14.8467 39.9338 14.708 39.1236 14.6049C38.1322 14.4808 37.1368 14.3941 36.1394 14.3453C35.1074 14.2925 34.0747 14.2542 33.0416 14.2307C31.6597 14.1996 30.2771 14.2008 28.8952 14.2345C27.3354 14.2588 25.7769 14.339 24.2226 14.4751C23.4474 14.5401 22.6753 14.6416 21.9091 14.7792C21.2615 14.8925 20.6287 15.0821 20.023 15.3443C18.9892 15.8024 18.2 16.5329 17.7071 17.5842C17.4367 18.1794 17.2599 18.8151 17.1834 19.4677C17.096 20.1568 17.0499 20.8509 17.0451 21.5458C17.0327 22.4388 17.0327 23.3318 17.0451 24.2247C17.0686 25.8219 17.2168 27.4127 17.3935 29.0009C17.4897 29.8766 17.6208 30.747 17.785 31.6124ZM11.1645 42.384L11.227 42.3937C11.27 42.4004 11.3106 42.4069 11.3535 42.4121C11.4703 42.4279 11.5895 42.441 11.71 42.454C11.7818 42.4618 11.8541 42.4697 11.9266 42.4782C12.1563 42.5075 12.2761 42.6258 12.3144 42.8613C12.3227 42.8902 12.3272 42.9202 12.328 42.9504C12.328 43.1133 12.3271 43.2759 12.3262 43.4384C12.3252 43.601 12.3243 43.7637 12.3243 43.9265C12.3243 43.9299 12.3215 43.9343 12.3185 43.9391C12.3159 43.9433 12.3131 43.9477 12.312 43.952C12.139 43.98 8.83004 43.9711 8.72012 43.9392V43.3958C8.72128 43.3413 8.72172 43.2866 8.72215 43.2321C8.72308 43.1139 8.72401 42.9963 8.73247 42.8804C8.75347 42.6436 8.88069 42.5138 9.10672 42.4808C9.16703 42.4704 9.229 42.4644 9.29047 42.4584C9.33474 42.4542 9.37877 42.4498 9.42169 42.4438C9.57855 42.426 9.73294 42.4057 9.89228 42.3827C9.89228 42.332 9.89257 42.2833 9.89285 42.2356C9.89339 42.1438 9.89391 42.0563 9.89228 41.9667C9.89055 41.921 9.89172 41.8748 9.89288 41.8287C9.89502 41.7435 9.89719 41.658 9.88116 41.5747H5.20116V42.3827C5.27157 42.3955 5.33085 42.4044 5.39261 42.4121C5.50913 42.4277 5.62565 42.4403 5.74274 42.4531C5.8167 42.4611 5.89116 42.4694 5.96572 42.4782C6.1967 42.5075 6.31898 42.6234 6.36097 42.86C6.37085 42.9274 6.37085 42.9974 6.37085 43.0649V46.0836C6.37085 46.16 6.37085 46.2313 6.3585 46.305C6.3128 46.5354 6.19423 46.6461 5.96943 46.6742C5.85526 46.6891 5.74279 46.7014 5.63079 46.7137C5.55257 46.7223 5.47453 46.7309 5.39631 46.7403C5.35333 46.746 5.31331 46.7531 5.27375 46.7602C5.25083 46.7643 5.22795 46.7683 5.20486 46.7721V47.5637C5.36172 47.5955 9.77866 47.5892 9.88735 47.5573V46.7683L9.82008 46.7595C9.60006 46.7307 9.38359 46.7023 9.16725 46.6792C8.87451 46.6461 8.73988 46.5214 8.72876 46.2185C8.72185 45.9878 8.7234 45.7563 8.72497 45.5252C8.72562 45.4262 8.7263 45.3272 8.7263 45.2284C8.7263 45.224 8.72938 45.2208 8.73262 45.2174C8.73587 45.2141 8.73926 45.2106 8.73988 45.2055C8.93504 45.1736 12.2156 45.1851 12.328 45.2195C12.328 45.3254 12.3283 45.4315 12.3286 45.5374C12.3291 45.7496 12.3297 45.9622 12.328 46.1752C12.3276 46.215 12.3234 46.2546 12.3157 46.2936C12.2761 46.5227 12.1613 46.6411 11.9365 46.6729C11.8754 46.6809 11.8151 46.6872 11.7547 46.6937C11.7101 46.6983 11.6653 46.7031 11.6203 46.7085L11.167 46.767V47.5714H15.842V46.7696C15.7672 46.7574 15.6923 46.7462 15.6173 46.7364C15.5672 46.731 15.5169 46.7256 15.4665 46.7203C15.3317 46.7059 15.1956 46.6913 15.0589 46.6729C14.849 46.6411 14.7378 46.529 14.6934 46.3115C14.6819 46.2292 14.6764 46.1463 14.6773 46.0632C14.6748 45.0706 14.6748 44.0805 14.6773 43.0879C14.6773 43.0115 14.681 42.9313 14.6909 42.8524C14.7366 42.6169 14.8577 42.5062 15.0935 42.4769L15.4197 42.4414L15.842 42.384V41.5747H11.1645V42.384ZM32.4672 41.5899V42.3803C32.4963 42.3866 32.5207 42.3916 32.5463 42.3929C32.7687 42.4235 32.9947 42.4514 33.2182 42.4769C33.4702 42.5075 33.595 42.6347 33.6258 42.8906C33.6319 42.9296 33.6345 42.9693 33.6332 43.0089V45.8775C33.6332 45.9007 33.6289 45.9241 33.623 45.9559L33.6172 45.9882L33.5749 45.933C33.5455 45.8946 33.5208 45.8625 33.4986 45.8316C32.5213 44.5139 31.5479 43.1927 30.5787 41.8687C30.4341 41.6739 30.2638 41.5683 30.0315 41.5683L29.9142 41.5658H26.053C26.0276 41.5658 26.0015 41.5683 25.973 41.5713C25.9573 41.5729 25.9409 41.5745 25.9234 41.576V42.384C25.9551 42.3882 25.9851 42.3933 26.0135 42.3982C26.0382 42.4025 26.0616 42.4065 26.0839 42.4095C26.2153 42.4256 26.3438 42.44 26.4741 42.4545L26.6732 42.4769C26.9139 42.5025 27.0412 42.6245 27.0844 42.8752C27.0916 42.9316 27.0912 42.9887 27.0908 43.0452L27.0906 43.0827C27.0931 44.0792 27.0931 45.0731 27.0931 46.0697C27.0931 46.123 27.0931 46.1791 27.0882 46.2313C27.066 46.5113 26.9313 46.6487 26.6583 46.6766L26.331 46.7149L25.9234 46.7708V47.5637C26.0753 47.5942 29.5461 47.5892 29.6536 47.5612C29.6782 47.383 29.672 46.874 29.6462 46.7657L29.4313 46.7377C29.3819 46.7319 29.333 46.7265 29.2843 46.7209C29.1512 46.7059 29.0201 46.6911 28.889 46.6716C28.6555 46.6423 28.5309 46.5024 28.5061 46.2617C28.5024 46.2071 28.5024 46.1549 28.5024 46.1001C28.5 45.4853 28.5008 44.8705 28.5015 44.256C28.502 43.9489 28.5024 43.6404 28.5024 43.3334V43.1922C28.5129 43.1905 28.5232 43.188 28.5333 43.1846L28.6284 43.3118C28.9664 43.771 29.3053 44.2298 29.6443 44.6886C30.2812 45.5507 30.9184 46.4131 31.5495 47.2787C31.6166 47.3776 31.7071 47.4576 31.8122 47.511C31.9173 47.5644 32.034 47.5896 32.151 47.584C32.886 47.581 33.6232 47.5812 34.3622 47.5814L34.9178 47.5816C34.9441 47.5816 34.9728 47.5777 35.0031 47.5737C35.0155 47.572 35.0283 47.5703 35.0414 47.5688V43.1183C35.0414 43.0483 35.0414 42.9783 35.0474 42.9122C35.066 42.6513 35.2031 42.5088 35.4526 42.4782L35.5482 42.4679C35.6279 42.4593 35.7058 42.4509 35.7837 42.4401C35.8664 42.4313 35.9481 42.4199 36.0289 42.4087C36.088 42.4004 36.1468 42.3923 36.2049 42.3853V41.5784C35.9875 41.5518 32.5735 41.5619 32.4672 41.5899ZM43.486 45.4065C43.4483 45.5641 43.3902 45.7156 43.3132 45.8571C43.1427 46.1651 42.8598 46.3191 42.5289 46.3789C42.3641 46.4085 42.1972 46.4242 42.0298 46.4259C41.5861 46.4306 41.1418 46.4298 40.6978 46.4291C40.5315 46.4288 40.3643 46.4285 40.1981 46.4285C40.1761 46.4285 40.1539 46.4271 40.1303 46.4255C40.1224 46.425 40.1143 46.4244 40.106 46.424C40.0932 46.4232 40.0799 46.4226 40.066 46.4222V42.7365C40.08 42.7351 40.0939 42.7329 40.1074 42.7307C40.1294 42.7272 40.1508 42.7239 40.1721 42.7239H42.0768C42.2942 42.7264 42.5165 42.7532 42.7265 42.8231C42.8804 42.8732 43.0213 42.9582 43.1391 43.0718C43.2569 43.1855 43.3485 43.3249 43.407 43.4797C43.533 43.7852 43.559 44.111 43.5701 44.4343C43.5799 44.7639 43.5701 45.0897 43.486 45.4065ZM46.2554 44.2358C46.185 43.4721 45.8724 42.8358 45.2746 42.3649C45.0096 42.1606 44.716 41.9987 44.4038 41.8852C43.78 41.6497 43.1278 41.567 42.4646 41.567C41.1414 41.5634 39.8146 41.5642 38.49 41.5651C37.923 41.5654 37.3562 41.5658 36.7903 41.5658C36.7474 41.5663 36.7045 41.5692 36.6619 41.5747V42.3892L37.2695 42.4527C37.6425 42.4936 37.7549 42.6208 37.7549 43.0063V46.0836C37.7549 46.1523 37.7513 46.2211 37.7426 46.2898C37.6969 46.5341 37.577 46.6487 37.3363 46.6766C37.2251 46.6881 37.1151 46.6996 37.0052 46.7136L36.5816 46.7708V47.584H36.7792C38.5998 47.584 40.4254 47.584 42.2522 47.5803C42.5856 47.5803 42.9229 47.565 43.2575 47.5318C43.7742 47.4862 44.2786 47.3457 44.7472 47.1169C45.4142 46.7836 45.8972 46.2834 46.133 45.5504C46.2689 45.1215 46.2949 44.6787 46.2554 44.2358ZM22.8912 45.3183C22.7577 45.9789 22.3638 46.3912 21.7326 46.5451C21.1554 46.6867 20.5536 46.6819 19.9786 46.5312C19.3488 46.3683 18.9794 45.9458 18.8559 45.3005C18.8245 45.1437 18.8085 44.9834 18.7926 44.8223C18.7847 44.743 18.7767 44.6634 18.767 44.584C18.783 44.2989 18.8052 44.0203 18.8781 43.7479C19.0239 43.1599 19.3846 42.7833 19.9503 42.6267C20.5339 42.4668 21.1473 42.4607 21.7338 42.6089C22.3613 42.7642 22.754 43.1688 22.8887 43.8218C22.9937 44.318 22.9937 44.8208 22.8912 45.3183ZM24.5388 42.2767C24.1065 41.9522 23.6175 41.755 23.1012 41.6175C22.3749 41.4215 21.6288 41.3668 20.8963 41.3617C20.2182 41.3533 19.5411 41.4202 18.8769 41.5615C18.3724 41.6637 17.8882 41.8521 17.4441 42.119C16.5561 42.6737 16.0891 43.4806 16.0829 44.5522C16.0756 45.5958 16.503 46.4052 17.3528 46.9754C17.5873 47.1331 17.8344 47.2553 18.1025 47.3571C18.6953 47.5849 19.308 47.6995 19.9379 47.7517C20.8766 47.8254 21.8091 47.8051 22.7342 47.6219C23.265 47.5273 23.7762 47.3405 24.2461 47.0695C25.0997 46.5605 25.5986 45.8147 25.6604 44.7953C25.7246 43.7518 25.3677 42.9002 24.5388 42.2767ZM50.6487 42.8559C50.293 43.4515 49.9373 44.0458 49.568 44.6528C49.7854 44.6859 51.7072 44.677 51.8073 44.6465C51.7048 44.4302 50.7328 42.9259 50.6487 42.8559ZM54.6983 44.9024C54.9939 45.3665 55.2893 45.8303 55.5807 46.2971C55.644 46.4086 55.7327 46.5024 55.8394 46.5703C55.946 46.6383 56.0671 46.6782 56.1922 46.6866C56.3431 46.6987 56.4965 46.7192 56.6513 46.7399C56.7232 46.7495 56.7954 46.7592 56.8678 46.7679V47.5533C56.8651 47.5559 56.8639 47.559 56.8627 47.5613C56.8615 47.5632 56.8602 47.5646 56.8579 47.5646C56.8568 47.5657 56.8559 47.5667 56.8552 47.5676C56.8528 47.5702 56.851 47.5723 56.8492 47.5723C56.8257 47.5761 56.7999 47.5812 56.7777 47.5812L51.8629 47.5799C51.8568 47.5799 51.8488 47.577 51.8378 47.573C51.831 47.5705 51.823 47.5676 51.8135 47.5646V46.7655C51.8749 46.7588 51.9352 46.7528 51.9949 46.7469C52.118 46.7347 52.2385 46.7227 52.3607 46.7057C52.4709 46.6946 52.5794 46.6707 52.6842 46.6344C52.8609 46.5631 52.9153 46.4104 52.8239 46.2386C52.7503 46.0982 52.6624 45.9652 52.5751 45.8329C52.5658 45.8188 52.5565 45.8047 52.5472 45.7907C52.5318 45.7647 52.4942 45.7527 52.4643 45.7433C52.4605 45.742 52.4568 45.7408 52.4533 45.7396C52.4374 45.7342 52.4189 45.7353 52.4007 45.7363C52.3935 45.7368 52.3863 45.7372 52.3792 45.7372C52.1034 45.7372 51.8274 45.7373 51.5513 45.7374C50.7236 45.738 49.8953 45.7385 49.069 45.7346C48.9628 45.7346 48.8985 45.7575 48.8492 45.8568C48.8148 45.9228 48.7762 45.986 48.7376 46.0491C48.7023 46.1065 48.6672 46.164 48.6355 46.2232C48.5083 46.4409 48.5823 46.6255 48.8269 46.6764C48.9338 46.7 49.0424 46.7107 49.1513 46.7213C49.1947 46.7256 49.2381 46.7298 49.2815 46.7349L49.5446 46.7668V47.5544C49.4396 47.5901 46.0182 47.599 45.8082 47.5646V46.7679L46.2492 46.7094L46.5629 46.6764C46.635 46.6707 46.7051 46.6489 46.7683 46.6123C46.8314 46.5759 46.8861 46.5256 46.9285 46.465C46.9622 46.4227 46.992 46.3771 47.0174 46.3289C47.4987 45.522 47.9821 44.7157 48.4659 43.9087C48.6315 43.6325 48.7971 43.3563 48.9628 43.0798C48.984 43.0472 49.0034 43.0132 49.0208 42.9781C49.1283 42.7515 49.0135 42.534 48.7701 42.506L47.9401 42.4092C47.8783 42.4016 47.8253 42.3927 47.7671 42.3825V41.5731C47.7764 41.5722 47.7856 41.5714 47.7948 41.5705C47.8284 41.5673 47.8614 41.5642 47.8944 41.5642C48.2498 41.5642 48.6052 41.5645 48.9605 41.5646C50.0264 41.5654 51.0919 41.5661 52.1582 41.5603C52.462 41.5603 52.6633 41.7003 52.8201 41.9524C53.1359 42.4558 53.4565 42.9566 53.7769 43.4571C53.9417 43.7143 54.1062 43.9716 54.2703 44.229C54.4126 44.4538 54.5555 44.678 54.6983 44.9024ZM22.7893 18.4699C22.7738 18.214 22.7581 17.958 22.7416 17.7022C22.7319 17.5317 22.7212 17.361 22.7103 17.1902C22.6951 16.9479 22.6799 16.7052 22.6675 16.4626C22.6659 16.4417 22.6663 16.4196 22.6668 16.3926C22.6672 16.3771 22.6675 16.3599 22.6675 16.3404C23.3123 16.2475 23.952 16.2068 24.6066 16.1916C24.6134 16.2205 24.6201 16.2493 24.6267 16.278C24.6738 16.482 24.719 16.6777 24.7623 16.8762C25.3034 19.4712 25.8654 22.0609 26.5162 24.6317C26.6725 25.2824 26.8663 25.9228 27.0967 26.5496C27.2401 26.9123 27.4006 27.2648 27.6353 27.574C28.1047 28.19 28.7198 28.5464 29.4633 28.6863C30.055 28.8009 30.6553 28.8034 31.2581 28.8009C31.6693 28.7971 32.0844 28.7793 32.492 28.7182C33.585 28.5616 34.3904 27.9928 34.8696 26.9619C35.1204 26.4274 35.3019 25.8649 35.4526 25.2922C35.9116 23.5319 36.3341 21.7617 36.7199 19.9828C36.9091 19.1077 37.0971 18.2326 37.2851 17.357C37.3585 17.0152 37.432 16.6734 37.5055 16.3315C37.5147 16.2845 37.5254 16.2378 37.5375 16.1916C38.188 16.2012 38.8373 16.2522 39.4817 16.3443L39.4573 16.7443C39.0702 23.0779 38.6841 29.3968 38.1725 35.7037C37.9056 35.7978 35.9121 35.9518 35.3661 35.92C35.3593 35.8965 35.3515 35.8721 35.3435 35.8473C35.3317 35.8103 35.3197 35.7722 35.3094 35.7343C35.2436 35.4839 35.1788 35.2337 35.1138 34.9837C34.9674 34.4196 34.8211 33.8558 34.667 33.2933C34.5436 32.8173 34.3842 32.3528 34.194 31.901C34.1408 31.7788 34.0828 31.6605 34.0211 31.5422C33.7469 30.9949 33.3023 30.6844 32.7143 30.5826C32.1732 30.4909 31.6285 30.4489 31.0802 30.4489C30.5376 30.4479 29.9957 30.4909 29.4597 30.5774C28.842 30.678 28.3863 31.0001 28.101 31.5739C27.8676 32.0334 27.6958 32.5119 27.5563 33.0082C27.3902 33.6155 27.2298 34.2256 27.0693 34.836C26.9909 35.1338 26.9127 35.4316 26.8337 35.7291C26.8262 35.7564 26.8182 35.7836 26.8101 35.811C26.7992 35.8473 26.7885 35.8837 26.7794 35.92C26.3421 35.9289 24.4856 35.8322 23.9817 35.7189C23.9795 35.7034 23.9772 35.6878 23.9749 35.6723C23.9667 35.6179 23.9586 35.5634 23.9558 35.509C23.9267 35.1401 23.897 34.772 23.8673 34.4041C23.83 33.9419 23.7926 33.4804 23.7569 33.0184C23.7266 32.6273 23.6986 32.2359 23.6704 31.8445C23.6471 31.5175 23.6236 31.1906 23.5988 30.8638L23.4135 28.2244C23.3768 27.7075 23.3434 27.1899 23.3098 26.6721C23.3017 26.5447 23.2934 26.4173 23.2851 26.29C23.2658 25.9965 23.2459 25.7027 23.226 25.4086C23.1914 24.8964 23.1567 24.3836 23.1245 23.872C23.1066 23.5936 23.0896 23.3155 23.0725 23.0374C23.0471 22.6223 23.0216 22.2072 22.9936 21.7911C22.9664 21.3249 22.9373 20.8592 22.9082 20.3931C22.8845 20.0131 22.8607 19.633 22.838 19.2522C22.8212 18.9919 22.8052 18.7309 22.7893 18.4699Z" fill="#333333"/>
</g>
</svg>
