<svg width="62" height="62" viewBox="0 0 62 62" fill="none" xmlns="http://www.w3.org/2000/svg">
<g id="0440e42fc862f8b520d11696bdb26ac7_1650382789">
<path id="Vector" d="M26.4166 27.771L25.1335 30.6711L23.8506 27.771H19.4453V34.0168H22.9179V30.8404L24.2123 34.0162H26.0559L27.3501 30.8404V34.0168H30.8219V27.771H26.4166ZM38.5402 27.771L37.2571 30.6711L35.9737 27.771H31.5685V34.0168H35.0411V30.8404L36.3352 34.0162H38.1796L39.4739 30.8404V34.0168H42.9459V27.771H38.5402ZM5.41309 27.771V30.0641H3.68081V27.771H0V34.0168H3.68057V31.6557H5.41285V34.0168H9.09367V27.771H5.41309ZM51.6043 29.2741V27.771H43.71V34.0168H51.6041V32.5143H47.3915V31.5794H51.6041V30.2112H47.3915V29.2747L51.6043 29.2741ZM13.443 27.7734V31.9633C13.45 32.5027 13.7978 32.6371 14.2718 32.6371C14.7347 32.6371 15.088 32.494 15.088 31.9522V27.7734H18.758V31.9764C18.758 33.8295 17.4336 34.2299 14.2715 34.2294C11.1049 34.2294 9.77163 33.8363 9.77163 31.9762V27.7734H13.443ZM57.047 30.6228C57.7344 30.6228 58.0625 30.3692 58.0625 29.8514C58.0625 29.2026 57.6479 29.029 57.0422 29.029H55.9658V30.6228H57.047ZM58.0709 34.0148L55.9689 31.7762V34.0168H52.2871V27.771H58.2002C59.4411 27.771 61.4956 27.7367 61.3859 29.8203C61.3344 30.7946 60.3359 31.5056 59.5429 31.6803L62 34.0138L58.0709 34.0148Z" fill="#333333"/>
</g>
</svg>
