<svg width="63" height="62" viewBox="0 0 63 62" fill="none" xmlns="http://www.w3.org/2000/svg">
<g id="Hyundai">
<path id="Vector" fill-rule="evenodd" clip-rule="evenodd" d="M24.7512 17.8596C24.3375 17.8634 23.9109 17.869 23.5175 17.9724C21.4769 18.5434 19.4879 19.2573 17.6504 20.347C16.5553 20.9876 15.5322 21.7372 14.714 22.7329C14.0031 23.5953 13.5228 24.5608 13.5063 25.7106C13.4868 25.7133 13.4681 25.7197 13.4509 25.7294C13.4851 25.8814 13.5146 26.0351 13.544 26.1885C13.6032 26.4979 13.6623 26.807 13.7612 27.1008C14.1434 28.2299 14.8858 29.1166 15.7131 29.9339C16.0899 30.2907 16.4832 30.6139 16.9782 30.798C17.3882 30.9352 17.6468 30.8713 17.8758 30.4937C18.0483 30.2269 18.1885 29.9399 18.2931 29.6388C19.4583 26.3568 21.2128 23.4111 23.2424 20.6062C23.5563 20.1723 23.8806 19.7491 24.2057 19.3249C24.4618 18.9905 24.7186 18.6554 24.9709 18.3143C25.1796 18.0287 25.102 17.8559 24.7512 17.8596ZM31.8391 16.9617C30.8122 16.9936 29.9166 17.3205 29.1981 18.0888C28.0643 19.3024 27.6063 20.7979 27.4807 22.2444C27.4641 23.2101 27.7022 23.8545 28.4614 24.2058C28.9318 24.4047 29.4416 24.4885 29.9497 24.45C31.1318 24.3917 32.2693 24.1006 33.3866 23.7305C36.3188 22.7164 39.126 21.3609 41.7523 19.6913C41.9145 19.593 42.0613 19.4708 42.1883 19.3288C42.3802 19.1164 42.3637 18.9079 42.1329 18.7389C41.9464 18.6186 41.7432 18.5096 41.5308 18.4383C40.8605 18.2222 40.1808 18.0043 39.503 17.8352C36.9896 17.1983 34.4356 16.8676 31.8391 16.9617ZM44.9862 21.685L44.8697 21.9213V21.9195C44.6098 22.4412 44.3538 22.9642 44.0978 23.4868L44.0963 23.4896L44.0958 23.4909C43.5303 24.6456 42.9657 25.7985 42.3637 26.9318C41.4681 28.6226 40.4966 30.2683 39.3572 31.8012L39.2182 31.987C38.9436 32.3537 38.6713 32.7173 38.4153 33.0919C38.3837 33.1478 38.3641 33.2098 38.3577 33.2739C38.3514 33.338 38.3584 33.4028 38.3784 33.4639C38.3876 33.5109 38.5796 33.539 38.6775 33.5259C41.0082 33.1302 43.2562 32.3356 45.3259 31.1757C46.5411 30.4919 47.6546 29.6746 48.506 28.538C49.1412 27.702 49.5309 26.7759 49.5144 25.6918C49.5144 25.6414 49.5172 25.5895 49.5201 25.5374C49.5257 25.4323 49.5315 25.3257 49.5144 25.2278C49.1801 23.1105 48.0277 21.6207 46.1532 20.6814C45.7617 20.4767 45.5511 20.5743 45.3406 20.9745C45.2202 21.2097 45.1028 21.4481 44.9862 21.685ZM33.442 33.7288C34.6664 32.6259 35.4494 31.2564 35.7154 29.6089C35.8022 29.0865 35.769 28.5531 35.4826 28.0795C35.0819 27.3845 34.4171 27.1684 33.6913 27.1178C32.7144 27.0481 31.7707 27.2229 30.8325 27.4427C27.2277 28.2844 23.9294 29.7929 21.0225 32.1488C20.7178 32.3968 20.7271 32.6222 21.0964 32.7763C21.5441 32.9465 21.9989 33.097 22.4594 33.2272C23.8037 33.6142 25.1778 33.8546 26.5629 34.0463C27.9518 34.2511 29.3518 34.3697 30.755 34.4013C30.8259 34.3976 30.9105 34.394 31.0048 34.39C31.2421 34.3799 31.5406 34.3672 31.8353 34.3431C32.4226 34.2943 32.9858 34.1364 33.442 33.7288ZM12.1083 27.4747C11.5709 25.7144 11.8922 24.0893 12.8655 22.5807C13.7612 21.1906 14.9893 20.161 16.3577 19.293C18.4445 17.9874 20.7216 17.1457 23.0946 16.5408C24.8066 16.0974 26.5573 15.8175 28.3247 15.6522C28.7042 15.6137 29.0837 15.5918 29.4649 15.5699C29.6421 15.5597 29.8197 15.5495 29.9978 15.5376C30.0289 15.5344 30.0602 15.5258 30.0913 15.5173C30.1155 15.5107 30.1398 15.5041 30.164 15.5H33.4456C33.5423 15.5085 33.6385 15.5178 33.7347 15.527C33.9754 15.55 34.216 15.573 34.4614 15.5864C35.9595 15.6837 37.4496 15.8832 38.9213 16.1838C41.0321 16.6103 43.0839 17.2246 45.0341 18.1696C46.6684 18.9548 48.1828 19.9205 49.4238 21.2788C50.242 22.1824 50.8661 23.1951 51.1247 24.4162C51.4423 25.8966 51.1487 27.2717 50.3933 28.5493C49.627 29.8662 48.5355 30.8619 47.3092 31.7148C45.3221 33.0995 43.1116 33.988 40.805 34.6437C39.0304 35.1398 37.2189 35.4866 35.3884 35.6807C33.6192 35.8742 31.8371 35.94 30.057 35.8799C26.4004 35.752 22.8195 35.1698 19.3864 33.802C17.6227 33.0995 15.9569 32.2089 14.5164 30.9314C13.436 29.9846 12.546 28.8837 12.1083 27.4747ZM42.5983 44.6439C43.132 44.6364 43.2796 44.4935 43.3056 43.9412H43.3036C43.3073 43.9168 43.3062 43.8964 43.3049 43.8737C43.3043 43.8615 43.3036 43.8486 43.3036 43.8341C43.3036 43.5735 43.3043 43.3128 43.3049 43.0524V43.0507C43.3061 42.531 43.3074 42.0109 43.3036 41.4934C43.3033 41.3833 43.2909 41.2737 43.2667 41.1664C43.2095 40.8395 43.0784 40.6761 42.7496 40.6667C42.1842 40.6571 41.6176 40.6586 41.0466 40.66C40.8381 40.6605 40.629 40.661 40.4191 40.661V44.6439H42.5983ZM43.915 38.8312C44.0595 38.8307 44.2039 38.8408 44.347 38.8613H44.3452C45.1338 39.0153 45.481 39.455 45.5124 40.4075C45.5281 40.7977 45.5252 41.1889 45.5222 41.5817C45.521 41.7389 45.5198 41.8974 45.5198 42.0551C45.5198 42.3642 45.5201 42.6731 45.5207 42.982C45.5214 43.6001 45.5222 44.2194 45.5198 44.8431C45.5198 45.0328 45.5086 45.2244 45.4663 45.4123C45.4363 45.6418 45.342 45.8579 45.1946 46.0345C45.0473 46.2111 44.8531 46.3407 44.6352 46.4079L44.5926 46.4237L44.5373 46.4447C44.4881 46.4636 44.4393 46.4823 44.3914 46.4981H38.1752C38.1766 46.4656 38.1786 46.4318 38.1806 46.3977C38.1842 46.3372 38.1881 46.2751 38.1881 46.2163V38.8482C38.2335 38.8464 38.2751 38.8427 38.3143 38.8391C38.3599 38.835 38.4023 38.8312 38.443 38.8312H43.915ZM48.683 42.8822H51.5677V40.6729C51.4922 40.6729 51.4169 40.672 51.3419 40.6712C51.1937 40.6695 51.0463 40.6679 50.9029 40.6729C50.7391 40.6756 50.5748 40.6768 50.4104 40.6779C49.9996 40.6808 49.5879 40.6836 49.1816 40.7105C48.8954 40.7255 48.696 40.9247 48.6922 41.214C48.6749 41.6152 48.6779 42.0173 48.6809 42.4205V42.4221C48.6819 42.5753 48.683 42.7287 48.683 42.8822ZM53.7598 38.8243V39.0873H53.7616L53.7561 46.2375C53.7561 46.2805 53.7579 46.3239 53.7597 46.3676C53.7616 46.4118 53.7634 46.4562 53.7634 46.5005H51.5733V44.8229H48.683V46.5005H46.539C46.539 46.0285 46.5385 45.5562 46.5381 45.0837V45.082V45.0805V45.0789V45.0765V45.0748V45.0731C46.5368 43.533 46.5355 41.9895 46.5482 40.4456C46.5555 39.5269 47.1983 38.9013 48.1068 38.8487C48.1329 38.8466 48.1589 38.8436 48.1847 38.8405C48.2303 38.8353 48.2758 38.83 48.3229 38.83C49.0656 38.8259 49.8077 38.823 50.5491 38.8199H50.5505H50.552C51.5462 38.816 52.5391 38.812 53.5308 38.8055C53.5708 38.8055 53.6097 38.8095 53.656 38.8145C53.6864 38.8177 53.7203 38.8213 53.7598 38.8243ZM28.6297 38.8068C28.4599 38.8068 28.2898 38.8077 28.1196 38.8086C27.6927 38.811 27.2641 38.8133 26.8364 38.8013C26.6315 38.7975 26.5834 38.8688 26.5872 39.068C26.5908 40.7344 26.5908 42.412 26.5872 44.0803C26.5872 44.5143 26.4579 44.6326 26.0405 44.6364H23.7172V38.8275H21.4882V39.1357C21.4882 39.6281 21.4877 40.1201 21.487 40.6118C21.4857 41.5948 21.4846 42.577 21.4882 43.5599L21.4893 44.294C21.4904 45.0318 21.4914 45.7661 21.4955 46.5H27.7561C27.7686 46.4973 27.7794 46.4893 27.7901 46.4814C27.8016 46.4729 27.8129 46.4644 27.8262 46.4624C28.4394 46.3535 28.7441 45.9571 28.8291 45.3615C28.8585 45.1812 28.877 44.9895 28.877 44.8037C28.8804 43.6649 28.8817 42.5209 28.8831 41.3783V41.3753V41.3689C28.884 40.6068 28.8848 39.8455 28.8863 39.0867V38.8238C28.8526 38.8212 28.8211 38.8182 28.7913 38.8155C28.733 38.8099 28.6809 38.805 28.6297 38.805V38.8068ZM37.158 40.165C37.1932 40.7494 37.1986 41.3468 37.1986 41.9442L37.2005 41.9461C37.2041 43.4151 37.2005 44.8917 37.195 46.376C37.1961 46.4188 37.2036 46.4612 37.2171 46.5018H34.8883C34.9008 46.4669 34.907 46.43 34.9068 46.3929C34.9068 45.814 34.9074 45.2346 34.9081 44.6549V44.653V44.6496V44.6472C34.9092 43.4876 34.9105 42.3262 34.9068 41.1683C34.9068 40.8114 34.7572 40.6592 34.4064 40.6592C33.6677 40.6553 32.9161 40.6592 32.1754 40.6648C32.1354 40.6653 32.0956 40.6716 32.0572 40.6836C32.0534 40.6987 32.0491 40.7104 32.0455 40.7203C32.0407 40.7339 32.037 40.7441 32.037 40.7549C32.0443 42.673 32.0443 44.5856 32.0443 46.5018H29.8135C29.8171 44.6683 29.8171 42.8403 29.8171 41.0049V38.8161C29.8796 38.8075 29.9425 38.8024 30.0055 38.8011H30.4494C32.0771 38.801 33.7029 38.8009 35.3279 38.8181C35.6323 38.8243 35.9349 38.8678 36.2291 38.9476C36.7757 39.096 37.1118 39.532 37.158 40.165ZM10.3388 38.8067C10.207 38.8067 10.209 38.8934 10.2109 38.9813C10.2112 38.9921 10.2114 39.0028 10.2114 39.0134V41.5476H7.33601V38.8067H7.06268L5.20116 38.7916V46.4999H7.34893V43.4827H10.2391V46.4999H12.4737C12.4792 46.4848 12.4792 46.4623 12.4792 46.4379V38.9945C12.4792 38.9621 12.4733 38.9284 12.467 38.8921C12.4627 38.8674 12.4582 38.8416 12.4552 38.8142C12.0969 38.8104 11.7433 38.8104 11.3915 38.8104C11.0397 38.8104 10.6897 38.8104 10.3388 38.8067ZM18.8596 38.9639C18.9039 38.8982 19.0018 38.8174 19.0702 38.8174L19.0682 38.8192C19.5633 38.8075 20.0574 38.8103 20.5494 38.8132C20.7637 38.8143 20.9787 38.8155 21.192 38.8155C21.2103 38.8155 21.23 38.8247 21.2606 38.8387L21.2714 38.8438L21.267 38.8514C21.23 38.9161 21.196 38.9754 21.155 39.0278C20.5212 39.9638 19.8834 40.902 19.2467 41.8386L19.2444 41.8421C18.9081 42.3368 18.5721 42.8312 18.2372 43.3243C18.1763 43.4239 18.1319 43.5611 18.1319 43.6738C18.1209 44.6169 18.1209 45.5619 18.1209 46.5012H15.8863C15.8874 46.2953 15.886 46.0891 15.8844 45.8828C15.8808 45.3928 15.8773 44.9023 15.9084 44.4159C15.9547 43.7865 15.7866 43.2774 15.4283 42.7682C14.8416 41.9239 14.2834 41.0604 13.7258 40.1981C13.4796 39.8173 13.2334 39.4365 12.985 39.0579C12.9606 39.0237 12.9378 38.9871 12.9093 38.9414C12.8861 38.9044 12.8592 38.8611 12.8244 38.808H13.1051L13.1107 38.8081C13.7956 38.8174 14.4792 38.8269 15.1587 38.8269C15.3008 38.8269 15.3673 38.8907 15.4357 38.994C15.933 39.7705 16.4322 40.5458 16.9334 41.3198C16.9582 41.3608 16.9837 41.3991 17.0168 41.4483L17.0627 41.5171C17.0836 41.4882 17.1035 41.4626 17.1222 41.4387C17.1546 41.3971 17.1833 41.3603 17.2067 41.3198C17.4708 40.9473 17.7325 40.572 17.9942 40.1967C18.2815 39.7849 18.5687 39.3728 18.8596 38.9639ZM54.7736 38.8011H56.8678V38.8456C56.8686 38.8456 56.8694 38.8456 56.8703 38.8456V46.4974H56.8678V46.4999H54.7736V46.4974C54.7736 46.4833 54.7727 46.4689 54.7736 46.4543V38.8011Z" fill="#333333"/>
</g>
</svg>
