<svg width="63" height="62" viewBox="0 0 63 62" fill="none" xmlns="http://www.w3.org/2000/svg">
<g id="08ceca8a0906baa79cfabf56a1911a82_1650382680" clip-path="url(#clip0_254_6784)">
<path id="Vector" d="M27.3255 36.3887C27.5451 36.3887 28.8811 36.3813 29.9601 36.305C31.2637 36.2121 31.9355 35.7567 32.4276 35.1045C33.0383 34.2972 33.0344 32.7831 33.0337 31.605C33.0337 30.2884 33.0505 26.4771 33.045 26.1372C33.0396 25.7976 32.9141 25.6188 32.5309 25.6221C32.1478 25.6253 31.0666 25.6222 30.6956 25.6253L30.0343 25.6221C29.6512 25.6188 29.5246 25.796 29.5192 26.1372V26.5028C29.5246 26.9063 29.5137 30.7522 29.5124 31.6537V32.0533C29.5019 32.8839 29.4027 33.6917 28.2498 33.8168C27.7528 33.8703 27.5242 33.8938 26.9075 33.8938C26.2909 33.8938 26.0625 33.8703 25.5594 33.8168C24.4065 33.6932 24.3367 32.8839 24.3259 32.0533V31.6537C24.3246 30.7522 24.3135 26.9063 24.3184 26.5028V26.1372C24.3135 25.796 24.1866 25.6188 23.8041 25.6221L23.1414 25.6253C22.7703 25.6222 21.69 25.6253 21.3061 25.6221C20.9223 25.6188 20.7969 25.796 20.7927 26.1372C20.7884 26.4786 20.7909 30.2897 20.7894 31.6063C20.7894 32.7841 20.7854 34.2982 21.3954 35.1058C21.8863 35.7582 22.5489 36.2135 23.848 36.306C24.9268 36.3834 26.223 36.39 26.5105 36.39L27.3255 36.3887ZM3.89502 35.8938C3.88755 36.264 3.78016 36.4104 3.40811 36.4193C3.03602 36.4282 1.20747 36.4241 0.874421 36.4213C0.541367 36.4185 0.338818 36.3152 0.338068 35.9529C0.337319 35.5907 0.335821 26.4937 0.333341 26.1482C0.330859 25.8026 0.491924 25.6419 0.841872 25.6518C1.19182 25.662 2.98557 25.6424 3.46205 25.6518C3.82243 25.6492 3.90693 25.8608 3.90943 26.2389C3.91811 26.7474 3.90494 35.5267 3.89626 35.8951L3.89502 35.8938ZM53.6804 32.2136C53.6874 33.0677 53.8897 33.639 54.8507 33.7911C55.6197 33.8721 56.6604 33.8886 57.4589 33.806C58.19 33.7245 58.7528 33.4226 58.7856 32.5794C58.8226 31.8674 58.8259 31.744 58.8282 30.9943C58.8321 29.1714 58.8127 26.5258 58.8187 26.2659L58.8218 26.1556C58.8161 25.7519 58.9967 25.5816 59.332 25.5816L59.5325 25.5747C59.9145 25.5781 61.4507 25.5816 61.8227 25.5816C62.158 25.5816 62.3386 25.7519 62.3332 26.1556L62.3285 26.2822C62.3355 26.6619 62.3239 30.6932 62.32 31.8824C62.2988 32.48 62.2572 33.8713 61.8054 34.7537C61.4122 35.5191 60.7081 36.108 59.5113 36.2291C57.2107 36.4626 55.1119 36.3655 53.4962 36.2968C52.2959 36.2334 51.5224 35.9596 50.8805 35.2333C50.1544 34.4005 50.1165 32.9771 50.1271 31.3446C50.1131 27.7423 50.1023 26.7041 50.1079 26.3603V26.1579C50.1025 25.7544 50.2821 25.5839 50.6183 25.5839L50.8172 25.577C51.2026 25.5803 52.7968 25.5839 53.1692 25.5839C53.5035 25.5839 53.6856 25.7544 53.6789 26.1579C53.6722 26.5614 53.6776 31.1763 53.6789 32.1923L53.6804 32.2136ZM35.7837 25.6157C36.1428 25.6049 42.5662 25.6127 44.5747 25.6238C46.3529 25.6442 47.0104 25.9023 47.493 26.5606C48.0498 27.3203 48.1077 28.2738 47.6574 29.0576C47.3344 29.6197 46.7379 30.1103 45.8407 30.5558C45.129 30.9281 43.8831 31.4925 42.6654 32.0392C41.0346 32.7734 39.5585 33.4083 39.3101 33.5407C38.974 33.7203 39.1011 33.9895 39.368 33.9854C40.0638 33.9767 46.7937 33.9212 47.1527 33.92C47.5118 33.919 47.6303 34.0523 47.6303 34.4466C47.6303 34.8593 47.6336 35.5652 47.6344 35.8857C47.6261 36.2704 47.5059 36.3755 47.1478 36.3792C46.7391 36.3836 39.5714 36.3857 39.0619 36.3882C37.9286 36.3854 36.7621 36.3897 36.0658 36.0461C35.1958 35.6156 34.9026 34.7537 34.9018 34.149C34.9431 32.6754 35.7491 32.2033 37.2016 31.5179C38.8172 30.7711 43.584 28.6702 43.8682 28.5357C44.2203 28.3687 44.111 28.0401 43.7845 28.0511C43.5336 28.0561 36.2312 28.0944 35.8705 28.0938C35.5099 28.0933 35.2823 28.0307 35.2823 27.6761C35.2823 27.3216 35.2795 26.4356 35.2795 26.0706C35.2795 25.7053 35.4239 25.6261 35.7848 25.6149L35.7837 25.6157ZM16.925 31.1547C15.3095 30.4712 10.5963 28.9522 9.97095 28.6369C9.66974 28.505 9.69012 28.1135 10.0975 28.1135C10.7934 28.1237 17.703 28.1387 18.0634 28.1387C18.4237 28.1387 18.5766 27.9979 18.5766 27.6028C18.5781 27.1902 18.5754 26.4335 18.5706 26.1009C18.566 25.7633 18.4464 25.6353 18.1481 25.6345C17.8499 25.6337 9.87156 25.6445 9.87156 25.6445C7.64483 25.6389 7.07366 25.9736 6.44163 26.7447C5.61919 27.7517 5.88066 29.1149 6.35263 29.8177C6.88354 30.6041 7.76116 30.9518 9.15673 31.4487C10.8486 32.0093 14.8325 33.4368 14.8325 33.4368C15.1977 33.5972 15.1698 33.9872 14.719 33.9872C14.719 33.9872 7.11915 33.9172 6.75925 33.9164C6.39937 33.9159 6.22238 34.0956 6.22091 34.4505C6.21941 34.8056 6.21766 35.4557 6.21618 35.8249C6.21618 36.1899 6.32008 36.3984 6.68096 36.4111C7.04185 36.4241 13.5739 36.3989 15.5834 36.3946C17.1122 36.3907 18.5888 35.9093 18.892 34.1893C19.0735 32.7073 18.4586 31.7896 16.925 31.1547Z" fill="#333333"/>
</g>
<defs>
<clipPath id="clip0_254_6784">
<rect width="62" height="62" fill="white" transform="translate(0.333313)"/>
</clipPath>
</defs>
</svg>
