<svg width="62" height="62" viewBox="0 0 62 62" fill="none" xmlns="http://www.w3.org/2000/svg">
<g id="3f31d4257df54b4ac537069c7e55f95c_1650382655">
<path id="Vector" d="M54.243 23.896C55.3111 23.896 56.3234 23.9544 57.1663 24.0713C59.527 24.3637 61.4381 26.2931 61.8316 28.6907C61.888 29.0999 62 30.0353 62 30.9706C62 31.9647 61.888 32.9005 61.8316 33.2509C61.4381 35.7073 59.527 37.5778 57.1663 37.929C56.3234 37.9872 55.3111 38.1043 54.243 38.1043H53.9062C52.7816 38.1043 51.8259 37.9872 50.9271 37.929C48.5656 37.5778 46.7114 35.7073 46.3177 33.2509C46.2612 32.9005 46.1485 31.9647 46.1485 30.9706C46.1485 30.0353 46.2612 29.0999 46.3177 28.6907C46.7112 26.2931 48.5656 24.3637 50.9271 24.0713C51.8259 23.9544 52.7816 23.896 53.8496 23.896H54.243ZM54.0742 27.2285C53.7931 27.2285 53.6247 27.2285 53.3997 27.2869C52.3874 27.3453 51.6013 28.1054 51.4885 29.0995C51.4321 29.626 51.4321 30.4445 51.4321 31.0294C51.4321 31.6138 51.4321 32.1403 51.4885 32.666C51.6571 33.8941 52.5566 34.5959 53.3439 34.5959H54.805C55.6487 34.5959 56.4918 33.8941 56.6603 32.666C56.716 32.1403 56.716 31.6142 56.716 30.9706L56.7155 30.6247C56.7139 30.1291 56.7049 29.5208 56.6603 29.0999C56.5476 28.1058 55.8172 27.3456 54.805 27.2873L54.0742 27.2285ZM33.9511 30.9706C33.9511 30.2104 34.0075 29.4508 34.1759 28.6907C34.5694 26.2931 36.4247 24.3637 38.7854 24.0713C39.6285 23.9544 40.6406 23.896 41.7087 23.896C42.8886 23.896 43.9567 23.9544 44.8562 24.0713C45.1931 24.1297 45.4181 24.4221 45.4181 24.7729V26.8777C45.4181 27.2869 45.137 27.5793 44.7993 27.5793C44.7993 27.5793 43.7313 27.5209 43.1694 27.5209C42.4956 27.5209 41.9329 27.5209 41.3149 27.5793C40.3026 27.6377 39.5723 28.3978 39.4596 29.3919C39.4031 29.918 39.3469 30.4445 39.3469 30.9702V31.029C39.3469 31.5555 39.4027 32.0812 39.4596 32.6076C39.5723 33.6017 40.2468 34.3615 41.3149 34.4782C41.8767 34.5371 42.5514 34.5955 43.1694 34.5955C43.7313 34.5955 44.7993 34.5374 44.7993 34.5374C45.137 34.5374 45.4181 34.8298 45.4181 35.2392V37.3442C45.4181 37.6947 45.1931 37.9872 44.8562 38.0459C43.9567 38.0459 42.8886 38.1039 41.7087 38.1039C40.6406 38.1039 39.6285 37.9868 38.7854 37.9287C36.4247 37.5775 34.5698 35.7069 34.1759 33.2505C34.0075 32.5495 33.9511 31.7891 33.9511 31.0294V30.9706ZM32.4334 34.4206C32.8268 34.4206 33.108 34.7711 33.108 35.1224V37.2274C33.108 37.6366 32.8268 37.929 32.4334 37.929H24.3953C23.6943 37.93 23.0219 37.6406 22.5263 37.125C22.0307 36.6094 21.7527 35.9099 21.7535 35.1808V26.8779C21.7527 26.1489 22.0308 25.4495 22.5264 24.934C23.022 24.4185 23.6945 24.1293 24.3953 24.13H32.4334C32.8268 24.13 33.108 24.4225 33.108 24.7733V26.8196C33.108 27.2289 32.8268 27.5213 32.4334 27.5213H27.4871C27.0936 27.5213 26.8125 27.7554 26.8125 28.1646V29.4508L31.028 29.3923C31.365 29.3923 31.7027 29.7429 31.7027 30.0937V31.8483C31.7027 32.2567 31.365 32.5499 31.028 32.5499H26.8125V33.719C26.8125 34.1282 27.0936 34.4206 27.4871 34.4206H32.4334ZM11.9732 37.9287C10.7929 37.9287 9.78067 37.1099 9.44337 35.9989L6.68927 24.9482V24.7729C6.68927 24.4221 6.9704 24.1297 7.36386 24.1297H11.4671C11.8044 24.1297 12.0855 24.3633 12.1417 24.6558L14.2777 33.8941C14.2777 34.0114 14.3901 34.1282 14.5589 34.1282C14.6711 34.1282 14.7835 34.011 14.7835 33.8941L16.9757 24.6558C17.0318 24.3633 17.313 24.1297 17.594 24.1297H19.8986C20.2921 24.1297 20.5731 24.4221 20.5731 24.7729V24.9482L17.9314 35.7649C17.6502 36.993 16.6945 37.9287 15.3458 37.9287H11.9732ZM0.674579 24.1297H4.66554C5.05898 24.1297 5.34011 24.4221 5.34011 24.7729V37.227C5.34011 37.6362 5.05898 37.9287 4.66554 37.9287H0.674579C0.337289 37.9287 0 37.6362 0 37.227V24.7729C0.000367018 24.4221 0.337657 24.1297 0.674579 24.1297Z" fill="#333333"/>
</g>
</svg>
