<svg width="63" height="62" viewBox="0 0 63 62" fill="none" xmlns="http://www.w3.org/2000/svg">
<g id="Jaguar">
<path id="Vector" fill-rule="evenodd" clip-rule="evenodd" d="M12.1418 21.46L12.1003 21.5931C12.1672 21.5931 12.3306 21.5514 12.3306 21.5514C12.7524 21.4747 12.8622 21.1302 12.8622 21.1302C12.6413 21.1302 12.5007 21.1411 12.5007 21.1411C12.2887 21.163 12.1877 21.3684 12.1534 21.438C12.1479 21.4493 12.144 21.4571 12.1418 21.46ZM11.878 21.8905C11.7909 21.9041 11.1401 22.0157 10.7973 22.8016C10.7973 22.8016 10.6205 23.1541 10.8709 23.4206L10.9031 23.4569C10.9031 23.4569 11.108 23.7058 11.3838 23.7166L11.4047 23.7169C11.4382 23.7177 11.4895 23.7188 11.5218 23.7112C11.6128 23.6965 11.795 23.6116 11.969 23.2336C11.969 23.2336 12.2543 22.5916 12.3869 22.383C12.3869 22.383 12.5583 22.0467 12.9386 22.0278C12.9386 22.0278 13.746 21.8932 13.959 23.0235C14.0648 23.5848 13.963 24.0073 13.114 24.8766C13.114 24.8766 12.9935 24.995 12.8408 25.1147C12.8408 25.1147 12.7498 25.2143 12.8127 25.3085C12.8127 25.3085 13.2064 25.5064 13.3845 25.4835C13.5141 25.4619 13.5267 25.4454 13.8325 25.0463C13.9472 24.8966 14.1032 24.6928 14.3219 24.4151C14.3219 24.4151 15.6329 24.0584 15.4722 22.9011C15.4722 22.9011 15.4669 22.3077 15.1576 21.9013C15.1576 21.9013 15.7025 21.9121 16.2462 22.8501L16.2498 22.8559C16.2613 22.875 16.2753 22.8982 16.2838 22.9227C16.2838 22.9227 16.4712 23.395 16.8596 23.4475C16.8596 23.4475 17.793 23.5672 18.9754 24.2912C19.1063 24.3717 19.337 24.5201 19.5481 24.6557C19.7817 24.8059 19.9914 24.9408 20.0146 24.9506C19.8539 24.4998 19.7562 23.9696 19.9396 23.3426V23.3452C19.94 23.3468 19.9404 23.3519 19.941 23.36C19.9556 23.5438 20.0974 25.3297 23.2433 26.2639C22.3701 26.1759 21.7829 25.9497 21.25 25.7444C20.8396 25.5865 20.4613 25.4408 20.0092 25.3799C19.6155 25.3261 19.0973 25.3691 18.4733 25.4297C17.0444 25.5575 16.2663 25.9882 15.499 27.3244C14.9513 28.2851 15.9343 28.8678 15.9343 28.8678C15.9571 28.8592 15.9809 28.8505 16.0052 28.8416C16.1089 28.8035 16.2245 28.761 16.3427 28.6956C16.0909 28.6646 15.3048 28.1843 16.0575 27.1078C16.0575 27.1078 15.5834 28.222 16.7833 28.4359C17.0096 28.2973 17.4622 27.8465 17.4689 27.463C17.6336 27.2047 17.9469 26.7673 18.8603 27.0391C22.7384 28.1197 23.0637 28.2098 23.3396 28.2664C25.9323 28.7871 26.1733 27.4886 26.1733 27.4886C26.5295 26.2694 25.0431 24.4069 25.0431 24.4069C27.4307 26.3111 30.8362 26.2909 30.8362 26.2909C28.8318 26.6991 26.7281 26.0303 26.2481 25.8776L26.1933 25.8603C26.1933 25.8603 26.82 26.7794 26.6125 27.6837C26.6125 27.6837 28.1391 28.8047 32.6172 28.1681C33.6604 28.0201 34.0447 28.195 34.0447 28.195C34.0956 27.6716 33.1717 26.8709 33.1717 26.8709C34.1118 27.2733 35.0437 28.4749 35.2178 28.7078C35.3502 28.8785 35.4706 29.0585 35.5781 29.246C35.6052 29.2914 35.6379 29.3491 35.6762 29.4172C36.1716 30.2946 37.6305 32.8784 40.7873 32.6412L42.5376 32.551C42.5376 32.551 44.9199 32.3424 45.9778 33.0758C46.4952 33.4368 46.6555 33.5756 46.873 33.7639C46.9482 33.829 47.0302 33.9 47.1361 33.9882C47.261 34.0913 47.4086 34.2355 47.5738 34.3968C48.1239 34.9341 48.8697 35.6625 49.6256 35.704C49.9149 35.7201 50.1947 35.6205 50.48 35.3836C49.5399 35.6555 48.9856 35.0809 48.9158 35.0041C49.9671 35.2855 50.405 35.1912 50.7572 34.8414C50.7812 34.5103 50.3341 34.1726 50.0634 34.034C49.4245 33.7134 49.1115 33.3831 48.8063 33.061C48.7351 32.9858 48.6635 32.9102 48.5891 32.8363C48.4405 32.6887 48.251 32.4561 48.0587 32.2198C47.8179 31.9242 47.5723 31.6226 47.3959 31.4744C47.0558 31.1878 46.5911 30.8474 45.5519 30.8649C44.4927 30.881 43.2633 30.8904 42.8964 30.8299C42.5161 30.7666 42.2938 30.7168 41.9443 30.4302C41.6631 30.2042 41.4757 29.9484 41.3096 29.6524C41.2328 29.5198 41.1574 29.3641 41.0688 29.1808C40.9659 28.9677 40.8448 28.7176 40.6828 28.4237C40.4713 28.0524 40.099 27.7536 40.099 27.7536L40.1816 27.8061C40.615 28.0811 40.8603 28.2367 41.1971 28.7359C41.9376 29.8354 42.4947 30.1463 42.9594 30.3051C43.4123 30.4553 44.3631 30.5272 45.1747 30.5886C45.5992 30.6206 45.9855 30.6498 46.243 30.6858C46.7582 30.7627 47.2313 31.016 47.582 31.4031C47.8023 31.6326 48.0335 31.8641 48.2565 32.0874C48.4376 32.2688 48.6137 32.445 48.7738 32.6102C49.8948 33.7836 51.1749 33.9155 51.1791 33.9155C51.8365 34.0205 52.9787 33.9572 53.5333 33.7136C54.0528 33.4769 54.4813 33.0758 54.5737 32.777C54.646 32.5739 54.6246 32.368 54.4719 32.2145C54.2497 31.9933 53.8228 32.2221 53.4625 32.4152C53.3343 32.484 53.2145 32.5482 53.1154 32.586C53.1154 32.586 51.9597 33.0395 50.2899 32.286C50.2899 32.286 44.2597 29.141 43.6678 28.8168C40.413 27.0418 35.3691 25.0601 33.1767 24.1987L33.0083 24.1324C31.4629 23.5188 29.0444 22.6656 29.0444 22.6656C25.4957 21.4303 23.191 20.775 23.191 20.775C23.6932 21.3375 24.356 22.628 24.356 22.628C22.1518 19.5868 18.1814 19.9716 18.1814 19.9716C17.0096 20.0066 16.0962 20.8503 16.0962 20.8503C16.0092 20.9715 16.194 21.0065 16.194 21.0065C17.667 21.4533 18.5375 23.1837 18.5375 23.1837C16.7204 21.721 15.6449 21.5273 15.6449 21.5273C14.4612 21.3577 14.4478 20.8719 14.4478 20.8719C15.5433 21.1128 16.2074 20.4601 16.3721 20.1425L16.4525 19.9999C14.567 19.9151 13.6858 20.1815 13.6858 20.1815C11.9236 20.5895 11.6312 21.0599 11.5535 21.1851L11.5499 21.1908C11.4669 21.3092 11.4575 21.7129 11.9195 21.6039C11.9195 21.604 11.9195 21.604 11.9195 21.6039L11.9213 21.5988C11.942 21.5379 12.1404 20.9538 12.656 20.8612C12.656 20.8612 12.9305 20.8234 13.489 20.8302C13.489 20.8302 13.0953 21.6954 12.2677 21.8368C12.2677 21.8368 11.969 21.8811 11.878 21.8905ZM10.5636 23.4832C10.5348 23.4255 10.5065 23.3688 10.4772 23.3183C10.4357 23.2537 10.3407 23.1784 10.3407 23.1784C10.1425 22.9711 10.2429 22.6966 10.3433 22.5379C10.6446 22.0708 11.2191 21.5514 11.2191 21.5514C11.2647 21.5084 11.2406 21.4438 11.2406 21.4438C11.1401 21.2137 11.3209 21.0065 11.3209 21.0065C12.4016 19.4885 15.8418 19.3943 15.8418 19.3943C22.2925 19.0593 31.9597 23.1878 31.9597 23.1878C36.8797 25.1376 40.2677 26.7122 40.2677 26.7122C41.6308 27.3838 43.6085 28.458 45.5114 29.4916C47.6838 30.6716 49.7587 31.7986 50.7103 32.2132C50.7103 32.2132 51.6384 32.6089 52.7967 32.2671C53.0863 32.1802 53.3244 32.0349 53.5322 31.908C53.7106 31.7991 53.8668 31.7039 54.014 31.6709C54.014 31.6709 54.6875 31.496 54.9312 32.0396C55.0197 32.2361 54.9943 32.5564 54.7652 32.9196C53.8761 34.4739 51.5821 34.3166 50.5644 34.077C50.7129 34.1812 50.8382 34.3154 50.9321 34.4712C51.0259 34.627 51.0863 34.8007 51.1093 34.9813C51.1093 34.9813 50.6621 35.6945 50.2644 35.8789C49.2257 36.3521 48.4256 35.5792 47.5859 34.7679C47.5183 34.7027 47.4507 34.6373 47.3826 34.5722C46.7884 34.0028 46.5497 33.8806 46.2253 33.7145L46.172 33.6872L46.1037 33.6518C45.1931 33.1727 44.3052 33.2198 43.2071 33.2871L41.4086 33.4486C37.8731 33.756 36.5766 31.5208 35.6983 30.0063C35.5886 29.8171 35.4854 29.6392 35.3852 29.4788C35.1656 29.1209 34.4344 28.5812 33.631 28.522C33.631 28.522 33.1663 28.5019 32.5637 28.5812C29.1355 29.024 27.8271 28.8019 26.4345 28.3444C25.5586 29.4115 23.2366 28.8059 23.2366 28.8059C22.6576 28.6548 20.5923 27.9441 19.4108 27.5375C19.0044 27.3978 18.7026 27.2939 18.6018 27.2611C18.0018 27.0674 17.7782 27.6729 17.7782 27.6729C17.2112 28.9187 16.0885 29.1055 15.8987 29.137C15.8818 29.1398 15.8724 29.1414 15.8714 29.1424C15.8714 29.1424 14.5214 28.6714 15.1843 27.3043C15.4348 26.7807 16.3092 25.4997 17.6712 25.2561C17.7599 25.2402 17.8542 25.2227 17.9521 25.2045C18.3768 25.1257 18.8723 25.0336 19.3009 25.0031C17.55 23.6008 16.487 23.8068 16.3291 23.8373C16.3208 23.839 16.3152 23.84 16.3118 23.8404C16.3118 23.8404 15.325 24.0113 14.6179 24.66C14.4047 24.8551 14.2389 25.0876 14.0495 25.3536C14.0115 25.4068 13.9726 25.4613 13.9322 25.5171C13.9322 25.5171 13.8049 25.7419 13.4743 25.723C12.9935 25.6961 12.494 25.3584 12.494 25.3584C12.3775 25.2682 12.4284 25.0489 12.4793 24.9883L12.569 24.8348C12.559 24.8015 12.5466 24.7646 12.5337 24.7263C12.5153 24.6718 12.4961 24.6146 12.4819 24.5617C12.4431 24.3962 12.4498 24.3545 12.4498 24.3545C12.4498 24.3545 12.7324 24.5132 12.8823 24.5132C12.9239 24.5132 12.9453 24.5052 12.9453 24.5052C13.1676 24.4392 13.3765 23.9898 13.3872 23.9454C13.5761 23.3156 13.3498 22.8729 13.1582 22.7369C12.9212 22.5755 12.6212 22.702 12.506 22.8204C12.3721 22.9509 12.2543 23.204 12.1927 23.4057C12.1927 23.4057 12.1391 23.574 12.1632 23.7544C12.1756 23.8547 12.239 23.9953 12.2952 24.1196C12.33 24.1969 12.3621 24.2679 12.3775 24.3195C12.3775 24.3195 12.032 24.3276 11.815 24.1123C11.815 24.1123 11.8124 24.1702 11.6249 24.201C11.1964 24.275 10.8924 23.967 10.7411 23.7839C10.6737 23.704 10.6178 23.5919 10.5636 23.4832ZM15.7803 20.3526C15.5677 20.4635 15.3329 20.5246 15.0934 20.5317C15.0331 20.5317 14.9836 20.5329 14.9434 20.5289C14.8469 20.5249 14.7893 20.5182 14.7933 20.5047C14.7933 20.4872 15.0198 20.2423 15.4496 20.2423C15.6254 20.2431 15.8013 20.2449 15.9771 20.2476C15.9158 20.29 15.8496 20.3252 15.7803 20.3526ZM11.3009 41.7408C11.6076 41.4286 11.7562 41.033 11.7562 40.3897V38.382H10.2283V40.2633C10.2283 40.8095 10.1064 41.181 9.83858 41.4461C9.4864 41.796 8.89985 41.94 8.03343 41.94H5.20115V42.4944H8.27448C9.73145 42.4944 10.7612 42.2952 11.3009 41.7408ZM44.8986 41.0841L43.0855 38.9795L41.2802 41.0841H44.8986ZM46.1066 42.4917L45.3539 41.6171H40.8264L40.0737 42.4917H39.1885L42.752 38.3807H44.2599L47.8219 42.4917H46.1066ZM16.3508 38.9808L14.547 41.0854H18.1641L16.3508 38.9808ZM21.0861 42.4931H19.3719L18.6194 41.6184H14.0864L13.3392 42.4931H12.4526L16.0147 38.3807H17.5239L21.0861 42.4931ZM50.7077 40.5499V38.8961H53.7208C54.2913 38.8961 54.5431 38.9485 54.7185 39.0804C54.8859 39.2083 54.9435 39.3953 54.9435 39.694V39.7721C54.9435 40.0358 54.8832 40.2524 54.685 40.3897C54.4922 40.5216 54.2244 40.5499 53.7369 40.5499H50.7077ZM55.901 40.7329C56.292 40.5216 56.4728 40.126 56.4728 39.7129C56.4728 39.1625 56.2291 38.8113 55.7831 38.6162C55.3841 38.4413 54.8926 38.382 53.9191 38.382H49.1811V42.4931H50.7077V41.0693H52.7138L55.0064 42.4931H56.8678L54.468 41.0357C55.0333 41.0236 55.5207 40.9334 55.901 40.7329ZM30.9487 40.4302V38.3807L32.4753 38.3794V40.371C32.4753 40.9052 32.541 41.216 32.7365 41.4932C33.0713 41.9601 33.6404 42.1297 34.6648 42.1297H34.7961C35.8714 42.1297 36.3923 41.9601 36.7218 41.4932C36.92 41.216 36.9896 40.8877 36.9896 40.3723V38.3807H38.5162V40.4262C38.5162 40.959 38.456 41.3802 38.1881 41.7234C37.757 42.2993 36.9614 42.625 34.7412 42.625H34.7117C32.5062 42.625 31.7081 42.2993 31.2701 41.7247C31.005 41.3802 30.9487 40.959 30.9487 40.4302ZM29.1047 38.9258H25.2882C24.4687 38.9258 24.0227 39.0535 23.6799 39.3307C23.3812 39.5757 23.2205 39.9431 23.2205 40.4329C23.2205 40.9443 23.3879 41.321 23.712 41.5672C24.0508 41.827 24.5101 41.9427 25.303 41.9427H27.7375V40.6025H29.2614V42.4918H24.8382C24.0094 42.4918 23.3545 42.3935 22.8617 42.1957C22.0382 41.866 21.6618 41.255 21.6618 40.4262C21.6618 39.6456 22.0716 39.1007 22.5925 38.8113C23.1482 38.4991 23.7709 38.3807 24.8115 38.3807H29.1047V38.9258Z" fill="#333333"/>
</g>
</svg>
