<svg width="63" height="62" viewBox="0 0 63 62" fill="none" xmlns="http://www.w3.org/2000/svg">
<g id="1988fe44f0e7c410847536117ae869af_1650382576">
<path id="Vector" fill-rule="evenodd" clip-rule="evenodd" d="M14.2172 36.3396C15.0286 35.6473 15.565 34.7978 15.834 33.7971C16.0998 32.795 16.2366 31.3349 16.2366 29.4203V19.375H12.1393V30.646C12.1393 31.6686 12.0317 32.3954 11.815 32.8327C11.729 33.0308 11.587 33.1978 11.4072 33.3122C11.2275 33.4267 11.0183 33.4832 10.8068 33.4746C10.5194 33.4746 10.2997 33.4038 10.1413 33.2576C9.90368 33.0189 9.73371 32.7188 9.64954 32.3891C9.5604 32.0273 9.50662 31.4797 9.50047 30.7371L5.49998 30.5877C5.57375 31.884 5.90419 33.8065 6.30531 34.686C6.70489 35.5671 7.26892 36.242 8.00509 36.6983C8.74125 37.1545 9.7725 37.3842 11.1096 37.3842C12.3729 37.3842 13.4087 37.0413 14.2172 36.3396ZM38.1448 27.4021C37.5577 27.4021 37.0935 27.6963 36.7401 28.2862C36.5156 28.6545 36.3819 29.2003 36.3235 29.924H39.9414C39.8645 29.0194 39.677 28.3728 39.3697 27.9873C39.0576 27.594 38.6519 27.4021 38.1448 27.4021ZM38.0971 37.3609C36.8308 37.3609 35.8334 37.1344 35.1033 36.6813C34.3733 36.2266 33.7693 35.506 33.2959 34.5132C32.8118 33.5237 32.5736 32.3595 32.5736 31.0269C32.5736 29.1264 33.0546 27.5815 34.0137 26.4077C34.9772 25.2326 36.299 24.6425 37.9895 24.6425C39.3666 24.6425 40.4409 24.9037 41.2385 25.4339C42.0285 25.9578 42.6386 26.7272 43.0504 27.723C43.4639 28.7237 43.6744 30.0263 43.6744 31.6327V32.1566H36.3113C36.3788 32.9086 36.5341 33.4655 36.7876 33.8304C37.1458 34.3638 37.6099 34.6249 38.1785 34.6249C38.5484 34.6235 38.9083 34.5024 39.2067 34.2789C39.4065 34.1341 39.6217 33.8808 39.8522 33.5111L43.4639 33.9391C42.9152 35.1567 42.2482 36.0378 41.4644 36.5711C40.6852 37.095 39.5602 37.3609 38.0971 37.3609ZM51.9844 33.8808C52.4146 33.8808 52.7712 33.659 53.0602 33.209C53.3491 32.7607 53.4935 31.9992 53.4935 30.9357C53.4935 29.9492 53.346 29.2207 53.0386 28.7661C52.7405 28.2989 52.3732 28.0644 51.9413 28.0644C51.4695 28.0644 51.0776 28.302 50.7657 28.7661C50.4552 29.2334 50.2983 29.9902 50.2983 31.0347C50.2983 31.996 50.4583 32.7134 50.7795 33.1807C51.0899 33.6448 51.4987 33.8808 51.9844 33.8808ZM51.3588 25.1822C51.8968 24.8187 52.49 24.6425 53.1401 24.6425C54.4234 24.6425 55.4115 25.264 56.1186 26.5085C56.8133 27.7546 57.1667 29.2932 57.1667 31.1339C57.1667 33.1508 56.787 34.6942 56.0233 35.7687C55.2594 36.8338 54.2897 37.3609 53.1262 37.3609C52.5545 37.3609 52.0381 37.2413 51.574 36.999C51.1099 36.7505 50.6918 36.387 50.3261 35.9072V42.625H46.6161V24.921H50.0541V26.7146C50.5305 25.9579 50.9669 25.4449 51.3588 25.1822ZM24.5804 27.4021C23.9933 27.4021 23.5353 27.6963 23.1833 28.2862C22.9589 28.6545 22.8176 29.2003 22.7591 29.924H26.3785C26.3063 29.0194 26.1127 28.3728 25.8052 27.9873C25.4933 27.594 25.086 27.4021 24.5804 27.4021ZM24.5389 37.3609C23.2648 37.3609 22.2689 37.1344 21.5435 36.6813H21.542C20.8088 36.2266 20.2095 35.506 19.7285 34.5132C19.252 33.5237 19.0091 32.3595 19.0091 31.0269C19.0091 29.1264 19.4948 27.5815 20.4492 26.4077C21.4128 25.2326 22.7377 24.6425 24.4297 24.6425C25.7976 24.6425 26.8826 24.9037 27.6742 25.4339C28.4671 25.9578 29.0757 26.7272 29.4906 27.723C29.9072 28.7237 30.1131 30.0263 30.1131 31.6327V32.1566H22.7468C22.8145 32.9086 22.9727 33.4655 23.2233 33.8304C23.5829 34.3638 24.0455 34.6249 24.6173 34.6249C24.9769 34.6249 25.3227 34.5101 25.647 34.2789C25.8452 34.1341 26.0558 33.8808 26.2863 33.5111L29.9072 33.9391C29.3493 35.1567 28.6854 36.0378 27.9046 36.5711C27.1208 37.095 26.0035 37.3609 24.5389 37.3609Z" fill="#333333"/>
</g>
</svg>
