<svg width="63" height="62" viewBox="0 0 63 62" fill="none" xmlns="http://www.w3.org/2000/svg">
<g id="Kia">
<path id="Vector" fill-rule="evenodd" clip-rule="evenodd" d="M56.8678 30.9999C56.8678 38.1063 45.2626 43.9166 31.0345 43.9166C16.8064 43.9166 5.20115 38.1213 5.20115 30.9999C5.20115 23.8786 16.8064 18.0833 31.0345 18.0833C45.2626 18.0833 56.8678 23.8936 56.8678 30.9999ZM54.8395 30.9999C54.8395 25.6068 44.1494 21.1374 31.0345 21.1374C17.9195 21.1374 7.21414 25.6217 7.21414 30.9999C7.21414 36.3782 17.9043 40.8476 31.0345 40.8476C44.1647 40.8476 54.8395 36.393 54.8395 30.9999ZM42.6856 28.526L40.1694 37.1222H36.6924L40.2609 25.3676H39.7576V24.8015H45.0951L48.6788 37.1222H45.2019L42.6856 28.526ZM18.9263 37.1222H15.4035V25.6953C15.2038 25.6232 14.9908 25.5927 14.7783 25.6059V25.0845H18.9263V29.7327L22.1439 25.0845H26.1852L22.1592 30.7904L26.8867 36.8242H22.8454L18.9263 31.7589V37.1222ZM33.2155 37.1222H29.7384V25.6953C29.5395 25.62 29.3259 25.5894 29.1131 25.6059V25.0845H33.2155V37.1222Z" fill="#333333"/>
</g>
</svg>
