<svg width="63" height="62" viewBox="0 0 63 62" fill="none" xmlns="http://www.w3.org/2000/svg">
<g id="lada">
<path id="Vector" fill-rule="evenodd" clip-rule="evenodd" d="M7.46957 21.9575C7.46957 16.9643 17.627 12.9167 30.1574 12.9167C42.6876 12.9167 52.8453 16.9643 52.8453 21.9575C52.8453 26.9507 42.6876 30.9983 30.1574 30.9983C17.6272 30.9983 7.46957 26.951 7.46957 21.9575ZM35.2177 22.7492C35.2113 22.7187 35.1869 22.6953 35.1562 22.6901C34.5032 22.5952 33.8475 22.5205 33.1898 22.4666C33.151 22.4598 33.1236 22.4241 33.1492 22.3395C35.2461 20.1414 36.0425 17.3445 34.9823 15.1562C34.9848 15.1361 34.995 15.1177 35.011 15.1052C35.027 15.0926 35.0474 15.0869 35.0676 15.0893C42.2833 15.9612 47.5518 18.7064 47.5518 21.9575C47.5518 25.9104 39.7643 29.115 30.1577 29.115C20.5511 29.115 12.7633 25.9107 12.7633 21.9575C12.7633 18.5308 18.6164 15.6663 26.4336 14.9646C26.4715 14.9657 26.5036 14.9949 26.5056 15.0546L24.8084 24.365C24.7442 24.6962 24.8318 25.0388 25.0473 25.2989C25.2629 25.5591 25.5839 25.7098 25.9226 25.7097L25.9833 25.7128C27.4971 25.6342 29.1238 25.1636 30.6604 24.2798C31.0958 24.0295 31.515 23.7518 31.9151 23.4486C31.9386 23.4294 31.9716 23.4263 31.9983 23.4406C32.5101 23.7801 32.8046 24.1774 32.8046 24.6026C32.8046 25.1801 32.261 25.7068 31.367 26.1066C30.3282 26.5708 28.8162 26.8626 27.1326 26.8626C25.7058 26.8626 24.4023 26.6529 23.3909 26.3029C23.3711 26.2994 23.3507 26.3038 23.3343 26.3153C23.3179 26.3268 23.3067 26.3444 23.3033 26.3642L23.1592 27.1535C23.1541 27.1924 23.1798 27.2287 23.2183 27.2371C25.2754 27.714 27.6413 27.9852 30.1592 27.9852C33.2915 27.9852 35.8315 26.9731 35.8315 25.7252C35.8315 25.2395 35.4476 24.7899 34.7945 24.4219C34.2223 24.1425 33.8619 23.7801 33.9503 23.5371C34.042 23.2852 34.5894 23.2448 35.2396 23.4193C35.2766 23.4242 35.3122 23.402 35.3254 23.3361L35.2177 22.7492ZM30.1574 17.0506C30.1574 17.0994 30.1559 17.1481 30.1528 17.1958C30.2355 18.8549 29.2057 21.0745 27.3243 22.9489C26.9509 23.3215 26.553 23.6692 26.1336 23.9898C26.1171 24.0004 26.0971 24.004 26.0778 23.9999C26.0386 23.9916 26.013 23.9543 26.02 23.9084L27.864 13.7966C27.8619 13.7579 27.8308 13.727 27.7919 13.7251C17.629 14.2012 9.73825 17.7053 9.73825 21.9575C9.73825 26.5345 18.8801 30.2447 30.1574 30.2447C41.435 30.2447 50.5769 26.5345 50.5769 21.9575C50.5769 17.3805 41.4352 13.6703 30.1574 13.6703C29.8002 13.6703 29.4447 13.6742 29.0882 13.6815C29.0534 13.6818 29.0232 13.7054 29.0148 13.739L28.7991 14.919C28.794 14.9506 28.8089 14.9807 28.8353 14.9965C29.6412 15.3648 30.1577 16.1672 30.1574 17.0506ZM9.01207 35.5187V46.5918H15.1837V49.0834H5.20114V35.5187H9.01207ZM23.9231 43.5869L22.1426 38.6467L20.3627 43.5869H23.9231ZM24.5637 35.5245L29.7382 49.0798H25.7743L24.6348 45.8789H19.6508L18.5115 49.0798H15.3307L20.4573 35.5245H24.5637ZM33.9596 46.584H35.6682C36.6889 46.584 38.042 46.4067 38.9201 45.2404C39.7977 44.0748 39.8219 42.7111 39.8219 42.1581C39.8219 41.4463 39.7269 40.0043 38.7067 38.9963C37.7568 38.0876 36.5225 38.0083 35.5972 38.0083H33.9596V46.584ZM30.1616 35.5187H35.7392C37.3536 35.5187 39.7979 35.6767 41.6734 37.2775C43.1924 38.5619 43.9044 40.6565 43.9044 42.2767C43.9044 43.4621 43.5252 45.8925 41.4363 47.5329C39.7744 48.8368 37.8997 49.0741 36.143 49.0741H30.1618L30.1616 35.5187ZM51.0527 43.5808L49.2728 38.6408L47.4926 43.5808H51.0527ZM51.6937 35.5187L56.8678 49.0739H52.9039L51.765 45.8727H46.7807L45.6409 49.0739H42.4603L47.5874 35.5185L51.6937 35.5187Z" fill="#333333"/>
</g>
</svg>
