<svg width="62" height="62" viewBox="0 0 62 62" fill="none" xmlns="http://www.w3.org/2000/svg">
<g clip-path="url(#clip0_1301_20163)">
<path fill-rule="evenodd" clip-rule="evenodd" d="M30.5186 21.0993C30.326 21.1826 30.1979 21.0608 30.3582 20.9262C30.4481 20.8557 30.5251 20.6825 30.6084 20.5992C30.7431 20.4709 30.9741 20.6443 30.8649 20.8109C30.7813 20.9453 30.6723 21.0289 30.5186 21.0993ZM36.6627 28.6863C36.6627 28.6863 37.1114 28.9365 37.1368 29.1739C37.1622 29.4112 37.2073 29.8089 36.8353 29.7704C36.4636 29.7319 35.482 29.8345 35.1294 30.0334C34.7705 30.2322 34.469 30.1295 34.3341 29.982C34.1997 29.8345 33.9495 29.7704 33.7632 29.8345C33.5775 29.905 33.0518 30.2194 32.9556 30.1038C32.8655 29.982 32.7183 29.7704 33.1413 29.6357C33.565 29.5073 33.2375 29.3855 32.9422 29.3855H32.6536C32.6536 29.3855 32.3201 29.4819 32.1922 29.5972C32.0573 29.719 31.7815 29.796 31.6214 29.5972C31.4608 29.3981 31.448 28.898 31.9549 28.9237C32.4553 28.9494 32.8783 28.635 32.7822 28.5003C32.6921 28.3657 32.8655 28.2373 32.9939 28.4233C33.1282 28.6096 33.1539 28.5902 33.648 28.712C34.1355 28.8338 33.9495 28.5517 34.1997 28.789C34.4499 29.0329 34.6099 28.9622 34.6938 28.712C34.7705 28.4618 34.5203 27.9872 34.2125 28.154C33.911 28.3272 33.6993 28.2117 33.6608 28.077C33.616 27.9424 33.4235 27.8012 33.3019 27.8397C33.1799 27.8782 33.1028 27.5638 33.3533 27.4808C33.6035 27.4038 33.6739 27.0574 33.5778 26.9419C33.4877 26.8201 33.3019 26.6598 32.9813 26.8843C32.6667 27.1088 32.2564 26.9419 32.0573 26.9294C31.8588 26.91 30.8774 26.9933 30.6592 27.1795C30.435 27.3655 29.9988 27.141 30.5183 26.8075C31.0249 26.4741 32.3075 25.6981 32.3203 25.4417C32.3332 25.1915 32.1669 24.3579 31.8716 24.2935C31.5829 24.2296 30.781 24.0821 30.5825 23.9857C30.3836 23.8958 29.6268 23.8062 29.428 24.3191C29.2354 24.8386 29.1265 24.2421 29.1265 24.2421C29.1265 24.2421 28.4019 23.5943 27.7349 24.1585C27.0742 24.7294 27.4462 23.883 27.5937 23.7355C27.7349 23.5943 28.0684 23.2736 28.5171 23.2351C28.9661 23.1966 28.8058 22.7604 29.6588 22.7604C30.5055 22.7604 30.2744 22.3756 30.2938 22.2153C30.3066 22.055 30.1206 21.6188 30.5055 21.4074C30.8774 21.1957 30.9739 21.1572 30.9607 21.5549C30.9479 21.9525 30.9607 22.2923 31.1339 22.2923C31.3008 22.2923 31.2879 22.7156 31.333 22.7989C31.3715 22.876 31.6856 22.8118 31.8847 22.6771C32.0833 22.5488 32.2564 22.5488 32.3782 22.7476C32.494 22.9464 32.4299 23.1133 32.4039 23.2351C32.3782 23.3504 32.3335 23.5492 32.4812 23.6967C32.6284 23.8442 32.7057 24.2033 32.6156 24.3702C32.5194 24.5434 32.4299 24.8064 32.6156 24.9667C32.8019 25.127 32.8019 25.5758 33.1799 25.6274C33.565 25.685 33.7122 25.8134 33.9752 26.0955C34.2382 26.3714 34.437 26.1854 34.2254 25.9352C34.0137 25.685 33.4877 25.3259 33.8018 24.9795C34.1229 24.6398 34.1869 25.1142 34.3854 25.39C34.5842 25.6722 36.2134 28.3144 36.6627 28.6863ZM31.5512 44.4951C31.5512 44.4951 31.4931 45.1236 31.2557 44.7453C31.0189 44.3736 30.4415 43.95 30.4992 43.3792C30.5571 42.8083 30.2878 42.7379 30.2878 42.7379C30.2878 42.7379 30.9353 42.8914 31.0061 43.6485C31.0061 43.6485 31.3972 43.546 31.3972 44.0655C31.3969 44.5784 31.5512 44.4951 31.5512 44.4951ZM33.8018 31.021C33.8018 31.021 34.578 30.6744 35.0655 31.021C35.553 31.3673 35.1999 31.9059 35.1999 31.9059C35.1999 31.9059 34.1483 32.4185 34.366 33.009C34.5777 33.599 35.848 34.0605 37.6244 34.1373C39.4007 34.2211 37.7849 34.7016 37.2974 34.7016C36.8162 34.7016 34.0713 35.3497 32.8592 33.8166C31.6471 32.2842 33.5068 31.213 33.8018 31.021Z" fill="#333333"/>
<path fill-rule="evenodd" clip-rule="evenodd" d="M18.7362 33.0861C18.7362 33.0861 17.9283 35.8376 17.9283 36.2415C17.9283 36.6455 17.896 37.6333 17.896 37.6333C17.896 37.6333 17.4536 36.5302 17.6718 35.9083C17.896 35.2864 17.9668 33.0479 17.9668 32.6437C17.9668 32.2397 18.2232 30.303 18.7364 29.6041C19.2496 28.9049 18.8454 27.6609 19.0699 27.3274C19.2879 27.0002 19.3264 25.7176 19.5061 25.3522C19.6921 24.9802 19.5061 24.0311 20.0578 23.2549C20.6095 22.4852 21.052 21.6451 21.052 21.3116C21.052 20.9847 22.4435 18.6372 23.6559 17.8613C24.868 17.0916 25.3427 16.5465 25.3427 16.5465C25.3427 16.5465 27.9463 14.1223 29.197 14.1608C30.4413 14.1927 31.7558 14.9301 32.269 14.9301C32.7822 14.9301 34.3275 15.2959 35.4626 15.0776C36.5977 14.8534 36.8545 14.8534 37.079 14.3402C37.2972 13.8273 37.4444 11.8455 35.6489 11.4413C33.8469 11.0374 31.8331 10.6716 27.9463 11.1141C24.0601 11.5503 23.5469 11.6978 22.3733 11.3706C21.1997 11.0371 20.8277 9.31833 22.5913 8.5424C24.3551 7.77274 25.1567 7.81125 25.6377 7.51628C26.1121 7.22131 26.9202 7.22131 27.177 7.0416C27.4334 6.8556 27.5809 7.3688 27.9849 7.11206C28.3888 6.8556 28.2798 7.40703 28.716 7.22104C29.1587 7.04132 29.197 7.29778 29.4152 7.59303C29.6331 7.88172 30.2231 7.84949 31.1725 7.77247C32.1221 7.702 32.4553 7.4775 32.9679 7.59303C32.9679 7.59303 32.0511 8.13818 31.4609 8.13818C30.8772 8.13818 29.0112 8.32417 28.9727 8.58091C28.9405 8.83737 29.3767 8.94634 30.0759 8.91439C30.7751 8.87588 30.6276 9.09383 30.1529 9.17085C29.6717 9.24131 26.9205 9.60702 26.3368 9.60702C25.7466 9.60702 23.2134 9.38907 22.9955 10.011C22.7775 10.6331 23.0662 10.7806 23.8036 10.8576C24.5348 10.9281 27.9851 10.3767 28.6843 10.2355C29.377 10.088 34.5846 9.35056 36.6756 10.7806C38.766 12.2107 38.58 13.2048 38.2528 14.4874C37.9194 15.77 37.7716 15.8085 38.3621 16.4692C38.952 17.1296 41.9916 21.3499 41.9596 23.915C41.9211 26.4867 41.7739 27.5513 42.3639 28.321C42.9475 29.0907 42.838 30.3732 42.7293 30.7452C42.6206 31.1107 42.543 31.688 43.3512 32.0212C44.1594 32.3482 45.7372 33.0091 46.3208 32.7136C46.9108 32.4255 47.5329 32.169 47.6802 32.4959C47.8279 32.8294 46.2116 34.035 45.6984 34.1117C45.1857 34.1827 43.4217 34.4392 42.4343 34.221C41.4464 34.0027 42.3251 34.5864 42.3958 34.6631C42.4726 34.7341 42.9858 35.7982 43.3127 35.946C43.6462 36.0932 43.7939 36.8246 43.7939 37.5943C43.7939 38.3634 43.9731 40.2045 43.9731 40.2045C43.9731 40.2045 44.1976 41.0064 44.4543 41.1536C44.7108 41.3013 44.743 41.9617 44.7108 42.2567C44.6723 42.5517 45.0762 42.9177 45.3327 43.1353C45.5891 43.3599 45.9226 44.2385 45.8074 44.5335C45.6981 44.8221 45.3327 44.8994 45.4031 45.2649C45.4804 45.6303 44.9672 45.7781 44.7108 45.7396C44.4543 45.7071 44.0823 45.3353 44.4543 45.3353C44.8198 45.3353 44.6725 44.5657 44.3776 44.643C44.0826 44.7134 44.0121 44.9699 43.7939 44.8607C43.5694 44.7519 43.7554 45.5601 43.4217 45.1171C43.0947 44.6749 43.2425 43.7963 43.4217 43.7578C43.4217 43.7578 43.0947 42.8081 42.838 42.5836C42.5815 42.366 42.5815 41.3396 42.6908 40.7882C42.7995 40.2364 42.2161 38.5499 41.7739 38.3317C41.3312 38.1077 40.7475 37.3763 40.7475 37.3763C40.7475 37.3763 41.1903 36.8246 41.1515 36.4977C41.113 36.1642 40.895 35.946 40.818 36.389C40.7475 36.8249 39.8307 38.3317 38.4708 39.1718C38.4708 39.1718 36.4571 42.3272 37.4829 43.5013C37.4829 43.5013 37.7394 44.2002 37.4062 44.4567C37.0792 44.7132 37.0407 45.2649 36.9703 45.4506C36.893 45.6303 36.4186 45.9638 35.7961 45.9638C35.1677 45.9638 33.6286 46.182 33.3017 46.2907C32.9677 46.4 32.3777 46.4 32.0123 45.4506C32.0123 45.4506 32.9677 46.073 32.6408 45.2649C32.3073 44.4567 32.1601 44.1617 32.9294 44.277C33.6991 44.3862 33.7376 44.348 33.4811 44.0913C33.2247 43.8345 32.641 43.873 32.641 43.873C32.641 43.873 32.3075 43.6166 32.8207 43.4688C33.3339 43.3216 32.641 42.9562 32.641 42.9562C32.641 42.9562 32.4171 42.8404 32.641 42.4045C32.8592 41.9617 32.7503 41.3013 32.7503 41.3013C32.7503 41.3013 32.641 40.5317 32.859 39.8713C33.0772 39.2103 33.0067 39.1016 33.0067 39.1016C33.0067 39.1016 32.9294 38.332 32.3073 39.2488C31.6854 40.1663 31.7556 40.4935 31.4606 40.6407C31.1719 40.7884 30.8769 41.1539 30.9859 41.3401C31.0952 41.5198 30.55 41.5966 30.55 41.3016C30.55 41.0066 29.6714 39.9098 30.55 40.1665C30.55 40.1665 30.55 39.2879 30.9477 39.5056C30.9477 39.5056 31.0632 38.9929 30.8065 38.7684C30.55 38.5502 30.5885 37.9988 30.9477 37.5629C31.3199 37.1201 32.6022 34.2917 32.1215 33.7083C31.6469 33.1184 31.5373 33.2336 31.5764 33.5605C31.6084 33.8946 31.2424 33.8561 31.0632 33.6698C30.8769 33.4901 30.0049 32.9769 30.0049 32.6434C30.0049 32.3165 29.6329 32.3165 29.6009 32.5347C29.5624 32.7529 29.1199 32.1693 29.1199 32.1693C29.1199 32.1693 28.8635 31.6176 29.3445 31.6561C29.8189 31.688 29.9666 31.3996 30.5181 31.2901C31.0632 31.1814 32.1215 31.5403 32.4933 31.8743C32.4933 31.8743 33.3334 30.2643 34.802 30.4825C36.2705 30.707 35.7958 31.4316 35.7188 31.6178C35.6484 31.797 35.0199 32.9772 36.7133 32.83C38.4001 32.6822 37.2969 32.3487 37.0787 32.3487C36.8542 32.3487 35.8283 32.4965 36.0141 32.0218C36.1938 31.5405 36.1938 31.1817 36.7455 31.2584C37.2972 31.3229 37.8486 30.9249 38.1436 31.6883C38.1436 31.6883 38.3618 31.0727 38.9518 31.3229C39.5354 31.5791 39.8304 31.3614 40.266 31.6563C40.7087 31.945 41.2604 31.8355 41.2604 31.8355C41.2604 31.8355 41.7026 31.9833 41.6644 32.458C41.6259 32.9387 41.4079 33.2656 41.0425 33.1951C40.6708 33.1184 40.3821 33.7083 41.113 33.7083C41.8444 33.7083 41.8826 33.2656 42.9858 33.6316C44.0826 34.0033 45.5512 34.0737 45.9939 33.7083C46.4361 33.3429 47.2762 32.9387 47.2762 32.9387C47.2762 32.9387 47.5327 32.3487 46.9812 32.6822C46.4361 33.0097 45.5894 33.1954 44.3066 32.83C43.0243 32.4582 42.5045 32.0537 42.3248 32.0537C42.1391 32.0537 41.9913 31.9833 41.9913 31.6563C41.9913 31.3229 41.4462 30.816 41.2604 30.707C41.0742 30.598 40.4523 30.303 40.0868 30.303C39.7209 30.303 37.9573 29.4949 37.6624 29.1292C37.3737 28.7637 36.636 28.0648 36.3801 26.7435C36.1236 25.4224 35.5719 25.0181 35.2769 24.6912C34.9882 24.3577 34.3595 23.9153 34.3595 22.5939C34.3595 21.2794 33.7376 20.6187 33.4809 20.3623C33.2244 20.0992 32.0508 17.8995 31.9418 17.6428C31.8331 17.3863 31.7236 16.4692 32.3777 17.1684C33.0387 17.861 33.3017 18.156 33.2244 18.5602C33.2244 18.5602 33.5584 18.7847 33.4107 19.1501C33.4107 19.1501 33.9943 19.6246 33.8854 19.9903C33.8854 19.9903 34.5073 20.6892 34.5458 20.9071C34.5843 21.1316 34.9885 21.2021 35.0975 20.9456C35.2062 20.6892 36.0143 20.6892 35.7194 20.4327C35.4244 20.1763 35.5336 19.8428 35.7579 20.1377C35.9761 20.4327 36.2711 21.0934 36.598 20.8369C36.9315 20.5805 37.0792 20.1763 36.7843 20.1763C36.4893 20.1763 36.4188 19.9583 36.4188 19.7338C36.4188 19.5159 36.0146 19.1821 36.3415 18.8169C36.6756 18.4512 36.1624 17.9383 36.1239 17.5726C36.0854 17.2069 35.9056 17.0594 35.7196 16.9824C35.5339 16.9119 35.5724 16.5784 36.0146 16.322C36.4573 16.0655 36.5278 15.8476 37.0025 16.027C37.4832 16.213 37.8107 16.027 37.6309 15.8858C37.4447 15.7383 37.4832 15.6293 37.6309 15.3663C37.7719 15.1099 38.6183 12.8716 37.4447 11.6658C36.2711 10.4537 33.2247 10.0883 31.4994 10.1972C29.7809 10.3062 26.0034 10.9666 25.6379 10.9666C25.2722 10.9666 23.5791 11.1526 23.2137 10.9666C22.848 10.7806 22.553 11.0756 22.9955 11.2231C23.4379 11.3706 25.7469 11.1526 26.2598 11.0756C26.773 11.0051 32.4168 10.2355 34.1421 10.7099C35.8671 11.1846 37.4062 11.518 37.5924 12.9099C37.7716 14.308 36.7843 15.4046 36.7843 15.4046C36.7843 15.4046 36.5278 15.6995 36.0146 15.661C35.5014 15.6291 32.3461 15.3341 31.5379 15.0774C30.7366 14.8209 28.7548 14.0832 27.5104 15.2571C26.2598 16.4307 24.0216 17.8992 23.6944 18.156C23.3609 18.4124 22.2643 19.7016 21.9694 20.5032C21.6744 21.3111 21.3794 21.4588 21.3409 21.9398C21.3087 22.4145 20.2443 22.8569 20.1351 24.0305C20.0258 25.2041 19.8786 25.8968 19.7311 26.192C19.5837 26.487 19.2887 27.1862 19.5837 27.2181C19.8786 27.2566 19.8786 27.6606 19.6222 27.6606C19.3657 27.6606 19.1797 27.8466 19.4362 28.4685C19.6926 29.0907 18.8143 29.7128 18.7758 30.3732C18.4092 31.3993 18.9609 32.201 18.7362 33.0861Z" fill="#333333"/>
<path fill-rule="evenodd" clip-rule="evenodd" d="M22.9885 27.282C22.9885 27.282 22.655 28.5135 22.9437 29.1163C23.2387 29.7256 23.3414 30.6236 23.7196 30.8544C24.0982 31.0855 24.0982 31.1685 24.3033 30.9762C24.515 30.7902 24.5535 30.9762 24.7201 31.1237C24.8867 31.2709 25.1625 31.2901 25.1816 31.4506C25.201 31.6175 25.1625 31.7265 24.9315 31.7265C24.7004 31.7265 24.4696 31.9128 24.3863 31.765C24.303 31.6178 24.0334 31.3291 23.8027 31.5787C23.5716 31.8289 23.5334 32.355 23.0909 32.1239C22.6547 31.8934 22.0069 31.9128 22.6293 31.4954C22.6293 31.4954 22.1099 31.0404 21.9815 30.9566C21.8597 30.8733 21.648 30.8927 21.6928 30.3538C21.7313 29.8086 21.4169 29.3468 22.1096 28.8467C22.7959 28.3464 22.3789 28.4299 22.3789 28.2437C22.3792 28.0519 22.6935 26.8395 22.9885 27.282Z" fill="#333333"/>
<path fill-rule="evenodd" clip-rule="evenodd" d="M22.4436 40.3391C22.4436 40.3391 21.9692 39.5053 21.533 39.653C21.0968 39.7945 21.2443 39.98 21.0968 40.1597C20.9556 40.3388 20.154 42.1223 20.154 42.4492C20.154 42.7762 19.8653 45.1043 19.9361 45.5789C20.0065 46.0536 19.5321 47.0347 19.0637 47.3616C18.5891 47.6885 17.7874 48.8493 17.6465 49.9076C17.499 50.9597 17.5695 51.2162 17.608 51.9085C17.6465 52.6014 17.6465 54.0509 17.2811 54.4163C16.9156 54.7817 16.1908 55 15.4277 55C14.6646 55 13.3883 54.7113 14.3374 53.5057C15.2802 52.3064 16.3 50.8507 16.0048 50.0873C15.7161 49.324 16.5499 49.183 16.6974 48.9266L16.8452 48.6701L17.0631 47.2911C17.0631 47.2911 17.0631 46.6692 17.4993 46.6692C17.9355 46.6692 18.5511 46.0148 18.5511 45.5789C18.5511 45.1425 18.5896 44.7451 18.4099 44.7451C18.2239 44.7451 18.1149 44.3412 18.1149 44.3412C18.1149 44.3412 17.9352 44.0137 17.6787 44.4499C17.4286 44.8858 17.3196 44.7063 17.499 44.3084C17.6787 43.9044 17.6787 43.6543 17.6787 43.6543C17.6787 43.6543 17.8647 43.468 18.0442 43.3208C18.2239 43.1793 18.0442 42.16 18.0057 41.9803C17.9737 41.7946 17.608 41.5763 17.6787 42.1985C17.7558 42.8141 17.8262 43.1411 17.8262 43.1411C17.8262 43.1411 17.4286 43.3593 17.4605 42.9619C17.499 42.5577 17.4605 41.7948 17.499 41.5447C17.5375 41.2882 17.1718 40.666 17.3901 40.2681C17.608 39.8707 17.5695 39.1778 17.5695 39.1778C17.5695 39.1778 17.9349 38.7037 17.8645 39.1778C17.7874 39.6525 17.5695 40.595 17.6785 40.7813C17.7874 40.961 18.0439 41.0315 18.1146 40.8132C18.1917 40.595 17.826 40.2681 18.1146 40.0114C18.4096 39.7612 18.1917 39.0688 18.1917 39.0688C18.1917 39.0688 18.3326 38.344 18.5186 38.1263C18.6983 37.9018 18.6983 36.3431 18.6276 36.1249C18.5505 35.9072 18.5505 35.8687 18.8455 35.5803C19.1342 35.2853 18.9545 34.7011 19.3136 34.3741C19.6794 34.0472 19.5701 34.1245 19.5319 34.4834C19.4996 34.8488 19.4996 36.2661 20.2245 35.7977C20.9556 35.3235 21.6098 35.3618 21.642 34.5601C21.6805 33.7583 21.828 32.6297 22.1549 32.0846C22.1549 32.0846 22.3344 33.1044 22.6296 33.2134C22.918 33.3226 23.5787 33.0981 24.0468 33.5403C24.5084 33.9768 25.4897 33.4316 25.3936 33.2516C25.2912 33.0659 25.0282 32.1938 25.6115 32.668C26.1889 33.1426 26.4454 33.3609 26.6633 33.3609C26.8813 33.3609 27.17 33.1426 26.9198 33.0659C26.6633 32.9949 26.7723 32.668 26.8108 32.4115C26.8428 32.155 27.2085 32.1228 27.4652 31.9051C27.7154 31.6869 27.9718 31.7189 28.0104 31.5009C28.0489 31.2892 28.4465 30.7444 28.485 31.3217C28.517 31.9054 28.6645 32.3733 28.8827 32.5593C29.1007 32.739 29.2481 32.9247 29.0302 33.1749C28.8122 33.4313 29.2804 33.7585 29.2804 34.2652C29.2804 34.7784 29.3893 34.7784 28.9917 34.7011C28.594 34.6306 28.299 34.8488 28.594 35.2143C28.8827 35.5802 28.8442 35.9072 28.5555 36.0481C28.2668 36.1959 28.1901 36.4523 28.0489 37.0297C27.9014 37.6134 27.6449 38.3762 27.7536 38.6717C27.8629 38.9604 28.1898 39.4665 28.4465 39.4665C28.703 39.4665 28.7735 39.7615 28.8442 40.1594C28.9212 40.5568 29.4983 40.7431 29.5753 41.1787C29.6458 41.6151 30.3002 42.1218 29.9025 42.0898C29.4986 42.0508 29.4279 42.3785 29.4279 42.7759C29.4279 43.1798 29.6076 43.9047 29.6076 43.9047C29.6076 43.9047 29.7551 44.4179 29.5368 44.8153C29.3189 45.2132 29.1392 45.9441 29.2099 46.3803C29.2804 46.8162 28.4853 47.541 28.1903 47.541C27.9017 47.541 27.7542 47.2523 28.2993 47.1431C28.8445 47.0344 28.8445 46.5275 28.3761 46.489C27.9017 46.4505 27.4974 46.3418 27.4974 46.8159C27.4974 47.2906 27.4974 47.6178 26.9523 47.5088C26.4071 47.3996 26.4713 47.201 26.4842 46.8869C26.4904 46.5786 26.7857 45.8862 26.8818 45.6871C26.9845 45.4885 27.1705 44.9947 27.3565 44.815C27.5359 44.6358 28.1196 43.507 28.1196 43.507C28.1196 43.507 28.6648 42.269 28.1581 42.7052C27.6452 43.1411 26.7024 43.9427 26.6254 44.3406C26.5549 44.7446 26.048 46.1233 26.048 46.5977C26.048 47.0724 25.5733 47.2906 25.5733 48.0859C25.5733 48.8878 25.3168 50.7409 25.6118 51.2156C25.9005 51.6903 25.4258 52.2349 25.2079 52.3059C24.9896 52.3826 24.0086 53.146 23.5339 53.1072C23.0658 53.0687 22.8476 52.9281 22.9183 52.6009C22.989 52.2737 22.7003 52.0877 22.5914 52.4146C22.4824 52.7415 21.9692 52.7415 22.0784 52.1259C22.1874 51.504 22.7003 49.7981 23.4252 48.9962C24.1563 48.1943 23.5727 48.0537 24.2268 48.0856C24.2268 48.0856 24.6245 47.2903 24.2653 47.1813C23.8999 47.0721 23.9384 46.8154 23.9384 46.4884C23.9384 46.1615 23.5727 45.7251 23.8294 45.1414C24.0796 44.5577 24.7722 43.5065 24.554 42.8838C24.3361 42.2682 23.6819 42.1209 23.6819 42.1209C23.2843 42.1209 22.8099 41.8323 22.8099 41.3576C22.809 40.8908 22.1871 40.7818 22.4436 40.3391Z" fill="#333333"/>
<path fill-rule="evenodd" clip-rule="evenodd" d="M27.4643 45.9378C27.4643 45.9378 27.0153 45.6748 27.4321 45.2837C27.8489 44.8991 28.3555 43.8856 28.3878 43.7507C28.42 43.6163 28.7597 43.3019 28.7597 43.7378C28.7597 44.1677 28.7147 45.2389 28.7597 45.4757C28.7597 45.4757 28.4006 45.5402 28.2657 45.7775C28.1378 46.0148 27.676 46.1498 27.4643 45.9378ZM26.7974 46.5534C26.8102 46.483 26.9001 46.4253 26.9705 46.4319C27.0347 46.4382 27.1052 46.5215 27.0923 46.5791C27.0667 46.6821 26.9834 46.8164 26.8807 46.8036C26.7974 46.7973 26.7717 46.6373 26.7974 46.5534ZM23.9241 52.1715C24.0394 52.1715 24.1358 52.2682 24.1358 52.3832C24.1358 52.4982 24.0394 52.5949 23.9241 52.5949C23.8086 52.5949 23.7187 52.4982 23.7187 52.3832C23.7187 52.2682 23.8089 52.1715 23.9241 52.1715ZM22.7762 51.2803C22.9046 51.2803 23.007 51.338 23.007 51.4147C23.007 51.4857 22.9046 51.5433 22.7762 51.5433C22.6413 51.5433 22.5389 51.4857 22.5389 51.4147C22.5389 51.338 22.6416 51.2803 22.7762 51.2803ZM24.2961 45.0977C24.2961 45.0977 24.9759 44.2576 25.1554 44.9953C25.3414 45.7261 24.9246 46.7203 24.7643 46.8293C24.6105 46.9323 24.2961 47.0857 24.2961 46.6182C24.2961 46.1432 24.2128 45.4118 24.2961 45.0977ZM23.7447 49.1571C23.7447 49.1571 24.1615 48.5543 24.4245 49.1057C24.6875 49.6575 24.9505 49.8115 24.9505 50.1578C24.9505 50.4976 25.1556 51.0747 24.7389 51.1003C24.3221 51.126 23.8731 51.5688 23.5844 51.5174C23.2957 51.4661 23.0327 50.9146 23.0327 50.9146C23.0327 50.9146 22.7183 50.7606 23.1673 50.2856C23.61 49.8118 23.1673 49.472 23.7447 49.1571ZM17.4274 45.1362C17.4274 45.1362 17.3375 45.8739 17.4274 46.1178C17.5173 46.368 17.0106 46.6886 16.9656 46.2459C16.9208 45.7972 17.1196 45.4118 17.4274 45.1362ZM15.5227 54.3781C15.6379 54.3781 15.7278 54.4485 15.7278 54.5316C15.7278 54.6089 15.6379 54.6793 15.5227 54.6793C15.4137 54.6793 15.3175 54.6089 15.3175 54.5316C15.3175 54.4483 15.4137 54.3781 15.5227 54.3781ZM14.8623 54.1151C14.8623 54.1151 14.5992 54.4868 14.4389 54.359C14.2786 54.2369 14.1183 53.9744 14.4198 53.7433C14.7213 53.5123 15.8307 51.8064 15.9206 51.6652C16.0105 51.5242 16.7673 51.3636 16.8377 51.9601C16.9082 52.5635 16.6774 53.0056 16.1129 53.0376C15.5483 53.0758 15.0226 53.1597 14.8623 54.1151ZM35.7885 37.3506C35.7757 37.2673 35.9043 37.1644 35.9748 37.1966C36.0969 37.2414 36.1739 37.3763 36.193 37.4981C36.1993 37.5563 36.0843 37.582 36.0261 37.5626C35.93 37.5235 35.8019 37.453 35.7885 37.3506ZM34.5382 38.601C34.4166 38.6138 34.4101 38.3123 34.4997 38.2227C34.5958 38.114 34.9099 38.043 34.929 38.1842C34.9484 38.3705 34.7307 38.5819 34.5382 38.601ZM34.1793 37.4083C34.07 37.3635 34.0572 37.139 34.1408 37.0557C34.2432 36.959 34.4357 36.998 34.5573 37.0557C34.6277 37.0876 34.666 37.222 34.6086 37.2739C34.4999 37.3763 34.3199 37.4722 34.1793 37.4083ZM38.7199 32.9444C38.4954 32.9252 38.4954 32.6557 38.7199 32.6622C39.1493 32.6751 39.6433 32.7267 40.0407 32.9252C40.3876 33.105 40.15 33.599 39.8935 33.3295C39.56 32.9834 39.1108 32.9892 38.7199 32.9444ZM42.593 36.735C42.593 36.735 42.9142 36.959 43.0806 36.959C43.2412 36.959 43.3436 37.3441 43.0806 37.3441C42.8113 37.3441 42.3497 37.1196 42.3497 36.9977C42.35 36.8759 42.3882 36.3499 42.593 36.735ZM41.3173 35.2148C41.3173 35.2148 41.0543 35.5617 41.0543 35.2148C41.0543 34.8751 41.1119 34.2018 41.394 34.2018C41.6827 34.2018 41.721 34.2657 41.9457 34.7085C42.164 35.1572 42.4718 35.619 42.8954 35.8239C43.3185 36.0293 42.5485 36.4335 42.4079 36.1707C42.2664 35.9077 41.7598 35.2596 41.6573 35.1572C41.5609 35.0548 41.3364 34.8942 41.3173 35.2148Z" fill="white"/>
</g>
<defs>
<clipPath id="clip0_1301_20163">
<rect width="62" height="62" fill="white"/>
</clipPath>
</defs>
</svg>
