<svg width="63" height="62" viewBox="0 0 63 62" fill="none" xmlns="http://www.w3.org/2000/svg">
<g id="26f3a4fc2aeca0693d44f6b26d27b65d_1650381646">
<path id="Vector" fill-rule="evenodd" clip-rule="evenodd" d="M51.7351 17.3963C53.6072 35.003 45.4263 46.0381 31.3026 51.6666C16.2429 45.3861 9.46588 33.7979 10.8404 17.303C24.4719 7.97899 38.1033 8.01012 51.7351 17.3963ZM31.2911 11.0409C41.3751 11.0409 49.5984 19.0207 49.5984 28.7989C49.5984 38.5771 41.3751 46.5517 31.2911 46.5517C21.207 46.5517 12.9775 38.5779 12.9775 28.7989C12.9775 19.0201 21.2068 11.0409 31.2911 11.0409ZM31.291 12.0298C40.8108 12.0298 48.5839 19.5613 48.5839 28.7983C48.5839 38.0296 40.8105 45.5666 31.291 45.5666C21.765 45.5666 13.9927 38.0296 13.9927 28.7983C13.9927 19.5614 21.7649 12.0298 31.291 12.0298ZM31.2911 12.4202C40.5885 12.4202 48.1757 19.7773 48.1757 28.7989C48.1757 37.8145 40.5886 45.1717 31.2911 45.1717C21.9872 45.1717 14.4001 37.8148 14.4001 28.7989C14.4001 19.7773 21.9872 12.4202 31.2911 12.4202ZM33.1991 22.7042L32.5988 15.8364C39.1066 16.4594 44.2738 21.6046 44.6877 27.972L41.9507 27.7391V30.3233L44.646 30.114C44.0154 36.173 39.0701 41.0211 32.8513 41.7254L33.1879 35.3061H29.6348L30.073 41.7604C26.9999 41.493 24.2266 40.2123 22.0958 38.2681V40.2585H20.8164V36.9293C19.1709 34.9383 18.1094 32.4763 17.8992 29.7876L20.8164 30.1483V27.6223L17.9114 27.6863C18.1046 25.5031 18.8643 23.4027 20.1198 21.5808H19.4717L21.404 17.5769L22.2503 19.1835C24.406 17.2741 27.1969 16.0403 30.27 15.8134L29.82 22.7042H33.1991ZM41.9508 22.7042H33.6076L33.0496 16.2842C38.9677 17.0698 43.6438 21.7323 44.244 27.5352L41.9508 27.3428V22.7042ZM22.0949 21.5807H23.5235L22.4428 19.5428C24.4357 17.7562 26.9987 16.5569 29.8381 16.2486L29.4118 22.7042H22.0949V21.5807ZM41.9508 35.3056V30.7189L44.1845 30.5446C43.3918 36.045 38.9256 40.4278 33.2779 41.2715L33.5958 35.3056H41.9508ZM20.8166 36.2831V30.5441L18.3561 30.2415C18.6148 32.4298 19.4634 34.5136 20.8166 36.2831ZM22.0952 35.3052V37.7207C24.0819 39.6472 26.7108 40.9569 29.6341 41.3172L29.226 35.3052H22.0952ZM41.4828 31.2428C41.2488 31.2546 41.1707 31.0042 40.9489 30.2068L39.8561 26.3015H39.7251L38.6383 30.3698L38.6342 30.3855C38.4875 30.9331 38.4199 31.1854 38.1586 31.2428V31.4293H39.1486V31.2428L39.1323 31.2409C38.9709 31.2232 38.7462 31.1986 38.7462 30.9228C38.7462 30.8063 38.8245 30.4981 38.9625 29.9617H40.0673L40.0813 30.0122C40.1527 30.2709 40.2895 30.7663 40.2895 30.9512C40.2895 31.1957 40.2049 31.2072 39.8993 31.2413V31.4281H41.4838V31.2412L41.4828 31.2428ZM38.0192 31.2428C37.7492 31.2138 37.557 31.1903 37.557 30.7134V27.123C37.557 26.628 37.7809 26.6112 38.0037 26.5944L38.0192 26.5933V26.4064H36.3088V26.593L36.3184 26.594C36.5377 26.617 36.7652 26.6408 36.7652 27.1227V30.7132C36.7652 31.1729 36.5728 31.2077 36.3088 31.2426V31.4291H38.0196L38.0192 31.2428ZM35.8884 30.2998C35.4864 30.9865 35.1201 31.2134 34.736 31.2134C34.5864 31.2134 34.1957 31.1027 33.9917 30.5675C33.8118 30.0901 33.7814 29.3802 33.7814 28.9376C33.7814 27.6807 33.974 26.5397 34.688 26.5397C35.2463 26.5397 35.6543 27.4127 35.8287 28.0588H35.9492V26.3179H35.8171C35.7692 26.5041 35.7272 26.6612 35.5948 26.6612C35.5509 26.6612 35.4765 26.6169 35.3793 26.5589C35.1972 26.4504 34.9356 26.2945 34.6464 26.2945C33.6201 26.2945 32.9179 27.453 32.9179 28.9661C32.9179 30.3514 33.5361 31.5677 34.6707 31.5677C35.3008 31.5677 35.6791 31.1022 36.0392 30.4853L35.8897 30.2993L35.8884 30.2998ZM29.226 31.429H30.3364V31.2424C29.976 31.1845 29.8741 31.0389 29.8741 30.5035V27.5361H29.8861L32.0529 31.5636H32.1911V27.1863C32.1911 26.8309 32.221 26.6621 32.5751 26.5925V26.4064H31.5246V26.593C31.921 26.6396 31.9749 26.8832 31.9749 27.3324V29.5852H31.9689L30.2762 26.4064H29.2439V26.593C29.3041 26.593 29.3817 26.6164 29.6582 27.1285V30.6499C29.6582 31.1395 29.5202 31.191 29.226 31.2433V31.429ZM28.9858 31.2424C28.7519 31.2542 28.6737 31.0039 28.4577 30.2066L27.3652 26.3012H27.2271L26.1408 30.3696C25.9965 30.9281 25.9246 31.1845 25.6607 31.2424V31.429H26.6572V31.2424L26.6431 31.2409C26.4761 31.2231 26.2551 31.1996 26.2551 30.9224C26.2551 30.806 26.333 30.4977 26.4711 29.9614H27.5697L27.5948 30.052C27.6696 30.319 27.7974 30.775 27.7974 30.9508C27.7974 31.1953 27.7075 31.2068 27.4016 31.2411V31.4276H28.9864V31.2408L28.9858 31.2424ZM25.4743 29.7469H25.3364C25.1084 30.5791 24.8313 31.196 24.0937 31.196C23.7697 31.196 23.6616 31.1376 23.6616 30.7828V27.2791C23.6616 26.6261 23.8092 26.616 24.1467 26.593L24.1538 26.5925V26.4064H22.4492V26.593L22.4553 26.5937C22.6691 26.6168 22.8693 26.6383 22.8693 27.1227V30.7132C22.8693 31.1614 22.7231 31.1897 22.4584 31.2408L22.4492 31.2426V31.4291H25.2763L25.4743 29.7469ZM20.8166 21.5811H20.6125C19.3916 23.2748 18.6185 25.2337 18.3615 27.2851L20.8166 27.2277V21.5811ZM39.039 29.6779L39.4955 27.8736L39.9877 29.6779H39.039ZM26.5423 29.6779L27.0046 27.8736L27.4967 29.6779H26.5423Z" fill="#333333"/>
</g>
</svg>
