<svg width="63" height="62" viewBox="0 0 63 62" fill="none" xmlns="http://www.w3.org/2000/svg">
<g id="Lexus">
<path id="Vector" fill-rule="evenodd" clip-rule="evenodd" d="M26.3897 28.5055C26.4067 28.165 26.4673 27.6622 27.1247 26.6192H27.1232C27.466 26.0757 30.4683 21.8688 31.5229 20.568C31.6857 20.3666 31.5058 20.1527 31.2701 20.1589C25.1103 20.2823 22.646 24.0034 22.6011 26.6957C22.6011 29.7172 24.8947 33.223 31.115 33.223C34.1779 33.223 36.4932 32.3344 37.8454 31.0852H39.4087C37.8625 32.7764 35.1936 34.0943 31.1181 34.0943C23.7766 34.0943 21.0704 30.1436 21.0704 26.7441C21.0704 23.6069 23.7534 19.375 31.0995 19.375C32.2622 19.3749 33.4216 19.5006 34.5578 19.7497C35.0633 19.8545 35.2324 20.1714 34.9765 20.5009L34.8461 20.6672C33.9613 21.7952 33.1119 22.878 32.2471 24.0331C31.3079 25.2911 30.4512 26.6092 29.682 27.9793C29.4898 28.3228 29.5657 28.9318 30.1007 28.9318H39.052C39.5188 28.2197 39.7034 27.4499 39.6894 26.7378C39.6894 24.08 38.4271 22.1796 35.3781 20.7289L35.8124 20.1058C39.6522 21.4426 41.1735 24.3954 41.1735 26.7425C41.1735 27.8386 40.8416 29.0615 40.1065 30.1904C39.8926 30.4762 39.7778 30.5917 39.3839 30.5917H30.1798C30.0452 30.5917 29.9084 30.5936 29.7703 30.5956C28.7655 30.6094 27.695 30.6243 26.9014 29.9172C26.3695 29.4315 26.3695 28.8366 26.3897 28.5055ZM17.1826 41.2992H25.6392L28.3283 39.6065L24.3923 36.7737V37.4874H18.3179C17.7627 37.4874 17.0369 38.2526 17.1144 38.6398H23.8713V39.9688H18.5505C17.9084 39.9688 17.2074 40.6356 17.1826 41.2992ZM48.9091 38.7649H54.8022V38.7632C55.9373 38.7632 56.8678 39.6268 56.8678 40.6761C56.8678 41.7303 56.0583 42.6047 54.8022 42.586L38.4923 42.625C35.6047 42.625 35.2387 41.6272 35.2387 40.1905V36.7801C35.0669 36.8819 34.894 36.9804 34.7212 37.0787C34.3853 37.2698 34.0503 37.4604 33.7267 37.6748L31.4222 39.1849L35.9103 42.5735H32.514L29.5302 40.4373L27.1776 41.8677C26.9257 42.0211 26.6897 42.1878 26.4535 42.3548C26.3363 42.4374 26.219 42.5204 26.0998 42.6016H8.76335C6.56896 42.6016 5.20115 41.6021 5.20115 40.1577V36.1383H7.48704V40.0078C7.48704 40.6512 8.08565 41.3118 9.01303 41.3118H14.1834C14.4284 40.5902 14.8937 39.9688 15.5854 39.4503H14.0097C13.9942 38.9975 14.3804 37.9856 15.5916 37.0268C16.2647 36.4942 17.1718 36.1851 18.3551 36.1851H27.3451L30.3211 38.3619L32.6054 36.9486C32.8622 36.7917 33.1102 36.6153 33.3583 36.4387C33.4879 36.3465 33.6174 36.2542 33.7484 36.1647H37.6021V40.0343C37.6021 40.6825 37.8409 41.3898 39.001 41.3898H43.2734V36.196H45.592V41.3757H53.4855C53.912 41.3757 54.2624 41.0651 54.2624 40.6761C54.2624 40.3327 53.9786 40.0406 53.6111 39.9891L46.4386 40.014C46.2866 40.014 46.1952 39.9312 46.2029 39.7955C46.2494 37.8576 47.8484 36.1913 49.8489 36.1913H56.173L56.1932 37.4422H50.2303C49.6054 37.4422 48.9866 38.0449 48.9091 38.7649Z" fill="#333333"/>
</g>
</svg>
