<svg width="62" height="62" viewBox="0 0 62 62" fill="none" xmlns="http://www.w3.org/2000/svg">
<g id="f61ebc6addd9dc8b8c020d4be98f06dd_1650382350">
<path id="Vector" fill-rule="evenodd" clip-rule="evenodd" d="M47.8947 15.3656C43.6782 11.2391 36.7678 10.3333 30.9598 10.3333C25.1518 10.3333 17.9934 11.2391 13.8354 15.7169L13.6459 15.9443C11.3564 18.7071 10.1807 22.225 10.3492 25.8091C10.3492 39.1943 22.0721 41.3333 30.9598 41.3333C39.8475 41.3333 51.6461 39.1977 51.6461 25.8091C51.8392 22.2223 50.662 18.696 48.3529 15.9443C48.1823 15.7663 48.0288 15.5725 47.8947 15.3656ZM17.5351 17.8801C20.236 13.9361 25.6375 12.8546 31.0356 12.8546C36.4336 12.8546 41.5975 13.7604 44.5395 17.6837L44.7289 17.9351C39.9233 20.4496 34.4632 20.6563 31.225 27.2214C27.3634 21.1591 21.9895 21.1074 17.2355 18.5896C17.3216 18.4174 17.4215 18.2486 17.5318 18.0867V17.8869L17.5351 17.8801ZM30.9598 38.5157C22.9919 38.5157 15.5647 36.2251 15.5647 25.7334C15.5592 24.999 15.6214 24.2657 15.7507 23.5427C15.7507 23.3911 15.7507 23.2431 15.8885 23.0914L23.9909 25.6059C27.298 26.8321 29.8954 29.2984 31.1458 32.4018C32.3516 29.2811 34.88 26.7598 38.1424 25.4303L46.2446 22.7126C46.2585 22.7814 46.2585 22.8504 46.2446 22.9158C46.3928 23.8906 46.4651 24.8723 46.4616 25.8574C46.5168 36.4249 38.9244 38.5674 30.9598 38.5157Z" fill="#333333"/>
<path id="Vector_2" fill-rule="evenodd" clip-rule="evenodd" d="M31.6873 46.9362L34.7312 44.5691L29.2286 44.5713V46.9362H31.6873Z" fill="#333333"/>
<path id="Vector_3" fill-rule="evenodd" clip-rule="evenodd" d="M49.4606 44.5691H44.6554V46.5106H48.5454C49.6625 46.5106 49.4606 47.2248 49.4606 47.2248H46.3583C45.9495 47.1772 45.5353 47.2341 45.1542 47.3898C44.7733 47.5457 44.438 47.7957 44.1794 48.1163V47.732C44.1794 44.5134 41.69 44.5691 41.69 44.5691H35.1735L28.5377 49.7032V46.5661C28.5378 46.2928 28.4802 46.0226 28.3687 45.7732C28.2571 45.5238 28.0943 45.3007 27.8906 45.1188C27.6835 44.9337 27.4412 44.7927 27.1781 44.7042C26.915 44.6159 26.6366 44.5471 26.3601 44.5696H21.5181V46.5106H25.3621C26.4781 46.5106 26.3317 47.2248 26.3317 47.2248H23.2482C22.8514 47.1663 22.4462 47.2072 22.0689 47.344C21.6917 47.4808 21.3543 47.7093 21.0871 48.0087V47.2519C21.1296 46.8998 21.0921 46.5424 20.9777 46.2067C20.8631 45.871 20.6745 45.5654 20.4258 45.3127C20.1722 45.0559 19.8661 44.857 19.5284 44.7299C19.1909 44.6027 18.8298 44.5502 18.4701 44.5761H10.3333V51.666H12.7956V46.708H14.5257V51.666H16.877V46.708H17.6741C18.8173 46.708 18.6708 47.5996 18.6708 47.5996V51.666H21.0871V50.7745C21.498 51.3279 22.1535 51.6589 22.8537 51.666H29.5993L36.2812 46.4503V51.666H41.5069C42.6324 51.692 43.6244 50.9223 43.8866 49.8558C44.0554 50.8702 44.9459 51.6495 46.0004 51.666H51.6667V46.5661C51.6686 46.2899 51.6114 46.0164 51.4987 45.7643C51.386 45.5121 51.2207 45.2871 51.0136 45.1046C50.8031 44.9188 50.5564 44.7783 50.2892 44.6923C50.022 44.6062 49.7399 44.5411 49.4606 44.5691ZM26.3045 49.7315H23.7147C23.6473 49.7365 23.5798 49.7278 23.516 49.7055C23.4521 49.6835 23.3936 49.6484 23.3439 49.6027C23.2949 49.5579 23.2562 49.5031 23.2301 49.4422C23.2041 49.3812 23.1914 49.3155 23.1926 49.2491C23.1926 48.821 23.6048 48.795 23.7513 48.795H26.3045V49.7315ZM40.8385 49.5885H38.6336V46.5921H40.8656C40.8656 46.5921 41.9191 46.682 41.9191 47.9921C41.9191 49.3034 41.4243 49.5885 40.8385 49.5885ZM49.378 49.7303H46.7976C46.7297 49.7369 46.6611 49.7292 46.5962 49.7079C46.5314 49.6864 46.4716 49.6518 46.4208 49.6062C46.3711 49.5613 46.3316 49.5061 46.3051 49.4445C46.2786 49.3829 46.2657 49.3162 46.2674 49.2491C46.2674 48.821 46.7055 48.795 46.8518 48.795H49.3791V49.7315L49.378 49.7303Z" fill="#333333"/>
<path id="Vector_4" fill-rule="evenodd" clip-rule="evenodd" d="M30.1472 51.666H36.2812V49.2739H33.1859L30.1472 51.666Z" fill="#333333"/>
</g>
</svg>
