<svg width="62" height="62" viewBox="0 0 62 62" fill="none" xmlns="http://www.w3.org/2000/svg">
<g id="4f42229a1029baaabfefd11fbb1821fd_1650382309">
<path id="Vector" fill-rule="evenodd" clip-rule="evenodd" d="M30.9331 17.2531C30.9331 16.9793 30.8521 16.9712 30.8309 17.2416L29.9716 30.1581L30.8261 30.6614L30.9331 17.2515V17.2531ZM26.9344 33.1749L30.531 31.1599L29.7138 30.7008L26.8339 33.0881C26.6716 33.2241 26.7446 33.2814 26.9344 33.1749Z" fill="#333333"/>
<path id="Vector_2" fill-rule="evenodd" clip-rule="evenodd" d="M50.787 27.4941C50.7374 27.422 50.6996 27.3422 50.6752 27.258C49.1639 22.5491 47.878 20.6981 45.397 17.9452C42.1312 14.3201 36.7947 11.5214 31.1226 11.5149C20.2744 11.5149 11.4726 20.416 11.4726 31.383C11.4726 34.6458 12.1747 37.4593 12.7406 38.8742C13.4054 40.5138 14.5502 42.7239 14.6071 42.824C14.6589 42.9387 14.6638 42.9879 14.6687 43.0863C14.5939 43.0261 14.5311 42.9521 14.4838 42.8682C14.1546 42.3862 12.8071 39.9318 12.3855 38.8595C11.4726 36.5248 10.798 33.9802 10.798 31.3076C10.798 20.0029 19.8479 10.8328 31.035 10.8328C41.0286 10.8328 49.0861 17.8501 50.787 27.2482C50.792 27.3366 50.8195 27.4121 50.787 27.4941ZM14.0477 40.9106C13.3666 39.4777 12.6449 37.4593 12.345 35.8607C12.3401 35.7689 12.3239 35.6935 12.3563 35.6099C12.405 35.6738 12.4293 35.7459 12.4698 35.8558C12.94 37.3216 13.3471 38.6382 14.4156 40.6187L14.0477 40.9106ZM14.4221 40.7286L28.9026 30.2026L27.6638 29.491L14.7659 40.3335C13.3179 37.6773 12.3109 34.2703 12.3109 31.029C12.3009 28.5884 12.767 26.1697 13.6825 23.9115C14.598 21.6534 15.945 19.5999 17.6464 17.8687C19.3477 16.1375 21.3701 14.7625 23.5976 13.8224C25.8252 12.8824 28.2141 12.3958 30.628 12.3904L27.9881 28.991L29.2205 29.7124L30.8792 12.3921C30.9118 12.174 31.0576 12.174 31.0576 12.3921L31.155 30.6601L34.0916 28.9156L31.2798 12.3888C41.3382 12.6626 49.6731 20.862 49.6731 30.9977C49.6731 34.2671 48.6953 37.679 47.2148 40.3515L34.3299 29.4976L33.0894 30.2158L46.9375 40.3711C47.2715 40.6106 47.1693 40.7187 46.8143 40.5187L31.2604 31.4503V34.8491L46.8516 40.8712C43.5842 46.2588 37.6898 49.7052 30.9442 49.7052C24.1823 49.7052 18.382 46.2621 15.1146 40.8647L30.7317 34.8393V31.4405L14.5584 40.8843C14.1741 41.0975 14.0719 40.981 14.4221 40.7302V40.7286ZM30.9944 50.8807C23.2304 50.8807 17.1399 46.7982 14.2373 41.1909L14.6833 41.0253C15.4372 42.2682 16.4215 43.3617 17.748 44.839C19.376 46.6524 24.5342 50.1495 30.988 50.1495C34.2469 50.1619 37.455 49.3318 40.3072 47.7376C43.1595 46.1436 45.5613 43.8386 47.2846 41.0417C47.5439 40.968 47.6267 40.8532 47.5407 40.6236C49.091 37.861 50.145 34.39 50.145 30.9962C50.145 28.8598 49.8369 27.1218 49.3423 25.5693C49.0384 24.612 48.6678 23.6779 48.2332 22.7737C48.1846 22.6934 48.1598 22.6006 48.1617 22.5065C48.2445 22.5754 48.345 22.7328 48.345 22.7328C48.6449 23.287 49.3179 24.6429 49.6326 25.5249C50.0574 26.7054 50.8179 28.3368 50.8179 30.9962C50.8179 41.8731 42.0129 50.8873 30.9944 50.8807ZM30.9944 10.3328C19.5868 10.3279 10.3359 19.5815 10.3359 30.9962C10.3342 42.4075 19.5787 51.6644 30.9944 51.6678C42.4102 51.6678 51.6643 42.4125 51.6643 30.9962C51.6676 19.5881 42.4182 10.3328 30.9944 10.3328Z" fill="#333333"/>
<path id="Vector_3" fill-rule="evenodd" clip-rule="evenodd" d="M42.9896 37.8787L32.336 30.6614L31.4604 31.1696L42.9377 37.959C43.1421 38.0805 43.1858 38.0082 42.9896 37.8787Z" fill="#333333"/>
</g>
</svg>
