<svg width="63" height="62" viewBox="0 0 63 62" fill="none" xmlns="http://www.w3.org/2000/svg">
<g id="e46990226505c1ee07afde277c7b0dbf_1650382197">
<path id="Vector" fill-rule="evenodd" clip-rule="evenodd" d="M40.1418 29.2143C39.373 29.2143 38.153 29.016 38.1865 30.1896H41.3616C41.5957 29.3631 40.71 29.1812 40.1418 29.2143Z" fill="#333333"/>
<path id="Vector_2" d="M54.3134 25.7763L52.1909 25.4622C50.799 21.0193 47.9875 17.1432 44.1786 14.4158C40.3696 11.6883 35.7689 10.257 31.0674 10.3366C26.4087 10.2551 21.847 11.6572 18.0554 14.3361C14.264 17.015 11.4436 20.8287 10.0106 25.2143L8.33948 25.5448C6.80199 25.8259 6.66831 26.9004 6.66831 26.9666C6.4343 29.4794 6.4343 32.0082 6.66831 34.521C6.65657 34.7275 6.68847 34.9341 6.76197 35.1277C6.83547 35.3213 6.94896 35.4976 7.0952 35.6454C7.24144 35.7932 7.41723 35.9092 7.61133 35.9859C7.80541 36.0627 8.01356 36.0986 8.22249 36.0914C8.74556 36.2122 9.30375 36.3112 9.89366 36.389C11.261 40.8679 14.0685 44.7829 17.8901 47.5397C21.7116 50.2965 26.3382 51.7443 31.0674 51.6634C35.7569 51.739 40.3452 50.3115 44.1466 47.5941C47.9481 44.8767 50.7583 41.0155 52.1575 36.5874L54.2298 36.3063C55.4665 36.1906 55.4831 34.7359 55.4831 34.6533C55.6071 32.2083 55.6071 29.7586 55.4831 27.3136C55.5166 25.8094 54.3134 25.7763 54.3134 25.7763ZM31.0674 15.3785C34.2594 15.3418 37.3944 16.2158 40.0973 17.8956C42.8003 19.5754 44.9567 21.99 46.3084 24.8505C36.208 24.1346 26.0723 24.0408 15.9601 24.5695C17.3525 21.7896 19.5078 19.4533 22.1793 17.828C24.851 16.2027 27.931 15.3538 31.0674 15.3785ZM43.0162 31.3636V33.5622C42.5043 33.5953 41.9908 33.5953 41.4787 33.5622C41.3952 32.8183 41.4787 32.1737 41.3952 31.4132C40.3265 31.3554 39.2553 31.3554 38.1865 31.4132C38.1451 32.0132 38.1451 32.6151 38.1865 33.2151C38.1865 33.4631 38.0863 33.6118 37.8189 33.5953C37.5531 33.5541 37.2825 33.5541 37.0167 33.5953C36.9611 33.6075 36.9035 33.6074 36.848 33.595C36.7925 33.5825 36.7404 33.5579 36.6956 33.5232C36.6509 33.4883 36.6145 33.4441 36.589 33.3938C36.5637 33.3433 36.5499 33.288 36.5488 33.2317C36.452 31.8332 36.4631 30.4295 36.5822 29.0328C36.6077 28.8723 36.671 28.72 36.7667 28.5879C36.8625 28.4558 36.9881 28.3479 37.1337 28.2724C37.4237 28.1275 37.7447 28.0538 38.0695 28.0575H40.5931C41.4453 28.0575 42.6318 28.0575 42.916 28.9006C43.0497 29.7156 43.0831 30.5421 43.0162 31.3636ZM30.9838 29.7106C32.4969 30.2199 33.9809 30.8104 35.4291 31.4794C35.7466 31.6447 35.7466 32.1241 35.7634 32.4382C35.7582 32.6226 35.7103 32.8036 35.6234 32.967C35.5366 33.1303 35.4128 33.2717 35.262 33.3805C35.0296 33.5308 34.7533 33.6006 34.4765 33.5787H28.9617C28.9278 33.1883 28.9278 32.7956 28.9617 32.4051H33.4238C33.7245 32.4051 33.7078 32.0249 33.4238 31.9422C32.2038 31.5455 31.151 31.0991 29.9477 30.7024C29.7344 30.6373 29.5413 30.5198 29.3864 30.3608C29.2314 30.2018 29.1198 30.0065 29.062 29.7932C28.97 29.5423 28.97 29.2673 29.062 29.0163C29.5466 27.6112 31.1676 28.1071 32.4043 28.041C33.6409 27.9748 34.744 28.041 35.8636 28.041C35.8971 28.4312 35.8971 28.8245 35.8636 29.2147H31.1342C30.8 29.2312 30.683 29.5948 30.9838 29.7271V29.7106ZM21.3579 32.4217H25.8367C26.1374 32.4217 26.104 32.0414 25.8367 31.9587C24.6167 31.562 23.5638 31.1156 22.3773 30.719C22.1709 30.6509 21.9858 30.5316 21.8395 30.3723C21.6931 30.2132 21.5906 30.0194 21.5417 29.8098C21.4498 29.5588 21.4498 29.2838 21.5417 29.0328C22.0264 27.6278 23.6474 28.1236 24.8841 28.0575C26.1207 27.9914 27.2237 28.0575 28.3434 28.0575C28.3767 28.4543 28.3767 28.851 28.3434 29.2478H23.5973C23.4787 29.2501 23.3633 29.2845 23.263 29.347C23.0792 29.4626 23.263 29.7271 23.4302 29.7767C24.5331 30.0412 25.519 30.6528 26.622 30.8843C27.7251 31.1156 28.9283 32.3555 27.6748 33.463C27.5411 33.5622 27.5411 33.463 27.4075 33.463H21.3913C21.3245 33.2317 21.3913 32.8183 21.3579 32.4217ZM20.6226 33.5622H18.9514V28.041C19.5079 28.0058 20.066 28.0058 20.6226 28.041V33.5622ZM14.857 32.7853C14.3891 31.7935 13.8877 30.9339 13.4365 29.9586C13.3195 29.7271 12.9352 29.694 12.9185 29.9586V33.2647C12.9185 33.4961 12.9185 33.6779 12.5675 33.6449C12.3572 33.6118 12.1429 33.6118 11.9325 33.6449C11.615 33.6449 11.5147 33.4795 11.5147 33.2317V29.347C11.4939 29.1682 11.518 28.987 11.5851 28.8197C11.6522 28.6524 11.76 28.5042 11.8991 28.3882C12.1569 28.2106 12.4555 28.0993 12.7677 28.0647C13.0799 28.0301 13.396 28.0731 13.6872 28.1898C14.0715 28.3386 14.3723 28.636 14.5228 29.0163C14.9907 30.0082 15.4921 30.8347 16.0102 31.8926C16.1772 32.2563 16.662 32.1075 16.6452 31.6943C16.5616 30.4214 16.6452 29.3304 16.6452 28.074H18.0489V32.4382C18.0542 32.592 18.0239 32.745 17.9601 32.8854C17.8964 33.0258 17.8011 33.1499 17.6813 33.2482C17.4677 33.4081 17.2234 33.5233 16.9634 33.5869C16.7033 33.6504 16.4328 33.6607 16.1685 33.6175C15.9043 33.5741 15.6516 33.478 15.4262 33.335C15.2007 33.1919 15.0071 33.0048 14.857 32.7853ZM31.0674 46.5719C27.869 46.6088 24.7278 45.7315 22.0212 44.0454C19.3147 42.3592 17.1577 39.9361 15.8096 37.0667C22.9956 37.5957 31.2679 37.6287 31.2679 37.6287C37.1003 37.7279 42.3143 37.4635 46.3084 37.1329C44.9518 39.9872 42.7933 42.395 40.0907 44.0687C37.3882 45.7425 34.2557 46.6114 31.0674 46.5719ZM50.2357 33.0994C50.0419 33.2804 49.8126 33.4201 49.5621 33.5101C49.3117 33.6003 49.0452 33.6388 48.7791 33.6233C48.513 33.6078 48.253 33.5387 48.015 33.4201C47.7768 33.3017 47.5657 33.1362 47.3947 32.9341C46.7931 31.9753 46.3585 30.9339 45.8071 29.9751C45.8071 29.8594 45.64 29.694 45.5063 29.7271C45.4336 29.7635 45.3739 29.8211 45.335 29.8919C45.2963 29.9628 45.2803 30.0437 45.289 30.1239V33.5622H43.9019V30.256C43.9019 29.694 43.7348 29.0328 44.1025 28.6031C44.3426 28.36 44.6475 28.1892 44.9816 28.1102C45.3158 28.0313 45.6657 28.0474 45.9909 28.1567C46.4056 28.3094 46.7422 28.6185 46.9267 29.0163C47.4114 30.0247 47.9629 30.9835 48.4977 32.0083C48.5315 32.057 48.5799 32.094 48.6363 32.1138C48.6924 32.1337 48.7537 32.1355 48.811 32.1191C48.8684 32.1026 48.919 32.0686 48.9558 32.0221C48.9925 31.9755 49.0136 31.9187 49.0158 31.8595V28.0906C49.4836 28.0658 49.9516 28.0658 50.4195 28.0906V32.2894C50.4556 32.5723 50.3905 32.8589 50.2357 33.0994Z" fill="#333333"/>
</g>
</svg>
