<svg width="63" height="62" viewBox="0 0 63 62" fill="none" xmlns="http://www.w3.org/2000/svg">
<g id="Peugeot">
<path id="Vector" fill-rule="evenodd" clip-rule="evenodd" d="M36.4764 21.2074L37.0707 21.502C37.227 21.0989 37.4772 20.37 37.7118 19.6567C37.5327 19.266 37.371 18.8675 37.227 18.4627C37.1176 18.8193 36.9924 19.2071 36.883 19.5792C36.7735 19.9514 36.5703 20.5251 36.5389 20.6956C36.5149 20.7845 36.4621 20.8629 36.3886 20.9189C36.3152 20.975 36.225 21.0055 36.1324 21.0057C36.014 21.0007 35.8974 20.9745 35.7883 20.9282C35.6946 21.3314 35.6007 21.6105 35.5069 21.9206C35.4131 22.2308 35.3505 22.4324 35.2567 22.7735C35.6946 23.4248 36.3983 24.4793 36.8205 25.0994L35.8196 23.6419C36.1481 22.4789 36.2887 22.2463 36.4764 21.2074ZM21.8396 34.8841C22.1085 34.9523 22.3713 35.0453 22.6215 35.1632C22.2882 34.8691 21.9144 34.6237 21.5113 34.4343L21.8396 34.8841ZM34.3809 30.9144C34.4325 30.938 34.48 30.9694 34.5217 31.0074L34.3809 30.9144ZM24.9828 23.8745H27.4222L26.9218 23.2853H24.4824C24.3301 23.6025 24.0911 23.8709 23.7925 24.0601C23.494 24.2492 23.1478 24.3515 22.7935 24.3552H22.9343C23.0593 24.4948 23.3408 24.9289 23.3408 24.9289C23.6946 24.9644 24.0501 24.8794 24.3486 24.6878C24.6471 24.4961 24.8708 24.2092 24.9828 23.8745ZM22.215 23.7349C21.9647 23.7349 21.6676 23.8745 21.5738 24.1225L21.4486 24.4637C21.6004 24.6281 21.7802 24.7645 21.9804 24.8669C22.0587 24.7358 22.1651 24.6234 22.2921 24.5377C22.4192 24.4519 22.5636 24.3949 22.7154 24.3707H22.2306V23.7349H22.215ZM39.6039 18.2612C39.5083 18.0955 39.4348 17.9183 39.385 17.7339C39.2052 16.9126 39.3448 16.0541 39.776 15.3304C39.6992 15.3092 39.6181 15.3092 39.5414 15.3304C39.4151 15.3458 39.2946 15.3922 39.1908 15.4653C39.0871 15.5384 39.0034 15.6359 38.9471 15.7492C38.65 16.2763 38.6657 16.6951 38.9471 17.8734C39.1817 18.6488 39.7291 19.9979 40.0574 20.8197V21.0057C40.4178 21.8214 40.6853 22.6744 40.8549 23.5489C40.9298 23.9674 40.917 24.3968 40.8174 24.8102C40.718 25.2237 40.5338 25.6125 40.2764 25.9523C39.6752 26.5695 38.8923 26.982 38.0402 27.1308C38.2889 27.6348 38.5094 28.1527 38.6969 28.6815C38.7332 28.803 38.7933 28.9163 38.8737 29.0148C38.9542 29.1133 39.0537 29.1949 39.166 29.2552C38.9785 28.79 38.7596 28.2318 38.5719 27.8131C39.5476 27.6731 40.4465 27.2083 41.1209 26.4951C41.5837 25.9412 41.8379 25.245 41.8402 24.5258C41.5165 22.5423 40.8667 20.6251 39.9168 18.8503C39.8229 18.7263 39.7291 18.5092 39.6039 18.2612ZM23.6223 19.1295L23.1219 18.4627C22.8777 18.4898 22.6312 18.4898 22.3869 18.4627C22.0487 18.4911 21.7086 18.4911 21.3705 18.4627L21.7301 18.959C22.3324 19.19 22.9879 19.2491 23.6223 19.1295ZM29.6897 14.9118C29.8345 14.9367 29.9827 14.9367 30.1276 14.9118C29.9649 14.7591 29.7494 14.674 29.5256 14.674C29.3016 14.674 29.0861 14.7591 28.9235 14.9118H29.6897ZM41.324 36.7758C41.543 36.7758 41.6525 36.4812 41.59 36.2021C41.4234 35.7713 41.2824 35.3312 41.1677 34.8841V30.9764C40.9396 30.7068 40.7306 30.4219 40.5422 30.1236V34.0467C40.5406 34.3475 40.6203 34.6421 40.7768 34.8995C40.8452 35.0259 40.881 35.1671 40.881 35.3104C40.881 35.4538 40.8452 35.595 40.7768 35.7213C40.7371 35.7992 40.6769 35.8647 40.6025 35.9112C40.5281 35.9576 40.4425 35.9831 40.3545 35.9849H40.2764L39.6978 35.8764C39.2286 35.7837 38.7528 35.7266 38.2748 35.7058C37.6181 35.7279 36.9736 35.8864 36.3826 36.1711L36.2106 36.2486L36.0542 36.1401C35.5161 35.7828 34.909 35.54 34.2715 35.4268L34.7563 36.0781C35.596 36.1135 36.4067 36.394 37.0863 36.8843C38.4328 36.3116 39.9496 36.2727 41.324 36.7758ZM20.6668 17.7184L20.917 17.5168C20.8466 17.4267 20.7567 17.3533 20.6537 17.3024C20.5509 17.2514 20.4378 17.224 20.3228 17.2222H20.2133L20.5574 17.7184H20.6668ZM43.0286 20.9282C43.3414 20.6956 42.5908 19.5017 42.6064 19.2536C42.6127 19.011 42.6548 18.7706 42.7314 18.5403C42.8097 18.2767 42.9347 17.8889 43.0129 17.5013C43.062 17.0699 43.0192 16.6329 42.8872 16.219C42.7552 15.8048 42.537 15.4229 42.2467 15.0978C42.4108 15.5444 42.4641 16.022 42.4031 16.4934C42.3492 16.8091 42.2708 17.1201 42.1685 17.4238C42.1618 17.4857 42.1618 17.5481 42.1685 17.6099C42.1014 17.7957 42.0542 17.988 42.0277 18.1836C42.0842 18.3585 42.1521 18.5294 42.231 18.6953C42.4812 19.2381 42.7471 19.7964 42.3249 20.122C42.238 20.1465 42.1459 20.1465 42.059 20.122H41.7932C41.9731 20.2661 42.1606 20.401 42.3562 20.5251C42.3562 20.5251 42.9035 20.9282 43.0286 20.9282ZM37.1645 15.0978C37.0416 14.8632 36.906 14.6354 36.7579 14.4155C36.883 14.6792 37.0081 14.9273 37.1176 15.1754L37.1645 15.0978Z" fill="#333333"/>
<path id="Vector_2" fill-rule="evenodd" clip-rule="evenodd" d="M32.9578 29.9074C32.9578 29.9074 34.0057 30.6664 34.5217 31.0075C35.1707 31.4572 35.8507 31.8611 36.5544 32.2178C36.6647 32.1724 36.7803 32.1412 36.8985 32.1248C36.9034 31.9826 36.8652 31.8422 36.789 31.7215C36.7316 31.6496 36.6576 31.5922 36.5733 31.5545C36.4889 31.5168 36.3967 31.4996 36.3042 31.5045H35.5068C34.7004 31.053 33.9175 30.5613 33.1611 30.0314L32.4886 29.5351L32.129 29.2715C30.5588 30.64 29.1096 32.1392 27.7974 33.7529C27.7259 33.895 27.6885 34.0516 27.6885 34.2103C27.6885 34.3692 27.7259 34.5257 27.7974 34.6678C27.8636 34.8003 27.8981 34.9463 27.8981 35.0942C27.8981 35.2421 27.8636 35.388 27.7974 35.5206C27.754 35.5894 27.6942 35.6466 27.6233 35.6872C27.5524 35.7276 27.4726 35.7504 27.3908 35.7532H27.2344C26.4114 35.4812 25.5526 35.3297 24.6856 35.3036C24.2353 35.2766 23.7862 35.3732 23.3876 35.5827C23.6425 35.7733 23.8677 35.9967 24.06 36.2495C25.092 35.5827 27.3908 36.2495 28.2353 36.4665C28.4855 36.5596 28.6731 36.4665 28.6574 36.0633C28.6418 35.6602 28.2666 35.1794 28.4699 34.5127C28.7357 33.5358 31.4722 31.3029 32.9578 29.9074Z" fill="#333333"/>
<path id="Vector_3" fill-rule="evenodd" clip-rule="evenodd" d="M19.8379 16.8662C19.9838 16.8553 20.1301 16.8553 20.2758 16.8662C20.5079 16.877 20.7331 16.9487 20.9281 17.0742C21.1231 17.1994 21.2812 17.3738 21.3861 17.5795L21.1672 17.7501L20.8544 17.9981C21.0577 18.0912 21.2735 18.1486 21.4955 18.1687C21.777 18.1842 22.0584 18.1842 22.34 18.1687C22.6335 18.1843 22.927 18.1368 23.2 18.0291L23.9976 19.0681C24.4041 19.6062 24.8373 20.124 25.2955 20.6187C24.7203 20.7426 24.1326 20.7998 23.5441 20.7892L21.3235 20.9289C21.0821 20.9433 20.8497 21.0254 20.6532 21.1652C20.4568 21.3053 20.3042 21.4975 20.2133 21.7196C20.0503 22.188 19.976 22.6822 19.9944 23.1773L20.3071 23.0688C20.3071 23.1928 20.4322 23.2858 20.4791 23.3634C20.7137 23.7665 20.8075 23.906 21.2297 24.0612C21.4643 23.4719 22.2305 23.4099 22.4963 23.4099H22.5902V24.0302C24.1539 24.0302 24.1539 22.9601 24.1539 22.9601H27.0469L27.8445 23.906L28.8765 25.1621C27.4111 26.8332 26.1754 28.6895 25.2017 30.6824C25.3227 30.8042 25.4071 30.9574 25.4448 31.1243C25.4827 31.2913 25.4724 31.4654 25.4155 31.6268C25.3584 31.7883 25.2569 31.9308 25.1224 32.038C24.9878 32.1451 24.8257 32.2126 24.6543 32.233H24.5605C24.0601 32.233 23.5129 31.8764 22.8873 31.8764H22.5432C21.5424 32.0934 21.7457 32.8998 20.9795 33.9387L21.4955 34.1093C22.1288 34.3621 22.6919 34.7606 23.1375 35.2723C23.591 35.0242 24.1055 34.9047 24.623 34.9312C25.5275 34.955 26.4234 35.1118 27.2814 35.3963C27.4378 35.3963 27.5004 35.0862 27.3753 34.8226C27.287 34.6329 27.2413 34.4267 27.2413 34.2178C27.2413 34.0091 27.287 33.8027 27.3753 33.613C28.7999 31.8875 30.3693 30.2847 32.0665 28.8216L33.2863 29.7055C34.2715 30.4188 35.585 31.2561 35.585 31.2561H36.5546L36.711 31.3336L36.8204 31.4111C36.9222 31.5066 37.0026 31.6222 37.0565 31.7505C37.1104 31.8786 37.1365 32.0167 37.1331 32.1555C37.1504 32.2373 37.1504 32.3218 37.1331 32.4035C37.1008 32.4809 37.0588 32.5539 37.0081 32.6207L36.8516 32.7448H36.6483C36.55 32.7607 36.4497 32.7607 36.3512 32.7448C35.8329 32.6021 35.2808 32.6403 34.7876 32.8533C34.1307 33.2099 34.4122 34.4039 34.0212 34.9312C34.2699 34.9312 34.517 34.9622 34.7563 35.0242C35.341 35.1714 35.8977 35.418 36.3981 35.7529C37.6916 35.1623 39.165 35.0901 40.5109 35.5514C40.636 35.5514 40.7141 35.2102 40.5109 34.9777C40.3267 34.6562 40.2297 34.2928 40.2294 33.9232V29.752C39.935 29.8084 39.6325 29.8084 39.3381 29.752C39.1168 29.7087 38.9115 29.6069 38.7438 29.4574L38.5875 29.2869C38.4989 29.1582 38.4303 29.017 38.3842 28.8681C38.2278 28.403 37.8055 27.4881 37.5241 26.8988C38.2659 26.834 38.9802 26.589 39.6039 26.1856C39.8257 26.0437 40.0214 25.8655 40.1825 25.6583C40.3202 25.5015 40.4311 25.3234 40.5109 25.1311C40.7315 24.6454 40.8022 24.1059 40.7141 23.5804C40.5667 22.7094 40.3093 21.8602 39.9479 21.0529C39.6352 20.2311 38.994 18.8045 38.7438 17.9516C38.5852 17.4938 38.4751 17.0209 38.4155 16.5406V16.2769C38.4518 16.0036 38.542 15.7401 38.6813 15.5015C38.7699 15.3334 38.9022 15.1917 39.0643 15.0908C39.2264 14.99 39.4126 14.9337 39.6039 14.9279C39.7224 14.933 39.8389 14.9592 39.9479 15.0054C40.3233 15.1914 40.2294 15.3 40.1981 15.362C40.0723 15.5573 39.9675 15.7653 39.8854 15.9823C39.6653 16.5074 39.6161 17.0873 39.7446 17.6415C39.9292 18.1718 40.2403 18.6493 40.6516 19.0371C40.8377 19.2123 41.0363 19.372 41.2459 19.5177C41.2459 19.5177 41.9026 19.9365 42.0277 19.8279C42.1528 19.7194 41.543 18.5098 41.5742 18.1532C41.5983 17.9304 41.6508 17.7116 41.7307 17.502C41.8563 17.1542 41.9506 16.7962 42.0121 16.4319C42.0612 16.0747 42.029 15.7111 41.9182 15.3676C41.8073 15.0241 41.6202 14.7098 41.3709 14.4472C41.0556 14.1091 40.6283 13.8945 40.1668 13.8424C39.6818 13.75 39.18 13.8059 38.7277 14.0024C38.2753 14.199 37.8938 14.5271 37.6336 14.9434C37.5178 15.121 37.4282 15.3143 37.3677 15.517C37.2668 15.79 37.219 16.0794 37.227 16.3699C36.8031 15.2908 36.2796 14.2525 35.6632 13.2686C35.5008 13.0547 35.3232 12.8526 35.1315 12.6639C35.0007 12.5087 34.8479 12.3729 34.678 12.2608C33.8065 11.9928 32.9185 11.7804 32.0196 11.625C31.0408 11.8867 30.084 12.2237 29.158 12.6329L28.8609 12.943C28.2307 13.0454 27.6099 13.1911 27 13.3773C26.9148 13.4798 26.8683 13.6087 26.8683 13.7417C26.8683 13.8746 26.9148 14.0033 27 14.106C27 14.106 27.2189 14.8348 27.5629 14.8348H28.5011C28.6108 14.6621 28.7632 14.52 28.9438 14.4224C29.1245 14.3246 29.3274 14.2745 29.5333 14.2765C29.7772 14.2733 30.0158 14.3465 30.2152 14.4858C30.4145 14.625 30.5645 14.8232 30.6435 15.0519H30.5028C30.2495 15.1759 29.9712 15.2381 29.6896 15.2381H28.9703C28.624 15.2344 28.2798 15.2922 27.9539 15.4086C27.8132 15.4086 27.7349 15.5171 27.7349 15.5482C27.7349 15.5792 28.7045 15.7807 28.9546 15.7962H30.5185C30.4702 15.8614 30.418 15.9235 30.3621 15.9823C30.0615 16.2114 29.6935 16.3367 29.3144 16.3389H27.8288C27.8991 16.6398 28.0258 16.9235 28.2041 17.1763H28.814C29.0954 17.1763 29.1267 17.2693 29.0798 17.3933C29.0846 17.4605 29.0846 17.5279 29.0798 17.595C29.0798 17.7035 29.0015 17.8121 28.939 17.9361C28.7822 18.3803 28.5256 18.7833 28.1884 19.1146C26.6247 17.8121 24.6543 16.1839 23.2313 15.1449C22.6454 14.892 22.0088 14.7754 21.3705 14.8038C20.9891 14.7932 20.6085 14.8456 20.2446 14.9589C20.0316 15.049 19.8554 15.2073 19.7442 15.4086L20.1664 15.5327C19.9458 15.6674 19.7876 15.883 19.7261 16.1325C19.6647 16.3822 19.7049 16.6457 19.8379 16.8662ZM36.6171 25.4567C36.1323 24.7744 35.288 23.5339 34.8501 22.8671C35.1628 21.7661 35.3036 21.5026 35.5538 20.4481C35.7492 20.5645 35.9604 20.6528 36.1792 20.7117C36.2887 20.2466 37.055 18.0602 37.1957 17.3468L37.4616 18.1222C37.5866 18.5098 37.743 18.8665 37.8838 19.2231L38.5561 20.7737C38.9116 21.5684 39.1739 22.4009 39.3381 23.2548C39.4835 23.7758 39.4162 24.3325 39.1504 24.8054C38.9705 25.0343 38.7406 25.2199 38.478 25.3482L38.2278 25.4567H36.6171ZM29.7835 13.4083C29.7351 13.2148 29.7351 13.0125 29.7835 12.819C30.1928 12.757 30.6053 12.7156 31.0189 12.6949C31.0598 12.6837 31.1031 12.6837 31.1439 12.6949C31.1731 12.7131 31.197 12.7383 31.2136 12.7681C31.2302 12.7979 31.239 12.8314 31.239 12.8655C31.239 12.8996 31.2302 12.9331 31.2136 12.9629C31.197 12.9927 31.1731 13.0179 31.1439 13.0361C30.8468 13.1601 30.3152 13.3463 29.8773 13.4858C29.8445 13.4619 29.8131 13.4359 29.7835 13.4083ZM46.2499 42.7774C45.735 42.7608 45.2223 42.8518 44.7451 43.0444C44.2679 43.237 43.837 43.527 43.4801 43.8955C43.1232 44.2639 42.8485 44.7026 42.6737 45.1833C42.4989 45.6638 42.428 46.1755 42.4656 46.685C42.4395 47.1845 42.5236 47.6836 42.7119 48.1475C42.9003 48.6115 43.1882 49.0292 43.5558 49.3716C43.9234 49.7141 44.3619 49.9729 44.8406 50.1302C45.3194 50.2876 45.827 50.3395 46.3281 50.2825C46.8528 50.2999 47.3752 50.2066 47.8609 50.0088C48.3466 49.8109 48.7842 49.5129 49.145 49.1347C49.5057 48.7564 49.7814 48.3065 49.9534 47.8147C50.1256 47.3228 50.1904 46.8003 50.1437 46.2818C50.1563 45.7871 50.0614 45.2954 49.8651 44.8405C49.6688 44.3854 49.3759 43.9776 49.0064 43.645C48.6368 43.3124 48.1993 43.0627 47.7236 42.913C47.2479 42.7633 46.7453 42.717 46.2499 42.7774ZM46.3593 49.4141C45.1553 49.4141 44.4047 48.4372 44.3734 46.7005C44.3421 44.9638 45.0301 43.6768 46.3281 43.5992C47.6259 43.5217 48.2202 44.7932 48.2671 46.4835C48.2828 47.5844 47.9544 49.4141 46.3593 49.4141ZM32.8329 49.228H32.7546C32.3738 49.3628 31.9636 49.395 31.5661 49.3211C30.935 49.1969 30.3734 48.8435 29.9916 48.3299C29.6098 47.8165 29.4352 47.1799 29.5021 46.5455C29.5155 45.8397 29.7937 45.1643 30.2824 44.6511C30.771 44.1379 31.435 43.8237 32.1448 43.7698C32.8497 43.7304 33.5556 43.8252 34.2245 44.0489L34.506 43.196C33.7071 42.8757 32.8499 42.7227 31.9884 42.7464C28.5951 42.7464 27.4847 44.9948 27.4847 46.5145C27.4744 47.0417 27.578 47.5652 27.7889 48.0495C27.9997 48.5336 28.3127 48.9675 28.7069 49.3216C29.1011 49.6757 29.5673 49.942 30.074 50.1023C30.5806 50.2628 31.1161 50.3136 31.6444 50.2515C32.7013 50.2885 33.7505 50.0591 34.6937 49.5846V46.592H32.8329V49.228ZM50.347 44.0024H52.6144V49.9569H54.5222V44.0024H56.8678V43.041H50.347V44.0024ZM11.1434 43.3045C10.4294 43.0434 9.66319 42.953 8.90727 43.041H5.20116V49.9569H7.20278V47.4137H9.07928C10.8151 47.4137 12.2068 47.0416 12.2068 45.0413C12.1989 44.6847 12.0965 44.3365 11.9098 44.0316C11.7232 43.7268 11.4588 43.4761 11.1434 43.3045ZM8.61016 46.623H7.18713V43.8938H8.75089C8.94402 43.8813 9.13774 43.9066 9.32097 43.9683C9.50419 44.0302 9.67331 44.1272 9.81859 44.254C9.96389 44.3808 10.0825 44.5349 10.1676 44.7072C10.2528 44.8795 10.3027 45.0669 10.3147 45.2584C10.2674 45.662 10.0624 46.0309 9.74364 46.2861C9.42489 46.5413 9.01789 46.6622 8.61016 46.623ZM24.623 47.786C24.6396 47.9937 24.6104 48.2025 24.5377 48.3981C24.4648 48.5937 24.3502 48.7713 24.2016 48.9186C24.0529 49.066 23.8739 49.1797 23.6766 49.2519C23.4795 49.324 23.2689 49.3529 23.0594 49.3366C22.8473 49.3369 22.6372 49.2943 22.4422 49.2116C22.2473 49.1288 22.0712 49.0076 21.925 48.8554C21.7787 48.7031 21.6651 48.5229 21.5914 48.3256C21.5175 48.1285 21.4849 47.9185 21.4955 47.7084V43.0565H19.7598V47.2897C19.6628 48.0589 19.9162 48.8311 20.4479 49.3986C20.7936 49.7456 21.213 50.0118 21.6756 50.1781C22.1381 50.3444 22.6321 50.4065 23.1219 50.36C23.6146 50.3951 24.1094 50.3232 24.5713 50.1491C25.0331 49.975 25.451 49.7031 25.7959 49.3521C26.0581 49.0811 26.2548 48.7549 26.3712 48.3976C26.4877 48.0403 26.5209 47.6616 26.4683 47.2897V43.041H24.623V47.786ZM13.0825 49.9569H18.4618V48.8404H14.9747V46.592H17.7895V45.7546H14.9747V44.0179H18.4618V43.041H13.0825V49.9569ZM36.3044 49.9569H41.668V48.8714H38.1809V46.623H40.9957V45.7856H38.1809V44.0489H41.668V43.041H36.3044V49.9569Z" fill="#333333"/>
</g>
</svg>
