<svg width="62" height="62" viewBox="0 0 62 62" fill="none" xmlns="http://www.w3.org/2000/svg">
<g id="61f5683f9963db5819e009e98fcf0bc1_1650382114">
<path id="Vector" fill-rule="evenodd" clip-rule="evenodd" d="M17.1347 34.3476H13.4732C11.2817 34.3476 10.308 36.6668 10.308 38.4241V38.9855C10.308 40.6986 11.6518 42.6247 13.2568 42.6247H17.5311C19.2086 42.6247 20.4981 40.8235 20.4981 38.9415V38.3795C20.4985 36.3101 19.2179 34.3476 17.1347 34.3476ZM18.7851 38.959C18.7851 39.7976 18.2711 40.894 17.3963 40.894H13.6266C12.8691 40.894 12.2828 40.1002 12.2828 39.1278V37.9685C12.2828 37.3714 12.7335 36.4878 13.3469 36.4878H17.5039C18.3607 36.4878 18.7844 37.4333 18.7844 38.1022L18.7851 38.959ZM7.57535 34.3476H0V42.6245H1.77661V36.4082H7.76458V38.2275C7.76458 38.5667 7.39474 38.959 7.05209 38.959H3.12936C2.79564 38.959 2.45298 39.3604 2.45298 39.6898C2.44404 40.0202 2.76847 40.4656 3.10218 40.4656H7.25059C8.46813 40.4656 9.7397 38.9229 9.7397 37.7188V37.3085C9.7397 35.8461 8.76605 34.3476 7.57535 34.3476ZM28.2902 40.35C28.0286 40.3237 27.7761 40.1451 27.6138 39.9215L24.0338 34.9451C23.7273 34.5167 23.2583 34.3473 22.7354 34.3473H22.5369C21.7524 34.3473 21.3465 34.8562 21.3465 35.5871V42.6241H23.1681V36.4878C23.5201 36.5684 23.6464 36.7284 23.8088 36.9699L26.8659 41.4649C27.3259 42.1339 27.5151 42.6241 28.5072 42.6241H28.94C29.5266 42.6241 30.1576 41.9552 30.1576 41.3843V34.3473H28.2909L28.2902 40.35ZM56.0295 36.4881H62V34.3476H55.5338C54.7494 34.3476 53.8834 35.0083 53.5229 35.7661C53.4056 36.0066 53.3423 36.2475 53.3423 36.4881V40.0202C53.3423 40.2876 53.4056 40.5555 53.5229 40.8228C53.9289 41.7766 54.9837 42.6241 55.9487 42.6241H62V40.8497H56.5889C55.8227 40.8497 55.0291 39.9484 55.0291 39.1907V37.5225C55.0291 36.9699 55.4347 36.4881 56.0295 36.4881ZM30.8605 34.3476V36.4881H34.1791V42.6241H36.1091V36.4881H39.4993V34.3476H30.8605ZM48.996 35.0342C48.7883 34.6957 48.4095 34.3384 48.0039 34.3473H47.7425C47.2284 34.3561 46.8406 34.9182 46.615 35.3734L43.0259 42.6241H44.7933L48.0039 36.5058L49.9876 39.6456H46.9669L46.1099 41.3219H50.8263L51.8633 42.6241H53.6939L53.5229 42.3298L48.996 35.0342ZM40.528 42.6241H42.3039V34.3476H40.528V42.6241Z" fill="#333333"/>
<path id="Vector_2" fill-rule="evenodd" clip-rule="evenodd" d="M27.893 19.1597L31.4735 32.2612L35.035 19.1597C35.3599 17.9736 34.828 17.8488 33.9534 18.3928L31.4731 19.9444L28.9843 18.3928C28.1005 17.8488 27.5683 17.9736 27.893 19.1597ZM28.0732 18.4542C28.0461 18.6682 28.1005 18.891 28.1545 19.0962L31.4738 31.2434L34.7832 19.0962C34.8374 18.891 34.8918 18.6682 34.8557 18.4542C34.8374 18.3558 34.8285 18.347 34.7294 18.347C34.5306 18.3739 34.3417 18.4721 34.17 18.5702L31.4734 20.2558L28.7679 18.5702C28.5965 18.4719 28.407 18.3739 28.1995 18.347C28.1094 18.347 28.1005 18.3558 28.0732 18.4542Z" fill="#333333"/>
<path id="Vector_3" fill-rule="evenodd" clip-rule="evenodd" d="M31.4731 20.7738L28.5781 18.9722L31.4731 29.5675L34.3499 18.9722L31.4731 20.7738ZM31.6537 22.1206L31.4731 21.1128L31.3015 22.1206L30.2825 22.2901L31.3015 22.4683L31.4731 23.4673L31.6537 22.4683L32.6724 22.2901L31.6537 22.1206Z" fill="#333333"/>
</g>
</svg>
