<svg width="62" height="62" viewBox="0 0 62 62" fill="none" xmlns="http://www.w3.org/2000/svg">
<g id="c44b2538230234d4d47260782a9940c3_1650382046">
<path id="Vector" fill-rule="evenodd" clip-rule="evenodd" d="M30.9269 19.244L34.453 24.4068L30.9269 29.6757L27.2502 24.4068L30.9269 19.244ZM35.3135 24.1172L31.3847 17.9546L33.4621 12.8044L26.3083 24.0619L30.8931 30.6677L35.312 24.1157L35.3135 24.1172Z" fill="#333333"/>
<path id="Vector_2" fill-rule="evenodd" clip-rule="evenodd" d="M27.989 11.625L27.866 11.8307L20.7523 23.9662L20.6171 24.1862L20.7523 24.4045L28.2564 36.9641H33.8583L33.9751 36.7537L41.2548 24.4045L41.3809 24.1814L41.2548 23.9631L34.0335 11.8275L33.9105 11.625H27.989ZM21.588 24.1783L28.4514 12.4731H33.4419L40.4174 24.1862L40.4051 24.202H36.0185L29.7159 33.5624L30.5595 31.4565L25.6243 24.202H21.6004L21.585 24.1783H21.588ZM10.4548 44.8483H8.91225V42.9814H10.4533C10.4533 42.9814 10.7299 43.4971 10.7299 43.9385C10.7299 44.3815 10.4533 44.8483 10.4533 44.8483H10.4548ZM13.3802 43.5873C13.3802 41.6095 11.7916 41.3295 11.7916 41.3295H5.16635C5.21551 41.9117 6.21268 42.4971 6.21268 42.4971V48.5539L5.46134 48.9241V49.8339H9.74809V48.9241L8.91225 48.5539V45.9178L9.29329 45.8973L10.7038 49.8086H13.6538V48.9653L11.6564 45.9432C11.6564 45.9432 13.3802 45.5666 13.3802 43.5857V43.5873ZM21.0688 46.9353H19.2864V48.4052H17.7285V46.016H18.7718L19.1558 46.554H20.0547V44.1838H19.2711L18.7487 44.7202H17.7285V42.7551H19.2711V43.6696H21.1793V41.301H14.1608V42.0842L14.9429 42.4465V48.519L14.1592 49.0333V49.8592H21.0703L21.0688 46.9353ZM26.219 49.8592H28.4683V42.6206L29.3748 42.2203L29.3964 41.2804H26.2943V42.1981L27.0747 42.4672L27.0948 45.3894L24.8054 41.2804L21.5911 41.3026V42.0621L22.0905 42.331V48.6582L21.3115 49.1725V49.8576H24.3952V49.1709L23.6531 48.6931V45.5003L26.219 49.8592ZM31.7687 45.7818L32.1297 44.524L32.5815 45.7818H31.7687ZM32.6983 49.8339H37.0203V48.9225L36.2337 48.5776L33.7246 41.2836L30.1246 41.2646V42.1933L31.151 43.2012L29.5731 48.5776C29.5731 48.5776 29.192 48.8734 28.7419 49.046V49.8339H31.6764V49.046L30.9114 48.7769L31.3569 47.228H33.113L33.6048 48.5776L32.6983 49.0713V49.8339ZM40.2162 50.3734C42.988 50.3734 43.2952 48.1377 43.2952 48.1377V42.6158L43.9406 42.3437V41.434H41.1196V42.3184L42.0046 42.6158V48.3799C42.0046 48.3799 41.4054 48.7754 40.8599 48.7754C40.3068 48.7754 39.8551 48.3799 39.8551 48.3799V42.6158L40.8599 42.195V41.4086L35.7466 41.434V42.2203L37.0357 42.6158V48.1916C37.0357 48.1916 37.4382 50.375 40.2146 50.375L40.2162 50.3734ZM49.1706 48.8007H47.7617V43.0067L48.934 42.3421V41.4086H44.2986V42.3184L44.9424 42.6158V48.9289L44.1833 49.1978V50.0791L50.7209 50.1028V47.326H49.1691L49.1706 48.8007Z" fill="#333333"/>
<path id="Vector_3" fill-rule="evenodd" clip-rule="evenodd" d="M49.8162 44.3304H51.491L51.514 42.9792H52.1101V48.5075L50.964 49.0454V50.0771H55.8345V49.0454L54.6898 48.5312V42.9792H55.1892V44.3304H56.8332V41.4333H49.8178L49.8162 44.3304Z" fill="#333333"/>
</g>
</svg>
