<svg width="62" height="62" viewBox="0 0 62 62" fill="none" xmlns="http://www.w3.org/2000/svg">
<g clip-path="url(#clip0_1301_20116)">
<path d="M16.541 9.52127C16.541 7.87948 17.8787 6.54102 19.5214 6.54102H42.4795C44.1461 6.54102 45.4837 7.87948 45.4837 9.52127V52.7589C45.4837 54.4013 44.1461 55.739 42.4795 55.739H19.5214C17.8789 55.739 16.541 54.4013 16.541 52.7589V9.52127Z" fill="white"/>
<path d="M17.7773 14.6226V9.52107C17.7773 8.56196 18.5616 7.7793 19.5209 7.7793H42.479C43.4637 7.7793 44.2465 8.56196 44.2465 9.52107V14.6226H17.7773Z" fill="#333333"/>
<path d="M44.2448 15.8594H17.7773V46.4198H44.2448V15.8594Z" fill="#333333"/>
<path d="M38.666 12.1231C38.7672 12.274 38.9951 12.4511 39.1455 12.5266C39.5756 12.7543 39.9558 12.8296 40.3582 12.8296C40.9901 12.8296 41.3687 12.5513 41.3687 12.1481C41.3687 11.6667 40.8876 11.5913 40.1562 11.492C39.2225 11.3653 38.7173 10.9352 38.7173 10.1783C38.7413 9.42031 39.4505 8.83789 40.4848 8.83789C41.1905 8.83789 41.6719 8.99037 41.975 9.14123V10.127C41.8739 9.95037 41.646 9.82362 41.4201 9.72349C41.115 9.62144 40.8121 9.57101 40.4848 9.57101C39.9796 9.57101 39.6763 9.77319 39.6763 10.0274C39.6763 10.4548 40.0806 10.5062 40.9646 10.6835C41.8483 10.8598 42.3791 11.2394 42.3535 12.0212C42.3279 12.9299 41.6204 13.5368 40.3582 13.5368C39.8014 13.5368 39.0958 13.4351 38.666 13.2088V12.1231Z" fill="white"/>
<path d="M22.9816 10.3031C22.9816 10.7579 22.6031 10.9342 22.0225 10.9342H20.9622V9.64541H22.0225C22.6031 9.64541 22.9816 9.82259 22.9816 10.3031ZM23.6375 12.3234C23.4114 11.8945 23.2349 11.5664 22.9061 11.414C23.6135 11.2631 23.9664 10.8589 23.9664 10.2527C23.9664 9.67203 23.7129 9.21799 23.2351 9.04081C22.932 8.91406 22.5515 8.91406 21.971 8.91406H19.6484C19.8762 9.06492 20.0013 9.51955 20.0013 9.92464V12.475C20.0013 12.8534 19.876 13.3338 19.6484 13.4607H21.3132C21.0872 13.3338 20.9622 12.8534 20.9622 12.475V11.6655H21.6678C22.0225 11.6655 22.2243 11.7923 22.3752 12.0715C22.6269 12.475 22.8053 13.0306 23.1083 13.4607H24.4459C24.0435 13.1831 23.8397 12.7532 23.6375 12.3234Z" fill="white"/>
<path d="M27.1748 13.5869C27.805 13.5869 28.3377 13.4094 28.7403 13.055C29.2215 12.6525 29.5485 12.0452 29.5485 11.1871C29.5485 10.3548 29.2215 9.7228 28.7403 9.31771C28.3377 8.98968 27.805 8.8125 27.1748 8.8125C26.5427 8.8125 26.0134 8.98968 25.6076 9.31771C25.1297 9.7228 24.8008 10.3548 24.8008 11.1871C24.8008 12.0452 25.1297 12.6525 25.6076 13.055C26.0134 13.4094 26.5684 13.5869 27.1748 13.5869ZM26.2156 12.3999C25.9383 12.1473 25.8115 11.7438 25.8115 11.1871C25.8115 10.6562 25.9383 10.253 26.2156 9.97541C26.4417 9.7475 26.7706 9.59694 27.1748 9.59694C27.5789 9.59694 27.9078 9.7475 28.1339 9.97541C28.4131 10.2529 28.5637 10.6562 28.5637 11.1871C28.5637 11.7439 28.413 12.1473 28.1339 12.3999C27.9076 12.6276 27.5789 12.7783 27.1748 12.7783C26.7706 12.7783 26.4417 12.6276 26.2156 12.3999Z" fill="white"/>
<path d="M33.7406 12.2975C33.4869 12.6271 32.9578 12.7276 32.3771 12.7276H31.4932V9.92464C31.4932 9.54528 31.6184 9.06477 31.8204 8.91406H30.1797C30.4055 9.06492 30.534 9.54543 30.534 9.92464V12.475C30.534 12.8799 30.4055 13.3082 30.1797 13.4607H33.588L33.7406 12.2975Z" fill="white"/>
<path d="M37.8576 12.2975C37.6043 12.6271 37.075 12.7532 36.4943 12.7276H35.5849V9.92464C35.5849 9.54528 35.71 9.06477 35.9393 8.91406H34.2969C34.5229 9.06492 34.6512 9.54543 34.6512 9.92464V12.475C34.6512 12.8799 34.5229 13.3338 34.2969 13.4845H37.6797L37.8576 12.2975Z" fill="white"/>
<path d="M47 9.52015C47 7.02026 44.9789 5 42.48 5H19.5218C17.0211 5 15 7.02026 15 9.52015V52.7577C15 55.2602 17.0211 57.2795 19.5218 57.2795H42.4798C44.9787 57.2795 47 55.2602 47 52.7577V9.52015ZM16.5414 9.52015C16.5414 7.87836 17.8791 6.5399 19.5218 6.5399H42.4798C44.1465 6.5399 45.4841 7.87836 45.4841 9.52015V52.7577C45.4841 54.4001 44.1465 55.7379 42.4798 55.7379H19.5218C17.8792 55.7379 16.5414 54.4001 16.5414 52.7577V9.52015Z" fill="#333333"/>
<path d="M17.7773 47.6562V52.7569C17.7773 53.7194 18.5616 54.5004 19.5209 54.5004H42.479C43.4637 54.5004 44.2465 53.7194 44.2465 52.7569V47.6562H17.7773Z" fill="#333333"/>
<path d="M29.1191 41.5448V34.7505C29.7752 34.7263 30.4072 34.7006 31.0393 34.6491C30.8114 34.1182 30.5836 33.589 30.3062 33.0838C29.9275 33.1334 29.5253 33.1334 29.1191 33.1592V31.7461C28.2352 31.948 27.2762 32.0988 26.2914 32.2V41.5448C26.2914 43.6139 25.3305 44.1706 24.75 44.5492H30.659C30.1059 44.1706 29.1191 43.6139 29.1191 41.5448Z" fill="white"/>
<path d="M42.8579 44.5256C42.3784 44.0699 41.7703 43.3627 41.469 41.9753C40.9138 39.4232 39.7509 35.7611 37.3017 33.0327C39.7014 31.7207 41.1657 29.6482 41.1657 27.0997C41.1896 25.2798 40.2561 23.3615 38.5896 22.225C37.8824 21.7685 37.0497 21.4405 36.0634 21.2383C36.4178 21.9964 36.644 22.8048 36.6952 23.6141C37.7298 24.4209 38.2866 25.6592 38.2866 27.1491C38.2866 29.0435 37.3273 31.2651 33.9688 32.4022C34.2443 32.9315 34.5217 33.4882 34.7496 34.0175C34.9277 33.968 35.104 33.918 35.2822 33.8667C36.8477 35.6857 38.1084 38.5393 38.4868 41.1907C38.7662 43.1106 38.0844 44.0699 37.6307 44.5256H42.8579Z" fill="white"/>
<path d="M23.9923 30.1047V19.498H28.0071C29.4731 19.5229 30.5592 19.826 31.4175 20.4306C32.5529 21.2389 33.161 22.5272 33.161 24.0686C33.161 26.6686 31.366 29.9778 23.9923 30.1047ZM36.9736 41.4689C36.4681 41.015 35.8638 40.3073 35.5844 38.9186C35.0294 36.3682 33.9177 32.7816 31.6964 30.2295C31.7958 30.18 31.8728 30.1541 31.9721 30.1045C34.4986 28.8162 36.04 26.6686 36.04 24.0421C36.0641 22.199 35.1289 20.3048 33.4639 19.1682C32.1502 18.2845 30.3828 17.9316 28.1339 17.9316H19.623C20.2037 18.3101 21.1629 18.8652 21.1629 20.9359V38.4647C21.1629 40.5593 20.2037 41.0904 19.623 41.4689H25.5322C24.9772 41.0903 23.9923 40.5593 23.9923 38.4647V31.67C26.0632 31.67 28.0071 31.4167 29.648 30.9884C31.1399 32.7817 32.2515 35.5598 32.6043 38.1102C32.8561 40.0319 32.2001 41.0151 31.7461 41.469H36.9736V41.4689Z" fill="white"/>
<path d="M29.1193 28.5908V22.6047H32.3017C32.0759 21.947 31.6698 21.4168 31.1165 21.0117H24.75C25.3306 21.3909 26.2914 21.922 26.2914 24.0176V29.2964C27.3518 29.1457 28.3107 28.9197 29.1193 28.5908Z" fill="white"/>
<path d="M34.903 51.0929C34.903 51.9493 35.4083 52.607 36.2921 52.607C36.924 52.607 37.5046 52.4306 37.7566 52.1275L37.6041 53.114C37.378 53.2134 36.9738 53.3401 36.3179 53.3401C34.9031 53.3401 33.918 52.5059 33.918 51.0929C33.918 50.3359 34.2213 49.7535 34.6752 49.375C35.0794 49.0205 35.6343 48.8184 36.3177 48.8184C36.9738 48.8184 37.3779 48.945 37.604 49.0717V50.007C37.3282 49.704 36.9238 49.5515 36.292 49.5515C35.4083 49.5515 34.903 50.2092 34.903 51.0929Z" fill="white"/>
<path d="M22.8284 50.2337C22.8284 50.6635 22.4757 50.8399 21.9206 50.8399H20.9102V49.6291H21.9206C22.4757 49.6291 22.8284 49.7796 22.8284 50.2337ZM23.4605 52.1537C23.2584 51.7495 23.0818 51.4206 22.7787 51.2956C23.4364 51.1688 23.7636 50.7645 23.7893 50.2097C23.7893 49.6291 23.5373 49.199 23.0818 49.0209C22.8045 48.9199 22.4257 48.9199 21.8692 48.9199H19.6719C19.8755 49.0467 20.0008 49.4766 20.0008 49.8789V52.306C20.0008 52.6587 19.8755 53.1144 19.6719 53.2651H21.2374C21.037 53.1143 20.9102 52.6586 20.9102 52.306V51.5216H21.5663C21.9206 51.5216 22.121 51.6724 22.2753 51.9256C22.5013 52.3059 22.6779 52.8336 22.9552 53.2392L24.2448 53.2651C23.839 52.9638 23.6642 52.5818 23.4605 52.1537Z" fill="white"/>
<path d="M26.8213 53.3659C27.4259 53.3659 27.9311 53.1894 28.3096 52.8604C28.7635 52.4819 29.0942 51.8996 29.0942 51.0929C29.0942 50.2846 28.7636 49.704 28.3096 49.2978C27.9311 48.9963 27.4259 48.8184 26.8213 48.8184C26.2389 48.8184 25.7337 48.9963 25.3552 49.2978C24.9012 49.704 24.5723 50.2846 24.5723 51.0929C24.5723 51.8996 24.9012 52.482 25.3552 52.8604C25.7338 53.1894 26.2391 53.3659 26.8213 53.3659ZM25.9101 52.2302C25.6584 52.0005 25.5317 51.622 25.5317 51.0929C25.5317 50.5619 25.6584 50.1851 25.9101 49.9299C26.138 49.7041 26.4411 49.5772 26.8454 49.5772C27.2239 49.5772 27.5269 49.704 27.7548 49.9299C28.0066 50.1852 28.1335 50.5619 28.1335 51.0929C28.1335 51.622 28.0067 52.0006 27.7548 52.2302C27.5269 52.4562 27.2239 52.607 26.8454 52.607C26.4411 52.607 26.138 52.4563 25.9101 52.2302Z" fill="white"/>
<path d="M32.4764 48.9201C32.5793 48.997 32.6289 49.0723 32.6033 49.1718C32.6033 49.2744 32.5517 49.4253 32.4524 49.5778L31.5925 50.8143L30.7345 49.552C30.6334 49.4012 30.5342 49.2506 30.5582 49.1222C30.5821 49.0468 30.6096 48.9714 30.709 48.9201H28.9668C29.2684 49.0468 29.4207 49.2744 29.647 49.6033L31.0634 51.5971V52.3062C31.0634 52.6589 30.9366 53.1145 30.7345 53.2395H32.2999C32.0978 53.1145 31.971 52.6589 31.971 52.3062V51.5971L33.2607 49.7796C33.4628 49.5279 33.7404 49.0723 34.0435 48.9199L32.4764 48.9201Z" fill="white"/>
<path d="M40.8621 52.5577H39.7504V51.3709H41.4188L41.518 50.7132H39.7504V49.6291H40.7354C41.2919 49.6291 41.7459 49.6527 41.9737 49.8789V48.9199H38.5137C38.7158 49.0721 38.841 49.5278 38.841 49.8789V52.306C38.841 52.6828 38.7158 53.1144 38.5137 53.2651H41.9993L42.1498 52.2029C41.8966 52.532 41.4189 52.5577 40.8621 52.5577Z" fill="white"/>
</g>
<defs>
<clipPath id="clip0_1301_20116">
<rect width="62" height="62" fill="white"/>
</clipPath>
</defs>
</svg>
