<svg width="62" height="62" viewBox="0 0 62 62" fill="none" xmlns="http://www.w3.org/2000/svg">
<g id="7e6d2d4ca7be4049890cecaf6a7da559_1650382013">
<path id="Vector" fill-rule="evenodd" clip-rule="evenodd" d="M21.1773 12.9951C21.1188 12.9951 21.0644 12.9908 21.0143 12.9908H19.4042V13.1042C19.814 13.1463 19.9019 13.1966 19.9019 13.6292V16.1651C19.9019 16.6019 19.8768 16.728 19.4042 16.7573V16.8665H21.0185V16.7573C20.5543 16.7321 20.4957 16.623 20.4957 16.2281V15.0776L20.8219 15.065L22.2105 16.8662H23.1471V16.7573C22.9086 16.7447 22.7709 16.6398 22.6411 16.48L21.441 14.9979C21.7377 14.9392 22.4948 14.8006 22.4948 14.0154C22.4945 13.2008 21.7127 13.0245 21.1773 12.9951ZM40.2167 14.8006C40.5762 14.7166 40.8982 14.5108 40.8982 14.0028C40.8982 13.457 40.5218 13.2848 40.2167 13.2346C40.0826 13.2094 39.9661 13.2094 39.8945 13.2094C39.5855 13.2094 39.5351 13.2512 39.5351 13.4194V14.8596C39.7275 14.8552 39.9782 14.8552 40.2167 14.8006ZM40.2167 12.9951C40.7478 13.0245 41.5335 13.2008 41.5335 14.0154C41.5335 14.8003 40.7771 14.9392 40.4801 14.9979L41.68 16.48C41.8058 16.6398 41.9478 16.7447 42.186 16.7573V16.8665H41.2495L39.861 15.0652L39.5347 15.0779V16.2284C39.5347 16.623 39.5935 16.7321 40.0576 16.7576V16.8667H38.443V16.7573C38.9157 16.728 38.9409 16.6019 38.9409 16.1651V13.6292C38.9409 13.1966 38.8529 13.1463 38.443 13.1042V12.9908H40.0534C40.1034 12.9908 40.1582 12.9951 40.2167 12.9951ZM25.9945 16.7361H25.9988C26.6428 16.7361 27.2366 16.2157 27.2366 14.9306C27.2366 13.5956 26.5926 13.1209 25.9988 13.1209H25.9945C25.4008 13.1209 24.7527 13.5956 24.7527 14.9306C24.7527 16.2157 25.3506 16.7361 25.9945 16.7361ZM25.9945 12.9111H25.9988C26.9523 12.9111 27.9017 13.5873 27.9017 14.9349C27.9017 16.182 27.0525 16.9504 25.9988 16.9504H25.9945C24.9408 16.9504 24.0919 16.182 24.0919 14.9349C24.0919 13.5913 25.0413 12.9111 25.9945 12.9111ZM32.7901 12.9908H31.5944V13.1042C31.8157 13.1127 32.0207 13.1335 32.0207 13.373C32.0207 13.4948 31.9203 13.7426 31.9117 13.7761L31.0545 15.926L30.1764 13.9441C30.0427 13.6458 29.938 13.4066 29.938 13.3185C29.938 13.1335 30.0509 13.1211 30.3772 13.1042V12.9908H28.8256V13.1042C29.0975 13.1127 29.2017 13.1839 29.4444 13.7174L30.8747 16.9338H30.9625L32.2546 13.6461C32.4304 13.2008 32.5096 13.1211 32.7897 13.1045L32.7901 12.9908ZM37.3311 15.8754H37.168C36.9092 16.4676 36.6204 16.6438 35.8883 16.6438C35.0229 16.6438 35.0229 16.6395 35.0229 16.396V14.9473L35.9176 14.9598C36.403 14.9641 36.4904 15.0438 36.5618 15.514H36.6952V14.1578H36.5618C36.495 14.5734 36.4365 14.712 35.9176 14.712H35.0229V13.4145C35.0229 13.2129 35.0897 13.2129 35.2155 13.2129H36.0012C36.6496 13.2129 36.8 13.3053 36.8878 13.83H37.0343L37.0132 12.9904H33.919V13.1037C34.2868 13.1332 34.425 13.1667 34.425 13.6286V16.2281C34.425 16.6774 34.2909 16.7319 33.919 16.7573V16.8665H37.0677L37.3311 15.8754ZM21.1773 14.8006C20.9431 14.8552 20.688 14.8552 20.4957 14.8593V13.4191C20.4957 13.2512 20.5458 13.2091 20.8554 13.2091C20.9267 13.2091 21.0477 13.2091 21.1775 13.2343C21.4827 13.2845 21.8591 13.4567 21.8591 14.0026C21.8591 14.5109 21.537 14.7166 21.1773 14.8006ZM20.383 36.9662L19.9522 34.8958L19.5632 32.8178L19.2205 30.735L18.9193 28.64L18.5345 25.533L18.271 22.9924L18.1328 21.0276L18.1161 19.6293L18.1247 19.5622L18.1328 19.4949L18.1455 19.4276L18.1621 19.3645L18.2125 19.2218L18.271 19.096L18.3295 18.9826L18.3966 18.886L18.4801 18.7811L18.5722 18.6844L18.6727 18.6005L18.7856 18.5207L18.8901 18.4619L19.0071 18.4116L19.1367 18.3656L19.2789 18.3276L19.333 18.3152L19.3958 18.3109L19.467 18.3025H42.9548L43.0133 18.3067L43.1139 18.3236L43.2353 18.353L43.3437 18.3909L43.4444 18.4287L43.5323 18.4748L43.6282 18.5336L43.7162 18.6009L43.7999 18.6765L43.8747 18.7562L43.9462 18.8485L44.0089 18.941L44.0633 19.0376L44.105 19.1425L44.1384 19.2393L44.1635 19.3441L44.1804 19.4574L44.1928 19.5794V19.6463L44.1847 19.7554L44.1718 19.9067L44.1552 20.0958L43.9504 22.1741L43.7286 24.0972L43.5031 25.8606L43.2645 27.4645L42.8588 29.8578L42.4074 32.2342L41.9138 34.6069L41.3744 36.9665L41.1736 36.8152L40.3293 36.1726L39.246 35.4338L38.5562 35.0057L38.1339 34.7453L37.2013 34.229L36.9839 34.1074L36.6455 33.9391L36.2272 33.7626L35.9639 33.658L35.7338 33.5656L35.1611 33.3599L34.7555 33.2212L34.3498 33.0952L33.9357 32.9777L33.5216 32.8684L33.6598 33.1918L33.802 33.5069L33.9525 33.8217L34.1114 34.1284L34.262 34.4055L34.4212 34.6784L34.5253 34.8465L34.5841 34.9471L34.7555 35.2117L34.8182 35.2074H34.8849L34.9482 35.2117L35.0111 35.22L35.1528 35.2495L35.2826 35.2869L35.3955 35.3293L35.4999 35.3798L35.6088 35.447L35.7129 35.5221L35.809 35.6104L35.8968 35.7027L35.964 35.7909L35.9683 35.7957L36.031 35.9003L36.0938 36.018L36.1566 36.1481L36.1776 36.211L36.1944 36.2698L36.211 36.3333L36.2191 36.4003L36.2613 36.3792L36.3031 36.3628L36.3492 36.3498L36.3949 36.3416L36.4909 36.3245L36.5872 36.3121H36.6752L36.7582 36.3164L36.8509 36.3289L36.9387 36.35L37.0218 36.3794L37.1096 36.4171L37.1893 36.4594L37.2017 36.4676L37.265 36.5095L37.3359 36.5641L37.4027 36.627L37.4654 36.6988L37.524 36.77L37.5701 36.8501L37.6118 36.9299L37.6411 37.0052L37.6703 37.0893L37.6915 37.1817L37.7078 37.2823L37.7125 37.3287V37.4208L37.7078 37.4671L37.7621 37.4542L37.8125 37.4459L37.8669 37.4418H37.9213L38.0383 37.4459L38.1468 37.4542L38.2475 37.4753L38.3395 37.4966L38.4397 37.5302L38.5405 37.576L38.5569 37.5848L38.6323 37.6266L38.7202 37.6854L38.8033 37.7567L38.8829 37.8284L38.954 37.9078L39.0171 37.9918L39.0758 38.08L39.1256 38.1764L39.1679 38.2734L39.2013 38.374L39.2224 38.4664L39.2346 38.5671L39.2472 38.6805V38.8526L39.239 38.9071L39.2309 38.9577L39.2178 39.0077L39.8327 39.2598L40.8114 39.6546L40.1044 41.6614L37.2023 40.6287L37.0729 40.5864L36.9264 40.9098L36.7677 41.2288L36.6003 41.5392L36.4163 41.8463L36.1863 42.1985L35.9649 42.5094L35.9398 42.547L35.6846 42.8787L35.4129 43.2063L35.9649 43.4961L37.2023 44.151L38.5574 44.8648L39.0216 45.1082L38.9209 45.8515L38.6954 46.5401L38.5572 46.7917L38.348 47.1739L37.8754 47.7536L37.8044 47.8037L37.683 47.8712L37.4988 47.9546L37.265 48.0516L37.2017 48.0726L36.9551 48.1691L36.6833 48.2617L36.4368 48.3328L36.2275 48.3791L35.964 48.4168L35.2196 48.5261L34.5252 48.5808L33.9694 48.6266L33.0743 48.6602L32.4804 48.6814L31.293 48.6939L30.7578 48.698L29.1142 48.6734L28.9218 48.6648L27.977 48.6187L27.6843 48.6058L26.4839 48.5052L26.4675 48.5011L25.4595 48.3582L25.142 48.2913L25.0917 48.2782L25.0375 48.2618L24.8576 48.2155L24.6068 48.1273L24.3852 48.0266L24.2765 47.9637L24.1509 47.8755L24.0046 47.7621L23.8456 47.6234L23.7202 47.5057L23.6617 47.4474L23.6158 47.4011L23.5237 47.2959L23.4483 47.2035L23.4148 47.1495L23.3771 47.0907L23.3436 47.0231L23.3101 46.9478L22.5365 45.1633L23.6614 44.6178L25.0373 43.9457L25.0914 43.9207L26.4838 43.2401L26.5509 43.2108L26.4838 43.1395L26.4172 43.0682L26.2872 42.9165L26.1617 42.7653L26.0447 42.6102L25.8231 42.2915L25.6057 41.9633L25.405 41.6318L25.2127 41.2876L25.1249 41.1156L25.0914 41.0443L25.0413 40.9391L25.037 40.9309L24.9616 40.7588L24.8907 40.5782L23.6611 41.0104L21.7417 41.6826L21.0059 39.5622L22.3062 39.0794L22.6283 38.9576L22.6241 38.8856L22.6283 38.8146L22.6367 38.7426L22.6449 38.6757L22.6868 38.5206L22.7288 38.3818L22.7831 38.2559L22.8417 38.1465L22.925 38.0294L23.0129 37.9201L23.1133 37.8195L23.2262 37.7308L23.335 37.6637L23.452 37.6007L23.59 37.546L23.6611 37.521L23.7364 37.4962L23.8076 37.4751L23.8785 37.4669L23.9456 37.4582H24.0167L24.0377 37.3951L24.0627 37.3363L24.0878 37.2734L24.117 37.2189L24.1924 37.0929L24.2676 36.9837L24.3428 36.8872L24.4222 36.8031L24.5184 36.7151L24.6229 36.6398L24.7277 36.5681L24.8447 36.5092L24.9535 36.4634L25.037 36.4341L25.0705 36.4211L25.0914 36.4167L25.2 36.3874L25.338 36.3628L25.405 36.354L25.4678 36.3498H25.5306L25.5975 36.354V36.2952L25.606 36.2364L25.6187 36.1775L25.6311 36.1235L25.6729 36.0012L25.7192 35.8883L25.7693 35.7916L25.8236 35.7032L25.8948 35.6109L25.97 35.5268L26.0578 35.4473L26.1494 35.3791L26.2456 35.3157L26.3501 35.2656L26.4545 35.2232L26.4838 35.2151L26.5675 35.1898L26.6719 35.1693L26.7806 35.1562H26.8978L27.0275 35.1605L27.086 35.1693L27.1404 35.1774L27.1989 35.1898L27.2533 35.2111L27.3996 34.9928L27.5377 34.7701L27.6714 34.5431L27.8011 34.3126L27.9683 33.9892L27.9769 33.9768L28.1273 33.6659L28.2779 33.3343L28.416 32.9985L27.977 33.1285L27.3036 33.326L26.4838 33.6114L26.212 33.7082L25.1418 34.1487L25.0914 34.1698L25.0373 34.1951L24.0879 34.6361L23.6614 34.8625L23.1179 35.1483L22.3064 35.6312L22.1769 35.711L21.2654 36.3155L20.383 36.9662ZM41.1739 20.0786C41.0399 22.1243 40.8475 24.1658 40.597 26.2004C40.3721 27.7798 40.1168 29.3547 39.8315 30.9241C39.6203 32.0771 39.3958 33.2277 39.158 34.3758L39.8315 34.8418L40.9102 35.5849C40.998 35.1858 41.0901 34.7912 41.1736 34.3921C41.7007 31.9778 42.1692 29.5595 42.5285 27.1157C42.8757 24.4328 43.1266 21.7832 43.1933 19.0751H41.2365C41.2202 19.4099 41.1993 19.7444 41.1739 20.0786ZM39.8319 19.0793L38.5564 19.0623H38.5482C38.4251 21.3774 38.2159 23.6868 37.921 25.9863C37.7138 27.3578 37.474 28.7242 37.2014 30.0842C37.0157 31.0163 36.8162 31.9459 36.6034 32.872L38.5232 33.9639C38.5356 33.918 38.5442 33.8715 38.5566 33.8251C39.0738 31.5211 39.4993 29.1975 39.832 26.8594C39.9199 26.2339 40.0034 25.6039 40.0826 24.97C40.2717 23.0143 40.4126 21.0542 40.5054 19.0915L39.8319 19.0793ZM39.8319 40.052L39.0499 39.6869L38.5564 40.0855L38.3058 40.287L38.5564 40.3794L39.765 40.8333L39.8319 40.6526L40.0157 40.14L39.8319 40.052ZM38.5564 38.6456L38.5482 38.5574L38.502 38.394L38.4228 38.2594L38.3222 38.1629L38.2473 38.1336L38.1553 38.1211L38.038 38.1336L37.9042 38.1629L37.762 38.2176L37.6284 38.2889L37.503 38.3852L37.3819 38.4987L37.2811 38.6163L37.2062 38.738L37.2014 38.7424L37.1476 38.8599L37.1136 38.9861L37.089 39.2084L37.0933 39.3931L37.1349 39.5443L37.2017 39.6575L37.2063 39.6659L37.2983 39.7458L37.4114 39.8004L37.5409 39.8169L37.6915 39.8044L37.8589 39.7538L38.0218 39.6574L38.1845 39.5186L38.3436 39.338L38.444 39.1915L38.5113 39.0445L38.5529 38.9018L38.5572 38.8806L38.5653 38.7548L38.5564 38.6456ZM35.7591 19.0833C35.6309 21.3405 35.4355 23.5936 35.1736 25.8392C34.9856 27.2221 34.7695 28.601 34.5252 29.9749C34.3986 30.6772 34.2664 31.3785 34.1283 32.0786L34.5252 32.1962L35.964 32.6324L36.0308 32.6493C36.4904 30.4397 36.881 28.216 37.2014 25.9818C37.2183 25.8641 37.2355 25.7465 37.2518 25.6289C37.5075 23.4537 37.6904 21.2705 37.7999 19.0831L35.7591 19.0833ZM37.2014 44.9605L36.8751 44.8136L36.4489 44.6458L35.964 44.4778L35.9136 44.4609L35.4289 44.3185L34.9938 44.2134L34.6009 44.1503L34.5253 44.1461L34.2245 44.121L33.8818 44.1168L33.5722 44.1419L33.3005 44.1919L33.0744 44.2676L33.0034 44.2929L32.6943 44.4352L32.3721 44.6201L32.0372 44.8507L31.8745 44.9853L31.6777 45.1741L31.4603 45.4052L31.293 45.598L31.2138 45.6908L31.1218 45.7997L31.0381 45.9172L30.9587 46.0391L30.879 46.1609L30.8163 46.014L30.7412 45.8757L30.6532 45.7412L30.5612 45.6152L30.3354 45.3466L30.1095 45.1155L29.8796 44.9145L29.6537 44.7462L29.3779 44.5869L29.0935 44.4523L28.9222 44.3893L28.8008 44.3469L28.4913 44.2716L28.2194 44.2254L27.977 44.2129L27.9185 44.2087L27.5923 44.2169L27.2411 44.2463L26.7978 44.318L26.4839 44.3852L26.3168 44.427L25.7983 44.574L25.242 44.7586L25.0373 44.8385L24.8155 44.9268L24.3974 45.1113L23.9875 45.313L23.6611 45.4975L23.59 45.535L23.6611 45.7326L23.7324 45.926L23.9498 45.8209L24.1713 45.7202L24.3971 45.6272L24.6229 45.5349L25.037 45.3797L25.0911 45.3631L25.0954 45.3584L25.4718 45.2245L25.7601 45.1363L25.9527 45.0944L26.3791 45.0439L26.4837 45.0395L26.8014 45.0313L27.2154 45.0521L27.6167 45.1108L27.9765 45.1949L28.0058 45.203L28.3864 45.3335L28.7627 45.497L28.9217 45.5809L29.1351 45.6985L29.4402 45.8962L29.7538 46.1395L30.0675 46.4206L30.3852 46.7439L30.5189 46.8953L30.6444 47.0592L30.7614 47.2268L30.8659 47.4031L30.9703 47.2311L31.079 47.0677L31.2043 46.9082L31.2923 46.807L31.3383 46.7564L31.6523 46.4418L31.9614 46.169L32.2666 45.9337L32.5676 45.7404L32.9272 45.5558L33.0735 45.4929L33.2913 45.3964L33.6714 45.2746L34.0607 45.1776L34.4661 45.1147L34.5246 45.1103L34.8676 45.0852L35.2646 45.0939L35.6578 45.1316L35.9259 45.1861L35.9634 45.1944L36.2474 45.2782L36.6199 45.4083L37.0422 45.5806L37.2009 45.6516L37.2553 45.677L37.4645 45.7781L37.6653 45.8956L37.866 46.0174L38.1044 45.4337L37.7027 45.2067L37.2933 45.0015L37.2014 44.9605ZM36.7628 46.279L36.0184 46.0984L35.964 46.0902L35.2571 46.0102L34.5252 46.0189H34.4795L33.7351 46.1154L33.0743 46.2874L33.0204 46.3039L32.334 46.581L31.6776 46.9467L31.962 47.312L32.4387 47.0725L32.9365 46.896L33.0743 46.8668L33.4505 46.7828L33.9818 46.7369L34.5252 46.8502L35.0357 46.9592L35.4117 46.9929L35.7506 47.0057L35.9639 47.0014H36.0474L36.3063 46.968L36.6159 46.9043L36.9129 46.8118L37.2009 46.6985H37.2057L37.4856 46.5562L36.7628 46.279ZM35.9639 37.3484L35.8802 37.4279L35.7794 37.5454L35.7045 37.6672L35.6459 37.7935L35.6124 37.9193L35.5874 38.1376L35.5916 38.3223L35.6337 38.478L35.7048 38.595L35.7969 38.6791L35.9098 38.7255L35.964 38.7336L36.039 38.7465L36.1897 38.7336L36.3571 38.6831L36.5199 38.5906L36.6831 38.4524L36.8419 38.2677L36.9427 38.125L37.0093 37.978L37.0511 37.831L37.064 37.6881L37.0471 37.4906L37.0015 37.3228L36.9216 37.1925L36.8215 37.096L36.7461 37.0624L36.6501 37.0542L36.5372 37.0624L36.4037 37.096L36.2615 37.1467L36.1233 37.2218L35.9981 37.3147L35.9639 37.3484ZM35.9639 39.477L35.8379 39.4646L35.7002 39.4351L35.5751 39.3971L35.4579 39.3513L35.3365 39.2881L35.2195 39.2124L35.1147 39.1283L35.0145 39.0278L34.9348 38.9354L34.86 38.8261L34.7885 38.7042L34.6925 38.4984L34.6714 38.4314L34.6549 38.3643L34.6462 38.2974L34.5877 38.3098L34.5292 38.3179H34.5251L34.4663 38.3223L34.4078 38.3179L34.2742 38.3098L34.1531 38.2886L34.0441 38.2634L33.9438 38.23L33.8349 38.1797L33.7308 38.121L33.6342 38.0534L33.5464 37.974L33.4628 37.8858L33.3878 37.7933L33.325 37.6921L33.2707 37.5876L33.2289 37.4906L33.1997 37.3779L33.1746 37.2559L33.1577 37.1254L33.1536 37.0666V37.0078L33.1577 36.9448L33.1661 36.886L33.0739 36.7519L32.2505 35.5467V36.886L32.5807 37.3606L32.9402 37.8097L33.0736 37.9525L33.329 38.2336L33.7512 38.6327L34.3286 39.1073L34.5251 39.2501L34.9307 39.5435L35.566 39.9386L35.9635 40.1488L36.2271 40.287L36.4526 39.6277L36.2688 39.4726L36.1978 39.4808L36.1306 39.485L36.0639 39.4896L35.9928 39.481L35.9639 39.477ZM35.9639 41.2028L35.4954 40.8583L35.0188 40.4891L34.546 40.1069L34.5251 40.0856L34.0859 39.7166L33.6092 39.2885L33.1412 38.8517L33.0739 38.7886L32.681 38.4066L32.2335 37.9448V39.049L32.8862 39.6201L33.0743 39.7795L33.2125 39.9013L33.5428 40.1827L34.0279 40.5944L34.5171 41.0055L34.5252 41.0098L35.0066 41.417L35.4995 41.8203L35.9639 41.2406L35.9849 41.2154L35.9639 41.2028ZM27.6714 19.0623C27.7172 21.2543 27.8177 23.4208 27.9769 25.5999C27.9977 25.9022 28.0184 26.2047 28.0435 26.5069C28.2208 28.327 28.4509 30.1416 28.7336 31.9484L28.9217 31.9025L29.1977 31.8308C29.6077 30.2774 29.8335 28.7951 29.896 27.1827L29.9001 26.5192C29.5284 26.1916 29.4736 25.9692 29.4528 25.4779C29.5114 25.1211 29.5825 24.9405 29.7833 24.6383C29.6831 24.4199 29.6621 24.2225 29.6621 23.9873C29.6831 23.7773 29.7206 23.601 29.7833 23.4038C29.7289 23.3451 29.6748 23.2863 29.6204 23.2317C29.5356 23.1015 29.4629 22.9638 29.403 22.8204C29.3862 22.7404 29.3653 22.6649 29.3486 22.5852C29.3613 22.1399 29.5285 21.6826 29.6707 21.2625C29.7417 21.0737 29.7628 20.893 30.001 20.893C30.2225 20.9769 30.2309 21.0861 30.2772 21.3129C30.3858 21.8838 30.4987 22.4591 30.6075 23.0302C30.6493 22.8789 30.8038 22.8159 31.1466 22.8116C31.2051 22.8116 31.2512 22.8159 31.293 22.8284C31.4229 22.8705 31.4937 22.9629 31.5775 23.0426L31.9624 21.0273L32.0209 20.9476L32.2802 20.8006C32.6146 20.9855 32.6896 21.8166 32.6896 22.1987C32.6358 22.644 32.5269 22.9086 32.2551 23.2654C32.4057 23.5423 32.435 23.7273 32.4309 24.0422C32.3973 24.2729 32.3512 24.4453 32.2592 24.6592C32.4182 24.9617 32.4685 25.1591 32.4725 25.4949C32.4139 25.8981 32.3262 26.1247 32.0918 26.4523L32.1546 27.0066C32.3595 28.5895 32.5938 30.1643 32.8449 31.7343L33.0744 31.7974L33.3548 31.8692C33.7509 29.9167 34.0841 27.9519 34.3539 25.9779C34.4125 25.4448 34.4711 24.9156 34.5253 24.3867C34.7006 22.6155 34.8319 20.8403 34.9189 19.0626L27.6714 19.0623ZM34.5252 36.1766L34.4038 36.2607L34.2868 36.374L34.1865 36.4958L34.1111 36.6135L34.0572 36.7393L34.0193 36.8651L33.9942 37.0839L34.0029 37.2683L34.0405 37.4237L34.1114 37.5454L34.2035 37.6254L34.3164 37.676L34.4462 37.6924L34.5253 37.6881L34.5969 37.684L34.7638 37.6295L34.9313 37.537L35.0901 37.3983L35.2495 37.2176L35.3497 37.0706L35.4163 36.9236L35.4586 36.7766L35.4711 36.6344L35.4546 36.4328L35.4086 36.2688L35.333 36.1388L35.2288 36.0424L35.1535 36.013L35.0614 36L34.9442 36.013L34.8107 36.0424L34.6686 36.0969L34.5352 36.1684L34.5252 36.1766ZM34.5252 42.0006L34.2746 41.8199L33.894 41.5217L33.5262 41.2066L33.1913 40.9044L33.0743 40.7867L32.865 40.5852L32.5559 40.2575L32.255 39.9177V40.9714L32.4844 41.1814L32.7144 41.3913L32.9445 41.5971L33.1829 41.799L33.5132 42.0718L33.8476 42.3446L34.1827 42.6091L34.5252 42.8696L35.0691 42.3784L34.6674 42.1052L34.5252 42.0006ZM32.2335 32.1964V33.8253L33.4254 35.9036L33.9106 35.2487L32.2335 32.1964ZM33.0739 42.8613L33.0366 42.8402L32.8192 42.668L32.6518 42.5128L32.501 42.3406L32.3628 42.156L32.2416 41.9626V43.9029L32.3379 43.7724L32.4465 43.6591L32.5678 43.5584L32.7059 43.4784L32.9614 43.3607L33.0736 43.3272L33.2201 43.2853L33.4919 43.2391L33.7682 43.2307L33.5128 43.1214L33.2662 42.9913L33.0739 42.8613ZM31.2926 23.5423L31.0585 23.5045L30.7533 23.5423L30.519 23.6642L30.36 23.8784L30.2767 24.1807L30.4898 24.3864V24.6592L29.9212 25.3479L30.0717 25.52L30.306 25.3939L30.5444 25.3058L30.7994 25.264L31.0585 25.2555L31.2926 25.289L31.3137 25.2933L31.5562 25.3646L31.7861 25.4779L31.9954 25.6291L32.1668 25.3563L31.5437 24.672V24.3907L31.7861 24.1807L31.7195 23.8912L31.5731 23.6769L31.3553 23.5508L31.2926 23.5423ZM31.2926 25.6291L31.0922 25.6125L30.8538 25.6546L30.6572 25.7595L30.5023 25.9191L30.3894 26.1417L31.0585 26.7591L31.2926 26.5196L31.778 26.0243L31.6568 25.8353L31.5017 25.7051L31.3135 25.6294L31.2926 25.6291ZM30.49 27.1072V44.7508H31.4642V27.1072H30.49ZM28.9217 46.3712L28.6666 46.2749L28.1564 46.1448L27.9765 46.1154L27.6085 46.0566L27.023 46.0229L26.4837 46.0353H26.3957L25.8186 46.0942L25.2541 46.1993L25.0909 46.2452L25.0368 46.2581L24.6981 46.3506L24.1503 46.5475L24.2882 46.7369L24.4513 46.892L24.6396 47.014L24.8527 47.1022L25.0368 47.1103L25.0909 47.1062L25.4214 47.0897L26.0193 47.039L26.8181 46.9592L27.9763 46.8038L28.3944 46.7494L28.7081 46.8251L28.9211 46.909L29.0048 46.9467L29.2768 47.1102L29.5234 47.316L29.841 46.9467L29.5735 46.7328L29.2891 46.5475L28.984 46.3964L28.9217 46.3712ZM27.9769 35.4039L27.9391 35.4669L27.9769 35.4882L28.6208 35.8157L28.9217 35.3117L29.779 33.8675V32.1793L27.9769 35.4039ZM28.9217 36.7646L28.8759 36.8278L28.88 36.9034L28.8759 36.9747L28.8715 37.0464L28.8592 37.1217L28.8171 37.2769L28.7711 37.4197L28.7167 37.5498L28.6538 37.6672L28.5705 37.7891L28.4785 37.9024L28.3783 38.0036L28.2612 38.096L28.1524 38.1713L28.0312 38.2388L27.9769 38.2594L27.8932 38.2975L27.7384 38.3477L27.6674 38.3688L27.5962 38.3812L27.525 38.3942H27.4499L27.4289 38.4488L27.4081 38.5029L27.3788 38.5574L27.3452 38.6079L27.2741 38.7127L27.1989 38.8052L27.1237 38.889L27.0444 38.9608L26.9523 39.036L26.8518 39.0991L26.7512 39.1537L26.6427 39.2L26.5463 39.2335L26.4837 39.2507L26.4376 39.2631L26.3164 39.2841L26.1865 39.3006H26.0109L25.9524 39.2925L25.5594 39.54L25.9524 40.405L26.3789 40.0904L26.4833 40.0064L26.7928 39.7631L27.1982 39.4267L27.5956 39.0785L27.9761 38.7176L28.1599 38.5455L28.7117 37.995L28.9209 37.777L29.2472 37.4324L29.7657 36.8531V35.5307L28.9217 36.7646ZM28.9217 38.8515L28.583 39.196L28.1524 39.607L27.9769 39.7627L27.6674 40.0356L27.1697 40.4471L26.6596 40.8376L26.4838 40.9593L26.1325 41.2071L26.4838 41.6063L26.5717 41.7068L27.019 41.3876L27.4581 41.0602L27.889 40.7159L27.9769 40.6442L28.3113 40.3672L28.6919 40.0356L28.9217 39.8255L29.0681 39.691L29.4277 39.343L29.7831 38.982V37.8774L29.3983 38.3313L28.9969 38.7717L28.9217 38.8515ZM28.9217 40.7995L28.7125 40.9929L28.3113 41.3244L27.9769 41.572L27.9599 41.585L27.5962 41.8243L27.2239 42.0466L26.8352 42.2482L27.3495 42.7774L27.6755 42.5798L27.9769 42.387L28.0018 42.37L28.3197 42.156L28.6334 41.9333L28.9217 41.7192L28.9344 41.711L29.2271 41.4842L29.5157 41.249L29.7958 41.0055V39.8758L29.4528 40.2709L29.0934 40.6402L28.9217 40.7995ZM28.9217 42.8487L28.7798 42.9499L28.5456 43.0969L28.3031 43.2185L28.0522 43.3233L28.2946 43.3274L28.5373 43.3486L28.7715 43.3991L28.9222 43.441L29.0057 43.4663L29.2191 43.5544L29.4198 43.6551L29.6121 43.7813L29.7919 43.9196V41.9211L29.6206 42.1605L29.4326 42.3873L29.2276 42.5932L29.0017 42.7861L28.9217 42.8487ZM31.2926 24.5883L31.2844 24.6219L31.2722 24.6555L31.2552 24.6849L31.2384 24.7101L31.2219 24.731L31.201 24.7477L31.1758 24.7644L31.1466 24.7813L31.1173 24.7898L31.0837 24.7982H31.0211L30.9959 24.7898L30.9667 24.7813L30.9374 24.7644L30.9123 24.7477L30.8874 24.7268L30.8664 24.7016L30.8495 24.6764L30.8371 24.6515L30.8286 24.6221L30.8203 24.5884V24.5254L30.8286 24.4961L30.8371 24.4666L30.8495 24.4373L30.8664 24.4121L30.8874 24.3869L30.9123 24.3703L30.9374 24.3493L30.9667 24.3366L30.9959 24.3239L31.0211 24.3196L31.0545 24.3154L31.0837 24.3196L31.1173 24.3239L31.1466 24.3366L31.1758 24.3493L31.201 24.366L31.2219 24.3869L31.2384 24.4079L31.2552 24.4288L31.2722 24.4624L31.2844 24.4918L31.2926 24.5254V24.5883ZM27.9769 30.2228C27.7207 28.5776 27.5005 26.9271 27.3162 25.2724C27.1209 23.2025 26.9842 21.1275 26.9063 19.0499H24.6902C24.778 20.6748 24.8951 22.2829 25.0373 23.8953C25.0539 24.0927 25.0707 24.2858 25.0914 24.4832C25.1333 24.9535 25.1792 25.4194 25.2296 25.8897C25.5043 28.1904 25.8362 30.4835 26.2247 32.7674L26.4838 32.6792L27.9769 32.1882L28.2778 32.0871C28.1734 31.4663 28.0731 30.845 27.9769 30.2228ZM27.9769 36.4328L28.052 36.5628L28.1064 36.7181L28.1356 36.9285L28.1313 37.1003L28.0855 37.243L28.0018 37.3442L27.9769 37.3606L27.8137 37.4488L27.5837 37.4782L27.3078 37.4364L26.9942 37.3228L26.9315 37.2513L26.7974 37.0795L26.6972 36.9369L26.6302 36.8361L26.601 36.7645L26.5675 36.5838V36.4198L26.5967 36.2776L26.6596 36.1512L26.7431 36.0548L26.8476 35.9836L26.969 35.9331L27.1111 35.9118L27.2449 35.9205L27.387 35.9623L27.5377 36.0343L27.6883 36.1388L27.8429 36.2732L27.9643 36.4156L27.9769 36.4328ZM26.4838 38.3898L26.5089 38.3603L26.5549 38.2216L26.559 38.0453L26.5255 37.8351L26.4837 37.7218L26.4712 37.6841L26.3876 37.5371L26.262 37.3944L26.1113 37.2605L25.9568 37.1553L25.8105 37.084L25.6683 37.0417L25.5303 37.0335L25.3881 37.0546L25.2668 37.1004L25.1623 37.1722L25.0911 37.2605L25.0787 37.2729L25.037 37.3569L25.0162 37.3988L24.9869 37.5414V37.7009L25.0204 37.8815L25.0373 37.9196L25.0539 37.9532L25.0917 38.0163L25.1167 38.0587L25.2172 38.1969L25.3509 38.3732L25.4177 38.4404L25.7313 38.5579L26.0072 38.6003L26.2372 38.5709L26.4253 38.4657L26.4838 38.3898ZM25.0914 30.3782C25.0705 30.2521 25.0537 30.1221 25.0373 29.996C24.8997 28.9968 24.7729 27.996 24.6566 26.9939C24.3925 24.3592 24.1848 21.7189 24.0337 19.0751H21.8341C21.9153 21.5303 22.0702 23.9826 22.2983 26.4285C22.303 26.4774 22.3067 26.5264 22.3124 26.5753C22.5958 29.0642 22.9534 31.508 23.3811 33.9769L23.6611 33.8507L25.037 33.2338L25.0911 33.2088L25.4883 33.0281C25.346 32.1464 25.2137 31.2631 25.0914 30.3782ZM25.037 39.5483L25.0787 39.4182L25.0871 39.2419L25.0537 39.0319L25.037 38.986L24.9993 38.8809L24.9115 38.7339L24.7902 38.591L24.6353 38.4571L24.4847 38.3519L24.3341 38.2806L24.1961 38.2388L24.0582 38.2301L23.916 38.2512L23.7907 38.2975L23.6902 38.3688L23.661 38.4066L23.6066 38.4695L23.5439 38.5954L23.5145 38.738V38.898L23.5481 39.0785L23.5773 39.1498L23.6443 39.2549L23.661 39.2797L23.7446 39.3973L23.8783 39.5696L23.941 39.6365L24.2587 39.754L24.5307 39.7964L24.7606 39.7671L24.9489 39.6619L25.0326 39.5572L25.037 39.5483ZM22.3064 40.8164L23.4731 40.3796L22.7957 39.54L22.3064 39.7207L21.7169 39.9394L22.0725 40.9048L22.3064 40.8164ZM22.3064 31.7724C22.4538 32.6488 22.6114 33.5238 22.7791 34.3966L22.3064 34.6736L20.9641 35.4545C20.5334 32.7254 20.0108 30.0128 19.7054 27.2626C19.4002 24.5208 19.0782 21.8378 19.17 19.0622L20.9639 19.0748H21.0852C21.1606 21.6235 21.3195 24.1261 21.5663 26.6662C21.7744 28.3738 22.0212 30.0762 22.3064 31.7724Z" fill="#333333"/>
<path id="Vector_2" fill-rule="evenodd" clip-rule="evenodd" d="M25.4302 51.5111L25.1039 51.4604L24.7777 51.4104L24.4474 51.3559L24.1211 51.3013L23.4896 51.1838L23.3055 51.1462L23.2092 51.1209L22.8455 50.9739L22.511 50.81L22.2058 50.6294L21.9257 50.4283L21.7333 50.2643L21.5369 50.0543L21.3319 49.8108L21.1185 49.5251L20.9805 49.324L20.8553 49.1096L20.734 48.8832L20.6211 48.6437L20.2362 47.6778L19.7678 46.3423L19.2241 44.642L18.5969 42.5682L18.1244 40.9137L17.7019 39.3349L17.3258 37.8277L17.0036 36.3915L16.5521 34.1534L16.1633 31.983L15.8327 29.8874L15.5651 27.8595L15.2723 25.105L15.0549 22.4514L14.9169 19.9027L14.8542 17.4546V16.4554L14.8792 15.5903L14.9293 14.8723L15.0045 14.293L15.0465 14.0831L15.1015 13.8809L15.1643 13.688L15.2395 13.4989L15.4486 13.0623L15.6702 12.6717L15.9003 12.3231L16.1429 12.0209L16.4397 11.7102L16.7617 11.429L17.1046 11.1729L17.4726 10.9544L17.824 10.7864L18.2168 10.6355L18.6514 10.5052L19.1366 10.396L19.2244 10.3833L19.375 10.3706L19.5923 10.3582L19.8727 10.3415L20.3536 10.3333H42.157L42.3787 10.3375L42.5878 10.3502L42.78 10.3753L42.9598 10.409L43.4324 10.5308L43.8592 10.6693L44.248 10.8248L44.5908 11.0012L44.9589 11.2364L45.3102 11.4967L45.6276 11.7907L45.9286 12.1098L46.1675 12.4247L46.3931 12.7818L46.6148 13.1849L46.8194 13.6301L46.8947 13.8273L46.9576 14.0204L47.0038 14.2126L47.0371 14.4099L47.1208 15.3967L47.1458 16.7783L47.1208 18.5543L47.0371 20.7208L46.9201 22.791L46.7527 24.8442L46.5395 26.8764L46.2802 28.8917L46.0465 30.4245L45.745 32.0871L45.3854 33.893L44.963 35.8368L44.5575 37.5668L44.127 39.2756L43.671 40.9677L43.186 42.6387L42.7512 44.0623L42.3288 45.3595L41.9188 46.5356L41.5219 47.5852L41.409 47.8578L41.3131 48.0849L41.2294 48.2614L41.1543 48.387L40.8406 48.8575L40.5228 49.2734L40.2007 49.6303L39.8744 49.9327L39.5193 50.1971L39.1093 50.4487L38.6451 50.6883L38.131 50.911L37.9554 50.9739L37.7546 51.0284L37.5246 51.0786L37.2659 51.1249L35.848 51.3177L34.2296 51.4734L32.419 51.5824L30.4159 51.6541L29.1698 51.6666L27.9195 51.6501L26.6776 51.5954L25.4302 51.5111ZM20.362 11.1729L19.902 11.1813L19.6512 11.194L19.4588 11.2065L19.3206 11.215L19.2454 11.2274L18.8524 11.3156L18.4887 11.4247L18.1666 11.5466L17.8781 11.6851L17.5729 11.8742L17.2843 12.0842L17.0165 12.3194L16.7657 12.5797L16.5691 12.8316L16.3769 13.1172L16.1927 13.4447L16.0213 13.806L15.9543 13.9654L15.9 14.1291L15.854 14.3013L15.8206 14.4734L15.7536 15.0069L15.7077 15.6743L15.6868 16.4763V17.4168L15.7538 19.8772L15.8918 22.4177L16.1092 25.0504L16.3977 27.7629L16.6612 29.7699L16.9875 31.84L17.3723 33.9855L17.82 36.2024L18.142 37.63L18.51 39.1288L18.9322 40.7034L19.405 42.3491L20.0153 44.3689L20.5423 46.0278L20.9981 47.3294L21.3704 48.274L21.4706 48.4881L21.5792 48.6896L21.6921 48.8789L21.8093 49.0552L21.9807 49.2857L22.1439 49.479L22.3028 49.6468L22.4576 49.7813L22.675 49.9367L22.9134 50.0793L23.1726 50.2051L23.4444 50.3145L23.524 50.3357L23.6828 50.3692L23.9255 50.4151L24.2476 50.4696L24.5612 50.5242L25.1927 50.625L25.5105 50.6712L26.7358 50.7552L27.9611 50.8093L29.1905 50.8305L30.4199 50.818L32.3689 50.7463L34.1333 50.6374L35.7138 50.4904L37.1024 50.301L37.3324 50.2592L37.5415 50.2173L37.7213 50.1667L37.8719 50.1122L38.3068 49.9233L38.6956 49.7259L39.0424 49.5118L39.3399 49.2849L39.6198 49.0289L39.8874 48.7308L40.1592 48.3821L40.4227 47.9877L40.4855 47.8741L40.5608 47.7142L40.6486 47.5132L40.7491 47.2651L41.142 46.2241L41.5476 45.0651L41.9617 43.7927L42.3881 42.4029L42.8689 40.74L43.321 39.0606L43.7516 37.3602L44.1532 35.6432L44.5674 33.724L44.9268 31.9395L45.2196 30.2936L45.4534 28.7821L45.7087 26.7962L45.9219 24.7807L46.085 22.7274L46.2104 20.6449L46.2901 18.5497L46.3234 16.8408L46.2985 15.5224L46.2231 14.5901L46.1938 14.4222L46.1563 14.2542L46.1019 14.0863L46.0351 13.9184L45.8639 13.545L45.6839 13.2132L45.4959 12.9149L45.2951 12.6545L45.0444 12.3857L44.7768 12.1421L44.4882 11.9238L44.1786 11.7265L43.8862 11.5795L43.5642 11.4492L43.2046 11.3316L42.8111 11.235L42.6605 11.2056L42.4976 11.1889L42.3177 11.1722L20.362 11.1729Z" fill="#333333"/>
</g>
</svg>
