<svg width="62" height="62" viewBox="0 0 62 62" fill="none" xmlns="http://www.w3.org/2000/svg">
<path d="M26.1926 10.0811C31.9872 9.87689 37.7875 10.0797 43.572 10.4511C44.181 10.504 44.798 10.4997 45.3976 10.6278C45.722 10.706 46.0725 10.8299 46.2622 11.1246C46.4353 11.4454 46.4389 11.8198 46.4838 12.1732C46.6214 13.9089 46.6619 15.6519 46.7915 17.3877C46.541 17.4181 46.2904 17.3797 46.0399 17.3718C41.5784 17.1408 37.1134 16.9489 32.6447 16.9431C30.3303 16.9496 28.0131 16.9272 25.7009 17.0394C25.1404 17.1219 24.506 17.3095 24.1823 17.8092C25.9319 18.1198 27.6778 18.4551 29.4266 18.7715C35.2226 19.8563 41.023 20.9172 46.8191 22.0005C46.814 23.0997 46.8162 24.199 46.8183 25.2982C43.559 24.7588 40.3054 24.1765 37.0482 23.6197C30.0407 22.4118 23.0353 21.1873 16.0256 19.991C16.0393 18.7708 16.0915 17.5514 16.1168 16.3305C16.161 15.3637 16.1335 14.384 16.3522 13.4346C16.4992 12.7648 16.7715 12.0913 17.2791 11.6127C18.1553 10.7451 19.4225 10.5011 20.6022 10.3787C22.4611 10.2064 24.3279 10.1499 26.1926 10.0811ZM15.9923 21.5964C26.0318 23.4488 36.0677 25.3323 46.1058 27.1955C46.3252 27.2491 46.5598 27.2534 46.7705 27.3338L46.7959 27.3917C46.7409 29.0384 46.709 30.6866 46.6496 32.3333C46.6112 33.3493 46.5041 34.4123 45.9812 35.3074C45.4207 36.2328 44.3765 36.7448 43.3432 36.9381C41.8203 37.2242 40.2648 37.243 38.7224 37.3277C32.0856 37.629 25.4351 37.4624 18.8092 37.0062C18.2798 36.9693 17.7411 36.9599 17.2269 36.8128C16.9605 36.7288 16.6853 36.5934 16.5347 36.3472C16.3732 36.0243 16.363 35.6557 16.3232 35.3037C16.1813 33.3826 16.106 31.4578 16.0053 29.5345C19.4233 29.7517 22.847 29.8734 26.2715 29.9494C29.5779 30.003 32.8844 30.0023 36.1908 30.0349C36.9041 30.0646 37.6753 29.9284 38.2162 29.4273C38.2952 29.3368 38.4233 29.2528 38.4103 29.1174C36.92 28.8936 35.4384 28.6155 33.951 28.3708C27.9667 27.3476 21.9795 26.3338 15.9959 25.3048C15.9887 24.0687 15.9973 22.8325 15.9923 21.5964Z" fill="#333333"/>
<path d="M42.6248 46.1485V48.4376H35.3442V47.7928C35.3442 46.7933 35.5049 46.1324 36.6782 46.1324H42.6248V46.1485ZM36.2281 44.73C34.3156 44.73 33.4316 45.7455 33.4316 47.3898V52.0001H35.3442V49.8722H42.6248V51.984H44.5374V44.73H36.2281ZM46.9 44.73V46.1485H51.4002V51.984H53.3128V46.1485H57.813V44.73H46.9ZM21.1525 49.1952C21.1525 50.2108 21.3614 50.5815 22.4865 50.5815H30.4743V52.0001H22.0365C20.1239 52.0001 19.2238 51.1296 19.2238 49.5015V44.73H30.4582V46.1485H21.1364V47.5671H30.0725V48.9615H21.1364V49.2033L21.1525 49.1952ZM7.45903 47.2608C6.86437 47.2125 6.76793 47.0029 6.76793 46.6483C6.76793 46.3259 6.94473 46.1324 7.39475 46.1324H16.2183V44.73H7.16974C5.88397 44.73 5 45.2297 5 46.6644C5 48.099 5.65896 48.5988 7.13759 48.7277L14.2897 49.3242C14.8361 49.3725 14.9969 49.5498 14.9969 49.9528C14.9969 50.3236 14.8361 50.5654 14.3379 50.5654H5.35359V51.984H14.4826C16.0576 51.984 16.7487 51.3553 16.7487 49.8722C16.7487 48.5182 16.1219 47.9701 14.5951 47.8411L7.45903 47.2608Z" fill="#333333"/>
</svg>
