<svg width="63" height="62" viewBox="0 0 63 62" fill="none" xmlns="http://www.w3.org/2000/svg">
<g id="54d0cfe0d1ffa94e62fa159dbc62a733_1650381616">
<path id="Vector" fill-rule="evenodd" clip-rule="evenodd" d="M51.5041 30.9973V31.0025C51.5042 33.65 50.9813 36.2716 49.9657 38.7167C48.9499 41.1617 47.4614 43.3821 45.5853 45.2502C43.717 47.1282 41.4957 48.6181 39.0493 49.6341C36.6029 50.6502 33.9798 51.1724 31.3307 51.1707C28.6823 51.1723 26.0597 50.6499 23.6139 49.6339C21.168 48.6179 18.9474 47.1281 17.0796 45.2502C15.2027 43.3825 13.7133 41.1624 12.697 38.7172C11.6807 36.2721 11.1575 33.6503 11.1575 31.0025V30.9973C11.1575 25.4447 13.4245 20.4014 17.0796 16.7446C18.9484 14.8686 21.1693 13.3802 23.6151 12.365C26.0607 11.3499 28.6828 10.8279 31.3307 10.8292C36.8885 10.8292 41.9336 13.0944 45.5853 16.7479C47.4613 18.6168 48.9499 20.8379 49.9656 23.2834C50.9812 25.7289 51.5041 28.351 51.5041 30.999V30.9973ZM31.3307 10.3333C28.6173 10.3321 25.9305 10.8672 23.4245 11.9078C20.9186 12.9485 18.6431 14.4741 16.7287 16.3971C14.8062 18.3112 13.2808 20.5865 12.2405 23.0922C11.2001 25.5978 10.6653 28.2843 10.6666 30.9973V31.0025C10.6661 33.715 11.201 36.401 12.2407 38.9065C13.2804 41.4119 14.8045 43.6876 16.7253 45.6029C18.6403 47.5252 20.9161 49.0506 23.4221 50.0914C25.9279 51.1322 28.6147 51.668 31.3283 51.668C34.0417 51.668 36.7285 51.1322 39.2344 50.0914C41.7404 49.0506 44.016 47.5252 45.9311 45.6029C47.8547 43.6889 49.3814 41.4137 50.4232 38.9081C51.4651 36.4024 52.0018 33.7158 52.0024 31.0021C52.0031 28.2886 51.4675 25.6015 50.4268 23.0956C49.3861 20.5895 47.8606 18.3136 45.9379 16.3988C44.0226 14.4754 41.7463 12.9494 39.2395 11.9085C36.7327 10.8676 34.045 10.3323 31.3307 10.3333Z" fill="#333333"/>
<path id="Vector_2" fill-rule="evenodd" clip-rule="evenodd" d="M38.0136 14.6726L38.1756 14.7434C38.5618 14.9054 38.7996 15.1061 38.9126 15.3405C39.0222 15.5733 39.0055 15.86 38.8536 16.2024C38.7102 16.5432 38.5163 16.759 38.2784 16.84C38.0288 16.9244 37.7218 16.8839 37.3373 16.722L37.1736 16.6477L38.0136 14.6743V14.6726ZM36.7789 17.4286C37.2444 17.6243 37.597 17.7457 37.8415 17.793C38.081 17.8336 38.3173 17.8301 38.5433 17.7829C38.8307 17.7247 39.0974 17.5907 39.3157 17.3949C39.535 17.1994 39.7155 16.9395 39.8471 16.6242C39.982 16.3071 40.0393 16.0034 40.0326 15.7066C40.0189 15.4138 39.9294 15.1295 39.7728 14.8817C39.6443 14.6765 39.4763 14.4987 39.2786 14.3588C39.0712 14.2088 38.6884 14.0164 38.13 13.7803L37.3844 13.4649L35.8664 17.0458L36.6137 17.3662L36.7789 17.4286ZM30.221 13.696C30.3097 13.5895 30.4213 13.5047 30.5475 13.4473C30.6736 13.3901 30.8111 13.3621 30.9496 13.3653C31.2347 13.3653 31.4809 13.475 31.6715 13.696C31.8694 13.9189 31.9739 14.2094 31.9633 14.5073C31.9633 14.8379 31.8705 15.1145 31.6765 15.3338C31.5859 15.4367 31.4739 15.5186 31.3483 15.574C31.2228 15.6293 31.0868 15.6567 30.9496 15.6543C30.8115 15.6583 30.6742 15.6317 30.5476 15.5762C30.421 15.5208 30.3083 15.438 30.2175 15.3338C30.0218 15.1041 29.9205 14.8087 29.9342 14.5073C29.9342 14.1801 30.032 13.9068 30.221 13.6976V13.696ZM29.4838 15.9528C29.6751 16.146 29.9037 16.2982 30.1557 16.4002C30.4077 16.5022 30.6778 16.5521 30.9496 16.5465C31.2228 16.5465 31.4842 16.4959 31.7423 16.3965C32.2449 16.1906 32.6476 15.7974 32.8656 15.3001C32.972 15.0504 33.0243 14.7873 33.0243 14.5073C33.0243 14.2289 32.972 13.9692 32.8656 13.7246C32.7602 13.4765 32.6069 13.2518 32.4145 13.0631C32.2219 12.8743 31.9942 12.7254 31.744 12.6249C31.4916 12.5226 31.222 12.4694 30.9496 12.468C30.6729 12.468 30.4031 12.5237 30.15 12.6249C29.9004 12.7278 29.671 12.8779 29.4838 13.0651C29.2884 13.2521 29.1323 13.4764 29.025 13.7246C28.8186 14.2271 28.8186 14.7908 29.025 15.2932C29.1313 15.5396 29.278 15.7622 29.4838 15.9528ZM44.6205 19.4562C44.5683 19.5269 44.5328 19.5826 44.5109 19.6163L43.7822 20.7449L43.1059 19.9351L44.3355 19.4122C44.413 19.3785 44.4873 19.3415 44.5716 19.3027C44.6509 19.2655 44.7335 19.2184 44.8212 19.1778C44.7516 19.2695 44.684 19.3629 44.6188 19.4578L44.6205 19.4562ZM41.0362 19.731L41.711 20.5441L42.3772 20.2505L43.347 21.4026L42.9388 22.0031L43.6136 22.806L45.727 19.2791L44.8735 18.2602L41.0362 19.731ZM17.3849 18.4643L16.9987 17.486L16.7304 17.7964L16.803 18.4441L16.1552 18.4678L15.8854 18.773L16.9041 19.0193L17.3849 18.4643ZM17.4979 20.7465C17.7154 20.9337 17.9364 21.0214 18.1642 21.0113C18.3919 20.9978 18.6702 20.8865 18.9991 20.6605C19.2352 20.5052 19.4022 20.4192 19.5085 20.4041C19.6147 20.3872 19.7109 20.4243 19.8121 20.5121C19.8542 20.5479 19.8878 20.5927 19.9102 20.6432C19.9327 20.6937 19.9436 20.7486 19.942 20.8039C19.9348 20.9297 19.8848 21.0493 19.8003 21.1428C19.6904 21.2629 19.5508 21.3519 19.3955 21.4009C19.1993 21.4633 18.994 21.4923 18.7883 21.4869L19.0682 22.3658C19.3549 22.3388 19.6029 22.2764 19.8206 22.1667C20.0443 22.0499 20.244 21.892 20.4092 21.7012C20.706 21.3588 20.8444 21.0046 20.8343 20.6385C20.8276 20.4529 20.7806 20.2711 20.6967 20.1053C20.6129 19.9396 20.4941 19.7941 20.3485 19.6788C20.2371 19.5767 20.1086 19.495 19.969 19.4376C19.8432 19.3873 19.7077 19.366 19.5726 19.3752C19.3752 19.3802 19.0935 19.5118 18.7241 19.7632L18.6803 19.79C18.5646 19.8798 18.4329 19.9469 18.2923 19.9874C18.2473 19.9941 18.2014 19.9909 18.1577 19.9781C18.114 19.9652 18.0736 19.9431 18.0394 19.9133C18.005 19.8828 17.9785 19.8444 17.9621 19.8017C17.9457 19.7588 17.9398 19.7126 17.9448 19.667C17.9571 19.5577 18.0044 19.4553 18.0798 19.3752C18.1652 19.2766 18.2696 19.1963 18.3868 19.1391C18.5181 19.0758 18.6589 19.0342 18.8034 19.016L18.4442 18.2636C18.2475 18.313 18.0597 18.3927 17.8875 18.4998C17.7189 18.6077 17.567 18.7443 17.427 18.9046C17.3047 19.0324 17.2088 19.1831 17.1452 19.3482C17.0815 19.5131 17.0511 19.6892 17.056 19.866C17.0633 20.0356 17.1064 20.2018 17.1826 20.3536C17.2588 20.5054 17.3663 20.6392 17.4979 20.7465ZM24.4068 18.2568L23.6426 16.6882L25.5486 17.7003L26.7327 17.1167L24.4591 16.0135L24.9161 13.679L23.808 14.2172L23.4756 16.3458L22.7032 14.7603L21.7653 15.2208L23.4622 18.7123L24.4068 18.2568ZM45.555 37.4181C45.4234 37.2782 45.2969 37.1415 45.1602 37.0032C44.4164 38.1333 44.2916 39.449 44.4586 40.8473C44.1752 41.1896 43.8818 41.532 43.5933 41.8745C43.5299 41.4836 43.4625 41.0934 43.3909 40.7039C43.4736 40.6128 43.5528 40.515 43.6371 40.4239C43.5309 39.6143 42.8595 39.6143 42.75 40.1809C42.6808 40.3412 42.6622 40.5234 42.9692 40.8473C43.0198 41.3196 43.0789 41.7834 43.1312 42.2523C42.2422 42.9978 41.3686 43.8834 40.4746 44.6239C40.461 44.5632 40.4273 44.3539 40.4156 44.2815C40.8321 43.5832 41.2302 42.873 42.0246 42.4362C42.2726 41.8795 42.4294 41.387 42.2692 40.908C41.1829 41.6637 40.2957 42.5306 39.6885 43.5629C39.6025 44.0352 39.5181 44.5159 39.4304 44.9881C39.0982 45.2041 38.7608 45.4166 38.4251 45.6326C38.4303 45.3458 38.5972 45.054 38.6057 44.7673C39.4051 43.7518 38.2262 43.3453 37.9411 44.2612C38.0423 44.8617 38.0423 45.3475 37.8196 45.835C36.6474 46.2938 35.5982 46.7576 34.4225 47.2231C34.4124 47.1202 34.5491 46.8419 34.544 46.7407C35.2103 46.093 35.8091 45.835 36.8548 45.673C37.3001 45.3052 37.479 44.9207 37.398 44.4467C36.4416 44.6154 35.4801 44.8836 34.6822 45.4335C33.9283 45.8974 33.4425 46.5197 33.3397 47.3024L31.9666 47.4255C32.2568 47.1051 32.5435 46.7913 32.8319 46.4776C32.9872 46.4033 33.1406 46.3258 33.2924 46.2566C33.4915 45.3778 33.0799 45.3913 32.5705 45.5313C32.4979 45.6131 32.4428 45.7088 32.4085 45.8126C32.3743 45.9165 32.3616 46.0263 32.3715 46.1351C32.051 46.4826 31.7255 46.8334 31.2818 47.0494L30.1956 45.8737C30.2175 45.7639 30.2106 45.6504 30.1757 45.5439C30.1409 45.4376 30.0791 45.3421 29.9966 45.2665C29.4905 45.1265 29.074 45.1097 29.268 45.9901C29.4365 46.1521 29.5918 46.2482 29.7335 46.2094C30.0236 46.5265 30.307 46.8419 30.5971 47.1624L29.2308 47.0375C29.1228 46.2566 28.6303 45.6326 27.8797 45.1652C27.082 44.6154 26.129 44.3539 25.1674 44.1836C25.0831 44.6559 25.2585 45.0405 25.7106 45.4099C26.7546 45.5684 27.3535 45.8316 28.0247 46.4725C28.0163 46.5737 28.148 46.8587 28.1428 46.9583C26.9672 46.4945 25.9163 46.0288 24.744 45.5684C24.5248 45.0792 24.5248 44.5952 24.6226 43.9981C24.3325 43.0805 23.1654 43.487 23.9597 44.504C23.9665 44.7943 24.1351 45.0809 24.1402 45.3676L23.1333 44.7267C23.049 44.2494 22.9595 43.7754 22.8718 43.2981C22.2697 42.2675 21.3825 41.3989 20.2962 40.6414C20.141 41.1205 20.2928 41.6147 20.5408 42.1731C21.3335 42.6066 21.7333 43.3166 22.1515 44.0217C22.1347 44.0875 22.101 44.2949 22.0891 44.3641C21.1985 43.6219 20.3232 42.7364 19.4342 41.9892C19.4849 41.522 19.5422 41.0497 19.5945 40.579C19.9031 40.2619 19.8863 40.0781 19.8206 39.9178C19.7092 39.3512 19.0378 39.3512 18.9333 40.1608L19.1745 40.4424L18.9721 41.6063C18.6803 41.2689 18.3986 40.9265 18.1068 40.5774C18.2705 39.1825 18.1489 37.8702 17.4018 36.7401C17.2735 36.8801 17.1402 37.0168 17.0088 37.155C16.7423 37.0538 16.6546 36.7704 16.7557 36.2982C16.3543 35.9405 16.1012 36.0705 16.0169 36.6777C16.2531 36.8969 16.4437 37.1499 16.3593 37.5834C16.1148 37.4519 15.8702 37.322 15.634 37.1836C15.6256 37.4839 15.6223 37.7892 15.6156 38.0878C15.4469 37.9966 15.3018 37.8672 15.1922 37.71C15.0842 37.4907 14.9779 37.2747 14.8683 37.0622C14.3066 36.9307 14.0908 37.1415 14.2273 37.71C14.3926 37.7925 14.5613 37.8786 14.7283 37.9681C14.9237 38.0571 15.0815 38.2124 15.1736 38.4066L14.3673 38.609C15.2158 39.6986 16.1789 40.6246 17.562 40.9637C17.8301 41.2166 18.2839 41.6536 18.5487 41.9115C18.3615 41.9757 17.955 41.9014 17.7694 41.9689C17.6346 41.856 17.5502 41.699 17.422 41.5877C16.857 41.5473 16.4183 41.6046 16.8822 42.372C17.0948 42.507 17.3646 42.5306 17.6834 42.453C18.0916 42.3973 18.4897 42.3485 18.8945 42.2928C19.8104 43.0754 20.868 43.9221 21.7923 44.7048C20.949 44.558 19.9538 44.2258 19.1745 43.379C18.9379 43.1815 18.6543 43.0481 18.3513 42.9917C18.0483 42.9353 17.7358 42.9578 17.4439 43.0568C18.0629 43.8767 18.7747 44.5345 19.5557 45.0894C20.6589 45.6933 21.7147 45.7067 22.8162 45.4436C23.1151 45.5773 23.4159 45.7066 23.7186 45.8316L22.6728 46.1942C22.4332 46.0592 22.1887 46.0845 21.9441 46.2735C21.7467 46.6614 21.7923 46.9127 22.0724 47.0375C22.2966 47.1995 22.5496 47.1202 22.8297 46.7997C23.3322 46.6226 23.8282 46.4489 24.3191 46.2735C24.7356 46.3915 25.1557 46.5163 25.5672 46.6344C26.3651 46.8824 27.1645 47.1337 27.959 47.3766C27.4108 47.6162 26.7109 47.611 25.7899 47.2585C24.9431 46.7777 24.2482 46.8824 23.6173 47.2585C24.3713 48.0141 25.4188 48.4679 26.7546 48.6299C27.8493 48.4595 28.6185 48.0564 29.3287 47.6179C29.6322 47.6296 29.9342 47.633 30.2361 47.643C29.3557 48.2925 28.6759 49.0431 28.7062 50.1782C29.3522 49.1207 30.1197 48.3903 31.2818 48.1171C32.4491 48.6552 33.2149 49.3855 33.8592 50.4398C33.8912 49.3062 33.2114 48.5556 32.3327 47.9046C32.6346 47.8944 32.9349 47.891 33.2367 47.8877C33.9519 48.3228 34.7144 48.7209 35.8091 48.8947C37.1483 48.7293 38.1975 48.2772 38.9464 47.5233C38.3173 47.1505 37.624 47.041 36.7755 47.5233C35.8512 47.8776 35.1513 47.8776 34.6031 47.6414C35.4008 47.3968 36.1987 47.1505 36.9948 46.8993C37.4114 46.7812 37.8213 46.658 38.2463 46.54C38.7422 46.712 39.233 46.8857 39.729 47.0611C40.0141 47.3816 40.2687 47.4626 40.4981 47.2973C40.7798 47.1775 40.8169 46.9263 40.6163 46.5383C40.37 46.3459 40.1322 46.3241 39.8943 46.4573C39.5451 46.3342 39.1943 46.2161 38.8468 46.093L39.7527 45.7117C40.8524 45.9698 41.9116 45.9564 43.0081 45.3508C43.8138 44.7892 44.5264 44.1045 45.1198 43.3216C44.8283 43.2232 44.5165 43.2007 44.214 43.2565C43.9113 43.3123 43.6281 43.4445 43.3909 43.6404C42.61 44.4872 41.6131 44.8211 40.7798 44.9714C41.6974 44.1836 42.7584 43.3402 43.671 42.5576C44.0758 42.6082 44.4789 42.6588 44.8837 42.7144C45.2042 42.7954 45.4723 42.7684 45.6814 42.6369C46.1453 41.8694 45.7051 41.8104 45.1418 41.8475C45.0118 41.9638 44.9275 42.1174 44.801 42.2321C44.6154 42.1679 44.2039 42.2388 44.0201 42.1731C44.2832 41.9184 44.7284 41.4815 45.0034 41.2268C46.3849 40.8877 47.3513 39.9668 48.1981 38.8721C47.935 38.8047 47.6583 38.7371 47.3935 38.6747C47.461 38.4976 47.6111 38.3543 47.8388 38.2295L48.3432 37.9714C48.473 37.4046 48.2555 37.1922 47.6988 37.3253C47.5874 37.5396 47.4829 37.7555 47.3733 37.9714C47.2613 38.128 47.1169 38.2586 46.9499 38.3543C46.9465 38.0506 46.9381 37.7471 46.9331 37.4467L46.2111 37.8448C46.1184 37.413 46.3156 37.1685 46.5484 36.9408C46.4642 36.3319 46.2162 36.2053 45.8063 36.5613C45.9125 37.0335 45.8282 37.3203 45.5533 37.4181" fill="#333333"/>
<path id="Vector_3" fill-rule="evenodd" clip-rule="evenodd" d="M32.7428 32.7286C32.9905 32.4905 33.3218 32.3593 33.6653 32.3631C34.0089 32.3668 34.3372 32.5054 34.5796 32.7489C34.8244 32.9915 34.9635 33.3208 34.9668 33.6654C34.9699 34.0102 34.8368 34.342 34.5964 34.5891C34.3495 34.8279 34.018 34.9593 33.6746 34.9545C33.331 34.9499 33.0033 34.8094 32.763 34.5638C32.5184 34.3223 32.3792 33.994 32.3753 33.6503C32.3715 33.3068 32.5036 32.9754 32.7428 32.7286ZM29.0403 21.8745C30.2043 22.7364 30.8452 23.2879 31.4356 24.6273L30.9228 24.9241C29.9563 23.6506 28.8109 22.3366 27.4903 21.5894C26.07 20.8355 22.7708 24.5632 23.179 24.7353C24.4997 25.3559 26.2117 26.1571 27.1867 26.8604L26.7649 27.5302C25.4224 26.7509 23.2785 25.6815 22.199 25.749C21.6424 25.8333 20.4515 29.7043 21.052 29.8544C22.3002 29.959 24.6279 31.2157 25.7058 31.7605C26.4564 32.3575 28.7553 36.2253 27.8276 36.7718C27.5274 36.9522 26.6065 36.7448 25.6669 36.2791C21.3607 34.5318 21.0369 36.4817 21.8432 37.077C22.4925 37.4818 22.2698 38.1987 22.3018 38.3774C22.2648 39.4637 23.4252 40.3121 25.6585 38.7925C30.2363 38.8481 32.8422 38.9509 37.4286 39.015C37.8485 40.3594 40.7446 38.9982 41.679 37.8849C41.2878 36.9403 37.9278 34.5824 37.4943 36.9843L36.2883 36.7549C38.8858 31.219 38.1015 20.7747 32.0158 19.7526C31.088 19.6007 27.3081 20.596 29.0403 21.8778" fill="#333333"/>
<path id="Vector_4" fill-rule="evenodd" clip-rule="evenodd" d="M44.6507 31.1157C44.6515 32.8498 44.3092 34.5671 43.6436 36.1684C42.9781 37.7698 42.0025 39.2238 40.773 40.4467C39.5499 41.6735 38.0969 42.6469 36.4969 43.3111C34.8971 43.9752 33.1818 44.317 31.4496 44.317C29.7172 44.317 28.002 43.9752 26.4021 43.3111C24.8022 42.6469 23.3492 41.6735 22.1261 40.4467C20.8986 39.2225 19.9247 37.7683 19.2601 36.1671C18.5956 34.5658 18.2534 32.8493 18.2534 31.1157C18.2534 27.4841 19.7343 24.1833 22.1261 21.7932C23.3488 20.5667 24.8015 19.5936 26.401 18.9296C28.0005 18.2656 29.7151 17.9239 31.447 17.9237H31.4554C35.0886 17.9237 38.3845 19.4048 40.773 21.7932C42.0017 23.0148 42.9769 24.4674 43.6424 26.0673C44.3079 27.6673 44.6506 29.3829 44.6507 31.1157ZM31.4554 17.4211H31.447C29.65 17.4226 27.871 17.7787 26.2119 18.4689C24.5527 19.1593 23.0463 20.1703 21.7786 21.444C20.5041 22.7117 19.4926 24.2187 18.8022 25.8785C18.1118 27.5382 17.7562 29.318 17.7559 31.1157C17.7559 34.8889 19.2958 38.3146 21.7719 40.7976C23.0424 42.0705 24.5516 43.0804 26.2129 43.7692C27.8743 44.458 29.6552 44.8124 31.4537 44.812C33.2502 44.812 35.0289 44.4573 36.6881 43.7684C38.3471 43.0796 39.854 42.0699 41.1221 40.7976C42.3967 39.5289 43.4082 38.021 44.0984 36.3605C44.7886 34.6998 45.1438 32.9191 45.1438 31.1208C45.1438 29.3224 44.7886 27.5417 44.0984 25.8812C43.4082 24.2205 42.3967 22.7126 41.1221 21.444C39.8551 20.1694 38.3488 19.1578 36.6895 18.4674C35.0302 17.777 33.251 17.4215 31.4537 17.4211" fill="#333333"/>
</g>
</svg>
