<svg width="62" height="62" viewBox="0 0 62 62" fill="none" xmlns="http://www.w3.org/2000/svg">
<g id="Clip path group">
<mask id="mask0_254_6595" style="mask-type:luminance" maskUnits="userSpaceOnUse" x="0" y="0" width="62" height="62">
<g id="clip0_547_196">
<path id="Vector" d="M62 0H0V62H62V0Z" fill="white"/>
</g>
</mask>
<g mask="url(#mask0_254_6595)">
<g id="Group">
<path id="Vector_2" fill-rule="evenodd" clip-rule="evenodd" d="M9.98465 28.6444C10.7852 29.5575 11.5827 30.7325 11.9521 31.5903C11.5919 32.4464 10.7852 33.6155 9.98465 34.5361V28.6444ZM9.12869 36.4684C10.4527 35.6228 12.377 33.0557 12.865 31.5888C12.374 30.1563 10.4496 27.5518 9.12869 26.7046V36.4684Z" fill="#333333"/>
<path id="Vector_3" fill-rule="evenodd" clip-rule="evenodd" d="M-0.000317291 31.5866C-0.00112686 32.3577 0.154433 33.1214 0.457463 33.834C0.760493 34.5466 1.20505 35.1941 1.76569 35.7396C2.32635 36.2849 2.99209 36.7175 3.72484 37.0125C4.45758 37.3075 5.24296 37.4592 6.03603 37.4588C7.05209 37.4588 7.88189 37.2402 8.56234 36.8002V33.8663C7.88189 34.3408 6.97666 34.6327 6.29929 34.6327C4.40571 34.6327 3.05404 33.2735 3.05404 31.5866C3.05404 29.8981 4.40571 28.5735 6.29929 28.5735C6.97666 28.5735 7.88189 28.831 8.56234 29.3129V26.3791C7.88189 25.9659 7.05209 25.7085 6.03603 25.7085C4.43537 25.7144 2.90215 26.336 1.77117 27.4373C0.640181 28.5387 0.00333119 30.0303 -0.000317291 31.5866Z" fill="#333333"/>
<path id="Vector_4" fill-rule="evenodd" clip-rule="evenodd" d="M55.8539 27.476H54.7961C52.8718 27.5164 51.3262 28.9444 51.2461 30.82V36.7998H53.3613V30.9232C53.3613 30.1209 54.0387 29.4562 54.8731 29.4562H55.8539V27.476ZM59.059 33.348V29.4219H61.4005V27.4744H59.0606V25.6423H56.9484V33.4618C56.9821 34.355 57.3695 35.2011 58.0297 35.823C58.6897 36.4451 59.5715 36.795 60.4908 36.7998H61.5885V34.8509H60.6062C60.1988 34.8429 59.8102 34.6821 59.5218 34.4019C59.2335 34.1219 59.0677 33.7443 59.059 33.348ZM28.4539 30.7421C28.4539 29.8994 29.0898 29.2408 29.9226 29.2408C30.64 29.2408 31.4344 29.6823 31.4344 31.0011V36.7998H33.5465V30.9621C33.5465 29.787 34.3409 29.2408 35.0567 29.2408C35.965 29.2408 36.5686 29.8634 36.5686 30.7421V36.7998H38.6839V30.4786C38.6305 29.6164 38.2408 28.8064 37.5942 28.2139C36.9477 27.6214 36.093 27.2911 35.2046 27.2904C34.1515 27.2904 33.1663 27.7738 32.4874 28.5432C32.1569 28.1532 31.7421 27.8389 31.2724 27.6226C30.8028 27.4064 30.2898 27.2933 29.7702 27.2919C27.9628 27.2919 26.4141 28.6914 26.3017 30.4786V36.7998H28.4539V30.7421ZM44.9465 29.3126C46.489 29.3126 47.7745 30.5969 47.7745 32.173C47.7745 33.8644 46.6014 35.032 44.9465 35.032C44.562 35.0317 44.1813 34.9572 43.8266 34.813C43.4718 34.6688 43.1499 34.4577 42.8796 34.1919C42.6092 33.9261 42.3956 33.6108 42.2512 33.2643C42.1069 32.9178 42.0346 32.5469 42.0385 32.173C42.0385 30.5969 43.3193 29.3142 44.9481 29.3142L44.9465 29.3126ZM44.9481 37.0124C46.0349 37.0124 47.0571 36.6141 47.6637 35.9196V36.7983H49.7759V32.173C49.7759 29.3485 47.736 27.3322 44.9065 27.3322C42.1524 27.3322 40.0016 29.4219 40.0016 32.1371C40.0016 34.9617 42.0738 37.0124 44.9465 37.0124H44.9481ZM17.5482 33.9019L16.0732 35.33C16.2242 35.4751 17.9176 37.0124 20.5286 37.0124C23.6184 37.0124 25.0162 35.5499 25.0162 34.1534C25.0162 32.4276 23.8462 31.513 21.3922 31.2196C19.3217 31.0011 18.9044 30.6313 18.9044 30.0819C18.9044 29.2408 20.2653 29.1285 20.8642 29.1285C21.8418 29.1285 22.8625 29.4937 23.5814 30.1224L24.9439 28.7962C24.3743 28.3561 23.0904 27.3322 20.5301 27.3322C18.0008 27.3322 16.6352 28.7962 16.6352 30.2316C16.6352 31.8812 17.9592 32.8332 20.7179 33.1281C21.8803 33.2462 22.7501 33.4259 22.7501 34.1968C22.7501 35.6218 19.0168 35.4751 17.5466 33.9019" fill="#333333"/>
<path id="Vector_5" fill-rule="evenodd" clip-rule="evenodd" d="M61.0249 25.4568H60.8709V25.2443H61.1003C61.2096 25.2443 61.2096 25.3131 61.2096 25.352C61.2096 25.4238 61.1326 25.4568 61.0249 25.4568ZM61.1727 25.5676C61.2528 25.5301 61.3636 25.4568 61.3636 25.352C61.3636 25.3131 61.3282 25.0991 61.1003 25.0991H60.6077V25.2443H60.7201V25.825H60.6077V25.9373H61.0234V25.825H60.8694V25.5706H60.9833C61.1003 25.6424 61.1727 25.7546 61.2481 25.9373H61.4775V25.825H61.3636C61.3282 25.7546 61.2528 25.611 61.1727 25.5706" fill="#333333"/>
<path id="Vector_6" fill-rule="evenodd" clip-rule="evenodd" d="M61.0253 26.1499C60.6481 26.1499 60.3433 25.8654 60.3433 25.5301C60.3433 25.3544 60.4151 25.186 60.5429 25.0618C60.6706 24.9376 60.844 24.8677 61.0245 24.8677C61.2052 24.8677 61.3786 24.9376 61.5063 25.0618C61.6341 25.186 61.7058 25.3544 61.7058 25.5301C61.7058 25.864 61.4009 26.1499 61.0253 26.1499ZM61.0253 24.5422C60.8914 24.5416 60.7586 24.5668 60.6346 24.6161C60.5107 24.6655 60.3979 24.7381 60.3027 24.8298C60.2077 24.9216 60.1321 25.0306 60.0804 25.1509C60.0288 25.271 60.0019 25.3999 60.0015 25.5301C60.0015 26.0496 60.4588 26.4897 61.0253 26.4897C61.284 26.4843 61.5305 26.3813 61.7126 26.2026C61.8947 26.0238 61.9982 25.7833 62.0014 25.5317C62.0014 24.9853 61.5504 24.5438 61.0253 24.5438" fill="#333333"/>
</g>
</g>
</g>
</svg>
