<svg width="62" height="62" viewBox="0 0 62 62" fill="none" xmlns="http://www.w3.org/2000/svg">
<g id="1dd359717d7cfd16cb61edbbe6656547_1650381530" clip-path="url(#clip0_254_6765)">
<path id="Vector" d="M29.2733 38.7456C29.9379 38.402 30.3566 37.7134 30.3632 36.9604C30.3632 36.4904 30.1506 34.9468 28.0503 34.9468H21.0053V42.5847H28.0637C30.4164 42.5847 30.5227 41.1216 30.5227 40.437C30.4992 40.0631 30.3685 39.7042 30.1467 39.4039C29.9249 39.1036 29.6214 38.875 29.2733 38.7456ZM23.2651 36.4904H27.4124C27.5214 36.4813 27.6312 36.4948 27.7349 36.5304C27.8385 36.5658 27.9338 36.6225 28.015 36.6967C28.0959 36.771 28.161 36.8614 28.206 36.9622C28.2509 37.0629 28.2748 37.1719 28.2764 37.2825C28.2884 37.3906 28.2766 37.5001 28.2419 37.6032C28.2072 37.7063 28.1503 37.8003 28.0754 37.8786C28.0005 37.9569 27.9093 38.0175 27.8084 38.0559C27.7075 38.0944 27.5996 38.1099 27.4921 38.1013H23.2651V36.4904ZM23.2651 41.041V39.39H27.4921C27.6098 39.3785 27.7283 39.3924 27.8403 39.4307C27.9522 39.4689 28.0549 39.5306 28.1415 39.6118C28.2281 39.6929 28.2968 39.7916 28.3429 39.9015C28.389 40.0113 28.4116 40.1297 28.4093 40.2491C28.408 40.3608 28.3837 40.4711 28.3379 40.5729C28.2921 40.6745 28.2259 40.7656 28.1434 40.8401C28.0608 40.9145 27.9638 40.971 27.8585 41.0055C27.7533 41.0401 27.6421 41.0522 27.532 41.041H23.2651ZM50.2886 39.645C50.9653 39.2141 51.3919 38.4772 51.4318 37.6718C51.4772 37.3082 51.4397 36.939 51.3222 36.5925C51.2046 36.2459 51.0101 35.931 50.7536 35.6719C50.4971 35.4128 50.1853 35.2165 49.8421 35.0978C49.4989 34.9791 49.1332 34.9412 48.7733 34.9871H42.0208V42.625H44.2937V40.2222H48.3745C48.9726 40.2638 49.4379 40.7592 49.4512 41.3631V42.5847H51.4716V41.4034C51.4352 41.034 51.3078 40.6797 51.1012 40.3726C50.8946 40.0654 50.6153 39.8153 50.2886 39.645ZM48.4543 38.8127H44.2937V36.4904H48.4543C49.0126 36.4904 49.3715 37.175 49.3715 37.712C49.3867 37.9791 49.3002 38.2419 49.1297 38.4467C48.9592 38.6513 48.7175 38.7823 48.4543 38.8127ZM34.5903 34.9468L30.5094 42.5847H32.7293L33.5668 41.041H38.3254L39.1495 42.5847H41.3827L37.2487 34.9468H34.5903ZM34.4441 39.39L35.9194 36.6382L37.488 39.39H34.4441Z" fill="#333333"/>
<path id="Vector_2" fill-rule="evenodd" clip-rule="evenodd" d="M59.6997 34.947V40.3968C59.6997 40.6922 59.5934 41.0412 59.168 41.0412H55.1803C55.0971 41.0536 55.0122 41.0469 54.932 41.0215C54.8517 40.9961 54.7782 40.9529 54.7168 40.8947C54.6555 40.8366 54.6079 40.7653 54.5777 40.6861C54.5475 40.6068 54.5353 40.5217 54.5423 40.4371C54.5423 38.0612 54.4492 34.9872 54.5423 34.9067H52.2825V41.0009C52.2825 42.1822 53.5321 42.5849 54.941 42.5849H60.1251C61.2683 42.5849 62.026 41.9673 61.9994 41.0009V34.947H59.6997ZM8.12504 37.8598C6.30397 37.7658 4.1373 37.7792 2.80806 37.7122C2.06367 37.7122 2.06367 36.2356 2.87451 36.2356H6.98189C7.55346 36.2356 7.55346 36.8666 7.55346 36.88H9.61379C9.61379 36.7994 9.82647 34.665 7.8326 34.665H1.83771C0.84077 34.665 0.122978 35.2692 0.122978 36.0075V37.6182C0.122978 38.6652 1.05345 39.1618 2.32952 39.2021C4.20376 39.2021 5.34691 39.3096 6.83567 39.3767C6.95176 39.3617 7.06969 39.3719 7.1816 39.4065C7.29351 39.4411 7.39683 39.4995 7.48469 39.5775C7.57254 39.6557 7.64291 39.7518 7.69111 39.8595C7.73932 39.9672 7.76425 40.084 7.76425 40.2022C7.76425 40.3203 7.73932 40.4372 7.69111 40.545C7.64291 40.6527 7.57254 40.7488 7.48469 40.8269C7.39683 40.905 7.29351 40.9633 7.1816 40.998C7.06969 41.0326 6.95176 41.0428 6.83567 41.0278H2.96757C2.85186 41.0299 2.73698 41.0076 2.63017 40.9627C2.52336 40.9177 2.42695 40.8508 2.34702 40.7664C2.26708 40.6819 2.20537 40.5815 2.16575 40.4717C2.12614 40.3619 2.10949 40.245 2.11685 40.1284H0.0299313C-0.00997709 40.3683 -0.00997709 40.6133 0.0299313 40.8533C0.0969803 41.3289 0.331328 41.7643 0.690121 42.0797C1.04891 42.3953 1.50818 42.5698 1.98392 42.5715H8.0054C8.22904 42.5976 8.45564 42.5765 8.67074 42.5093C8.88585 42.4422 9.08477 42.3306 9.25482 42.1816C9.42488 42.0326 9.56234 41.8495 9.65848 41.6439C9.7546 41.4383 9.80729 41.2147 9.81317 40.9875V39.3767C9.80672 39.1631 9.75723 38.9532 9.66769 38.7598C9.57816 38.5663 9.45049 38.3932 9.29248 38.2512C9.13446 38.1093 8.94943 38.0013 8.7487 37.934C8.54797 37.8667 8.33576 37.8415 8.12504 37.8598ZM17.8817 34.947V40.3968C17.8817 40.6922 17.7754 41.0412 17.3499 41.0412H13.3224C13.2396 41.051 13.1558 41.0426 13.0766 41.0163C12.9975 40.9901 12.9249 40.9465 12.8642 40.8891C12.8034 40.8315 12.7558 40.7612 12.7247 40.6832C12.6937 40.6052 12.6799 40.5211 12.6843 40.4371V34.9067H10.4645V41.0009C10.4645 42.1687 11.6741 42.5849 13.1229 42.5849H18.3204C19.4502 42.5849 20.2478 41.9673 20.2345 41.0009V34.947H17.8817Z" fill="#333333"/>
<path id="Vector_3" d="M23.9562 21.3358C21.8693 22.5842 20.5666 24.2755 20.5666 25.9936C20.5666 27.7118 21.8958 29.3763 23.9428 30.6112C26.2587 31.9123 28.8697 32.5831 31.5196 32.5576C34.1814 32.5904 36.8059 31.9243 39.1362 30.6247C41.2363 29.3897 42.5656 27.7118 42.5656 25.9936C42.5656 24.2755 41.2363 22.5842 39.1628 21.3358C36.8321 20.0221 34.2019 19.3465 31.5329 19.3759C28.8809 19.3478 26.2682 20.0236 23.9562 21.3358ZM42.2334 25.9936C42.2334 27.5911 40.9838 29.1616 38.99 30.3294C36.7114 31.6106 34.1407 32.2677 31.5329 32.2355C28.938 32.2662 26.3805 31.609 24.1157 30.3294C22.1352 29.1616 20.8989 27.6447 20.8989 25.9936C20.8989 24.3425 22.1485 22.7988 24.129 21.6176C26.3876 20.3333 28.941 19.6713 31.5329 19.6981C34.1384 19.6636 36.7066 20.3258 38.9767 21.6176C40.9705 22.7988 42.2334 24.3962 42.2334 25.9936Z" fill="#333333"/>
<path id="Vector_4" fill-rule="evenodd" clip-rule="evenodd" d="M27.5054 21.1079L26.4819 23.712L21.9756 24.6919L26.4819 25.6583L27.5585 28.437L28.6352 25.7255L33.5269 24.6919L28.582 23.6046L27.5054 21.1079ZM33.0882 26.155L31.1475 26.5846L33.0882 27.0275L33.5667 28.2088L34.0053 27.0812L36.1056 26.5846L34.0053 26.155L33.5269 25.0812L33.0882 26.155ZM38.6709 25.0812L38.1925 26.155L36.3183 26.5846L38.1925 27.0275L38.6709 28.2088L39.1096 27.0812L41.2098 26.5846L39.1096 26.155L38.6709 25.0812ZM37.3418 25.0275L37.7672 23.8194L39.854 23.3898L37.7672 22.9469L37.2753 21.8595L36.85 22.9469L34.9225 23.3898L36.85 23.8194L37.3418 25.0275ZM35.3479 27.6719L34.8693 28.7591L32.9818 29.1887L34.8693 29.6316L35.3479 30.7592L35.8264 29.6316L37.9267 29.1887L35.7732 28.7055L35.3479 27.6719ZM29.765 27.994L29.3264 29.1484L27.399 29.578L29.3264 29.9539L29.8183 31.1486L30.2436 30.0075L32.3438 29.578L30.2436 29.0814L29.765 27.994Z" fill="#333333"/>
</g>
<defs>
<clipPath id="clip0_254_6765">
<rect width="62" height="62" fill="white"/>
</clipPath>
</defs>
</svg>
