<svg width="62" height="62" viewBox="0 0 62 62" fill="none" xmlns="http://www.w3.org/2000/svg">
<g id="3cd526b30a5f111b331e85f330234370_1650381452">
<path id="Vector" fill-rule="evenodd" clip-rule="evenodd" d="M26.3419 19.0781C26.6537 18.0383 27.4426 18.5685 27.4426 18.5685C27.4426 18.5685 29.4898 20.1608 35.1023 23.8078C40.7136 27.4547 47.7103 22.3928 47.7103 22.3928L31.0922 10.3333C23.804 18.2266 14.474 21.0538 14.474 21.0538L14.5011 21.0635L35.7436 36.2756C35.4318 37.3155 34.6413 36.7852 34.6413 36.7852C34.6413 36.7852 32.5943 35.1929 26.9817 31.546C21.3691 27.8991 14.3737 32.9611 14.3737 32.9611L30.9919 45.0206C38.2801 37.1285 47.6101 34.3013 47.6101 34.3013L47.5829 34.2902L26.3419 19.0781ZM14.2083 49.807L16.7652 49.8208C16.8086 50.0672 16.7395 50.0658 16.8737 50.1946C17.0851 50.394 17.4118 50.4396 17.6858 50.3912C17.9108 50.3497 18.2578 50.2805 18.2754 49.9952C18.2931 49.6865 18.0842 49.5799 17.8212 49.5439C17.4579 49.4954 17.0906 49.4816 16.7286 49.4234C15.7945 49.2669 15.2984 49.1963 14.901 48.9388C14.4999 48.6786 14.4659 48.115 14.4659 47.7134C14.4659 47.449 14.5675 47.2012 14.7737 46.9658C14.977 46.7305 15.2861 46.5463 15.6983 46.412C16.1103 46.2778 16.6744 46.2112 17.3928 46.2112C18.2727 46.2112 18.9438 46.333 19.4047 46.5754C19.867 46.8191 20.1422 47.3619 20.2303 47.8935H18.0558C18.0721 47.8616 18.0137 47.719 18.0043 47.6844C17.9202 47.3757 17.6301 47.2856 17.3508 47.2234C17.1231 47.1721 16.8614 47.168 16.6554 47.2953C16.5306 47.3742 16.433 47.4573 16.433 47.5694C16.433 47.6512 16.4845 47.7245 16.5876 47.7911C16.6892 47.8575 16.9265 47.9211 17.3034 47.9793C18.2334 48.1288 18.899 48.2797 19.3016 48.432C19.7044 48.5857 19.9972 48.7755 20.1802 49.0011C20.3582 49.2126 20.4559 49.4824 20.4553 49.7612C20.4553 50.0893 20.3334 50.394 20.0893 50.6708C19.8453 50.9478 19.5036 51.1596 19.0658 51.3036C18.6266 51.4462 18.0748 51.5182 17.4078 51.5182C16.2365 51.5182 15.4244 51.3494 14.9743 51.0143C14.5228 50.6778 14.268 50.3261 14.2083 49.807ZM24.5808 46.3081H26.4706V49.9356C26.4706 50.6805 26.0178 51.208 25.1122 51.5182C24.6919 51.6609 24.1903 51.6663 23.621 51.6663C23.1111 51.6663 22.6543 51.676 22.23 51.5625C21.2336 51.1555 20.7346 50.6141 20.7346 49.9356V46.3081H22.638V49.4137C22.638 49.9813 22.7112 50.4009 23.621 50.4009C24.551 50.4009 24.5699 49.962 24.5699 49.3957L24.5808 46.3081ZM36.9352 46.3081H38.825V49.9356C38.825 50.6805 38.3723 51.208 37.4667 51.5182C37.0464 51.6609 36.5447 51.6663 35.9754 51.6663C35.4657 51.6663 35.0074 51.676 34.5845 51.5625C33.588 51.1555 33.0891 50.6141 33.0891 49.9356V46.3081H34.9911V49.4137C34.9911 49.9813 35.0658 50.4009 35.9754 50.4009C36.9041 50.4009 36.9231 49.962 36.9231 49.3957L36.9366 46.3081H36.9352ZM26.8597 46.3441H32.7122V47.4601L29.8531 50.0838H32.7122V51.5445H26.8597V50.2888L29.6524 47.7025H26.8651L26.8597 46.3456V46.3441ZM39.2928 51.5363V46.3359H41.169V48.2603L43.1918 46.3359H45.5399L42.8461 48.8558L45.6524 51.5363H43.1185L41.1867 49.6754L41.2057 51.5363H39.2942H39.2928ZM45.9194 51.5363H47.7917V46.3359H45.9208L45.9194 51.5363Z" fill="#333333"/>
</g>
</svg>
