<svg width="62" height="62" viewBox="0 0 62 62" fill="none" xmlns="http://www.w3.org/2000/svg">
<g id="6d84f878387e44022031012b1c04c399_1650381419">
<path id="Vector" d="M31 19.5678L35.2625 14.3564C35.2625 14.3564 42.5733 14.5114 49.8515 17.8938C47.988 20.7114 44.287 22.0926 44.287 22.0926C44.0355 19.6143 42.2995 19.0098 36.7884 19.0098L31 51.6666L25.1772 19.0029C19.7005 19.0029 17.9645 19.6126 17.7113 22.0891C17.7113 22.0891 14.0155 20.7199 12.1503 17.9041C19.4267 14.5199 26.7375 14.3633 26.7375 14.3633L31 19.5678L30.9932 19.5713H31V19.5678ZM31 12.8529C36.8814 12.8012 43.617 13.7622 50.5093 16.7796C51.4307 15.1124 51.6667 14.3771 51.6667 14.3771C44.132 11.3873 37.076 10.3591 31 10.3333C24.924 10.3591 17.868 11.3838 10.3333 14.3788C10.3333 14.3788 10.6692 15.2829 11.4907 16.7829C18.383 13.7588 25.1187 12.8046 31 12.8477V12.8529Z" fill="#333333"/>
</g>
</svg>
