<svg width="62" height="62" viewBox="0 0 62 62" fill="none" xmlns="http://www.w3.org/2000/svg">
<g id="3e1cfce907aa1d93ceee331eb7e6352b_1650381393">
<path id="Vector" fill-rule="evenodd" clip-rule="evenodd" d="M17.0867 25.7494C17.9168 27.9096 21.0229 29.7099 25.4172 30.5482C25.4106 30.7952 25.4067 31.1084 25.4067 31.1084C25.4067 35.3406 26.4112 38.9943 28.0677 40.9647C20.1928 40.1264 14.3502 36.0152 14.3502 31.1851C14.3502 29.2381 15.3001 27.3715 17.0867 25.7494ZM20.6962 23.9051C21.1556 22.6169 24.2591 21.49 28.2251 21.1273C27.0931 22.405 26.2212 24.4652 25.7685 26.9686C23.1907 26.4929 21.3378 25.6727 20.7926 24.7421C20.695 24.5869 20.6419 24.408 20.639 24.2247C20.639 24.1156 20.6584 24.0074 20.6962 23.9051ZM41.3025 23.9051C41.3415 24.0116 41.3597 24.1169 41.3597 24.2247C41.3597 24.3937 41.3076 24.5692 41.2087 24.7421C40.6609 25.6727 38.8054 26.4929 36.2302 26.9686C35.7748 24.4652 34.9069 22.405 33.7762 21.1273C37.741 21.49 40.8483 22.6182 41.3025 23.9051ZM44.9133 25.7494C46.6987 27.3715 47.6498 29.2381 47.6498 31.1851C47.6498 36.0165 41.8072 40.1264 33.9298 40.966C35.5888 38.9943 36.5946 35.3406 36.5946 31.1084L36.5841 30.5482C40.9745 29.7099 44.0806 27.9096 44.9133 25.7494ZM30.9981 27.4145C30.2785 27.4145 29.5615 27.3871 28.8614 27.3417C29.2909 25.2672 30.1133 23.9413 30.9981 23.9413C31.888 23.9413 32.7066 25.2672 33.1386 27.3417C32.4359 27.3871 31.7228 27.4145 30.9981 27.4145ZM30.9981 37.5398C29.8335 37.5398 28.5869 34.9026 28.5387 30.9551C29.3481 31.0149 30.1718 31.0526 30.9981 31.0526C31.8295 31.0526 32.6506 31.0149 33.4574 30.9551C33.4105 34.9026 32.1652 37.5398 30.9981 37.5398ZM30.9981 43.9166C42.3955 43.9166 51.6667 38.1196 51.6667 30.9993C51.6667 23.8751 42.3955 18.0833 30.9968 18.0833C19.6045 18.0833 10.3333 23.8751 10.3333 30.9993C10.3333 38.1196 19.6045 43.9166 30.9968 43.9166H30.9981Z" fill="#333333"/>
</g>
</svg>
