<svg width="62" height="62" viewBox="0 0 62 62" fill="none" xmlns="http://www.w3.org/2000/svg">
<g id="6b6019742f8779daad6380ddc8250bd6_1650381349">
<path id="Vector" fill-rule="evenodd" clip-rule="evenodd" d="M51.6667 31.0034C51.6667 19.5906 42.4191 10.3383 31.008 10.3335C19.5952 10.3478 10.3476 19.5954 10.3333 31.0082C10.3365 42.4193 19.5904 51.6668 31.0032 51.6668C42.4143 51.6653 51.6667 42.4145 51.6667 31.0034ZM48.4872 30.9922C48.484 21.3362 40.6529 13.5129 30.9968 13.5129C21.3439 13.5416 13.5287 21.3663 13.5128 31.0208C13.524 40.6754 21.3582 48.4953 31.0143 48.4874C40.6704 48.4794 48.492 40.6467 48.4872 30.9922ZM25.5631 37.8774L19.2931 21.6095C20.468 20.1465 21.9033 18.9134 23.5267 17.9722L27.9446 30.1448H34.1509L38.5497 18.0295C40.0605 18.9177 41.4053 20.0618 42.524 21.4108L36.1873 37.8774L33.8885 31.9349H27.8619L25.5631 37.8774ZM37.9107 44.3302L45.0533 25.6952C46.337 29.1384 46.3197 32.9316 45.0045 36.3628C43.6893 39.7941 41.1668 42.6271 37.9107 44.3302ZM34.7487 45.1679L34.7994 45.5463L34.7916 45.5479C33.5523 45.8662 32.2778 46.0265 30.9984 46.0248C29.6392 46.03 28.2859 45.8481 26.9763 45.4843L26.9939 45.1679L30.868 35.1208L34.7487 45.1679ZM16.829 26.0258L23.7953 44.1681L23.7889 44.1807C20.6629 42.4729 18.2463 39.7088 16.9713 36.3828C15.6962 33.0568 15.6458 29.3857 16.829 26.0258ZM34.8392 16.4937C33.5858 16.1602 32.294 15.9924 30.9968 15.9946V15.9929L30.9904 15.9946C29.725 15.9929 28.4628 16.1519 27.2387 16.4699L31.0477 26.9782L34.8392 16.4937Z" fill="#333333"/>
</g>
</svg>
