<svg width="62" height="62" viewBox="0 0 62 62" fill="none" xmlns="http://www.w3.org/2000/svg">
<g id="929d0e4323b01161f5a062918714fd9a_1650381325">
<path id="Vector" fill-rule="evenodd" clip-rule="evenodd" d="M51.3543 37.17H10.7844C8.77773 35.6792 7.77935 34.1401 7.82048 32.5768C7.87969 30.2819 10.1511 28.5026 10.7712 28.0482H51.3511C53.259 29.4971 54.208 31.0199 54.1817 32.5671C54.1406 34.8654 51.9711 36.6962 51.3543 37.17ZM41.4758 38.5028C40.401 40.2678 38.8774 41.7294 37.0537 42.7449C35.23 43.7604 33.1686 44.295 31.071 44.2966C28.9726 44.2954 26.9105 43.7609 25.086 42.7454C23.2614 41.7299 21.7368 40.2681 20.6612 38.5028H41.4758ZM30.9673 50.332C22.9919 50.332 16.1891 45.3909 13.6447 38.5028H19.1085C21.3635 42.7316 25.8784 45.6342 31.066 45.6342C36.2603 45.6342 40.7735 42.7316 43.0302 38.5028H48.2884C45.7408 45.3909 38.9413 50.332 30.969 50.332H30.9673ZM20.3733 26.7218C22.4228 22.9699 26.4509 20.4123 31.071 20.4123C35.6928 20.4123 39.7159 22.9699 41.7703 26.7218H20.3733ZM30.969 14.6829C34.7257 14.6829 38.3376 15.7757 41.4183 17.8402C41.5479 17.9259 41.7035 17.9653 41.8593 17.9518C42.0151 17.9383 42.1613 17.8727 42.2735 17.766L45.8378 14.3784C45.9095 14.3116 45.9651 14.2302 46.0008 14.1399C46.0366 14.0495 46.0513 13.9526 46.0443 13.856C46.0372 13.7594 46.0084 13.6655 45.9598 13.5811C45.9114 13.4967 45.8444 13.424 45.7638 13.3679L44.0762 12.1624L52.259 11.7063L52.3609 19.4341L51.1718 18.0738C51.111 18.0073 51.0371 17.9534 50.9546 17.9155C50.872 17.8775 50.7827 17.8563 50.6915 17.8531C50.5994 17.8487 50.5074 17.8629 50.4211 17.8948C50.3348 17.9266 50.256 17.9755 50.1899 18.0383L46.2918 21.6533C46.1739 21.7608 46.0996 21.9065 46.0827 22.0634C46.0657 22.2205 46.1072 22.378 46.1996 22.5073C47.1207 23.8273 47.8444 25.2408 48.3707 26.7218H43.285C41.1272 22.2092 36.4626 19.0795 31.066 19.0795C25.6745 19.0795 21.0132 22.2109 18.852 26.7218H13.5739C16.0592 19.7241 22.9162 14.6829 30.9673 14.6829H30.969ZM51.9892 26.8507C51.8711 26.7643 51.727 26.719 51.5797 26.7218H49.8033C49.2882 25.1396 48.562 23.631 47.6438 22.2351L50.606 19.4792L52.5534 21.6871C52.6461 21.789 52.7679 21.8615 52.9032 21.8948C53.0384 21.9282 53.1806 21.9209 53.3116 21.874C53.4419 21.8257 53.5539 21.7391 53.6319 21.6259C53.71 21.5129 53.7504 21.3788 53.7475 21.2423L53.6093 10.9923C53.607 10.9028 53.5865 10.8146 53.5489 10.733C53.5114 10.6513 53.4576 10.5779 53.3905 10.5169C53.3249 10.4534 53.2463 10.4043 53.1597 10.3729C53.0733 10.3415 52.9809 10.3285 52.889 10.3348L42.0943 10.9408C41.9551 10.9491 41.8218 10.9989 41.7124 11.0836C41.603 11.1683 41.5228 11.2838 41.4824 11.4146C41.4434 11.5467 41.4465 11.6874 41.4912 11.8178C41.5357 11.9483 41.62 12.0623 41.7325 12.1446L44.3082 13.9755L41.7193 16.4316C38.5113 14.4149 34.7788 13.3457 30.9673 13.3517C22.1547 13.3517 14.6726 18.9763 12.1347 26.7218H10.5557C10.4246 26.7191 10.2957 26.755 10.1857 26.825C10.0343 26.9216 6.554 29.1908 6.46025 32.5349C6.40268 34.6074 7.64777 36.5705 10.1561 38.3738C10.2712 38.4544 10.4126 38.5028 10.5557 38.5028H12.2054C14.8059 46.1371 22.232 51.6665 30.9673 51.6665C39.7027 51.6665 47.1272 46.1371 49.7261 38.5028H51.5797C51.7189 38.5037 51.8547 38.4614 51.9679 38.3819C52.1126 38.2852 55.4794 35.9548 55.5403 32.5962C55.5815 30.5462 54.3841 28.6123 51.9892 26.8507Z" fill="#333333"/>
<path id="Vector_2" fill-rule="evenodd" clip-rule="evenodd" d="M20.2965 30.1453H16.3769V30.8996H17.423L15.6138 34.1856L13.6564 30.9141L15.0857 30.9044L15.0825 30.1453H9.39978V30.9141H10.7074L11.2304 31.8521L12.6844 34.4774L13.2699 35.5217H16.423L17.6155 33.3782L18.9839 30.9044H19.0234L20.2948 30.8947L20.2965 30.1453ZM23.7586 34.8255C23.178 34.8255 22.7093 33.9116 22.7093 32.7755C22.7093 31.6409 23.178 30.7287 23.7586 30.7287C24.3392 30.7287 24.8097 31.6409 24.8097 32.7755C24.8097 33.9116 24.3392 34.8255 23.757 34.8255H23.7586ZM23.8178 29.9939C21.5925 29.9939 19.7865 31.2639 19.7865 32.8335C19.7865 34.3968 21.5925 35.6715 23.8163 35.6715C26.0417 35.6715 27.8443 34.3983 27.8443 32.8352C27.8443 31.2639 26.0417 29.9939 23.8178 29.9939ZM49.2065 34.7932C49.1536 34.8136 49.0974 34.8246 49.0404 34.8255C48.4583 34.8255 47.9879 33.9116 47.9879 32.7755C47.9879 31.6426 48.4598 30.7287 49.0404 30.7287C49.1227 30.7287 49.1984 30.7449 49.2756 30.7803C49.7428 30.9833 50.0882 31.8021 50.0882 32.7755C50.0915 33.7989 49.7065 34.6402 49.205 34.7932H49.2065ZM49.1803 29.997C49.1523 29.9939 49.1227 29.9939 49.098 29.9939C46.8709 29.9939 45.0683 31.2654 45.0683 32.8335C45.0683 34.3951 46.8562 35.6619 49.07 35.6732H49.098C49.5865 35.6732 50.0504 35.612 50.4796 35.4959C52.0241 35.0978 53.1278 34.0599 53.1278 32.8335C53.1278 31.6297 52.0685 30.6063 50.5767 30.1905C50.1217 30.0644 49.6514 29.9993 49.1786 29.997H49.1803ZM33.4711 34.682H32.114V30.9141L33.402 30.9044V30.147H28.2225V30.9141H29.5334L29.5351 34.6852H28.1551V35.5202L29.5368 35.5233H36.0715V33.0285H35.2178C35.1717 34.35 33.976 34.6837 33.4711 34.6837V34.682ZM45.5634 30.1453H41.6472V30.8996H42.6884L40.879 34.1856L38.9218 30.9141L40.3511 30.9044L40.3462 30.1453H34.6635V30.9141H35.9745L38.537 35.5217H41.6916L44.2493 30.9044H44.4861L45.5617 30.8947L45.5634 30.1453Z" fill="#333333"/>
</g>
</svg>
