<svg width="62" height="62" viewBox="0 0 62 62" fill="none" xmlns="http://www.w3.org/2000/svg">
<g id="acura">
<path id="Vector" fill-rule="evenodd" clip-rule="evenodd" d="M9.55106 27.9605C9.89997 27.9287 10.1579 27.8964 10.4167 27.8827C12.9231 27.7503 15.4368 27.6948 17.9345 27.473C21.3053 27.174 24.6074 26.4988 27.7982 25.3714C31.3269 24.1244 34.515 22.2936 37.4524 20.0368C37.8422 19.7372 37.812 19.629 37.2182 19.3978C37.5579 19.0957 37.8966 18.8355 38.1827 18.5293C38.5278 18.1597 38.9369 18.1879 39.3903 18.2043C40.3546 18.2388 41.3211 18.2126 42.2863 18.2252C42.9243 18.2336 43.5618 18.265 44.1994 18.2901C44.2645 18.2926 44.3286 18.3227 44.4767 18.3624C44.2391 18.6876 44.0404 18.979 43.822 19.2557C39.9625 24.1404 35.0454 27.6363 29.1038 29.7657C25.9829 30.8842 22.753 31.5272 19.4278 31.7028C19.0173 31.7244 18.6054 31.7358 18.1969 31.7767C18.0612 31.7902 17.9339 31.8815 17.8027 31.9372C17.8845 32.0547 17.9405 32.2076 18.0521 32.2844C19.2416 33.1025 20.5358 33.7259 21.9161 34.1757C25.5654 35.3651 29.3061 35.6153 33.132 35.3536C36.8541 35.099 40.238 33.9691 43.3446 32.0236C45.5179 30.6627 47.306 28.9374 48.3187 26.5647C48.9183 25.1599 49.0705 23.6955 48.9453 22.1893C48.7558 19.9111 47.7935 17.9771 46.1988 16.3263C45.3458 15.4435 44.3442 14.7431 43.2171 14.2267C42.8733 14.0691 42.802 13.9077 43.0053 13.599C43.1576 13.3675 43.2827 13.1181 43.4072 12.8707C43.5333 12.62 43.7153 12.5824 43.9678 12.6818C46.1381 13.5366 48.182 14.6048 49.9781 16.0794C51.5707 17.3869 52.9036 18.8992 53.6447 20.822C54.6857 23.5225 54.3741 26.1024 52.7864 28.5296C51.2732 30.8427 49.1044 32.4394 46.6533 33.706C44.1542 34.9972 41.4855 35.8069 38.7173 36.3636C35.4362 37.0235 32.1199 37.1497 28.804 36.9303C24.4246 36.6408 20.1948 35.6795 16.2617 33.7044C13.7597 32.448 11.5344 30.86 9.91796 28.5686C9.8015 28.4035 9.70847 28.2231 9.55106 27.9605Z" fill="#333333"/>
<path id="Vector_2" fill-rule="evenodd" clip-rule="evenodd" d="M33.062 10.1757C25.1705 10.3189 18.9307 12.6942 13.9083 17.5859C13.1209 18.3529 12.387 18.7308 11.2711 18.6134C10.5792 18.5407 9.87112 18.6044 9.17047 18.5979C8.73203 18.5938 8.69015 18.5248 8.90067 18.1646C9.91797 16.4234 11.3741 15.0432 13.0922 13.8889C15.7799 12.0831 18.7981 10.9474 21.9946 10.1658C25.8174 9.23128 29.7069 8.90591 33.644 9.0906C36.8524 9.24124 40.008 9.71384 43.0782 10.6229C43.4832 10.7428 43.5338 10.8525 43.3208 11.188C40.8393 15.0957 37.4095 18.0889 33.0978 20.2359C29.7918 21.882 26.2588 22.9334 22.5919 23.6317C18.9208 24.3305 15.2122 24.7173 11.4637 24.7787C10.5255 24.7942 9.58728 24.8093 8.64963 24.8398C8.31845 24.8505 8.16745 24.7129 8.08419 24.434C7.70602 23.1671 7.65371 21.8888 7.90238 20.5982C8.01186 20.0302 8.06555 20.0115 8.68282 19.989C11.4358 19.888 14.1966 19.863 16.9394 19.6473C20.9486 19.332 24.8581 18.5359 28.5971 17.121C32.0052 15.8313 35.0306 14.0113 37.5794 11.5456C37.7708 11.3602 37.8762 11.0992 38.0218 10.8733C37.7664 10.7822 37.5179 10.6382 37.2544 10.6086C35.6606 10.4298 34.0632 10.2769 33.062 10.1757Z" fill="#333333"/>
<path id="Vector_3" fill-rule="evenodd" clip-rule="evenodd" d="M32.2487 50.0438C32.2487 50.0509 32.2487 50.0579 32.2487 50.0649C33.033 50.0649 33.8173 50.0572 34.6016 50.068C35.0089 50.0736 35.2124 49.9272 35.1885 49.5087C35.1673 49.1373 35.1745 48.7639 35.1864 48.3919C35.1984 48.0147 35.0477 47.8402 34.6344 47.8436C33.0939 47.8564 31.5533 47.8429 30.0129 47.8522C29.2835 47.8566 28.8521 48.2561 28.8387 48.9008C28.8248 49.565 29.3016 50.0326 30.0235 50.0417C30.7652 50.0512 31.507 50.0438 32.2487 50.0438ZM32.3338 52.924C31.0355 52.924 29.7336 52.8666 28.4402 52.942C27.4181 53.0019 26.3138 52.2355 25.9316 51.1499C25.5326 50.0168 25.5306 48.8654 26.0534 47.7607C26.5617 46.6866 27.4283 46.1007 28.6803 46.1025C30.464 46.1053 32.2476 46.1032 34.0314 46.1029C34.1884 46.1029 34.3477 46.1157 34.5017 46.0936C34.8177 46.0484 35.2365 46.1436 35.2219 45.6138C35.2072 45.0826 34.9705 44.8443 34.3955 44.8428C32.8544 44.8383 31.3134 44.841 29.7723 44.8407C28.8875 44.8406 28.0027 44.8348 27.1182 44.8428C26.7879 44.8457 26.6889 44.7562 26.8029 44.424C27.1844 43.312 27.5483 42.1941 27.8955 41.0718C27.9909 40.7634 28.1558 40.6597 28.4774 40.661C30.6891 40.67 32.9012 40.6472 35.1127 40.675C36.0562 40.6868 36.9627 40.8851 37.6012 41.6578C38.023 42.1686 38.1498 42.7873 38.1569 43.409C38.181 45.5473 38.1709 47.6857 38.1645 49.8242C38.1638 49.9983 38.1127 50.1803 38.048 50.3451C37.7544 51.0924 37.4404 51.8322 37.1487 52.5802C37.0429 52.8515 36.876 52.9599 36.5719 52.9575C35.1594 52.9459 33.7465 52.9525 32.3338 52.9525V52.924Z" fill="#333333"/>
<path id="Vector_4" fill-rule="evenodd" clip-rule="evenodd" d="M38.1722 52.925C38.4932 52.0214 38.7921 51.2058 39.0701 50.3835C39.1672 50.0963 39.3656 50.065 39.6225 50.0645C41.8743 50.0602 44.1258 50.0486 46.3774 50.0423C46.8386 50.041 47.1896 49.8717 47.3931 49.4471C47.5904 49.035 47.5437 48.643 47.2933 48.2706C47.0579 47.9206 46.7009 47.8444 46.3037 47.8449C44.3735 47.848 42.4435 47.8459 40.5133 47.8455H39.8227C40.1445 47.2208 40.3991 46.6849 40.7022 46.177C40.7543 46.09 41.013 46.1037 41.1763 46.1037C43.0223 46.1037 44.8685 46.1132 46.7147 46.1126C47.2806 46.1125 47.5416 45.7569 47.3688 45.2475C47.2558 44.914 46.9876 44.838 46.6709 44.8384C45.5519 44.8396 44.4331 44.8387 43.3141 44.8385C42.1113 44.8383 40.9085 44.8388 39.7056 44.8367C39.5415 44.8365 39.3774 44.8234 39.1763 44.8146C39.1937 44.6841 39.1908 44.5905 39.2194 44.5071C39.6186 43.3458 40.0291 42.1878 40.4197 41.0235C40.5108 40.7521 40.6668 40.6613 40.9434 40.6619C43.2512 40.668 45.559 40.6502 47.8665 40.6714C49.3461 40.6849 50.4813 41.7884 50.6656 43.3539C50.7895 44.4054 50.5759 45.3835 49.922 46.2461C49.7773 46.437 49.6292 46.6128 49.8519 46.8615C50.4618 47.5426 50.677 48.3774 50.5995 49.2462C50.5379 49.9347 50.4033 50.6472 50.1353 51.2806C49.6645 52.3939 48.7772 52.9676 47.5001 52.9574C44.5492 52.9343 41.598 52.9509 38.6469 52.9498C38.5126 52.9498 38.3783 52.9363 38.1722 52.925Z" fill="#333333"/>
<path id="Vector_5" fill-rule="evenodd" clip-rule="evenodd" d="M11.3291 52.886C11.6713 51.9515 11.9745 51.0954 12.3081 50.251C12.3468 50.153 12.5536 50.064 12.6829 50.0633C14.6919 50.0524 16.7011 50.0595 18.7103 50.0556C19.0743 50.0549 19.4436 50.0565 19.8014 50.0012C20.3558 49.9154 20.6606 49.49 20.6499 48.8946C20.6394 48.3197 20.3257 47.9542 19.756 47.8728C19.5765 47.8472 19.3918 47.8505 19.2095 47.8502C17.3406 47.8486 15.472 47.8492 13.6032 47.849H12.9798C13.2746 47.2395 13.5057 46.7168 13.786 46.2209C13.8388 46.1272 14.0872 46.1094 14.2455 46.1088C16.1283 46.1013 18.0114 46.1134 19.8939 46.0893C20.1057 46.0867 20.4241 45.94 20.4971 45.7762C20.5834 45.5823 20.5288 45.247 20.3994 45.0673C20.2935 44.9201 19.9889 44.8516 19.7715 44.8503C17.4813 44.8353 15.191 44.8409 12.9007 44.8406H12.2995C12.3878 44.5528 12.4467 44.3459 12.5145 44.1421C12.8546 43.1197 13.2064 42.1011 13.5333 41.0746C13.629 40.7739 13.7882 40.6594 14.1084 40.6607C16.3705 40.6702 18.6328 40.6551 20.8949 40.6698C22.5024 40.6803 23.7098 41.8261 23.836 43.4005C23.9239 44.4981 23.7326 45.5106 23.0237 46.4031C22.949 46.497 22.9732 46.7653 23.0581 46.868C24.166 48.2092 23.9443 50.4455 23.0659 51.7399C22.5199 52.5445 21.7718 52.9647 20.767 52.9576C17.7886 52.9363 14.81 52.9324 11.8317 52.92C11.6951 52.9195 11.5586 52.9022 11.3291 52.886Z" fill="#333333"/>
</g>
</svg>
