<svg width="63" height="62" viewBox="0 0 63 62" fill="none" xmlns="http://www.w3.org/2000/svg">
<path d="M46.846 42.0828C46.3294 42.0828 45.8127 41.8762 45.451 41.4887C45.0377 41.0753 44.8569 40.4812 44.9344 39.9129C45.0119 39.3704 45.0377 38.802 45.0377 38.2078V27.8745C45.0377 20.667 41.8086 17.4378 34.6011 17.4378H18.0677C17.4735 17.4378 16.9052 17.4637 16.3627 17.5153C15.7944 17.5928 15.2002 17.3861 14.7869 16.9986C14.3735 16.5853 14.141 16.017 14.1927 15.4487C14.6577 9.86869 17.5252 3.22949 28.401 3.22949H44.9344C54.2861 3.22949 59.246 8.18951 59.246 17.5412V27.8745C59.246 38.7503 52.6069 41.592 47.0269 42.0828C46.9494 42.0828 46.8977 42.0828 46.846 42.0828Z" fill="#333333"/>
<path d="M26.3068 58.8483C24.7568 58.8483 23.2843 58.0734 22.2768 56.7042L19.1769 52.5708C19.1769 52.5967 19.0477 52.5191 18.996 52.5191H18.0402C9.2052 52.5191 3.72852 50.1167 3.72852 38.2075V27.8742C3.72852 16.9984 10.3677 14.1567 15.9477 13.6659C16.5677 13.5884 17.291 13.5625 18.0402 13.5625H34.5735C43.9252 13.5625 48.8852 18.5225 48.8852 27.8742V38.2075C48.8852 38.9567 48.8593 39.68 48.756 40.3775C48.291 45.88 45.4494 52.5191 34.5735 52.5191H33.5402L30.3368 56.7042C29.3293 58.0734 27.8568 58.8483 26.3068 58.8483ZM18.0402 17.4375C17.446 17.4375 16.8777 17.4633 16.3352 17.515C10.3419 18.0317 7.60352 21.3125 7.60352 27.8742V38.2075C7.60352 47.0684 10.3419 48.6441 18.0402 48.6441H19.0735C20.236 48.6441 21.5535 49.29 22.2768 50.22L25.3769 54.3791C25.9452 55.1541 26.6685 55.1541 27.2369 54.3791L30.3368 50.2459C31.086 49.2384 32.2744 48.6441 33.5402 48.6441H34.5735C41.1352 48.6441 44.416 45.88 44.9069 39.99C44.9844 39.37 45.0102 38.8017 45.0102 38.2075V27.8742C45.0102 20.6667 41.781 17.4375 34.5735 17.4375H18.0402Z" fill="white"/>
<path d="M26.3079 36.6579C24.8613 36.6579 23.7246 35.4954 23.7246 34.0745C23.7246 32.6537 24.8871 31.4912 26.3079 31.4912C27.7288 31.4912 28.8913 32.6537 28.8913 34.0745C28.8913 35.4954 27.7546 36.6579 26.3079 36.6579Z" fill="white"/>
<path d="M34.5736 36.6579C33.1269 36.6579 31.9902 35.4954 31.9902 34.0745C31.9902 32.6537 33.1527 31.4912 34.5736 31.4912C35.9944 31.4912 37.1569 32.6537 37.1569 34.0745C37.1569 35.4954 35.9944 36.6579 34.5736 36.6579Z" fill="white"/>
<path d="M18.0658 36.6579C16.6191 36.6579 15.4824 35.4954 15.4824 34.0745C15.4824 32.6537 16.6449 31.4912 18.0658 31.4912C19.4866 31.4912 20.6491 32.6537 20.6491 34.0745C20.6491 35.4954 19.4866 36.6579 18.0658 36.6579Z" fill="white"/>
</svg>
