<svg width="32" height="33" viewBox="0 0 32 33" fill="none" xmlns="http://www.w3.org/2000/svg">
<g clip-path="url(#clip0_588_22065)">
<path d="M13.0625 0.980469C12.3733 0.980469 11.8125 1.54122 11.8125 2.23047C11.8125 2.91972 12.3733 3.48047 13.0625 3.48047C13.7517 3.48047 14.3125 2.91972 14.3125 2.23047C14.3125 1.54122 13.7517 0.980469 13.0625 0.980469Z" fill="white"/>
<path d="M27.3137 5.66678C24.2917 2.64478 20.2738 0.980469 16 0.980469V2.85547C23.7886 2.85547 30.125 9.19191 30.125 16.9805C30.125 24.769 23.7886 31.1055 16 31.1055C8.21144 31.1055 1.875 24.769 1.875 16.9805C1.875 13.3351 3.24687 9.90072 5.74594 7.26628L7.09275 8.61309L7.09175 4.58678L3.06588 4.58628L4.41962 5.94003C1.56669 8.92884 0 12.8342 0 16.9805C0 21.2542 1.66431 25.2722 4.68625 28.2942C7.70831 31.3162 11.7262 32.9805 16 32.9805C20.2738 32.9805 24.2917 31.3162 27.3137 28.2942C30.3357 25.2722 32 21.2542 32 16.9805C32 12.7067 30.3357 8.68878 27.3137 5.66678Z" fill="white"/>
<path d="M9.375 2.16797C8.68575 2.16797 8.125 2.72872 8.125 3.41797C8.125 4.10722 8.68575 4.66797 9.375 4.66797C10.0642 4.66797 10.625 4.10722 10.625 3.41797C10.625 2.72872 10.0642 2.16797 9.375 2.16797Z" fill="white"/>
<path d="M23.2916 14.1079C21.7076 12.5239 19.1304 12.5239 17.5464 14.1079L15.9995 15.6547L14.4527 14.1079C12.8687 12.5239 10.2915 12.5239 8.70748 14.1079C7.12355 15.6919 7.12355 18.2691 8.70748 19.8531C9.49948 20.6451 10.5397 21.0411 11.5801 21.0411C12.6205 21.0411 13.6607 20.6451 14.4527 19.8531L15.9995 18.3063L17.5464 19.8531C18.3384 20.6451 19.3786 21.0411 20.419 21.0411C21.4594 21.0411 22.4996 20.6451 23.2916 19.8531C24.8755 18.2691 24.8755 15.6919 23.2916 14.1079ZM13.1269 18.5273C12.274 19.3802 10.8862 19.3802 10.0333 18.5273C9.18042 17.6744 9.18042 16.2866 10.0333 15.4338C10.8862 14.5809 12.274 14.5808 13.1269 15.4338L14.6737 16.9805L13.1269 18.5273ZM21.9658 18.5273C21.1129 19.3802 19.725 19.3802 18.8722 18.5273L17.3254 16.9805L18.8722 15.4337C19.725 14.5808 21.1129 14.5808 21.9658 15.4337C22.8186 16.2866 22.8186 17.6744 21.9658 18.5273Z" fill="white"/>
</g>
<defs>
<clipPath id="clip0_588_22065">
<rect width="32" height="32" fill="white" transform="translate(0 0.980469)"/>
</clipPath>
</defs>
</svg>
