<svg width="32" height="33" viewBox="0 0 32 33" fill="none" xmlns="http://www.w3.org/2000/svg">
<mask id="mask0_677_13029" style="mask-type:luminance" maskUnits="userSpaceOnUse" x="-1" y="0" width="33" height="33">
<path d="M-0.00390625 0.662113H31.9961V32.6621H-0.00390625V0.662113Z" fill="white"/>
</mask>
<g mask="url(#mask0_677_13029)">
<path d="M16.3725 32.0371H15.6263C9.41453 32.0371 4.37891 27.0015 4.37891 20.7897V4.69542C4.37891 2.81305 5.90491 1.28711 7.78728 1.28711H24.2115C26.0939 1.28711 27.6199 2.81305 27.6199 4.69542V20.7897C27.6199 27.0015 22.5843 32.0371 16.3725 32.0371Z" stroke="white" stroke-width="1.25" stroke-miterlimit="10" stroke-linecap="round" stroke-linejoin="round"/>
<path d="M29.2163 12.6211H27.6211V6.59103H29.2163C29.8265 6.59103 30.3212 7.08566 30.3212 7.69584V11.5162C30.3212 12.1265 29.8265 12.6211 29.2163 12.6211Z" stroke="white" stroke-width="1.25" stroke-miterlimit="10" stroke-linecap="round" stroke-linejoin="round"/>
<path d="M4.37981 12.6211H2.78456C2.17437 12.6211 1.67969 12.1265 1.67969 11.5162V7.69584C1.67969 7.08566 2.17437 6.59103 2.78456 6.59103H4.37981V12.6211Z" stroke="white" stroke-width="1.25" stroke-miterlimit="10" stroke-linecap="round" stroke-linejoin="round"/>
<path d="M24.1903 16.6621H7.80859V8.82555H24.1903V16.6621Z" stroke="white" stroke-width="1.25" stroke-miterlimit="10" stroke-linecap="round" stroke-linejoin="round"/>
<path d="M23.5371 4.68359H24.2154" stroke="white" stroke-width="1.25" stroke-miterlimit="10" stroke-linecap="round" stroke-linejoin="round"/>
<path d="M7.7832 4.68359H8.46145" stroke="white" stroke-width="1.25" stroke-miterlimit="10" stroke-linecap="round" stroke-linejoin="round"/>
<path d="M23.5371 24.998H24.2154" stroke="white" stroke-width="1.25" stroke-miterlimit="10" stroke-linecap="round" stroke-linejoin="round"/>
<path d="M7.7832 24.998H8.46145" stroke="white" stroke-width="1.25" stroke-miterlimit="10" stroke-linecap="round" stroke-linejoin="round"/>
</g>
</svg>
