<svg width="32" height="33" viewBox="0 0 32 33" fill="none" xmlns="http://www.w3.org/2000/svg">
<g clip-path="url(#clip0_588_21863)">
<path d="M29.4451 10.5951C27.8248 12.2153 25.4256 12.6204 23.4315 11.7479L23.1199 12.0595L11.7158 23.4636L11.4042 23.7752C12.2766 25.7694 11.8716 28.1686 10.2513 29.7888C8.63105 31.4091 6.23183 31.8142 4.23767 30.9417L6.66806 28.5113L6.91734 27.5454L4.76738 25.3954L3.80148 25.6447L1.37108 28.0751C0.5298 26.081 0.903703 23.7129 2.52396 22.0615C4.14422 20.4412 6.54344 20.0362 8.5376 20.9086L8.84918 20.597L20.2533 9.19292L20.5648 8.88133C19.6924 6.88717 20.0975 4.48795 21.7177 2.86771C23.3691 1.24745 25.7684 0.873548 27.7314 1.71483L25.301 4.14521L25.0517 5.11114L27.2016 7.29224L28.1676 7.04298L30.598 4.6126C31.4704 6.57559 31.0654 8.97482 29.4451 10.5951Z" stroke="white" stroke-width="1.5" stroke-miterlimit="10" stroke-linejoin="round"/>
<path d="M19.4129 16.6719L29.7575 26.1441C30.8481 27.2347 30.8481 29.0107 29.7575 30.1013C28.667 31.1918 26.891 31.1918 25.8004 30.1013L16.3281 19.7566" stroke="white" stroke-width="1.5" stroke-miterlimit="10" stroke-linejoin="round"/>
<path d="M13.8988 14.2405L1.3418 1.68359" stroke="white" stroke-width="1.5" stroke-miterlimit="10"/>
<path d="M1.99414 1.0293L5.29698 2.55608L4.42453 3.45967L1.99414 1.0293Z" fill="white"/>
<path d="M0.685547 2.33789L2.21232 5.64071L3.11593 4.76826L0.685547 2.33789Z" fill="white"/>
<path d="M17.4473 22.1551L21.8718 17.7617" stroke="white" stroke-width="1.5" stroke-miterlimit="10" stroke-linecap="round"/>
</g>
<defs>
<clipPath id="clip0_588_21863">
<rect width="32" height="32" fill="white" transform="translate(0 0.34375)"/>
</clipPath>
</defs>
</svg>
