<svg width="44" height="44" viewBox="0 0 44 44" fill="none" xmlns="http://www.w3.org/2000/svg">
<rect width="44" height="44" rx="10" fill="#F4F4F4"/>
<path d="M29.5 18.4585H14.5C14.1583 18.4585 13.875 18.1752 13.875 17.8335C13.875 17.4918 14.1583 17.2085 14.5 17.2085H29.5C29.8417 17.2085 30.125 17.4918 30.125 17.8335C30.125 18.1752 29.8417 18.4585 29.5 18.4585Z" fill="#292D32"/>
<path d="M29.5 22.625H14.5C14.1583 22.625 13.875 22.3417 13.875 22C13.875 21.6583 14.1583 21.375 14.5 21.375H29.5C29.8417 21.375 30.125 21.6583 30.125 22C30.125 22.3417 29.8417 22.625 29.5 22.625Z" fill="#292D32"/>
<path d="M29.5 26.7915H14.5C14.1583 26.7915 13.875 26.5082 13.875 26.1665C13.875 25.8248 14.1583 25.5415 14.5 25.5415H29.5C29.8417 25.5415 30.125 25.8248 30.125 26.1665C30.125 26.5082 29.8417 26.7915 29.5 26.7915Z" fill="#292D32"/>
</svg>
