<svg width="62" height="62" viewBox="0 0 62 62" fill="none" xmlns="http://www.w3.org/2000/svg">
<g clip-path="url(#clip0_1301_20143)">
<g clip-path="url(#clip1_1301_20143)">
<path d="M31.7483 40.0639C32.099 40.7279 33.119 40.5395 33.2646 39.872C33.6842 40.4863 34.6557 40.1995 34.7483 39.5533C35.1547 39.9983 35.9607 39.8201 36.1434 39.2439C36.1407 39.2523 36.146 39.2355 36.1434 39.2439C39.1333 38.0085 41.3216 35.7737 42.1775 33.1057C42.3591 33.0294 42.518 32.9071 42.6385 32.7507C43.5632 32.9692 44.5965 33.4062 44.9772 32.3681C45.7934 32.5867 47.5048 33.1589 48.0228 31.7675C49.2193 31.9315 50.9593 32.0406 51.1772 30.784C52.2105 30.784 54.0048 30.62 54.0048 29.4179C55.0385 29.4179 56.8328 28.7073 56.6153 27.8877C57.54 27.7787 58.7912 26.7951 58.7912 26.1396C59.7155 25.8665 60.7492 25.156 60.5313 24.2274C61.0748 23.8994 61.9996 23.5168 61.9996 22.9707C61.9996 22.4247 61.5645 21.9872 61.0748 21.9872C60.5851 21.9872 58.7361 22.0998 58.0836 22.0998C57.4315 22.0998 49.5453 21.9903 47.6963 22.0998C45.8473 22.2088 43.5085 22.2602 42.3663 22.1512C41.525 22.0696 38.6586 21.9047 36.9375 22.367C33.2924 20.5524 28.708 20.5519 25.0621 22.367C23.3414 21.9052 20.4746 22.0701 19.6328 22.1503C18.4906 22.2598 16.1523 22.2079 14.3028 22.0989C12.4538 21.9894 4.56761 22.0989 3.91509 22.0989C3.26258 22.0989 1.41356 21.9863 0.923845 21.9863C0.434128 21.9863 0 22.4238 0 22.9699C0 23.5164 0.924728 23.8989 1.46871 24.2265C1.25076 25.1555 2.28447 25.8656 3.20875 26.1387C3.20875 26.7942 4.45952 27.7778 5.38425 27.8869C5.16674 28.7069 6.96149 29.417 7.99475 29.417C7.99475 30.6186 9.7895 30.7831 10.8228 30.7831C11.0403 32.0397 12.7807 31.9307 13.9772 31.7667C14.4952 33.1585 16.207 32.5862 17.0228 32.3673C17.4035 33.4058 18.4368 32.9683 19.3615 32.7498C19.4877 32.9147 19.6465 33.029 19.8225 33.1048C20.6784 35.7732 22.8672 38.0081 25.8566 39.2434C25.854 39.235 25.8588 39.2519 25.8566 39.2434C26.0393 39.8197 26.8453 39.9979 27.2517 39.5528C27.3443 40.1991 28.3158 40.4854 28.7354 39.8715C28.8805 40.5391 29.901 40.7275 30.2513 40.0635C30.3347 40.6845 31.6649 40.6845 31.7483 40.0639Z" fill="#333333"/>
<path d="M21.5919 32.9688C21.9118 33.7032 22.9225 33.5503 23.5278 33.3211C24.3352 34.5552 25.6782 35.5596 27.3318 36.1664L26.0183 38.403C23.4652 37.2856 21.5751 35.4151 20.7422 33.2125C21.037 33.1798 21.3243 33.0974 21.5919 32.9688Z" fill="white"/>
<path d="M25.8271 38.9845C23.0083 37.7886 20.9365 35.6965 20.0784 33.1886C20.22 33.2196 20.367 33.2316 20.5139 33.2289C21.3543 35.5103 23.2951 37.4491 25.9202 38.6002C25.8673 38.722 25.8358 38.852 25.8271 38.9845ZM27.302 39.0515C27.3016 39.0528 27.3012 39.0541 27.3007 39.0555C26.8828 40.0882 25.6436 39.4907 26.2043 38.5156L27.5398 36.2417C27.7846 36.325 28.0357 36.3995 28.2924 36.466C28.2977 36.501 27.3165 39.0045 27.302 39.0515ZM28.7142 39.3728C28.4557 40.406 27.2159 40.0909 27.5076 39.1237L28.5691 36.5325C28.8214 36.5901 29.0786 36.6388 29.3403 36.6783C29.3429 36.688 28.7142 39.3728 28.7142 39.3728ZM30.1697 39.5359C30.0775 40.6476 28.7191 40.4548 28.9626 39.3476C28.9626 39.3484 29.5692 36.7169 29.5714 36.7111C29.8264 36.7434 30.085 36.7683 30.3475 36.7833C30.3568 36.8073 30.1706 39.5138 30.1697 39.5359ZM30.4062 39.5191C30.4062 39.5195 30.5509 36.8281 30.5531 36.8215C30.8072 36.8321 31.1827 36.8396 31.4443 36.813C31.4566 36.8361 31.6252 39.4912 31.6278 39.5129C31.7099 40.6011 30.3413 40.6232 30.4062 39.5191ZM0.894293 22.6405C1.01606 22.5469 1.27813 22.5518 1.60946 22.5332C3.29523 22.5332 7.21121 22.6427 7.9727 22.6427C8.73418 22.6427 14.1184 23.2437 14.9611 23.5172C15.3418 23.6267 15.4235 24.0088 14.9611 24.0363C14.4987 24.0638 8.75095 24.1462 7.93519 24.1462C7.30253 24.1462 4.01172 24.1351 2.10976 23.7561C1.08091 23.5509 0.528549 22.9206 0.894293 22.6405ZM2.74595 24.6639C3.72495 24.6914 8.61948 24.7189 9.19081 24.6914C9.76171 24.6639 14.1943 24.4184 14.7109 24.3909C15.8285 24.3319 16.1902 24.8319 15.0101 25.1014C14.4118 25.2384 8.89169 25.8665 4.70394 25.7845C3.9151 25.8119 2.85493 25.4019 2.58272 25.0194C2.31094 24.6369 2.61007 24.6639 2.74595 24.6639ZM4.64968 26.4675C5.32954 26.4675 13.3512 25.8665 15.0374 25.5114C16.5039 25.2871 16.173 26.0442 15.581 26.167C15.0833 26.2703 9.13611 27.4236 6.11795 27.4781C5.1116 27.4511 3.94245 26.4946 4.64968 26.4675ZM6.68884 28.1612C7.64092 28.0517 13.9768 27.0411 15.6899 26.5766C17.2394 26.1732 16.9266 27.2077 16.3698 27.3691C15.8739 27.5127 10.4742 28.8332 9.24508 28.8992C8.72391 28.9267 8.20134 28.8913 7.68857 28.7937C5.95206 28.4449 6.68884 28.1612 6.68884 28.1612ZM9.24508 29.5818C9.92495 29.4453 15.4451 28.1882 17.0223 27.5876C17.7909 27.3186 18.0221 28.077 17.539 28.2977C17.2398 28.4342 12.9978 30.2099 10.9856 30.3194C10.2514 30.3194 8.89345 29.9222 9.24508 29.5818ZM18.2457 28.4342C17.6206 28.7348 13.8136 30.3469 12.3449 30.6749C12.141 30.7294 11.9257 30.8198 11.9429 30.9337C12.0735 31.8061 14.7762 31.064 14.9637 31.0038C16.0032 30.6691 18.1222 29.8877 19.0209 29.0078C18.8034 28.8988 18.3004 28.5437 18.2457 28.4342ZM19.388 29.3633C18.9803 29.6363 16.3151 31.0304 15.0917 31.4124C14.4524 31.6265 15.1252 32.287 16.3738 31.9293C17.7538 31.7143 19.7687 30.0738 20.0952 29.7733C19.9319 29.6913 19.5786 29.4728 19.388 29.3633ZM20.6392 30.1013C20.1464 30.4399 19.1978 31.0729 18.5956 31.4767C18.3472 31.6434 17.7543 31.9727 17.767 32.236C17.7732 32.3619 18.0115 32.6008 19.0999 32.2036C19.7767 31.9253 20.5959 31.3593 21.2917 30.3473C21.1558 30.3056 20.802 30.1829 20.6392 30.1013ZM21.8626 30.5109C21.6076 30.7671 21.278 31.1172 20.9555 31.4399C20.6586 31.8247 19.9968 32.1017 20.2245 32.5463C20.4711 33.0277 21.2476 32.3349 21.5273 32.0698C21.9226 31.6944 22.3042 31.1984 22.4476 30.7019C22.257 30.6474 22.0395 30.5929 21.8626 30.5109Z" fill="white"/>
<path d="M12.3997 22.4229C13.1069 22.4229 15.4995 22.5869 16.37 22.5869C18.8706 22.5869 22.2545 22.1437 24.5805 22.6237C26.0262 22.922 26.2336 23.3427 26.2336 23.7948C26.2336 24.383 25.7443 24.7363 25.3975 24.9916C24.9899 25.2921 23.7387 26.0297 23.6844 27.9423C23.3584 27.8058 22.896 27.7238 23.2225 27.0407C23.7921 25.8958 25.0728 24.5013 22.8823 23.9074C22.5369 23.8139 22.1111 23.7527 21.591 23.735C19.9868 23.6804 17.6604 23.6685 16.8716 23.5319C16.0832 23.3954 13.1065 22.6969 12.4813 22.6153C12.2091 22.5865 12.2091 22.45 12.3997 22.4229Z" fill="white"/>
<path d="M18.6856 24.085C19.2565 24.085 21.0049 24.073 21.5913 24.101C23.2131 24.1785 24.3712 24.9724 23.1998 26.4622C22.9704 26.7534 22.3572 27.3638 22.1123 27.5823C21.8948 27.7463 21.4867 27.4728 21.8401 27.0632C21.3777 27.3363 20.8068 27.2818 21.0786 26.6537C20.6705 26.9817 19.9911 27.0087 20.3987 26.1621C20.127 26.3806 19.3655 26.3536 19.8548 25.6976C19.4471 25.8341 18.9847 25.5881 19.2839 25.1785C18.7672 25.261 18.4681 24.878 19.0121 24.5779C18.4955 24.7131 18.3596 24.1121 18.6856 24.085ZM17.0903 23.7947C16.8701 23.7805 15.915 23.6245 15.9379 24.1418C15.9608 24.6595 17.0219 24.464 17.2398 24.4232C17.6413 24.3483 17.9621 24.2251 17.9528 24.058C17.9435 23.8864 17.5253 23.8222 17.0903 23.7947ZM17.1291 24.6816C16.897 24.6994 16.0628 24.6581 16.1929 25.1315C16.2339 25.2805 16.5406 25.5819 17.5663 25.3314C18.0159 25.2215 18.2488 24.9795 18.2488 24.7871C18.2488 24.6191 17.6444 24.6422 17.1291 24.6816ZM17.7878 25.4502C17.6228 25.4777 16.6663 25.5433 16.8265 26.0278C16.9385 26.3656 17.1106 26.2587 17.4022 26.2937C17.5946 26.3168 19.0196 25.9134 18.7968 25.4542C18.7306 25.3177 18.3115 25.3638 17.7878 25.4502ZM18.2608 26.1368C17.3122 26.5238 17.3246 26.7858 17.3678 26.9272C17.4106 27.069 17.8456 27.2441 18.7456 26.8022C19.2014 26.5783 19.2071 26.3239 19.095 26.1439C18.9552 25.9183 18.6014 25.9977 18.2608 26.1368ZM18.9247 26.7875C17.9374 27.1333 17.9938 27.4489 18.0719 27.6341C18.158 27.8389 18.4699 28.057 19.294 27.5295C19.7917 27.2113 20.1155 26.9444 20.0268 26.7326C19.9465 26.5402 19.4758 26.5903 18.9247 26.7875ZM19.3112 27.7813C19.0522 27.9391 18.9344 28.1527 19.0977 28.3961C19.3898 28.8323 20.251 28.0628 20.4671 27.8274C20.6277 27.6528 20.7305 27.4693 20.6396 27.3349C20.5457 27.1967 20.2536 27.2073 19.3112 27.7813ZM20.8704 27.8553C19.7206 28.4444 19.8309 28.7299 19.9911 28.8518C20.168 28.9865 20.5849 29.1279 21.282 28.3185C21.5877 27.9639 21.4197 27.5756 20.8704 27.8553ZM21.4444 28.4732C21.2017 28.7458 20.633 29.1567 21.0733 29.463C21.4444 29.721 21.6619 29.4377 21.8445 29.2622C22.9007 28.2414 22.5513 27.5951 21.4444 28.4732Z" fill="white"/>
<path d="M24.9141 23.1214C25.7215 23.527 26.0554 23.9578 25.2264 24.5465C25.125 24.6183 25.2503 24.7969 25.3517 24.7251C26.2641 24.078 26.0678 23.4064 25.0116 22.9259C24.9004 22.8701 24.8033 23.0656 24.9141 23.1214Z" fill="#333333"/>
<path d="M35.9957 32.3689C35.9957 31.4975 35.1023 30.6261 34.1101 30.3255C33.845 30.2653 33.8869 30.0286 34.0934 29.935C34.2919 29.8446 35.45 29.0335 35.4337 28.0118C35.4337 27.0202 34.2751 25.5176 30.9 25.5176C28.9147 25.5176 27.2602 25.9684 26.2676 26.8101C26.4988 26.9905 26.7639 27.2609 26.7639 27.5614V33.0609C26.7308 33.3915 26.5654 33.6619 26.3002 33.9624C27.1914 34.5981 28.7872 35.2044 31.0783 35.1969C33.5269 35.1366 35.9957 34.4123 35.9957 32.3689Z" fill="white"/>
<path d="M31.0689 29.7223C32.122 29.7223 32.9757 29.0373 32.9757 28.1922C32.9757 27.3472 32.122 26.6621 31.0689 26.6621C30.0158 26.6621 29.1621 27.3472 29.1621 28.1922C29.1621 29.0373 30.0158 29.7223 31.0689 29.7223Z" fill="#333333"/>
<path d="M31.3133 33.955C32.4939 33.955 33.4509 33.2319 33.4509 32.3398C33.4509 31.4478 32.4939 30.7246 31.3133 30.7246C30.1328 30.7246 29.1758 31.4478 29.1758 32.3398C29.1758 33.2319 30.1328 33.955 31.3133 33.955Z" fill="#333333"/>
<path d="M22.7851 29.7014C22.8597 29.3286 22.9792 28.9665 23.1389 28.6185C23.1297 28.6048 22.8469 28.2413 22.1502 29.2528C21.7655 29.8109 22.4449 30.0356 22.7851 29.7014ZM22.7626 31.4194C22.4758 31.7541 22.2054 32.0351 22.0267 32.2594C21.6535 32.7284 22.6245 33.3064 23.1478 32.6397C22.9664 32.2518 22.8369 31.8414 22.7626 31.4194ZM36.1464 22.6776C36.3003 22.59 36.4623 22.5176 36.63 22.4613C33.1481 20.8124 28.8523 20.8124 25.3709 22.4613C25.5518 22.5242 25.7141 22.596 25.854 22.6776C29.0782 21.2667 32.9505 21.2791 36.1464 22.6776Z" fill="white"/>
<path d="M37.7496 27.015C37.3587 25.6489 36.3828 25.0931 36.0043 24.8271C35.2432 24.293 35.2847 23.5036 35.935 22.8232C32.8277 21.5071 29.1372 21.5222 26.0666 22.8232C26.7169 23.5036 26.7579 24.293 25.9973 24.8271C25.6188 25.0931 24.6424 25.6489 24.252 27.015C27.571 23.5785 34.4306 23.578 37.7496 27.015ZM40.4095 32.9688C40.0892 33.7033 39.0785 33.5503 38.4736 33.3212C37.6662 34.5552 36.3233 35.5596 34.6693 36.1664L35.9831 38.4031C38.5363 37.2856 40.4259 35.4151 41.2597 33.2126C40.9647 33.1799 40.6773 33.0975 40.4095 32.9688Z" fill="white"/>
<path d="M36.1715 38.9845C38.9903 37.7886 41.0625 35.6965 41.9202 33.1886C41.7771 33.2189 41.631 33.2324 41.4848 33.2289C40.6443 35.5103 38.7035 37.4491 36.0784 38.6002C36.1313 38.722 36.1628 38.852 36.1715 38.9845ZM34.6962 39.0515L34.698 39.0555C35.1158 40.0882 36.3551 39.4907 35.7943 38.5156L34.4589 36.2417C34.214 36.325 33.9634 36.3995 33.7062 36.466C33.7009 36.501 34.6821 39.0045 34.6962 39.0515ZM33.284 39.3728C33.5429 40.406 34.7822 40.0909 34.4906 39.1237C34.4906 39.1237 33.4847 36.6668 33.4291 36.5325C33.1772 36.5901 32.92 36.6388 32.6584 36.6783C32.6557 36.688 33.284 39.3728 33.284 39.3728ZM31.8289 39.5359C31.9211 40.6476 33.2791 40.4548 33.0356 39.3476C33.036 39.3484 32.4294 36.7169 32.4267 36.7111C32.1717 36.7434 31.9128 36.7683 31.6507 36.7833C31.6419 36.8073 31.8281 39.5138 31.8289 39.5359ZM61.1043 22.6405C60.9826 22.5469 60.7205 22.5518 60.3892 22.5332C58.7034 22.5332 54.7874 22.6427 54.0259 22.6427C53.2644 22.6427 47.8802 23.2437 47.0375 23.5172C46.6568 23.6267 46.5752 24.0088 47.0375 24.0363C47.4999 24.0638 53.2472 24.1462 54.063 24.1462C54.6961 24.1462 57.9869 24.1351 59.8884 23.7561C60.9182 23.5509 61.4705 22.9206 61.1043 22.6405ZM59.2522 24.6639C58.2732 24.6914 53.3792 24.7189 52.8078 24.6914C52.2369 24.6639 47.8043 24.4184 47.2877 24.3909C46.1702 24.3319 45.8079 24.8319 46.9886 25.1014C47.5864 25.2384 53.1069 25.8665 57.2942 25.7845C58.0826 25.8119 59.1433 25.4019 59.4155 25.0194C59.6877 24.6369 59.3886 24.6639 59.2522 24.6639ZM57.349 26.4675C56.6691 26.4675 48.6474 25.8665 46.9612 25.5114C45.4947 25.2871 45.8256 26.0442 46.4177 26.167C46.9153 26.2703 52.8621 27.4236 55.8807 27.4781C56.8866 27.4511 58.0557 26.4946 57.349 26.4675ZM55.3098 28.1612C54.3581 28.0517 48.0218 27.0411 46.3091 26.5766C44.7597 26.1732 45.072 27.2077 45.6293 27.3691C46.1247 27.5127 51.5244 28.8332 52.7535 28.8992C53.2747 28.9267 53.7973 28.8913 54.3101 28.7937C56.0466 28.4449 55.3098 28.1612 55.3098 28.1612ZM52.7535 29.5818C52.0737 29.4453 46.5535 28.1882 44.9763 27.5876C44.2082 27.3186 43.9766 28.077 44.4597 28.2977C44.7588 28.4342 49.0008 30.2099 51.0131 30.3194C51.7472 30.3194 53.1052 29.9222 52.7535 29.5818ZM43.7525 28.4342C44.3776 28.7348 48.1851 30.3469 49.6533 30.6749C49.8572 30.7294 50.0725 30.8198 50.0553 30.9337C49.9247 31.8061 47.2219 31.064 47.0344 31.0038C45.9954 30.6691 43.876 29.8877 42.9773 29.0078C43.1952 28.8988 43.6982 28.5437 43.7525 28.4342ZM42.6102 29.3633C43.0179 29.6363 45.6831 31.0304 46.9065 31.4124C47.5458 31.6265 46.873 32.287 45.6244 31.9293C44.2444 31.7143 42.2295 30.0738 41.903 29.7733C42.0667 29.6913 42.4201 29.4728 42.6102 29.3633ZM41.3599 30.1013C41.8523 30.4399 42.8013 31.0729 43.4035 31.4767C43.6519 31.6434 44.2448 31.9727 44.232 32.236C44.2258 32.3619 43.9876 32.6008 42.8992 32.2037C42.2224 31.9253 41.4031 31.3593 40.7074 30.3473C40.8428 30.3056 41.1962 30.1829 41.3599 30.1013ZM40.1356 30.5109C40.3906 30.7671 40.7206 31.1172 41.0431 31.4399C41.3405 31.8247 42.0023 32.1017 41.7742 32.5463C41.5275 33.0277 40.7511 32.3349 40.4718 32.0698C40.0765 31.6944 39.6944 31.1984 39.551 30.7019C39.7416 30.6474 39.9591 30.5929 40.1356 30.5109Z" fill="white"/>
<path d="M49.5995 22.4229C48.8923 22.4229 46.4997 22.5869 45.6292 22.5869C43.1282 22.5869 39.7442 22.1437 37.4188 22.6237C35.973 22.922 35.7656 23.3427 35.7656 23.7948C35.7656 24.383 36.2545 24.7363 36.6012 24.9916C37.0093 25.2921 38.2605 26.0297 38.3148 27.9423C38.6408 27.8058 39.1032 27.7238 38.7772 27.0407C38.2072 25.8958 36.9268 24.5013 39.1173 23.9074C39.4628 23.8139 39.8885 23.7527 40.4091 23.735C42.0133 23.6804 44.3397 23.6685 45.1281 23.5319C45.9165 23.3954 48.8931 22.6969 49.5183 22.6153C49.7901 22.5865 49.7901 22.45 49.5995 22.4229Z" fill="white"/>
<path d="M43.3136 24.085C42.7427 24.085 40.9942 24.073 40.4079 24.101C38.7861 24.1785 37.628 24.9724 38.7993 26.4622C39.0288 26.7534 39.642 27.3638 39.8869 27.5823C40.1044 27.7463 40.5125 27.4728 40.1586 27.0632C40.6214 27.3363 41.1923 27.2818 40.9206 26.6537C41.3282 26.9817 42.0081 27.0087 41.6004 26.1621C41.8722 26.3806 42.6337 26.3536 42.144 25.6976C42.5521 25.8341 43.0144 25.5881 42.7149 25.1785C43.2319 25.261 43.5311 24.878 42.9866 24.5779C43.5042 24.7131 43.64 24.1121 43.3136 24.085ZM44.9093 23.7947C45.1295 23.7805 46.0847 23.6245 46.0617 24.1418C46.0388 24.6595 44.9777 24.464 44.7598 24.4232C44.3583 24.3483 44.0376 24.2251 44.0468 24.058C44.0561 23.8864 44.4743 23.8222 44.9093 23.7947ZM44.871 24.6816C45.1026 24.6994 45.9373 24.6581 45.8067 25.1315C45.7657 25.2805 45.4595 25.5819 44.4337 25.3314C43.9837 25.2215 43.7512 24.9795 43.7512 24.7871C43.7512 24.6191 44.3552 24.6422 44.871 24.6816ZM44.2114 25.4502C44.3764 25.4777 45.3329 25.5433 45.1727 26.0278C45.0607 26.3656 44.8886 26.2587 44.597 26.2937C44.4046 26.3168 42.9796 25.9134 43.2024 25.4542C43.269 25.3177 43.6881 25.3638 44.2114 25.4502ZM43.7389 26.1368C44.687 26.5238 44.6746 26.7858 44.6318 26.9272C44.5886 27.069 44.154 27.2441 43.254 26.8022C42.7983 26.5783 42.7921 26.3239 42.9041 26.1439C43.0444 25.9183 43.3983 25.9977 43.7389 26.1368ZM43.0744 26.7875C44.0618 27.1333 44.0053 27.4489 43.9273 27.6341C43.8412 27.8389 43.5293 28.057 42.7047 27.5295C42.2071 27.2113 41.8832 26.9444 41.9724 26.7326C42.0531 26.5402 42.5234 26.5903 43.0744 26.7875ZM42.688 27.7813C42.9469 27.9391 43.0647 28.1527 42.9015 28.3961C42.6099 28.8323 41.7482 28.0628 41.5321 27.8274C41.3719 27.6528 41.2687 27.4693 41.3595 27.3349C41.4535 27.1967 41.746 27.2073 42.688 27.7813ZM41.1292 27.8553C42.279 28.4444 42.1687 28.7299 42.0085 28.8518C41.8316 28.9865 41.4147 29.1279 40.7176 28.3185C40.4119 27.9639 40.58 27.5756 41.1292 27.8553ZM40.5548 28.4732C40.7975 28.7458 41.3662 29.1567 40.9263 29.463C40.5548 29.721 40.3373 29.4377 40.1551 29.2622C39.0989 28.2414 39.4483 27.5951 40.5548 28.4732Z" fill="white"/>
<path d="M37.0855 23.1214C36.2781 23.527 35.9441 23.9578 36.7736 24.5465C36.8746 24.6183 36.7493 24.7969 36.6478 24.7251C35.7359 24.078 35.9322 23.4064 36.9884 22.9259C37.0991 22.8701 37.1962 23.0656 37.0855 23.1214Z" fill="#333333"/>
<path d="M39.2162 29.7005C39.1412 29.3277 39.022 28.9656 38.8619 28.6176C38.8712 28.6039 39.154 28.2404 39.8506 29.2519C40.2358 29.8099 39.5563 30.0347 39.2162 29.7005ZM39.2382 31.4185C39.525 31.7532 39.7959 32.0342 39.9746 32.2585C40.3478 32.7274 39.3768 33.3054 38.8535 32.6388C39.0348 32.2483 39.1654 31.8396 39.2382 31.4185Z" fill="white"/>
</g>
</g>
<defs>
<clipPath id="clip0_1301_20143">
<rect width="62" height="62" fill="white"/>
</clipPath>
<clipPath id="clip1_1301_20143">
<rect width="62" height="19.5342" fill="white" transform="translate(0 21)"/>
</clipPath>
</defs>
</svg>
