<svg width="62" height="62" viewBox="0 0 62 62" fill="none" xmlns="http://www.w3.org/2000/svg">
<g clip-path="url(#clip0_1301_20173)">
<path fill-rule="evenodd" clip-rule="evenodd" d="M7 30.9955C7 17.7463 17.7485 7 31 7C44.2515 7 55 17.745 55 30.9955C55 44.255 44.2515 55 31 55C17.7485 55 7 44.2537 7 30.9955Z" fill="#333333"/>
<path fill-rule="evenodd" clip-rule="evenodd" d="M7.48047 30.9965C7.48047 18.0102 18.0144 7.49078 31.0008 7.48047C43.9873 7.49078 54.5212 18.0102 54.5122 30.9965C54.5225 43.9931 43.9873 54.5138 31.0008 54.5138C18.0144 54.5138 7.48047 43.9931 7.48047 30.9965Z" fill="white"/>
<path fill-rule="evenodd" clip-rule="evenodd" d="M8.82227 30.9953C8.82227 18.7501 18.7486 8.82227 30.9994 8.82227C43.2502 8.82227 53.1791 18.7501 53.1791 30.9953C53.1791 43.2496 43.2502 53.1774 30.9994 53.1684C18.7486 53.1774 8.82227 43.2496 8.82227 30.9953Z" fill="#333333"/>
<path fill-rule="evenodd" clip-rule="evenodd" d="M27.5086 14.3217C27.1376 14.6568 25.3341 15.7716 23.9185 15.6466C24.9889 14.408 26.6786 14.1116 27.5086 14.3217ZM23.5474 14.805C23.0122 15.8451 21.9818 16.688 20.8506 16.9354C21.0975 15.4494 23.3354 14.7186 23.5474 14.805ZM22.0801 16.9599C22.0801 16.9599 22.9385 16.0564 24.8622 16.2163C24.8635 16.2304 23.9185 17.3814 22.0801 16.9599ZM20.1537 16.3774C19.868 17.5914 18.826 18.4717 17.8435 19.1896C17.868 19.1896 18.4899 16.5514 20.1537 16.3774ZM19.3962 18.6199C19.3962 18.6328 19.8551 17.4677 22.1809 17.6043C22.1809 17.6043 20.9488 18.7437 19.3962 18.6199ZM20.0426 19.3623C20.0426 19.3623 18.5649 18.9782 17.21 20.887C17.2216 20.887 19.0484 20.6138 20.0426 19.3623ZM16.9876 18.8068C16.9876 18.8068 14.9501 20.2684 15.4957 22.3485C15.5073 22.3485 16.7497 21.2208 16.9876 18.8068ZM18.23 21.2582C18.2429 21.2582 16.1033 21.8897 15.4957 23.9828C15.5073 23.9828 17.3354 23.1772 18.23 21.2582ZM14.8001 21.9026C14.8131 21.9026 13.2345 23.7108 14.0658 25.9779C14.0658 25.9779 15.2475 24.3797 14.8001 21.9026ZM16.4265 24.4416C16.4265 24.4532 14.4395 25.2342 14.4395 27.8235C14.4395 27.8235 16.4265 25.4946 16.4265 24.4416ZM13.2707 25.3696C13.2707 25.3696 11.7931 27.8222 13.4091 29.5815C13.422 29.5815 14.1796 27.4768 13.2707 25.3696ZM15.7323 27.4523C15.7323 27.4523 14.0658 28.4305 14.1537 31.0559C14.1537 31.0559 15.5203 29.7181 15.7323 27.4523ZM12.2029 28.8391C12.2158 28.8391 13.6069 30.338 13.5939 33.4583C13.6069 33.4583 11.7931 32.4929 12.2029 28.8391ZM15.1712 30.869C15.1712 30.869 13.4815 32.5793 14.8984 34.845C14.8997 34.8463 15.5073 33.3719 15.1712 30.869ZM12.3283 33.0252C13.3457 34.0163 14.464 35.1183 14.826 36.5308C14.2649 36.1841 13.6948 35.8374 13.1841 35.3915C12.5261 34.7961 12.3386 33.9171 12.3283 33.0252ZM16.6773 38.2888C15.7685 37.2113 15.3716 35.6879 15.7581 34.314C16.6644 36.1223 16.7627 37.0631 16.6773 38.2888ZM13.5332 36.7164C14.7885 37.5838 16.018 38.3507 16.6773 39.6769C15.1117 39.2786 13.806 38.1161 13.347 36.5296C13.4091 36.5927 13.4569 36.6662 13.5332 36.7164ZM17.5073 37.7436C18.8377 39.267 18.9113 40.3445 19.272 41.248C18.1783 40.4077 17.1738 39.1936 17.3457 37.732C17.3587 37.732 17.4828 37.7191 17.5073 37.7436ZM15.2979 39.9488C16.8984 40.3561 18.3412 41.1745 19.5578 42.2649C18.6039 42.195 17.6701 41.9563 16.8002 41.5599C16.1292 41.2377 15.656 40.6409 15.2979 39.9488ZM17.2346 42.6373C18.9488 42.8461 20.689 43.2057 22.1563 44.1105C21.1738 43.9236 20.1912 44.0757 19.1996 43.8514C18.4235 43.6853 17.7291 43.2563 17.2346 42.6373ZM19.7452 40.1357C20.4175 40.6319 20.9876 41.0766 21.4724 41.7313C21.8693 42.2649 22.0555 42.859 22.4291 43.3681C20.8894 42.8977 19.6948 41.4477 19.5578 39.8612C19.5332 40.0094 19.6586 40.0597 19.7452 40.1357ZM22.3399 41.8924C23.2242 42.2649 24.155 42.6128 24.7898 43.3294C25.2617 43.863 25.6715 44.4314 26.0452 45.0384C24.4291 44.5938 23.0626 43.4055 22.3399 41.8924ZM25.0251 45.3993C25.0626 45.4251 25.0885 45.4122 25.1259 45.4122C21.4466 46.1803 22.0814 45.9084 19.9314 44.8528C20.9488 44.6067 23.8965 44.742 25.0251 45.3993ZM34.9281 14.3217C35.3018 14.6568 37.1027 15.7716 38.5183 15.6466C37.4505 14.408 35.7607 14.1116 34.9281 14.3217ZM38.892 14.805C39.4246 15.8451 40.4576 16.688 41.5759 16.9354C41.3393 15.4494 39.1014 14.7186 38.892 14.805ZM40.3438 16.9599C40.3567 16.9599 39.5009 16.0564 37.5616 16.2163C37.5746 16.2304 38.5183 17.3814 40.3438 16.9599ZM42.2701 16.3774C42.5674 17.5914 43.6108 18.4717 44.5804 19.1896C44.5687 19.1896 43.9469 16.5514 42.2701 16.3774ZM43.0406 18.6199C43.0406 18.6328 42.5817 17.4677 40.2585 17.6043C40.2585 17.6043 41.488 18.7437 43.0406 18.6199ZM42.3942 19.3623C42.3942 19.3623 43.8745 18.9782 45.2152 20.887C45.2152 20.887 43.3897 20.6138 42.3942 19.3623ZM45.4517 18.8068C45.4517 18.8068 47.4892 20.2684 46.9294 22.3485C46.9294 22.3485 45.687 21.2208 45.4517 18.8068ZM44.0839 21.2582C44.0839 21.2582 46.2223 21.8897 46.8183 23.9828C46.8183 23.9828 44.9928 23.1772 44.0839 21.2582ZM47.4905 21.9026C47.4905 21.9026 49.0691 23.7108 48.2352 25.9779C48.2352 25.9779 47.0536 24.3797 47.4905 21.9026ZM45.7504 24.4416C45.7504 24.4532 47.7504 25.2342 47.7375 27.8235C47.7504 27.8235 45.7504 25.4946 45.7504 24.4416ZM48.9062 25.3696C48.9062 25.3696 50.3839 27.8222 48.7704 29.5815C48.7704 29.5815 47.9973 27.4768 48.9062 25.3696ZM46.3076 27.4523C46.3076 27.4523 47.9741 28.4305 47.8861 31.0559C47.8861 31.0559 46.5209 29.7181 46.3076 27.4523ZM49.8254 28.8391C49.8383 28.8391 48.4472 30.338 48.4343 33.4583C48.4472 33.4583 50.2468 32.4929 49.8254 28.8391ZM46.8687 30.869C46.4602 31.4662 46.265 32.183 46.3145 32.9041C46.364 33.6252 46.6552 34.3089 47.1415 34.845C47.1415 34.8463 46.5455 33.3719 46.8687 30.869ZM49.7116 33.0252C48.6942 34.0163 47.5759 35.1183 47.2139 36.5308C47.775 36.1841 48.3451 35.8374 48.8428 35.3915C49.528 34.7961 49.7013 33.9171 49.7116 33.0252ZM45.316 38.2888C46.2352 37.2113 46.6192 35.6879 46.2352 34.314C45.3406 36.1223 45.2397 37.0631 45.316 38.2888ZM48.4602 36.7164C47.2152 37.5838 45.9857 38.3507 45.316 39.6769C46.8816 39.2786 48.1977 38.1161 48.6437 36.5296C48.583 36.5927 48.5326 36.6662 48.4602 36.7164ZM44.4201 37.7436C43.0923 39.267 43.0161 40.3445 42.645 41.248C43.7504 40.4077 44.7562 39.1936 44.5687 37.732C44.5687 37.732 44.4446 37.7191 44.4201 37.7436ZM46.6308 39.9488C45.0277 40.3561 43.5875 41.1745 42.3684 42.2649C43.3191 42.1962 44.2498 41.9574 45.1156 41.5599C45.8008 41.2377 46.2701 40.6409 46.6308 39.9488ZM44.5455 42.6373C42.8415 42.8461 41.1014 43.2057 39.6237 44.1105C40.6192 43.9236 41.5978 44.0757 42.5804 43.8514C43.3588 43.6911 44.055 43.2609 44.5455 42.6373ZM42.1344 40.1357C41.4621 40.6319 40.892 41.0766 40.4071 41.7313C40.0206 42.2649 39.8241 42.859 39.4504 43.3681C41.0031 42.8977 42.1977 41.4477 42.3218 39.8612C42.3464 40.0094 42.2326 40.0597 42.1344 40.1357ZM39.4504 41.8924C38.5571 42.2649 37.6379 42.6128 36.9915 43.3294C36.5326 43.863 36.1201 44.4314 35.7362 45.0384C37.3625 44.5938 38.7303 43.4055 39.4504 41.8924ZM36.7536 45.3993C36.7303 45.4251 36.6929 45.4122 36.6683 45.4122C40.3451 46.1803 39.6987 45.9084 41.8629 44.8528C40.8415 44.6067 37.8978 44.742 36.7536 45.3993Z" fill="white"/>
<path fill-rule="evenodd" clip-rule="evenodd" d="M25.6573 43.3926C25.6573 43.4055 27.6341 43.5795 28.9877 44.916C30.3542 46.2783 33.6341 48.8057 37.4233 48.8057L37.1505 49.1782C37.1505 49.1782 36.9385 49.2632 36.5041 49.1782C31.36 48.1613 32.8144 47.232 29.9818 47.232C28.2895 47.232 28.6386 47.5168 27.1363 47.504C25.6315 47.5168 24.0051 46.5876 23.4453 46.5876C23.4582 46.5876 24.6645 45.9432 26.7627 45.9432C28.2042 45.9432 27.9314 46.1301 28.614 46.1172C28.627 46.1301 28.5791 45.871 28.1292 45.7344C27.6948 45.5978 26.2301 44.3463 25.6573 43.3926Z" fill="white"/>
<path fill-rule="evenodd" clip-rule="evenodd" d="M36.2206 43.1691C36.2206 43.1691 35.6725 43.5416 35.3014 43.5287C34.9278 43.5416 33.7707 43.9991 33.4863 44.2208C33.2135 44.4579 32.1198 45.7081 31.5845 46.1669V46.3023C31.5845 46.3151 31.8095 46.4376 32.0952 46.7224C32.3926 47.0188 33.2639 47.4171 34.2814 47.4171C36.0215 47.4171 37.5238 46.4505 38.1224 46.4505C38.1224 46.4505 36.8037 45.806 34.9278 45.8434C33.7487 45.8692 33.0261 45.9788 33.0261 45.9788C33.0261 45.9788 34.3318 45.2493 34.7908 44.7776C35.251 44.3226 36.2206 43.1691 36.2206 43.1691ZM29.5471 47.6903C29.1631 47.7032 26.1185 49.1776 24.9989 49.1776H24.3551L24.0797 48.8052H24.9989C25.5341 48.8052 28.3421 47.8128 28.9381 47.7406C29.5471 47.6774 29.5471 47.7032 29.5471 47.6903ZM31.2135 19.7227C31.4054 19.7227 31.5944 19.769 31.7645 19.8575C31.9346 19.9461 32.0808 20.0742 32.1906 20.2311C32.3004 20.388 32.3705 20.569 32.3951 20.7587C32.4197 20.9484 32.398 21.1412 32.3318 21.3208H32.9653C32.9653 21.2589 32.9524 21.1855 32.9524 21.1107C32.9524 20.4547 33.485 19.934 34.1314 19.9211C34.7908 19.934 35.3234 20.4547 35.3234 21.1107C35.3281 21.3071 35.2765 21.5007 35.1747 21.6688L35.7979 21.8041C35.8015 21.49 35.9283 21.1897 36.151 20.9675C36.3737 20.7452 36.6747 20.6185 36.9898 20.6145C37.6492 20.6274 38.1818 21.1481 38.1689 21.8041C38.1775 22.0639 38.0942 22.3185 37.9336 22.5233L38.5425 22.7334C38.6279 22.1637 39.1256 21.6804 39.7216 21.6804C39.8779 21.6797 40.0329 21.7101 40.1773 21.7698C40.3218 21.8294 40.4528 21.9172 40.5628 22.028C40.6728 22.1387 40.7596 22.2702 40.8181 22.4148C40.8765 22.5594 40.9055 22.7141 40.9032 22.87C40.9162 23.303 40.5425 23.7747 40.1935 23.9848V25.9426H43.3493L40.0694 29.3116V37.0033C40.0694 38.5138 38.6408 39.2214 36.9136 39.2214C35.9207 39.2214 35.1618 39.3567 33.5354 39.5436C31.4604 39.7782 31.0131 40.6559 31.0002 40.6559C31.0131 40.6559 30.1068 39.7047 28.4779 39.5178C26.8644 39.331 26.0913 39.1956 25.0997 39.1956C23.3855 39.1956 22.006 38.577 22.006 37.4364V29.3103L18.9355 25.9413H22.0913V23.8727C21.9171 23.7693 21.773 23.6225 21.673 23.4466C21.573 23.2708 21.5207 23.0721 21.5212 22.87C21.5212 22.214 22.0538 21.6804 22.7132 21.6804C23.3092 21.6804 23.8069 22.1637 23.8819 22.7334L24.5025 22.5233C24.3435 22.3168 24.2559 22.0644 24.2529 21.8041C24.2553 21.4891 24.382 21.1877 24.6055 20.9651C24.8291 20.7425 25.1315 20.6166 25.4475 20.6145C26.1043 20.6274 26.6266 21.1481 26.6266 21.8041L27.2471 21.6688C27.1529 21.4881 27.1065 21.2863 27.1123 21.0827C27.1182 20.8791 27.1761 20.6804 27.2806 20.5053C27.3851 20.3303 27.5327 20.1847 27.7094 20.0825C27.8861 19.9803 28.0861 19.9247 28.2904 19.9211C28.6064 19.9232 28.9089 20.0491 29.1324 20.2717C29.356 20.4943 29.4826 20.7957 29.485 21.1107C29.485 21.1855 29.4721 21.2589 29.4591 21.3208H30.1056C30.0537 21.1864 30.0278 21.0434 30.0293 20.8994C30.0327 20.5877 30.1586 20.2897 30.3801 20.0697C30.6016 19.8496 30.9008 19.725 31.2135 19.7227Z" fill="white"/>
<path fill-rule="evenodd" clip-rule="evenodd" d="M30.4906 20.8976C30.4906 20.5006 30.8138 20.1797 31.2133 20.1797C31.6218 20.1797 31.945 20.5019 31.9334 20.8976C31.9355 20.9925 31.9183 21.0868 31.8829 21.1749C31.8475 21.2631 31.7945 21.3431 31.7273 21.4103C31.66 21.4775 31.5798 21.5304 31.4914 21.5659C31.4031 21.6014 31.3085 21.6187 31.2133 21.6167C31.1184 21.6169 31.0245 21.5984 30.9368 21.5624C30.8491 21.5263 30.7695 21.4734 30.7023 21.4066C30.6352 21.3398 30.582 21.2604 30.5456 21.1731C30.5093 21.0857 30.4906 20.9921 30.4906 20.8976ZM27.5714 21.1089C27.5714 20.9182 27.6474 20.7353 27.7827 20.6004C27.918 20.4655 28.1015 20.3898 28.2928 20.3898C28.4841 20.3898 28.6676 20.4655 28.8029 20.6004C28.9382 20.7353 29.0142 20.9182 29.0142 21.1089C29.0142 21.2997 28.9382 21.4826 28.8029 21.6175C28.6676 21.7523 28.4841 21.8281 28.2928 21.8281C28.1015 21.8281 27.918 21.7523 27.7827 21.6175C27.6474 21.4826 27.5714 21.2997 27.5714 21.1089ZM24.7259 21.8023C24.7259 21.6114 24.802 21.4283 24.9374 21.2933C25.0728 21.1583 25.2564 21.0825 25.4479 21.0825C25.6394 21.0825 25.8231 21.1583 25.9585 21.2933C26.0939 21.4283 26.17 21.6114 26.17 21.8023C26.17 21.9932 26.0939 22.1763 25.9585 22.3113C25.8231 22.4463 25.6394 22.5221 25.4479 22.5221C25.2564 22.5221 25.0728 22.4463 24.9374 22.3113C24.802 22.1763 24.7259 21.9932 24.7259 21.8023ZM21.9941 22.8669C21.9941 22.6765 22.07 22.4939 22.2051 22.3593C22.3401 22.2247 22.5233 22.149 22.7143 22.149C22.9052 22.149 23.0884 22.2247 23.2234 22.3593C23.3585 22.4939 23.4343 22.6765 23.4343 22.8669C23.4343 23.0573 23.3585 23.2399 23.2234 23.3745C23.0884 23.5092 22.9052 23.5848 22.7143 23.5848C22.5233 23.5848 22.3401 23.5092 22.2051 23.3745C22.07 23.2399 21.9941 23.0573 21.9941 22.8669Z" fill="#333333"/>
<path fill-rule="evenodd" clip-rule="evenodd" d="M30.4914 20.8976C30.4914 20.5006 30.8146 20.1797 31.2141 20.1797C31.6227 20.1797 31.9459 20.5019 31.9342 20.8976C31.9363 20.9925 31.9192 21.0868 31.8837 21.1749C31.8483 21.2631 31.7954 21.3431 31.7281 21.4103C31.6608 21.4775 31.5806 21.5304 31.4923 21.5659C31.404 21.6014 31.3093 21.6187 31.2141 21.6167C31.1193 21.6169 31.0253 21.5984 30.9377 21.5624C30.85 21.5263 30.7703 21.4734 30.7032 21.4066C30.6361 21.3398 30.5828 21.2604 30.5465 21.1731C30.5101 21.0857 30.4914 20.9921 30.4914 20.8976ZM33.4132 21.1089C33.4175 20.9198 33.4947 20.7395 33.6288 20.6056C33.7629 20.4716 33.9436 20.3944 34.1333 20.3898C34.2286 20.3882 34.3231 20.4057 34.4114 20.4413C34.4997 20.4769 34.58 20.5298 34.6474 20.5968C34.7148 20.6639 34.768 20.7438 34.8038 20.8318C34.8397 20.9197 34.8574 21.014 34.856 21.1089C34.8578 21.204 34.8403 21.2984 34.8046 21.3865C34.7688 21.4746 34.7157 21.5547 34.6482 21.6218C34.5807 21.689 34.5003 21.7419 34.4119 21.7773C34.3234 21.8128 34.2287 21.83 34.1333 21.8281C33.9438 21.8229 33.7635 21.7454 33.6295 21.6116C33.4955 21.4778 33.4181 21.2979 33.4132 21.1089ZM36.2691 21.8023C36.2691 21.6114 36.3452 21.4283 36.4806 21.2933C36.616 21.1583 36.7996 21.0825 36.9911 21.0825C37.1826 21.0825 37.3663 21.1583 37.5017 21.2933C37.6371 21.4283 37.7132 21.6114 37.7132 21.8023C37.7132 21.9932 37.6371 22.1763 37.5017 22.3113C37.3663 22.4463 37.1826 22.5221 36.9911 22.5221C36.7996 22.5221 36.616 22.4463 36.4806 22.3113C36.3452 22.1763 36.2691 21.9932 36.2691 21.8023ZM39.0034 22.8669C39.0034 22.6765 39.0793 22.4939 39.2143 22.3593C39.3494 22.2247 39.5325 22.149 39.7235 22.149C39.9145 22.149 40.0976 22.2247 40.2327 22.3593C40.3677 22.4939 40.4436 22.6765 40.4436 22.8669C40.4436 23.0573 40.3677 23.2399 40.2327 23.3745C40.0976 23.5092 39.9145 23.5848 39.7235 23.5848C39.5325 23.5848 39.3494 23.5092 39.2143 23.3745C39.0793 23.2399 39.0034 23.0573 39.0034 22.8669ZM38.494 25.9137C37.2038 25.1456 34.0726 24.0191 31.2141 24.032C28.3686 24.0565 25.2374 25.1468 23.9316 25.9137H38.494Z" fill="#333333"/>
<path fill-rule="evenodd" clip-rule="evenodd" d="M31.1501 23.5742C34.7907 23.5987 38.7687 25.2342 39.5509 26.014V24.3669L38.5683 24.7883L38.4326 23.4376L37.3621 23.0291L36.2076 23.8101L35.834 22.6089L34.7287 22.2364L33.7112 23.1669L33.0648 21.9645L31.9465 21.8652L31.2523 22.9298H31.0402L30.3434 21.8652L29.238 21.9645L28.5942 23.1669L27.5612 22.2364L26.4559 22.6089L26.0848 23.8101L24.9407 23.0291L23.8573 23.4376L23.7332 24.7883L22.7377 24.3669V26.014C23.5341 25.2342 27.5082 23.5497 31.1501 23.5742ZM20.5645 26.6094L22.4895 28.7025H30.7157V26.6094H20.5645ZM31.3117 26.6713H35.0635V29.2593H31.3117V26.6713ZM31.3117 29.8044H35.0635V30.387H31.3117V29.8044ZM31.3117 30.6963H35.0635V31.3034H31.3117V30.6963ZM31.3117 31.6127H35.0635V32.2326H31.3117V31.6127ZM22.8747 29.1613H30.7157V29.7671H22.8747V29.1613ZM22.8747 30.2504H30.7157V32.2326H22.8747V30.2504ZM22.8747 32.752H26.4908V35.4289H22.8747V32.752ZM27.0868 32.752H30.6394V33.4338H27.0868V32.752ZM27.0868 33.7315H30.6394V34.4249H27.0868V33.7315ZM27.0868 34.7342H30.6394V35.4289H27.0868V34.7342ZM27.0868 35.9109H30.6394V39.6769C30.3292 39.4024 29.6853 38.9822 28.6899 38.8585L27.0868 38.6716V35.9109ZM22.8631 36.518L22.8747 35.9109H26.4908V36.518H22.8631ZM26.4908 37.8558V38.6123C26.2053 38.5871 25.9189 38.5751 25.6323 38.5762C24.602 38.5762 23.7086 38.3275 23.2109 37.8571L26.4908 37.8558ZM22.951 37.4962C22.9124 37.4173 22.8829 37.3343 22.8631 37.2487V36.9265H26.4921V37.4962H22.951ZM31.2742 39.615C31.5974 39.3431 32.2568 38.9448 33.5367 38.7966C35.1631 38.611 35.9232 38.4757 36.9148 38.4757C37.3492 38.4757 37.7603 38.4396 38.1314 38.3391C38.505 38.254 39.1514 37.9808 39.1514 37.4975V36.4806H31.2729V39.615H31.2742ZM31.2742 35.4405H39.1514V36.0359H31.2742V35.4405ZM31.2742 32.752H39.1514V34.7845H31.2742V32.752ZM35.6349 29.8044H39.1514V32.2197H35.6349V29.8044ZM35.7099 27.3273V26.6713H41.6737L41.0273 27.3273H35.7099ZM39.7099 28.7025L39.1643 29.2593H35.7099V28.7025H39.7099ZM35.7099 28.3429V27.7359H40.5813L40.046 28.3429H35.7099Z" fill="#333333"/>
<path fill-rule="evenodd" clip-rule="evenodd" d="M34.9387 37.1261V37.4599C34.9387 37.5462 34.9762 37.5462 35.0499 37.5217C35.1507 37.4973 35.2244 37.398 35.3989 37.3478C35.5735 37.3233 35.9445 37.3233 36.0712 37.3233C36.0712 37.5836 36.0841 37.8195 35.8837 37.9174C35.6963 38.0283 35.5735 38.0785 35.4248 38.0656C35.2891 38.0785 35.0253 38.103 34.9529 38.0656C34.8766 38.0283 34.728 37.9909 34.728 37.8298C34.728 37.6687 34.715 37.3722 34.728 37.2975C34.7409 37.2356 34.6038 37.2601 34.5405 37.2601C34.4797 37.2601 34.4422 37.1982 34.5172 37.1609C34.6025 37.1235 34.7021 37.0127 34.8029 36.9998C34.8202 36.9989 34.8375 37.0015 34.8538 37.0074C34.8701 37.0134 34.885 37.0225 34.8976 37.0343C34.9103 37.0461 34.9205 37.0603 34.9275 37.076C34.9346 37.0918 34.9384 37.1088 34.9387 37.1261ZM32.9775 33.4477V33.7815C32.9775 33.855 33.0124 33.8563 33.0887 33.8318C33.1869 33.8189 33.2632 33.7081 33.4377 33.6707C33.6123 33.6333 33.9833 33.6449 34.1074 33.6449C34.1074 33.9053 34.1203 34.1282 33.9199 34.2404C33.7351 34.3383 33.6123 34.3886 33.461 34.3886C33.3253 34.3886 33.0641 34.426 32.9891 34.377C32.9154 34.3396 32.7668 34.3151 32.7668 34.154C32.7668 33.9813 32.7538 33.6965 32.7668 33.6217C32.7797 33.5599 32.6426 33.5844 32.5793 33.5715C32.5159 33.5844 32.481 33.5225 32.5534 33.4722C32.6413 33.4477 32.7409 33.3369 32.8391 33.324C32.9516 33.3111 32.9775 33.3975 32.9775 33.4477ZM26.4397 30.9461C26.4526 31.057 26.4526 31.2065 26.4397 31.2812C26.4526 31.3547 26.4772 31.3547 26.5638 31.3302C26.6517 31.3173 26.7254 31.2193 26.8999 31.1691C27.0874 31.1317 27.4481 31.1446 27.5722 31.1446C27.5851 31.4049 27.5851 31.6279 27.3847 31.7388C27.1972 31.838 27.0874 31.887 26.9374 31.887C26.7874 31.887 26.5405 31.9243 26.4526 31.8741C26.3789 31.8367 26.2302 31.8122 26.2302 31.6511V31.1175C26.2406 31.0557 26.1035 31.0802 26.0428 31.0673C25.9923 31.0802 25.9549 31.0183 26.0298 30.968C26.1035 30.9435 26.2044 30.8314 26.3026 30.8198C26.4151 30.8095 26.4526 30.8946 26.4397 30.9461ZM24.1423 27.2665C24.1552 27.3773 24.1552 27.5268 24.1423 27.6016C24.1552 27.6751 24.1798 27.6751 24.2664 27.6506C24.3543 27.6377 24.428 27.5397 24.6026 27.4895C24.7771 27.4534 25.1507 27.465 25.2748 27.465C25.2748 27.7253 25.2878 27.9483 25.0874 28.0591C24.8999 28.17 24.7771 28.2074 24.6284 28.2074C24.4927 28.2074 24.2419 28.2447 24.1565 28.1945C24.0803 28.17 23.9316 28.1326 23.9316 27.9715C23.9316 27.7975 23.9187 27.514 23.9316 27.4392C23.9445 27.3773 23.8075 27.4018 23.7467 27.3889C23.6963 27.4005 23.6588 27.3387 23.7338 27.2897C23.8075 27.2652 23.9057 27.1544 24.0066 27.1415C24.1165 27.1312 24.1552 27.2162 24.1423 27.2665ZM28.6387 27.2665V27.6016C28.6387 27.6751 28.6763 27.6751 28.7629 27.6506C28.8508 27.6377 28.9245 27.5397 29.099 27.4895C29.2735 27.4534 29.6472 27.465 29.7713 27.465C29.7713 27.7253 29.7842 27.9483 29.5838 28.0591C29.3963 28.17 29.2735 28.2074 29.1249 28.2074C28.9891 28.2074 28.728 28.2447 28.653 28.1945C28.5793 28.17 28.4306 28.1326 28.4306 27.9715C28.4306 27.7975 28.4177 27.514 28.4306 27.4392C28.441 27.3773 28.3039 27.4018 28.2431 27.3889C28.1927 27.4005 28.1423 27.3387 28.2173 27.2897C28.3026 27.2652 28.4048 27.1544 28.503 27.1415C28.6142 27.1312 28.6387 27.2162 28.6387 27.2665ZM37.0757 33.4477V33.7815C37.0757 33.855 37.1132 33.8563 37.2024 33.8318C37.2878 33.8189 37.3614 33.7081 37.536 33.6707C37.7105 33.6333 38.0841 33.6449 38.2083 33.6449C38.2083 33.9053 38.2212 34.1282 38.0208 34.2404C37.8333 34.3383 37.7105 34.3886 37.5618 34.3886C37.4261 34.3886 37.1649 34.426 37.09 34.377C37.0163 34.3396 36.8676 34.3151 36.8676 34.154C36.8676 33.9813 36.8547 33.6965 36.8676 33.6217C36.8805 33.5599 36.7409 33.5844 36.6801 33.5715C36.6297 33.5844 36.5793 33.5225 36.6543 33.4722C36.7396 33.4477 36.8417 33.3369 36.94 33.324C37.0499 33.3111 37.0757 33.3975 37.0757 33.4477Z" fill="white"/>
</g>
<defs>
<clipPath id="clip0_1301_20173">
<rect width="62" height="62" fill="white"/>
</clipPath>
</defs>
</svg>
