<svg width="25" height="24" viewBox="0 0 25 24" fill="none" xmlns="http://www.w3.org/2000/svg">
<g clip-path="url(#clip0_1228_5422)">
<path d="M12.668 0C6.05143 0 0.667969 5.38346 0.667969 12C0.667969 18.6165 6.05143 24 12.668 24C19.2845 24 24.668 18.6165 24.668 12C24.668 5.38346 19.2845 0 12.668 0ZM19.3747 8.84211L11.7056 16.4511C11.2544 16.9023 10.5326 16.9323 10.0514 16.4812L5.99128 12.782C5.51007 12.3308 5.48 11.5789 5.90105 11.0977C6.35218 10.6165 7.10406 10.5865 7.58526 11.0376L10.8033 13.985L17.6604 7.12782C18.1417 6.64662 18.8935 6.64662 19.3747 7.12782C19.8559 7.60902 19.8559 8.3609 19.3747 8.84211Z" fill="#48C07F"/>
</g>
<defs>
<clipPath id="clip0_1228_5422">
<rect width="24" height="24" fill="white" transform="translate(0.667969)"/>
</clipPath>
</defs>
</svg>
