<svg width="28" height="28" viewBox="0 0 28 28" fill="none" xmlns="http://www.w3.org/2000/svg">
<path fill-rule="evenodd" clip-rule="evenodd" d="M0 14C0 6.26801 6.26801 0 14 0C21.732 0 28 6.26801 28 14C28 21.732 21.732 28 14 28C6.26801 28 0 21.732 0 14Z" fill="#474747"/>
<path fill-rule="evenodd" clip-rule="evenodd" d="M19.8341 9.18665C20.4767 9.36297 20.9827 9.8825 21.1545 10.5423C21.4665 11.738 21.4665 14.2329 21.4665 14.2329C21.4665 14.2329 21.4665 16.7277 21.1545 17.9235C20.9827 18.5833 20.4767 19.1028 19.8341 19.2792C18.6697 19.5995 13.9999 19.5995 13.9999 19.5995C13.9999 19.5995 9.33006 19.5995 8.16552 19.2792C7.52296 19.1028 7.01692 18.5833 6.84519 17.9235C6.5332 16.7277 6.5332 14.2329 6.5332 14.2329C6.5332 14.2329 6.5332 11.738 6.84519 10.5423C7.01692 9.8825 7.52296 9.36297 8.16552 9.18665C9.33006 8.86621 13.9999 8.86621 13.9999 8.86621C13.9999 8.86621 18.6697 8.86621 19.8341 9.18665ZM12.5999 12.1328V16.7995L16.3332 14.4663L12.5999 12.1328Z" fill="white"/>
</svg>
