<svg width="21" height="20" viewBox="0 0 21 20" fill="none" xmlns="http://www.w3.org/2000/svg">
<g clip-path="url(#clip0_457_48751)">
<path fill-rule="evenodd" clip-rule="evenodd" d="M4.63793 6.55172C5.97103 6.55172 7.05172 5.47103 7.05172 4.13793C7.05172 2.80483 5.97103 1.72414 4.63793 1.72414C3.30483 1.72414 2.22414 2.80483 2.22414 4.13793C2.22414 5.47103 3.30483 6.55172 4.63793 6.55172ZM4.63793 8.27586C6.92325 8.27586 8.77586 6.42325 8.77586 4.13793C8.77586 1.85261 6.92325 0 4.63793 0C2.35261 0 0.5 1.85261 0.5 4.13793C0.5 6.42325 2.35261 8.27586 4.63793 8.27586Z" fill="#FF5100"/>
<path fill-rule="evenodd" clip-rule="evenodd" d="M16.3621 6.55172C17.6952 6.55172 18.7758 5.47103 18.7758 4.13793C18.7758 2.80483 17.6952 1.72414 16.3621 1.72414C15.029 1.72414 13.9483 2.80483 13.9483 4.13793C13.9483 5.47103 15.029 6.55172 16.3621 6.55172ZM16.3621 8.27586C18.6474 8.27586 20.5 6.42325 20.5 4.13793C20.5 1.85261 18.6474 0 16.3621 0C14.0767 0 12.2241 1.85261 12.2241 4.13793C12.2241 6.42325 14.0767 8.27586 16.3621 8.27586Z" fill="#FF5100"/>
<path fill-rule="evenodd" clip-rule="evenodd" d="M16.3621 18.2758C17.6952 18.2758 18.7758 17.1952 18.7758 15.8621C18.7758 14.529 17.6952 13.4483 16.3621 13.4483C15.029 13.4483 13.9483 14.529 13.9483 15.8621C13.9483 17.1952 15.029 18.2758 16.3621 18.2758ZM16.3621 20C18.6474 20 20.5 18.1474 20.5 15.8621C20.5 13.5767 18.6474 11.7241 16.3621 11.7241C14.0767 11.7241 12.2241 13.5767 12.2241 15.8621C12.2241 18.1474 14.0767 20 16.3621 20Z" fill="#FF5100"/>
<path fill-rule="evenodd" clip-rule="evenodd" d="M4.63793 18.2758C5.97103 18.2758 7.05172 17.1952 7.05172 15.8621C7.05172 14.529 5.97103 13.4483 4.63793 13.4483C3.30483 13.4483 2.22414 14.529 2.22414 15.8621C2.22414 17.1952 3.30483 18.2758 4.63793 18.2758ZM4.63793 20C6.92325 20 8.77586 18.1474 8.77586 15.8621C8.77586 13.5767 6.92325 11.7241 4.63793 11.7241C2.35261 11.7241 0.5 13.5767 0.5 15.8621C0.5 18.1474 2.35261 20 4.63793 20Z" fill="#FF5100"/>
</g>
<defs>
<clipPath id="clip0_457_48751">
<rect width="20" height="20" fill="white" transform="translate(0.5)"/>
</clipPath>
</defs>
</svg>
