<svg width="14" height="7" viewBox="0 0 14 7" fill="#1C1A1A" xmlns="http://www.w3.org/2000/svg">
<path d="M0.497486 0.682694C0.497486 0.540194 0.549985 0.397695 0.662485 0.285195C0.879985 0.0676948 1.23999 0.0676948 1.45749 0.285195L6.34748 5.17519C6.70748 5.53519 7.29249 5.53519 7.65249 5.17519L12.5425 0.285195C12.76 0.0676953 13.12 0.0676953 13.3375 0.285195C13.555 0.502695 13.555 0.862695 13.3375 1.08019L8.44749 5.97019C8.06499 6.35269 7.54748 6.57019 6.99998 6.57019C6.45248 6.57019 5.93498 6.36019 5.55248 5.97019L0.662485 1.08019C0.557485 0.967694 0.497486 0.825194 0.497486 0.682694Z" fill="#1C1A1A"/>
</svg>
