<svg width="62" height="62" viewBox="0 0 62 62" fill="none" xmlns="http://www.w3.org/2000/svg">
<mask id="mask0_1354_18115" style="mask-type:luminance" maskUnits="userSpaceOnUse" x="5" y="14" width="52" height="34">
<path d="M57 14H5V47.5484H57V14Z" fill="white"/>
</mask>
<g mask="url(#mask0_1354_18115)">
<path fill-rule="evenodd" clip-rule="evenodd" d="M34.9377 34.9377V36.655H38.0852L39.736 38.9446H44.5525L45.6425 36.655H40.0282L38.7901 34.9377H34.9377ZM26.1918 33.8833L22.7592 36.655H16.3575L17.4475 38.9446H23.3915L27.3407 35.7553L26.1918 33.8833ZM34.6185 29.9162V32.5584H47.5921L48.8495 29.9162H34.6185ZM13.1505 29.9162L14.4079 32.5584H27.3815V29.9162H13.1505ZM11.1558 25.7255L12.4996 28.5484H27.3815V25.7255H11.1558ZM34.6185 24.7488C34.6185 26.0149 34.6185 27.2816 34.6185 28.5484H49.5004L50.8442 25.7255H36.7684V24.7488H34.6185ZM30.688 20.6711L28.2426 22.5488V23.6014H29.2006C29.1885 28.2369 29.1764 32.873 29.1643 37.5085C29.1814 39.2662 28.7791 39.421 27.4623 39.5467V41.5533H34.5377V39.5467C32.7487 39.3256 32.9369 38.4132 32.9193 37.4662C32.9336 31.8337 32.9149 26.3175 32.9292 20.6851L30.688 20.6711ZM31 15.819C44.4837 15.819 55.4141 22.5147 55.4141 30.7742C55.4141 39.0337 44.4837 45.7294 31 45.7294C17.5163 45.7294 6.58587 39.0337 6.58587 30.7742C6.58587 22.5147 17.5163 15.819 31 15.819ZM31 14.7494C17.0013 14.7494 5.65371 21.924 5.65371 30.7742C5.65371 39.6244 17.0013 46.7991 31 46.7991C44.9987 46.7991 56.3463 39.6244 56.3463 30.7742C56.3463 21.924 44.9987 14.7494 31 14.7494ZM31 14C45.3592 14 57 21.51 57 30.7742C57 40.0382 45.3592 47.5484 31 47.5484C16.6408 47.5484 5 40.0382 5 30.7742C5 21.51 16.6408 14 31 14Z" fill="#333333"/>
</g>
</svg>
