<svg width="33" height="32" viewBox="0 0 33 32" fill="none" xmlns="http://www.w3.org/2000/svg">
<rect x="2.37891" y="1.5" width="28.6012" height="29" rx="14.3006" fill="white"/>
<g clip-path="url(#clip0_378_7931)">
<path d="M16.8789 14.1875V18.0486H22.2445C22.0089 19.2903 21.3019 20.3417 20.2414 21.0486L23.4771 23.5593C25.3623 21.8191 26.45 19.2632 26.45 16.2269C26.45 15.52 26.3865 14.8401 26.2687 14.1876L16.8789 14.1875Z" fill="#4285F4"/>
<path d="M11.2914 17.8975L10.5617 18.4561L7.97852 20.4682C9.61901 23.7219 12.9813 25.9697 16.8786 25.9697C19.5704 25.9697 21.8272 25.0815 23.4768 23.5589L20.2412 21.0482C19.3529 21.6464 18.22 22.009 16.8786 22.009C14.2865 22.009 12.0841 20.2598 11.2955 17.9032L11.2914 17.8975Z" fill="#34A853"/>
<path d="M7.97762 11.5322C7.2979 12.8736 6.9082 14.3872 6.9082 16.0005C6.9082 17.6138 7.2979 19.1274 7.97762 20.4688C7.97762 20.4778 11.2949 17.8947 11.2949 17.8947C11.0955 17.2965 10.9777 16.6621 10.9777 16.0004C10.9777 15.3387 11.0955 14.7043 11.2949 14.1061L7.97762 11.5322Z" fill="#FBBC05"/>
<path d="M16.8788 10.0001C18.3472 10.0001 19.6523 10.5077 20.6946 11.4865L23.5496 8.63155C21.8184 7.01826 19.5708 6.03027 16.8788 6.03027C12.9815 6.03027 9.61901 8.26897 7.97852 11.5319L11.2957 14.1059C12.0842 11.7494 14.2867 10.0001 16.8788 10.0001Z" fill="#EA4335"/>
</g>
<rect x="2.37891" y="1.5" width="28.6012" height="29" rx="14.3006" stroke="#333333" stroke-width="3"/>
<defs>
<clipPath id="clip0_378_7931">
<rect width="19.5409" height="19.9397" fill="white" transform="translate(6.9082 6.03027)"/>
</clipPath>
</defs>
</svg>
