<svg width="52" height="61" viewBox="0 0 52 61" fill="none" xmlns="http://www.w3.org/2000/svg">
<path d="M3.73391 34.88C5.79399 34.88 7.40343 33.2062 7.46781 31.1461V22.4552C7.46781 18.9788 11.1373 16.2105 15.6438 16.2105H39.2704L36.7597 18.7212C35.3433 20.1376 35.3433 22.5195 36.7597 23.9358C38.176 25.3521 40.5579 25.3521 41.9742 23.9358L50.794 15.1161C51.4378 14.4723 51.8884 13.5067 51.8884 12.4766C51.8884 11.5109 51.5021 10.5453 50.794 9.83713L41.9742 1.08176C40.5579 -0.334546 38.176 -0.334546 36.7597 1.08176C35.3433 2.49807 35.3433 4.88005 36.7597 6.29635L39.2704 8.80708H15.5794C7.01717 8.80708 0 14.923 0 22.4552V31.1461C0.0643777 33.2062 1.67382 34.88 3.73391 34.88ZM2.3176 22.4552C2.3176 16.1461 8.30472 11.0603 15.6438 11.0603H41.9742C43.0043 11.0603 43.4549 9.83713 42.7468 9.12897L38.3691 4.75129C37.7897 4.17189 37.7897 3.2706 38.3691 2.69121C38.9485 2.11181 39.8498 2.11181 40.4292 2.69121L49.2489 11.5109C49.4421 11.7041 49.6996 12.1547 49.6996 12.541C49.6996 12.8629 49.5708 13.3135 49.2489 13.571L40.3648 22.3264C39.7854 22.9058 38.8841 22.9058 38.3047 22.3264C37.7253 21.747 37.7253 20.8457 38.3047 20.2663L42.6824 15.8886C43.3906 15.1805 42.8755 13.9573 41.9099 13.9573H15.5794C9.84979 13.9573 5.15021 17.7556 5.15021 22.4552V31.1461C5.15021 31.9187 4.50644 32.6268 3.66953 32.6268C2.83262 32.6268 2.18884 31.983 2.18884 31.1461L2.3176 22.4552Z" fill="white"/>
<path d="M48.1545 25.0938C46.0944 25.0938 44.485 26.7676 44.4206 28.8277V37.5186C44.4206 40.995 40.7511 43.7633 36.2446 43.7633H12.6824L15.1931 41.2525C16.6738 39.8362 16.6738 37.4543 15.2575 36.038C13.8412 34.5573 11.4592 34.5573 10.0429 35.9736C10.0429 35.9736 10.0429 35.9736 9.97854 36.038L1.09442 44.8577C0.450643 45.5015 0 46.4671 0 47.4972C0 48.5272 0.450643 49.4285 1.09442 50.1367L9.91416 58.9564C11.3305 60.3727 13.7124 60.3727 15.1288 58.9564C16.5451 57.5401 16.5451 55.1581 15.1288 53.7418L12.618 51.2311H36.2446C44.8069 51.2311 51.824 45.1152 51.824 37.583V28.8277C51.824 26.7676 50.2146 25.0938 48.1545 25.0938ZM49.6352 37.5186C49.6352 43.8277 43.6481 48.9135 36.309 48.9135H9.97854C8.9485 48.9135 8.49785 50.1367 9.20601 50.8448L13.5837 55.2225C14.1631 55.8019 14.1631 56.7032 13.5837 57.2826C13.0043 57.862 12.103 57.862 11.5236 57.2826L2.70386 48.5272C2.44635 48.2697 2.3176 47.8191 2.25322 47.5616C2.25322 47.1753 2.44635 46.7246 2.70386 46.4671L11.5236 37.6474C12.103 37.068 13.0043 37.068 13.5837 37.6474C14.1631 38.2268 14.1631 39.1281 13.5837 39.7075L9.20601 44.0852C8.49785 44.7933 9.01288 46.0165 9.97854 46.0165H36.309C42.0386 46.0165 46.7382 42.2182 46.7382 37.5186V28.8277C46.7382 28.0551 47.382 27.347 48.2189 27.347C49.0558 27.347 49.6996 27.9907 49.6996 28.8277L49.6352 37.5186Z" fill="white"/>
</svg>
