<svg width="82" height="82" viewBox="0 0 82 82" fill="none" xmlns="http://www.w3.org/2000/svg">
<mask id="mask0_657_4468" style="mask-type:luminance" maskUnits="userSpaceOnUse" x="0" y="0" width="82" height="82">
<path d="M0 4.73658e-06H82V82H0V4.73658e-06Z" fill="white"/>
</mask>
<g mask="url(#mask0_657_4468)">
<path d="M73.9922 72.0703H8.00781C4.46964 72.0703 1.60156 69.2021 1.60156 65.6641V16.3359C1.60156 12.7979 4.46964 9.92969 8.00781 9.92969H73.9922C77.5304 9.92969 80.3984 12.7979 80.3984 16.3359V65.6641C80.3984 69.2021 77.5304 72.0703 73.9922 72.0703Z" stroke="white" stroke-width="1.5" stroke-miterlimit="10" stroke-linecap="round" stroke-linejoin="round"/>
<path d="M21.9606 24.7843L23.8924 28.6958L28.2097 29.322C28.8097 29.409 29.0494 30.1462 28.6154 30.5695L25.4924 33.6153L26.2308 37.9149C26.3335 38.5123 25.7065 38.9683 25.1698 38.6862L21.308 36.6572L17.4471 38.6881C16.9107 38.9705 16.2834 38.515 16.3856 37.9175L17.122 33.6176L13.9972 30.5733C13.563 30.1504 13.8024 29.413 14.4023 29.3257L18.7194 28.6973L20.6489 24.7847C20.917 24.2409 21.6922 24.2408 21.9606 24.7843Z" fill="white"/>
<path d="M41.6561 24.7843L43.5879 28.6958L47.9051 29.322C48.505 29.409 48.7448 30.1462 48.3107 30.5695L45.1877 33.6153L45.9262 37.9149C46.029 38.5123 45.402 38.9683 44.8651 38.6862L41.0033 36.6572L37.1424 38.6881C36.606 38.9705 35.9787 38.515 36.0809 37.9175L36.8173 33.6176L33.6925 30.5733C33.2583 30.1504 33.4977 29.413 34.0977 29.3257L38.4147 28.6973L40.3442 24.7847C40.6123 24.2409 41.3875 24.2408 41.6561 24.7843Z" fill="white"/>
<path d="M61.3494 24.7843L63.2812 28.6958L67.5985 29.322C68.1984 29.409 68.438 30.1462 68.0042 30.5695L64.881 33.6153L65.6196 37.9149C65.7223 38.5123 65.0952 38.9683 64.5586 38.6862L60.6966 36.6572L56.8357 38.6881C56.2993 38.9705 55.672 38.515 55.7743 37.9175L56.5106 33.6176L53.3859 30.5733C52.9516 30.1504 53.1912 29.413 53.7909 29.3257L58.1079 28.6973L60.0377 24.7847C60.3056 24.2409 61.0808 24.2408 61.3494 24.7843Z" fill="white"/>
<path d="M21.3066 48.3311H60.6982" stroke="white" stroke-width="1.5" stroke-miterlimit="10" stroke-linecap="round" stroke-linejoin="round"/>
<path d="M26.5566 55.9067H55.4442" stroke="white" stroke-width="1.5" stroke-miterlimit="10" stroke-linecap="round" stroke-linejoin="round"/>
</g>
</svg>
