<svg width="62" height="62" viewBox="0 0 62 62" fill="none" xmlns="http://www.w3.org/2000/svg">
<g clip-path="url(#clip0_378_7739)">
<mask id="mask0_378_7739" style="mask-type:luminance" maskUnits="userSpaceOnUse" x="0" y="0" width="62" height="62">
<path d="M0 7.62939e-06H62V62H0V7.62939e-06Z" fill="white"/>
</mask>
<g mask="url(#mask0_378_7739)">
<path d="M52.3216 38.1478C53.8107 34.0941 54.6133 29.7389 54.6133 25.2428V10.9147L54.5344 10.9009C45.4694 9.3115 36.7861 6.02381 28.9414 1.21094C21.1508 6.014 12.5186 9.29297 3.50385 10.8736L3.26953 10.9147V25.2428C3.26953 41.3867 13.6163 55.7131 28.9414 60.7891L28.9573 60.7837C32.061 59.7542 34.9605 58.3451 37.6109 56.6185" stroke="white" stroke-width="1.5" stroke-miterlimit="10" stroke-linecap="round" stroke-linejoin="round"/>
<path d="M46.6098 36.8312C48.0302 33.2168 48.7988 29.2999 48.7988 25.2425V15.6483C41.8522 13.9907 35.2017 11.4099 28.9461 7.94258C22.6909 11.4234 16.0368 14.007 9.08008 15.6564V25.2425C9.08008 38.2549 16.9834 49.8191 28.9392 54.6035C31.1125 53.7337 33.1519 52.6399 35.0342 51.3542" stroke="white" stroke-width="1.5" stroke-miterlimit="10" stroke-linecap="round" stroke-linejoin="round"/>
<path d="M23.1613 36.793C22.5987 36.793 22.036 36.5784 21.6067 36.1491C20.7483 35.2906 20.7483 33.8986 21.6067 33.04L33.1934 21.4533C34.052 20.5947 35.444 20.5947 36.3025 21.4533C37.161 22.3119 37.161 23.7038 36.3025 24.5623L24.7159 36.1491C24.2866 36.5784 23.7239 36.793 23.1613 36.793Z" fill="white"/>
<path d="M36.9984 34.5945C36.9984 35.8086 36.0141 36.793 34.7999 36.793C33.5858 36.793 32.6016 35.8086 32.6016 34.5945C32.6016 33.3804 33.5858 32.3961 34.7999 32.3961C36.0141 32.3961 36.9984 33.3804 36.9984 34.5945Z" fill="white"/>
<path d="M20.9141 23.0076C20.9141 21.7935 21.8983 20.8091 23.1125 20.8091C24.3266 20.8091 25.3109 21.7935 25.3109 23.0076C25.3109 24.2217 24.3266 25.2061 23.1125 25.2061C21.8983 25.2061 20.9141 24.2217 20.9141 23.0076Z" fill="white"/>
<path d="M34.8027 48.8242C34.8027 42.2162 40.1596 36.8592 46.7676 36.8592C53.3756 36.8592 58.7324 42.2162 58.7324 48.8242C58.7324 55.4321 53.3756 60.7891 46.7676 60.7891C40.1596 60.7891 34.8027 55.4321 34.8027 48.8242Z" stroke="white" stroke-width="1.5" stroke-miterlimit="10" stroke-linecap="round" stroke-linejoin="round"/>
<path d="M45.505 54.3369L39.9902 48.8222L42.98 45.8325L45.505 48.3574L50.5515 43.311L53.5412 46.3006L45.505 54.3369Z" fill="white"/>
</g>
</g>
<defs>
<clipPath id="clip0_378_7739">
<rect width="62" height="62" fill="white"/>
</clipPath>
</defs>
</svg>
