<svg width="62" height="62" viewBox="0 0 62 62" fill="none" xmlns="http://www.w3.org/2000/svg">
<path d="M57.0517 19.8618C53.9125 23.0011 49.264 23.7859 45.4003 22.0955L44.7966 22.6992L22.7012 44.7946L22.0974 45.3983C23.7878 49.262 23.003 53.9105 19.8637 57.0497C16.7245 60.189 12.076 60.9739 8.21232 59.2834L12.9212 54.5745L13.4042 52.7031L9.23863 48.5375L7.36719 49.0205L2.6583 53.7294C1.02832 49.8657 1.75276 45.2776 4.892 42.078C8.03125 38.9387 12.6798 38.1539 16.5434 39.8443L17.1471 39.2406L39.2425 17.1451L39.8462 16.5414C38.1559 12.6778 38.9407 8.02927 42.0799 4.89005C45.2795 1.75081 49.928 1.02636 53.7313 2.65635L49.0225 7.36521L48.5395 9.2367L52.705 13.4626L54.5765 12.9796L59.2854 8.27077C60.9757 12.0741 60.191 16.7226 57.0517 19.8618Z" stroke="white" stroke-width="1.5" stroke-miterlimit="10" stroke-linejoin="round"/>
<path d="M37.6134 31.6338L57.6562 49.9863C59.7692 52.0992 59.7692 55.5403 57.6562 57.6533C55.5433 59.7662 52.1022 59.7662 49.9892 57.6533L31.6367 37.6104" stroke="white" stroke-width="1.5" stroke-miterlimit="10" stroke-linejoin="round"/>
<path d="M26.9268 26.9248L2.59766 2.5957" stroke="white" stroke-width="1.5" stroke-miterlimit="10"/>
<path d="M3.86328 1.32812L10.2625 4.28626L8.57215 6.03697L3.86328 1.32812Z" fill="white"/>
<path d="M1.33008 3.86377L4.28821 10.263L6.03894 8.57261L1.33008 3.86377Z" fill="white"/>
<path d="M33.8047 42.2592L42.3772 33.7471" stroke="white" stroke-width="1.5" stroke-miterlimit="10" stroke-linecap="round"/>
</svg>
