<svg width="42" height="28" viewBox="0 0 42 28" fill="none" xmlns="http://www.w3.org/2000/svg">
<path d="M20.9991 0.699402C15.5495 0.676618 10.306 2.78096 6.38416 6.56479C2.46229 10.3486 0.171477 15.5133 -0.000952401 20.9602C-0.00804367 21.1457 0.0226107 21.3307 0.0891517 21.5039C0.155693 21.6772 0.256734 21.8351 0.386148 21.9682C0.518864 22.1046 0.677545 22.213 0.852831 22.287C1.02812 22.3611 1.21646 22.3993 1.40675 22.3994H2.80675C3.16785 22.3966 3.51417 22.2556 3.77455 22.0054C4.03492 21.7551 4.18958 21.4147 4.20675 21.054C4.30702 18.965 4.89893 16.9291 5.93432 15.112C6.96971 13.2949 8.41936 11.7477 10.1654 10.5965C11.9114 9.44518 13.9045 8.72224 15.9826 8.48643C18.0607 8.25062 20.1651 8.50861 22.1246 9.2394C18.1234 13.2042 13.9031 17.5932 12.6375 19.6554C12.2925 20.2078 12.0616 20.8237 11.9587 21.4669C11.8558 22.11 11.8829 22.7672 12.0383 23.3997C12.1967 24.0549 12.4848 24.6716 12.8855 25.2136C13.2862 25.7556 13.7915 26.2118 14.3714 26.5553C15.1774 27.0421 16.1011 27.2994 17.0426 27.2994C17.9057 27.3042 18.7557 27.088 19.5115 26.6714C20.2674 26.2548 20.9041 25.6517 21.361 24.9194C22.6728 22.797 24.8133 16.6517 26.4009 11.8C27.7092 12.9732 28.7711 14.3949 29.525 15.9822C30.2788 17.5696 30.7095 19.291 30.7921 21.0463C30.803 21.4085 30.9544 21.7522 31.2142 22.0048C31.4741 22.2573 31.822 22.3988 32.1843 22.3994H40.5914C40.7815 22.3992 40.9697 22.361 41.1449 22.2869C41.32 22.2128 41.4786 22.1045 41.6113 21.9682C41.7407 21.8353 41.8419 21.6775 41.9085 21.5044C41.9752 21.3312 42.006 21.1463 41.9991 20.9609C41.8268 15.5139 39.5361 10.349 35.6142 6.56504C31.6923 2.78106 26.4487 0.676623 20.9991 0.699402ZM2.80675 20.9994L1.39905 21.0106C1.5486 16.2884 3.40543 11.7806 6.62525 8.3231L8.42635 10.1235C6.76162 11.4246 5.39764 13.0701 4.42773 14.9472C3.45782 16.8243 2.90488 18.8888 2.80675 20.9994ZM9.58905 9.3045L7.61715 7.3354C11.0755 4.12128 15.5802 2.26738 20.299 2.1162V7.2668C19.3762 7.08958 18.4387 7.00005 17.4991 6.9994C14.6963 6.99595 11.9512 7.7959 9.58905 9.3045ZM20.1695 24.1844C19.6458 25.0061 18.8202 25.5891 17.8706 25.8078C16.921 26.0264 15.9235 25.8633 15.0931 25.3534C14.6725 25.105 14.3059 24.7748 14.015 24.3824C13.724 23.99 13.5146 23.5433 13.3991 23.0686C13.2879 22.616 13.2685 22.1456 13.3422 21.6853C13.416 21.2251 13.5812 20.7843 13.8282 20.389C14.9482 18.5634 19.0488 14.166 25.3741 8.0081C25.4075 7.97273 25.4477 7.94451 25.4923 7.92514C25.537 7.90577 25.5851 7.89565 25.6337 7.8954C25.7142 7.89812 25.7925 7.92229 25.8605 7.9654C25.9336 8.00432 25.9905 8.06787 26.0211 8.14477C26.0517 8.22166 26.0541 8.30692 26.0278 8.3854C24.4941 13.2294 21.6991 21.7176 20.1695 24.1844ZM26.8671 10.3594C27.0415 9.8162 27.2094 9.2912 27.3614 8.8103C27.4844 8.43445 27.4759 8.02793 27.3374 7.65751C27.1989 7.28709 26.9385 6.97479 26.5991 6.7719C26.26 6.55607 25.8578 6.46166 25.4581 6.50413C25.0585 6.5466 24.685 6.72343 24.3989 7.0057C24.0153 7.3795 23.6213 7.7652 23.2236 8.1558C22.726 7.94495 22.217 7.76196 21.699 7.6077V2.1162C26.418 2.26701 30.9228 4.12096 34.381 7.3354L29.0833 12.6295C28.4288 11.795 27.6857 11.0338 26.8671 10.3594ZM32.1913 20.9889C32.0693 18.4307 31.2807 15.9488 29.9038 13.7894L35.3729 8.3238C38.59 11.7776 40.4443 16.2816 40.5914 20.9994L32.1913 20.9889Z" fill="white"/>
<path d="M17.1492 19.5996C16.6647 19.5996 16.191 19.7433 15.7881 20.0125C15.3852 20.2817 15.0712 20.6644 14.8857 21.112C14.7003 21.5597 14.6518 22.0523 14.7463 22.5276C14.8408 23.0028 15.0742 23.4394 15.4168 23.782C15.7594 24.1247 16.196 24.358 16.6712 24.4525C17.1465 24.5471 17.6391 24.4985 18.0868 24.3131C18.5345 24.1277 18.9171 23.8137 19.1863 23.4108C19.4555 23.0079 19.5992 22.5342 19.5992 22.0496C19.5992 21.3998 19.3411 20.7767 18.8816 20.3172C18.4222 19.8577 17.799 19.5996 17.1492 19.5996ZM17.1492 23.0996C16.9415 23.0996 16.7385 23.038 16.5659 22.9227C16.3932 22.8073 16.2586 22.6433 16.1791 22.4514C16.0997 22.2596 16.0789 22.0484 16.1194 21.8448C16.1599 21.6411 16.2599 21.454 16.4068 21.3071C16.5536 21.1603 16.7407 21.0603 16.9444 21.0198C17.1481 20.9793 17.3592 21.0001 17.551 21.0795C17.7429 21.159 17.9069 21.2936 18.0223 21.4663C18.1376 21.6389 18.1992 21.8419 18.1992 22.0496C18.1992 22.3281 18.0886 22.5952 17.8917 22.7921C17.6948 22.989 17.4277 23.0996 17.1492 23.0996Z" fill="white"/>
</svg>
