<svg width="43" height="42" viewBox="0 0 43 42" fill="none" xmlns="http://www.w3.org/2000/svg">
<g clip-path="url(#clip0_660_10605)">
<path d="M21.666 42C33.2641 42 42.666 32.5981 42.666 21C42.666 9.40187 33.2641 0 21.666 0C10.0679 0 0.666016 9.40187 0.666016 21C0.679153 32.5927 10.0733 41.9869 21.666 42ZM21.666 1.39998C32.4909 1.39998 41.266 10.1751 41.266 21C41.266 31.8249 32.4909 40.6 21.666 40.6C10.8411 40.6 2.06599 31.8249 2.06599 21C2.07849 10.1802 10.8462 1.41248 21.666 1.39998Z" fill="white"/>
<path d="M16.7947 23.2682C17.0649 20.7816 19.1647 18.8978 21.666 18.8978C24.1673 18.8978 26.2671 20.7816 26.5372 23.2682C26.6161 23.9728 27.2143 24.5041 27.9234 24.4996H37.6259C38.3222 24.5005 38.9134 23.9895 39.0134 23.3005C39.1159 22.5376 39.1668 21.7692 39.1659 20.9995C39.1688 11.3345 31.3361 3.49703 21.6711 3.49414C12.0062 3.49126 4.16897 11.324 4.16609 20.9889C4.16384 21.7615 4.21447 22.5334 4.31733 23.2989C4.41667 23.9891 5.00883 24.5009 5.7061 24.4996H15.4085C16.1177 24.5041 16.7159 23.9728 16.7947 23.2682ZM25.4269 18.7407L28.9181 16.3535C28.9748 16.317 29.0494 16.3259 29.0959 16.375C29.142 16.424 29.1468 16.4993 29.1071 16.5538L26.7221 20.042C26.3562 19.5473 25.9201 19.1089 25.4269 18.7407ZM5.7061 23.1086C5.61125 22.4062 5.56446 21.6984 5.56607 20.9895C5.56767 15.2377 8.63807 9.92366 13.6202 7.04904C18.6023 4.17474 24.7396 4.17667 29.7201 7.05417C34.7006 9.93167 37.7678 15.2474 37.7659 20.9995C37.7665 21.7016 37.722 22.403 37.6329 23.0996H37.6259L27.9282 23.1176C27.8648 22.526 27.7177 21.946 27.4915 21.3955L30.2572 17.351C30.6814 16.7403 30.6087 15.9135 30.0844 15.3864C29.5599 14.859 28.7338 14.7818 28.1208 15.2028L24.0657 17.9755C22.2373 17.2209 20.1606 17.3699 18.4584 18.3774C16.7566 19.3848 15.6271 21.1337 15.4085 23.0996L5.7061 23.1086Z" fill="white"/>
<path d="M22.4794 27.1957C22.6659 27.1541 22.8485 27.097 23.0254 27.0256C23.0401 27.0195 23.052 27.0102 23.0667 27.0041C23.467 26.8304 23.8313 26.5837 24.1405 26.2761C24.2107 26.2059 24.2562 26.1309 24.3164 26.0604C24.4081 25.9608 24.494 25.8557 24.5731 25.7461C24.6327 25.6487 24.6872 25.5487 24.7362 25.4458C24.7955 25.3459 24.8493 25.243 24.898 25.1379C24.9365 25.044 24.9576 24.9466 24.9877 24.8508C25.0313 24.7287 25.0682 24.6041 25.0977 24.4778C25.1172 24.3782 25.1172 24.2759 25.1284 24.1753C25.1476 24.0513 25.1601 23.9263 25.1662 23.8007C25.1601 23.6754 25.1476 23.5505 25.1284 23.4261C25.1172 23.3255 25.1172 23.2233 25.0977 23.124C25.0682 22.9974 25.0313 22.8731 24.9877 22.7507C24.9576 22.6549 24.9365 22.5574 24.898 22.4639C24.8493 22.3585 24.7955 22.2556 24.7362 22.1556C24.6872 22.0531 24.6327 21.9528 24.5731 21.8554C24.494 21.7458 24.4081 21.6407 24.3164 21.541C24.2562 21.4712 24.2078 21.3927 24.1405 21.3257C23.831 21.0178 23.4666 20.771 23.0661 20.5977C23.0514 20.5913 23.0395 20.5823 23.0248 20.5759C22.8479 20.5044 22.6652 20.4474 22.4787 20.4057C22.4403 20.3968 22.4047 20.3791 22.3653 20.3714C21.9036 20.2772 21.4274 20.2772 20.9653 20.3714C20.9262 20.3791 20.8907 20.3968 20.8519 20.4057C20.6657 20.4474 20.4831 20.5044 20.3059 20.5759C20.2915 20.5823 20.2793 20.5913 20.2649 20.5977C19.8643 20.771 19.5003 21.0181 19.1908 21.3257C19.1209 21.3955 19.0754 21.4705 19.0152 21.541C18.9235 21.6407 18.8376 21.7458 18.7582 21.8554C18.6989 21.9528 18.6444 22.0531 18.5951 22.1556C18.5361 22.2556 18.482 22.3585 18.4336 22.4639C18.3951 22.5574 18.374 22.6549 18.3439 22.7507C18.3003 22.8731 18.2634 22.9974 18.2339 23.124C18.2144 23.2233 18.2144 23.3255 18.2032 23.4261C18.184 23.5505 18.1718 23.6754 18.166 23.8007C18.1721 23.9263 18.1846 24.0513 18.2038 24.1753C18.215 24.2759 18.215 24.3782 18.2346 24.4778C18.2641 24.6041 18.3009 24.7287 18.3445 24.8508C18.3746 24.9466 18.3958 25.044 18.4342 25.1379C18.4829 25.243 18.5368 25.3459 18.596 25.4458C18.6451 25.5487 18.6995 25.6487 18.7591 25.7461C18.8383 25.8557 18.9242 25.9608 19.0158 26.0604C19.076 26.1303 19.1244 26.2088 19.1917 26.2761C19.5013 26.5837 19.8656 26.8304 20.2661 27.0041C20.2809 27.0102 20.2927 27.0195 20.3075 27.0256C20.4844 27.097 20.667 27.1541 20.8535 27.1957C20.892 27.205 20.9275 27.2223 20.9669 27.23C21.4287 27.3242 21.9048 27.3242 22.3669 27.23C22.4054 27.2223 22.4409 27.205 22.4794 27.1957ZM20.2479 25.3407C20.1857 25.2821 20.1271 25.2199 20.0729 25.1539C20.0191 25.0953 19.9688 25.0338 19.9217 24.9697C19.8848 24.9094 19.8512 24.8469 19.8211 24.7829C19.7868 24.7252 19.7554 24.6659 19.7272 24.605C19.7025 24.5464 19.6894 24.4826 19.6698 24.4217C19.6455 24.3528 19.6246 24.2827 19.6073 24.2115C19.5964 24.1401 19.5891 24.068 19.5859 23.9952C19.5737 23.8683 19.5737 23.7402 19.5859 23.6133C19.5891 23.5409 19.5964 23.4684 19.6073 23.397C19.6246 23.3258 19.6455 23.2557 19.6698 23.1868C19.6894 23.1259 19.7025 23.0621 19.7272 23.0035C19.7515 22.9445 19.7893 22.8846 19.8211 22.825C19.8512 22.7612 19.8848 22.6991 19.9217 22.6388C19.9688 22.5747 20.0191 22.5132 20.0729 22.4546C20.2777 22.2094 20.5359 22.014 20.8275 21.8836C20.8349 21.8791 20.8426 21.8752 20.8506 21.8717C20.9567 21.8288 21.0659 21.7945 21.1775 21.7695C21.2005 21.7637 21.2223 21.7532 21.2476 21.749C21.5245 21.6923 21.8103 21.6923 22.0875 21.749C22.1112 21.7532 22.133 21.7637 22.1577 21.7695C22.2692 21.7945 22.3784 21.8288 22.4845 21.8717C22.4935 21.8717 22.5012 21.8813 22.5105 21.8848C22.8017 22.0156 23.0594 22.2111 23.2641 22.4562C23.317 22.5145 23.3667 22.5754 23.4135 22.6388C23.45 22.6991 23.4836 22.7612 23.5141 22.825C23.5455 22.8846 23.5842 22.942 23.608 23.0035C23.6317 23.065 23.6458 23.1259 23.6653 23.1868C23.6897 23.2557 23.7105 23.3258 23.7275 23.397C23.7416 23.4668 23.7432 23.5431 23.7499 23.6174C23.7611 23.7418 23.7611 23.8667 23.7499 23.9911C23.7432 24.0654 23.7416 24.1404 23.7275 24.2115C23.7105 24.2827 23.6897 24.3528 23.6653 24.4217C23.6458 24.4826 23.6323 24.5464 23.608 24.605C23.5833 24.664 23.5455 24.7242 23.5141 24.7835C23.4836 24.8473 23.45 24.9094 23.4135 24.9697C23.3667 25.0331 23.317 25.0943 23.2641 25.1523C22.8992 25.5926 22.3688 25.8621 21.7981 25.898C21.2274 25.9335 20.6676 25.732 20.2508 25.3407H20.2479Z" fill="white"/>
<path d="M13.2723 11.6199C14.0023 10.9617 14.8079 10.393 15.6721 9.92512C15.8441 9.82867 16.0178 9.73895 16.2062 9.65083L16.7334 10.9236C16.8413 11.1854 17.0967 11.3562 17.38 11.3562C17.472 11.3559 17.563 11.3379 17.6482 11.303C17.8196 11.2318 17.9561 11.0953 18.0269 10.9239C18.0981 10.7522 18.0981 10.5596 18.0269 10.3878L17.5005 9.11666C18.035 8.92376 18.5829 8.77091 19.1398 8.65908C19.3414 8.61358 19.5429 8.58121 19.7509 8.54917C19.765 8.54917 19.7797 8.54404 19.7935 8.54052C20.1639 8.48893 20.5404 8.44888 20.9137 8.42292H20.9669V9.79983C20.9669 10.1866 21.2803 10.5 21.6668 10.5C22.0535 10.5 22.3669 10.1866 22.3669 9.79983V8.41811H22.4095C22.7918 8.44471 23.169 8.48829 23.5378 8.53635L23.582 8.54501C23.7919 8.57705 23.9915 8.60941 24.212 8.65812C24.7634 8.77027 25.3059 8.92216 25.8353 9.1125L25.3063 10.3846C25.2351 10.5561 25.2348 10.749 25.3059 10.9204C25.3771 11.0918 25.5133 11.2283 25.6847 11.2995C25.7699 11.3344 25.8609 11.3523 25.9529 11.3527C26.2362 11.3527 26.4915 11.1819 26.5999 10.9201L27.126 9.6473L27.1331 9.65083C27.3131 9.73414 27.4875 9.82514 27.6701 9.92672C28.5311 10.3939 29.3335 10.9624 30.0599 11.6199L29.0903 12.5889C28.8169 12.8622 28.8169 13.3057 29.0903 13.5794C29.3639 13.8527 29.8074 13.8527 30.0807 13.5794L31.0462 12.6062C31.7047 13.3352 32.2735 14.1404 32.741 15.0043C32.8368 15.1774 32.9272 15.3546 33.0159 15.5401L31.7425 16.0672C31.3855 16.2152 31.2157 16.6248 31.3641 16.982C31.5121 17.3393 31.9216 17.5088 32.2789 17.3608L33.5507 16.8337C33.7427 17.3679 33.8955 17.9152 34.008 18.4714C34.0525 18.6739 34.0855 18.8761 34.1176 19.0847C34.1176 19.0972 34.1221 19.1107 34.1246 19.1232C34.1772 19.4949 34.2172 19.8724 34.2432 20.2476V20.2998H32.8663C32.4795 20.2998 32.1661 20.6135 32.1661 21C32.1661 21.3864 32.4795 21.7001 32.8663 21.7001H34.9661C35.3528 21.7001 35.6662 21.3864 35.6662 21C35.6662 20.7199 35.6585 20.4399 35.6438 20.1601C35.6143 19.7368 35.5704 19.3209 35.5121 18.9127C35.5121 18.8922 35.5067 18.872 35.5022 18.8531C35.466 18.6191 35.4281 18.3926 35.3804 18.1789C35.2522 17.5345 35.0737 16.901 34.8472 16.2841C34.7805 16.0832 34.7036 15.8858 34.6168 15.6926C34.6133 15.6801 34.6085 15.6673 34.6043 15.6561C34.604 15.6513 34.604 15.6465 34.6043 15.6413C34.6043 15.6359 34.5966 15.6324 34.5937 15.626C34.4992 15.3888 34.3922 15.1585 34.2887 14.9434C34.1849 14.7288 34.0849 14.5291 33.9763 14.3333C33.3392 13.1532 32.5337 12.0723 31.5852 11.1245C31.5781 11.1175 31.5759 11.1069 31.5692 11.0998C31.5621 11.0928 31.5515 11.0902 31.5438 11.0832C30.5986 10.1369 29.5213 9.3336 28.3449 8.69753C28.1411 8.5841 27.9367 8.47836 27.7352 8.38447C27.5118 8.2768 27.2795 8.17042 27.0421 8.07525C27.0366 8.07525 27.0331 8.06756 27.0267 8.06467C27.0203 8.06179 27.0155 8.06467 27.0107 8.06467L26.9741 8.05154C26.7889 7.9679 26.5995 7.89356 26.4066 7.82948C25.7876 7.60229 25.1518 7.42284 24.5052 7.29243C24.2793 7.24148 24.0537 7.20431 23.8207 7.1681C23.7996 7.16297 23.7781 7.15945 23.7563 7.15688C23.3481 7.09856 22.9325 7.05466 22.4964 7.02454C21.9407 6.99442 21.3838 6.99442 20.8282 7.02454C20.4049 7.05402 19.9893 7.0976 19.5807 7.15592C19.5593 7.15881 19.5384 7.16233 19.5179 7.1665C19.284 7.20367 19.0587 7.23667 18.8479 7.28826C18.2035 7.4174 17.57 7.59556 16.9532 7.82114C16.7526 7.88747 16.5555 7.96406 16.3629 8.05058L16.3264 8.06403C16.321 8.06403 16.3152 8.06403 16.3104 8.06403C16.3056 8.06403 16.3008 8.07172 16.295 8.07461C16.0579 8.16914 15.8259 8.27616 15.6112 8.37966C15.3962 8.48316 15.1959 8.58346 15.0014 8.69176C13.8219 9.32879 12.7411 10.134 11.7932 11.0825C11.7855 11.0893 11.7759 11.0915 11.7682 11.0992C11.7605 11.1069 11.7589 11.1168 11.7519 11.1235C10.8053 12.0691 10.001 13.1477 9.36496 14.3247C9.25217 14.5285 9.14578 14.7323 9.05286 14.9338C8.9407 15.1661 8.82823 15.4055 8.75325 15.6035L8.74556 15.6234C8.74556 15.6295 8.73627 15.6337 8.73306 15.6407C8.72954 15.6478 8.73306 15.6554 8.72858 15.6631C8.72441 15.6708 8.7196 15.6843 8.71544 15.6961C8.63213 15.8807 8.55907 16.0695 8.49562 16.2617C8.26619 16.8808 8.08643 17.5175 7.95729 18.1651C7.90698 18.391 7.86853 18.6179 7.832 18.8508C7.82784 18.8707 7.82495 18.8909 7.82207 18.912C7.76407 19.3206 7.72017 19.7359 7.69069 20.172C7.67371 20.4399 7.66602 20.7199 7.66602 21C7.66602 21.3864 7.9794 21.7001 8.36617 21.7001H10.466C10.8527 21.7001 11.1661 21.3864 11.1661 21C11.1661 20.6135 10.8527 20.2998 10.466 20.2998H9.0849C9.0849 20.286 9.0849 20.2707 9.0849 20.2572C9.11053 19.8733 9.15027 19.4955 9.20346 19.1238C9.20346 19.1113 9.20827 19.0982 9.21019 19.0847C9.24255 18.8749 9.27556 18.6739 9.32362 18.4583C9.43514 17.9065 9.58734 17.3637 9.77864 16.8343L11.0492 17.3608C11.2802 17.4566 11.5449 17.4217 11.7435 17.2695C11.9419 17.1173 12.0441 16.8705 12.0114 16.6225C11.9791 16.3745 11.8166 16.163 11.5856 16.0672L10.3141 15.5401V15.5337C10.3984 15.353 10.4894 15.1786 10.59 14.996C11.0581 14.135 11.6275 13.3326 12.286 12.6062L13.255 13.5758C13.5284 13.8492 13.9718 13.8492 14.2455 13.5758C14.5188 13.3022 14.5188 12.8587 14.2455 12.5854L13.2723 11.6199Z" fill="white"/>
<path d="M16.0656 30.0992C16.452 30.0992 16.7654 29.7858 16.7654 29.399C16.7654 29.0126 16.452 28.6992 16.0656 28.6992H14.6656C13.8924 28.6992 13.2656 29.326 13.2656 30.0992V34.9993C13.2656 35.3857 13.579 35.6991 13.9655 35.6991C14.3522 35.6991 14.6656 35.3857 14.6656 34.9993V32.8992H16.0656C16.452 32.8992 16.7654 32.5858 16.7654 32.1993C16.7654 31.8126 16.452 31.4992 16.0656 31.4992H14.6656V30.0992H16.0656Z" fill="white"/>
<path d="M20.9666 28.6992C20.5801 28.6992 20.2668 29.0126 20.2668 29.399V33.5993C20.2668 33.9857 19.9534 34.2991 19.5666 34.2991C19.1802 34.2991 18.8668 33.9857 18.8668 33.5993V29.399C18.8668 29.0126 18.5534 28.6992 18.1666 28.6992C17.7802 28.6992 17.4668 29.0126 17.4668 29.399V33.5993C17.4668 34.759 18.407 35.6991 19.5666 35.6991C20.7266 35.6991 21.6667 34.759 21.6667 33.5993V29.399C21.6667 29.0126 21.3533 28.6992 20.9666 28.6992Z" fill="white"/>
<path d="M25.1652 30.0992C25.5516 30.0992 25.865 29.7858 25.865 29.399C25.865 29.0126 25.5516 28.6992 25.1652 28.6992H23.7652C22.992 28.6992 22.3652 29.326 22.3652 30.0992V34.2991C22.3652 35.0723 22.992 35.6991 23.7652 35.6991H25.1652C25.5516 35.6991 25.865 35.3857 25.865 34.9993C25.865 34.6125 25.5516 34.2991 25.1652 34.2991H23.7652V32.8992H25.1652C25.5516 32.8992 25.865 32.5858 25.865 32.1993C25.865 31.8126 25.5516 31.4992 25.1652 31.4992H23.7652V30.0992H25.1652Z" fill="white"/>
<path d="M30.0662 34.2991H27.9664V29.399C27.9664 29.0126 27.653 28.6992 27.2662 28.6992C26.8798 28.6992 26.5664 29.0126 26.5664 29.399V34.9993C26.5664 35.3857 26.8798 35.6991 27.2662 35.6991H30.0662C30.453 35.6991 30.7663 35.3857 30.7663 34.9993C30.7663 34.6125 30.453 34.2991 30.0662 34.2991Z" fill="white"/>
</g>
<defs>
<clipPath id="clip0_660_10605">
<rect width="42" height="42" fill="white" transform="translate(0.666016)"/>
</clipPath>
</defs>
</svg>
