<svg width="43" height="42" viewBox="0 0 43 42" fill="none" xmlns="http://www.w3.org/2000/svg">
<path d="M21.3344 8.00287e-05C11.3158 -5.58483e-05 2.69232 7.07689 0.73767 16.9029C-1.21698 26.729 4.04163 36.5674 13.2975 40.4015C22.5534 44.2355 33.2287 40.9973 38.7948 32.6672C44.361 24.3372 43.2676 13.2352 36.1835 6.15098C32.2541 2.19957 26.907 -0.0153449 21.3344 8.00287e-05ZM35.1944 34.8601C28.5828 41.4723 18.2212 42.4934 10.4461 37.2989C2.67109 32.1044 -0.351901 22.1411 3.22589 13.502C6.80369 4.86295 15.9858 -0.0457546 25.1569 1.77785C34.328 3.60145 40.9337 11.6495 40.9344 21.0001C40.9323 26.198 38.8679 31.1827 35.1944 34.8601Z" fill="white"/>
<path d="M31.6942 7.78493C31.9979 8.02482 32.4385 7.97311 32.6784 7.66943C32.9183 7.36576 32.8666 6.92512 32.5629 6.68523C25.3217 0.998871 14.9737 1.61894 8.46331 8.12933C1.95293 14.6397 1.33286 24.9877 7.01922 32.2289C7.1744 32.4254 7.42259 32.5241 7.6703 32.4879C7.91801 32.4518 8.12762 32.2862 8.22015 32.0536C8.31269 31.821 8.2741 31.5567 8.11892 31.3602C2.88012 24.6761 3.45646 15.1327 9.4616 9.12761C15.4667 3.12248 25.01 2.54614 31.6942 7.78493Z" fill="white"/>
<path d="M34.6674 9.65387C34.3656 9.89282 34.3134 10.3306 34.5505 10.6339C39.8005 17.3172 39.2295 26.8693 33.2206 32.8796C27.2118 38.8899 17.6598 39.4632 10.9752 34.2148C10.6715 33.9755 10.2313 34.0276 9.99204 34.3313C9.75273 34.635 9.80491 35.0752 10.1086 35.3145C17.3501 40.9966 27.6948 40.3745 34.2033 33.8655C40.7117 27.3566 41.3329 17.0118 35.6502 9.77077C35.411 9.46717 34.9711 9.41484 34.6674 9.65387Z" fill="white"/>
<path d="M21.334 27.3008C19.401 27.3008 17.834 28.8678 17.834 30.8008C17.834 32.7338 19.401 34.3008 21.334 34.3008C23.267 34.3008 24.834 32.7338 24.834 30.8008C24.8317 28.8687 23.266 27.3031 21.334 27.3008ZM21.334 32.9008C20.1742 32.9008 19.234 31.9606 19.234 30.8008C19.234 29.641 20.1742 28.7008 21.334 28.7008C22.4938 28.7008 23.434 29.641 23.434 30.8008C23.434 31.9606 22.4938 32.9008 21.334 32.9008Z" fill="white"/>
<path d="M24.2232 7.56468C23.0865 6.33247 21.2935 5.95665 19.7576 6.6287C18.2218 7.30076 17.2812 8.87281 17.415 10.5439L18.3698 22.4628C18.4954 24.0072 19.7855 25.1965 21.335 25.1965C22.8844 25.1965 24.1745 24.0072 24.3002 22.4628L25.255 10.5439C25.3407 9.45048 24.9668 8.37083 24.2232 7.56468ZM22.9051 22.3508C22.8403 23.1699 22.1567 23.8016 21.335 23.8016C20.5132 23.8016 19.8296 23.1699 19.7649 22.3508L18.815 10.4298C18.7373 9.47932 19.2005 8.5659 20.0131 8.06684C20.8257 7.56777 21.8498 7.56777 22.6624 8.06684C23.475 8.5659 23.9382 9.47932 23.8606 10.4298L22.9051 22.3508Z" fill="white"/>
</svg>
