<svg width="40" height="40" viewBox="0 0 40 40" fill="none" xmlns="http://www.w3.org/2000/svg">
<path d="M34.9297 33.0859C35.082 33.0859 35.228 33.0254 35.3357 32.9177C35.4434 32.81 35.5039 32.6639 35.5039 32.5117V27.6387C35.5039 27.4864 35.4434 27.3403 35.3357 27.2326C35.228 27.125 35.082 27.0645 34.9297 27.0645C34.7774 27.0645 34.6313 27.125 34.5237 27.2326C34.416 27.3403 34.3555 27.4864 34.3555 27.6387V32.5117C34.3555 32.6639 34.416 32.81 34.5237 32.9177C34.6313 33.0254 34.7774 33.0859 34.9297 33.0859Z" fill="white"/>
<path d="M16.6109 26.6522H19.3577L19.4263 31.3926C19.4282 31.5239 19.475 31.6506 19.559 31.7515C19.6431 31.8525 19.7591 31.9215 19.8879 31.9472C19.9251 31.9548 19.9629 31.9585 20.0008 31.9583C20.1124 31.958 20.2215 31.9251 20.3148 31.8638C20.408 31.8024 20.4813 31.7152 20.5258 31.6128L23.9166 23.7966C23.9544 23.7092 23.9699 23.6138 23.9617 23.519C23.9535 23.4242 23.9219 23.3329 23.8697 23.2533C23.8175 23.1737 23.7463 23.1084 23.6626 23.0631C23.5788 23.0178 23.4852 22.9941 23.39 22.994H20.6433L20.5747 18.2509C20.5718 18.1204 20.5245 17.9947 20.4406 17.8946C20.3566 17.7946 20.2411 17.7261 20.1131 17.7006C19.985 17.675 19.8521 17.6938 19.7362 17.754C19.6202 17.8141 19.5283 17.912 19.4755 18.0314L16.0843 25.8496C16.0465 25.937 16.031 26.0324 16.0392 26.1272C16.0474 26.222 16.0791 26.3133 16.1313 26.3929C16.1835 26.4725 16.2547 26.5378 16.3384 26.5831C16.4221 26.6283 16.5158 26.6521 16.6109 26.6522ZM19.4656 20.9379L19.504 23.5764C19.5063 23.7272 19.5677 23.8711 19.6752 23.977C19.7826 24.0829 19.9274 24.1423 20.0782 24.1424H22.5156L20.536 28.7063L20.4976 26.0705C20.4953 25.9196 20.4339 25.7757 20.3264 25.6698C20.219 25.5639 20.0742 25.5045 19.9234 25.5044H17.4857L19.4656 20.9379Z" fill="white"/>
<path d="M38.8672 11.349C39.0195 11.349 39.1655 11.2885 39.2732 11.1808C39.3809 11.0731 39.4414 10.9271 39.4414 10.7748V8.80602C39.4414 8.65372 39.3809 8.50767 39.2732 8.39998C39.1655 8.29229 39.0195 8.2318 38.8672 8.2318H36.5441V5.42469C36.5441 5.2724 36.4836 5.12634 36.3759 5.01865C36.2682 4.91097 36.1221 4.85047 35.9698 4.85047H33.6369V1.13281C33.6369 0.98052 33.5764 0.834465 33.4687 0.726779C33.361 0.619092 33.2149 0.558594 33.0627 0.558594H26.5002C26.3479 0.558594 26.2018 0.619092 26.0941 0.726779C25.9864 0.834465 25.9259 0.98052 25.9259 1.13281V4.85047H14.0741V1.13281C14.0741 0.98052 14.0136 0.834465 13.9059 0.726779C13.7982 0.619092 13.6521 0.558594 13.4998 0.558594H6.93734C6.78505 0.558594 6.639 0.619092 6.53131 0.726779C6.42362 0.834465 6.36313 0.98052 6.36313 1.13281V4.85047H4.03016C3.87786 4.85047 3.73181 4.91097 3.62412 5.01865C3.51644 5.12634 3.45594 5.2724 3.45594 5.42469V8.2318H1.13281C0.98052 8.2318 0.834465 8.29229 0.726779 8.39998C0.619092 8.50767 0.558594 8.65372 0.558594 8.80602V10.7748C0.558594 10.9271 0.619092 11.0731 0.726779 11.1808C0.834465 11.2885 0.98052 11.349 1.13281 11.349H2.52734V36.3242H1.13281C0.98052 36.3242 0.834465 36.3847 0.726779 36.4924C0.619092 36.6001 0.558594 36.7461 0.558594 36.8984V38.8672C0.558594 39.0195 0.619092 39.1655 0.726779 39.2732C0.834465 39.3809 0.98052 39.4414 1.13281 39.4414H38.8672C39.0195 39.4414 39.1655 39.3809 39.2732 39.2732C39.3809 39.1655 39.4414 39.0195 39.4414 38.8672V36.8984C39.4414 36.7461 39.3809 36.6001 39.2732 36.4924C39.1655 36.3847 39.0195 36.3242 38.8672 36.3242H37.4727V11.349H38.8672ZM27.0744 1.70703H32.4884V4.85047H27.0744V1.70703ZM7.51156 1.70703H12.9256V4.85047H7.51156V1.70703ZM4.60437 5.99891H35.3956V8.2318H4.60437V5.99891ZM1.70703 9.38023H38.293V10.2005H36.9148C36.9096 10.2005 36.9047 10.2005 36.8991 10.2005C36.8935 10.2005 36.8886 10.2005 36.8833 10.2005H3.11731C3.11206 10.2005 3.10714 10.2005 3.10156 10.2005C3.09598 10.2005 3.09106 10.2005 3.08581 10.2005H1.70703V9.38023ZM38.293 38.293H1.70703V37.4727H38.293V38.293ZM36.3242 36.3242H3.67578V11.349H36.3242V36.3242Z" fill="white"/>
<path d="M9.23438 16.1452H9.64453V16.5547C9.64453 16.707 9.70503 16.853 9.81272 16.9607C9.9204 17.0684 10.0665 17.1289 10.2188 17.1289C10.371 17.1289 10.5171 17.0684 10.6248 16.9607C10.7325 16.853 10.793 16.707 10.793 16.5547V16.1445H11.2031C11.3554 16.1445 11.5015 16.084 11.6092 15.9763C11.7168 15.8687 11.7773 15.7226 11.7773 15.5703C11.7773 15.418 11.7168 15.272 11.6092 15.1643C11.5015 15.0566 11.3554 14.9961 11.2031 14.9961H10.793V14.5859C10.793 14.4336 10.7325 14.2876 10.6248 14.1799C10.5171 14.0722 10.371 14.0117 10.2188 14.0117C10.0665 14.0117 9.9204 14.0722 9.81272 14.1799C9.70503 14.2876 9.64453 14.4336 9.64453 14.5859V14.9961H9.23438C9.08208 14.9961 8.93603 15.0566 8.82834 15.1643C8.72065 15.272 8.66016 15.418 8.66016 15.5703C8.66016 15.7226 8.72065 15.8687 8.82834 15.9763C8.93603 16.084 9.08208 16.1445 9.23438 16.1445V16.1452Z" fill="white"/>
<path d="M28.7969 16.1445H30.7656C30.9179 16.1445 31.064 16.084 31.1717 15.9763C31.2793 15.8687 31.3398 15.7226 31.3398 15.5703C31.3398 15.418 31.2793 15.272 31.1717 15.1643C31.064 15.0566 30.9179 14.9961 30.7656 14.9961H28.7969C28.6446 14.9961 28.4985 15.0566 28.3908 15.1643C28.2832 15.272 28.2227 15.418 28.2227 15.5703C28.2227 15.7226 28.2832 15.8687 28.3908 15.9763C28.4985 16.084 28.6446 16.1445 28.7969 16.1445Z" fill="white"/>
</svg>
