<svg width="42" height="39" viewBox="0 0 42 39" fill="none" xmlns="http://www.w3.org/2000/svg">
<path d="M41.4759 32.2349L24.3582 2.58516C24.018 1.99574 23.5287 1.50627 22.9393 1.16596C22.35 0.825647 21.6814 0.646484 21.0009 0.646484C20.3203 0.646484 19.6518 0.825647 19.0624 1.16596C18.4731 1.50627 17.9837 1.99574 17.6435 2.58516L0.525864 32.2349C0.185371 32.8242 0.00602678 33.4928 0.00585949 34.1735C0.0056922 34.8541 0.184708 35.5228 0.524911 36.1123C0.865114 36.7018 1.35451 37.1914 1.94392 37.5318C2.53332 37.8722 3.20194 38.0515 3.88258 38.0515H38.1191C38.7998 38.0515 39.4684 37.8722 40.0578 37.5318C40.6472 37.1914 41.1366 36.7018 41.4768 36.1123C41.817 35.5228 41.996 34.8541 41.9959 34.1735C41.9957 33.4928 41.8164 32.8242 41.4759 32.2349ZM40.4813 35.5374C40.2441 35.9541 39.9002 36.3001 39.485 36.5398C39.0698 36.7796 38.5983 36.9045 38.1188 36.9018H3.88258C3.4037 36.9016 2.93328 36.7755 2.5186 36.536C2.10392 36.2964 1.75958 35.952 1.52017 35.5373C1.28076 35.1225 1.15471 34.6521 1.1547 34.1732C1.15468 33.6943 1.2807 33.2238 1.52008 32.8091L18.6384 3.15938C18.8778 2.74469 19.2222 2.40032 19.6369 2.1609C20.0516 1.92148 20.522 1.79544 21.0009 1.79544C21.4797 1.79544 21.9501 1.92148 22.3648 2.1609C22.7795 2.40032 23.1239 2.74469 23.3634 3.15938L40.4816 32.8091C40.7239 33.2229 40.8517 33.6937 40.8517 34.1732C40.8518 34.6527 40.7242 35.1236 40.482 35.5374H40.4813Z" fill="white"/>
<path d="M22.0862 3.89736C21.9762 3.70706 21.8181 3.54904 21.6278 3.43918C21.4374 3.32932 21.2215 3.27148 21.0017 3.27148C20.7819 3.27148 20.566 3.32932 20.3757 3.43918C20.1853 3.54904 20.0272 3.70706 19.9173 3.89736L11.2768 18.8628C11.2006 18.9947 11.18 19.1515 11.2194 19.2986C11.2589 19.4458 11.3552 19.5712 11.4871 19.6474C11.619 19.7235 11.7758 19.7441 11.9229 19.7047C12.0701 19.6652 12.1955 19.569 12.2716 19.437L20.9121 4.47191C20.9208 4.45563 20.9337 4.44202 20.9495 4.43252C20.9652 4.42303 20.9833 4.41801 21.0017 4.41801C21.0201 4.41801 21.0382 4.42303 21.054 4.43252C21.0698 4.44202 21.0827 4.45563 21.0913 4.47191L38.2096 34.1213C38.2192 34.1369 38.2245 34.1549 38.2247 34.1733C38.225 34.1917 38.2203 34.2098 38.2111 34.2257C38.202 34.2417 38.1886 34.2548 38.1726 34.2638C38.1566 34.2728 38.1384 34.2773 38.12 34.2768H3.88344C3.86507 34.2774 3.84689 34.2729 3.83084 34.264C3.81478 34.255 3.80145 34.2419 3.79226 34.226C3.78307 34.2101 3.77837 34.192 3.77865 34.1736C3.77894 34.1552 3.78419 34.1372 3.79387 34.1216L8.46505 26.0307C8.50335 25.9654 8.52835 25.8931 8.53861 25.8181C8.54887 25.7431 8.54419 25.6667 8.52483 25.5935C8.50547 25.5203 8.47183 25.4517 8.42583 25.3915C8.37983 25.3313 8.32238 25.2809 8.2568 25.243C8.19122 25.2051 8.1188 25.1806 8.0437 25.1709C7.9686 25.1611 7.89232 25.1663 7.81923 25.1861C7.74615 25.206 7.67772 25.2401 7.61787 25.2865C7.55802 25.3329 7.50794 25.3907 7.47051 25.4565L2.79899 33.5474C2.68893 33.7378 2.63094 33.9538 2.63086 34.1737C2.63078 34.3936 2.68861 34.6096 2.79854 34.8C2.90846 34.9905 3.06661 35.1486 3.25706 35.2586C3.44751 35.3685 3.66355 35.4263 3.88344 35.4262H38.12C38.3396 35.4258 38.5552 35.3677 38.7452 35.2577C38.9352 35.1477 39.093 34.9896 39.2027 34.7994C39.3124 34.6092 39.3701 34.3935 39.3701 34.1739C39.3702 33.9543 39.3125 33.7386 39.2028 33.5484L22.0862 3.89736Z" fill="white"/>
<path d="M9.17584 23.6516C9.3078 23.7276 9.46453 23.7481 9.61162 23.7087C9.75871 23.6693 9.88414 23.5731 9.96039 23.4413L10.7758 22.0287C10.8141 21.9634 10.8391 21.8911 10.8493 21.8161C10.8596 21.741 10.8549 21.6647 10.8356 21.5915C10.8162 21.5183 10.7825 21.4496 10.7365 21.3895C10.6905 21.3293 10.6331 21.2789 10.5675 21.241C10.5019 21.2031 10.4295 21.1786 10.3544 21.1689C10.2793 21.1591 10.203 21.1643 10.13 21.1841C10.0569 21.204 9.98844 21.2381 9.92859 21.2845C9.86874 21.3309 9.81866 21.3886 9.78123 21.4545L8.96551 22.867C8.88942 22.999 8.86883 23.1557 8.90827 23.3029C8.94771 23.45 9.04395 23.5754 9.17584 23.6516Z" fill="white"/>
<path d="M22.9394 18.424C23.0912 18.4335 23.2406 18.3826 23.3551 18.2825C23.4696 18.1824 23.5399 18.0412 23.5507 17.8895L23.7755 14.5367C23.7955 14.2388 23.7541 13.9399 23.6538 13.6586C23.5535 13.3774 23.3965 13.1197 23.1925 12.9017C22.9886 12.6836 22.742 12.5098 22.468 12.3909C22.1941 12.2721 21.8986 12.2109 21.6 12.2109H20.4011C20.1025 12.2109 19.807 12.2721 19.5331 12.3909C19.2591 12.5098 19.0125 12.6836 18.8086 12.9017C18.6046 13.1197 18.4476 13.3774 18.3473 13.6586C18.247 13.9399 18.2056 14.2388 18.2256 14.5367L18.8251 23.4945C18.8622 24.0462 19.1076 24.5632 19.5115 24.9408C19.9153 25.3184 20.4476 25.5285 21.0006 25.5285C21.5535 25.5285 22.0858 25.3184 22.4897 24.9408C22.8935 24.5632 23.1389 24.0462 23.176 23.4945L23.3506 20.8813C23.3565 20.8056 23.3474 20.7294 23.3237 20.6572C23.3 20.5851 23.2622 20.5183 23.2125 20.4609C23.1628 20.4034 23.1022 20.3564 23.0342 20.3225C22.9662 20.2886 22.8921 20.2686 22.8164 20.2635C22.7406 20.2584 22.6645 20.2685 22.5926 20.293C22.5207 20.3176 22.4544 20.3561 22.3975 20.4065C22.3406 20.4568 22.2943 20.518 22.2612 20.5864C22.2281 20.6547 22.2089 20.729 22.2048 20.8049L22.0302 23.4164C22.0128 23.6776 21.8967 23.9224 21.7055 24.1012C21.5143 24.2801 21.2623 24.3795 21.0006 24.3795C20.7388 24.3795 20.4868 24.2801 20.2956 24.1012C20.1044 23.9224 19.9884 23.6776 19.9709 23.4164L19.3714 14.4586C19.362 14.3176 19.3817 14.1762 19.4292 14.0431C19.4767 13.9101 19.551 13.7882 19.6475 13.685C19.7441 13.5818 19.8607 13.4996 19.9904 13.4433C20.12 13.3871 20.2598 13.3581 20.4011 13.3581H21.6C21.7413 13.3581 21.8811 13.3871 22.0107 13.4433C22.1404 13.4996 22.2571 13.5818 22.3536 13.685C22.4501 13.7882 22.5244 13.9101 22.5719 14.0431C22.6194 14.1762 22.6391 14.3176 22.6297 14.4586L22.4049 17.8127C22.3948 17.9646 22.4454 18.1144 22.5456 18.229C22.6458 18.3437 22.7875 18.4138 22.9394 18.424Z" fill="white"/>
<mask id="path-5-inside-1_677_7203" fill="white">
<path d="M20.6438 32.5552H21.3565C22.0287 32.5552 22.6733 32.2882 23.1486 31.8129C23.6239 31.3376 23.8909 30.6929 23.8909 30.0208C23.8909 29.3486 23.6239 28.7039 23.1486 28.2286C22.6733 27.7533 22.0287 27.4863 21.3565 27.4863H20.6438C19.9716 27.4863 19.327 27.7533 18.8517 28.2286C18.3764 28.7039 18.1094 29.3486 18.1094 30.0208C18.1094 30.6929 18.3764 31.3376 18.8517 31.8129C19.327 32.2882 19.9716 32.5552 20.6438 32.5552ZM20.6438 28.6348H21.3565C21.7241 28.6348 22.0766 28.7808 22.3366 29.0407C22.5965 29.3006 22.7425 29.6532 22.7425 30.0208C22.7425 30.3884 22.5965 30.7409 22.3366 31.0008C22.0766 31.2607 21.7241 31.4068 21.3565 31.4068H20.6438C20.2762 31.4068 19.9237 31.2607 19.6638 31.0008C19.4038 30.7409 19.2578 30.3884 19.2578 30.0208C19.2578 29.6532 19.4038 29.3006 19.6638 29.0407C19.9237 28.7808 20.2762 28.6348 20.6438 28.6348Z"/>
</mask>
<path d="M20.6438 32.5552H21.3565C22.0287 32.5552 22.6733 32.2882 23.1486 31.8129C23.6239 31.3376 23.8909 30.6929 23.8909 30.0208C23.8909 29.3486 23.6239 28.7039 23.1486 28.2286C22.6733 27.7533 22.0287 27.4863 21.3565 27.4863H20.6438C19.9716 27.4863 19.327 27.7533 18.8517 28.2286C18.3764 28.7039 18.1094 29.3486 18.1094 30.0208C18.1094 30.6929 18.3764 31.3376 18.8517 31.8129C19.327 32.2882 19.9716 32.5552 20.6438 32.5552ZM20.6438 28.6348H21.3565C21.7241 28.6348 22.0766 28.7808 22.3366 29.0407C22.5965 29.3006 22.7425 29.6532 22.7425 30.0208C22.7425 30.3884 22.5965 30.7409 22.3366 31.0008C22.0766 31.2607 21.7241 31.4068 21.3565 31.4068H20.6438C20.2762 31.4068 19.9237 31.2607 19.6638 31.0008C19.4038 30.7409 19.2578 30.3884 19.2578 30.0208C19.2578 29.6532 19.4038 29.3006 19.6638 29.0407C19.9237 28.7808 20.2762 28.6348 20.6438 28.6348Z" fill="white"/>
<path d="M21.3565 32.5552V31.0552V32.5552ZM20.6438 27.4863V25.9863V27.4863ZM20.6438 34.0552H21.3565V31.0552H20.6438V34.0552ZM21.3565 34.0552C22.4265 34.0552 23.4527 33.6301 24.2093 32.8735L22.088 30.7522C21.894 30.9462 21.6309 31.0552 21.3565 31.0552V34.0552ZM24.2093 32.8735C24.9659 32.1169 25.3909 31.0908 25.3909 30.0208H22.3909C22.3909 30.2951 22.282 30.5582 22.088 30.7522L24.2093 32.8735ZM25.3909 30.0208C25.3909 28.9508 24.9659 27.9246 24.2093 27.168L22.088 29.2893C22.282 29.4833 22.3909 29.7464 22.3909 30.0208H25.3909ZM24.2093 27.168C23.4527 26.4114 22.4265 25.9863 21.3565 25.9863V28.9863C21.6309 28.9863 21.894 29.0953 22.088 29.2893L24.2093 27.168ZM21.3565 25.9863H20.6438V28.9863H21.3565V25.9863ZM20.6438 25.9863C19.5738 25.9863 18.5476 26.4114 17.791 27.168L19.9124 29.2893C20.1063 29.0953 20.3695 28.9863 20.6438 28.9863V25.9863ZM17.791 27.168C17.0344 27.9246 16.6094 28.9508 16.6094 30.0208H19.6094C19.6094 29.7464 19.7184 29.4833 19.9124 29.2893L17.791 27.168ZM16.6094 30.0208C16.6094 31.0908 17.0344 32.1169 17.791 32.8735L19.9124 30.7522C19.7184 30.5582 19.6094 30.2951 19.6094 30.0208H16.6094ZM17.791 32.8735C18.5476 33.6301 19.5738 34.0552 20.6438 34.0552V31.0552C20.3695 31.0552 20.1063 30.9462 19.9124 30.7522L17.791 32.8735ZM20.6438 30.1348H21.3565V27.1348H20.6438V30.1348ZM21.3565 30.1348C21.3263 30.1348 21.2973 30.1228 21.2759 30.1014L23.3972 27.9801C22.856 27.4388 22.1219 27.1348 21.3565 27.1348V30.1348ZM21.2759 30.1014C21.2545 30.08 21.2425 30.051 21.2425 30.0208H24.2425C24.2425 29.2554 23.9384 28.5213 23.3972 27.9801L21.2759 30.1014ZM21.2425 30.0208C21.2425 29.9905 21.2545 29.9615 21.2759 29.9402L23.3972 32.0615C23.9384 31.5202 24.2425 30.7862 24.2425 30.0208H21.2425ZM21.2759 29.9402C21.2973 29.9188 21.3263 29.9068 21.3565 29.9068V32.9068C22.1219 32.9068 22.856 32.6027 23.3972 32.0615L21.2759 29.9402ZM21.3565 29.9068H20.6438V32.9068H21.3565V29.9068ZM20.6438 29.9068C20.674 29.9068 20.703 29.9188 20.7244 29.9402L18.6031 32.0615C19.1443 32.6027 19.8784 32.9068 20.6438 32.9068V29.9068ZM20.7244 29.9402C20.7458 29.9615 20.7578 29.9905 20.7578 30.0208H17.7578C17.7578 30.7862 18.0619 31.5202 18.6031 32.0615L20.7244 29.9402ZM20.7578 30.0208C20.7578 30.051 20.7458 30.08 20.7244 30.1014L18.6031 27.9801C18.0619 28.5213 17.7578 29.2553 17.7578 30.0208H20.7578ZM20.7244 30.1014C20.703 30.1228 20.674 30.1348 20.6438 30.1348V27.1348C19.8784 27.1348 19.1443 27.4388 18.6031 27.9801L20.7244 30.1014Z" fill="white" mask="url(#path-5-inside-1_677_7203)"/>
</svg>
