<svg width="43" height="42" viewBox="0 0 43 42" fill="none" xmlns="http://www.w3.org/2000/svg">
<g clip-path="url(#clip0_660_13841)">
<path d="M42.4609 19.8051L41.0609 18.4051C40.9297 18.2738 40.7517 18.2 40.566 18.2H38.466C38.0794 18.2 37.766 18.5134 37.766 18.9V22.4H36.366V17.5C36.366 17.1134 36.0526 16.8 35.666 16.8H31.1405L28.5505 12.9115C28.4202 12.7162 28.2008 12.5993 27.966 12.6H23.766V11.2H28.666C29.0526 11.2 29.366 10.8866 29.366 10.5V7.7C29.366 7.31342 29.0526 7 28.666 7H14.666C14.2794 7 13.966 7.31342 13.966 7.7V10.5C13.966 10.8866 14.2794 11.2 14.666 11.2H19.566V12.6H15.366C15.132 12.6 14.9135 12.7168 14.7836 12.9115L12.1915 16.8H8.36602C7.97944 16.8 7.66602 17.1134 7.66602 17.5V21.7H6.26602V17.5C6.26602 17.1134 5.95259 16.8 5.56602 16.8H2.76602C2.53204 16.8 2.31347 16.9168 2.18362 17.1115L0.783616 19.2115C0.707141 19.3266 0.666278 19.4618 0.666016 19.6V21.7C0.666278 21.8383 0.707141 21.9733 0.783616 22.0885L2.06602 24.01V30.1C2.06602 30.4866 2.37944 30.8 2.76602 30.8H5.56602C5.95259 30.8 6.26602 30.4866 6.26602 30.1V25.9H7.66602V30.1C7.66602 30.4866 7.97944 30.8 8.36602 30.8H12.1915L14.7815 34.6885C14.9118 34.8838 15.1313 35.0007 15.366 35H35.666C36.0526 35 36.366 34.6866 36.366 34.3V28H37.766V32.9C37.766 33.2866 38.0794 33.6 38.466 33.6H40.566C40.7517 33.6 40.9297 33.5261 41.0609 33.3949L42.4609 31.9949C42.5922 31.8636 42.666 31.6857 42.666 31.5V20.3C42.666 20.1143 42.5922 19.9363 42.4609 19.8051ZM4.86602 22.4V29.4H3.46602V23.8C3.46575 23.6617 3.42489 23.5266 3.34842 23.4115L2.06602 21.49V19.81L3.14052 18.2H4.86602V22.4ZM7.66602 24.5H6.26602V23.1H7.66602V24.5ZM15.366 9.8V8.4H27.966V9.8H15.366ZM22.366 11.2V12.6H20.966V11.2H22.366ZM32.166 33.6H15.7405L13.1505 29.7115C13.0202 29.5162 12.8008 29.3993 12.566 29.4H9.06602V18.2H12.566C12.8 18.2 13.0186 18.0832 13.1484 17.8885L15.7405 14H27.5915L30.1815 17.8885C30.3118 18.0838 30.5313 18.2007 30.766 18.2H32.166V33.6ZM34.966 23.1V33.6H33.566V18.2H34.966V23.1ZM37.766 26.6H36.366V23.8H37.766V26.6ZM41.266 31.2102L40.2762 32.2H39.166V19.6H40.2762L41.266 20.5898V31.2102Z" fill="white"/>
<path d="M27.7813 22.6265C27.6486 22.4818 27.4615 22.3996 27.2653 22.3996H23.9382L25.1485 16.9515C25.2323 16.5741 24.9944 16.2002 24.617 16.1163C24.3939 16.0667 24.1606 16.1292 23.9921 16.2837L15.5921 23.9837C15.3072 24.245 15.288 24.6878 15.5493 24.9727C15.682 25.1173 15.8691 25.1996 16.0653 25.1996H19.3924L18.1821 30.6477C18.0983 31.0251 18.3362 31.399 18.7136 31.4829C18.9367 31.5325 19.17 31.47 19.3385 31.3155L27.7385 23.6155C28.0234 23.3542 28.0426 22.9114 27.7813 22.6265ZM20.0308 28.7815L20.9485 24.6515C21.0324 24.2741 20.7945 23.9001 20.4171 23.8163C20.3672 23.8052 20.3164 23.7996 20.2653 23.7996H17.865L23.2998 18.8177L22.3821 22.9477C22.2982 23.3251 22.5361 23.6991 22.9135 23.7829C22.9634 23.794 23.0142 23.7995 23.0653 23.7996H25.4656L20.0308 28.7815Z" fill="white"/>
<path d="M11.8668 22.4004H10.4668V28.0004H11.8668V22.4004Z" fill="white"/>
<path d="M11.8668 19.5996H10.4668V20.9996H11.8668V19.5996Z" fill="white"/>
</g>
<defs>
<clipPath id="clip0_660_13841">
<rect width="42" height="42" fill="white" transform="translate(0.666016)"/>
</clipPath>
</defs>
</svg>
