<svg width="43" height="42" viewBox="0 0 43 42" fill="none" xmlns="http://www.w3.org/2000/svg">
<path d="M36.936 26.2905L33.2541 21.4372C33.0163 21.1254 32.7098 20.8724 32.3585 20.698C32.0072 20.5235 31.6205 20.4322 31.2283 20.4312H24.8062V2.07031C24.8062 1.91802 24.7457 1.77197 24.638 1.66428C24.5304 1.55659 24.3843 1.49609 24.232 1.49609C24.0797 1.49609 23.9337 1.55659 23.826 1.66428C23.7183 1.77197 23.6578 1.91802 23.6578 2.07031V20.4312H19.0102V2.07031C19.0102 1.91802 18.9497 1.77197 18.842 1.66428C18.7344 1.55659 18.5883 1.49609 18.436 1.49609C18.2837 1.49609 18.1377 1.55659 18.03 1.66428C17.9223 1.77197 17.8618 1.91802 17.8618 2.07031V20.4312H11.4397C11.0475 20.4322 10.6608 20.5235 10.3095 20.698C9.9582 20.8724 9.65176 21.1254 9.41389 21.4372L5.732 26.2905C5.46832 26.6402 5.29891 27.0518 5.24001 27.4858C5.18112 27.9197 5.23472 28.3616 5.39567 28.7689L9.43456 38.9043C9.62158 39.3779 9.94709 39.784 10.3686 40.0697C10.79 40.3554 11.2879 40.5073 11.7971 40.5056H30.871C31.3801 40.5073 31.878 40.3554 32.2995 40.0697C32.7209 39.784 33.0464 39.3779 33.2335 38.9043L37.2724 28.7689C37.4333 28.3616 37.4869 27.9197 37.428 27.4858C37.3691 27.0518 37.1997 26.6402 36.936 26.2905ZM36.2056 28.3436L32.1667 38.4791C32.0641 38.7388 31.8856 38.9615 31.6544 39.1181C31.4232 39.2748 31.1502 39.3581 30.871 39.3571H11.7971C11.5178 39.3581 11.2448 39.2748 11.0136 39.1181C10.7825 38.9615 10.6039 38.7388 10.5013 38.4791L6.4624 28.3436C6.37417 28.1202 6.34479 27.878 6.37708 27.64C6.40937 27.402 6.50225 27.1763 6.64681 26.9845L10.3287 22.1312C10.4592 21.9603 10.6273 21.8216 10.82 21.726C11.0126 21.6303 11.2247 21.5803 11.4397 21.5796H31.2283C31.4434 21.5803 31.6554 21.6303 31.8481 21.726C32.0407 21.8216 32.2088 21.9603 32.3393 22.1312L36.0212 26.9845C36.1658 27.1763 36.2587 27.402 36.2909 27.64C36.3232 27.878 36.2939 28.1202 36.2056 28.3436Z" fill="white"/>
<path d="M30.9515 24.1043C30.898 24.0337 30.8288 23.9765 30.7495 23.937C30.6701 23.8976 30.5827 23.877 30.4941 23.877H12.1723C12.0837 23.877 11.9963 23.8976 11.9169 23.937C11.8376 23.9765 11.7684 24.0337 11.7149 24.1043L8.98027 27.7088C8.92035 27.7876 8.88185 27.8806 8.86851 27.9787C8.85517 28.0768 8.86745 28.1766 8.90415 28.2686L12.2638 36.6991C12.3065 36.8057 12.3801 36.8971 12.4752 36.9614C12.5703 37.0258 12.6825 37.0601 12.7974 37.06H29.869C29.9839 37.0601 30.0961 37.0258 30.1912 36.9614C30.2863 36.8971 30.3599 36.8057 30.4026 36.6991L33.7622 28.2686C33.7989 28.1766 33.8112 28.0768 33.7979 27.9787C33.7845 27.8806 33.746 27.7876 33.6861 27.7088L30.9515 24.1043ZM29.4799 35.9123H13.1865L10.091 28.1449L12.4574 25.0254H30.209L32.5754 28.1449L29.4799 35.9123Z" fill="white"/>
<path d="M18.4363 26.8848H15.1074C14.9551 26.8848 14.8091 26.9453 14.7014 27.053C14.5937 27.1606 14.5332 27.3067 14.5332 27.459C14.5332 27.6113 14.5937 27.7573 14.7014 27.865C14.8091 27.9727 14.9551 28.0332 15.1074 28.0332H18.4363C18.5885 28.0332 18.7346 27.9727 18.8423 27.865C18.95 27.7573 19.0105 27.6113 19.0105 27.459C19.0105 27.3067 18.95 27.1606 18.8423 27.053C18.7346 26.9453 18.5885 26.8848 18.4363 26.8848Z" fill="white"/>
<path d="M18.4363 29.8926H15.1074C14.9551 29.8926 14.8091 29.9531 14.7014 30.0608C14.5937 30.1685 14.5332 30.3145 14.5332 30.4668C14.5332 30.6191 14.5937 30.7651 14.7014 30.8728C14.8091 30.9805 14.9551 31.041 15.1074 31.041H18.4363C18.5885 31.041 18.7346 30.9805 18.8423 30.8728C18.95 30.7651 19.0105 30.6191 19.0105 30.4668C19.0105 30.3145 18.95 30.1685 18.8423 30.0608C18.7346 29.9531 18.5885 29.8926 18.4363 29.8926Z" fill="white"/>
<path d="M18.4363 32.9023H15.1074C14.9551 32.9023 14.8091 32.9628 14.7014 33.0705C14.5937 33.1782 14.5332 33.3243 14.5332 33.4766C14.5332 33.6289 14.5937 33.7749 14.7014 33.8826C14.8091 33.9903 14.9551 34.0508 15.1074 34.0508H18.4363C18.5885 34.0508 18.7346 33.9903 18.8423 33.8826C18.95 33.7749 19.0105 33.6289 19.0105 33.4766C19.0105 33.3243 18.95 33.1782 18.8423 33.0705C18.7346 32.9628 18.5885 32.9023 18.4363 32.9023Z" fill="white"/>
<path d="M27.5612 26.8848H24.2324C24.0801 26.8848 23.9341 26.9453 23.8264 27.053C23.7187 27.1606 23.6582 27.3067 23.6582 27.459C23.6582 27.6113 23.7187 27.7573 23.8264 27.865C23.9341 27.9727 24.0801 28.0332 24.2324 28.0332H27.5612C27.7135 28.0332 27.8596 27.9727 27.9673 27.865C28.075 27.7573 28.1355 27.6113 28.1355 27.459C28.1355 27.3067 28.075 27.1606 27.9673 27.053C27.8596 26.9453 27.7135 26.8848 27.5612 26.8848Z" fill="white"/>
<path d="M27.5612 29.8926H24.2324C24.0801 29.8926 23.9341 29.9531 23.8264 30.0608C23.7187 30.1685 23.6582 30.3145 23.6582 30.4668C23.6582 30.6191 23.7187 30.7651 23.8264 30.8728C23.9341 30.9805 24.0801 31.041 24.2324 31.041H27.5612C27.7135 31.041 27.8596 30.9805 27.9673 30.8728C28.075 30.7651 28.1355 30.6191 28.1355 30.4668C28.1355 30.3145 28.075 30.1685 27.9673 30.0608C27.8596 29.9531 27.7135 29.8926 27.5612 29.8926Z" fill="white"/>
<path d="M27.5612 32.9023H24.2324C24.0801 32.9023 23.9341 32.9628 23.8264 33.0705C23.7187 33.1782 23.6582 33.3243 23.6582 33.4766C23.6582 33.6289 23.7187 33.7749 23.8264 33.8826C23.9341 33.9903 24.0801 34.0508 24.2324 34.0508H27.5612C27.7135 34.0508 27.8596 33.9903 27.9673 33.8826C28.075 33.7749 28.1355 33.6289 28.1355 33.4766C28.1355 33.3243 28.075 33.1782 27.9673 33.0705C27.8596 32.9628 27.7135 32.9023 27.5612 32.9023Z" fill="white"/>
</svg>
