<svg width="28" height="28" viewBox="0 0 28 28" fill="none" xmlns="http://www.w3.org/2000/svg">
<path fill-rule="evenodd" clip-rule="evenodd" d="M0 14C0 6.26801 6.26801 0 14 0C21.732 0 28 6.26801 28 14C28 21.732 21.732 28 14 28C6.26801 28 0 21.732 0 14Z" fill="#F4F4F4"/>
<path fill-rule="evenodd" clip-rule="evenodd" d="M14.0006 6.5332C11.9727 6.5332 11.7182 6.54207 10.9218 6.57831C10.1269 6.61472 9.5843 6.74056 9.10954 6.92521C8.61845 7.11592 8.20187 7.37103 7.78684 7.78622C7.3715 8.20124 7.11639 8.61782 6.92505 9.10876C6.73994 9.58368 6.61394 10.1264 6.57816 10.921C6.54254 11.7175 6.5332 11.9721 6.5332 13.9999C6.5332 16.0278 6.54223 16.2815 6.57831 17.078C6.61487 17.8729 6.74072 18.4154 6.92521 18.8902C7.11608 19.3813 7.37119 19.7979 7.78637 20.2129C8.20124 20.6282 8.61782 20.884 9.10861 21.0747C9.58368 21.2593 10.1264 21.3852 10.9212 21.4216C11.7176 21.4578 11.9719 21.4667 13.9996 21.4667C16.0276 21.4667 16.2814 21.4578 17.0778 21.4216C17.8727 21.3852 18.4159 21.2593 18.891 21.0747C19.3819 20.884 19.7979 20.6282 20.2127 20.2129C20.6281 19.7979 20.8832 19.3813 21.0745 18.8904C21.2581 18.4154 21.3841 17.8727 21.4214 17.0781C21.4572 16.2817 21.4665 16.0278 21.4665 13.9999C21.4665 11.9721 21.4572 11.7176 21.4214 10.9212C21.3841 10.1263 21.2581 9.58368 21.0745 9.10892C20.8832 8.61782 20.6281 8.20124 20.2127 7.78622C19.7974 7.37088 19.3821 7.11576 18.8905 6.92521C18.4145 6.74056 17.8716 6.61472 17.0767 6.57831C16.2803 6.54207 16.0267 6.5332 13.9982 6.5332H14.0006ZM13.3307 7.87875C13.5295 7.87844 13.7513 7.87875 14.0005 7.87875C15.9942 7.87875 16.2304 7.88591 17.0177 7.92169C17.7457 7.95497 18.1408 8.07662 18.404 8.17882C18.7525 8.31416 19.0009 8.47594 19.2621 8.73727C19.5234 8.99861 19.6852 9.2475 19.8209 9.59595C19.9231 9.85884 20.0449 10.254 20.078 10.982C20.1138 11.7691 20.1216 12.0055 20.1216 13.9982C20.1216 15.9909 20.1138 16.2274 20.078 17.0145C20.0447 17.7425 19.9231 18.1376 19.8209 18.4005C19.6855 18.7489 19.5234 18.997 19.2621 19.2582C19.0008 19.5196 18.7527 19.6813 18.404 19.8167C18.1412 19.9193 17.7457 20.0407 17.0177 20.074C16.2306 20.1097 15.9942 20.1175 14.0005 20.1175C12.0068 20.1175 11.7705 20.1097 10.9834 20.074C10.2553 20.0404 9.86023 19.9187 9.59687 19.8165C9.24842 19.6812 8.99953 19.5194 8.73819 19.2581C8.47686 18.9967 8.31508 18.7485 8.17943 18.3999C8.07723 18.137 7.95543 17.7419 7.9223 17.0138C7.88652 16.2267 7.87936 15.9903 7.87936 13.9963C7.87936 12.0024 7.88652 11.7672 7.9223 10.9801C7.95559 10.2521 8.07723 9.85697 8.17943 9.59377C8.31477 9.24532 8.47686 8.99643 8.73819 8.73509C8.99953 8.47376 9.24842 8.31198 9.59687 8.17633C9.86007 8.07366 10.2553 7.95233 10.9834 7.91889C11.6722 7.88777 11.9391 7.87844 13.3307 7.87688V7.87875ZM17.9862 9.11855C17.4916 9.11855 17.0902 9.51942 17.0902 10.0142C17.0902 10.5089 17.4916 10.9103 17.9862 10.9103C18.4809 10.9103 18.8822 10.5089 18.8822 10.0142C18.8822 9.51957 18.4809 9.11855 17.9862 9.11855ZM14.0006 10.1654C11.883 10.1654 10.1661 11.8823 10.1661 13.9999C10.1661 16.1175 11.883 17.8336 14.0006 17.8336C16.1182 17.8336 17.8344 16.1175 17.8344 13.9999C17.8344 11.8823 16.1182 10.1654 14.0006 10.1654ZM14.0006 11.511C15.3751 11.511 16.4895 12.6253 16.4895 13.9999C16.4895 15.3744 15.3751 16.4888 14.0006 16.4888C12.6259 16.4888 11.5116 15.3744 11.5116 13.9999C11.5116 12.6253 12.6259 11.511 14.0006 11.511Z" fill="#333333"/>
</svg>
