<svg width="92" height="80" viewBox="0 0 92 80" fill="none" xmlns="http://www.w3.org/2000/svg">
<path d="M16.6895 27.553C17.6542 25.1166 18.9121 22.8288 20.4175 20.7326L20.1159 20.7698L20.3464 19.869L20.4232 19.7146L20.8074 19.4315L20.833 19.0712L20.7562 18.6851L21.0635 18.4277L21.1148 18.1446L21.3709 18.0417L21.8575 18.4792L22.145 18.5364C24.5127 15.7825 27.3443 13.4433 30.5145 11.636L30.4861 11.3242L29.9226 11.0669L30.0251 10.6551L31.0496 10.3977C31.0496 10.3977 30.6398 10.758 30.7934 10.861C30.9016 10.9353 31.4537 10.9553 31.7639 10.9611C36.0668 8.76196 40.936 7.52085 46.0926 7.52085C59.4339 7.52085 70.8456 15.8168 75.4986 27.553H77.3626L77.3911 26.595L78.1594 27.553H79.8755C80.106 27.2442 80.3735 26.9611 80.6694 26.7151C80.4076 25.9888 80.1231 25.271 79.8157 24.5675C77.7695 24.7076 75.7775 23.5208 74.9863 21.499C74.7871 20.99 74.679 20.4696 74.6534 19.952L74.3602 19.8719C74.3602 19.8719 73.8992 19.8719 73.8138 19.8719C73.7285 19.8719 73.4553 20.3351 73.4553 20.3351L72.9942 20.5754L73.1479 20.1979L73.2504 19.7346L73.7797 19.5116L74.4285 19.4772L74.6562 19.4286C74.7074 18.5793 74.9806 17.7614 75.4388 17.0551C74.9749 16.4374 74.4911 15.8368 73.9903 15.2506C72.0779 15.9855 69.8325 15.4365 68.4836 13.7435C67.8319 12.9257 67.4876 11.962 67.4335 10.9897C67.3054 10.9982 67.0948 11.0183 67.0948 11.0183L66.907 10.7266L66.8387 10.5207L66.8558 10.2805L66.8729 9.81718L67.0948 10.0746C67.0948 10.0746 67.3168 10.555 67.368 10.5721C67.3766 10.575 67.3993 10.5779 67.4278 10.5836C67.4392 10.1689 67.5018 9.75713 67.6156 9.35963C66.9924 8.9078 66.3578 8.47313 65.7061 8.06133C64.0925 9.3339 61.7845 9.47402 59.9973 8.25293C58.6456 7.32925 57.9085 5.83935 57.8829 4.31227C57.16 4.06634 56.4258 3.84042 55.6802 3.64024C55.2135 4.31799 54.5846 4.85561 53.8674 5.21879L53.7764 5.75356L53.6056 6.21683L53.1446 6.49136L53.0934 7.12621L52.7006 7.29779L52.325 7.36643V7.16053L52.8885 6.93747L52.8202 6.55999L53.1617 5.99377L53.2413 5.48188C52.3421 5.78501 51.3432 5.82791 50.3642 5.54194L50.1451 6.00521L50.589 6.46848L51.1867 6.60575L51.6818 6.38269L52.177 6.10816L52.0233 6.46848C52.0233 6.46848 51.716 6.69154 51.4769 6.8288C51.2379 6.96607 51.3916 7.22344 51.3916 7.22344L50.9476 7.49797L50.5719 7.2406L50.4695 6.69154L49.8207 6.07384L49.9089 5.37894C48.8075 4.93854 47.9453 4.12353 47.4245 3.12835L47.4102 3.13979L46.9151 3.60306L46.1467 3.62022L46.1296 3.48296L46.7785 3.22558L46.9919 2.37911C46.6931 2.37054 46.3943 2.36768 46.0926 2.36768C45.66 2.36768 45.2275 2.37625 44.8006 2.39055C44.294 3.98626 42.9878 5.22165 41.3572 5.62773L41.6389 6.29404L42.4243 6.79163L42.3219 7.39216L42.0828 6.86026L41.3486 6.4313L40.8335 5.72496C40.6229 5.75356 40.4095 5.76785 40.1932 5.76785C39.7066 5.76785 39.237 5.69636 38.7931 5.56196L38.8557 6.92889L38.0361 7.52943L38.5654 6.62004L38.3263 5.39323C37.4811 5.03863 36.7583 4.44953 36.2375 3.70601C35.4008 3.94051 34.5755 4.20074 33.7645 4.49243C33.7645 6.55427 32.4469 8.46741 30.3865 9.12514C28.8298 9.61987 27.2105 9.28528 26.0011 8.36446C25.3579 8.78769 24.7261 9.23095 24.1114 9.69136C24.3789 10.5664 24.3875 11.4901 24.1598 12.3537L24.6493 12.6311C24.6493 12.6311 24.7005 13.0429 24.5981 13.0944C24.4956 13.1459 24.5212 13.2488 24.6237 13.4547C24.7261 13.6606 24.4444 13.918 24.4444 13.918L24.1114 13.5062L24.2395 13.2231L23.9435 12.9914C23.5992 13.8179 23.0243 14.5614 22.236 15.1076C20.8956 16.0399 19.2507 16.2 17.825 15.6796C17.3327 16.2715 16.8603 16.8806 16.4049 17.5069C17.5546 19.2113 17.5347 21.5334 16.2 23.2406C15.1897 24.5303 13.6587 25.1709 12.1419 25.0908C11.8459 25.8 11.5727 26.5207 11.3223 27.2528C11.4389 27.3471 11.5528 27.4472 11.6581 27.5502H16.6895V27.553ZM74.6647 17.6556C74.6306 17.7071 74.4769 18.0331 74.4769 18.0331L74.05 18.462L74.1183 18.0331L74.3062 17.4154L74.4598 17.2781C74.4598 17.2781 74.5623 17.261 74.6135 17.261C74.6647 17.261 74.6989 17.6041 74.6647 17.6556ZM74.2379 16.3516L74.4428 16.4545C74.4428 16.4545 74.5452 16.832 74.4428 16.832C74.3403 16.832 74.2379 16.9007 74.2379 16.9007L73.9305 17.158L73.8451 16.8149L74.2379 16.3516ZM72.5304 16.7634L72.5816 16.6776C72.5816 16.6776 72.6157 16.3344 72.6328 16.283C72.6499 16.2315 73.0426 16.283 73.0426 16.283L72.9402 16.7291C72.9402 16.7291 73.2134 17.1409 73.2304 17.2095C73.2475 17.2781 72.9573 17.7242 72.9573 17.7242L72.5133 17.5183L72.7694 17.2267L72.5304 16.7634ZM71.984 16.0599L72.0693 15.8883L72.3767 16.0084L72.2059 16.18L72.0352 16.506L71.8644 16.5918L71.8303 16.2315L71.984 16.0599ZM64.6759 9.29958L64.9491 9.16231L65.3418 9.00789L65.393 9.16231L65.6833 9.41969L66.0077 9.43685L66.3834 9.67706L66.4346 10.106C66.4346 10.106 66.2468 10.4835 66.1443 10.5178C66.0419 10.5521 66.059 10.5007 66.059 10.5007L66.076 9.90012L65.3247 9.50548H65.1711C65.1711 9.50548 65.0515 9.52264 64.9662 9.50548C64.8808 9.48832 64.5905 9.55695 64.5905 9.55695L64.6759 9.29958ZM62.4732 9.52264C62.4732 9.52264 62.7806 9.59127 62.9001 9.60843C63.0196 9.62559 62.8489 9.96875 62.8489 9.96875L62.2342 10.3462L61.8585 10.0717C61.8585 10.0717 62.0293 9.88296 62.1146 9.79717C62.2 9.71138 61.8073 9.50548 61.8073 9.50548L62.4732 9.52264ZM57.7434 7.06902L57.9654 6.86312C58.0166 6.84596 58.2898 7.01754 58.2898 7.01754L58.1703 7.32639L58.2898 7.63524C58.2898 7.63524 57.88 7.90977 57.8459 7.82398C57.8117 7.73819 57.8971 7.70387 57.8971 7.70387L57.6239 7.4465L57.7434 7.06902ZM56.5823 6.46848C56.6336 6.43416 56.7702 6.27974 56.7702 6.27974L56.736 6.05668L56.7872 5.98805L57.2483 5.97089L57.3166 6.31406L57.2995 6.53711L56.8555 6.58859L56.736 6.8288L56.4628 6.88028C56.4628 6.88028 56.5311 6.5028 56.5823 6.46848ZM55.37 7.7725C55.3188 7.78966 54.8578 7.94408 54.8578 7.94408L54.3797 7.72103L54.7724 7.06902L54.9602 7.00038L55.0114 7.20628L55.4725 7.25776C55.4725 7.25776 55.4212 7.75534 55.37 7.7725ZM54.5333 6.05668L54.6529 5.69636H54.8748L55.3359 5.79931L55.2846 6.15963C55.2846 6.15963 55.131 6.45132 55.0798 6.45132C55.0285 6.45132 54.6358 6.51995 54.6358 6.51995C54.6358 6.51995 54.4138 6.33121 54.3797 6.24542C54.3455 6.15963 54.5333 6.05668 54.5333 6.05668ZM44.886 5.79073L45.0909 5.63631L44.9628 4.88993L45.1933 4.42666L45.6287 5.01861L46.0642 5.25025L46.3715 4.86419L46.474 4.60682L47.4216 4.37518C47.4216 4.37518 47.8314 4.70977 47.7802 4.78698C47.729 4.86419 47.2423 5.1473 47.2423 5.1473L46.8838 5.81647C46.8838 5.81647 46.1666 6.30548 45.3726 6.35695C44.9884 7.12907 44.1945 6.58859 44.1945 6.58859L44.6555 6.30548L44.886 5.79073ZM43.6054 5.71352L43.6224 5.37036L44.3225 5.71352L44.1005 6.03953L44.0322 6.19395L43.759 6.38269L43.5029 6.43416L43.4175 6.10816L43.6054 5.71352ZM27.1622 12.5596L27.5463 12.6626L27.9818 12.0449L27.7256 12.9457L27.1878 13.0229L26.6243 13.3318L26.8292 12.9714L27.1622 12.5596ZM26.112 9.72854L26.3938 9.7028L26.4962 9.59985L26.778 9.67706L26.7011 10.0116L25.9328 9.96017L26.112 9.72854ZM17.5831 16.832L17.8392 16.6004L18.0185 16.5489L18.0953 16.8063L17.9161 16.935L18.0697 17.321L17.5831 17.6299L17.7112 17.1666L17.5831 16.832Z" fill="#FF5100"/>
<path d="M77.5608 50.6021H75.1817C74.8829 51.3027 74.5585 51.9919 74.2113 52.6639C74.3365 52.9384 74.5101 53.3388 74.4674 53.313C74.4276 53.2873 74.1487 53.213 73.9495 53.1586C72.555 55.7495 70.8134 58.1259 68.7843 60.2221L68.8924 60.6768L68.4599 60.5538C66.3027 62.7186 63.8354 64.5745 61.1318 66.0444C61.1347 66.1045 61.1489 66.1788 61.1745 66.2732C61.277 66.6164 60.7647 66.7193 60.7647 66.7193V67.0281L60.4688 66.3962C56.1573 68.6096 51.271 69.8592 46.0973 69.8592C33.0549 69.8592 21.8537 61.9293 17.0101 50.6049H14.6395C14.7647 50.8823 14.8643 51.1797 14.9355 51.4857C15.0522 51.9833 15.0863 52.4809 15.0493 52.9642L15.5644 53.8021L14.9696 53.5361C14.8017 54.3911 14.409 55.1804 13.8398 55.8239C14.2098 56.5016 14.6025 57.1651 15.0123 57.8171C17.0129 57.3652 19.1587 58.2346 20.2487 60.1105C21.0711 61.5261 21.1024 63.1847 20.4792 64.5717C21.0313 65.1093 21.6004 65.6326 22.1838 66.1331C23.4872 65.3867 25.0723 65.2923 26.4526 65.8728L27.6563 65.3466L27.1156 66.2131C27.3746 66.3733 27.6222 66.562 27.8556 66.7765C29.0593 67.8861 29.5744 69.4675 29.3809 70.9803C30.0639 71.332 30.7555 71.6609 31.4612 71.9668C32.8614 70.4598 35.1238 69.9651 37.076 70.8973C37.7363 71.2147 38.2941 71.6609 38.7295 72.1928L39.4694 71.9497L39.0169 72.5845C39.3954 73.1508 39.6487 73.7942 39.7654 74.4634C40.5195 74.5949 41.2793 74.7036 42.0477 74.7865C42.947 72.9363 44.9618 71.7953 47.0962 72.1098C48.7098 72.3472 50.0217 73.3624 50.7104 74.7207C51.4759 74.6235 52.2358 74.5034 52.9871 74.3604C53.0554 73.9229 53.1834 73.4996 53.3627 73.1021L52.7736 72.6532H53.5932C54.3047 71.4349 55.5341 70.537 57.031 70.3054C58.6446 70.0537 60.1984 70.6371 61.2542 71.7352C61.9543 71.4149 62.643 71.0746 63.3203 70.7143C63.0243 68.6753 64.0517 66.5906 65.9954 65.6412C66.1974 65.544 66.3995 65.461 66.6072 65.3924L66.5731 65.2065L66.6072 64.7947L67.017 64.7604L67.1536 64.6231L67.3215 65.2151C68.4029 65.0349 69.5014 65.2351 70.4406 65.7527C71.0183 65.2408 71.5789 64.7118 72.1224 64.1627C71.2459 62.3011 71.6187 60.0105 73.1953 58.532C74.3877 57.4138 75.9956 57.0163 77.4811 57.3252C77.8824 56.6675 78.2609 55.9983 78.6223 55.3148C77.4698 54.0566 77.0543 52.255 77.5608 50.6021ZM16.8507 56.3129L16.4011 56.1842L16.6942 55.5293L16.8877 55.5951L16.8507 56.3129ZM16.6088 54.6285L16.2503 54.4226L16.7369 54.0251L17.0186 54.5027L16.6088 54.6285ZM17.9748 55.8239L17.787 56.3386L17.2748 56.3043L17.6333 56.0126L17.4626 55.6694L17.6504 55.3949L18.1968 55.8067L17.9748 55.8239ZM22.2607 61.8121L22.0899 61.4689L22.2265 61.3488L22.4314 61.2973L22.4656 61.7949L22.2607 61.8121ZM22.9949 63.1504L23.0803 62.9273L23.2339 62.8244L23.2852 63.1676L22.9949 63.1504ZM23.3193 62.1037L23.0803 61.7434L23.4047 61.692L23.6096 61.7949L23.695 62.1381L23.3193 62.1037ZM31.0372 67.6802L31.0713 67.3542L31.2079 67.4399L31.3104 67.6287L31.1396 68.2807L30.8835 68.1606L30.986 67.9547L30.6786 67.7316L31.0372 67.6802ZM30.5762 71.129L30.4225 71.0432L30.5932 70.4255L30.7128 70.5627L30.7298 70.9059L31.3275 71.0946L30.5762 71.129ZM33.3082 69.293L33.1602 68.927L32.9325 68.7611L33.1545 68.9155L33.1602 68.927L33.5643 69.2244L33.3082 69.293ZM33.8033 68.7954L33.6497 68.3665L33.8033 68.1777L34.0936 68.5724L33.8033 68.7954ZM35.4938 69.2416L35.4084 69.2244L35.2889 69.5332L34.9303 69.4475L35.0498 69.3102L34.6229 69.0871L34.8278 68.9327L35.1523 69.1043L35.5962 68.7611L35.4938 69.2416ZM38.738 70.7L38.8405 70.3568L39.1478 70.3912L39.2161 70.6314L38.738 70.7ZM40.6846 71.5236L40.3772 71.5922L40.2406 71.3863L40.0357 71.1118L40.2406 71.0088L40.6504 71.0432L40.9578 71.3177L40.6846 71.5236ZM43.4621 72.167L43.4365 71.7152L43.7438 71.6895L43.9743 71.9726L44.0256 72.167H43.4621ZM49.0968 71.9097L48.8009 71.6122L49.1708 71.4721L49.3757 71.5236L49.0968 71.9097ZM50.8015 72.8619V72.6303V72.4244L50.9694 72.4759L51.2397 72.759L50.8015 72.8619ZM59.5012 68.2979L59.0572 68.4008L59.0231 67.8174L59.467 67.6802L59.9793 67.8517L59.5012 68.2979ZM61.1745 68.7096L60.6964 68.641L61.1404 68.1263L61.2087 67.9204L61.1745 68.7096ZM63.1552 66.7536L62.6771 66.8566L62.6088 66.582L62.9162 66.4448L63.3601 66.3761L63.1552 66.7536ZM70.8162 59.4928L71.0609 58.9667L71.1748 59.184L71.2402 59.4671L70.8162 59.4928ZM74.1714 56.4816L73.3774 56.8819L73.8783 56.2757L73.1612 56.3272L74.1231 55.7867L74.1743 55.8525V56.4816H74.1714ZM74.1344 54.7944L74.032 55.0517L73.8015 54.7944L74.1857 54.4855L74.365 54.5627L74.6467 54.8201L74.1344 54.7944ZM75.4151 55.8382L75.287 55.515L75.4008 55.4778L75.6057 55.7095L75.4151 55.8382ZM75.6314 54.4083L75.2728 54.1395L75.1049 54.4083L74.8231 53.8278L74.8487 53.6619L75.5289 53.1214L75.1959 53.7649L75.8505 53.7134L75.6314 54.4083ZM76.4766 55.2977L76.3741 55.0775L76.0668 55.1547L76.3485 54.8201L76.4652 54.8716C76.7327 55.3091 76.4766 55.2977 76.4766 55.2977Z" fill="#FF5100"/>
<path d="M73.7609 27.7819C73.0152 26.0146 72.096 24.3131 71.0232 22.7202C69.9588 21.136 68.7351 19.6461 67.389 18.2934C66.043 16.9408 64.5603 15.7111 62.9837 14.6416C61.3929 13.5606 59.6911 12.6341 57.9267 11.8849C54.2555 10.3263 50.3567 9.53418 46.3384 9.53418C42.3201 9.53418 38.4213 10.3263 34.7502 11.8849C32.9858 12.6341 31.284 13.5635 29.6932 14.6416C28.1166 15.7111 26.6339 16.9408 25.2878 18.2934C23.9418 19.6461 22.718 21.136 21.6537 22.7202C20.5808 24.3131 19.6616 26.0175 18.916 27.7819H20.8028C25.2252 18.0446 35.0063 11.2614 46.3356 11.2614C57.6648 11.2614 67.446 18.0446 71.8684 27.7819H73.7609Z" fill="#FF5100"/>
<path d="M19.1836 50.4565C19.878 52.0036 20.7061 53.4993 21.6538 54.9062C22.7181 56.4905 23.9418 57.9804 25.2879 59.333C26.634 60.6857 28.1167 61.9153 29.6932 62.9849C31.2841 64.0658 32.9859 64.9924 34.7503 65.7416C38.4214 67.303 42.3202 68.0923 46.3385 68.0923C50.3568 68.0923 54.2556 67.3001 57.9267 65.7416C59.6911 64.9924 61.3929 64.063 62.9838 62.9849C64.5604 61.9153 66.043 60.6857 67.3891 59.333C68.7352 57.9804 69.9589 56.4905 71.0232 54.9062C71.9709 53.4964 72.799 52.0036 73.4934 50.4565H71.5839C67.0362 59.8649 57.4287 66.365 46.3385 66.365C35.2483 66.365 25.6408 59.8649 21.0931 50.4565H19.1836Z" fill="#FF5100"/>
<path d="M60.3069 27.6504H70.179C65.8448 18.8225 56.7979 12.7485 46.3395 12.7485C35.8811 12.7485 26.8342 18.8225 22.5 27.6504H32.3722C35.7189 23.6526 40.7332 21.1103 46.3395 21.1103C51.9458 21.1131 56.9602 23.6526 60.3069 27.6504Z" fill="#FF5100"/>
<path d="M46.3378 22.7231C41.7304 22.7231 37.6295 24.6906 35 27.7476H40.5181L40.7543 26.8011L41.1982 27.2472L41.9495 27.556L41.7588 27.7476H52.1632L52.1945 27.7276L52.5019 27.007L53.2702 27.7476H57.6784C55.046 24.6906 50.9452 22.7231 46.3378 22.7231ZM38.1902 26.252L38.4634 25.9775H38.9415L38.9756 26.355L38.1902 26.252ZM42.698 26.252L42.2882 26.1491L42.3565 25.8745L42.8346 25.7716L42.698 26.252ZM47.6839 25.7716C47.5473 25.8059 47.5814 26.355 47.5814 26.355L46.7618 25.5657L46.2496 26.0461L45.7715 25.3598L45.5324 25.6L45.3958 25.2225L45.6349 23.8842L46.1813 24.8107L47.1375 24.7764C47.1375 24.7764 48.1278 25.5657 48.2303 25.7373C48.3327 25.9088 47.8205 25.7373 47.6839 25.7716ZM49.7329 25.2225L49.3572 24.948H50.0402L49.7329 25.2225ZM51.2355 26.1834L50.9964 26.1491L51.0306 25.6L51.4404 25.9432L51.2355 26.1834Z" fill="#FF5100"/>
<path d="M32.3722 50.605H22.5C26.8342 59.4329 35.8811 65.5069 46.3395 65.5069C56.7979 65.5069 65.8448 59.4329 70.179 50.605H60.3069C56.9602 54.6028 51.9458 57.1451 46.3395 57.1451C40.7332 57.1451 35.7189 54.6028 32.3722 50.605Z" fill="#FF5100"/>
<path d="M46.3436 55.5293C50.951 55.5293 55.0519 53.5618 57.6814 50.5048H52.5333L52.6045 50.9309L52.0751 50.7593L52.041 50.9824L51.4121 50.502H42.1489L42.0009 50.8766L41.6082 50.502H35.0059C37.6354 53.5647 41.7362 55.5293 46.3436 55.5293ZM54.4144 51.4314L54.2095 51.6373L53.7826 51.2769L54.4144 51.4314ZM53.3899 51.5858L53.4753 51.6373V52.049L53.185 51.826L53.3899 51.5858ZM51.1019 51.9118L51.1702 51.5L51.2043 51.7574L51.4604 51.6887L51.6141 52.3579L51.358 52.1863L51.0165 52.2721L51.1019 51.9118ZM49.8554 51.7402L50.0944 51.8603C50.0944 51.8603 50.0944 52.2721 50.0944 52.3236C50.0944 52.3751 49.5139 52.3751 49.5139 52.3751L49.7871 52.1005L49.2578 51.8432L49.8554 51.7402ZM48.848 52.7525L48.5748 52.7011L48.8138 52.4608L48.848 52.7525ZM48.3869 51.2426L48.5919 51.3112L48.404 51.6544L48.1479 51.6029L48.3869 51.2426ZM46.577 52.5466L46.2355 52.6667L46.2184 52.2206L46.338 52.3579L46.577 52.5466ZM45.5184 51.397L46.2184 51.4142L45.9623 51.6373L45.9282 51.8775L45.4842 51.5515L45.5184 51.397ZM45.4501 52.478L45.4728 52.5438L45.5525 52.7869L45.3647 52.8212L45.1939 52.7869L45.4501 52.478ZM44.4085 51.3456L44.5963 51.2941L44.7671 51.8946H44.3231L44.3743 51.6544L44.067 51.5686L44.4085 51.3456ZM44.1353 54.2968L44.306 54.7257L43.9987 54.6914L44.1353 54.2968ZM40.1397 52.3407L40.43 53.0271L40.1397 52.9927V52.7011L39.7812 52.5981L40.1397 52.3407ZM39.1494 51.3799L39.4567 51.4657L39.1494 51.7402L38.8933 51.5686L39.1494 51.3799Z" fill="#FF5100"/>
<path d="M88.2131 28.7827H21.5581L21.6292 29.0315L21.1853 29.1345L20.7755 29.409C20.7755 29.409 20.4681 29.2717 20.1949 29.1688L19.3412 29.7178C19.3412 29.7178 19.2046 29.2374 19.1021 29.2374C18.9997 29.2374 18.3508 29.4776 18.3508 29.4776L18.311 28.7827H4.1103L2.55078 31.2135H89.451L88.2131 28.7827Z" fill="#FF5100"/>
<path d="M67.8683 47.2623C67.8683 47.2623 68.2439 47.6054 67.2877 47.5711C66.9861 47.5597 66.8324 47.5711 66.7612 47.5883L66.8438 47.7084C66.8438 47.7084 66.6019 47.6283 66.7612 47.5883L66.6047 47.3652C66.6047 47.3652 66.0925 47.5711 66.0925 47.3995C66.0925 47.3252 66.0612 47.2222 66.027 47.125H16.1254L15.892 47.2966L15.0724 48.4633L15.209 47.5025L14.5943 47.6397L14.472 47.125H2.55078L4.1103 49.5557H88.2131L89.451 47.125H67.7914L67.8683 47.2623ZM18.6923 48.2231L18.3508 48.429L17.5995 48.0515L18.1801 47.6054L18.6923 47.9143V48.2231ZM40.48 48.5663L39.9678 48.4633L40.7191 48.1888L40.8557 48.3261L40.48 48.5663ZM42.29 48.2231L41.6753 48.4633L41.6411 47.9486L41.846 48.0172C41.846 48.0172 42.5973 47.9829 42.8364 47.9143C43.0754 47.8456 42.29 48.2231 42.29 48.2231ZM82.3137 47.8456C82.4162 48.0172 82.6211 48.4633 82.6211 48.4633L82.2454 48.6692L82.0747 48.6349C81.9722 48.5663 81.5283 48.5663 81.3917 48.6006C81.2551 48.6349 82.3137 47.8456 82.3137 47.8456ZM79.9915 47.9486L80.0598 47.777L80.8111 47.9829L80.9477 48.1202C80.9477 48.1202 80.6745 48.1202 80.333 48.1202C79.9915 48.1202 80.0598 48.429 80.0598 48.429C80.0598 48.429 79.4793 48.3604 79.4793 48.2231C79.4793 48.0859 79.9915 47.9486 79.9915 47.9486ZM78.045 47.6741L78.2157 47.8456L78.1474 48.3604L77.6352 48.0515L78.045 47.6741Z" fill="#FF5100"/>
<path d="M3.42383 33.4038V45.4975H5.6265V41.5511L6.47171 40.2785L8.87928 45.5003H11.4775L8.0483 38.557L11.3039 33.4067H8.57478L6.3408 37.4245C6.12168 37.8564 5.88832 38.2853 5.66919 38.7514H5.6265V33.4038H3.42383Z" fill="#FF5100" stroke="#333333" stroke-width="0.432865" stroke-miterlimit="10"/>
<path d="M14.5013 33.4038L11.4961 45.4975H13.8012L14.5013 42.3947H17.3187L18.0785 45.4975H20.4718L17.4211 33.4038H14.5013ZM14.8229 40.3472L15.4063 37.782C15.5656 37.0814 15.7136 36.1663 15.8588 35.4485H15.8872C16.0323 36.1663 16.2088 37.0642 16.3824 37.782L16.9942 40.3472H14.8229Z" fill="#FF5100" stroke="#333333" stroke-width="0.432865" stroke-miterlimit="10"/>
<path d="M24.3378 45.4975V35.7001H27.0243V33.4038H19.4629V35.7001H22.1038V45.4975H24.3378Z" fill="#FF5100" stroke="#333333" stroke-width="0.432865" stroke-miterlimit="10"/>
<path d="M29.0823 42.3947H31.8996L32.6595 45.4975H35.0528L32.0021 33.4038H29.0823L26.0742 45.4975H28.3793L29.0823 42.3947ZM29.9872 37.782C30.1466 37.0814 30.2946 36.1663 30.4397 35.4485H30.4682C30.6133 36.1663 30.7898 37.0642 30.9634 37.782L31.5752 40.3472H29.401L29.9872 37.782Z" fill="#FF5100" stroke="#333333" stroke-width="0.432865" stroke-miterlimit="10"/>
<path d="M41.1229 43.4357C40.1753 43.4357 39.2561 43.0583 38.6556 42.6808L38.2031 44.9428C38.7581 45.3203 39.8679 45.6777 40.992 45.6777C43.6927 45.6777 44.962 43.9562 44.962 41.9287C44.962 40.2243 44.1452 39.1119 42.4064 38.3226C41.1372 37.7307 40.5822 37.3903 40.5822 36.6182C40.5822 35.9891 41.049 35.4515 42.0137 35.4515C42.9784 35.4515 43.6785 35.7918 44.0712 36.0263L44.5664 33.8186C43.983 33.4954 43.1663 33.2095 42.0564 33.2095C39.737 33.2095 38.334 34.788 38.334 36.8527C38.334 38.6114 39.3984 39.7239 41.0347 40.4245C42.2157 40.9449 42.6853 41.3768 42.6853 42.1289C42.6853 42.9153 42.1446 43.4357 41.1229 43.4357Z" fill="#FF5100" stroke="#333333" stroke-width="0.432865" stroke-miterlimit="10"/>
<path d="M52.1746 35.6458V33.4038H46.1016V45.4975H52.3766V43.2555H48.3355V40.3843H51.9554V38.1595H48.3355V35.6458H52.1746Z" fill="#FF5100" stroke="#333333" stroke-width="0.432865" stroke-miterlimit="10"/>
<path d="M60.5804 36.7956C60.5804 35.6832 60.2588 34.8396 59.6754 34.2648C58.9753 33.5842 57.9537 33.3125 56.4938 33.3125C55.3127 33.3125 54.2456 33.4212 53.5312 33.5642V45.4977H55.7339V40.742H56.4055C57.3105 40.7591 57.7345 41.1738 57.9964 42.6809C58.2895 44.1708 58.5228 45.1574 58.6822 45.4977H60.9589C60.7682 45.0315 60.4637 43.453 60.1563 42.0889C59.9088 40.9765 59.5274 40.17 58.8416 39.8269V39.7726C59.6896 39.3979 60.5804 38.3398 60.5804 36.7956ZM56.6104 38.7688H55.7339V35.4315C55.8933 35.3944 56.2006 35.3429 56.7413 35.3429C57.763 35.36 58.3749 35.9177 58.3749 37.0301C58.3749 38.0882 57.7175 38.7688 56.6104 38.7688Z" fill="#FF5100" stroke="#333333" stroke-width="0.432865" stroke-miterlimit="10"/>
<path d="M66.6508 45.4975L69.9633 33.4038H67.5984L66.3434 38.5713C66.0076 39.9525 65.7002 41.3881 65.4527 42.8408H65.41C65.1766 41.3337 64.8693 39.9525 64.5335 38.5169L63.3354 33.4038H60.8965L64.0497 45.4975H66.6508Z" fill="#FF5100" stroke="#333333" stroke-width="0.432865" stroke-miterlimit="10"/>
<path d="M72.8824 33.4038H70.6484V45.4975H72.8824V33.4038Z" fill="#FF5100" stroke="#333333" stroke-width="0.432865" stroke-miterlimit="10"/>
<path d="M79.4647 35.4686C80.253 35.4686 80.8791 35.6831 81.3316 35.9176L81.7841 33.7471C81.3913 33.4954 80.5148 33.2095 79.3623 33.2095C76.3855 33.2095 73.9922 35.5058 73.9922 39.6323C73.9922 43.0783 75.7424 45.6806 79.1431 45.6806C80.3412 45.6806 81.2604 45.4118 81.6674 45.1601L81.3316 43.0239C80.8933 43.2384 80.1506 43.4186 79.4789 43.4186C77.4926 43.4186 76.3258 41.8944 76.3258 39.4722C76.3258 36.7784 77.7003 35.4686 79.4647 35.4686Z" fill="#FF5100" stroke="#333333" stroke-width="0.432865" stroke-miterlimit="10"/>
<path d="M88.8367 35.6458V33.4038H82.7637V45.4975H89.0387V43.2555H84.9976V40.3843H88.6175V38.1595H84.9976V35.6458H88.8367Z" fill="#FF5100" stroke="#333333" stroke-width="0.432865" stroke-miterlimit="10"/>
</svg>
