<svg width="20" height="21" viewBox="0 0 20 21" fill="none" xmlns="http://www.w3.org/2000/svg">
<path d="M13.3333 19.9368H6.66665C2.81665 19.9368 2.09999 18.1451 1.91665 16.4035L1.29165 9.72848C1.19999 8.85348 1.17499 7.56182 2.04165 6.59515C2.79165 5.76182 4.03332 5.36182 5.83332 5.36182H14.1667C15.975 5.36182 17.2167 5.77015 17.9583 6.59515C18.825 7.56182 18.8 8.85348 18.7083 9.73682L18.0833 16.3951C17.9 18.1451 17.1833 19.9368 13.3333 19.9368ZM5.83332 6.60348C4.42499 6.60348 3.45832 6.87848 2.96665 7.42848C2.55832 7.87848 2.42499 8.57015 2.53332 9.60348L3.15832 16.2785C3.29999 17.5951 3.65832 18.6868 6.66665 18.6868H13.3333C16.3333 18.6868 16.7 17.5951 16.8417 16.2701L17.4667 9.61182C17.575 8.57015 17.4417 7.87848 17.0333 7.42848C16.5417 6.87848 15.575 6.60348 14.1667 6.60348H5.83332Z" fill="#b59239"/>
<path d="M13.3333 6.6036C12.9917 6.6036 12.7083 6.32026 12.7083 5.9786V5.31193C12.7083 3.8286 12.7083 3.27026 10.6667 3.27026H9.33332C7.29166 3.27026 7.29166 3.8286 7.29166 5.31193V5.9786C7.29166 6.32026 7.00832 6.6036 6.66666 6.6036C6.32499 6.6036 6.04166 6.32026 6.04166 5.9786V5.31193C6.04166 3.84526 6.04166 2.02026 9.33332 2.02026H10.6667C13.9583 2.02026 13.9583 3.84526 13.9583 5.31193V5.9786C13.9583 6.32026 13.675 6.6036 13.3333 6.6036Z" fill="#b59239"/>
<path d="M10 14.9368C7.70834 14.9368 7.70834 13.5202 7.70834 12.6702V11.8118C7.70834 10.6368 7.99168 10.3535 9.16668 10.3535H10.8333C12.0083 10.3535 12.2917 10.6368 12.2917 11.8118V12.6452C12.2917 13.5118 12.2917 14.9368 10 14.9368ZM8.95834 11.6035C8.95834 11.6702 8.95834 11.7452 8.95834 11.8118V12.6702C8.95834 13.5285 8.95834 13.6868 10 13.6868C11.0417 13.6868 11.0417 13.5535 11.0417 12.6618V11.8118C11.0417 11.7452 11.0417 11.6702 11.0417 11.6035C10.975 11.6035 10.9 11.6035 10.8333 11.6035H9.16668C9.10001 11.6035 9.02501 11.6035 8.95834 11.6035Z" fill="#b59239"/>
<path d="M11.6667 13.2869C11.3583 13.2869 11.0833 13.0536 11.05 12.7369C11.0083 12.3952 11.25 12.0786 11.5917 12.0369C13.7917 11.7619 15.9 10.9286 17.675 9.63689C17.95 9.42855 18.3417 9.49522 18.55 9.77855C18.75 10.0536 18.6917 10.4452 18.4083 10.6536C16.4583 12.0702 14.1583 12.9786 11.7417 13.2869C11.7167 13.2869 11.6917 13.2869 11.6667 13.2869Z" fill="#b59239"/>
<path d="M8.33333 13.2952C8.30833 13.2952 8.28333 13.2952 8.25833 13.2952C5.97499 13.0368 3.74999 12.2035 1.82499 10.8868C1.54166 10.6952 1.46666 10.3035 1.65833 10.0202C1.84999 9.73685 2.24166 9.66185 2.52499 9.85352C4.28333 11.0535 6.30833 11.8118 8.39166 12.0535C8.73333 12.0952 8.98333 12.4035 8.94166 12.7452C8.91666 13.0618 8.64999 13.2952 8.33333 13.2952Z" fill="#b59239"/>
</svg>
