<svg width="20" height="21" viewBox="0 0 20 21" fill="none" xmlns="http://www.w3.org/2000/svg">
<path d="M9.99999 19.9869C9.42499 19.9869 8.88332 19.6953 8.49999 19.1869L7.24999 17.5203C7.22499 17.4869 7.12499 17.4453 7.08332 17.4369H6.66666C3.19166 17.4369 1.04166 16.4953 1.04166 11.8119V7.64526C1.04166 3.96193 2.98332 2.02026 6.66666 2.02026H13.3333C17.0167 2.02026 18.9583 3.96193 18.9583 7.64526V11.8119C18.9583 15.4953 17.0167 17.4369 13.3333 17.4369H12.9167C12.85 17.4369 12.7917 17.4703 12.75 17.5203L11.5 19.1869C11.1167 19.6953 10.575 19.9869 9.99999 19.9869ZM6.66666 3.27026C3.68332 3.27026 2.29166 4.66193 2.29166 7.64526V11.8119C2.29166 15.5786 3.58332 16.1869 6.66666 16.1869H7.08332C7.50832 16.1869 7.99166 16.4286 8.24999 16.7703L9.49999 18.4369C9.79166 18.8203 10.2083 18.8203 10.5 18.4369L11.75 16.7703C12.025 16.4036 12.4583 16.1869 12.9167 16.1869H13.3333C16.3167 16.1869 17.7083 14.7953 17.7083 11.8119V7.64526C17.7083 4.66193 16.3167 3.27026 13.3333 3.27026H6.66666Z" fill="#FF5100"/>
<path d="M9.99999 10.9784C9.53332 10.9784 9.16666 10.6034 9.16666 10.1451C9.16666 9.68677 9.54166 9.31177 9.99999 9.31177C10.4583 9.31177 10.8333 9.68677 10.8333 10.1451C10.8333 10.6034 10.4667 10.9784 9.99999 10.9784Z" fill="#FF5100"/>
<path d="M13.3333 10.9784C12.8667 10.9784 12.5 10.6034 12.5 10.1451C12.5 9.68677 12.875 9.31177 13.3333 9.31177C13.7917 9.31177 14.1667 9.68677 14.1667 10.1451C14.1667 10.6034 13.8 10.9784 13.3333 10.9784Z" fill="#FF5100"/>
<path d="M6.66668 10.9784C6.20001 10.9784 5.83334 10.6034 5.83334 10.1451C5.83334 9.68677 6.20834 9.31177 6.66668 9.31177C7.12501 9.31177 7.50001 9.68677 7.50001 10.1451C7.50001 10.6034 7.13334 10.9784 6.66668 10.9784Z" fill="#FF5100"/>
</svg>
