<svg width="21" height="21" viewBox="0 0 21 21" fill="none" xmlns="http://www.w3.org/2000/svg">
<path d="M9.33125 15.4952H11.4229C12.7896 15.4952 13.8979 14.3452 13.8979 12.9286C13.8979 12.5869 13.6146 12.3036 13.2729 12.3036C12.9312 12.3036 12.6479 12.5869 12.6479 12.9286C12.6479 13.6536 12.0979 14.2452 11.4229 14.2452H9.33125C8.78958 14.2452 8.33958 13.7619 8.33958 13.1786C8.33958 12.4536 8.59792 12.3119 9.02292 12.1619L12.3813 10.9786C13.0312 10.7536 13.9062 10.2702 13.9062 8.77858C13.9062 7.49525 12.8979 6.46191 11.6646 6.46191H9.57292C8.20625 6.46191 7.09792 7.61191 7.09792 9.02858C7.09792 9.37025 7.38125 9.65358 7.72292 9.65358C8.06458 9.65358 8.34792 9.37025 8.34792 9.02858C8.34792 8.30358 8.89792 7.71191 9.57292 7.71191H11.6646C12.2062 7.71191 12.6562 8.19525 12.6562 8.77858C12.6562 9.50358 12.3979 9.64525 11.9729 9.79525L8.61458 10.9786C7.96458 11.2036 7.08958 11.6869 7.08958 13.1786C7.09792 14.4536 8.09792 15.4952 9.33125 15.4952Z" fill="#FF5100"/>
<path d="M10.4961 16.6035C10.8378 16.6035 11.1211 16.3202 11.1211 15.9785V5.97852C11.1211 5.63685 10.8378 5.35352 10.4961 5.35352C10.1544 5.35352 9.87109 5.63685 9.87109 5.97852V15.9785C9.87109 16.3202 10.1544 16.6035 10.4961 16.6035Z" fill="#FF5100"/>
<path d="M13 19.9369H7.99999C3.47499 19.9369 1.54166 18.0036 1.54166 13.4786V8.4786C1.54166 3.9536 3.47499 2.02026 7.99999 2.02026H13C17.525 2.02026 19.4583 3.9536 19.4583 8.4786V13.4786C19.4583 18.0036 17.525 19.9369 13 19.9369ZM7.99999 3.27026C4.15832 3.27026 2.79166 4.63693 2.79166 8.4786V13.4786C2.79166 17.3203 4.15832 18.6869 7.99999 18.6869H13C16.8417 18.6869 18.2083 17.3203 18.2083 13.4786V8.4786C18.2083 4.63693 16.8417 3.27026 13 3.27026H7.99999Z" fill="#FF5100"/>
</svg>
