<svg width="21" height="21" viewBox="0 0 21 21" fill="none" xmlns="http://www.w3.org/2000/svg">
<path d="M16.7774 18.2837C15.0402 20.0208 10.5914 18.3885 6.84069 14.6378C3.08998 10.8871 1.45768 6.43831 3.19485 4.70114L4.33864 3.55734C5.12826 2.76772 6.42937 2.78859 7.24474 3.60397L9.01638 5.3756C9.83175 6.19097 9.85262 7.49208 9.063 8.2817L8.81732 8.52738C8.391 8.95371 8.34929 9.64146 8.74543 10.1215C9.12753 10.5845 9.53947 11.0458 9.98611 11.4924C10.4328 11.939 10.894 12.351 11.357 12.7331C11.8371 13.1292 12.5248 13.0875 12.9511 12.6612L13.1968 12.4155C13.9864 11.6259 15.2875 11.6468 16.1029 12.4621L17.8745 14.2338C18.6899 15.0491 18.7108 16.3503 17.9212 17.1399L16.7774 18.2837Z" stroke="#b59239" stroke-width="1.5"/>
</svg>
