<svg width="21" height="21" viewBox="0 0 21 21" fill="none" xmlns="http://www.w3.org/2000/svg">
<path d="M10.5 19.3784C10.25 19.3784 9.99999 19.3201 9.79166 19.2034C8.23332 18.3534 5.49166 17.4534 3.77499 17.2284L3.53332 17.1951C2.44166 17.0618 1.54166 16.0368 1.54166 14.9284V4.86177C1.54166 4.20344 1.79999 3.60344 2.27499 3.17011C2.74999 2.73677 3.36666 2.52844 4.01666 2.58677C5.84999 2.72844 8.61666 3.64511 10.1833 4.62844L10.3833 4.74511C10.4417 4.77844 10.5667 4.77844 10.6167 4.75344L10.75 4.67011C12.3167 3.68677 15.0833 2.75344 16.925 2.59511C16.9417 2.59511 17.0083 2.59511 17.025 2.59511C17.6333 2.53677 18.2583 2.75344 18.725 3.18677C19.2 3.62011 19.4583 4.22011 19.4583 4.87844V14.9368C19.4583 16.0534 18.5583 17.0701 17.4583 17.2034L17.1833 17.2368C15.4667 17.4618 12.7167 18.3701 11.1917 19.2118C10.9917 19.3284 10.75 19.3784 10.5 19.3784ZM3.81666 3.82844C3.54999 3.82844 3.30832 3.92011 3.11666 4.09511C2.90832 4.28677 2.79166 4.56177 2.79166 4.86177V14.9284C2.79166 15.4201 3.21666 15.8951 3.69166 15.9618L3.94166 15.9951C5.81666 16.2451 8.69166 17.1868 10.3583 18.0951C10.4333 18.1284 10.5417 18.1368 10.5833 18.1201C12.25 17.1951 15.1417 16.2451 17.025 15.9951L17.3083 15.9618C17.7833 15.9034 18.2083 15.4201 18.2083 14.9284V4.87011C18.2083 4.56177 18.0917 4.29511 17.8833 4.09511C17.6667 3.90344 17.3917 3.81177 17.0833 3.82844C17.0667 3.82844 17 3.82844 16.9833 3.82844C15.3917 3.97011 12.825 4.82844 11.425 5.70344L11.2917 5.79511C10.8333 6.07844 10.1833 6.07844 9.74166 5.80344L9.54166 5.68677C8.11666 4.81177 5.54999 3.96177 3.91666 3.82844C3.88332 3.82844 3.84999 3.82844 3.81666 3.82844Z" fill="#b59239"/>
<path d="M10.5 18.6785C10.1583 18.6785 9.875 18.3951 9.875 18.0535V5.55347C9.875 5.2118 10.1583 4.92847 10.5 4.92847C10.8417 4.92847 11.125 5.2118 11.125 5.55347V18.0535C11.125 18.4035 10.8417 18.6785 10.5 18.6785Z" fill="#b59239"/>
<path d="M6.95833 8.67847H5.08333C4.74166 8.67847 4.45833 8.39513 4.45833 8.05347C4.45833 7.7118 4.74166 7.42847 5.08333 7.42847H6.95833C7.29999 7.42847 7.58333 7.7118 7.58333 8.05347C7.58333 8.39513 7.29999 8.67847 6.95833 8.67847Z" fill="#b59239"/>
<path d="M7.58333 11.1785H5.08333C4.74166 11.1785 4.45833 10.8951 4.45833 10.5535C4.45833 10.2118 4.74166 9.92847 5.08333 9.92847H7.58333C7.92499 9.92847 8.20833 10.2118 8.20833 10.5535C8.20833 10.8951 7.92499 11.1785 7.58333 11.1785Z" fill="#b59239"/>
</svg>
