<svg width="62" height="62" viewBox="0 0 62 62" fill="none" xmlns="http://www.w3.org/2000/svg">
<g clip-path="url(#clip0_1301_20139)">
<path d="M26.0511 50.9343V52.8613H30.9854H35.9197V50.9343H30.9854H26.0511Z" fill="#333333"/>
<path d="M34.0803 56.8613H30.9854H27.8905V53.8832H30.9854H34.0803V56.8613Z" fill="#333333"/>
<path d="M26.1387 45.5912C27.4526 46.6715 27.8905 48.2774 27.8905 49.9416H31.0438H34.1387C34.1387 48.3066 34.5766 46.7007 35.8905 45.5912H31.0146H26.1387Z" fill="#333333"/>
<path d="M19.6569 40.9781V42.4088H30.9854H42.3139V40.9781H30.9854H19.6569Z" fill="#333333"/>
<path d="M24.3577 45.5912C23.3942 46.5255 21.9635 47.2555 20.6496 47.5474C20.5912 46.8759 20.5037 46.2336 20.4161 45.5912H24.3577Z" fill="#333333"/>
<path d="M37.6131 45.5912C38.5766 46.5255 40.0073 47.2555 41.3212 47.5474C41.4088 46.8759 41.4672 46.2336 41.5547 45.5912H37.6131Z" fill="#333333"/>
<path d="M13 17.8248C15.6277 22.8467 18.0219 30.5255 19.2774 37.8832H19.2783C20.4751 37.8832 21.7011 37.8832 22.927 37.9124C21.5255 33.3285 19.9781 28.7737 18.0803 24.3066C19.4234 24.5109 20.7956 24.8029 22.1387 25.1533C18.8686 21.7956 15.8321 19.3723 13 17.8248Z" fill="#333333"/>
<path d="M49 17.8248C46.3723 22.8467 43.9781 30.5255 42.7226 37.8832H42.7217C41.4957 37.8832 40.2698 37.8832 39.073 37.9124C40.4745 33.3285 42.0219 28.7737 43.9197 24.3066C42.5766 24.5109 41.2044 24.8029 39.8613 25.1533C43.1314 21.7956 46.1679 19.3723 49 17.8248Z" fill="#333333"/>
<path d="M18.4307 38.8175V40.2482H30.9854H43.5401V38.8175H30.9854H18.4307Z" fill="#333333"/>
<path d="M30.9854 6C30.3431 9.91241 28.6788 13.708 26.7518 17.0365C27.4526 16.7153 28.1825 16.3942 29.0292 16.0438C29.7299 15.7226 30.0219 15.8978 29.9927 16.6277C29.7591 23.6934 28.7372 31.7518 25.0292 37.8832H29.3796C30.0511 36.2774 30.6058 34.6423 31.0146 33.0657C31.4234 34.6423 31.9781 36.2482 32.6496 37.8832H37C33.3212 31.7518 32.2701 23.6934 32.0365 16.6277C32.0073 15.927 32.2993 15.7226 33 16.0438C33.7883 16.3942 34.5182 16.7153 35.219 17.0365C33.2628 13.708 31.6277 9.91241 30.9854 6Z" fill="#333333"/>
<path d="M18.4307 43.1679V44.5985H30.9854H43.5401V43.1679H30.9854H18.4307Z" fill="#333333"/>
</g>
<defs>
<clipPath id="clip0_1301_20139">
<rect width="62" height="62" fill="white"/>
</clipPath>
</defs>
</svg>
