<svg width="64" height="36" viewBox="0 0 64 36" fill="none" xmlns="http://www.w3.org/2000/svg">
<g clip-path="url(#clip0_660_3048)">
<path d="M25.1681 28C30.7839 28 35.3363 23.5228 35.3363 18C35.3363 12.4772 30.7839 8 25.1681 8C19.5524 8 15 12.4772 15 18C15 23.5228 19.5524 28 25.1681 28Z" fill="#EC001B"/>
<path d="M32.351 10.9219C30.4276 12.8015 29.3477 15.3465 29.3477 17.9996C29.3477 20.6527 30.4276 23.1977 32.351 25.0773C34.2643 23.1925 35.3373 20.6495 35.3373 17.9996C35.3373 15.3497 34.2643 12.8067 32.351 10.9219Z" fill="#AA0805"/>
<path d="M48.5069 19.3142V19.2471H48.2949V19.3142H48.3603V19.5493H48.4415V19.3142H48.5069ZM48.9359 19.2471H48.8332L48.7449 19.4521L48.6551 19.2471H48.5523V19.5493H48.6335V19.3653L48.7126 19.5493H48.7758L48.8549 19.3653V19.5493H48.9361L48.9359 19.2471Z" fill="white"/>
<path d="M39.5647 28C45.2073 28 49.7817 23.5228 49.7817 18C49.7817 12.4772 45.2073 8 39.5647 8C33.922 8 29.3477 12.4772 29.3477 18C29.3477 23.5228 33.922 28 39.5647 28Z" fill="#FF9B0A" fill-opacity="0.8"/>
<path d="M16.1719 15.3926V19.5495H17.1696V17.9126C17.1634 17.5299 17.1511 17.1531 17.1449 16.7763C17.2374 17.0589 17.3297 17.3474 17.4159 17.6183C17.4899 17.8361 17.5576 18.0363 17.6253 18.2365L18.0872 19.5495H18.8879C18.9803 19.2904 19.0726 19.0255 19.165 18.7664C19.2759 18.4602 19.3867 18.1482 19.4914 17.842C19.6147 17.4769 19.7316 17.1119 19.8486 16.7468C19.8363 17.1178 19.824 17.4946 19.824 17.8714V19.5494H20.8648V15.3926H19.3868C19.3128 15.6104 19.239 15.8342 19.1589 16.0579C19.0603 16.3582 18.9495 16.6585 18.851 16.9647C18.7339 17.3238 18.6231 17.6771 18.5184 18.0304C18.4013 17.6712 18.2905 17.3121 18.1673 16.947C17.9949 16.4289 17.8163 15.9107 17.6315 15.3926H16.1719Z" fill="white"/>
<path d="M23.5368 16.5648C23.2974 16.3946 23.0081 16.3038 22.7116 16.3057C22.468 16.3077 22.2282 16.3639 22.0104 16.4701C21.7927 16.5762 21.6027 16.7294 21.4552 16.918C21.2222 17.2184 21.0947 17.5838 21.0918 17.9602C21.0913 18.2004 21.1433 18.438 21.2441 18.6572C21.345 18.8765 21.4925 19.0724 21.6769 19.232C21.9306 19.4661 22.2634 19.602 22.6127 19.6139C22.9621 19.6258 23.3039 19.513 23.5738 19.2968V19.55H24.5407V16.3705H23.5368V16.5648ZM22.3112 18.4725C22.2396 18.4078 22.1825 18.3294 22.1433 18.2423C22.1041 18.1552 22.0837 18.0612 22.0834 17.9661C22.08 17.8203 22.1214 17.6768 22.2021 17.554C22.2829 17.4311 22.3994 17.3344 22.5367 17.2763C22.6741 17.2181 22.8262 17.201 22.9736 17.2273C23.1209 17.2535 23.2569 17.3219 23.3643 17.4237C23.4716 17.5254 23.5454 17.656 23.5762 17.7987C23.607 17.9414 23.5935 18.0899 23.5374 18.2251C23.4812 18.3603 23.385 18.4762 23.261 18.558C23.1369 18.6398 22.9907 18.6838 22.8409 18.6844C22.643 18.6823 22.4534 18.6065 22.3112 18.4725Z" fill="white"/>
<path d="M27.2769 17.3061C27.2724 17.2021 27.2537 17.0991 27.2214 16.9999C27.129 16.7291 26.8273 16.311 26.0821 16.311C25.8498 16.3001 25.6189 16.3508 25.4139 16.4576C25.2089 16.5644 25.0376 16.7233 24.918 16.9175C24.8395 17.056 24.8012 17.2127 24.8071 17.3709C24.8036 17.4875 24.8248 17.6036 24.8693 17.712C24.9138 17.8204 24.9807 17.9187 25.0658 18.0009C25.2627 18.1635 25.501 18.2713 25.7556 18.3129C26.0204 18.3776 26.1682 18.3953 26.2606 18.5013C26.2937 18.5461 26.313 18.5992 26.3161 18.6544C26.3138 18.7237 26.2833 18.7893 26.2313 18.8368C26.1794 18.8843 26.1102 18.9097 26.0389 18.9076C25.9849 18.9064 25.932 18.8922 25.885 18.8663C25.838 18.8369 25.799 18.797 25.7712 18.7499C25.7433 18.7028 25.7275 18.6499 25.7249 18.5957H24.7148C24.7289 18.7412 24.7707 18.883 24.838 19.0137C24.9038 19.1323 24.9939 19.2365 25.1028 19.3198C25.3667 19.5277 25.6997 19.6346 26.0389 19.6201C26.2359 19.6296 26.4328 19.5983 26.6165 19.5283C26.8001 19.4583 26.9665 19.3511 27.1044 19.2138C27.1933 19.1264 27.2632 19.0224 27.3097 18.9081C27.3563 18.7937 27.3786 18.6714 27.3754 18.5485C27.3824 18.4125 27.3532 18.2771 27.2906 18.1553C27.2281 18.0336 27.1342 17.9297 27.0182 17.8537C26.8111 17.717 26.5755 17.6265 26.3284 17.5887C26.1895 17.5605 26.055 17.5149 25.9281 17.4533C25.8936 17.4304 25.8655 17.3997 25.8461 17.3638C25.8268 17.3278 25.8168 17.2878 25.8171 17.2473C25.8162 17.216 25.8217 17.1848 25.8333 17.1556C25.845 17.1264 25.8625 17.0997 25.8849 17.0772C25.9073 17.0547 25.9341 17.0368 25.9637 17.0246C25.9933 17.0123 26.0251 17.006 26.0573 17.0059C26.103 17.0057 26.1478 17.0179 26.1867 17.0412C26.2309 17.0702 26.2667 17.1098 26.2904 17.1563C26.3142 17.2027 26.3252 17.2544 26.3223 17.3062L27.2769 17.3061Z" fill="white"/>
<path d="M27.6566 15.3926V16.3582H27.2871V17.1002H27.6443V19.5496H28.6543V17.106H29.0854V16.3641H28.6605V15.3926H27.6566Z" fill="white"/>
<path d="M30.1152 17.5893C30.1428 17.5306 30.1803 17.4769 30.2261 17.4303C30.2675 17.3809 30.3176 17.339 30.3741 17.3067C30.514 17.209 30.6823 17.1574 30.8544 17.1595C31.008 17.1532 31.1602 17.1906 31.2924 17.2668C31.4247 17.3431 31.5314 17.4551 31.5995 17.5893H30.1152ZM32.5479 18.2841C32.5623 18.1747 32.5705 18.0646 32.5726 17.9543C32.569 17.7153 32.512 17.4798 32.4057 17.2643C32.2993 17.0487 32.1461 16.8583 31.9567 16.7061C31.6039 16.4188 31.1487 16.2792 30.6905 16.3178C30.2323 16.3564 29.8085 16.5701 29.5117 16.9121C29.255 17.2066 29.1133 17.5798 29.1113 17.9661C29.1137 18.2108 29.1711 18.4521 29.2797 18.6728C29.3882 18.8936 29.5452 19.0885 29.7395 19.2438C30.0585 19.4893 30.4537 19.6222 30.8604 19.6206C31.2019 19.6212 31.5357 19.5222 31.8189 19.3365C32.1021 19.1507 32.3217 18.8867 32.4494 18.5784H31.4208C31.3833 18.6182 31.3396 18.652 31.2914 18.6785C31.1613 18.7546 31.0119 18.7933 30.8602 18.7904C30.7302 18.7932 30.6012 18.7665 30.4836 18.7123C30.366 18.6582 30.263 18.5781 30.1828 18.4784C30.1383 18.4169 30.0992 18.3519 30.0657 18.2841L32.5479 18.2841Z" fill="white"/>
<path d="M32.6914 16.3758V19.5494H33.6953V17.7771C33.6874 17.6738 33.7133 17.5708 33.7692 17.4827C33.9232 17.2589 34.3174 17.2472 34.3482 17.2472C34.4182 17.2449 34.4883 17.2488 34.5576 17.2589V16.364C34.4196 16.3522 34.2807 16.3692 34.1501 16.4139C34.0194 16.4586 33.9001 16.5299 33.8 16.623C33.7382 16.684 33.6806 16.749 33.6276 16.8174V16.3758H32.6914Z" fill="white"/>
<path d="M39.0529 16.9475C38.9321 16.4947 38.6642 16.0919 38.2892 15.7993C37.884 15.478 37.3769 15.3032 36.8543 15.3047C36.4578 15.302 36.0673 15.3994 35.721 15.5874C35.3762 15.7809 35.0901 16.0599 34.8922 16.3961C34.6942 16.7322 34.5913 17.1135 34.594 17.501C34.5875 17.9206 34.7192 18.3311 34.9697 18.6727C35.2427 19.0398 35.6208 19.3205 36.0568 19.4796C36.4927 19.6388 36.9671 19.6694 37.4209 19.5676C37.7208 19.4936 38.002 19.3603 38.2467 19.1759C38.4915 18.9916 38.6946 18.7601 38.8435 18.496C38.9319 18.3323 39.004 18.1608 39.0591 17.9838H37.852C37.8112 18.0513 37.766 18.1163 37.7165 18.1781C37.5855 18.3181 37.4233 18.4269 37.2423 18.4961C36.9661 18.586 36.6654 18.5725 36.3989 18.4582C36.1324 18.3439 35.9192 18.137 35.8011 17.8778C35.7463 17.7489 35.717 17.6111 35.7148 17.4716C35.713 17.2574 35.7772 17.0475 35.899 16.8691C36.0209 16.6907 36.1948 16.5519 36.3984 16.4706C36.5457 16.4069 36.7053 16.3747 36.8665 16.3764C37.0352 16.3741 37.2021 16.4101 37.3539 16.4817C37.5057 16.5533 37.6383 16.6583 37.7411 16.7886C37.7795 16.8393 37.8145 16.8924 37.8458 16.9475L39.0529 16.9475Z" fill="white"/>
<path d="M41.5466 16.5648C41.3071 16.3946 41.0178 16.3038 40.7213 16.3057C40.4778 16.3077 40.238 16.3639 40.0202 16.4701C39.8024 16.5762 39.6125 16.7294 39.4649 16.918C39.2319 17.2184 39.1045 17.5838 39.1016 17.9602C39.1011 18.2004 39.153 18.438 39.2539 18.6572C39.3548 18.8765 39.5023 19.0724 39.6867 19.232C39.9403 19.4661 40.2732 19.602 40.6225 19.6139C40.9719 19.6258 41.3137 19.513 41.5836 19.2968V19.55H42.5505V16.3705H41.5466V16.5648ZM40.321 18.4725C40.2494 18.4078 40.1922 18.3294 40.153 18.2423C40.1138 18.1552 40.0935 18.0612 40.0931 17.9661C40.0898 17.8203 40.1312 17.6768 40.2119 17.554C40.2927 17.4311 40.4091 17.3344 40.5465 17.2763C40.6839 17.2181 40.836 17.201 40.9833 17.2273C41.1307 17.2535 41.2667 17.3219 41.374 17.4237C41.4813 17.5254 41.5551 17.656 41.5859 17.7987C41.6168 17.9414 41.6033 18.0899 41.5471 18.2251C41.491 18.3603 41.3948 18.4762 41.2707 18.558C41.1467 18.6398 41.0005 18.6838 40.8507 18.6844C40.6528 18.6823 40.4632 18.6065 40.321 18.4725Z" fill="white"/>
<path d="M42.9102 16.3758V19.5494H43.9141V17.7771C43.9062 17.6738 43.9321 17.5708 43.988 17.4827C44.142 17.2589 44.5362 17.2472 44.5669 17.2472C44.637 17.2449 44.7071 17.2488 44.7764 17.2589V16.364C44.6384 16.3522 44.4995 16.3692 44.3689 16.4139C44.2382 16.4586 44.1189 16.5299 44.0188 16.623C43.957 16.684 43.8994 16.749 43.8464 16.8174V16.3758H42.9102Z" fill="white"/>
<path d="M47.2146 16.5702C46.9745 16.401 46.6856 16.3103 46.3893 16.3111C46.1457 16.3124 45.9056 16.3684 45.6877 16.4746C45.4698 16.5808 45.28 16.7344 45.1329 16.9235C44.8964 17.222 44.7685 17.5886 44.7695 17.9656C44.7697 18.2052 44.8213 18.4421 44.921 18.6611C45.0207 18.8801 45.1663 19.0764 45.3485 19.2374C45.6141 19.4837 45.967 19.6208 46.3339 19.6201C46.6669 19.6231 46.9901 19.5104 47.2453 19.3021L47.2515 19.5494H48.2123V15.3926H47.2146L47.2146 16.5702ZM45.9828 18.4779C45.8429 18.3419 45.7633 18.158 45.7611 17.9656C45.7584 17.8204 45.8002 17.6777 45.8811 17.5556C45.962 17.4336 46.0784 17.3378 46.2155 17.2803C46.3526 17.2229 46.5041 17.2066 46.6507 17.2333C46.7974 17.26 46.9326 17.3286 47.039 17.4304C47.1455 17.5322 47.2184 17.6625 47.2485 17.8048C47.2786 17.9471 47.2645 18.0948 47.2081 18.2293C47.1516 18.3637 47.0553 18.4788 46.9314 18.5597C46.8075 18.6407 46.6617 18.684 46.5125 18.684C46.3158 18.6813 46.1272 18.6078 45.9828 18.4779Z" fill="white"/>
</g>
<rect x="0.5" y="0.5" width="63" height="35" rx="4.5" stroke="#585858"/>
<defs>
<clipPath id="clip0_660_3048">
<rect width="34.7826" height="20" fill="white" transform="translate(15 8)"/>
</clipPath>
</defs>
</svg>
