<svg width="33" height="32" viewBox="0 0 33 32" fill="none" xmlns="http://www.w3.org/2000/svg">
<g clip-path="url(#clip0_644_1677)">
<path d="M12.3242 27.0044V19.3794C12.3242 18.8616 11.9045 18.4419 11.3867 18.4419C10.869 18.4419 10.4492 18.8616 10.4492 19.3794V27.0044C10.4492 27.5221 10.869 27.9419 11.3867 27.9419C11.9045 27.9419 12.3242 27.5221 12.3242 27.0044Z" fill="#FF5100"/>
<path d="M15.7324 27.0044V19.3794C15.7324 18.8616 15.3127 18.4419 14.7949 18.4419C14.2772 18.4419 13.8574 18.8616 13.8574 19.3794V27.0044C13.8574 27.5221 14.2772 27.9419 14.7949 27.9419C15.3127 27.9419 15.7324 27.5221 15.7324 27.0044Z" fill="#FF5100"/>
<path d="M19.1426 27.0044V19.3794C19.1426 18.8616 18.7228 18.4419 18.2051 18.4419C17.6873 18.4419 17.2676 18.8616 17.2676 19.3794V27.0044C17.2676 27.5221 17.6873 27.9419 18.2051 27.9419C18.7228 27.9419 19.1426 27.5221 19.1426 27.0044Z" fill="#FF5100"/>
<path d="M22.5508 27.0044V19.3794C22.5508 18.8616 22.131 18.4419 21.6133 18.4419C21.0955 18.4419 20.6758 18.8616 20.6758 19.3794V27.0044C20.6758 27.5221 21.0955 27.9419 21.6133 27.9419C22.1311 27.9419 22.5508 27.5221 22.5508 27.0044Z" fill="#FF5100"/>
<path d="M1.125 18.7762L1.125 27.6079H4.5V18.7762H1.125Z" stroke="#FF5100" stroke-width="1.75" stroke-miterlimit="10" stroke-linecap="round" stroke-linejoin="round"/>
<path d="M28.5 18.7762V27.6079H31.8751V18.7762H28.5Z" stroke="#FF5100" stroke-width="1.75" stroke-miterlimit="10" stroke-linecap="round" stroke-linejoin="round"/>
<path d="M25.0508 15.1919H7.94913L4.5 18.776V27.6078L7.94913 31.1919H25.0508L28.4999 27.6078V18.776L25.0508 15.1919Z" stroke="#FF5100" stroke-width="1.75" stroke-miterlimit="10" stroke-linecap="round" stroke-linejoin="round"/>
<path d="M7.94922 31.105V15.2793" stroke="#FF5100" stroke-width="1.75" stroke-miterlimit="10" stroke-linecap="round" stroke-linejoin="round"/>
<path d="M25.0508 15.2793V31.105" stroke="#FF5100" stroke-width="1.75" stroke-miterlimit="10" stroke-linecap="round" stroke-linejoin="round"/>
<path d="M13.9879 9.44835C15.6681 11.1285 18.4025 11.1285 20.0827 9.44835C21.7625 7.76857 21.7625 5.03414 20.0827 3.35393C18.4025 1.67415 15.6681 1.67378 13.9879 3.35391C13.9879 3.35392 13.9879 3.35393 13.9879 3.35395M13.9879 9.44835L20.2241 3.21252C21.982 4.97083 21.982 7.83188 20.2241 9.58977C18.4658 11.3481 15.6048 11.3481 13.8464 9.58977C12.995 8.73832 12.5259 7.6058 12.5259 6.40136C12.5259 5.19691 12.995 4.06439 13.8464 3.21252L13.9879 3.35395M13.9879 9.44835C13.1739 8.63441 12.7259 7.55276 12.7259 6.40136C12.7259 5.24998 13.1739 4.16832 13.9879 3.35395M13.9879 9.44835V3.35395M20.95 2.48668L20.95 2.48667C18.7916 0.328272 15.279 0.328272 13.1206 2.48667L13.1206 2.4867C12.0754 3.53228 11.4992 4.92315 11.4992 6.40136C11.4992 7.87955 12.0754 9.27044 13.1206 10.3156C14.2001 11.3951 15.6182 11.9345 17.0353 11.9345C18.4524 11.9345 19.8705 11.3951 20.95 10.3156C23.1084 8.15724 23.1083 4.64546 20.95 2.48668Z" fill="#FF5100" stroke="#FF5100" stroke-width="0.4"/>
<path d="M17.9285 6.37532L18.9569 5.34837L18.957 5.34827C19.1964 5.1089 19.1961 4.72092 18.9578 4.48134L18.9576 4.48115C18.7177 4.24058 18.3294 4.24152 18.09 4.48037L18.0899 4.48045L17.0602 5.50864L16.0306 4.48045L16.0305 4.48037C15.7911 4.24152 15.4028 4.24058 15.1628 4.48115L15.1628 4.48115C14.9239 4.72073 14.9236 5.10894 15.1635 5.34837C15.1636 5.34839 15.1636 5.34842 15.1636 5.34844L16.1919 6.37532L15.1636 7.40219C15.1636 7.40222 15.1636 7.40224 15.1635 7.40227C14.9236 7.64164 14.9239 8.02972 15.1627 8.26932C15.1627 8.26937 15.1628 8.26943 15.1628 8.26948L15.3044 8.12825L17.9285 6.37532ZM17.9285 6.37532L18.9569 7.40219M17.9285 6.37532L18.9569 7.40219M18.9569 7.40219C18.9569 7.40222 18.9569 7.40224 18.9569 7.40227L18.9569 7.40219Z" fill="#FF5100" stroke="#FF5100" stroke-width="0.4"/>
</g>
<defs>
<clipPath id="clip0_644_1677">
<rect width="32" height="32" fill="white" transform="translate(0.5)"/>
</clipPath>
</defs>
</svg>
