<svg width="33" height="32" viewBox="0 0 33 32" fill="none" xmlns="http://www.w3.org/2000/svg">
<g clip-path="url(#clip0_644_1759)">
<path d="M31.9373 10.8433L31.9383 10.8433C32.151 10.8412 32.3183 10.758 32.4317 10.6294C32.5435 10.5027 32.5985 10.337 32.5998 10.1742C32.6011 10.0113 32.5486 9.84484 32.4371 9.71694C32.3239 9.58723 32.1553 9.50347 31.9388 9.50011V9.5001H31.9373H28.5078C26.8768 9.5001 25.5499 10.8271 25.5499 12.4582V14.073H23.4635V10.7433C23.4635 10.0579 22.9061 9.5001 22.2203 9.5001H21.0772C20.4251 9.5001 19.889 10.0045 19.838 10.6433H9.16984C9.11876 10.0045 8.5827 9.5001 7.93064 9.5001H6.78747C6.10174 9.5001 5.54429 10.0579 5.54429 10.7433V12.644H1.07159C0.700729 12.644 0.4 12.9444 0.4 13.3156V16.7453C0.4 16.9237 0.470853 17.0943 0.596743 17.2201L0.66701 17.1499L0.596743 17.2201L2.31151 18.935C2.43742 19.0609 2.60825 19.1317 2.78635 19.1317H5.54428V21.0324C5.54428 21.7178 6.10174 22.2756 6.78746 22.2756H7.93064C8.58269 22.2756 9.11876 21.7713 9.16983 21.1324H19.838C19.889 21.7713 20.4251 22.2756 21.0772 22.2756H22.2203C22.9061 22.2756 23.4635 21.7178 23.4635 21.0324V17.7027H26.2215C27.8525 17.7027 29.1794 16.3757 29.1794 14.7446V13.1298L31.9373 13.1298L31.9385 13.1298C32.1512 13.1273 32.3185 13.044 32.4319 12.9155C32.5437 12.7887 32.5987 12.6232 32.6 12.4604C32.6012 12.2976 32.5487 12.1313 32.4371 12.0035C32.3239 11.8739 32.1554 11.7902 31.9389 11.7866H31.9373H28.5078C28.1369 11.7866 27.8362 12.087 27.8362 12.4582V14.7446C27.8362 15.635 27.1118 16.3595 26.2214 16.3595H23.4635V15.4163L26.2215 15.4162C26.5923 15.4162 26.893 15.1158 26.893 14.7446V12.4582C26.893 11.5678 27.6175 10.8433 28.5078 10.8433L31.9373 10.8433ZM1.74318 16.4672V13.9872H5.54429V15.6021H5.54428L5.5443 15.6037C5.55898 16.4878 6.87297 16.4845 6.88745 15.6037H6.88747V15.602V10.8433H7.83064V20.9324H6.88747V18.4601C6.88747 18.0889 6.58674 17.7885 6.21588 17.7885H3.06445L1.74318 16.4672ZM22.1203 20.9324H21.1772V14.173C21.1772 13.8018 20.8764 13.5014 20.5056 13.5014C20.1347 13.5014 19.834 13.8018 19.834 14.173V19.7892H9.17381V11.9866H20.5056C20.8764 11.9866 21.1772 11.6862 21.1772 11.3149V10.8433H22.1203L22.1203 20.9324Z" fill="#FF5100" stroke="#FF5100" stroke-width="0.2"/>
<path d="M15.9347 13.5016L15.9347 13.5016H15.9331H13.0751V13.5015L13.0735 13.5016C12.859 13.5051 12.6911 13.5887 12.5777 13.7176C12.4658 13.8447 12.4118 14.0104 12.4117 14.173C12.4116 14.3357 12.4654 14.5014 12.5773 14.6286C12.6906 14.7576 12.8587 14.8412 13.0735 14.8448L13.0735 14.8448H13.0751H15.9331V14.8448L15.9347 14.8448C16.1492 14.8413 16.3171 14.7577 16.4305 14.6288C16.5423 14.5016 16.5964 14.336 16.5965 14.1733C16.5966 14.0107 16.5427 13.845 16.4309 13.7177C16.3176 13.5888 16.1495 13.5052 15.9347 13.5016Z" fill="#FF5100" stroke="#FF5100" stroke-width="0.2"/>
</g>
<defs>
<clipPath id="clip0_644_1759">
<rect width="32" height="32" fill="white" transform="translate(0.5)"/>
</clipPath>
</defs>
</svg>
