<svg width="33" height="32" viewBox="0 0 33 32" fill="none" xmlns="http://www.w3.org/2000/svg">
<g clip-path="url(#clip0_644_1765)">
<path d="M31.5625 24.4375H30.5625V4.75C30.5625 3.19922 29.3008 1.9375 27.75 1.9375H5.25C3.69922 1.9375 2.4375 3.19922 2.4375 4.75V24.4375H1.4375C0.919678 24.4375 0.5 24.8572 0.5 25.375V27.25C0.5 28.0056 0.809082 28.717 1.37012 29.2534C1.91577 29.7751 2.62793 30.0625 3.375 30.0625H29.625C30.3721 30.0625 31.0842 29.7751 31.6299 29.2534C32.1909 28.717 32.5 28.0056 32.5 27.25V25.375C32.5 24.8572 32.0803 24.4375 31.5625 24.4375ZM4.3125 4.75C4.3125 4.23315 4.73315 3.8125 5.25 3.8125H27.75C28.2668 3.8125 28.6875 4.23315 28.6875 4.75V24.4375H4.3125V4.75ZM30.625 27.25C30.625 27.7495 30.1577 28.1875 29.625 28.1875H3.375C2.84229 28.1875 2.375 27.7495 2.375 27.25V26.3125H30.625V27.25Z" fill="#FF5100"/>
<path d="M24.8374 12.2415C24.9016 12.0012 24.868 11.7454 24.7437 11.53L22.8687 8.28247C22.7444 8.06714 22.5396 7.90991 22.2994 7.8457C22.0591 7.78125 21.8033 7.81494 21.5882 7.93921L20.2027 8.73901C19.9187 8.54272 19.6211 8.36987 19.3116 8.22168V6.625C19.3116 6.10718 18.8919 5.6875 18.3741 5.6875H14.6241C14.1062 5.6875 13.6866 6.10718 13.6866 6.625V8.22168C13.377 8.36987 13.0794 8.54272 12.7954 8.73901L11.4102 7.93921C11.1949 7.81494 10.9388 7.78125 10.6988 7.8457C10.4585 7.90991 10.2537 8.06714 10.1294 8.28247L8.25443 11.53C8.13016 11.7454 8.09647 12.0012 8.16092 12.2415C8.22513 12.4817 8.38236 12.6863 8.59769 12.8108L9.96146 13.5981C9.94486 13.7795 9.93656 13.9543 9.93656 14.125C9.93656 14.2957 9.94486 14.4705 9.96146 14.6519L8.59769 15.4392C8.38236 15.5637 8.22513 15.7683 8.16092 16.0085C8.09647 16.2488 8.13016 16.5046 8.25443 16.72L10.1294 19.9675C10.2537 20.1829 10.4585 20.3401 10.6988 20.4043C10.9388 20.4688 11.1949 20.4351 11.4102 20.3108L12.7954 19.511C13.0794 19.7073 13.377 19.8799 13.6866 20.0283V21.625C13.6866 22.1428 14.1062 22.5625 14.6241 22.5625H18.3741C18.8919 22.5625 19.3116 22.1428 19.3116 21.625V20.0283C19.6211 19.8801 19.9187 19.7073 20.2027 19.511L21.5882 20.3108C21.8033 20.4351 22.0594 20.4688 22.2994 20.4045C22.5396 20.3401 22.7444 20.1829 22.8687 19.9675L24.7437 16.72C24.868 16.5046 24.9016 16.2488 24.8374 16.0085C24.773 15.7686 24.6158 15.5637 24.4007 15.4395L23.0367 14.6519C23.0533 14.4707 23.0616 14.2959 23.0616 14.1252C23.0616 13.9543 23.0533 13.7795 23.0367 13.5984L24.4007 12.8108C24.6158 12.6863 24.773 12.4817 24.8374 12.2415ZM21.0989 13.2727C21.1587 13.5959 21.1866 13.8667 21.1866 14.125C21.1866 14.3833 21.1587 14.6541 21.0989 14.9773C21.0266 15.3677 21.208 15.7612 21.552 15.9597L22.6512 16.5942L21.7137 18.218L20.5979 17.574C20.2542 17.3755 19.8228 17.4148 19.5208 17.6726C19.083 18.0461 18.5913 18.3318 18.0594 18.5215C17.6858 18.6545 17.4366 19.0081 17.4366 19.4045V20.6875H15.5616V19.4043C15.5616 19.0081 15.3123 18.6545 14.9388 18.5212C14.4068 18.3315 13.9151 18.0461 13.4773 17.6726C13.1753 17.415 12.7439 17.3755 12.4002 17.574L11.2845 18.218L10.347 16.5945L11.4461 15.9597C11.7898 15.7612 11.9715 15.3677 11.8992 14.9773C11.8394 14.6541 11.8116 14.3833 11.8116 14.125C11.8116 13.8669 11.8394 13.5959 11.8992 13.2727C11.9715 12.8823 11.7898 12.4888 11.4461 12.2903L10.347 11.6558L11.2845 10.032L12.4002 10.676C12.7439 10.8745 13.1753 10.835 13.4773 10.5774C13.9151 10.2039 14.407 9.91821 14.939 9.72852C15.3123 9.59546 15.5616 9.24194 15.5616 8.84546V7.5625H17.4366V8.84546C17.4366 9.24194 17.6858 9.59546 18.0594 9.72852C18.5913 9.91821 19.083 10.2039 19.5208 10.5774C19.8228 10.835 20.2544 10.8745 20.5982 10.676L21.7137 10.032L22.6512 11.6555L21.552 12.2903C21.208 12.4888 21.0266 12.8823 21.0989 13.2727Z" fill="#FF5100"/>
<path d="M16.5 11.3125C14.9492 11.3125 13.6875 12.5742 13.6875 14.125C13.6875 15.6758 14.9492 16.9375 16.5 16.9375C18.0508 16.9375 19.3125 15.6758 19.3125 14.125C19.3125 12.5742 18.0508 11.3125 16.5 11.3125ZM16.5 15.0625C15.9832 15.0625 15.5625 14.6418 15.5625 14.125C15.5625 13.6082 15.9832 13.1875 16.5 13.1875C17.0168 13.1875 17.4375 13.6082 17.4375 14.125C17.4375 14.6418 17.0168 15.0625 16.5 15.0625Z" fill="#FF5100"/>
</g>
<defs>
<clipPath id="clip0_644_1765">
<rect width="32" height="32" fill="white" transform="translate(0.5)"/>
</clipPath>
</defs>
</svg>
