<svg width="32" height="18" viewBox="0 0 32 18" fill="none" xmlns="http://www.w3.org/2000/svg">
<path d="M11.8242 13.0039V5.37891C11.8242 4.86116 11.4045 4.44141 10.8867 4.44141C10.369 4.44141 9.94922 4.86116 9.94922 5.37891V13.0039C9.94922 13.5217 10.369 13.9414 10.8867 13.9414C11.4045 13.9414 11.8242 13.5217 11.8242 13.0039Z" fill="white"/>
<path d="M15.2324 13.0039V5.37891C15.2324 4.86116 14.8127 4.44141 14.2949 4.44141C13.7772 4.44141 13.3574 4.86116 13.3574 5.37891V13.0039C13.3574 13.5217 13.7772 13.9414 14.2949 13.9414C14.8127 13.9414 15.2324 13.5217 15.2324 13.0039Z" fill="white"/>
<path d="M18.6426 13.0039V5.37891C18.6426 4.86116 18.2228 4.44141 17.7051 4.44141C17.1873 4.44141 16.7676 4.86116 16.7676 5.37891V13.0039C16.7676 13.5217 17.1873 13.9414 17.7051 13.9414C18.2228 13.9414 18.6426 13.5217 18.6426 13.0039Z" fill="white"/>
<path d="M22.0508 13.0039V5.37891C22.0508 4.86116 21.631 4.44141 21.1133 4.44141C20.5955 4.44141 20.1758 4.86116 20.1758 5.37891V13.0039C20.1758 13.5217 20.5955 13.9414 21.1133 13.9414C21.6311 13.9414 22.0508 13.5217 22.0508 13.0039Z" fill="white"/>
<path d="M0.625 4.77567L0.625 13.6074H4V4.77567H0.625Z" stroke="white" stroke-width="1.75" stroke-miterlimit="10" stroke-linecap="round" stroke-linejoin="round"/>
<path d="M28 4.77567V13.6074H31.3751V4.77567H28Z" stroke="white" stroke-width="1.75" stroke-miterlimit="10" stroke-linecap="round" stroke-linejoin="round"/>
<path d="M24.5508 1.19141H7.44913L4 4.77553V13.6073L7.44913 17.1914H24.5508L27.9999 13.6073V4.77553L24.5508 1.19141Z" stroke="white" stroke-width="1.75" stroke-miterlimit="10" stroke-linecap="round" stroke-linejoin="round"/>
<path d="M7.44922 17.105V1.2793" stroke="white" stroke-width="1.75" stroke-miterlimit="10" stroke-linecap="round" stroke-linejoin="round"/>
<path d="M24.5508 1.2793V17.105" stroke="white" stroke-width="1.75" stroke-miterlimit="10" stroke-linecap="round" stroke-linejoin="round"/>
</svg>
