<svg width="33" height="32" viewBox="0 0 33 32" fill="none" xmlns="http://www.w3.org/2000/svg">
<path d="M32.5 13.6889C32.5 13.2 32.1 12.8 31.6111 12.8H28.7667V10.0001H31.6111C32.1 10.0001 32.5 9.60008 32.5 9.11119C32.5 8.62231 32.1 8.22233 31.6111 8.22233H28.7667V6.31115C28.7667 4.88891 27.6111 3.73339 26.1889 3.73339H24.2778V0.888864C24.2778 0.399979 23.8778 0 23.3889 0C22.9001 0 22.5001 0.399979 22.5001 0.888864V3.73333H19.6555V0.888864C19.6555 0.399979 19.2556 0 18.7667 0C18.2778 0 17.8778 0.399979 17.8778 0.888864V3.73333H15.0333V0.888864C15.0333 0.399979 14.6334 0 14.1445 0C13.6556 0 13.2556 0.399979 13.2556 0.888864V3.73333H10.5001V0.888864C10.5 0.399979 10.1 0 9.61113 0C9.12224 0 8.72226 0.399979 8.72226 0.888864V3.73333H6.81115C5.38891 3.73333 4.23339 4.88891 4.23339 6.31108V8.2222H1.38886C0.899979 8.2222 0.5 8.62224 0.5 9.11113C0.5 9.60001 0.899979 9.99999 1.38886 9.99999H4.23333V12.8445H1.38886C0.899979 12.8445 0.5 13.2444 0.5 13.7333C0.5 14.2222 0.899979 14.6222 1.38886 14.6222H4.23333V17.4667H1.38886C0.899979 17.4667 0.5 17.8667 0.5 18.3556C0.5 18.8445 0.899979 19.2444 1.38886 19.2444H4.23333V22H1.38886C0.899979 22 0.5 22.4 0.5 22.8889C0.5 23.3778 0.899979 23.7778 1.38886 23.7778H4.23333V25.6889C4.23333 27.1112 5.38891 28.2667 6.81108 28.2667H8.7222V31.1111C8.7222 31.6 9.12218 32 9.61106 32C10.0999 32 10.4999 31.6 10.4999 31.1111V28.2667H13.3444V31.1111C13.3444 31.6 13.7444 32 14.2333 32C14.7221 32 15.1221 31.6 15.1221 31.1111V28.2667H17.9666V31.1111C17.9666 31.6 18.3666 32 18.8555 32C19.3443 32 19.7443 31.6 19.7443 31.1111V28.2667H22.4999V31.1111C22.4999 31.6 22.8999 32 23.3887 32C23.8776 32 24.2776 31.6 24.2776 31.1111V28.2667H26.1887C27.611 28.2667 28.7665 27.1111 28.7665 25.6889V23.7778H31.6109C32.0998 23.7778 32.4998 23.3778 32.4998 22.8889C32.4998 22.4001 32.0998 22.0001 31.6109 22.0001H28.7665V19.1555H31.6109C32.0998 19.1555 32.4998 18.7556 32.4998 18.2667C32.4998 17.7778 32.0998 17.3778 31.6109 17.3778H28.7665V14.5333H31.6109V14.5778C32.1 14.5778 32.5 14.1778 32.5 13.6889ZM27.0334 25.6889H26.9889C26.9889 26.1334 26.6334 26.4889 26.1889 26.4889H6.81115C6.36668 26.4889 6.01112 26.1334 6.01112 25.6889V6.31115C6.01112 5.86668 6.36668 5.51112 6.81115 5.51112H26.2334C26.6779 5.51112 27.0334 5.86668 27.0334 6.31115V25.6889H27.0334Z" fill="#FF5100"/>
</svg>
