<svg width="33" height="32" viewBox="0 0 33 32" fill="none" xmlns="http://www.w3.org/2000/svg">
<path d="M25.875 11.25H27.75C29.3008 11.25 30.5625 9.98831 30.5625 8.4375V2.8125C30.5625 1.26169 29.3008 0 27.75 0H25.875C24.3242 0 23.0625 1.26169 23.0625 2.8125V4.6875H19.1513C18.7643 3.59631 17.7222 2.8125 16.5 2.8125C15.2778 2.8125 14.2358 3.59631 13.8488 4.6875H9.9375V2.8125C9.9375 1.26169 8.67581 0 7.125 0H5.25C3.69919 0 2.4375 1.26169 2.4375 2.8125V8.4375C2.4375 9.98831 3.69919 11.25 5.25 11.25H7.125C8.67581 11.25 9.9375 9.98831 9.9375 8.4375V6.5625H13.8488C14.1317 7.36025 14.7647 7.99331 15.5625 8.27625V15.125C14.0117 15.125 12.75 16.3867 12.75 17.9375V19.8125C12.75 21.3633 14.0117 22.625 15.5625 22.625V25.4375H9.9375V23.5625C9.9375 22.0117 8.67581 20.75 7.125 20.75H5.25C3.69919 20.75 2.4375 22.0117 2.4375 23.5625V29.1875C2.4375 30.7383 3.69919 32 5.25 32H7.125C8.67581 32 9.9375 30.7383 9.9375 29.1875V27.3125H23.0625V29.1875C23.0625 30.7383 24.3242 32 25.875 32H27.75C29.3008 32 30.5625 30.7383 30.5625 29.1875V23.5625C30.5625 22.0117 29.3008 20.75 27.75 20.75H25.875C24.3242 20.75 23.0625 22.0117 23.0625 23.5625V25.4375H17.4375V22.625C18.9883 22.625 20.25 21.3633 20.25 19.8125V17.9375C20.25 16.3867 18.9883 15.125 17.4375 15.125V8.27625C18.2353 7.99331 18.8683 7.36025 19.1513 6.5625H23.0625V8.4375C23.0625 9.98831 24.3242 11.25 25.875 11.25ZM24.9375 2.8125C24.9375 2.29556 25.3581 1.875 25.875 1.875H27.75C28.2669 1.875 28.6875 2.29556 28.6875 2.8125V8.4375C28.6875 8.95444 28.2669 9.375 27.75 9.375H25.875C25.3581 9.375 24.9375 8.95444 24.9375 8.4375V2.8125ZM8.0625 8.4375C8.0625 8.95444 7.64194 9.375 7.125 9.375H5.25C4.73306 9.375 4.3125 8.95444 4.3125 8.4375V2.8125C4.3125 2.29556 4.73306 1.875 5.25 1.875H7.125C7.64194 1.875 8.0625 2.29556 8.0625 2.8125V8.4375ZM8.0625 29.1875C8.0625 29.7044 7.64194 30.125 7.125 30.125H5.25C4.73306 30.125 4.3125 29.7044 4.3125 29.1875V23.5625C4.3125 23.0456 4.73306 22.625 5.25 22.625H7.125C7.64194 22.625 8.0625 23.0456 8.0625 23.5625V29.1875ZM24.9375 23.5625C24.9375 23.0456 25.3581 22.625 25.875 22.625H27.75C28.2669 22.625 28.6875 23.0456 28.6875 23.5625V29.1875C28.6875 29.7044 28.2669 30.125 27.75 30.125H25.875C25.3581 30.125 24.9375 29.7044 24.9375 29.1875V23.5625ZM18.375 17.9375V19.8125C18.375 20.3294 17.9544 20.75 17.4375 20.75H15.5625C15.0456 20.75 14.625 20.3294 14.625 19.8125V17.9375C14.625 17.4206 15.0456 17 15.5625 17H17.4375C17.9544 17 18.375 17.4206 18.375 17.9375ZM16.5 6.5625C15.9831 6.5625 15.5625 6.14194 15.5625 5.625C15.5625 5.10806 15.9831 4.6875 16.5 4.6875C17.0169 4.6875 17.4375 5.10806 17.4375 5.625C17.4375 6.14194 17.0169 6.5625 16.5 6.5625Z" fill="#FF5100"/>
</svg>
