<svg width="33" height="32" viewBox="0 0 33 32" fill="none" xmlns="http://www.w3.org/2000/svg">
<g clip-path="url(#clip0_644_1807)">
<path d="M15.5625 28.1875C16.0803 28.1875 16.5 27.7678 16.5 27.25C16.5 26.7322 16.0803 26.3125 15.5625 26.3125C15.0447 26.3125 14.625 26.7322 14.625 27.25C14.625 27.7678 15.0447 28.1875 15.5625 28.1875Z" fill="#FF5100"/>
<path d="M5.25 17.875C5.76777 17.875 6.1875 17.4553 6.1875 16.9375C6.1875 16.4197 5.76777 16 5.25 16C4.73223 16 4.3125 16.4197 4.3125 16.9375C4.3125 17.4553 4.73223 17.875 5.25 17.875Z" fill="#FF5100"/>
<path d="M8.27148 25.167C8.78925 25.167 9.20898 24.7473 9.20898 24.2295C9.20898 23.7117 8.78925 23.292 8.27148 23.292C7.75372 23.292 7.33398 23.7117 7.33398 24.2295C7.33398 24.7473 7.75372 25.167 8.27148 25.167Z" fill="#FF5100"/>
<path d="M8.27148 10.5205C8.78925 10.5205 9.20898 10.1008 9.20898 9.58301C9.20898 9.06524 8.78925 8.64551 8.27148 8.64551C7.75372 8.64551 7.33398 9.06524 7.33398 9.58301C7.33398 10.1008 7.75372 10.5205 8.27148 10.5205Z" fill="#FF5100"/>
<path d="M22.8535 25.167C23.3713 25.167 23.791 24.7473 23.791 24.2295C23.791 23.7117 23.3713 23.292 22.8535 23.292C22.3357 23.292 21.916 23.7117 21.916 24.2295C21.916 24.7473 22.3357 25.167 22.8535 25.167Z" fill="#FF5100"/>
<path d="M16.5 0C15.9823 0 15.5625 0.41975 15.5625 0.9375V1.875C7.27075 1.875 0.5 8.64625 0.5 16.9375C0.5 25.2292 7.27131 32 15.5625 32C23.8336 32 30.5625 25.243 30.5625 16.9375H31.5625C32.0802 16.9375 32.5 16.5177 32.5 16C32.5 7.20275 25.296 0 16.5 0ZM15.5625 30.125C8.29087 30.125 2.375 24.2091 2.375 16.9375C2.375 9.66587 8.29087 3.75 15.5625 3.75V6.5625C15.5625 7.08025 15.9823 7.5 16.5 7.5C21.1524 7.5 24.9375 11.3131 24.9375 16C24.9375 16.5177 25.3573 16.9312 25.875 16.9312H28.6875C28.6875 24.2029 22.7996 30.125 15.5625 30.125ZM26.7707 15.0625C26.3286 10.1222 22.383 6.1175 17.4375 5.66744V1.90575C24.4804 2.36975 30.1302 8.01962 30.5942 15.0625H26.7707Z" fill="#FF5100"/>
<path d="M15.5625 9.375C11.427 9.375 8.0625 12.7675 8.0625 16.9375C8.0625 21.073 11.427 24.4375 15.5625 24.4375C19.698 24.4375 23.0625 21.073 23.0625 16.9375C23.0625 12.7675 19.698 9.375 15.5625 9.375ZM15.5625 22.5625C12.4609 22.5625 9.9375 20.0391 9.9375 16.9375C9.9375 13.8014 12.4609 11.25 15.5625 11.25C18.6641 11.25 21.1875 13.8014 21.1875 16.9375C21.1875 20.0391 18.6641 22.5625 15.5625 22.5625Z" fill="#FF5100"/>
<path d="M15.5625 13.1875C13.4948 13.1875 11.8125 14.8698 11.8125 16.9375C11.8125 19.0052 13.4948 20.6875 15.5625 20.6875C17.6302 20.6875 19.3125 19.0052 19.3125 16.9375C19.3125 14.8698 17.6302 13.1875 15.5625 13.1875ZM15.5625 18.8125C14.5286 18.8125 13.6875 17.9714 13.6875 16.9375C13.6875 15.9036 14.5286 15.0625 15.5625 15.0625C16.5964 15.0625 17.4375 15.9036 17.4375 16.9375C17.4375 17.9714 16.5964 18.8125 15.5625 18.8125Z" fill="#FF5100"/>
</g>
<defs>
<clipPath id="clip0_644_1807">
<rect width="32" height="32" fill="white" transform="translate(0.5)"/>
</clipPath>
</defs>
</svg>
