<svg width="30" height="30" viewBox="0 0 30 30" fill="none" xmlns="http://www.w3.org/2000/svg">
<g clip-path="url(#clip0_91_6590)">
<path d="M18.2058 13.7504C18.5631 13.7504 18.8527 13.4608 18.8527 13.1035C18.8527 12.7463 18.5631 12.4566 18.2058 12.4566C17.8486 12.4566 17.5589 12.7463 17.5589 13.1035C17.5589 13.4608 17.8486 13.7504 18.2058 13.7504Z" fill="#FF5100" stroke="#FF5100" stroke-width="0.2"/>
<path d="M24.6063 4.18164C24.6046 4.18161 24.6024 4.18162 24.6001 4.1817C24.6 4.18171 24.5999 4.18171 24.5997 4.18172C24.5996 4.18172 24.5996 4.18172 24.5995 4.18173L24.5948 4.18193L24.5924 4.18203C24.4865 4.1828 24.3821 4.18796 24.2789 4.19593C23.8369 4.21746 23.3205 4.24969 22.7809 4.28344C20.7988 4.40725 18.3511 4.55961 16.9972 4.37153C16.2043 4.26135 15.0723 4.01336 13.9854 3.6972C12.9015 3.38192 11.8738 3.00206 11.2719 2.62879C10.1704 1.55964 8.66872 0.9 7.01562 0.9C3.64338 0.9 0.9 3.64338 0.9 7.01562C0.9 8.66504 1.55672 10.1638 2.62165 11.2647C2.98754 11.9151 3.30893 13.1529 3.4883 14.3275C3.30625 14.2732 3.11353 14.2437 2.91406 14.2437C1.80342 14.2437 0.9 15.1472 0.9 16.2578C0.9 17.3685 1.80342 18.2719 2.91406 18.2719C3.05446 18.2719 3.19147 18.2572 3.32378 18.2296C3.03401 19.4816 2.58516 20.8249 2.14779 21.5295C1.37608 22.3338 0.9 23.4245 0.9 24.625C0.9 27.0926 2.9074 29.1 5.375 29.1C7.71651 29.1 9.64213 27.2923 9.83318 24.9994C9.92772 24.1745 10.2038 22.0492 10.7453 19.9756L10.7453 19.9756C11.001 18.9953 11.2836 18.1519 11.5846 17.4665C11.6408 17.5416 11.7029 17.6137 11.7711 17.682C12.1638 18.0747 12.6798 18.271 13.1953 18.271C13.7108 18.271 14.2268 18.0747 14.6195 17.682L14.5488 17.6113L14.6195 17.682C15.4048 16.8966 15.4048 15.619 14.6195 14.8336L14.5488 14.9044L14.6195 14.8336C14.5809 14.7951 14.5412 14.7587 14.5004 14.7244C14.9407 14.5518 15.4331 14.3914 15.9687 14.2478L15.9691 14.2477C16.3131 14.154 16.5175 13.7985 16.4243 13.4541L16.4243 13.4541C16.348 13.1727 16.0914 12.9761 15.8001 12.9761C15.743 12.9761 15.686 12.9839 15.6304 12.9993C14.7869 13.23 14.0833 13.475 13.4805 13.749C12.7861 14.0639 12.2325 14.4126 11.7908 14.8151L11.7903 14.8156C11.5171 15.0685 11.2691 15.3729 11.0308 15.7451L11.0307 15.7451C10.8191 16.0761 10.6189 16.4553 10.4188 16.904L10.4187 16.9041C9.93642 17.9917 9.51136 19.4029 9.15395 21.0961L9.15394 21.0962C9.09069 21.3969 9.03275 21.692 8.97977 21.9778C8.16468 20.8706 6.85289 20.15 5.375 20.15C4.92095 20.15 4.48263 20.2185 4.06938 20.345C4.54067 18.9543 4.89 17.3099 4.92768 16.2815C4.95967 15.4079 4.78763 13.9016 4.4542 12.5684C5.2338 12.9295 6.10165 13.1313 7.01562 13.1313C10.3879 13.1313 13.1313 10.3879 13.1313 7.01562C13.1313 6.16942 12.9581 5.36281 12.6459 4.6291C14.0824 5.11835 15.7534 5.50487 16.8193 5.65293C17.3404 5.72534 17.9874 5.75276 18.6928 5.75276C19.5125 5.75276 20.4149 5.71569 21.2971 5.66785C20.5845 6.4606 20.15 7.50859 20.15 8.65625C20.15 9.9934 20.7402 11.1944 21.6725 12.0148C21.3201 12.0456 20.9534 12.0811 20.5755 12.1225C20.2209 12.1613 19.9642 12.4813 20.0029 12.8358C20.0385 13.1645 20.3149 13.4123 20.6454 13.4123C20.6517 13.4123 20.6634 13.4113 20.6712 13.4106L20.6733 13.4104L20.7218 13.4061L20.892 13.3902L20.9309 13.3866C21.0684 13.3737 21.2461 13.3571 21.4385 13.3394C21.8612 13.3005 22.3533 13.2565 22.6448 13.2358C23.4915 13.1756 24.1899 13.1457 24.6296 13.1312C27.0951 13.1287 29.1 11.1224 29.1 8.65625C29.1 6.18865 27.0926 4.18125 24.625 4.18125C24.6232 4.18125 24.6215 4.18127 24.6199 4.18131C24.6169 4.18137 24.6142 4.18147 24.6125 4.18154L24.6079 4.18167C24.6078 4.18167 24.6076 4.18166 24.6074 4.18166V4.18158L24.6063 4.18164ZM13.7046 15.7485L13.7046 15.7485C13.9854 16.0293 13.9854 16.4864 13.7046 16.7672L13.7046 16.7672C13.4239 17.048 12.9667 17.048 12.686 16.7672L12.6859 16.7672C12.4074 16.4887 12.4054 16.0369 12.6795 15.7555C12.7038 15.7332 12.7292 15.7107 12.7555 15.6881C12.8847 15.5883 13.0399 15.5379 13.1953 15.5379C13.38 15.5379 13.5643 15.6081 13.7046 15.7485ZM24.61 4.18175C24.6106 4.18177 24.6107 4.18179 24.6103 4.18177L24.6102 4.18176C24.6102 4.18176 24.6101 4.18176 24.61 4.18175ZM2.91406 16.9781C2.51697 16.9781 2.19375 16.6549 2.19375 16.2578C2.19375 15.8607 2.51697 15.5375 2.91406 15.5375C3.30843 15.5375 3.62975 15.8564 3.63403 16.25C3.63285 16.2788 3.63128 16.3087 3.6295 16.3393C3.58892 16.6982 3.28346 16.9781 2.91406 16.9781ZM8.55625 24.625C8.55625 26.3791 7.12905 27.8062 5.375 27.8062C3.62095 27.8062 2.19375 26.3791 2.19375 24.625C2.19375 22.8709 3.62095 21.4438 5.375 21.4438C7.12905 21.4438 8.55625 22.8709 8.55625 24.625ZM7.01562 11.8375C4.35693 11.8375 2.19375 9.67432 2.19375 7.01562C2.19375 4.35693 4.35693 2.19375 7.01562 2.19375C9.67432 2.19375 11.8375 4.35693 11.8375 7.01562C11.8375 9.67432 9.67432 11.8375 7.01562 11.8375ZM24.625 11.8375C22.8709 11.8375 21.4438 10.4103 21.4438 8.65625C21.4438 6.9022 22.8709 5.475 24.625 5.475C26.3791 5.475 27.8062 6.9022 27.8062 8.65625C27.8062 10.4103 26.3791 11.8375 24.625 11.8375Z" fill="#FF5100" stroke="#FF5100" stroke-width="0.2"/>
<path d="M7.01562 3.0875C4.84957 3.0875 3.0875 4.84957 3.0875 7.01562C3.0875 9.18168 4.84957 10.9437 7.01562 10.9437C9.18168 10.9437 10.9437 9.18168 10.9437 7.01562C10.9437 4.84957 9.18168 3.0875 7.01562 3.0875ZM7.01562 9.65C5.56312 9.65 4.38125 8.46813 4.38125 7.01562C4.38125 5.56312 5.56312 4.38125 7.01562 4.38125C8.46813 4.38125 9.65 5.56312 9.65 7.01562C9.65 8.46813 8.46813 9.65 7.01562 9.65Z" fill="#FF5100" stroke="#FF5100" stroke-width="0.2"/>
<path d="M5.375 26.9125C6.63642 26.9125 7.6625 25.8864 7.6625 24.625C7.6625 23.3636 6.63642 22.3375 5.375 22.3375C4.11358 22.3375 3.0875 23.3636 3.0875 24.625C3.0875 25.8864 4.11358 26.9125 5.375 26.9125ZM5.375 23.6313C5.92287 23.6313 6.36875 24.0771 6.36875 24.625C6.36875 25.1729 5.92287 25.6188 5.375 25.6188C4.82713 25.6188 4.38125 25.1729 4.38125 24.625C4.38125 24.0771 4.82713 23.6313 5.375 23.6313Z" fill="#FF5100" stroke="#FF5100" stroke-width="0.2"/>
<path d="M24.625 6.36875C23.3636 6.36875 22.3375 7.39483 22.3375 8.65625C22.3375 9.91767 23.3636 10.9437 24.625 10.9437C25.8864 10.9437 26.9125 9.91767 26.9125 8.65625C26.9125 7.39483 25.8864 6.36875 24.625 6.36875ZM24.625 9.65C24.0771 9.65 23.6313 9.20412 23.6313 8.65625C23.6313 8.10838 24.0771 7.6625 24.625 7.6625C25.1729 7.6625 25.6188 8.10838 25.6188 8.65625C25.6188 9.20412 25.1729 9.65 24.625 9.65Z" fill="#FF5100" stroke="#FF5100" stroke-width="0.2"/>
</g>
<defs>
<clipPath id="clip0_91_6590">
<rect width="30" height="30" fill="white"/>
</clipPath>
</defs>
</svg>
