<svg width="33" height="32" viewBox="0 0 33 32" fill="none" xmlns="http://www.w3.org/2000/svg">
<path d="M4.3765 21.6881C4.70396 23.4601 5.18714 25.2132 5.81262 26.899C6.02056 27.4665 6.55085 27.6661 7.06674 27.6585L7.06674 27.7343L7.06673 28.2499L7.06673 28.7655L7.06673 28.9355V28.9831V28.9956V28.9988V28.9996V28.9998V28.9999C7.06673 29.6343 7.58235 30.1499 8.21668 30.1499H9.71661C10.3509 30.1499 10.8666 29.6343 10.8666 28.9999V27.6499H11.8852C12.5195 27.6499 13.0351 27.1343 13.0351 26.4999V24.8138L15.1226 23.4658C15.1226 23.4658 15.1227 23.4658 15.1227 23.4658C15.308 23.3461 15.42 23.1405 15.42 22.9199V20.28C15.42 19.921 15.129 19.63 14.7701 19.63H13.4995C12.8809 17.2452 12.8809 14.7547 13.4995 12.3699H14.7701C15.129 12.3699 15.42 12.0789 15.42 11.7199V9.08005C15.42 8.85943 15.308 8.65377 15.1226 8.53411L13.0351 7.18611V5.49999C13.0351 4.86595 12.5208 4.34999 11.8874 4.34999H10.8666V2.99999C10.8666 2.36565 10.3509 1.85 9.71661 1.85H8.21668C7.58235 1.85 7.06673 2.36565 7.06673 2.99999V4.34999H6.89497C6.4151 4.34999 5.98134 4.65163 5.81448 5.10105L13.0053 11.0699C12.717 11.0699 12.4635 11.2598 12.3819 11.5358L12.3819 11.5359C12.013 12.7859 11.8113 14.0662 11.7588 15.35H5.17276C5.19212 14.3936 5.24771 13.45 5.35601 12.5419L5.35602 12.5419L5.35624 12.5399C5.37773 12.3365 5.31769 12.1643 5.20507 12.0388C5.09483 11.916 4.94176 11.8461 4.78726 11.8278C4.63276 11.8094 4.46754 11.8416 4.33139 11.9349C4.19235 12.0302 4.09295 12.1832 4.06533 12.3857L4.0653 12.3857L4.06499 12.3883C3.70363 15.4359 3.81252 18.6532 4.3765 21.6881ZM4.3765 21.6881C4.3765 21.6881 4.3765 21.6881 4.37649 21.6881L4.524 21.6608L4.37652 21.6882C4.37651 21.6882 4.37651 21.6882 4.3765 21.6881ZM5.01718 16.5026C5.01717 16.5017 5.01716 16.5008 5.01715 16.5L5.01719 16.5L5.01718 16.5026ZM5.16973 16.65H5.17391H5.18058H5.18737H5.19429H5.20134H5.20851H5.21581H5.22324H5.23079H5.23847H5.24626H5.25419H5.26223H5.2704H5.27869H5.2871H5.29562H5.30427H5.31304H5.32193H5.33093H5.34005H5.34929H5.35864H5.3681H5.37769H5.38738H5.39719H5.40711H5.41715H5.42729H5.43755H5.44791H5.45839H5.46897H5.47967H5.49047H5.50138H5.51239H5.52351H5.53474H5.54607H5.5575H5.56904H5.58068H5.59242H5.60427H5.61621H5.62826H5.6404H5.65265H5.66499H5.67743H5.68997H5.7026H5.71534H5.72816H5.74108H5.7541H5.76721H5.78041H5.7937H5.80709H5.82057H5.83414H5.84779H5.86154H5.87538H5.8893H5.90331H5.91741H5.93159H5.94586H5.96022H5.97465H5.98918H6.00378H6.01847H6.03324H6.04809H6.06302H6.07804H6.09313H6.1083H6.12355H6.13887H6.15428H6.16976H6.18531H6.20094H6.21665H6.23242H6.24828H6.2642H6.2802H6.29627H6.3124H6.32861H6.34489H6.36124H6.37766H6.39414H6.41069H6.42731H6.44399H6.46074H6.47755H6.49443H6.51137H6.52837H6.54544H6.56256H6.57975H6.597H6.61431H6.63168H6.6491H6.66658H6.68412H6.70172H6.71938H6.73708H6.75485H6.77267H6.79054H6.80846H6.82644H6.84447H6.86255H6.88068H6.89886H6.91708H6.93536H6.95369H6.97206H6.99048H7.00895H7.02746H7.04602H7.06462H7.08326H7.10195H7.12068H7.13945H7.15826H7.17712H7.19601H7.21495H7.23392H7.25293H7.27198H7.29106H7.31018H7.32934H7.34853H7.36776H7.38702H7.40631H7.42564H7.445H7.46439H7.48381H7.50326H7.52274H7.54225H7.56178H7.58135H7.60094H7.62056H7.6402H7.65987H7.67957H7.69929H7.71903H7.73879H7.75858H7.77839H7.79822H7.81807H7.83793H7.85782H7.87773H7.89765H7.9176H7.93756H7.95753H7.97752H7.99752H8.01754H8.03758H8.05762H8.07768H8.09775H8.11783H8.13792H8.15802H8.17813H8.19825H8.21837H8.23851H8.25865H8.2788H8.29895H8.31911H8.33927H8.35943H8.3796H8.39977H8.41995H8.44012H8.46029H8.48047H8.50064H8.52082H8.54099H8.56115H8.58132H8.60148H8.62164H8.64179H8.66194H8.68208H8.70221H8.72234H8.74246H8.76257H8.78267H8.80276H8.82284H8.84291H8.86297H8.88301H8.90305H8.92306H8.94307H8.96306H8.98303H9.00299H9.02293H9.04286H9.06277H9.08265H9.10252H9.12237H9.1422H9.16201H9.1818H9.20156H9.2213H9.24102H9.26072H9.28039H9.30003H9.31965H9.33924H9.35881H9.37834H9.39785H9.41733H9.43678H9.4562H9.47559H9.49495H9.51428H9.53357H9.55283H9.57206H9.59125H9.61041H9.62953H9.64861H9.66766H9.68667H9.70564H9.72458H9.74347H9.76232H9.78114H9.79991H9.81864H9.83733H9.85597H9.87457H9.89313H9.91164H9.93011H9.94853H9.9669H9.98523H10.0035H10.0217H10.0399H10.058H10.0761H10.0942H10.1121H10.1301H10.1479H10.1657H10.1835H10.2012H10.2189H10.2365H10.254H10.2715H10.2889H10.3063H10.3236H10.3408H10.358H10.3752H10.3922H10.4092H10.4262H10.443H10.4599H10.4766H10.4933H10.5099H10.5265H10.5429H10.5593H10.5757H10.592H10.6082H10.6243H10.6404H10.6564H10.6723H10.6882H10.7039H10.7196H10.7353H10.7508H10.7663H10.7817H10.797H10.8123H10.8275H10.8426H10.8576H10.8725H10.8873H10.9021H10.9168H10.9314H10.9459H10.9604H10.9747H10.989H11.0032H11.0173H11.0313H11.0452H11.059H11.0728H11.0865H11.1H11.1135H11.1269H11.1402H11.1534H11.1665H11.1795H11.1924H11.2053H11.218H11.2306H11.2432H11.2556H11.2679H11.2802H11.2923H11.3044H11.3163H11.3282H11.3399H11.3516H11.3631H11.3745H11.3859H11.3971H11.4082H11.4192H11.4301H11.4409H11.4516H11.4622H11.4727H11.483H11.4933H11.5034H11.5135H11.5234H11.5332H11.5429H11.5525H11.562H11.5713H11.5805H11.5897H11.5987H11.6075H11.6163H11.625H11.6335H11.6419H11.6502H11.6584H11.6664H11.6743H11.6821H11.6898H11.6974H11.7048H11.7121H11.7193H11.7263H11.7332H11.74H11.7467H11.7532H11.7588C11.8114 17.9338 12.013 19.214 12.3819 20.464L12.3819 20.4641C12.4635 20.7402 12.717 20.93 13.0053 20.93H14.1201V22.5659L12.0326 23.9139C12.0326 23.914 12.0326 23.914 12.0326 23.914C11.8472 24.0336 11.7352 24.2393 11.7352 24.4599V26.3499L6.99528 26.349C5.85529 23.2499 5.23472 19.9554 5.16973 16.65ZM8.36669 4.34999V3.14999H9.56661V4.34999H8.36669ZM9.5669 27.6499L9.56729 28.8499H8.36669V27.6499H9.5669Z" fill="#FF5100" stroke="#FF5100" stroke-width="0.3"/>
<path d="M28.2229 20.1804L28.2243 20.1805C28.5754 20.2191 28.9022 19.9701 28.9452 19.6118L28.9453 19.6116C29.3066 16.5641 29.1977 13.3467 28.6338 10.3118C28.3063 8.5398 27.8231 6.78669 27.1977 5.10095C26.9897 4.53337 26.4594 4.33384 25.9435 4.34141L25.9435 4.26564L25.9435 3.75L25.9435 3.23437V3.06445V3.01684V3.0043V3.00108V3.00027V3.00006V3.00001L25.7935 2.99999L25.9435 3C25.9435 2.36565 25.4279 1.85 24.7936 1.85H23.2937C22.6593 1.85 22.1437 2.36565 22.1437 2.99999V4.34999H21.1251C20.4907 4.34999 19.9751 4.86564 19.9751 5.49998V7.18611L17.8876 8.53411C17.7023 8.65377 17.5902 8.85943 17.5902 9.08005V11.7199C17.5902 12.0789 17.8812 12.3699 18.2402 12.3699H19.5108C20.1294 14.7547 20.1294 17.2452 19.5108 19.63H18.2402C17.8813 19.63 17.5902 19.921 17.5902 20.28V22.9199C17.5902 23.1405 17.7023 23.3461 17.8876 23.4658C17.8876 23.4658 17.8876 23.4658 17.8876 23.4658L19.9751 24.8138V26.4999C19.9751 27.134 20.4894 27.6499 21.1229 27.6499H22.1437V28.9999C22.1437 29.6343 22.6593 30.1499 23.2937 30.1499H24.7936C25.4279 30.1499 25.9435 29.6343 25.9435 28.9999V27.658C26.4535 27.6639 26.9915 27.4703 27.1961 26.898C27.7707 25.352 28.2259 23.7467 28.5494 22.1272L28.5494 22.1272L28.55 22.1242C28.5859 21.9224 28.5392 21.7459 28.4367 21.6119C28.3363 21.4806 28.1894 21.399 28.0368 21.369C27.8843 21.3389 27.7174 21.3586 27.5748 21.4414C27.4293 21.526 27.3187 21.6708 27.2753 21.8701L27.2753 21.8701L27.2748 21.8727C26.9714 23.3911 26.5471 24.8964 26.011 26.3499C25.2957 26.3497 24.372 26.3498 23.4615 26.3499C22.6754 26.35 21.8991 26.3501 21.2751 26.35V24.4599C21.2751 24.2393 21.163 24.0336 20.9777 23.914C20.9777 23.914 20.9777 23.914 20.9777 23.914L18.8902 22.566V20.93H20.005C20.2932 20.93 20.5468 20.7402 20.6283 20.4641L20.6283 20.464C20.9973 19.214 21.1989 17.9338 21.2514 16.65H27.8375C27.8181 17.6063 27.7626 18.5499 27.6543 19.458L27.6542 19.4581C27.612 19.8145 27.8665 20.1379 28.2229 20.1804ZM20.6284 11.5359L20.6283 11.5358C20.5468 11.2598 20.2932 11.0699 20.005 11.0699H18.8902V9.43397L20.9777 8.08597C20.9777 8.08596 20.9777 8.08596 20.9777 8.08596C21.1631 7.96629 21.2751 7.76064 21.2751 7.54002V5.65002L26.015 5.65094C27.155 8.75004 27.7756 12.0446 27.8406 15.35H21.2515C21.1989 14.0662 20.9973 12.7859 20.6284 11.5359ZM24.6436 27.6499V28.8499H23.4437V27.6499H24.6436ZM23.4434 4.34999L23.443 3.15H24.6436V4.34999H23.4434Z" fill="#FF5100" stroke="#FF5100" stroke-width="0.3"/>
</svg>
