<svg width="33" height="32" viewBox="0 0 33 32" fill="none" xmlns="http://www.w3.org/2000/svg">
<g clip-path="url(#clip0_644_1848)">
<mask id="mask0_644_1848" style="mask-type:luminance" maskUnits="userSpaceOnUse" x="0" y="0" width="33" height="32">
<path d="M0.5 3.8147e-06H32.5V32H0.5V3.8147e-06Z" fill="white"/>
</mask>
<g mask="url(#mask0_644_1848)">
<path d="M1.125 24.75C1.125 25.4404 1.68463 26 2.375 26C3.06537 26 3.625 25.4404 3.625 24.75V24.125H10.5625V24.75C10.5625 25.4404 11.1221 26 11.8125 26C12.5029 26 13.0625 25.4404 13.0625 24.75V24.125H19.9375V24.75C19.9375 25.4404 20.4971 26 21.1875 26C21.8779 26 22.4375 25.4404 22.4375 24.75V24.125H29.375V24.75C29.375 25.4404 29.9346 26 30.625 26C31.3154 26 31.875 25.4404 31.875 24.75V7.25C31.875 6.55963 31.3154 6 30.625 6C29.9346 6 29.375 6.55963 29.375 7.25V7.875H22.4375V7.25C22.4375 6.55963 21.8779 6 21.1875 6C20.4971 6 19.9375 6.55963 19.9375 7.25V7.875H13.0625V7.25C13.0625 6.55963 12.5029 6 11.8125 6C11.1221 6 10.5625 6.55963 10.5625 7.25V7.875H3.625V7.25C3.625 6.55963 3.06537 6 2.375 6C1.68463 6 1.125 6.55963 1.125 7.25V24.75Z" stroke="#FF5100" stroke-width="1.5" stroke-miterlimit="10" stroke-linecap="round" stroke-linejoin="round"/>
<path d="M21.8125 10.375C21.8125 10.7201 21.5326 11 21.1875 11C20.8424 11 20.5625 10.7201 20.5625 10.375C20.5625 10.0298 20.8424 9.75 21.1875 9.75C21.5326 9.75 21.8125 10.0298 21.8125 10.375Z" fill="#FF5100"/>
<path d="M12.4375 10.375C12.4375 10.7201 12.1576 11 11.8125 11C11.4674 11 11.1875 10.7201 11.1875 10.375C11.1875 10.0298 11.4674 9.75 11.8125 9.75C12.1576 9.75 12.4375 10.0298 12.4375 10.375Z" fill="#FF5100"/>
<path d="M21.8125 21.625C21.8125 21.9701 21.5326 22.25 21.1875 22.25C20.8424 22.25 20.5625 21.9701 20.5625 21.625C20.5625 21.2798 20.8424 21 21.1875 21C21.5326 21 21.8125 21.2798 21.8125 21.625Z" fill="#FF5100"/>
<path d="M29.9375 10.375C29.9375 10.7201 29.6576 11 29.3125 11C28.9674 11 28.6875 10.7201 28.6875 10.375C28.6875 10.0298 28.9674 9.75 29.3125 9.75C29.6576 9.75 29.9375 10.0298 29.9375 10.375Z" fill="#FF5100"/>
<path d="M29.9375 21.625C29.9375 21.9701 29.6576 22.25 29.3125 22.25C28.9674 22.25 28.6875 21.9701 28.6875 21.625C28.6875 21.2798 28.9674 21 29.3125 21C29.6576 21 29.9375 21.2798 29.9375 21.625Z" fill="#FF5100"/>
<path d="M4.3125 10.375C4.3125 10.7201 4.03262 11 3.6875 11C3.34237 11 3.0625 10.7201 3.0625 10.375C3.0625 10.0298 3.34237 9.75 3.6875 9.75C4.03262 9.75 4.3125 10.0298 4.3125 10.375Z" fill="#FF5100"/>
<path d="M4.3125 21.625C4.3125 21.9701 4.03262 22.25 3.6875 22.25C3.34237 22.25 3.0625 21.9701 3.0625 21.625C3.0625 21.2798 3.34237 21 3.6875 21C4.03262 21 4.3125 21.2798 4.3125 21.625Z" fill="#FF5100"/>
<path d="M12.4375 21.625C12.4375 21.9701 12.1576 22.25 11.8125 22.25C11.4674 22.25 11.1875 21.9701 11.1875 21.625C11.1875 21.2798 11.4674 21 11.8125 21C12.1576 21 12.4375 21.2798 12.4375 21.625Z" fill="#FF5100"/>
<path d="M19.9375 16C19.9375 17.8984 18.3985 19.4375 16.5 19.4375C14.6015 19.4375 13.0625 17.8984 13.0625 16C13.0625 14.1015 14.6015 12.5625 16.5 12.5625C18.3985 12.5625 19.9375 14.1015 19.9375 16Z" stroke="#FF5100" stroke-width="1.5" stroke-miterlimit="10" stroke-linecap="round" stroke-linejoin="round"/>
<path d="M10.5625 16C10.5625 17.8984 9.0235 19.4375 7.125 19.4375C5.2265 19.4375 3.6875 17.8984 3.6875 16C3.6875 14.1015 5.2265 12.5625 7.125 12.5625C9.0235 12.5625 10.5625 14.1015 10.5625 16Z" stroke="#FF5100" stroke-width="1.5" stroke-miterlimit="10" stroke-linecap="round" stroke-linejoin="round"/>
<path d="M29.3125 16C29.3125 17.8984 27.7735 19.4375 25.875 19.4375C23.9765 19.4375 22.4375 17.8984 22.4375 16C22.4375 14.1015 23.9765 12.5625 25.875 12.5625C27.7735 12.5625 29.3125 14.1015 29.3125 16Z" stroke="#FF5100" stroke-width="1.5" stroke-miterlimit="10" stroke-linecap="round" stroke-linejoin="round"/>
</g>
</g>
<defs>
<clipPath id="clip0_644_1848">
<rect width="32" height="32" fill="white" transform="translate(0.5)"/>
</clipPath>
</defs>
</svg>
