<svg width="33" height="30" viewBox="0 0 33 30" fill="none" xmlns="http://www.w3.org/2000/svg">
<mask id="path-1-outside-1_644_1883" maskUnits="userSpaceOnUse" x="-0.5" y="-0.6875" width="34" height="31" fill="black">
<rect fill="white" x="-0.5" y="-0.6875" width="34" height="31"/>
<path d="M31.875 0.3125H29.375C29.0298 0.3125 28.75 0.592313 28.75 0.9375H14.875C13.8994 0.9375 12.925 1.03562 11.9781 1.22937C11.055 1.41875 10.1469 1.70063 9.27938 2.0675C8.42812 2.4275 7.60625 2.87375 6.83813 3.3925C6.742 3.45744 6.64663 3.52369 6.55194 3.59106L6.22281 3.26194C5.76906 2.80819 5.16556 2.55831 4.52362 2.55831C3.88169 2.55831 3.27819 2.80813 2.82437 3.26188C1.88744 4.19881 1.88744 5.72331 2.82437 6.66025L3.1535 6.98938C3.08613 7.08406 3.01994 7.17944 2.95494 7.27556C2.43619 8.04369 1.98994 8.86556 1.62994 9.71681C1.26306 10.5843 0.981188 11.4924 0.791813 12.4156C0.598125 13.3625 0.5 14.3369 0.5 15.3125C0.500562 16.8862 0.753 18.4281 1.25 19.9031V28.375C1.25 28.7202 1.52981 29 1.875 29H10.4701C11.0719 29.1934 11.6874 29.3472 12.3144 29.46C12.3512 29.4669 12.3888 29.47 12.4256 29.47C12.7281 29.47 12.9862 29.2537 13.04 28.9556C13.0694 28.7913 13.0331 28.625 12.9381 28.4881C12.8425 28.3512 12.7 28.2594 12.5356 28.2294C6.28438 27.105 1.74875 21.6731 1.75 15.3125C1.75 11.8075 3.11563 8.51188 5.59438 6.03188C8.07375 3.55313 11.37 2.18813 14.875 2.1875H28.75V3.4375H26.875C26.5298 3.4375 26.25 3.71731 26.25 4.0625V6.5625C26.25 6.90769 26.5298 7.1875 26.875 7.1875H28.75V8.4375H14.875C11.0841 8.4375 8 11.5216 8 15.3125C8 19.1034 11.0841 22.1875 14.875 22.1875C18.6659 22.1875 21.75 19.1034 21.75 15.3125C21.75 12.9898 20.592 10.9327 18.8232 9.6875H26.7373C27.5754 11.4484 28 13.3385 28 15.3125C28.0012 21.4481 23.8337 26.7044 17.8656 28.095C17.53 28.1737 17.3206 28.51 17.3988 28.8456C17.4312 28.9844 17.51 29.1081 17.6219 29.1956C17.7694 29.3113 17.9663 29.3556 18.1494 29.3125C19.7181 28.9475 21.205 28.3231 22.5681 27.4575C22.7821 27.3217 22.9917 27.18 23.1977 27.0336L23.5273 27.3631C23.9958 27.8316 24.6111 28.0658 25.2264 28.0658C25.8418 28.0658 26.4571 27.8316 26.9256 27.3631C27.8626 26.4262 27.8626 24.9017 26.9256 23.9647L26.5964 23.6355C27.3577 22.5659 27.9664 21.4021 28.41 20.1656C28.9669 18.6118 29.2494 16.9787 29.25 15.3124C29.25 14.3312 29.1506 13.3506 28.9544 12.3974C28.7631 11.4699 28.4781 10.5581 28.1075 9.68744H28.75C28.75 10.0326 29.0298 10.3124 29.375 10.3124H31.875C32.2202 10.3124 32.5 10.0326 32.5 9.68744V0.9375C32.5 0.592313 32.2202 0.3125 31.875 0.3125ZM2.5 22.6311C2.90587 23.316 3.36906 23.9681 3.88812 24.5825C4.95187 25.8425 6.2125 26.9025 7.63375 27.7331C7.64356 27.7389 7.65356 27.7443 7.66337 27.75H2.5V22.6311ZM4.71063 5.14813C4.43881 5.41969 4.17812 5.70337 3.92844 5.99656L3.70831 5.77637C3.25875 5.32681 3.25875 4.59538 3.70831 4.14581C3.92594 3.92812 4.2155 3.80825 4.52356 3.80825C4.83162 3.80825 5.12119 3.92812 5.33881 4.14581L5.55912 4.36613C5.26612 4.61575 4.98244 4.87638 4.71063 5.14813ZM13.4172 9.87956C14.7484 9.52275 16.1242 10.3153 16.481 11.6469C16.6339 12.2176 16.5749 12.7956 16.3535 13.2982C16.0248 13.0562 15.6349 12.8931 15.2117 12.8358C14.7492 11.9061 13.9066 11.1707 12.827 10.8814C12.4052 10.7684 11.9808 10.7327 11.5684 10.7649C12.1176 10.3646 12.7435 10.0608 13.4172 9.87956ZM16.125 15.3125C16.125 16.0017 15.5642 16.5625 14.875 16.5625C14.1858 16.5625 13.625 16.0017 13.625 15.3125C13.625 14.6233 14.1858 14.0625 14.875 14.0625C15.5642 14.0625 16.125 14.6233 16.125 15.3125ZM10.7971 19.183C10.3889 18.7249 10.1653 18.1409 10.1653 17.5222C10.1653 16.8544 10.4254 16.2267 10.8976 15.7544C11.3043 15.3477 11.8267 15.0989 12.3904 15.0376C12.3805 15.1279 12.375 15.2196 12.375 15.3125C12.375 15.6465 12.4413 15.9651 12.5607 16.2566C12.5176 16.3217 12.4756 16.3878 12.4362 16.456C11.9354 17.3234 11.8023 18.334 12.0616 19.3016C12.1749 19.7247 12.3571 20.1112 12.5923 20.453C11.9124 20.1499 11.3032 19.7159 10.7971 19.183ZM12.9016 13.7805C12.8232 13.7756 12.7445 13.7723 12.6653 13.7723C11.6637 13.7723 10.7219 14.1623 10.0137 14.8706C9.70825 15.176 9.46237 15.525 9.28106 15.9034C9.26062 15.7091 9.25 15.5121 9.25 15.3125C9.25 14.8108 9.31644 14.3242 9.44025 13.8609C9.44063 13.8595 9.44125 13.8581 9.44162 13.8566C9.79844 12.5251 11.172 11.7321 12.5035 12.0888C13.0739 12.2417 13.5451 12.5814 13.8696 13.0243C13.4873 13.1929 13.1551 13.4546 12.9016 13.7805ZM16.3348 20.745C16.3334 20.7453 16.3321 20.7455 16.3308 20.7458C14.9995 21.1025 13.6257 20.3096 13.2689 18.978C13.116 18.4074 13.1751 17.8294 13.3966 17.3268C13.725 17.5685 14.1144 17.7316 14.5371 17.7889C14.9997 18.7189 15.8431 19.4541 16.9229 19.7434C17.2468 19.8302 17.5721 19.8716 17.8926 19.8716C17.99 19.8716 18.0866 19.8664 18.1829 19.8589C17.6335 20.2599 17.009 20.5636 16.3348 20.745ZM20.469 14.7216C20.4894 14.9159 20.5 15.1129 20.5 15.3125C20.5 15.8142 20.4336 16.3008 20.3097 16.7641C20.3094 16.7655 20.3088 16.7669 20.3084 16.7684C19.9516 18.0999 18.5779 18.8929 17.2465 18.5362C16.6761 18.3834 16.205 18.0436 15.8804 17.6007C16.2628 17.4321 16.5949 17.1705 16.8484 16.8446C16.9268 16.8495 17.0055 16.8528 17.0847 16.8528C18.0864 16.8528 19.0281 16.4627 19.7364 15.7545C20.0418 15.449 20.2877 15.1 20.469 14.7216ZM18.9529 11.442C19.3611 11.9001 19.5847 12.4841 19.5847 13.1027C19.5847 13.7706 19.3246 14.3983 18.8524 14.8706C18.4457 15.2773 17.9233 15.5261 17.3596 15.5874C17.3695 15.4971 17.375 15.4054 17.375 15.3125C17.375 14.9785 17.3087 14.6598 17.1893 14.3683C17.2324 14.3033 17.2744 14.2372 17.3137 14.169C17.8146 13.3016 17.9476 12.291 17.6884 11.3234C17.5749 10.8999 17.3919 10.5134 17.1562 10.1714C17.8368 10.4745 18.4464 10.9088 18.9529 11.442ZM26.0417 26.4792C25.5922 26.9287 24.8607 26.9287 24.4111 26.4792L24.1918 26.2599C24.7768 25.7617 25.3213 25.2168 25.8219 24.6289L26.0417 24.8486C26.4912 25.2982 26.4912 26.0297 26.0417 26.4792ZM27.5 5.9375V4.6875H28.75V5.9375H27.5ZM31.25 9.0625H30V1.5625H31.25V9.0625Z"/>
</mask>
<path d="M31.875 0.3125H29.375C29.0298 0.3125 28.75 0.592313 28.75 0.9375H14.875C13.8994 0.9375 12.925 1.03562 11.9781 1.22937C11.055 1.41875 10.1469 1.70063 9.27938 2.0675C8.42812 2.4275 7.60625 2.87375 6.83813 3.3925C6.742 3.45744 6.64663 3.52369 6.55194 3.59106L6.22281 3.26194C5.76906 2.80819 5.16556 2.55831 4.52362 2.55831C3.88169 2.55831 3.27819 2.80813 2.82437 3.26188C1.88744 4.19881 1.88744 5.72331 2.82437 6.66025L3.1535 6.98938C3.08613 7.08406 3.01994 7.17944 2.95494 7.27556C2.43619 8.04369 1.98994 8.86556 1.62994 9.71681C1.26306 10.5843 0.981188 11.4924 0.791813 12.4156C0.598125 13.3625 0.5 14.3369 0.5 15.3125C0.500562 16.8862 0.753 18.4281 1.25 19.9031V28.375C1.25 28.7202 1.52981 29 1.875 29H10.4701C11.0719 29.1934 11.6874 29.3472 12.3144 29.46C12.3512 29.4669 12.3888 29.47 12.4256 29.47C12.7281 29.47 12.9862 29.2537 13.04 28.9556C13.0694 28.7913 13.0331 28.625 12.9381 28.4881C12.8425 28.3512 12.7 28.2594 12.5356 28.2294C6.28438 27.105 1.74875 21.6731 1.75 15.3125C1.75 11.8075 3.11563 8.51188 5.59438 6.03188C8.07375 3.55313 11.37 2.18813 14.875 2.1875H28.75V3.4375H26.875C26.5298 3.4375 26.25 3.71731 26.25 4.0625V6.5625C26.25 6.90769 26.5298 7.1875 26.875 7.1875H28.75V8.4375H14.875C11.0841 8.4375 8 11.5216 8 15.3125C8 19.1034 11.0841 22.1875 14.875 22.1875C18.6659 22.1875 21.75 19.1034 21.75 15.3125C21.75 12.9898 20.592 10.9327 18.8232 9.6875H26.7373C27.5754 11.4484 28 13.3385 28 15.3125C28.0012 21.4481 23.8337 26.7044 17.8656 28.095C17.53 28.1737 17.3206 28.51 17.3988 28.8456C17.4312 28.9844 17.51 29.1081 17.6219 29.1956C17.7694 29.3113 17.9663 29.3556 18.1494 29.3125C19.7181 28.9475 21.205 28.3231 22.5681 27.4575C22.7821 27.3217 22.9917 27.18 23.1977 27.0336L23.5273 27.3631C23.9958 27.8316 24.6111 28.0658 25.2264 28.0658C25.8418 28.0658 26.4571 27.8316 26.9256 27.3631C27.8626 26.4262 27.8626 24.9017 26.9256 23.9647L26.5964 23.6355C27.3577 22.5659 27.9664 21.4021 28.41 20.1656C28.9669 18.6118 29.2494 16.9787 29.25 15.3124C29.25 14.3312 29.1506 13.3506 28.9544 12.3974C28.7631 11.4699 28.4781 10.5581 28.1075 9.68744H28.75C28.75 10.0326 29.0298 10.3124 29.375 10.3124H31.875C32.2202 10.3124 32.5 10.0326 32.5 9.68744V0.9375C32.5 0.592313 32.2202 0.3125 31.875 0.3125ZM2.5 22.6311C2.90587 23.316 3.36906 23.9681 3.88812 24.5825C4.95187 25.8425 6.2125 26.9025 7.63375 27.7331C7.64356 27.7389 7.65356 27.7443 7.66337 27.75H2.5V22.6311ZM4.71063 5.14813C4.43881 5.41969 4.17812 5.70337 3.92844 5.99656L3.70831 5.77637C3.25875 5.32681 3.25875 4.59538 3.70831 4.14581C3.92594 3.92812 4.2155 3.80825 4.52356 3.80825C4.83162 3.80825 5.12119 3.92812 5.33881 4.14581L5.55912 4.36613C5.26612 4.61575 4.98244 4.87638 4.71063 5.14813ZM13.4172 9.87956C14.7484 9.52275 16.1242 10.3153 16.481 11.6469C16.6339 12.2176 16.5749 12.7956 16.3535 13.2982C16.0248 13.0562 15.6349 12.8931 15.2117 12.8358C14.7492 11.9061 13.9066 11.1707 12.827 10.8814C12.4052 10.7684 11.9808 10.7327 11.5684 10.7649C12.1176 10.3646 12.7435 10.0608 13.4172 9.87956ZM16.125 15.3125C16.125 16.0017 15.5642 16.5625 14.875 16.5625C14.1858 16.5625 13.625 16.0017 13.625 15.3125C13.625 14.6233 14.1858 14.0625 14.875 14.0625C15.5642 14.0625 16.125 14.6233 16.125 15.3125ZM10.7971 19.183C10.3889 18.7249 10.1653 18.1409 10.1653 17.5222C10.1653 16.8544 10.4254 16.2267 10.8976 15.7544C11.3043 15.3477 11.8267 15.0989 12.3904 15.0376C12.3805 15.1279 12.375 15.2196 12.375 15.3125C12.375 15.6465 12.4413 15.9651 12.5607 16.2566C12.5176 16.3217 12.4756 16.3878 12.4362 16.456C11.9354 17.3234 11.8023 18.334 12.0616 19.3016C12.1749 19.7247 12.3571 20.1112 12.5923 20.453C11.9124 20.1499 11.3032 19.7159 10.7971 19.183ZM12.9016 13.7805C12.8232 13.7756 12.7445 13.7723 12.6653 13.7723C11.6637 13.7723 10.7219 14.1623 10.0137 14.8706C9.70825 15.176 9.46237 15.525 9.28106 15.9034C9.26062 15.7091 9.25 15.5121 9.25 15.3125C9.25 14.8108 9.31644 14.3242 9.44025 13.8609C9.44063 13.8595 9.44125 13.8581 9.44162 13.8566C9.79844 12.5251 11.172 11.7321 12.5035 12.0888C13.0739 12.2417 13.5451 12.5814 13.8696 13.0243C13.4873 13.1929 13.1551 13.4546 12.9016 13.7805ZM16.3348 20.745C16.3334 20.7453 16.3321 20.7455 16.3308 20.7458C14.9995 21.1025 13.6257 20.3096 13.2689 18.978C13.116 18.4074 13.1751 17.8294 13.3966 17.3268C13.725 17.5685 14.1144 17.7316 14.5371 17.7889C14.9997 18.7189 15.8431 19.4541 16.9229 19.7434C17.2468 19.8302 17.5721 19.8716 17.8926 19.8716C17.99 19.8716 18.0866 19.8664 18.1829 19.8589C17.6335 20.2599 17.009 20.5636 16.3348 20.745ZM20.469 14.7216C20.4894 14.9159 20.5 15.1129 20.5 15.3125C20.5 15.8142 20.4336 16.3008 20.3097 16.7641C20.3094 16.7655 20.3088 16.7669 20.3084 16.7684C19.9516 18.0999 18.5779 18.8929 17.2465 18.5362C16.6761 18.3834 16.205 18.0436 15.8804 17.6007C16.2628 17.4321 16.5949 17.1705 16.8484 16.8446C16.9268 16.8495 17.0055 16.8528 17.0847 16.8528C18.0864 16.8528 19.0281 16.4627 19.7364 15.7545C20.0418 15.449 20.2877 15.1 20.469 14.7216ZM18.9529 11.442C19.3611 11.9001 19.5847 12.4841 19.5847 13.1027C19.5847 13.7706 19.3246 14.3983 18.8524 14.8706C18.4457 15.2773 17.9233 15.5261 17.3596 15.5874C17.3695 15.4971 17.375 15.4054 17.375 15.3125C17.375 14.9785 17.3087 14.6598 17.1893 14.3683C17.2324 14.3033 17.2744 14.2372 17.3137 14.169C17.8146 13.3016 17.9476 12.291 17.6884 11.3234C17.5749 10.8999 17.3919 10.5134 17.1562 10.1714C17.8368 10.4745 18.4464 10.9088 18.9529 11.442ZM26.0417 26.4792C25.5922 26.9287 24.8607 26.9287 24.4111 26.4792L24.1918 26.2599C24.7768 25.7617 25.3213 25.2168 25.8219 24.6289L26.0417 24.8486C26.4912 25.2982 26.4912 26.0297 26.0417 26.4792ZM27.5 5.9375V4.6875H28.75V5.9375H27.5ZM31.25 9.0625H30V1.5625H31.25V9.0625Z" fill="#FF5100"/>
<path d="M31.875 0.3125H29.375C29.0298 0.3125 28.75 0.592313 28.75 0.9375H14.875C13.8994 0.9375 12.925 1.03562 11.9781 1.22937C11.055 1.41875 10.1469 1.70063 9.27938 2.0675C8.42812 2.4275 7.60625 2.87375 6.83813 3.3925C6.742 3.45744 6.64663 3.52369 6.55194 3.59106L6.22281 3.26194C5.76906 2.80819 5.16556 2.55831 4.52362 2.55831C3.88169 2.55831 3.27819 2.80813 2.82437 3.26188C1.88744 4.19881 1.88744 5.72331 2.82437 6.66025L3.1535 6.98938C3.08613 7.08406 3.01994 7.17944 2.95494 7.27556C2.43619 8.04369 1.98994 8.86556 1.62994 9.71681C1.26306 10.5843 0.981188 11.4924 0.791813 12.4156C0.598125 13.3625 0.5 14.3369 0.5 15.3125C0.500562 16.8862 0.753 18.4281 1.25 19.9031V28.375C1.25 28.7202 1.52981 29 1.875 29H10.4701C11.0719 29.1934 11.6874 29.3472 12.3144 29.46C12.3512 29.4669 12.3888 29.47 12.4256 29.47C12.7281 29.47 12.9862 29.2537 13.04 28.9556C13.0694 28.7913 13.0331 28.625 12.9381 28.4881C12.8425 28.3512 12.7 28.2594 12.5356 28.2294C6.28438 27.105 1.74875 21.6731 1.75 15.3125C1.75 11.8075 3.11563 8.51188 5.59438 6.03188C8.07375 3.55313 11.37 2.18813 14.875 2.1875H28.75V3.4375H26.875C26.5298 3.4375 26.25 3.71731 26.25 4.0625V6.5625C26.25 6.90769 26.5298 7.1875 26.875 7.1875H28.75V8.4375H14.875C11.0841 8.4375 8 11.5216 8 15.3125C8 19.1034 11.0841 22.1875 14.875 22.1875C18.6659 22.1875 21.75 19.1034 21.75 15.3125C21.75 12.9898 20.592 10.9327 18.8232 9.6875H26.7373C27.5754 11.4484 28 13.3385 28 15.3125C28.0012 21.4481 23.8337 26.7044 17.8656 28.095C17.53 28.1737 17.3206 28.51 17.3988 28.8456C17.4312 28.9844 17.51 29.1081 17.6219 29.1956C17.7694 29.3113 17.9663 29.3556 18.1494 29.3125C19.7181 28.9475 21.205 28.3231 22.5681 27.4575C22.7821 27.3217 22.9917 27.18 23.1977 27.0336L23.5273 27.3631C23.9958 27.8316 24.6111 28.0658 25.2264 28.0658C25.8418 28.0658 26.4571 27.8316 26.9256 27.3631C27.8626 26.4262 27.8626 24.9017 26.9256 23.9647L26.5964 23.6355C27.3577 22.5659 27.9664 21.4021 28.41 20.1656C28.9669 18.6118 29.2494 16.9787 29.25 15.3124C29.25 14.3312 29.1506 13.3506 28.9544 12.3974C28.7631 11.4699 28.4781 10.5581 28.1075 9.68744H28.75C28.75 10.0326 29.0298 10.3124 29.375 10.3124H31.875C32.2202 10.3124 32.5 10.0326 32.5 9.68744V0.9375C32.5 0.592313 32.2202 0.3125 31.875 0.3125ZM2.5 22.6311C2.90587 23.316 3.36906 23.9681 3.88812 24.5825C4.95187 25.8425 6.2125 26.9025 7.63375 27.7331C7.64356 27.7389 7.65356 27.7443 7.66337 27.75H2.5V22.6311ZM4.71063 5.14813C4.43881 5.41969 4.17812 5.70337 3.92844 5.99656L3.70831 5.77637C3.25875 5.32681 3.25875 4.59538 3.70831 4.14581C3.92594 3.92812 4.2155 3.80825 4.52356 3.80825C4.83162 3.80825 5.12119 3.92812 5.33881 4.14581L5.55912 4.36613C5.26612 4.61575 4.98244 4.87638 4.71063 5.14813ZM13.4172 9.87956C14.7484 9.52275 16.1242 10.3153 16.481 11.6469C16.6339 12.2176 16.5749 12.7956 16.3535 13.2982C16.0248 13.0562 15.6349 12.8931 15.2117 12.8358C14.7492 11.9061 13.9066 11.1707 12.827 10.8814C12.4052 10.7684 11.9808 10.7327 11.5684 10.7649C12.1176 10.3646 12.7435 10.0608 13.4172 9.87956ZM16.125 15.3125C16.125 16.0017 15.5642 16.5625 14.875 16.5625C14.1858 16.5625 13.625 16.0017 13.625 15.3125C13.625 14.6233 14.1858 14.0625 14.875 14.0625C15.5642 14.0625 16.125 14.6233 16.125 15.3125ZM10.7971 19.183C10.3889 18.7249 10.1653 18.1409 10.1653 17.5222C10.1653 16.8544 10.4254 16.2267 10.8976 15.7544C11.3043 15.3477 11.8267 15.0989 12.3904 15.0376C12.3805 15.1279 12.375 15.2196 12.375 15.3125C12.375 15.6465 12.4413 15.9651 12.5607 16.2566C12.5176 16.3217 12.4756 16.3878 12.4362 16.456C11.9354 17.3234 11.8023 18.334 12.0616 19.3016C12.1749 19.7247 12.3571 20.1112 12.5923 20.453C11.9124 20.1499 11.3032 19.7159 10.7971 19.183ZM12.9016 13.7805C12.8232 13.7756 12.7445 13.7723 12.6653 13.7723C11.6637 13.7723 10.7219 14.1623 10.0137 14.8706C9.70825 15.176 9.46237 15.525 9.28106 15.9034C9.26062 15.7091 9.25 15.5121 9.25 15.3125C9.25 14.8108 9.31644 14.3242 9.44025 13.8609C9.44063 13.8595 9.44125 13.8581 9.44162 13.8566C9.79844 12.5251 11.172 11.7321 12.5035 12.0888C13.0739 12.2417 13.5451 12.5814 13.8696 13.0243C13.4873 13.1929 13.1551 13.4546 12.9016 13.7805ZM16.3348 20.745C16.3334 20.7453 16.3321 20.7455 16.3308 20.7458C14.9995 21.1025 13.6257 20.3096 13.2689 18.978C13.116 18.4074 13.1751 17.8294 13.3966 17.3268C13.725 17.5685 14.1144 17.7316 14.5371 17.7889C14.9997 18.7189 15.8431 19.4541 16.9229 19.7434C17.2468 19.8302 17.5721 19.8716 17.8926 19.8716C17.99 19.8716 18.0866 19.8664 18.1829 19.8589C17.6335 20.2599 17.009 20.5636 16.3348 20.745ZM20.469 14.7216C20.4894 14.9159 20.5 15.1129 20.5 15.3125C20.5 15.8142 20.4336 16.3008 20.3097 16.7641C20.3094 16.7655 20.3088 16.7669 20.3084 16.7684C19.9516 18.0999 18.5779 18.8929 17.2465 18.5362C16.6761 18.3834 16.205 18.0436 15.8804 17.6007C16.2628 17.4321 16.5949 17.1705 16.8484 16.8446C16.9268 16.8495 17.0055 16.8528 17.0847 16.8528C18.0864 16.8528 19.0281 16.4627 19.7364 15.7545C20.0418 15.449 20.2877 15.1 20.469 14.7216ZM18.9529 11.442C19.3611 11.9001 19.5847 12.4841 19.5847 13.1027C19.5847 13.7706 19.3246 14.3983 18.8524 14.8706C18.4457 15.2773 17.9233 15.5261 17.3596 15.5874C17.3695 15.4971 17.375 15.4054 17.375 15.3125C17.375 14.9785 17.3087 14.6598 17.1893 14.3683C17.2324 14.3033 17.2744 14.2372 17.3137 14.169C17.8146 13.3016 17.9476 12.291 17.6884 11.3234C17.5749 10.8999 17.3919 10.5134 17.1562 10.1714C17.8368 10.4745 18.4464 10.9088 18.9529 11.442ZM26.0417 26.4792C25.5922 26.9287 24.8607 26.9287 24.4111 26.4792L24.1918 26.2599C24.7768 25.7617 25.3213 25.2168 25.8219 24.6289L26.0417 24.8486C26.4912 25.2982 26.4912 26.0297 26.0417 26.4792ZM27.5 5.9375V4.6875H28.75V5.9375H27.5ZM31.25 9.0625H30V1.5625H31.25V9.0625Z" stroke="#FF5100" stroke-width="0.4" mask="url(#path-1-outside-1_644_1883)"/>
<path d="M15.2227 29.6875C15.5678 29.6875 15.8477 29.4077 15.8477 29.0625C15.8477 28.7173 15.5678 28.4375 15.2227 28.4375C14.8775 28.4375 14.5977 28.7173 14.5977 29.0625C14.5977 29.4077 14.8775 29.6875 15.2227 29.6875Z" fill="#FF5100"/>
</svg>
