<svg width="33" height="32" viewBox="0 0 33 32" fill="none" xmlns="http://www.w3.org/2000/svg">
<g clip-path="url(#clip0_644_1694)">
<path d="M12.3242 27.0044V19.3794C12.3242 18.8616 11.9045 18.4419 11.3867 18.4419C10.869 18.4419 10.4492 18.8616 10.4492 19.3794V27.0044C10.4492 27.5221 10.869 27.9419 11.3867 27.9419C11.9045 27.9419 12.3242 27.5221 12.3242 27.0044Z" fill="#FF5100"/>
<path d="M15.7324 27.0044V19.3794C15.7324 18.8616 15.3127 18.4419 14.7949 18.4419C14.2772 18.4419 13.8574 18.8616 13.8574 19.3794V27.0044C13.8574 27.5221 14.2772 27.9419 14.7949 27.9419C15.3127 27.9419 15.7324 27.5221 15.7324 27.0044Z" fill="#FF5100"/>
<path d="M19.1426 27.0044V19.3794C19.1426 18.8616 18.7228 18.4419 18.2051 18.4419C17.6873 18.4419 17.2676 18.8616 17.2676 19.3794V27.0044C17.2676 27.5221 17.6873 27.9419 18.2051 27.9419C18.7228 27.9419 19.1426 27.5221 19.1426 27.0044Z" fill="#FF5100"/>
<path d="M22.5508 27.0044V19.3794C22.5508 18.8616 22.131 18.4419 21.6133 18.4419C21.0955 18.4419 20.6758 18.8616 20.6758 19.3794V27.0044C20.6758 27.5221 21.0955 27.9419 21.6133 27.9419C22.1311 27.9419 22.5508 27.5221 22.5508 27.0044Z" fill="#FF5100"/>
<path d="M1.125 18.7762L1.125 27.6079H4.5V18.7762H1.125Z" stroke="#FF5100" stroke-width="1.75" stroke-miterlimit="10" stroke-linecap="round" stroke-linejoin="round"/>
<path d="M28.5 18.7762V27.6079H31.8751V18.7762H28.5Z" stroke="#FF5100" stroke-width="1.75" stroke-miterlimit="10" stroke-linecap="round" stroke-linejoin="round"/>
<path d="M25.0508 15.1919H7.94913L4.5 18.776V27.6078L7.94913 31.1919H25.0508L28.4999 27.6078V18.776L25.0508 15.1919Z" stroke="#FF5100" stroke-width="1.75" stroke-miterlimit="10" stroke-linecap="round" stroke-linejoin="round"/>
<path d="M7.94922 31.105V15.2793" stroke="#FF5100" stroke-width="1.75" stroke-miterlimit="10" stroke-linecap="round" stroke-linejoin="round"/>
<path d="M25.0508 15.2793V31.105" stroke="#FF5100" stroke-width="1.75" stroke-miterlimit="10" stroke-linecap="round" stroke-linejoin="round"/>
<path d="M12.9307 9.01742L12.8455 9.06965C13.0533 9.40903 13.2796 9.69386 13.533 9.95104C14.5007 10.9332 15.7673 11.4199 17.0337 11.4199C18.3001 11.4199 19.5663 10.9332 20.5426 9.96071L20.5426 9.96071L20.5437 9.95961C21.2943 9.18861 21.7733 8.20662 21.9269 7.11572L21.9269 7.11572L21.9271 7.11371C21.9775 6.69473 21.6959 6.30147 21.2766 6.23853C20.8524 6.16574 20.4688 6.48052 20.4085 6.89847C20.2962 7.6614 19.9683 8.34292 19.4526 8.86632C18.1182 10.2206 15.9492 10.2206 14.6148 8.86632C14.4427 8.69164 14.2882 8.50002 14.142 8.25559L14.142 8.25558L14.1412 8.25427C13.9179 7.89368 13.4483 7.77793 13.0896 8.00678C12.7339 8.23374 12.6216 8.70827 12.8457 9.07008L12.9307 9.01742ZM12.9307 9.01742C13.1346 9.3502 13.3561 9.62903 13.6042 9.88085C14.5524 10.8432 15.7931 11.3199 17.0337 11.3199C18.2743 11.3199 19.515 10.8432 20.472 9.88986L14.0562 8.30693C13.8612 7.99214 13.4536 7.89322 13.1434 8.09108C12.8332 8.28895 12.7358 8.70264 12.9307 9.01742Z" fill="#FF5100" stroke="#FF5100" stroke-width="0.2"/>
<path d="M13.524 2.84071L13.5236 2.84114C12.773 3.6121 12.294 4.59403 12.1404 5.68487C12.0797 6.10646 12.3719 6.49735 12.7871 6.56167C12.8323 6.5725 12.8681 6.57249 12.9015 6.57249H12.904C13.2812 6.57249 13.6083 6.29318 13.6502 5.90039C13.7628 5.13822 14.0905 4.45739 14.6058 3.93443C15.9402 2.58013 18.1092 2.58013 19.4436 3.93443C19.6148 4.10825 19.7699 4.30904 19.9172 4.54654C20.1406 4.90708 20.61 5.02281 20.9687 4.79397C21.3243 4.56717 21.4366 4.09315 21.2131 3.73144C21.0051 3.38275 20.7787 3.0978 20.5254 2.84071L20.5252 2.84054C18.5898 0.885407 15.4508 0.885166 13.524 2.84071Z" fill="#FF5100" stroke="#FF5100" stroke-width="0.2"/>
<path d="M12.566 11.0593C12.566 11.4819 12.9107 11.8338 13.3306 11.8338C13.7603 11.8338 14.0953 11.481 14.0953 11.0593V9.43248H15.6967C16.1166 9.43248 16.4613 9.08051 16.4613 8.65794C16.4613 8.23536 16.1166 7.8834 15.6967 7.8834H13.3306C12.9107 7.8834 12.566 8.23536 12.566 8.65794V11.0593Z" fill="#FF5100" stroke="#FF5100" stroke-width="0.2"/>
<path d="M18.3717 4.91732H20.7377C21.1568 4.91732 21.5023 4.57523 21.5023 4.14278V1.74144C21.5023 1.31886 21.1576 0.966895 20.7377 0.966895C20.3178 0.966895 19.9731 1.31886 19.9731 1.74144V3.36824H18.3717C17.9517 3.36824 17.607 3.72021 17.607 4.14278C17.607 4.56536 17.9517 4.91732 18.3717 4.91732Z" fill="#FF5100" stroke="#FF5100" stroke-width="0.2"/>
</g>
<defs>
<clipPath id="clip0_644_1694">
<rect width="32" height="32" fill="white" transform="translate(0.5)"/>
</clipPath>
</defs>
</svg>
