<svg width="33" height="32" viewBox="0 0 33 32" fill="none" xmlns="http://www.w3.org/2000/svg">
<g clip-path="url(#clip0_644_1888)">
<path d="M16.4375 0C7.62875 0 0.5 7.12813 0.5 15.9375C0.5 24.7277 7.74463 32 16.5625 32C25.4456 32 32.5 24.6714 32.5 15.9375C32.5 7.05437 25.1714 0 16.4375 0ZM16.5625 30.1375C8.7395 30.1375 2.3625 23.7605 2.3625 15.9375C2.3625 8.18344 8.68344 1.8625 16.4375 1.8625C24.2605 1.8625 30.6375 8.18344 30.6375 15.9375C30.6375 23.7605 24.3166 30.1375 16.5625 30.1375Z" fill="#FF5100"/>
<path d="M16.4375 3.75C9.71731 3.75 4.25 9.21731 4.25 15.9375C4.25 22.6312 9.79769 28.25 16.5625 28.25C23.2904 28.25 28.75 22.6661 28.75 15.9375C28.75 9.18044 23.1345 3.75 16.4375 3.75ZM16.4375 5.6125C20.8136 5.6125 24.5688 8.3 26.1175 12.0817C24.333 11.1971 23.0052 10.5195 22.4916 10.3432C18.6654 8.81737 14.3396 8.82063 10.5136 10.3536C10.0682 10.5035 8.77925 11.1538 6.86806 12.0949C8.39494 8.30619 12.1087 5.6125 16.4375 5.6125ZM6.1125 15.9375C6.1125 15.4502 6.15975 14.971 6.22544 14.5015C6.9045 14.1669 8.30481 13.4771 9.875 12.7044V15.9375C9.875 16.5734 9.96888 17.1961 10.1496 17.7912L6.20288 17.1798C6.15188 16.7716 6.1125 16.357 6.1125 15.9375ZM6.65163 19.1467L10.1167 19.6835C11.3611 19.8763 12.3327 20.8843 12.4792 22.1322L12.8851 25.6786C9.97381 24.5432 7.64806 22.118 6.65163 19.1467ZM18.1623 26.2493C17.6408 26.3318 17.1066 26.3875 16.5625 26.3875C15.9756 26.3875 15.3984 26.3228 14.8348 26.2243L14.3663 22.131C15.0656 22.3735 15.8057 22.5 16.5625 22.5C17.2844 22.5 17.9794 22.3825 18.6296 22.1661L18.1623 26.2493ZM16.5625 20.6375C13.9539 20.6375 11.75 18.4784 11.75 15.9375V11.8889C14.9056 10.7719 18.0939 10.7697 21.25 11.879V15.9375C21.25 18.5222 19.1472 20.6375 16.5625 20.6375ZM20.1079 25.7394L20.5205 22.135C20.6673 20.8844 21.6389 19.8763 22.8832 19.6836L26.3771 19.1423C25.4016 22.1953 23.0721 24.6376 20.1079 25.7394ZM22.8584 17.7899C23.0316 17.2023 23.125 16.5806 23.125 15.9375V12.6909L26.7731 14.4995C26.8397 14.9696 26.8875 15.4496 26.8875 15.9375C26.8875 16.3576 26.8496 16.7718 26.8018 17.1791L22.8584 17.7899Z" fill="#FF5100"/>
<path d="M16.4375 13.125C14.8867 13.125 13.625 14.3867 13.625 15.9375C13.625 17.4883 14.8867 18.75 16.4375 18.75C17.9883 18.75 19.25 17.4883 19.25 15.9375C19.25 14.3867 17.9883 13.125 16.4375 13.125ZM16.4375 16.875C15.9206 16.875 15.5 16.4544 15.5 15.9375C15.5 15.4206 15.9206 15 16.4375 15C16.9544 15 17.375 15.4206 17.375 15.9375C17.375 16.4544 16.9544 16.875 16.4375 16.875Z" fill="#FF5100"/>
</g>
<defs>
<clipPath id="clip0_644_1888">
<rect width="32" height="32" fill="white" transform="translate(0.5)"/>
</clipPath>
</defs>
</svg>
