<svg width="33" height="32" viewBox="0 0 33 32" fill="none" xmlns="http://www.w3.org/2000/svg">
<g clip-path="url(#clip0_644_1900)">
<path d="M20.25 11.3643C20.5952 11.3643 20.875 11.0844 20.875 10.7393C20.875 10.3941 20.5952 10.1143 20.25 10.1143C19.9048 10.1143 19.625 10.3941 19.625 10.7393C19.625 11.0844 19.9048 11.3643 20.25 11.3643Z" fill="#FF5100"/>
<path d="M20.7648 6.35372L20.7648 6.3538C20.8982 6.48857 20.975 6.67385 20.975 6.86412V7.92532V7.92532V7.92533V7.92534V7.92535V7.92536V7.92536V7.92537V7.92538V7.92539V7.9254V7.92541V7.92542V7.92543V7.92544V7.92545V7.92546V7.92547V7.92548V7.92549V7.92549V7.9255V7.92551V7.92552V7.92553V7.92554V7.92555V7.92555V7.92556V7.92557V7.92558V7.92559V7.92559V7.9256V7.92561V7.92562V7.92562V7.92563V7.92564V7.92565V7.92565V7.92566V7.92567V7.92568V7.92568V7.92569V7.9257V7.92571V7.92572V7.92573V7.92574V7.92574V7.92575V7.92576V7.92577V7.92578V7.92579V7.9258V7.9258V7.92581V7.92582V7.92583V7.92584V7.92584V7.92585V7.92586V7.92587V7.92587V7.92588V7.92589V7.9259V7.9259V7.92591V7.92592V7.92593V7.92594V7.92594V7.92595V7.92596V7.92597V7.92597V7.92598V7.92599V7.926V7.92601V7.92601V7.92602V7.92603V7.92604V7.92605V7.92605V7.92606V7.92607V7.92608V7.92609V7.9261V7.9261V7.92611V7.92612V7.92613V7.92614V7.92615V7.92616V7.92616V7.92617V7.92618V7.92619V7.9262V7.9262V7.92621V7.92622V7.92623V7.92623V7.92624V7.92625V7.92626V7.92626V7.92627V7.92628V7.92629V7.9263V7.9263V7.92631V7.92632V7.92633V7.92634V7.92635V7.92636V7.92637V7.92637V7.92638V7.92639V7.9264V7.92641V7.92642V7.92643V7.92644V7.92645V7.92646V7.92647V7.92648V7.92649V7.9265V7.9265V7.92651V7.92652V7.92653V7.92653V7.92654V7.92655V7.92655V7.92656V7.92657V7.92658V7.92659V7.92659V7.9266V7.92661V7.92662V7.92662C20.975 8.32616 20.6503 8.65163 20.25 8.65163C19.8504 8.65163 19.525 8.32623 19.525 7.92662V7.16362L18.7091 6.3635H14.2994L13.475 7.16512V12.851H20.25C20.6496 12.851 20.975 13.1763 20.975 13.576C20.975 13.9756 20.6496 14.301 20.25 14.301H18.7875V17.5183L20.4945 18.13L20.4608 18.2241L20.4946 18.13C20.7827 18.2333 20.975 18.5063 20.975 18.8125V21.375C20.975 21.6109 20.8602 21.8321 20.6673 21.9679M20.7648 6.35372L20.6098 21.8861M20.7648 6.35372L19.725 5.30508L19.725 5.24969L19.725 4.99503L19.7251 4.22176C19.7252 3.68309 19.7252 3.13714 19.7249 3.09063L19.725 3.09063C19.7064 1.32922 18.2638 -0.1 16.5 -0.1C14.7365 -0.1 13.2947 1.32866 13.2754 3.0894L13.2755 3.08941C13.2752 3.13434 13.2752 3.68358 13.2751 4.22582L13.275 5.00253L13.275 5.25831L13.275 5.31389L12.2374 6.35148C12.1024 6.48645 12.025 6.67313 12.025 6.86406V13.5516C12.025 13.7405 12.101 13.94 12.2374 14.0763M20.7648 6.35372L18.7875 28.2658M20.6673 21.9679L20.6098 21.8861M20.6673 21.9679C20.6673 21.9678 20.6673 21.9678 20.6673 21.9678L20.6098 21.8861M20.6673 21.9679C20.5435 22.055 20.3974 22.1 20.2499 22.1C20.1676 22.1 20.085 22.086 20.0055 22.0575L20.0392 21.9634M20.6098 21.8861C20.5031 21.9612 20.3771 22 20.2499 22C20.179 22 20.1078 21.9879 20.0392 21.9634M20.0392 21.9634L20.0055 22.0575L18.7875 21.6211M20.0392 21.9634L18.7875 21.6211M18.7875 21.6211V22.7683L20.4945 23.38L20.4608 23.4741L20.4946 23.38C20.7827 23.4833 20.975 23.7563 20.975 24.0625V26.625C20.975 26.8609 20.8602 27.0821 20.6673 27.2179M18.7875 21.6211L20.6098 27.1361M20.6673 27.2179L20.6098 27.1361M20.6673 27.2179C20.6673 27.2178 20.6673 27.2178 20.6673 27.2178L20.6098 27.1361M20.6673 27.2179C20.5435 27.305 20.3974 27.35 20.2499 27.35C20.1676 27.35 20.085 27.336 20.0055 27.3075L18.7875 26.8711M20.6098 27.1361C20.5031 27.2112 20.3771 27.25 20.2499 27.25C20.179 27.25 20.1078 27.2379 20.0392 27.2134L18.7875 26.7648V26.8711M18.7875 26.8711V28.2658M18.7875 26.8711L18.6875 26.8352L18.7875 28.2658M18.7875 28.2658C18.9866 28.6332 19.1 29.0536 19.1 29.4999C19.1 30.9337 17.9337 32.0999 16.5 32.0999C15.0663 32.0999 13.9 30.9337 13.9 29.4999C13.9 29.0536 14.0134 28.6332 14.2125 28.2658V25.2317L12.5054 24.62L12.5054 24.62C12.2173 24.5167 12.025 24.2437 12.025 23.9375V21.375C12.025 21.1391 12.1398 20.918 12.3327 20.7821L12.3327 20.7821C12.5256 20.6464 12.7725 20.613 12.9945 20.6924L12.9946 20.6924L14.2125 21.1289V19.9817L12.5054 19.37L12.5054 19.37C12.2173 19.2667 12.025 18.9937 12.025 18.6875V16.125C12.025 15.8892 12.1398 15.668 12.3327 15.5322L12.3327 15.5321C12.5256 15.3964 12.7725 15.3631 12.9945 15.4425L12.9946 15.4425L14.2125 15.8789V14.3009H12.75C12.5537 14.3009 12.3687 14.2076 12.2374 14.0763M12.2374 14.0763L12.3081 14.0056L12.2374 14.0763C12.2374 14.0763 12.2374 14.0763 12.2374 14.0763ZM16.5 30.65C15.866 30.65 15.35 30.134 15.35 29.5C15.35 28.866 15.866 28.35 16.5 28.35C17.134 28.35 17.65 28.866 17.65 29.5C17.65 30.134 17.134 30.65 16.5 30.65ZM17.3375 27.039C17.0746 26.9492 16.7929 26.9 16.5 26.9C16.2071 26.9 15.9254 26.9492 15.6625 27.039V25.7513L17.3375 26.3515V27.039ZM13.475 22.4049L19.525 24.5728V25.5951L13.475 23.4272V22.4049ZM17.3375 22.2487L15.6625 21.6485V20.5013L17.3375 21.1015V22.2487ZM13.475 17.1549L19.525 19.3228V20.3451L13.475 18.1772V17.1549ZM15.6625 14.301H17.3375V16.9987L15.6625 16.3985V14.301ZM18.275 4.9135H14.725L14.725 4.71982L14.7251 4.07328L14.7252 3.12943C14.7252 3.12937 14.7252 3.12932 14.7252 3.12927C14.7295 2.1546 15.5262 1.35606 16.5 1.35606C17.4746 1.35606 18.2707 2.14325 18.275 3.11702V4.9135Z" fill="#FF5100" stroke="#FF5100" stroke-width="0.2"/>
<path d="M15.875 8.11426V11.0518C15.875 11.3961 16.1556 11.6768 16.5 11.6768C16.8444 11.6768 17.125 11.3961 17.125 11.0518V8.11426C17.125 7.76982 16.8444 7.48926 16.5 7.48926C16.1556 7.48926 15.875 7.76982 15.875 8.11426Z" fill="#FF5100"/>
<path d="M16.5 3.73926C16.8452 3.73926 17.125 3.45944 17.125 3.11426C17.125 2.76908 16.8452 2.48926 16.5 2.48926C16.1548 2.48926 15.875 2.76908 15.875 3.11426C15.875 3.45944 16.1548 3.73926 16.5 3.73926Z" fill="#FF5100"/>
</g>
<defs>
<clipPath id="clip0_644_1900">
<rect width="32" height="32" fill="white" transform="translate(0.5)"/>
</clipPath>
</defs>
</svg>
