<svg width="30" height="30" viewBox="0 0 30 30" fill="none" xmlns="http://www.w3.org/2000/svg">
<path d="M27.191 11.8487L27.191 11.8489C27.8774 11.9634 28.3773 12.5513 28.3773 13.2467V16.7526V16.7532H28.1273C28.1287 17.3372 27.6946 17.8344 27.1135 17.909L27.191 11.8487ZM27.191 11.8487L27.1815 11.8475M27.191 11.8487L27.1815 11.8475M16.7557 28.3749C17.4628 28.3762 18.066 27.853 18.1591 27.1484C18.255 26.4491 18.7697 25.8935 19.4277 25.6287C20.0855 25.364 20.8445 25.4069 21.4078 25.8535L21.4143 25.8587L21.4211 25.8634C21.983 26.2513 22.7353 26.18 23.2217 25.6944L23.2218 25.6943L25.6967 23.2193C26.1975 22.7195 26.2504 21.9452 25.8429 21.3825C25.4328 20.809 25.3494 20.0746 25.6137 19.4292L25.6148 19.4263C25.8785 18.7581 26.4532 18.28 27.1514 18.1562L16.7562 28.1249M16.7557 28.3749L16.7562 28.1249M16.7557 28.3749H16.7562V28.1249M16.7557 28.3749H13.2504M16.7562 28.1249H13.2499M13.2504 28.3749L13.2499 28.1249M13.2504 28.3749H13.2499V28.1249M13.2504 28.3749C12.5425 28.3765 11.9401 27.8519 11.8468 27.1483C11.7183 26.3768 11.0975 25.7183 10.3365 25.5359C9.95034 25.4492 9.70653 25.0667 9.79195 24.6795L9.79295 24.675L9.79299 24.675C9.83387 24.5048 9.91749 24.3659 10.043 24.2696C10.166 24.1752 10.3083 24.1375 10.441 24.1294C10.6949 24.114 10.9616 24.2035 11.1547 24.2967C12.2911 24.7733 13.0717 25.7549 13.2691 26.9374H16.7369C16.9345 25.7545 17.716 24.7709 18.8263 24.3072C19.9434 23.8272 21.2127 23.9613 22.1991 24.6552L22.2073 24.661L22.215 24.6675C22.2152 24.6676 22.2154 24.6678 22.2156 24.668L22.2335 24.6501L22.312 24.5716L22.5923 24.2912L23.443 23.4404L24.2536 22.6296H24.2376L24.6702 22.2124C24.6694 22.2113 24.6686 22.2101 24.6676 22.2089L24.661 22.2011L24.6552 22.1927C23.9606 21.2034 23.8296 19.9294 24.3146 18.8128C24.7739 17.7124 25.7574 16.9316 26.9399 16.7342V13.2655C25.695 13.0895 24.7571 12.203 24.3161 11.1338C23.8759 10.0665 23.9159 8.78097 24.6681 7.78504L22.217 5.33381C21.2353 6.01936 19.9693 6.16321 18.8637 5.70833L18.8626 5.70786C17.7182 5.23047 16.9348 4.24775 16.7369 3.0625H13.2694C13.0982 4.30329 12.2221 5.24174 11.1593 5.68608C10.0926 6.13211 8.80335 6.09475 7.79851 5.33887L7.79021 5.33263L7.77279 5.35005L7.69424 5.4286L7.4139 5.70896L6.56319 6.5597L5.75256 7.37037H5.76672L5.33587 7.78746C5.33632 7.78807 5.33681 7.78869 5.33734 7.78932L5.34416 7.79747L5.35026 7.80617C6.03349 8.78015 6.17058 10.0201 5.71745 11.1277C5.2671 12.2539 4.27326 13.066 3.06615 13.266V16.7342C4.30626 16.9119 5.24277 17.7894 5.68566 18.8529C6.13026 19.9205 6.09143 21.2092 5.33725 22.216L7.78913 24.668C8.11133 24.4486 8.55147 24.5255 8.77901 24.8445L8.78963 24.8594L8.79797 24.8757C8.9452 25.163 8.94329 25.4454 8.78743 25.6741C8.64455 25.8839 8.40321 26.0014 8.16908 26.0567C7.92968 26.1131 7.66034 26.1142 7.41454 26.0574C7.17684 26.0024 6.93513 25.8869 6.7736 25.685L6.7564 25.6679L6.67782 25.5893L6.39732 25.3088L5.54614 24.4576L4.69497 23.6065L4.41447 23.326L4.33588 23.2474L4.31517 23.2267L4.30986 23.2214L4.30851 23.2201L4.30817 23.2197L4.30806 23.2196C4.30806 23.2196 4.30758 23.2172 4.3069 23.2127L4.30401 23.2155C4.04916 22.9485 3.89056 22.5984 3.89268 22.2125M13.2499 28.1249L4.14268 22.2138M3.89268 22.2125L4.14268 22.2138M3.89268 22.2125C3.89268 22.2129 3.89268 22.2134 3.89268 22.2138H4.14268M3.89268 22.2125C3.89297 21.914 3.98626 21.6283 4.16187 21.3877M4.14268 22.2138C4.14268 21.9676 4.21935 21.7327 4.36422 21.5345M4.16187 21.3877C4.16168 21.388 4.1615 21.3882 4.16131 21.3885L4.36422 21.5345M4.16187 21.3877C4.56392 20.8285 4.65175 20.0453 4.38386 19.4112L4.38365 19.4107C4.10252 18.7413 3.515 18.2729 2.84054 18.1546M4.16187 21.3877C4.16204 21.3875 4.16221 21.3872 4.16238 21.387L4.36422 21.5345M4.36422 21.5345L2.84054 18.1546M2.84054 18.1546C2.84188 18.1548 2.84322 18.155 2.84456 18.1552L2.87977 17.9077M2.84054 18.1546L4.61415 19.3139C4.3006 18.5673 3.64237 18.04 2.87977 17.9077M2.84054 18.1546C2.14301 18.0534 1.62784 17.4562 1.6287 16.753M2.84054 18.1546C2.83938 18.1544 2.83821 18.1542 2.83704 18.154L2.87977 17.9077M2.87977 17.9077L6.78405 4.30602L4.30975 6.78044C4.3097 6.78049 4.30965 6.78054 4.3096 6.78059C3.80878 7.27978 3.75527 8.05455 4.16316 8.61718C4.57302 9.19102 4.65659 9.92515 4.39239 10.5707L4.39122 10.5736C4.1275 11.2417 3.5528 11.7199 2.85464 11.8437C2.15134 11.9374 1.62727 12.5395 1.6287 13.247M16.7562 27.1874C16.8707 27.1888 16.9715 27.0986 16.9825 26.9846C17.1642 25.8837 17.89 24.9687 18.9238 24.5374C19.9616 24.0911 21.1395 24.2155 22.0552 24.8597C22.1516 24.9398 22.2869 24.9489 22.3825 24.8547M16.7562 27.1874L24.6071 22.6296C23.9786 23.2581 22.3825 24.8547 22.3825 24.8547M16.7562 27.1874H13.2499H16.7562ZM22.3825 24.8547L22.2061 24.6782L22.2057 24.6779L22.2058 24.6778L22.2061 24.6775L22.2065 24.6771L22.2074 24.6765C22.2072 24.6766 22.2071 24.6767 22.207 24.6768L22.2071 24.6769L22.3825 24.8547ZM24.7345 22.5021C24.8121 22.4244 24.857 22.3796 24.857 22.3796V22.1296C24.8819 22.1462 24.9035 22.1641 24.9221 22.183C24.9144 22.135 24.8924 22.0883 24.8598 22.049C24.2149 21.1306 24.0934 19.9479 24.5446 18.9106C24.9712 17.8871 25.886 17.1615 26.9871 16.9798C27.1014 16.9687 27.191 16.8678 27.1899 16.7532V13.2467C27.1908 13.1335 27.1042 13.0349 26.992 13.0203C24.6919 12.709 23.4762 9.74762 24.8815 7.91746L24.7345 22.5021ZM24.7345 22.5021C24.6548 22.3688 24.6765 22.2238 24.6797 22.205L24.7345 22.5021ZM16.7559 1.625H16.7562V1.875L16.7556 1.625C16.7557 1.625 16.7558 1.625 16.7559 1.625ZM16.7559 1.625H13.2501H16.7559ZM1.6287 13.247V13.2467H1.8787L1.6287 13.2473C1.6287 13.2472 1.6287 13.2471 1.6287 13.247ZM1.6287 13.247V16.753M1.6287 16.753V16.7532H1.8787L1.6287 16.7529C1.6287 16.7529 1.6287 16.753 1.6287 16.753ZM5.15266 22.385L5.32667 22.232C5.3267 22.2319 5.32675 22.2318 5.32681 22.2316C5.32699 22.231 5.32723 22.2301 5.32747 22.229C5.32641 22.2304 5.32535 22.2318 5.32429 22.2332L5.31301 22.2247M5.15266 22.385L5.33716 22.2162M5.15266 22.385L5.31301 22.2247M5.15266 22.385L5.33623 22.215M5.31301 22.2247L5.32341 22.2143M5.31301 22.2247L5.12521 22.082L5.32341 22.2143M5.32341 22.2143L5.3286 22.2177C5.3286 22.2162 5.32854 22.2147 5.32842 22.2132C5.32832 22.2119 5.32819 22.2107 5.32804 22.2096M5.32341 22.2143L5.32804 22.2096M5.32804 22.2096L5.32944 22.2082L5.33623 22.215M5.32804 22.2096C5.32721 22.2037 5.32575 22.2002 5.32562 22.1999L5.32561 22.1999C5.32596 22.2006 5.32856 22.2057 5.33623 22.215M5.33623 22.215C5.33653 22.2154 5.33684 22.2158 5.33716 22.2162M5.33716 22.2162C5.33485 22.2192 5.33253 22.2223 5.33021 22.2254C5.32789 22.2292 5.32693 22.2314 5.32668 22.232L5.34041 22.2199C5.33925 22.2186 5.33817 22.2174 5.33716 22.2162ZM27.1815 11.8475C26.4769 11.7574 25.9165 11.2506 25.6446 10.5985C25.3729 9.94657 25.4059 9.18852 25.841 8.6168L25.8418 8.61582M27.1815 11.8475L25.8418 8.61582M25.8418 8.61582C26.2549 8.06751 26.1858 7.2528 25.6934 6.77764M25.8418 8.61582L25.6934 6.77764M25.6934 6.77764L25.5198 6.95754L25.6934 6.77764ZM4.60738 23.1654C4.64327 23.2013 4.68616 23.2441 4.73486 23.2928H4.48485C4.54083 23.2554 4.58007 23.2111 4.60738 23.1654ZM7.6238 5.14548L7.79756 5.31924L7.80052 5.32219C7.80051 5.3222 7.8005 5.32221 7.80049 5.32222L7.79754 5.31927L7.6238 5.14548ZM4.37098 22.9065C4.40555 22.9541 4.44361 22.9996 4.48485 23.0428L4.37098 22.9065ZM7.80111 24.68L7.80101 24.6799L7.80111 24.68Z" fill="#FF5100" stroke="#FF5100" stroke-width="0.5"/>
<path d="M9.59705 15H9.59683L9.59726 15.0103C9.89372 22.1706 20.1135 22.1681 20.4088 15.0103L20.409 15.0103V14.9999C20.409 12.0188 17.9841 9.59375 15.003 9.59375C12.0219 9.59375 9.59705 12.0188 9.59705 15ZM15.003 18.9687C12.8168 18.9687 11.0373 17.1911 11.0345 15.0051C11.2578 9.73517 18.7491 9.73626 18.9716 15.0052C18.9688 17.1911 17.1893 18.9687 15.003 18.9687Z" fill="#FF5100" stroke="#FF5100" stroke-width="0.5"/>
<path d="M12.4094 15H12.4092L12.4096 15.0089C12.5311 18.4325 17.4755 18.4313 17.5965 15.0088L17.5967 15.0088V15C17.5967 13.5697 16.4333 12.4062 15.003 12.4062C13.5727 12.4062 12.4094 13.5697 12.4094 15ZM15.003 13.8438C16.5238 13.8901 16.5236 16.1102 15.003 16.1561C13.4822 16.1099 13.4824 13.8898 15.003 13.8438Z" fill="#FF5100" stroke="#FF5100" stroke-width="0.5"/>
<path d="M8.88247 22.1375L8.88246 22.1375C8.60173 22.4182 8.14682 22.4182 7.86609 22.1375C7.58538 21.8567 7.58536 21.4018 7.86608 21.1211L8.71447 20.2725C7.66027 19.0171 6.97656 17.4447 6.82602 15.7187H5.62852C5.23158 15.7187 4.90979 15.3969 4.90979 15C4.90979 14.603 5.23158 14.2812 5.62852 14.2812H6.82602C6.97656 12.5552 7.66027 10.9829 8.71443 9.72746L8.37243 9.38545L8.02433 9.03733L7.90962 8.92261L7.87748 8.89047L7.86901 8.882L7.86683 8.87982L7.86627 8.87926L7.8661 8.8791L7.86602 8.87901C7.86601 8.879 7.866 8.87863 7.866 8.87789L7.86545 8.87844C7.70826 8.72005 7.6395 8.52736 7.653 8.33588C7.66605 8.15094 7.75411 7.98672 7.87438 7.86797C7.99463 7.74923 8.15947 7.66366 8.34306 7.65134C8.53306 7.63859 8.72526 7.70594 8.8822 7.86244L8.88245 7.86269L9.73078 8.71106C10.9862 7.65686 12.5584 6.97312 14.2843 6.82258V5.625C14.2843 5.22807 14.6061 4.90625 15.003 4.90625C15.4 4.90625 15.7218 5.22808 15.7218 5.625V6.81206C16.7807 6.90292 17.7937 7.1958 18.7403 7.68627C19.2918 7.96572 19.8061 8.31006 20.2789 8.70744L21.1236 7.86269L21.3004 8.03947L21.1236 7.86269C21.4043 7.58196 21.8593 7.58195 22.14 7.86269C22.4207 8.14343 22.4207 8.59834 22.14 8.87907M8.88247 22.1375L20.6358 10.0298C20.4527 10.2129 20.156 10.2129 19.9729 10.0298C19.4514 9.5082 18.8545 9.07538 18.1988 8.74315C13.6638 6.30578 7.88247 9.85039 7.97213 14.9999M8.88247 22.1375L9.73083 21.2889M8.88247 22.1375L9.73083 21.2889M22.14 8.87907L21.9632 8.7023L22.1403 8.87878L22.14 8.87907ZM22.14 8.87907L20.8125 10.2066C20.5318 10.4873 20.0769 10.4873 19.7962 10.2066C19.2932 9.7036 18.7178 9.28641 18.0858 8.96615L18.0804 8.96342L18.0805 8.96336C13.7157 6.61747 8.13796 10.0344 8.22204 14.9926M8.22204 14.9926C8.222 14.9916 8.22196 14.9906 8.22192 14.9896L7.97213 14.9999M8.22204 14.9926C8.22206 14.9936 8.22208 14.9946 8.22209 14.9956L7.97213 14.9999M8.22204 14.9926C8.59625 23.9941 21.4067 23.9964 21.7839 14.9948M7.97213 14.9999C8.35689 24.3255 21.6481 24.3275 22.0339 15M9.73083 21.2889C10.9862 22.3431 12.5584 23.0268 14.2843 23.1774V24.3749C14.2843 24.7722 14.6062 25.0937 15.003 25.0937C15.3999 25.0937 15.7218 24.7722 15.7218 24.3749V23.1774C17.4476 23.0268 19.0199 22.3431 20.2753 21.2889L21.1236 22.1375L21.1236 22.1375C21.263 22.2768 21.4458 22.3471 21.6282 22.348C21.9489 22.3557 22.188 22.1452 22.2899 21.905C22.3924 21.6631 22.3758 21.3438 22.1372 21.1183L22.1371 21.1182L22.1286 21.1097L22.0965 21.0776L21.9818 20.9628L21.6336 20.6146L21.2916 20.2725C22.3458 19.0171 23.0295 17.4447 23.18 15.7187L24.3776 15.7187L24.3812 15.7187C24.6016 15.7155 24.7844 15.6276 24.9098 15.4854C25.0314 15.3475 25.0882 15.1713 25.0892 15.0022C25.0902 14.8331 25.0353 14.6557 24.9134 14.5165C24.7877 14.3728 24.6038 14.2852 24.382 14.2813V14.2812H24.3775H23.1906C23.0997 13.2218 22.8066 12.2084 22.3158 11.2615M9.73083 21.2889L21.0397 11.9228M22.3158 11.2615C22.3159 11.2615 22.3159 11.2616 22.3159 11.2616L22.0939 11.3765L22.3158 11.2615ZM22.3158 11.2615C22.1334 10.9093 21.6997 10.7724 21.3477 10.9538L21.3473 10.954C20.9946 11.1365 20.857 11.5704 21.0397 11.9228M21.0397 11.9228L21.2617 11.8078C21.1425 11.578 21.2322 11.2951 21.4622 11.1761L21.0397 11.9228ZM22.0339 15H21.7839C21.7839 14.9982 21.7839 14.9965 21.7839 14.9948M22.0339 15L21.7841 14.9896C21.7841 14.9914 21.784 14.9931 21.7839 14.9948M22.0339 15L21.0398 11.9229C21.5327 12.8743 21.7831 13.9069 21.7839 14.9948M8.05139 8.71083C8.06402 8.72346 8.09016 8.7496 8.1261 8.78555C8.07627 8.84155 7.99997 8.88659 7.88317 8.89465L8.05139 8.71083ZM21.9312 21.2658C21.9144 21.249 21.8915 21.2261 21.8639 21.1985C21.9047 21.144 21.9664 21.095 22.0593 21.0671L21.9312 21.2658Z" fill="#FF5100" stroke="#FF5100" stroke-width="0.5"/>
</svg>
