<svg width="32" height="32" viewBox="0 0 32 32" fill="none" xmlns="http://www.w3.org/2000/svg">
<path d="M31.0625 24.4375H30.0625V4.75C30.0625 3.19922 28.8008 1.9375 27.25 1.9375H4.75C3.19922 1.9375 1.9375 3.19922 1.9375 4.75V24.4375H0.9375C0.419678 24.4375 0 24.8572 0 25.375V27.25C0 28.0056 0.309082 28.717 0.870117 29.2534C1.41577 29.7751 2.12793 30.0625 2.875 30.0625H29.125C29.8721 30.0625 30.5842 29.7751 31.1299 29.2534C31.6909 28.717 32 28.0056 32 27.25V25.375C32 24.8572 31.5803 24.4375 31.0625 24.4375ZM3.8125 4.75C3.8125 4.23315 4.23315 3.8125 4.75 3.8125H27.25C27.7668 3.8125 28.1875 4.23315 28.1875 4.75V24.4375H3.8125V4.75ZM30.125 27.25C30.125 27.7495 29.6577 28.1875 29.125 28.1875H2.875C2.34229 28.1875 1.875 27.7495 1.875 27.25V26.3125H30.125V27.25Z" fill="white"/>
<path d="M24.3374 12.2415C24.4016 12.0012 24.368 11.7454 24.2437 11.53L22.3687 8.28247C22.2444 8.06714 22.0396 7.90991 21.7994 7.8457C21.5591 7.78125 21.3033 7.81494 21.0882 7.93921L19.7027 8.73901C19.4187 8.54272 19.1211 8.36987 18.8116 8.22168V6.625C18.8116 6.10718 18.3919 5.6875 17.8741 5.6875H14.1241C13.6062 5.6875 13.1866 6.10718 13.1866 6.625V8.22168C12.877 8.36987 12.5794 8.54272 12.2954 8.73901L10.9102 7.93921C10.6949 7.81494 10.4388 7.78125 10.1988 7.8457C9.95853 7.90991 9.7537 8.06714 9.62943 8.28247L7.75443 11.53C7.63016 11.7454 7.59647 12.0012 7.66092 12.2415C7.72513 12.4817 7.88236 12.6863 8.09769 12.8108L9.46146 13.5981C9.44486 13.7795 9.43656 13.9543 9.43656 14.125C9.43656 14.2957 9.44486 14.4705 9.46146 14.6519L8.09769 15.4392C7.88236 15.5637 7.72513 15.7683 7.66092 16.0085C7.59647 16.2488 7.63016 16.5046 7.75443 16.72L9.62943 19.9675C9.7537 20.1829 9.95853 20.3401 10.1988 20.4043C10.4388 20.4688 10.6949 20.4351 10.9102 20.3108L12.2954 19.511C12.5794 19.7073 12.877 19.8799 13.1866 20.0283V21.625C13.1866 22.1428 13.6062 22.5625 14.1241 22.5625H17.8741C18.3919 22.5625 18.8116 22.1428 18.8116 21.625V20.0283C19.1211 19.8801 19.4187 19.7073 19.7027 19.511L21.0882 20.3108C21.3033 20.4351 21.5594 20.4688 21.7994 20.4045C22.0396 20.3401 22.2444 20.1829 22.3687 19.9675L24.2437 16.72C24.368 16.5046 24.4016 16.2488 24.3374 16.0085C24.273 15.7686 24.1158 15.5637 23.9007 15.4395L22.5367 14.6519C22.5533 14.4707 22.5616 14.2959 22.5616 14.1252C22.5616 13.9543 22.5533 13.7795 22.5367 13.5984L23.9007 12.8108C24.1158 12.6863 24.273 12.4817 24.3374 12.2415ZM20.5989 13.2727C20.6587 13.5959 20.6866 13.8667 20.6866 14.125C20.6866 14.3833 20.6587 14.6541 20.5989 14.9773C20.5266 15.3677 20.708 15.7612 21.052 15.9597L22.1512 16.5942L21.2137 18.218L20.0979 17.574C19.7542 17.3755 19.3228 17.4148 19.0208 17.6726C18.583 18.0461 18.0913 18.3318 17.5594 18.5215C17.1858 18.6545 16.9366 19.0081 16.9366 19.4045V20.6875H15.0616V19.4043C15.0616 19.0081 14.8123 18.6545 14.4388 18.5212C13.9068 18.3315 13.4151 18.0461 12.9773 17.6726C12.6753 17.415 12.2439 17.3755 11.9002 17.574L10.7845 18.218L9.84696 16.5945L10.9461 15.9597C11.2898 15.7612 11.4715 15.3677 11.3992 14.9773C11.3394 14.6541 11.3116 14.3833 11.3116 14.125C11.3116 13.8669 11.3394 13.5959 11.3992 13.2727C11.4715 12.8823 11.2898 12.4888 10.9461 12.2903L9.84696 11.6558L10.7845 10.032L11.9002 10.676C12.2439 10.8745 12.6753 10.835 12.9773 10.5774C13.4151 10.2039 13.907 9.91821 14.439 9.72852C14.8123 9.59546 15.0616 9.24194 15.0616 8.84546V7.5625H16.9366V8.84546C16.9366 9.24194 17.1858 9.59546 17.5594 9.72852C18.0913 9.91821 18.583 10.2039 19.0208 10.5774C19.3228 10.835 19.7544 10.8745 20.0982 10.676L21.2137 10.032L22.1512 11.6555L21.052 12.2903C20.708 12.4888 20.5266 12.8823 20.5989 13.2727Z" fill="white"/>
<path d="M16 11.3125C14.4492 11.3125 13.1875 12.5742 13.1875 14.125C13.1875 15.6758 14.4492 16.9375 16 16.9375C17.5508 16.9375 18.8125 15.6758 18.8125 14.125C18.8125 12.5742 17.5508 11.3125 16 11.3125ZM16 15.0625C15.4832 15.0625 15.0625 14.6418 15.0625 14.125C15.0625 13.6082 15.4832 13.1875 16 13.1875C16.5168 13.1875 16.9375 13.6082 16.9375 14.125C16.9375 14.6418 16.5168 15.0625 16 15.0625Z" fill="white"/>
</svg>
