<svg width="33" height="32" viewBox="0 0 33 32" fill="none" xmlns="http://www.w3.org/2000/svg">
<path d="M3 26H5V27H3V26Z" fill="#FF5100"/>
<path d="M20 26H22V27H20V26Z" fill="#FF5100"/>
<mask id="path-3-outside-1_644_1916" maskUnits="userSpaceOnUse" x="0" y="-0.5" width="33" height="33" fill="black">
<rect fill="white" y="-0.5" width="33" height="33"/>
<path d="M30.5 4H27V3C27 1.6215 25.8785 0.5 24.5 0.5H14.5C13.1215 0.5 12 1.6215 12 3V10.5H11.389C11.2125 10.5 11.049 10.5935 10.959 10.745L10.07 12.245C10.024 12.3225 10 12.4105 10 12.5V14.5H7.4415C6.364 14.5 5.4105 15.187 5.07 16.209L4.473 18H1.5C1.224 18 1 18.224 1 18.5V20C1 20.2445 1.177 20.453 1.4175 20.493L2.602 20.6905L2.025 21.268C1.5535 21.739 1.228 22.332 1.0835 22.982C1.028 23.231 1 23.487 1 23.7425V27.5V30.5C1 31.0515 1.4485 31.5 2 31.5H5C5.5515 31.5 6 31.0515 6 30.5V29H19V30.5C19 31.0515 19.4485 31.5 20 31.5H23C23.5515 31.5 24 31.0515 24 30.5V27.5V23.7425C24 22.8075 23.636 21.929 22.975 21.2675L22.398 20.6905L23.409 20.522C23.6825 20.8145 24.0685 21 24.5 21H28.5C29.327 21 30 20.327 30 19.5V14.9145C30 14.781 30.052 14.655 30.1465 14.5605L31.5605 13.1465C31.844 12.8635 32 12.4865 32 12.0855V5.5C32 4.673 31.327 4 30.5 4ZM13 3C13 2.173 13.673 1.5 14.5 1.5H24.5C25.327 1.5 26 2.173 26 3V4H22.5C21.673 4 21 4.673 21 5.5V12.0855C21 12.486 21.156 12.863 21.4395 13.1465L22.8535 14.5605C22.948 14.655 23 14.781 23 14.9145V18H20.527L19.93 16.209C19.5895 15.187 18.636 14.5 17.5585 14.5H15V12.5C15 12.4105 14.976 12.3225 14.93 12.245L14.041 10.745C13.951 10.593 13.7875 10.5 13.611 10.5H13V3ZM22.548 22.316C22.7265 22.571 22.851 22.8555 22.923 23.1565C22.674 23.665 22.1525 24 21.579 24H19.114C18.9465 24 18.791 23.9165 18.698 23.7775L18.545 23.548L22.548 22.316ZM16.853 23.022C16.643 23.0865 16.5 23.2805 16.5 23.5H13.5C13.3675 23.5 13.24 23.5525 13.1465 23.6465L12.5 24.293L11.8535 23.6465C11.76 23.5525 11.6325 23.5 11.5 23.5H8.5C8.5 23.2805 8.357 23.0865 8.147 23.022L3.2055 21.5015L4.707 20H20.293L21.7945 21.5015L16.853 23.022ZM6.455 23.548L6.3015 23.778C6.2085 23.9165 6.0535 24 5.8855 24H3.4205C2.845 24 2.322 23.6625 2.0735 23.151C2.147 22.85 2.276 22.568 2.4515 22.316L6.455 23.548ZM11 12.637L11.674 11.5H13.3265L14 12.637V14.5H11V12.637ZM6.0185 16.5255C6.223 15.912 6.795 15.5 7.4415 15.5H17.5585C18.205 15.5 18.777 15.912 18.9815 16.5255L19.806 19H5.194L6.0185 16.5255ZM2 19.5765V19H4V19.293L3.4715 19.8215L2 19.5765ZM5 30.5H2V28.908C2.157 28.964 2.324 29 2.5 29H5V30.5ZM7 28L7.6 27.2C7.694 27.0745 7.8435 27 8 27H17C17.1565 27 17.306 27.0745 17.4 27.2L18 28H7ZM20 30.5V29H22.5C22.676 29 22.843 28.964 23 28.908V30.5H20ZM22.5 28H19.25L18.2 26.5995C17.918 26.224 17.4695 26 17 26H8C7.5305 26 7.082 26.224 6.8 26.6L5.75 28H2.5C2.2245 28 2 27.7755 2 27.5V24.554C2.41 24.8375 2.9035 25 3.421 25H5.886C6.389 25 6.8555 24.75 7.134 24.332L7.4525 23.8545L7.5 23.8695V24C7.5 24.276 7.724 24.5 8 24.5H11.293L12.1465 25.3535C12.244 25.451 12.372 25.5 12.5 25.5C12.628 25.5 12.756 25.451 12.8535 25.3535L13.707 24.5H17C17.276 24.5 17.5 24.276 17.5 24V23.8695L17.548 23.855L17.866 24.332C18.1445 24.75 18.6115 25 19.1145 25H21.5795C22.097 25 22.5905 24.8375 23.0005 24.554V27.5C23 27.7755 22.7755 28 22.5 28ZM23 19.5765L21.5285 19.822L21 19.293V19H23V19.5V19.5765ZM31 12.0855C31 12.219 30.948 12.345 30.8535 12.4395L29.4395 13.8535C29.156 14.1365 29 14.5135 29 14.9145V19.5C29 19.7755 28.7755 20 28.5 20H24.5C24.2245 20 24 19.7755 24 19.5V14.9145C24 14.514 23.844 14.137 23.5605 13.8535L22.1465 12.4395C22.052 12.345 22 12.219 22 12.0855V5.5C22 5.2245 22.2245 5 22.5 5H30.5C30.7755 5 31 5.2245 31 5.5V12.0855Z"/>
</mask>
<path d="M30.5 4H27V3C27 1.6215 25.8785 0.5 24.5 0.5H14.5C13.1215 0.5 12 1.6215 12 3V10.5H11.389C11.2125 10.5 11.049 10.5935 10.959 10.745L10.07 12.245C10.024 12.3225 10 12.4105 10 12.5V14.5H7.4415C6.364 14.5 5.4105 15.187 5.07 16.209L4.473 18H1.5C1.224 18 1 18.224 1 18.5V20C1 20.2445 1.177 20.453 1.4175 20.493L2.602 20.6905L2.025 21.268C1.5535 21.739 1.228 22.332 1.0835 22.982C1.028 23.231 1 23.487 1 23.7425V27.5V30.5C1 31.0515 1.4485 31.5 2 31.5H5C5.5515 31.5 6 31.0515 6 30.5V29H19V30.5C19 31.0515 19.4485 31.5 20 31.5H23C23.5515 31.5 24 31.0515 24 30.5V27.5V23.7425C24 22.8075 23.636 21.929 22.975 21.2675L22.398 20.6905L23.409 20.522C23.6825 20.8145 24.0685 21 24.5 21H28.5C29.327 21 30 20.327 30 19.5V14.9145C30 14.781 30.052 14.655 30.1465 14.5605L31.5605 13.1465C31.844 12.8635 32 12.4865 32 12.0855V5.5C32 4.673 31.327 4 30.5 4ZM13 3C13 2.173 13.673 1.5 14.5 1.5H24.5C25.327 1.5 26 2.173 26 3V4H22.5C21.673 4 21 4.673 21 5.5V12.0855C21 12.486 21.156 12.863 21.4395 13.1465L22.8535 14.5605C22.948 14.655 23 14.781 23 14.9145V18H20.527L19.93 16.209C19.5895 15.187 18.636 14.5 17.5585 14.5H15V12.5C15 12.4105 14.976 12.3225 14.93 12.245L14.041 10.745C13.951 10.593 13.7875 10.5 13.611 10.5H13V3ZM22.548 22.316C22.7265 22.571 22.851 22.8555 22.923 23.1565C22.674 23.665 22.1525 24 21.579 24H19.114C18.9465 24 18.791 23.9165 18.698 23.7775L18.545 23.548L22.548 22.316ZM16.853 23.022C16.643 23.0865 16.5 23.2805 16.5 23.5H13.5C13.3675 23.5 13.24 23.5525 13.1465 23.6465L12.5 24.293L11.8535 23.6465C11.76 23.5525 11.6325 23.5 11.5 23.5H8.5C8.5 23.2805 8.357 23.0865 8.147 23.022L3.2055 21.5015L4.707 20H20.293L21.7945 21.5015L16.853 23.022ZM6.455 23.548L6.3015 23.778C6.2085 23.9165 6.0535 24 5.8855 24H3.4205C2.845 24 2.322 23.6625 2.0735 23.151C2.147 22.85 2.276 22.568 2.4515 22.316L6.455 23.548ZM11 12.637L11.674 11.5H13.3265L14 12.637V14.5H11V12.637ZM6.0185 16.5255C6.223 15.912 6.795 15.5 7.4415 15.5H17.5585C18.205 15.5 18.777 15.912 18.9815 16.5255L19.806 19H5.194L6.0185 16.5255ZM2 19.5765V19H4V19.293L3.4715 19.8215L2 19.5765ZM5 30.5H2V28.908C2.157 28.964 2.324 29 2.5 29H5V30.5ZM7 28L7.6 27.2C7.694 27.0745 7.8435 27 8 27H17C17.1565 27 17.306 27.0745 17.4 27.2L18 28H7ZM20 30.5V29H22.5C22.676 29 22.843 28.964 23 28.908V30.5H20ZM22.5 28H19.25L18.2 26.5995C17.918 26.224 17.4695 26 17 26H8C7.5305 26 7.082 26.224 6.8 26.6L5.75 28H2.5C2.2245 28 2 27.7755 2 27.5V24.554C2.41 24.8375 2.9035 25 3.421 25H5.886C6.389 25 6.8555 24.75 7.134 24.332L7.4525 23.8545L7.5 23.8695V24C7.5 24.276 7.724 24.5 8 24.5H11.293L12.1465 25.3535C12.244 25.451 12.372 25.5 12.5 25.5C12.628 25.5 12.756 25.451 12.8535 25.3535L13.707 24.5H17C17.276 24.5 17.5 24.276 17.5 24V23.8695L17.548 23.855L17.866 24.332C18.1445 24.75 18.6115 25 19.1145 25H21.5795C22.097 25 22.5905 24.8375 23.0005 24.554V27.5C23 27.7755 22.7755 28 22.5 28ZM23 19.5765L21.5285 19.822L21 19.293V19H23V19.5V19.5765ZM31 12.0855C31 12.219 30.948 12.345 30.8535 12.4395L29.4395 13.8535C29.156 14.1365 29 14.5135 29 14.9145V19.5C29 19.7755 28.7755 20 28.5 20H24.5C24.2245 20 24 19.7755 24 19.5V14.9145C24 14.514 23.844 14.137 23.5605 13.8535L22.1465 12.4395C22.052 12.345 22 12.219 22 12.0855V5.5C22 5.2245 22.2245 5 22.5 5H30.5C30.7755 5 31 5.2245 31 5.5V12.0855Z" fill="#FF5100"/>
<path d="M30.5 4H27V3C27 1.6215 25.8785 0.5 24.5 0.5H14.5C13.1215 0.5 12 1.6215 12 3V10.5H11.389C11.2125 10.5 11.049 10.5935 10.959 10.745L10.07 12.245C10.024 12.3225 10 12.4105 10 12.5V14.5H7.4415C6.364 14.5 5.4105 15.187 5.07 16.209L4.473 18H1.5C1.224 18 1 18.224 1 18.5V20C1 20.2445 1.177 20.453 1.4175 20.493L2.602 20.6905L2.025 21.268C1.5535 21.739 1.228 22.332 1.0835 22.982C1.028 23.231 1 23.487 1 23.7425V27.5V30.5C1 31.0515 1.4485 31.5 2 31.5H5C5.5515 31.5 6 31.0515 6 30.5V29H19V30.5C19 31.0515 19.4485 31.5 20 31.5H23C23.5515 31.5 24 31.0515 24 30.5V27.5V23.7425C24 22.8075 23.636 21.929 22.975 21.2675L22.398 20.6905L23.409 20.522C23.6825 20.8145 24.0685 21 24.5 21H28.5C29.327 21 30 20.327 30 19.5V14.9145C30 14.781 30.052 14.655 30.1465 14.5605L31.5605 13.1465C31.844 12.8635 32 12.4865 32 12.0855V5.5C32 4.673 31.327 4 30.5 4ZM13 3C13 2.173 13.673 1.5 14.5 1.5H24.5C25.327 1.5 26 2.173 26 3V4H22.5C21.673 4 21 4.673 21 5.5V12.0855C21 12.486 21.156 12.863 21.4395 13.1465L22.8535 14.5605C22.948 14.655 23 14.781 23 14.9145V18H20.527L19.93 16.209C19.5895 15.187 18.636 14.5 17.5585 14.5H15V12.5C15 12.4105 14.976 12.3225 14.93 12.245L14.041 10.745C13.951 10.593 13.7875 10.5 13.611 10.5H13V3ZM22.548 22.316C22.7265 22.571 22.851 22.8555 22.923 23.1565C22.674 23.665 22.1525 24 21.579 24H19.114C18.9465 24 18.791 23.9165 18.698 23.7775L18.545 23.548L22.548 22.316ZM16.853 23.022C16.643 23.0865 16.5 23.2805 16.5 23.5H13.5C13.3675 23.5 13.24 23.5525 13.1465 23.6465L12.5 24.293L11.8535 23.6465C11.76 23.5525 11.6325 23.5 11.5 23.5H8.5C8.5 23.2805 8.357 23.0865 8.147 23.022L3.2055 21.5015L4.707 20H20.293L21.7945 21.5015L16.853 23.022ZM6.455 23.548L6.3015 23.778C6.2085 23.9165 6.0535 24 5.8855 24H3.4205C2.845 24 2.322 23.6625 2.0735 23.151C2.147 22.85 2.276 22.568 2.4515 22.316L6.455 23.548ZM11 12.637L11.674 11.5H13.3265L14 12.637V14.5H11V12.637ZM6.0185 16.5255C6.223 15.912 6.795 15.5 7.4415 15.5H17.5585C18.205 15.5 18.777 15.912 18.9815 16.5255L19.806 19H5.194L6.0185 16.5255ZM2 19.5765V19H4V19.293L3.4715 19.8215L2 19.5765ZM5 30.5H2V28.908C2.157 28.964 2.324 29 2.5 29H5V30.5ZM7 28L7.6 27.2C7.694 27.0745 7.8435 27 8 27H17C17.1565 27 17.306 27.0745 17.4 27.2L18 28H7ZM20 30.5V29H22.5C22.676 29 22.843 28.964 23 28.908V30.5H20ZM22.5 28H19.25L18.2 26.5995C17.918 26.224 17.4695 26 17 26H8C7.5305 26 7.082 26.224 6.8 26.6L5.75 28H2.5C2.2245 28 2 27.7755 2 27.5V24.554C2.41 24.8375 2.9035 25 3.421 25H5.886C6.389 25 6.8555 24.75 7.134 24.332L7.4525 23.8545L7.5 23.8695V24C7.5 24.276 7.724 24.5 8 24.5H11.293L12.1465 25.3535C12.244 25.451 12.372 25.5 12.5 25.5C12.628 25.5 12.756 25.451 12.8535 25.3535L13.707 24.5H17C17.276 24.5 17.5 24.276 17.5 24V23.8695L17.548 23.855L17.866 24.332C18.1445 24.75 18.6115 25 19.1145 25H21.5795C22.097 25 22.5905 24.8375 23.0005 24.554V27.5C23 27.7755 22.7755 28 22.5 28ZM23 19.5765L21.5285 19.822L21 19.293V19H23V19.5V19.5765ZM31 12.0855C31 12.219 30.948 12.345 30.8535 12.4395L29.4395 13.8535C29.156 14.1365 29 14.5135 29 14.9145V19.5C29 19.7755 28.7755 20 28.5 20H24.5C24.2245 20 24 19.7755 24 19.5V14.9145C24 14.514 23.844 14.137 23.5605 13.8535L22.1465 12.4395C22.052 12.345 22 12.219 22 12.0855V5.5C22 5.2245 22.2245 5 22.5 5H30.5C30.7755 5 31 5.2245 31 5.5V12.0855Z" stroke="#FF5100" stroke-width="0.4" mask="url(#path-3-outside-1_644_1916)"/>
<path d="M30 5.5H23C22.724 5.5 22.5 5.724 22.5 6V11C22.5 11.276 22.724 11.5 23 11.5H30C30.276 11.5 30.5 11.276 30.5 11V6C30.5 5.724 30.276 5.5 30 5.5ZM29.5 6.5V8.5H28.707L27.3535 7.1465C27.2395 7.0325 27.078 6.9805 26.92 7.0065C26.7615 7.0325 26.625 7.1325 26.553 7.2765L25.7765 8.829L25.224 8.5525C25.1545 8.518 25.0775 8.5 25 8.5H23.5V6.5H29.5ZM23.5 10.5V9.5H24.882L25.7765 9.9475C25.848 9.983 25.9245 10 25.9995 10C26.183 10 26.3595 9.899 26.4475 9.7235L27.137 8.344L28.1465 9.3535C28.24 9.4475 28.3675 9.5 28.5 9.5H29.5V10.5H23.5Z" fill="#FF5100"/>
<path d="M23.5 12H25V13H23.5V12Z" fill="#FF5100"/>
<path d="M28 12H29.5V13H28V12Z" fill="#FF5100"/>
<path d="M25.5 12H27.5V13H25.5V12Z" fill="#FF5100"/>
<path d="M24.5 15H26V16H24.5V15Z" fill="#FF5100"/>
<path d="M27 15H28.5V16H27V15Z" fill="#FF5100"/>
<path d="M24.5 16.5H26V17.5H24.5V16.5Z" fill="#FF5100"/>
<path d="M27 16.5H28.5V17.5H27V16.5Z" fill="#FF5100"/>
<path d="M24.5 18H26V19H24.5V18Z" fill="#FF5100"/>
<path d="M27 18H28.5V19H27V18Z" fill="#FF5100"/>
</svg>
