<svg width="33" height="32" viewBox="0 0 33 32" fill="none" xmlns="http://www.w3.org/2000/svg">
<g clip-path="url(#clip0_644_1716)">
<path d="M22.8989 21.6504H10.0995V20.0505C10.0995 19.8384 10.0154 19.6348 9.86543 19.4849C9.71515 19.3349 9.51184 19.2505 9.29945 19.2505H1.30006C0.858282 19.2505 0.5 19.6088 0.5 20.0505C0.5 20.4923 0.858282 20.8506 1.30006 20.8506H8.49968V30.4501H1.30006C0.858282 30.4501 0.5 30.8081 0.5 31.2499C0.5 31.6919 0.858282 32.0499 1.30006 32.0499H9.29945C9.51184 32.0502 9.71515 31.9658 9.86543 31.8159C10.0154 31.6659 10.0995 31.4623 10.0995 31.2499V29.65H22.8989C23.111 29.6503 23.3146 29.566 23.4646 29.416C23.6146 29.266 23.699 29.0624 23.6987 28.85V22.4504C23.699 22.2383 23.6146 22.0347 23.4646 21.8847C23.3146 21.7347 23.111 21.6504 22.8989 21.6504ZM22.0989 28.0502H10.0995V23.2505H22.0989V28.0502Z" fill="#FF5100"/>
<path d="M30.8987 15.251C30.8987 14.0619 31.1245 13.7355 31.4362 13.2823C31.9097 12.5965 32.4988 11.7434 32.4988 8.85141C32.4806 6.82944 31.4664 4.94634 29.7878 3.81876C28.3139 2.83854 26.4689 2.59685 24.7921 3.1643C23.0853 0.679762 20.0078 -0.47301 17.0888 0.278123C14.1699 1.02955 12.0316 3.52522 11.7366 6.52477C9.85113 6.89155 8.49242 8.54615 8.50003 10.467C8.50736 12.3877 9.87896 14.032 11.767 14.3838C12.1227 16.2763 13.7741 17.6482 15.6997 17.6509C16.943 17.6778 18.171 17.3725 19.2573 16.7664C20.1206 16.271 21.1041 16.0235 22.0992 16.051C24.6804 16.051 25.849 18.2007 26.2325 19.1259C26.8741 20.6741 26.802 22.2162 26.3333 22.685C26.0277 22.9984 26.031 23.4994 26.3406 23.809C26.65 24.1187 27.1512 24.1219 27.4647 23.8161C28.4818 22.7989 28.5826 20.6194 27.7108 18.5133C26.6567 15.9696 24.5592 14.4509 22.0992 14.4509C20.8559 14.4243 19.6279 14.7295 18.5416 15.3354C17.6783 15.831 16.6948 16.0786 15.6997 16.051C14.3746 16.0496 13.3012 14.9759 13.2998 13.6512C13.2998 13.4388 13.2157 13.2355 13.0654 13.0852C12.9154 12.9352 12.7118 12.8511 12.4997 12.8511C11.1744 12.8511 10.0999 11.7766 10.0999 10.4512C10.0999 9.12591 11.1744 8.05135 12.4997 8.05135C12.7118 8.05165 12.9154 7.96727 13.0654 7.81728C13.2157 7.66729 13.2998 7.46369 13.2998 7.2513C13.2904 4.70377 15.008 2.47352 17.4735 1.83166C19.9387 1.18979 22.5258 2.2995 23.76 4.528C23.9598 4.88072 24.3907 5.02954 24.7654 4.87486C26.0992 4.24794 27.6615 4.35193 28.9004 5.14994C30.1285 5.98574 30.8738 7.36613 30.8987 8.85141C30.8987 11.2448 30.5029 11.8184 30.1191 12.3745C29.7348 12.9308 29.2989 13.5636 29.2989 15.251C29.2716 16.4946 29.5772 17.7226 30.1833 18.8086C30.679 19.6719 30.9265 20.6554 30.8987 21.6506C30.8987 24.4661 27.9583 27.2504 26.899 27.2504C26.4572 27.2504 26.0989 27.6086 26.0989 28.0504C26.0989 28.4922 26.4572 28.8502 26.899 28.8502C28.9558 28.8502 32.4988 25.2925 32.4988 21.6506C32.5257 20.4073 32.2205 19.1792 31.6144 18.0929C31.1187 17.2296 30.8711 16.2461 30.8987 15.251Z" fill="#FF5100"/>
</g>
<defs>
<clipPath id="clip0_644_1716">
<rect width="32" height="32" fill="white" transform="translate(0.5)"/>
</clipPath>
</defs>
</svg>
