<svg width="33" height="32" viewBox="0 0 33 32" fill="none" xmlns="http://www.w3.org/2000/svg">
<g clip-path="url(#clip0_644_1721)">
<path d="M21.6031 19.9635L21.0367 19.3968L29.5365 10.8967C30.4742 9.95724 30.4742 8.43642 29.5365 7.49669L28.9701 6.92998L31.8034 4.09671C32.7352 3.15669 32.732 1.64027 31.7958 0.704067C30.8598 -0.231845 29.3434 -0.235073 28.4034 0.69673L25.5698 3.53L25.0034 2.96329C24.0637 2.02591 22.5429 2.02591 21.6031 2.96329L13.1033 11.4634L12.5366 10.8967C11.5972 9.9593 10.0761 9.9593 9.13664 10.8967L5.73637 14.297C4.79899 15.2364 4.79899 16.7575 5.73637 17.6969L6.30308 18.2636L1.20325 23.3635C0.265582 24.3029 0.265582 25.824 1.20325 26.7635L1.76997 27.3302L1.20325 27.8969C0.271158 28.8369 0.27468 30.3536 1.21059 31.2895C2.1465 32.2254 3.66322 32.2287 4.60324 31.2969L5.16995 30.7301L5.73637 31.2969C6.6758 32.2342 8.19692 32.2342 9.13635 31.2969L14.2365 26.197L14.8032 26.7637C15.7426 27.7011 17.2637 27.7011 18.2032 26.7637L21.6031 23.3638C22.5408 22.424 22.5408 20.9029 21.6031 19.9635ZM29.5365 1.83016C29.85 1.51936 30.3556 1.52053 30.6676 1.8325C30.9796 2.14447 30.9808 2.65014 30.67 2.96329L27.8367 5.79685L26.7033 4.66342L29.5365 1.83016ZM22.7369 4.09671C23.05 3.78445 23.5569 3.78445 23.87 4.09671L28.4034 8.63012C28.7157 8.94326 28.7157 9.4504 28.4034 9.76355L19.9033 18.2636L14.2365 12.5968L22.7369 4.09671ZM6.86979 15.4301L10.2698 12.0301C10.5832 11.7178 11.0901 11.7178 11.4032 12.0301L15.3699 15.9968L10.8365 20.5302L6.86979 16.5635C6.55753 16.2504 6.55753 15.7432 6.86979 15.4301ZM9.70336 28.4636L4.03652 22.7968L5.16995 21.6636L10.8365 27.3302L9.70336 28.4636ZM3.46981 30.1634C3.15637 30.4742 2.651 30.4731 2.33903 30.1611C2.02706 29.8491 2.02588 29.3437 2.33639 29.0303L2.9031 28.4636L4.03652 29.597L3.46981 30.1634ZM6.86979 30.1634L2.33639 25.6303C2.02412 25.3169 2.02412 24.81 2.33639 24.4969L2.9031 23.9302L8.56993 29.597L8.00322 30.1634C7.69007 30.476 7.18294 30.476 6.86979 30.1634ZM11.9699 26.197L6.30308 20.5302L7.43651 19.3968L13.1033 25.0636L11.9699 26.197ZM17.07 25.6303C16.7566 25.9426 16.2498 25.9426 15.9366 25.6303L11.9699 21.6636L16.5033 17.1302L20.47 21.0969C20.7823 21.4101 20.7823 21.9169 20.47 22.2303L17.07 25.6303Z" fill="#FF5100"/>
</g>
<defs>
<clipPath id="clip0_644_1721">
<rect width="32" height="32" fill="white" transform="translate(0.5)"/>
</clipPath>
</defs>
</svg>
