<svg width="33" height="32" viewBox="0 0 33 32" fill="none" xmlns="http://www.w3.org/2000/svg">
<g clip-path="url(#clip0_644_1725)">
<path d="M32.0103 8.08716L16.8102 1.68696C16.6118 1.60435 16.3883 1.60435 16.1899 1.68696L0.989844 8.08716C0.693066 8.21196 0.5 8.50259 0.5 8.82456V29.6248C0.5 30.0666 0.858301 30.4246 1.3001 30.4246C1.74189 30.4246 2.0999 30.0666 2.0999 29.6248V9.35571L16.4999 3.29272L30.8999 9.35571V29.6248C30.8999 30.0666 31.2582 30.4246 31.7 30.4246C32.1418 30.4246 32.5001 30.0666 32.5001 29.6248V8.82456C32.5001 8.50259 32.307 8.21196 32.0103 8.08716Z" fill="#FF5100"/>
<path d="M25.9237 19.317L23.6673 11.795C23.5653 11.4566 23.2542 11.2249 22.9009 11.2246H10.1008C9.74746 11.2249 9.43603 11.4566 9.33437 11.795L7.07764 19.317C6.03232 19.5968 5.304 20.5425 5.30078 21.6247V24.8248C5.304 25.8385 5.94473 26.7405 6.90068 27.0774V28.0246C6.90068 29.3503 7.97529 30.4246 9.30068 30.4246C10.6264 30.4246 11.7007 29.3503 11.7007 28.0246V27.2248H21.3007V28.0246C21.3007 29.3503 22.3753 30.4246 23.7007 30.4246C25.0264 30.4246 26.1007 29.3503 26.1007 28.0246V27.0771C27.0569 26.7405 27.6977 25.8385 27.7009 24.8248V21.6247C27.6974 20.5425 26.9693 19.5968 25.9237 19.317ZM10.6961 12.8248H22.3056L24.2254 19.2247H8.77598L10.6961 12.8248ZM10.1008 28.0246C10.1008 28.4667 9.74248 28.8247 9.30068 28.8247C8.85889 28.8247 8.50088 28.4667 8.50088 28.0246V27.2248H10.1008V28.0246ZM24.5008 28.0246C24.5008 28.4667 24.1425 28.8247 23.7007 28.8247C23.2589 28.8247 22.9009 28.4667 22.9009 28.0246V27.2248H24.5008V28.0246ZM26.1007 24.8248C26.1004 25.2663 25.7424 25.6243 25.3009 25.6246H7.70078C7.25898 25.6243 6.90098 25.2663 6.90068 24.8248V21.6247C6.90098 21.1829 7.25898 20.8252 7.70078 20.8246H25.3009C25.7424 20.8252 26.1004 21.1829 26.1007 21.6247V24.8248Z" fill="#FF5100"/>
<path d="M10.9 22.4248H9.2998C8.85801 22.4248 8.5 22.7828 8.5 23.2246C8.5 23.6667 8.85801 24.0247 9.2998 24.0247H10.9C11.3418 24.0247 11.6998 23.6667 11.6998 23.2246C11.6998 22.7828 11.3418 22.4248 10.9 22.4248Z" fill="#FF5100"/>
<path d="M23.7008 22.4248H22.1009C21.6591 22.4248 21.3008 22.7828 21.3008 23.2246C21.3008 23.6667 21.6591 24.0247 22.1009 24.0247H23.7008C24.1426 24.0247 24.5009 23.6667 24.5009 23.2246C24.5009 22.7828 24.1426 22.4248 23.7008 22.4248Z" fill="#FF5100"/>
</g>
<defs>
<clipPath id="clip0_644_1725">
<rect width="32" height="32" fill="white" transform="translate(0.5)"/>
</clipPath>
</defs>
</svg>
