<svg width="33" height="32" viewBox="0 0 33 32" fill="none" xmlns="http://www.w3.org/2000/svg">
<g clip-path="url(#clip0_644_1732)">
<path d="M30.6022 11.715C30.6566 11.0078 30.6406 9.13261 29.0374 8.25261C28.3366 7.86861 26.7974 7.26701 24.3622 7.55501C23.2262 7.68941 22.1542 7.83341 21.1174 7.98061C21.034 7.97931 20.9508 7.99119 20.871 8.01581C17.3286 8.53101 14.2342 9.13261 10.7814 9.79821C7.48864 10.4382 5.13983 12.3966 4.33663 15.1774C4.16063 15.7918 3.77343 17.0974 3.50463 18.0094L3.23583 18.9182C2.84543 20.2462 1.45983 20.307 1.29023 20.3102C1.07806 20.3102 0.874578 20.3945 0.724549 20.5445C0.57452 20.6946 0.490234 20.898 0.490234 21.1102C0.490234 21.3224 0.57452 21.5259 0.724549 21.6759C0.874578 21.8259 1.07806 21.9102 1.29023 21.9102C1.82598 21.9003 2.35383 21.7791 2.84025 21.5544C3.32668 21.3296 3.76106 21.0062 4.11583 20.6046L12.2598 24.1438C12.8575 24.3824 13.4947 24.5061 14.1382 24.5086C16.4646 24.5086 18.4518 22.8286 19.4086 20.771C19.5912 20.3809 19.7442 19.9777 19.8662 19.5646L24.9286 21.699C25.5125 21.9443 26.1386 22.0736 26.7718 22.0798C28.9798 22.0798 30.8998 20.4798 31.8054 18.5022C33.0662 15.7918 32.6054 13.315 30.6022 11.715ZM28.2694 9.65741C28.4665 9.7794 28.633 9.94494 28.7562 10.1413C28.8793 10.3377 28.9559 10.5597 28.9798 10.7902C28.9094 10.7646 28.839 10.7486 28.7686 10.7294H28.7462L24.4646 9.15501H24.551C26.5414 8.90861 27.735 9.36621 28.2694 9.65741ZM5.86944 15.6254C6.36864 13.9102 7.64864 12.5886 9.45984 11.8398L12.5926 13.0014C11.2644 13.699 10.2127 14.8274 9.61024 16.2014C8.81983 17.9198 8.69184 19.6062 9.22303 21.0782L4.82943 19.1582L5.03743 18.4574C5.29983 17.5454 5.69344 16.2398 5.87264 15.6254H5.86944ZM12.871 22.6654C12.3991 22.4953 11.968 22.2283 11.6054 21.8817C11.2427 21.5351 10.9566 21.1164 10.7654 20.6526C10.3302 19.5646 10.4454 18.2654 11.0854 16.8926C11.7254 15.5198 12.7302 14.563 13.9174 14.1982C14.2354 14.0981 14.5665 14.0453 14.8998 14.0414C15.1556 14.043 15.4102 14.0752 15.6582 14.1374L16.3654 14.3998C16.4486 14.4414 16.535 14.4798 16.615 14.5278C19.3094 16.1278 18.6278 18.7134 17.9814 20.1022C17.3638 21.4398 15.4982 23.6798 12.8742 22.6622L12.871 22.6654ZM17.4406 13.1614C17.3478 13.1038 17.2486 13.059 17.1526 13.0078H17.127C16.8208 12.8502 16.4991 12.7247 16.167 12.6334L12.2118 11.155C15.1846 10.5822 17.9462 10.0638 21.047 9.60941L25.1846 11.123C23.959 11.7966 22.9904 12.8563 22.4294 14.1374C21.6742 15.7598 21.543 17.3374 22.039 18.7422L20.1734 17.955C20.2438 15.9774 19.3094 14.2782 17.4406 13.1582V13.1614ZM30.3526 17.827C29.7702 19.0814 28.0198 21.1934 25.5526 20.2302C25.1128 20.0702 24.7112 19.8202 24.3735 19.4962C24.0357 19.1722 23.7692 18.7814 23.591 18.3486C23.1814 17.3278 23.271 16.1086 23.8822 14.8286C24.4934 13.5486 25.4278 12.6366 26.5414 12.2974C26.844 12.2031 27.1589 12.1546 27.4758 12.1534C28.0409 12.1571 28.5942 12.3154 29.0758 12.611C31.6006 14.1086 30.9606 16.5214 30.3526 17.827Z" fill="#FF5100"/>
</g>
<defs>
<clipPath id="clip0_644_1732">
<rect width="32" height="32" fill="white" transform="translate(0.5)"/>
</clipPath>
</defs>
</svg>
