<svg width="33" height="32" viewBox="0 0 33 32" fill="none" xmlns="http://www.w3.org/2000/svg">
<mask id="path-1-inside-1_644_1738" fill="white">
<path d="M31.5625 18.875H28.5263C28.1393 17.7839 27.0972 17 25.875 17C24.6757 17 23.6498 17.7549 23.2462 18.8142C22.6165 18.4194 21.9277 18.0829 21.1875 17.8102V16.8388C22.2787 16.4518 23.0625 15.4097 23.0625 14.1875C23.0625 12.6367 21.8008 11.375 20.25 11.375H19.3125V9.21375C20.4037 8.82675 21.1875 7.78469 21.1875 6.5625V5.625H25.875C27.4258 5.625 28.6875 4.36331 28.6875 2.8125C28.6875 1.26169 27.4258 0 25.875 0H7.125C5.57419 0 4.3125 1.26169 4.3125 2.8125C4.3125 4.36331 5.57419 5.625 7.125 5.625H11.8125V6.5625C11.8125 7.78469 12.5963 8.82675 13.6875 9.21375V11.375H12.75C11.1992 11.375 9.9375 12.6367 9.9375 14.1875C9.9375 15.4097 10.7213 16.4518 11.8125 16.8388V17.8102C11.0722 18.0829 10.3835 18.4194 9.75381 18.8142C9.35013 17.7549 8.32431 17 7.125 17C5.90281 17 4.86075 17.7839 4.47375 18.875H1.4375C0.91975 18.875 0.5 19.2948 0.5 19.8125V29.1875C0.5 29.7052 0.91975 30.125 1.4375 30.125H4.47375C4.86075 31.2161 5.90281 32 7.125 32C8.32413 32 9.34987 31.2454 9.75362 30.1863C11.6232 31.3581 14.0006 32 16.5 32C18.9994 32 21.3769 31.3581 23.2464 30.1863C23.6501 31.2454 24.6758 32 25.875 32C27.0972 32 28.1393 31.2161 28.5263 30.125H31.5625C32.0802 30.125 32.5 29.7052 32.5 29.1875V19.8125C32.5 19.2948 32.0802 18.875 31.5625 18.875ZM4.3125 28.25H2.375V20.75H4.3125V28.25ZM8.0625 29.1875C8.0625 29.7044 7.64194 30.125 7.125 30.125C6.60806 30.125 6.1875 29.7044 6.1875 29.1875V19.8125C6.1875 19.2956 6.60806 18.875 7.125 18.875C7.64194 18.875 8.0625 19.2956 8.0625 19.8125V29.1875ZM19.3125 6.5625C19.3125 7.07944 18.8919 7.5 18.375 7.5H14.625C14.1081 7.5 13.6875 7.07944 13.6875 6.5625V5.625H19.3125V6.5625ZM17.4375 9.375V11.375H15.5625V9.375H17.4375ZM7.125 3.75C6.60806 3.75 6.1875 3.32944 6.1875 2.8125C6.1875 2.29556 6.60806 1.875 7.125 1.875H25.875C26.3919 1.875 26.8125 2.29556 26.8125 2.8125C26.8125 3.32944 26.3919 3.75 25.875 3.75C25.4163 3.75 9.28706 3.75 7.125 3.75ZM12.75 13.25C13.5501 13.25 19.4504 13.25 20.25 13.25C20.7669 13.25 21.1875 13.6706 21.1875 14.1875C21.1875 14.7044 20.7669 15.125 20.25 15.125H12.75C12.2331 15.125 11.8125 14.7044 11.8125 14.1875C11.8125 13.6706 12.2331 13.25 12.75 13.25ZM23.0625 28.25H23.0612C22.8718 28.25 22.6869 28.3073 22.5309 28.4144C20.9227 29.5175 18.7809 30.125 16.5 30.125C14.2191 30.125 12.0773 29.5175 10.4692 28.4144C10.3131 28.3073 10.1282 28.25 9.93888 28.25H9.9375V20.75H9.93888C10.1282 20.75 10.3131 20.6927 10.4692 20.5856C11.2096 20.0777 12.0692 19.6721 13.0242 19.3801C13.4183 19.2595 13.6875 18.8957 13.6875 18.4836V17H19.3125V18.4836C19.3125 18.8957 19.5817 19.2596 19.9758 19.3801C20.9307 19.6721 21.7904 20.0777 22.5309 20.5856C22.687 20.6927 22.8718 20.75 23.0611 20.75H23.0625V28.25ZM26.8125 29.1875C26.8125 29.7044 26.3919 30.125 25.875 30.125C25.3581 30.125 24.9375 29.7044 24.9375 29.1875V19.8125C24.9375 19.2956 25.3581 18.875 25.875 18.875C26.3919 18.875 26.8125 19.2956 26.8125 19.8125V29.1875ZM30.625 28.25H28.6875V20.75H30.625V28.25Z"/>
</mask>
<path d="M31.5625 18.875H28.5263C28.1393 17.7839 27.0972 17 25.875 17C24.6757 17 23.6498 17.7549 23.2462 18.8142C22.6165 18.4194 21.9277 18.0829 21.1875 17.8102V16.8388C22.2787 16.4518 23.0625 15.4097 23.0625 14.1875C23.0625 12.6367 21.8008 11.375 20.25 11.375H19.3125V9.21375C20.4037 8.82675 21.1875 7.78469 21.1875 6.5625V5.625H25.875C27.4258 5.625 28.6875 4.36331 28.6875 2.8125C28.6875 1.26169 27.4258 0 25.875 0H7.125C5.57419 0 4.3125 1.26169 4.3125 2.8125C4.3125 4.36331 5.57419 5.625 7.125 5.625H11.8125V6.5625C11.8125 7.78469 12.5963 8.82675 13.6875 9.21375V11.375H12.75C11.1992 11.375 9.9375 12.6367 9.9375 14.1875C9.9375 15.4097 10.7213 16.4518 11.8125 16.8388V17.8102C11.0722 18.0829 10.3835 18.4194 9.75381 18.8142C9.35013 17.7549 8.32431 17 7.125 17C5.90281 17 4.86075 17.7839 4.47375 18.875H1.4375C0.91975 18.875 0.5 19.2948 0.5 19.8125V29.1875C0.5 29.7052 0.91975 30.125 1.4375 30.125H4.47375C4.86075 31.2161 5.90281 32 7.125 32C8.32413 32 9.34987 31.2454 9.75362 30.1863C11.6232 31.3581 14.0006 32 16.5 32C18.9994 32 21.3769 31.3581 23.2464 30.1863C23.6501 31.2454 24.6758 32 25.875 32C27.0972 32 28.1393 31.2161 28.5263 30.125H31.5625C32.0802 30.125 32.5 29.7052 32.5 29.1875V19.8125C32.5 19.2948 32.0802 18.875 31.5625 18.875ZM4.3125 28.25H2.375V20.75H4.3125V28.25ZM8.0625 29.1875C8.0625 29.7044 7.64194 30.125 7.125 30.125C6.60806 30.125 6.1875 29.7044 6.1875 29.1875V19.8125C6.1875 19.2956 6.60806 18.875 7.125 18.875C7.64194 18.875 8.0625 19.2956 8.0625 19.8125V29.1875ZM19.3125 6.5625C19.3125 7.07944 18.8919 7.5 18.375 7.5H14.625C14.1081 7.5 13.6875 7.07944 13.6875 6.5625V5.625H19.3125V6.5625ZM17.4375 9.375V11.375H15.5625V9.375H17.4375ZM7.125 3.75C6.60806 3.75 6.1875 3.32944 6.1875 2.8125C6.1875 2.29556 6.60806 1.875 7.125 1.875H25.875C26.3919 1.875 26.8125 2.29556 26.8125 2.8125C26.8125 3.32944 26.3919 3.75 25.875 3.75C25.4163 3.75 9.28706 3.75 7.125 3.75ZM12.75 13.25C13.5501 13.25 19.4504 13.25 20.25 13.25C20.7669 13.25 21.1875 13.6706 21.1875 14.1875C21.1875 14.7044 20.7669 15.125 20.25 15.125H12.75C12.2331 15.125 11.8125 14.7044 11.8125 14.1875C11.8125 13.6706 12.2331 13.25 12.75 13.25ZM23.0625 28.25H23.0612C22.8718 28.25 22.6869 28.3073 22.5309 28.4144C20.9227 29.5175 18.7809 30.125 16.5 30.125C14.2191 30.125 12.0773 29.5175 10.4692 28.4144C10.3131 28.3073 10.1282 28.25 9.93888 28.25H9.9375V20.75H9.93888C10.1282 20.75 10.3131 20.6927 10.4692 20.5856C11.2096 20.0777 12.0692 19.6721 13.0242 19.3801C13.4183 19.2595 13.6875 18.8957 13.6875 18.4836V17H19.3125V18.4836C19.3125 18.8957 19.5817 19.2596 19.9758 19.3801C20.9307 19.6721 21.7904 20.0777 22.5309 20.5856C22.687 20.6927 22.8718 20.75 23.0611 20.75H23.0625V28.25ZM26.8125 29.1875C26.8125 29.7044 26.3919 30.125 25.875 30.125C25.3581 30.125 24.9375 29.7044 24.9375 29.1875V19.8125C24.9375 19.2956 25.3581 18.875 25.875 18.875C26.3919 18.875 26.8125 19.2956 26.8125 19.8125V29.1875ZM30.625 28.25H28.6875V20.75H30.625V28.25Z" fill="#FF5100" stroke="#FF5100" stroke-width="3.5" mask="url(#path-1-inside-1_644_1738)"/>
</svg>
