<svg width="33" height="32" viewBox="0 0 33 32" fill="none" xmlns="http://www.w3.org/2000/svg">
<path d="M29.6562 17.4199C30.0014 17.4199 30.2812 17.1401 30.2812 16.7949C30.2812 16.4497 30.0014 16.1699 29.6562 16.1699C29.3111 16.1699 29.0312 16.4497 29.0312 16.7949C29.0312 17.1401 29.3111 17.4199 29.6562 17.4199Z" fill="#FF5100"/>
<path d="M10.4062 24.225H20.7812C21.8704 24.225 22.7563 23.3391 22.7563 22.25V17.875C22.7563 16.7859 21.8704 15.9 20.7812 15.9H10.4062C9.31715 15.9 8.43125 16.7859 8.43125 17.875V22.25C8.43125 23.3391 9.31715 24.225 10.4062 24.225ZM9.88125 17.875C9.88125 17.5856 10.1169 17.35 10.4062 17.35H20.7812C21.0706 17.35 21.3062 17.5856 21.3062 17.875V22.25C21.3062 22.5394 21.0706 22.775 20.7812 22.775H10.4062C10.1169 22.775 9.88125 22.5394 9.88125 22.25V17.875Z" fill="#FF5100" stroke="#FF5100" stroke-width="0.2"/>
<path d="M17.6313 6.25C17.6313 4.47165 16.1846 3.025 14.4062 3.025H7.15625C5.3779 3.025 3.93125 4.47165 3.93125 6.25V8.75C3.93125 9.8391 4.81715 10.725 5.90625 10.725H13.1562C15.6239 10.725 17.6313 8.71767 17.6313 6.25ZM5.38125 8.75V6.25C5.38125 5.27135 6.1776 4.475 7.15625 4.475H14.4062C15.3849 4.475 16.1812 5.27135 16.1812 6.25C16.1812 7.9179 14.8241 9.275 13.1562 9.275H5.90625C5.61685 9.275 5.38125 9.0394 5.38125 8.75Z" fill="#FF5100" stroke="#FF5100" stroke-width="0.2"/>
<path d="M25.6895 11.9603L25.7451 12.0432L26.6954 12.159C26.4724 11.8262 26.022 11.7375 25.6895 11.9603Z" fill="#FF5100" stroke="#FF5100" stroke-width="0.2"/>
<path d="M4.65766 27.8548C4.49628 27.6139 4.56069 27.2878 4.80158 27.1264L7.59969 25.2514C7.84043 25.0901 8.16652 25.1544 8.32809 25.3954C8.48945 25.6362 8.42504 25.9623 8.18417 26.1238C8.18417 26.1238 8.18417 26.1238 8.18416 26.1238L5.38609 27.9987C5.29622 28.0589 5.19475 28.0876 5.09434 28.0876C4.92492 28.0876 4.75896 28.0059 4.65766 27.8548Z" fill="#FF5100" stroke="#FF5100" stroke-width="0.2"/>
<path d="M26.4967 26.9603L26.4967 26.9603L23.6986 25.0853C23.6986 25.0853 23.6986 25.0853 23.6986 25.0853C23.366 24.8624 22.9156 24.9513 22.6927 25.284L22.6927 25.284C22.4698 25.6166 22.5588 26.0669 22.8914 26.2899L22.8914 26.2899L25.6895 28.1648C25.6895 28.1649 25.6895 28.1649 25.6895 28.1649C25.8134 28.2479 25.9538 28.2876 26.0926 28.2876C26.326 28.2876 26.5555 28.1749 26.6954 27.9661C26.9184 27.6335 26.8293 27.1833 26.4967 26.9603Z" fill="#FF5100" stroke="#FF5100" stroke-width="0.2"/>
<path d="M8.2955 13.8353L8.29553 13.8353C8.6281 14.0583 8.71711 14.5085 8.49423 14.8411C8.49422 14.8411 8.49422 14.8411 8.49422 14.8411L8.41115 14.7854C8.29059 14.9654 8.09284 15.0626 7.8914 15.0626C7.77178 15.0626 7.65084 15.0284 7.54403 14.9568L8.2955 13.8353ZM8.2955 13.8353L5.49739 11.9603C5.16487 11.7374 4.71451 11.8263 4.49152 12.159L4.49151 12.159C4.26864 12.4916 4.35761 12.9419 4.69023 13.1649L4.69023 13.1649L7.48833 15.0398L8.2955 13.8353Z" fill="#FF5100" stroke="#FF5100" stroke-width="0.2"/>
<path d="M27.0965 0.112458L27.0965 0.112476L31.9814 4.99729L31.9107 5.068L31.9814 4.9973C32.2645 5.28047 32.2645 5.73953 31.9814 6.02265L28.9365 9.06762L30.1688 10.2999C30.1688 10.2999 30.1688 10.2999 30.1688 10.2999C30.3057 10.4368 30.3812 10.6191 30.3812 10.8125V13.9813V13.9813V13.9813V13.9813V13.9813V13.9813V13.9813V13.9814V13.9814V13.9814V13.9814V13.9814V13.9814V13.9815V13.9815V13.9815V13.9815V13.9815V13.9815V13.9816V13.9816V13.9816V13.9816V13.9816V13.9816V13.9816V13.9817V13.9817V13.9817V13.9817V13.9817V13.9817V13.9817V13.9818V13.9818V13.9818V13.9818V13.9818V13.9818V13.9819V13.9819V13.9819V13.9819V13.9819V13.9819V13.9819V13.982V13.982V13.982V13.982V13.982V13.982V13.982V13.9821V13.9821V13.9821V13.9821V13.9821V13.9821V13.9822V13.9822V13.9822V13.9822V13.9822V13.9822V13.9822V13.9823V13.9823V13.9823V13.9823V13.9823V13.9823V13.9823V13.9824V13.9824V13.9824V13.9824V13.9824V13.9824V13.9825V13.9825V13.9825V13.9825C30.3812 14.3821 30.0565 14.7075 29.6562 14.7075C29.2567 14.7075 28.9312 14.3822 28.9312 13.9825V11.1127L19.1685 1.35H6.5313C5.38963 1.35061 4.31695 1.79507 3.50822 2.60201C2.70132 3.41081 2.25631 4.48413 2.25631 5.625V28.8749C2.25816 29.8517 3.05475 30.6482 4.03149 30.65H27.1561C28.1329 30.6482 28.9295 29.8516 28.9313 28.8748V19.6075C28.9313 19.2072 29.2568 18.8825 29.6563 18.8825C30.0559 18.8825 30.3813 19.2072 30.3813 19.6075V28.875C30.3813 29.3102 30.2955 29.7328 30.1277 30.1301L30.1277 30.1302C29.9652 30.5147 29.7322 30.8591 29.4364 31.1556L29.4363 31.1557C29.1404 31.4517 28.7959 31.6839 28.4115 31.8465M27.0965 0.112458L28.3725 31.7544M27.0965 0.112458C26.9605 -0.023451 26.7762 -0.099875 26.5839 -0.099875C26.3916 -0.099875 26.2072 -0.0234613 26.0712 0.112477L23.0263 3.15745M27.0965 0.112458L22.9556 3.22817L23.0263 3.29888L23.097 3.22816L23.0263 3.15745M28.4115 31.8465L28.3725 31.7544M28.4115 31.8465C28.4115 31.8465 28.4115 31.8465 28.4115 31.8465L28.3725 31.7544M28.4115 31.8465C28.014 32.0149 27.5913 32.1 27.1562 32.1H4.03125C3.59613 32.1 3.17349 32.0149 2.77547 31.8465L2.77543 31.8465C2.39168 31.6839 2.04653 31.4517 1.75054 31.1557L1.75046 31.1556C1.45459 30.8591 1.2224 30.5147 1.0598 30.1303M28.3725 31.7544C27.9875 31.9175 27.5781 32 27.1562 32H4.03125C3.60937 32 3.2 31.9175 2.81444 31.7544C2.4425 31.5968 2.10812 31.3719 1.82125 31.085C1.53437 30.7975 1.30944 30.4637 1.15188 30.0912M1.0598 30.1303L1.15188 30.0912M1.0598 30.1303C0.891314 29.7328 0.80625 29.3101 0.80625 28.875V5.625C0.80625 4.85241 0.957645 4.10286 1.25601 3.39664L1.25604 3.39656C1.54483 2.71472 1.95773 2.10274 2.483 1.57683L2.48309 1.57674C3.00897 1.05156 3.62096 0.638586 4.3029 0.350407C5.00854 0.0513611 5.75866 -0.0993642 6.53117 -0.1L6.53125 -0.1L19.4687 -0.1C19.6597 -0.1 19.8463 -0.022574 19.9813 0.112414C19.9813 0.112421 19.9813 0.112427 19.9813 0.112434M1.0598 30.1303C1.05979 30.1303 1.05978 30.1302 1.05978 30.1302L1.15188 30.0912M1.15188 30.0912C0.988688 29.7062 0.90625 29.2969 0.90625 28.875V5.625C0.90625 4.86569 1.055 4.12937 1.34812 3.43556C1.63187 2.76562 2.0375 2.16438 2.55375 1.6475C3.07062 1.13131 3.67188 0.725625 4.34187 0.4425C5.035 0.14875 5.77187 0.000625 6.53125 0L19.9813 0.112434M23.0263 3.15745L19.9813 0.112434M23.0263 3.15745L19.9813 0.112434M25.8329 2.4015L26.5839 1.65048L30.4435 5.51007L29.6925 6.26108L25.8329 2.4015ZM24.0565 4.17775L24.8075 3.4268L28.6671 7.28631L27.9161 8.03733L24.0565 4.17775Z" fill="#FF5100" stroke="#FF5100" stroke-width="0.2"/>
</svg>
