<svg width="33" height="32" viewBox="0 0 33 32" fill="none" xmlns="http://www.w3.org/2000/svg">
<g clip-path="url(#clip0_644_1755)">
<path d="M12.6673 5.43333H11.7007H11.6907L11.6908 5.43284L7.26432 4.99287C7.26429 4.99286 7.26427 4.99286 7.26424 4.99286C6.84431 4.95204 6.45473 4.75601 6.17171 4.44312C5.88871 4.13025 5.73262 3.72304 5.73399 3.30117M12.6673 5.43333L5.83399 3.30133M12.6673 5.43333V30.4C12.6673 30.8509 12.8464 31.2833 13.1652 31.6021C13.4841 31.9209 13.9165 32.1 14.3673 32.1H18.634C19.0849 32.1 19.5173 31.9209 19.8361 31.6021C20.1549 31.2833 20.334 30.8509 20.334 30.4V5.43333H21.354V5.43383L21.3639 5.43284L25.737 4.99553C26.1574 4.95457 26.5473 4.75809 26.8304 4.44461C27.1134 4.13123 27.2692 3.7235 27.2673 3.30128M12.6673 5.43333L27.2673 3.30128M5.73399 3.30117C5.73399 3.30111 5.73399 3.30106 5.73399 3.301L5.83399 3.30133M5.73399 3.30117V3.30133H5.83399M5.73399 3.30117V2.03216M5.83399 3.30133V2.032M5.73399 2.03216C5.73399 2.03222 5.73399 2.03228 5.73399 2.03233L5.83399 2.032M5.73399 2.03216V2.032H5.83399M5.73399 2.03216C5.73262 1.61029 5.88871 1.20309 6.17171 0.890214C6.45471 0.577334 6.84428 0.381307 7.26418 0.340483C7.26423 0.340478 7.26428 0.340473 7.26432 0.340468L11.6374 -0.0968371L11.6473 -0.0978293V-0.0973333L21.3006 -0.1L21.3106 -0.100003L21.3105 -0.0995096L25.737 0.340468C25.737 0.340473 25.7371 0.340477 25.7371 0.340481C26.157 0.381301 26.5466 0.577329 26.8296 0.890214C27.1126 1.20313 27.2687 1.6104 27.2673 2.03233M5.83399 2.032H27.1673M27.2673 2.03233L27.1673 2.032M27.2673 2.03233V2.032H27.1673M27.2673 2.03233L27.2673 3.30086L27.1673 3.30133M27.1673 2.032V3.30133M27.1673 3.30133H27.2673V3.30128M27.1673 3.30133L27.2673 3.30128M25.6107 3.7325L25.6106 3.7325L21.934 4.10276V1.23317L25.6107 1.60083C25.6107 1.60083 25.6107 1.60084 25.6107 1.60084C25.7176 1.61159 25.8166 1.66165 25.8887 1.74131L25.9629 1.67422L25.8887 1.74131C25.9608 1.82098 26.0007 1.92457 26.0007 2.032V3.30133C26.0007 3.40876 25.9608 3.51236 25.8887 3.59203L25.9629 3.65911L25.8887 3.59203C25.8166 3.6717 25.7175 3.72176 25.6107 3.7325ZM7.00066 3.30183V3.30133L7.00066 2.032L7.00066 2.0315C7.00012 1.9237 7.03978 1.81957 7.11189 1.73944C7.184 1.65933 7.28337 1.60896 7.39061 1.59817C7.39063 1.59817 7.39064 1.59817 7.39066 1.59817L11.0673 1.2305V4.10284L7.39066 3.73517C7.2834 3.72439 7.18401 3.67402 7.11189 3.59389C7.03978 3.51376 7.00012 3.40963 7.00066 3.30183ZM6.90066 3.30133V2.032V3.30133ZM19.0673 26.8807V27.7302L13.934 28.586V27.7364L19.0673 26.8807ZM19.0673 24.7474V25.5969L13.934 26.4526V25.6031L19.0673 24.7474ZM19.0673 22.6141V23.4636L13.934 24.3193V23.4698L19.0673 22.6141ZM19.0673 20.4807V21.3302L13.934 22.186V21.3364L19.0673 20.4807ZM19.0673 18.3474V19.1969L13.934 20.0526V19.2031L19.0673 18.3474ZM19.0673 16.2141V17.0636L13.934 17.9193V17.0698L19.0673 16.2141ZM19.0673 14.0807V14.9302L13.934 15.786V14.9364L19.0673 14.0807ZM19.0673 11.9474V12.7969L13.934 13.6526V12.8031L19.0673 11.9474ZM19.0673 9.81405V10.6636L13.934 11.5193V10.6698L19.0673 9.81405ZM19.0673 7.68072V8.53022L13.934 9.38595V8.53644L19.0673 7.68072ZM18.634 30.8333H14.3673C14.2524 30.8333 14.1422 30.7877 14.0609 30.7064C13.9796 30.6252 13.934 30.5149 13.934 30.4V29.8698L19.0673 29.0141V30.4C19.0673 30.5149 19.0217 30.6252 18.9404 30.7064C18.8591 30.7877 18.7489 30.8333 18.634 30.8333ZM19.0673 6.39689L13.934 7.25262V5.43333H19.0673V6.39689ZM12.334 1.16667H20.6673V4.1667L12.334 4.1693V1.16667Z" fill="#FF5100" stroke="#FF5100" stroke-width="0.2"/>
</g>
<defs>
<clipPath id="clip0_644_1755">
<rect width="32" height="32" fill="white" transform="translate(0.5)"/>
</clipPath>
</defs>
</svg>
