<svg width="20" height="20" viewBox="0 0 20 20" fill="none" xmlns="http://www.w3.org/2000/svg">
<path d="M16.2774 17.3051C14.5402 19.0423 10.0914 17.41 6.34069 13.6593C2.58998 9.9086 0.957681 5.4598 2.69485 3.72262L3.83864 2.57883C4.62826 1.78921 5.92937 1.81008 6.74474 2.62545L8.51638 4.39708C9.33175 5.21246 9.35262 6.51356 8.563 7.30319L8.31732 7.54886C7.891 7.97519 7.84929 8.66295 8.24543 9.14299C8.62753 9.60603 9.03947 10.0672 9.48611 10.5139C9.93276 10.9605 10.394 11.3725 10.857 11.7546C11.3371 12.1507 12.0248 12.109 12.4511 11.6827L12.6968 11.437C13.4864 10.6474 14.7875 10.6682 15.6029 11.4836L17.3745 13.2553C18.1899 14.0706 18.2108 15.3717 17.4212 16.1614L16.2774 17.3051Z" stroke="#b59239" stroke-width="1.5"/>
</svg>
