<svg width="28" height="28" viewBox="0 0 28 28" fill="none" xmlns="http://www.w3.org/2000/svg">
<path fill-rule="evenodd" clip-rule="evenodd" d="M0 14C0 6.26801 6.26801 0 14 0C21.732 0 28 6.26801 28 14C28 21.732 21.732 28 14 28C6.26801 28 0 21.732 0 14Z" fill="#2E9DDF"/>
<path d="M7.71199 14.3109L10.4775 15.3431L11.5479 18.7856C11.6164 19.0061 11.886 19.0875 12.065 18.9412L13.6065 17.6846C13.7681 17.5529 13.9983 17.5463 14.1671 17.6689L16.9475 19.6875C17.139 19.8267 17.4102 19.7218 17.4582 19.4905L19.495 9.69314C19.5474 9.44046 19.2991 9.22967 19.0585 9.32271L7.70875 13.7011C7.42866 13.8091 7.4311 14.2057 7.71199 14.3109ZM11.3754 14.7936L16.7803 11.4648C16.8774 11.4051 16.9773 11.5365 16.8939 11.6139L12.4334 15.7602C12.2766 15.9061 12.1754 16.1014 12.1468 16.3134L11.9948 17.4395C11.9747 17.5898 11.7635 17.6047 11.722 17.4592L11.1377 15.4059C11.0707 15.1717 11.1683 14.9215 11.3754 14.7936Z" fill="white"/>
</svg>
