<svg width="25" height="24" viewBox="0 0 25 24" fill="none" xmlns="http://www.w3.org/2000/svg">
<path d="M3.23958 11.6977L7.66439 13.3492L9.37708 18.8571C9.48666 19.2099 9.91804 19.3403 10.2044 19.1062L12.6708 17.0955C12.9294 16.8848 13.2976 16.8743 13.5678 17.0704L18.0165 20.3002C18.3227 20.5229 18.7567 20.355 18.8335 19.9849L22.0923 4.30921C22.1762 3.90493 21.7789 3.56766 21.394 3.71653L3.2344 10.722C2.78625 10.8948 2.79015 11.5293 3.23958 11.6977ZM9.10105 12.47L17.7488 7.14388C17.9042 7.04843 18.0641 7.2586 17.9307 7.38239L10.7938 14.0165C10.5429 14.25 10.3811 14.5625 10.3353 14.9017L10.0921 16.7033C10.0599 16.9439 9.72203 16.9678 9.65565 16.7349L8.72065 13.4496C8.61354 13.0749 8.76961 12.6746 9.10105 12.47Z" fill="white"/>
</svg>
