<svg width="28" height="28" viewBox="0 0 28 28" fill="none" xmlns="http://www.w3.org/2000/svg">
<path fill-rule="evenodd" clip-rule="evenodd" d="M0 14C0 6.26801 6.26801 0 14 0C21.732 0 28 6.26801 28 14C28 21.732 21.732 28 14 28C6.26801 28 0 21.732 0 14Z" fill="#F4F4F4"/>
<path d="M17.6205 6H15.1044V16.1697C15.1044 17.3814 14.1366 18.3768 12.9323 18.3768C11.728 18.3768 10.7603 17.3814 10.7603 16.1697C10.7603 14.9796 11.7065 14.0059 12.8678 13.9627V11.4094C10.3087 11.4527 8.24414 13.5516 8.24414 16.1697C8.24414 18.8095 10.3517 20.93 12.9538 20.93C15.556 20.93 17.6635 18.7879 17.6635 16.1697V10.955C18.6097 11.6474 19.771 12.0586 20.9969 12.0802V9.52694C19.1044 9.46203 17.6205 7.90411 17.6205 6Z" fill="#333333"/>
</svg>
