<svg width="32" height="32" viewBox="0 0 32 32" fill="none" xmlns="http://www.w3.org/2000/svg">
<path d="M29.3327 16.0003C29.3327 8.65366 23.346 2.66699 15.9993 2.66699C8.65268 2.66699 2.66602 8.65366 2.66602 16.0003C2.66602 19.867 4.33268 23.347 6.97268 25.787C6.97268 25.8003 6.97268 25.8003 6.95935 25.8137C7.09268 25.947 7.25268 26.0537 7.38602 26.1737C7.46602 26.2403 7.53268 26.307 7.61268 26.3603C7.85268 26.5603 8.11935 26.747 8.37268 26.9337C8.46602 27.0003 8.54602 27.0537 8.63935 27.1203C8.89268 27.2937 9.15935 27.4537 9.43935 27.6003C9.53268 27.6537 9.63935 27.7203 9.73268 27.7737C9.99935 27.9203 10.2793 28.0537 10.5727 28.1737C10.6793 28.227 10.786 28.2803 10.8927 28.3203C11.186 28.4403 11.4793 28.547 11.7727 28.6403C11.8793 28.6803 11.986 28.7203 12.0927 28.747C12.4127 28.8403 12.7327 28.9203 13.0527 29.0003C13.146 29.027 13.2393 29.0537 13.346 29.067C13.7193 29.147 14.0927 29.2003 14.4793 29.2403C14.5327 29.2403 14.586 29.2537 14.6393 29.267C15.0927 29.307 15.546 29.3337 15.9993 29.3337C16.4527 29.3337 16.906 29.307 17.346 29.267C17.3993 29.267 17.4527 29.2537 17.506 29.2403C17.8927 29.2003 18.266 29.147 18.6393 29.067C18.7327 29.0537 18.826 29.0137 18.9327 29.0003C19.2527 28.9203 19.586 28.8537 19.8927 28.747C19.9993 28.707 20.106 28.667 20.2127 28.6403C20.506 28.5337 20.8127 28.4403 21.0927 28.3203C21.1993 28.2803 21.306 28.227 21.4127 28.1737C21.6927 28.0537 21.9727 27.9203 22.2527 27.7737C22.3593 27.7203 22.4527 27.6537 22.546 27.6003C22.8127 27.4403 23.0793 27.2937 23.346 27.1203C23.4393 27.067 23.5193 27.0003 23.6127 26.9337C23.8793 26.747 24.1327 26.5603 24.3727 26.3603C24.4527 26.2937 24.5193 26.227 24.5993 26.1737C24.746 26.0537 24.8927 25.9337 25.026 25.8137C25.026 25.8003 25.026 25.8003 25.0127 25.787C27.666 23.347 29.3327 19.867 29.3327 16.0003ZM22.586 22.627C18.9727 20.2003 13.0527 20.2003 9.41268 22.627C8.82601 23.0137 8.34602 23.467 7.94602 23.9603C5.91935 21.907 4.66602 19.0937 4.66602 16.0003C4.66602 9.74699 9.74602 4.66699 15.9993 4.66699C22.2527 4.66699 27.3327 9.74699 27.3327 16.0003C27.3327 19.0937 26.0793 21.907 24.0527 23.9603C23.666 23.467 23.1727 23.0137 22.586 22.627Z" fill="#333333"/>
<path d="M16 9.24023C13.24 9.24023 11 11.4802 11 14.2402C11 16.9469 13.12 19.1469 15.9333 19.2269C15.9733 19.2269 16.0267 19.2269 16.0533 19.2269C16.08 19.2269 16.12 19.2269 16.1467 19.2269C16.16 19.2269 16.1733 19.2269 16.1733 19.2269C18.8667 19.1336 20.9867 16.9469 21 14.2402C21 11.4802 18.76 9.24023 16 9.24023Z" fill="#333333"/>
</svg>
