<svg width="25" height="24" viewBox="0 0 25 24" fill="none" xmlns="http://www.w3.org/2000/svg">
<path fill-rule="evenodd" clip-rule="evenodd" d="M13.4069 7.72324C13.4205 7.4681 13.6383 7.27226 13.8934 7.28582C14.8489 7.33658 15.6441 7.62489 16.2102 8.20951C16.7743 8.79213 17.0501 9.60628 17.0974 10.5852C17.1097 10.8404 16.9128 11.0573 16.6576 11.0696C16.4024 11.0819 16.1856 10.8851 16.1732 10.6298C16.1327 9.7919 15.9035 9.22284 15.5455 8.85312C15.1894 8.48541 14.6453 8.25228 13.8443 8.20972C13.5892 8.19619 13.3934 7.97836 13.4069 7.72324Z" fill="white"/>
<path fill-rule="evenodd" clip-rule="evenodd" d="M12.7004 5.23358C12.7185 4.97872 12.9398 4.7868 13.1946 4.80489C15.142 4.94316 16.7057 5.61206 17.8444 6.85269C18.9765 8.08603 19.5109 9.61641 19.4701 11.4135C19.4643 11.6689 19.2525 11.8713 18.9971 11.8655C18.7416 11.8597 18.5393 11.6479 18.5451 11.3925C18.5811 9.80834 18.1165 8.5174 17.1628 7.47832C16.2158 6.44654 14.8922 5.85297 13.1291 5.72779C12.8742 5.70969 12.6823 5.48841 12.7004 5.23358Z" fill="white"/>
<path fill-rule="evenodd" clip-rule="evenodd" d="M11.8867 2.86005C11.8884 2.60457 12.0968 2.39878 12.3523 2.4004C15.0379 2.41758 17.3123 3.31538 19.1327 5.08955L19.1332 5.09008C20.9682 6.88432 21.8789 9.31746 21.9016 12.3499C21.9035 12.6054 21.698 12.8141 21.4425 12.816C21.187 12.8179 20.9783 12.6123 20.9764 12.3568C20.9552 9.5163 20.1095 7.33883 18.4867 5.7519C16.8491 4.15605 14.8092 3.34137 12.3464 3.32562C12.0909 3.32399 11.8851 3.11555 11.8867 2.86005Z" fill="white"/>
<path d="M13.9628 16.8049C13.9628 16.8049 14.6159 16.8598 14.9617 16.4262L15.6424 15.5699C15.9717 15.1418 16.7676 14.8728 17.547 15.3065C17.9806 15.5535 18.7601 16.031 19.2431 16.3878C19.7591 16.7665 20.8184 17.6502 20.8184 17.6502C21.3234 18.0729 21.4387 18.6986 21.0984 19.3573C21.0984 19.3628 21.0929 19.3683 21.0929 19.3683C20.7416 19.9885 20.2695 20.5758 19.6712 21.1193C19.6658 21.1247 19.6658 21.1248 19.6603 21.1302C19.1717 21.5364 18.6887 21.7724 18.2167 21.8273C18.1618 21.8383 18.0904 21.8438 18.0081 21.8383C17.7995 21.8383 17.5964 21.8109 17.3933 21.745L17.3769 21.723C16.6468 21.5199 15.4338 21.004 13.4084 19.8897C12.091 19.1652 10.9987 18.4242 10.0766 17.6887C9.58806 17.3044 9.08857 16.8653 8.57809 16.3603C8.56163 16.3439 8.54516 16.3274 8.5287 16.311C8.51224 16.2945 8.49577 16.278 8.47931 16.2615C8.46284 16.2451 8.44636 16.2286 8.42989 16.2121C8.41343 16.1957 8.39696 16.1792 8.3805 16.1628C7.87552 15.6523 7.43641 15.1528 7.05217 14.6643C6.31667 13.7421 5.57564 12.6443 4.85111 11.3325C3.73686 9.30706 3.22091 8.094 3.01782 7.36397L2.99586 7.34751C2.92998 7.14442 2.89705 6.94133 2.90255 6.73275C2.89705 6.65043 2.90255 6.57907 2.91352 6.52419C2.9684 6.05213 3.20444 5.56911 3.61062 5.08059C3.61612 5.07509 3.61609 5.07509 3.62159 5.06962C4.165 4.47132 4.74683 3.99927 5.37256 3.64798C5.37805 3.64798 5.38355 3.64248 5.38355 3.64248C6.0422 3.30216 6.66796 3.41743 7.0906 3.92242C7.09609 3.92791 7.97432 4.98178 8.35304 5.49775C8.70983 5.98625 9.19285 6.7602 9.43436 7.19383C9.868 7.97326 9.59905 8.76915 9.17092 9.09847L8.31464 9.77911C7.88101 10.1304 7.9359 10.7781 7.9359 10.7781C7.9359 10.7781 9.20934 15.5919 13.9628 16.8049Z" fill="white"/>
</svg>
