<svg width="28" height="28" viewBox="0 0 28 28" fill="none" xmlns="http://www.w3.org/2000/svg">
<path fill-rule="evenodd" clip-rule="evenodd" d="M0 14C0 6.26801 6.26801 0 14 0C21.732 0 28 6.26801 28 14C28 21.732 21.732 28 14 28C6.26801 28 0 21.732 0 14Z" fill="#7A509B"/>
<path fill-rule="evenodd" clip-rule="evenodd" d="M14.0668 10.827C14.0753 10.6676 14.2114 10.5452 14.3709 10.5536C14.9681 10.5854 15.465 10.7656 15.8189 11.1309C16.1715 11.4951 16.3438 12.0039 16.3734 12.6157C16.3811 12.7752 16.258 12.9108 16.0985 12.9185C15.939 12.9262 15.8035 12.8032 15.7958 12.6436C15.7705 12.1199 15.6272 11.7643 15.4034 11.5332C15.1809 11.3034 14.8408 11.1577 14.3402 11.1311C14.1808 11.1226 14.0584 10.9865 14.0668 10.827Z" fill="white"/>
<path fill-rule="evenodd" clip-rule="evenodd" d="M13.6238 9.27111C13.6351 9.11182 13.7734 8.99187 13.9327 9.00318C15.1498 9.08959 16.1271 9.50766 16.8388 10.2831C17.5463 11.0539 17.8804 12.0104 17.8548 13.1335C17.8512 13.2932 17.7188 13.4197 17.5592 13.416C17.3996 13.4124 17.2731 13.2801 17.2767 13.1204C17.2992 12.1303 17.0089 11.3235 16.4128 10.6741C15.8209 10.0292 14.9937 9.65823 13.8917 9.57999C13.7324 9.56868 13.6125 9.43038 13.6238 9.27111Z" fill="white"/>
<path fill-rule="evenodd" clip-rule="evenodd" d="M13.1152 7.78729C13.1163 7.62761 13.2465 7.49899 13.4062 7.50001C15.0847 7.51075 16.5062 8.07187 17.644 9.18073L17.6443 9.18106C18.7912 10.3025 19.3604 11.8232 19.3745 13.7185C19.3757 13.8781 19.2473 14.0086 19.0876 14.0098C18.9279 14.0109 18.7975 13.8825 18.7963 13.7228C18.783 11.9474 18.2545 10.5865 17.2402 9.5947C16.2167 8.59729 14.9418 8.08811 13.4025 8.07827C13.2428 8.07725 13.1142 7.94698 13.1152 7.78729Z" fill="white"/>
<path d="M14.414 16.5027C14.414 16.5027 14.8222 16.537 15.0383 16.266L15.4637 15.7308C15.6696 15.4633 16.167 15.2952 16.6541 15.5662C16.9252 15.7206 17.4123 16.019 17.7142 16.242C18.0367 16.4787 18.6988 17.031 18.6988 17.031C19.0144 17.2952 19.0864 17.6863 18.8737 18.0979C18.8737 18.1014 18.8703 18.1048 18.8703 18.1048C18.6507 18.4925 18.3557 18.8595 17.9818 19.1992C17.9784 19.2026 17.9784 19.2026 17.9749 19.206C17.6696 19.4599 17.3677 19.6074 17.0727 19.6417C17.0384 19.6486 16.9938 19.652 16.9423 19.6486C16.812 19.6486 16.685 19.6314 16.5581 19.5903L16.5478 19.5765C16.0915 19.4496 15.3334 19.1271 14.0675 18.4307C13.2441 17.9779 12.5615 17.5147 11.9851 17.0551C11.6798 16.8149 11.3676 16.5405 11.0486 16.2248C11.0383 16.2146 11.028 16.2043 11.0177 16.194C11.0074 16.1837 10.9971 16.1734 10.9868 16.1631C10.9765 16.1528 10.9662 16.1425 10.9559 16.1322C10.9456 16.1219 10.9354 16.1116 10.9251 16.1014C10.6095 15.7823 10.335 15.4701 10.0949 15.1648C9.63517 14.5885 9.17203 13.9023 8.7192 13.0824C8.02279 11.8165 7.70032 11.0584 7.57339 10.6021L7.55967 10.5918C7.51849 10.4649 7.49791 10.338 7.50135 10.2076C7.49791 10.1562 7.50135 10.1116 7.5082 10.0772C7.54251 9.78221 7.69003 9.48032 7.94389 9.175C7.94733 9.17157 7.94731 9.17157 7.95075 9.16815C8.29038 8.79421 8.65402 8.49917 9.0451 8.27962C9.04854 8.27962 9.05197 8.27619 9.05197 8.27619C9.46363 8.06349 9.85473 8.13553 10.1189 8.45114C10.1223 8.45458 10.6712 9.11324 10.9079 9.43573C11.1309 9.74104 11.4328 10.2248 11.5837 10.4958C11.8548 10.9829 11.6867 11.4804 11.4191 11.6862L10.8839 12.1116C10.6129 12.3311 10.6472 12.7359 10.6472 12.7359C10.6472 12.7359 11.4431 15.7446 14.414 16.5027Z" fill="white"/>
</svg>
