<svg width="64" height="36" viewBox="0 0 64 36" fill="none" xmlns="http://www.w3.org/2000/svg">
<g clip-path="url(#clip0_660_3042)">
<path d="M52.0009 24.5223H48.9897C48.8795 24.0009 48.7613 23.491 48.668 22.9766C48.6293 22.7631 48.56 22.6803 48.318 22.6834C47.1106 22.6987 45.9028 22.695 44.6953 22.6855C44.6242 22.6747 44.5517 22.692 44.4934 22.7335C44.4351 22.7751 44.3959 22.8376 44.3842 22.9075C44.2179 23.3976 44.036 23.8828 43.8498 24.366C43.8246 24.4316 43.7408 24.5216 43.6835 24.5221C42.5951 24.5314 41.5066 24.529 40.3867 24.529C40.5908 24.0451 40.7841 23.583 40.9802 23.1222C42.3836 19.8253 43.7874 16.5285 45.1914 13.2318C45.4955 12.5178 45.9513 12.2188 46.7354 12.2188C47.6092 12.2188 48.4829 12.2188 49.3791 12.2188C49.4665 12.6207 49.5544 13.0167 49.6386 13.4136C50.3292 16.6717 51.0198 19.9297 51.7104 23.1878C51.7991 23.6051 51.9037 24.0191 52.0009 24.4347L52.0009 24.5223ZM48.0598 20.1502C47.7389 18.6353 47.4223 17.1406 47.1057 15.6461L47.0669 15.6386C46.5152 17.1369 45.9635 18.6353 45.4058 20.1503L48.0598 20.1502Z" fill="white"/>
<path d="M38.8824 12C39.2798 12.0727 39.6802 12.1324 40.0737 12.2218C40.4327 12.3033 40.7843 12.417 41.1659 12.524C40.9735 13.4096 40.7856 14.2749 40.6021 15.1198C40.0987 14.9744 39.6175 14.807 39.1228 14.6995C38.4462 14.5525 37.7531 14.4964 37.0762 14.6821C36.7934 14.7612 36.5308 14.8987 36.306 15.0853C35.9345 15.3987 35.9295 15.8499 36.2844 16.179C36.5374 16.4021 36.8138 16.5982 37.1089 16.7638C37.7677 17.1539 38.4595 17.4932 39.0998 17.9099C39.8539 18.4007 40.4039 19.0754 40.5194 19.9877C40.7236 21.6012 40.1176 22.8722 38.7411 23.7713C37.8755 24.3367 36.896 24.5893 35.8753 24.6828C34.4629 24.8142 33.0382 24.6551 31.6915 24.2157C31.6003 24.1862 31.5114 24.1493 31.4224 24.1134C31.391 24.0974 31.3608 24.0791 31.332 24.0588C31.5244 23.1718 31.717 22.2835 31.915 21.3704C32.1471 21.4702 32.365 21.5702 32.5877 21.6585C33.6515 22.0806 34.7502 22.2737 35.8888 22.0636C36.1926 22.0036 36.4813 21.8849 36.7383 21.7144C37.2832 21.3548 37.3354 20.6789 36.8393 20.2565C36.4963 19.9922 36.1319 19.7563 35.7496 19.5508C35.1693 19.2028 34.5527 18.9061 34.0036 18.5166C33.2997 18.0172 32.7898 17.3513 32.6932 16.4664C32.5484 15.1413 33.0478 14.0654 34.0808 13.2294C34.9796 12.5021 36.0467 12.1792 37.1835 12.0437C37.2466 12.0327 37.3091 12.0181 37.3705 12H38.8824Z" fill="white"/>
<path d="M27.172 12.2293C27.0028 12.6301 26.8427 13.0123 26.6804 13.3935C25.1306 17.0337 23.5823 20.6746 22.0355 24.316C22.0154 24.3873 21.9694 24.4488 21.9064 24.4889C21.8433 24.529 21.7675 24.545 21.6932 24.5337C20.7151 24.5257 19.7368 24.5225 18.7588 24.5358C18.5515 24.5387 18.4839 24.4671 18.4361 24.2839C17.6069 21.1021 16.7638 17.9237 15.944 14.7395C15.7936 14.1553 15.4926 13.7564 14.9278 13.5115C14.0229 13.1308 13.0845 12.8321 12.1244 12.6192C12.082 12.6093 12.0398 12.5984 12 12.5886C12.0048 12.2193 12.0048 12.2193 12.3615 12.2193C14.0733 12.2193 15.7851 12.2194 17.4969 12.2195C18.3088 12.2198 18.8949 12.6841 19.0484 13.4755C19.483 15.7156 19.9127 17.9566 20.3375 20.1985C20.3563 20.2965 20.3777 20.3941 20.4061 20.5321C20.4505 20.4499 20.4815 20.4038 20.5017 20.3534C21.5649 17.7056 22.6264 15.0571 23.6862 12.4079C23.7012 12.3463 23.739 12.2925 23.7922 12.2569C23.8454 12.2213 23.9101 12.2065 23.9738 12.2154C24.9667 12.2232 25.9597 12.2192 26.9527 12.2197C27.017 12.2197 27.0811 12.2252 27.172 12.2293Z" fill="white"/>
<path d="M25.875 24.5299C26.7693 20.4148 27.6573 16.3286 28.5474 12.2324H31.7909C31.6559 12.8563 31.5239 13.4682 31.391 14.08C30.6562 17.4634 29.9232 20.8472 29.1919 24.2313C29.1414 24.4665 29.0568 24.5412 28.8088 24.5365C27.92 24.5196 27.0306 24.5299 26.1414 24.5299L25.875 24.5299Z" fill="white"/>
</g>
<rect x="0.5" y="0.5" width="63" height="35" rx="4.5" stroke="#585858"/>
<defs>
<clipPath id="clip0_660_3042">
<rect width="40" height="12.7273" fill="white" transform="translate(12 12)"/>
</clipPath>
</defs>
</svg>
