<svg width="32" height="32" viewBox="0 0 32 32" fill="none" xmlns="http://www.w3.org/2000/svg">
<g clip-path="url(#clip0_457_55774)">
<path d="M30.125 15.3279V11.5552C30.125 9.7017 28.6502 8.18701 26.8125 8.12089V5.8052C26.8125 4.59901 25.8312 3.6177 24.625 3.6177H18.6026L17.8249 1.45601C17.6266 0.904765 17.2253 0.464265 16.6947 0.215702C16.1642 -0.0329228 15.5689 -0.0594229 15.0184 0.140952L4.09 4.11851C3.54013 4.31864 3.10144 4.72108 2.85469 5.2517C2.60794 5.78233 2.58288 6.37714 2.78419 6.92664L3.22325 8.12508C1.42731 8.23614 0 9.73176 0 11.5552V28.5552C0 30.4506 1.54206 31.9927 3.4375 31.9927H26.6875C28.5829 31.9927 30.125 30.4506 30.125 28.5552V24.6575C31.1836 24.5054 32 23.5928 32 22.4927V17.4927C32 16.3926 31.1836 15.48 30.125 15.3279ZM30.125 22.4927C30.125 22.665 29.9848 22.8052 29.8125 22.8052H24.8125C23.2617 22.8052 22 21.5435 22 19.9927C22 18.4419 23.2617 17.1802 24.8125 17.1802H29.8125C29.9848 17.1802 30.125 17.3204 30.125 17.4927V22.4927ZM4.54475 6.28164C4.50594 6.1757 4.53437 6.08626 4.55481 6.04233C4.57525 5.99845 4.62531 5.91901 4.73131 5.88045L15.6597 1.90289C15.7658 1.86433 15.8552 1.89301 15.8992 1.91358C15.9431 1.93414 16.0224 1.98451 16.0606 2.09076L16.61 3.61776H16.1875C14.9813 3.61776 14 4.59908 14 5.80526V8.11776H5.21744L4.54475 6.28164ZM24.9375 5.8052V8.1177H15.875V5.8052C15.875 5.63289 16.0152 5.4927 16.1875 5.4927H24.625C24.7973 5.4927 24.9375 5.63289 24.9375 5.8052ZM26.6875 30.1177H3.4375C2.57594 30.1177 1.875 29.4168 1.875 28.5552V11.5552C1.875 10.6936 2.57594 9.9927 3.4375 9.9927H26.6875C27.5491 9.9927 28.25 10.6936 28.25 11.5552V15.3052H24.8125C22.2278 15.3052 20.125 17.408 20.125 19.9927C20.125 22.5774 22.2278 24.6802 24.8125 24.6802H28.25V28.5552C28.25 29.4168 27.5491 30.1177 26.6875 30.1177Z" fill="#FF5100"/>
<path d="M24.8125 20.9297C25.3303 20.9297 25.75 20.51 25.75 19.9922C25.75 19.4744 25.3303 19.0547 24.8125 19.0547C24.2947 19.0547 23.875 19.4744 23.875 19.9922C23.875 20.51 24.2947 20.9297 24.8125 20.9297Z" fill="#FF5100"/>
</g>
<defs>
<clipPath id="clip0_457_55774">
<rect width="32" height="32" fill="white"/>
</clipPath>
</defs>
</svg>
