<svg width="21" height="20" viewBox="0 0 21 20" fill="none" xmlns="http://www.w3.org/2000/svg">
<path d="M11.2683 16.9873H9.22298C8.99734 15.8518 7.97833 14.9784 6.77735 14.9784C5.88936 14.9784 5.11782 15.4369 4.66655 16.1138V16.1357C3.92413 15.7645 3.23993 15.2477 2.65764 14.6435C1.95161 13.9375 1.55857 13.297 1.39844 12.8821C1.85699 12.7802 2.2646 12.5327 2.59941 12.1761C3.03613 11.7175 3.26177 11.0988 3.26177 10.4802V8.98804C3.26177 7.22661 3.84406 5.48702 4.93586 4.10407C6.48621 2.117 8.78626 0.996094 11.2683 0.996094C13.4009 0.996094 15.4098 1.82586 16.9238 3.33254C18.4377 4.8465 19.2602 6.8554 19.2602 8.98804C19.2602 11.1207 18.4305 13.1296 16.9238 14.6435C15.4244 16.1429 13.3936 16.9873 11.2683 16.9873Z" fill="white"/>
<path d="M20.2536 8.98184C20.2536 6.57989 19.3219 4.32351 17.626 2.62759C15.9373 0.953503 13.6518 0.00727864 11.2717 0C8.5204 0 5.95104 1.24465 4.18961 3.45736C2.92313 5.05138 2.26077 7.01661 2.26077 9.04735V10.4885C2.26077 11.2382 1.74399 11.937 0.71042 12.0025C0.462947 12.0243 0.251866 12.1917 0.251866 12.4392C0.208194 13.1234 0.936058 14.368 1.92595 15.3579C2.61015 16.064 3.41808 16.6244 4.28423 17.0539C4.15322 17.7817 4.34974 18.5314 4.83013 19.0992C5.30324 19.6669 6.00927 19.9944 6.7517 19.9944C7.97451 19.9944 8.9644 19.1428 9.19732 18.0074H11.2863C11.5556 19.4194 13.0259 20.3875 14.5981 19.8489C15.9665 19.3903 16.5633 17.84 16.0684 16.5735C16.607 16.2241 17.1238 15.8092 17.5969 15.3507C19.3074 13.6693 20.2609 11.3765 20.2536 8.98184ZM11.2645 16.9884H9.21915C8.99352 15.8529 7.97451 14.9794 6.77353 14.9794C5.88554 14.9794 5.114 15.438 4.66272 16.1149V16.1368C3.9203 15.7655 3.23611 15.2488 2.65382 14.6446C1.94779 13.9386 1.55474 13.2981 1.39461 12.8832C1.85317 12.7813 2.26077 12.5338 2.59559 12.1772C3.03231 11.7186 3.25795 11.0999 3.25795 10.4812V8.98912C3.25795 7.22769 3.84024 5.4881 4.93203 4.10515C6.48239 2.11809 8.78244 0.997175 11.2645 0.997175C13.3971 0.997175 15.406 1.82694 16.92 3.33362C18.4339 4.84758 19.2564 6.85648 19.2564 8.98912C19.2564 11.1218 18.4266 13.1307 16.92 14.6446C15.4206 16.144 13.3898 16.9884 11.2645 16.9884ZM16.2576 6.99478C16.2576 7.54067 15.8136 7.98467 15.2677 7.98467C14.7218 7.98467 14.2705 7.54067 14.2705 6.99478C14.2705 6.44888 14.7145 5.9976 15.2677 5.9976C15.8136 5.9976 16.2576 6.4416 16.2576 6.99478ZM10.2527 6.99478C10.2527 7.54067 9.80873 7.98467 9.26283 7.98467C8.71693 7.98467 8.26565 7.54067 8.26565 6.99478C8.26565 6.44888 8.70965 5.9976 9.26283 5.9976C9.80873 5.9976 10.2527 6.4416 10.2527 6.99478ZM9.56853 10.2629C9.48846 10.0955 9.29922 9.97174 9.10997 9.97174C8.74604 9.97174 8.50585 10.343 8.65142 10.6778C9.29194 12.0243 10.6603 12.9778 12.2762 12.9778C13.892 12.9778 15.2604 12.0462 15.9009 10.6778C16.0465 10.3502 15.8209 9.97174 15.4424 9.97174H15.4206C15.2313 9.97174 15.0712 10.0736 14.9838 10.2629C14.5107 11.2746 13.4699 11.9806 12.2689 11.9806C11.0825 11.9806 10.0489 11.2746 9.56853 10.2629Z" fill="#333333"/>
<path d="M15.2677 7.98467C15.8136 7.98467 16.2576 7.54067 16.2576 6.99478C16.2576 6.4416 15.8136 5.9976 15.2677 5.9976C14.7145 5.9976 14.2705 6.44888 14.2705 6.99478C14.2705 7.54067 14.7218 7.98467 15.2677 7.98467Z" fill="#333333"/>
<path d="M9.26283 7.98467C9.80873 7.98467 10.2527 7.54067 10.2527 6.99478C10.2527 6.4416 9.80873 5.9976 9.26283 5.9976C8.70965 5.9976 8.26565 6.44888 8.26565 6.99478C8.26565 7.54067 8.71693 7.98467 9.26283 7.98467Z" fill="#333333"/>
<path d="M9.10997 9.97174C9.29922 9.97174 9.48846 10.0955 9.56853 10.2629C10.0489 11.2746 11.0825 11.9806 12.2689 11.9806C13.4699 11.9806 14.5107 11.2746 14.9838 10.2629C15.0712 10.0736 15.2313 9.97174 15.4206 9.97174H15.4424C15.8209 9.97174 16.0465 10.3502 15.9009 10.6778C15.2604 12.0462 13.892 12.9778 12.2762 12.9778C10.6603 12.9778 9.29194 12.0243 8.65142 10.6778C8.50585 10.343 8.74604 9.97174 9.10997 9.97174Z" fill="#333333"/>
<path d="M15.2677 7.98512C15.8136 7.98512 16.2576 7.54112 16.2576 6.99522C16.2576 6.44204 15.8136 5.99805 15.2677 5.99805C14.7145 5.99805 14.2705 6.44932 14.2705 6.99522C14.2705 7.54112 14.7218 7.98512 15.2677 7.98512Z" fill="#333333"/>
<path d="M9.2628 7.98512C9.8087 7.98512 10.2527 7.54112 10.2527 6.99522C10.2527 6.44204 9.8087 5.99805 9.2628 5.99805C8.70962 5.99805 8.26562 6.44932 8.26562 6.99522C8.26562 7.54112 8.7169 7.98512 9.2628 7.98512Z" fill="#333333"/>
<path d="M9.10995 9.97219C9.29919 9.97219 9.48844 10.0959 9.5685 10.2633C10.0489 11.2751 11.0825 11.9811 12.2689 11.9811C13.4699 11.9811 14.5107 11.2751 14.9838 10.2633C15.0712 10.0741 15.2313 9.97219 15.4205 9.97219H15.4424C15.8209 9.97219 16.0465 10.3507 15.9009 10.6782C15.2604 12.0466 13.892 12.9783 12.2762 12.9783C10.6603 12.9783 9.29191 12.0248 8.65139 10.6782C8.50582 10.3434 8.74602 9.97219 9.10995 9.97219Z" fill="#333333"/>
</svg>
