<svg width="16" height="20" viewBox="0 0 16 20" fill="none" xmlns="http://www.w3.org/2000/svg">
<path d="M10.5211 0.332332C9.80684 0.120848 9.02765 0 8.23223 0C5.94336 0 3.88176 0.966784 2.50195 2.49249L6.04076 5.25689L10.5211 0.332332Z" fill="white"/>
<path d="M2.50317 2.49219C1.41556 3.70067 0.75 5.27169 0.75 6.96356C0.75 8.27778 1.02596 9.3352 1.49672 10.2869L6.04198 5.25658L2.50317 2.49219Z" fill="white"/>
<path d="M8.25067 4.30588C9.84151 4.30588 11.1239 5.49926 11.1239 6.97965C11.1239 7.6292 10.8642 8.23344 10.4421 8.70173C10.4421 8.70173 12.6985 6.19413 14.9062 3.76207C13.9972 2.13062 12.4226 0.89193 10.5233 0.333008L6.04297 5.25756C6.57866 4.68353 7.35785 4.30588 8.25067 4.30588Z" fill="white"/>
<path d="M8.24905 9.63757C6.65821 9.63757 5.3758 8.4442 5.3758 6.96381C5.3758 6.31426 5.61929 5.71002 6.04135 5.25684L1.49609 10.2871C2.27528 11.8884 3.57393 13.1875 4.90504 14.8038L10.4405 8.6859C9.90483 9.27503 9.12564 9.63757 8.24905 9.63757Z" fill="white"/>
<path d="M10.3443 16.4951C12.8442 12.8546 15.7499 11.208 15.7499 6.97832C15.7499 5.81516 15.4415 4.72753 14.9058 3.76074L4.90625 14.8032C5.32831 15.3168 5.7666 15.906 6.18866 16.5102C7.71457 18.7006 7.29251 19.9997 8.2665 19.9997C9.24048 19.9997 8.81842 18.6855 10.3443 16.4951Z" fill="white"/>
</svg>
